<?xml version="1.0" encoding="UTF-8" standalone="no"?>
<svg
   viewBox="0 0 24 24"
   width="24"
   height="24"
   version="1.1"
   id="svg8"
   sodipodi:docname="contrast.svg"
   inkscape:version="1.2.2 (b0a8486541, 2022-12-01)"
   xmlns:inkscape="http://www.inkscape.org/namespaces/inkscape"
   xmlns:sodipodi="http://sodipodi.sourceforge.net/DTD/sodipodi-0.dtd"
   xmlns="http://www.w3.org/2000/svg"
   xmlns:svg="http://www.w3.org/2000/svg">
  <sodipodi:namedview
     id="namedview10"
     pagecolor="#ffffff"
     bordercolor="#000000"
     borderopacity="0.25"
     inkscape:showpageshadow="2"
     inkscape:pageopacity="0.0"
     inkscape:pagecheckerboard="0"
     inkscape:deskcolor="#d1d1d1"
     showgrid="false"
     inkscape:zoom="9.8333333"
     inkscape:cx="5.1355932"
     inkscape:cy="12.050847"
     inkscape:window-width="1920"
     inkscape:window-height="1002"
     inkscape:window-x="0"
     inkscape:window-y="0"
     inkscape:window-maximized="1"
     inkscape:current-layer="svg8" />
  <defs
     id="defs3051">
    <style
       type="text/css"
       id="current-color-scheme">
      .ColorScheme-Text {
        color:#eff0f1;
      }
      </style>
  </defs>
  <g
     transform="matrix(1.25,0,0,1.25,-1.75,-1.75)"
     id="g6">
    <path
       style="fill:currentColor;fill-opacity:1;stroke:none"
       transform="translate(-1,-1)"
       d="m 11.5,4 v 1.8125 h 1 V 4 h -1 M 6.6875,5.96875 5.96875,6.6875 7.25,8 7.96875,7.25 6.6875,5.96875 m 10.625,0 L 16.03125,7.25 16.75,8 18.03125,6.6875 17.3125,5.96875 M 12,7 c -2.761424,0 -5,2.2386 -5,5 0,2.7614 2.238576,5 5,5 2.761424,0 5,-2.2386 5,-5 0,-2.7614 -2.238576,-5 -5,-5 z m 0,1 v 8 C 9.790861,16 8,14.2091 8,12 8,9.7909 9.790861,8 12,8 m -8,3.5 v 1 h 1.8125 v -1 H 4 m 14.1875,0 v 1 H 20 v -1 z M 7.25,16.03125 5.96875,17.3125 6.6875,18.03125 7.96875,16.75 7.25,16.03125 m 9.5,0 L 16.03125,16.75 17.3125,18.03125 18.03125,17.3125 16.75,16.03125 M 11.5,18.1875 V 20 h 1 v -1.8125 z"
       class="ColorScheme-Text"
       id="path4" />
  </g>
</svg>
