<?xml version="1.0" encoding="UTF-8" standalone="no"?>
<svg
   sodipodi:docname="login.svg"
   inkscape:version="1.3.2 (091e20ef0f, 2023-11-25)"
   id="svg1699"
   version="1.1"
   viewBox="0 0 32 32"
   height="32"
   width="32"
   xmlns:inkscape="http://www.inkscape.org/namespaces/inkscape"
   xmlns:sodipodi="http://sodipodi.sourceforge.net/DTD/sodipodi-0.dtd"
   xmlns="http://www.w3.org/2000/svg"
   xmlns:svg="http://www.w3.org/2000/svg"
   xmlns:rdf="http://www.w3.org/1999/02/22-rdf-syntax-ns#"
   xmlns:cc="http://creativecommons.org/ns#"
   xmlns:dc="http://purl.org/dc/elements/1.1/">
  <defs
     id="defs1693" />
  <sodipodi:namedview
     inkscape:document-rotation="0"
     inkscape:window-maximized="1"
     inkscape:window-y="0"
     inkscape:window-x="0"
     inkscape:window-height="996"
     inkscape:window-width="1920"
     showgrid="true"
     inkscape:current-layer="layer1"
     inkscape:document-units="px"
     inkscape:cy="40.178571"
     inkscape:cx="-6.0714286"
     inkscape:zoom="5.6"
     inkscape:pageshadow="2"
     inkscape:pageopacity="0"
     borderopacity="1"
     bordercolor="#ff1919"
     pagecolor="#000000"
     id="base"
     inkscape:pagecheckerboard="true"
     inkscape:showpageshadow="false"
     inkscape:deskcolor="#000000">
    <inkscape:grid
       type="xygrid"
       id="grid844"
       originx="0"
       originy="0"
       spacingy="1"
       spacingx="1"
       units="mm"
       visible="true" />
  </sodipodi:namedview>
  <metadata
     id="metadata1696">
    <rdf:RDF>
      <cc:Work
         rdf:about="">
        <dc:format>image/svg+xml</dc:format>
        <dc:type
           rdf:resource="http://purl.org/dc/dcmitype/StillImage" />
      </cc:Work>
    </rdf:RDF>
  </metadata>
  <g
     transform="translate(-98.729144,-81.918987)"
     id="layer1"
     inkscape:groupmode="layer"
     inkscape:label="Layer 1">
    <g
       id="system-switch-user"
       transform="translate(-184.27085,81.918987)">
      <g
         id="g1729">
        <circle
           style="opacity:0;fill:none;fill-opacity:1;stroke-width:1.06667"
           id="circle955"
           r="16"
           cy="-16"
           cx="299"
           transform="scale(1,-1)" />
      </g>
    </g>
    <path
       inkscape:connector-curvature="0"
       d="m 114.72915,81.918987 c -8.82763,0 -16.000004,7.17237 -16.000004,16 0,8.827633 7.172374,16.000003 16.000004,16.000003 8.82762,0 15.99999,-7.17237 15.99999,-16.000003 0,-8.82763 -7.17237,-16 -15.99999,-16 z"
       overflow="visible"
       id="path951"
       style="color:#000000;overflow:visible;opacity:0;fill:none;fill-opacity:1;stroke-width:1.06667" />
    <g
       id="Arrow-Right_1_"
       transform="matrix(0.46929996,0,0,0.46428571,99.729144,83.061844)"
       style="stroke-width:2.14231">
	<path
   id="Arrow-Right"
   class="st0"
   d="M 28,60 56,32 28,4 V 20 H 4 v 18 c 0,3.3 2.7,6 6,6 h 18 z"
   style="opacity:1;fill:#cdd8e5;fill-opacity:0.403922;stroke-width:4.5649" />

	<path
   id="ArrowRight-s"
   class="st1"
   d="M 48.5,45.2 58.8,34.9 c 1.6,-1.6 1.6,-4.1 0,-5.7 L 48.5,18.8 51.3,16 61.6,26.4 c 3.1,3.1 3.1,8.2 0,11.3 L 51.4,48 Z M 28,44 H 12 C 7.6,44 4,40.4 4,36 V 24 H 0 v 12 c 0,6.6 5.4,12 12,12 h 16 z"
   style="fill:#eff0f1;stroke-width:2.14231;fill-opacity:1" />

</g>
  </g>
</svg>
