<?xml version="1.0" encoding="UTF-8" standalone="no"?>
<svg
   id="svg5"
   height="96"
   style=""
   viewBox="0 0 95 96"
   width="96"
   version="1.1"
   sodipodi:docname="switch-user.svg"
   inkscape:version="1.2.2 (b0a8486541, 2022-12-01)"
   xmlns:inkscape="http://www.inkscape.org/namespaces/inkscape"
   xmlns:sodipodi="http://sodipodi.sourceforge.net/DTD/sodipodi-0.dtd"
   xmlns="http://www.w3.org/2000/svg"
   xmlns:svg="http://www.w3.org/2000/svg">
  <defs
     id="defs6" />
  <sodipodi:namedview
     id="namedview4"
     pagecolor="#ffffff"
     bordercolor="#000000"
     borderopacity="0.25"
     inkscape:showpageshadow="2"
     inkscape:pageopacity="0.0"
     inkscape:pagecheckerboard="0"
     inkscape:deskcolor="#d1d1d1"
     showgrid="false"
     inkscape:zoom="3.0751779"
     inkscape:cx="96.092002"
     inkscape:cy="53.49284"
     inkscape:window-width="1920"
     inkscape:window-height="1000"
     inkscape:window-x="0"
     inkscape:window-y="0"
     inkscape:window-maximized="1"
     inkscape:current-layer="svg5" />
  <path
     id="Exchange_2_"
     class="st0"
     d="m -0.5,62.999993 23.999975,-30.00001 v 18.750013 h 36.000013 v -7.500007 h 5.999964 v 11.250008 c 0,10.312496 -6.750038,18.749997 -14.99997,18.749997 H 23.499975 V 93 Z"
     style="fill:#cdd8e5;fill-opacity:0.403922;stroke-width:1.67696" />
  <path
     id="Exchange-s_1_"
     class="st1"
     d="M 74.499917,3 95.5,29.250024 74.499917,55.499997 70.149885,50.25 83.949892,32.999983 H 41.500016 c -3.300013,0 -6.000043,3.374984 -6.000043,7.500031 v 3.749975 h -6.000034 v -3.749975 c 0,-8.250023 5.399997,-15.000016 12.000077,-15.000016 H 83.949892 L 70.300022,8.4374995 Z M 59.499988,51.749996 v 7.500005 c 0,8.249994 -5.399968,14.999993 -12.000008,14.999993 H 23.499975 v 7.500005 H 47.49998 c 9.900034,0 17.999972,-10.125008 17.999972,-22.499998 v -7.500005 z"
     style="fill:#eff0f1;fill-opacity:1;stroke-width:1.67696" />
</svg>
