<?xml version="1.0" encoding="UTF-8" standalone="no"?>
<svg
   viewBox="0 0 20 20"
   version="1.1"
   id="svg1"
   sodipodi:docname="media-playback-start.svg"
   width="20"
   height="20"
   inkscape:version="1.3.2 (091e20ef0f, 2023-11-25)"
   xmlns:inkscape="http://www.inkscape.org/namespaces/inkscape"
   xmlns:sodipodi="http://sodipodi.sourceforge.net/DTD/sodipodi-0.dtd"
   xmlns="http://www.w3.org/2000/svg"
   xmlns:svg="http://www.w3.org/2000/svg">
  <sodipodi:namedview
     id="namedview1"
     pagecolor="#ffffff"
     bordercolor="#000000"
     borderopacity="0.25"
     inkscape:showpageshadow="2"
     inkscape:pageopacity="0.0"
     inkscape:pagecheckerboard="0"
     inkscape:deskcolor="#d1d1d1"
     inkscape:zoom="11.984375"
     inkscape:cx="9.8461538"
     inkscape:cy="23.280313"
     inkscape:window-width="1920"
     inkscape:window-height="996"
     inkscape:window-x="0"
     inkscape:window-y="0"
     inkscape:window-maximized="1"
     inkscape:current-layer="svg1" />
  <defs
     id="defs1">
    <style
       type="text/css"
       id="style1">.ColorScheme-Text { color:#d8dee9; }
</style>
  </defs>
  <g
     id="media-playback-start-2">
    <rect
       id="rect179-2"
       style="opacity:0.00100002;stroke-width:0.625"
       y="0"
       x="0"
       height="20"
       width="20" />
    <path
       id="Move-7-0"
       class="st0"
       d="m 5,12.27683 v 0 0 0 0 -5.2283924 0 L 5.000124,3.5 11.651523,7.9377706 c 3.021811,2.0161314 2.914742,1.094147 -0.04999,3.7034284 L 5,16.5 Z"
       sodipodi:nodetypes="ccccccccsccc"
       style="fill:#cdd8e5;fill-opacity:0.403922;stroke-width:0.538065" />
    <path
       id="Move-s-5-6"
       class="st1"
       d="m 12.076043,10.717272 -5.4200582,3.480569 1.6770522,0.531937 5.270115,-3.403059 C 14.609209,10.508966 14.935426,10.427991 15,9.615255 14.935434,9.0319176 14.444552,8.7021076 13.367833,7.9734676 L 9.1867452,5.3670148 9.1588952,6.8225462 11.868534,8.4533756 c 2.238939,1.5005264 2.361299,0.880796 0.207506,2.2638964 z m -3.743006,4.012506 v 0 l -1.6770522,-0.531937 1.122e-4,1.621723 z"
       sodipodi:nodetypes="sccccccccsccssc"
       style="fill:#eff0f1;fill-opacity:1;stroke-width:0.485184" />
  </g>
</svg>
