<?xml version="1.0" encoding="UTF-8" standalone="no"?>
<svg
   viewBox="0 0 20 20"
   version="1.1"
   id="svg1"
   sodipodi:docname="media-playback-pause.svg"
   width="20"
   height="20"
   inkscape:version="1.3.2 (091e20ef0f, 2023-11-25)"
   xmlns:inkscape="http://www.inkscape.org/namespaces/inkscape"
   xmlns:sodipodi="http://sodipodi.sourceforge.net/DTD/sodipodi-0.dtd"
   xmlns="http://www.w3.org/2000/svg"
   xmlns:svg="http://www.w3.org/2000/svg">
  <sodipodi:namedview
     id="namedview1"
     pagecolor="#ffffff"
     bordercolor="#000000"
     borderopacity="0.25"
     inkscape:showpageshadow="2"
     inkscape:pageopacity="0.0"
     inkscape:pagecheckerboard="0"
     inkscape:deskcolor="#d1d1d1"
     inkscape:zoom="11.984375"
     inkscape:cx="9.5958279"
     inkscape:cy="9.9295958"
     inkscape:window-width="1920"
     inkscape:window-height="996"
     inkscape:window-x="0"
     inkscape:window-y="0"
     inkscape:window-maximized="1"
     inkscape:current-layer="svg1" />
  <defs
     id="defs1">
    <style
       type="text/css"
       id="style1">.ColorScheme-Text { color:#d8dee9; }
</style>
  </defs>
  <g
     id="media-playback-pause-5">
    <rect
       id="rect75"
       style="opacity:0.00100002;stroke-width:0.625"
       y="0"
       x="0"
       height="20"
       width="20" />
    <path
       id="GraphBar"
       class="st0"
       d="m 15.993191,12.927577 c 0,1.321097 -1.080898,2.401994 -2.401994,2.401994 H 12.15 V 3.8 h 3.843191 z M 12.15,3.8 Z"
       sodipodi:nodetypes="sscccsccccc"
       style="opacity:1;fill:#cdd8e5;fill-opacity:0.403922;stroke-width:0.240199;enable-background:new" />
    <path
       id="GraphBar-s"
       class="st1"
       d="M 12.15,16.27957 Z M 15.032393,4.75 v 8.647178 c 0,1.056877 -0.864718,1.921595 -1.921595,1.921595 H 12.15 v 0.960797 h 0.960798 c 1.585316,0 2.882393,-1.297076 2.882393,-2.882392 V 4.75 Z M 12.15,15.318773 v 0 0.960797 0 z m 0,0 v 0 0.960797 0 z"
       sodipodi:nodetypes="ccccccccccssccsscccccccccccc"
       style="fill:#eff0f1;fill-opacity:1;stroke-width:0.240199" />
    <path
       id="GraphBar-4"
       class="st0"
       d="m 4.0012032,7.161403 c -0.0033,-1.320968 1.074749,-2.40448 2.395718,-2.407803 l 1.441055,-0.0036 0.02901,11.528449 -3.842816,0.0095 z m 3.865783,9.11702 z"
       sodipodi:nodetypes="sscccsccccc"
       style="opacity:1;fill:#cdd8e5;fill-opacity:0.403922;stroke-width:0.240176;enable-background:new" />
    <path
       id="GraphBar-s-8"
       class="st1"
       d="m 4.9824572,15.335704 -0.02176,-8.646338 c -0.0027,-1.056775 0.859799,-1.923584 1.916573,-1.926243 l 0.960704,-0.0024 -0.0024,-0.9607 -0.960704,0.0024 c -1.585163,0.004 -2.87885,1.304204 -2.874861,2.889366 l 0.02176,8.646335 z M 7.8379762,4.760705 v 0 l -0.0025,-0.960704 v 0 z m 0,0 v 0 l -0.0025,-0.960704 H 7.835003 Z"
       sodipodi:nodetypes="ccccccccccsscccsccc"
       style="fill:#eff0f1;fill-opacity:1;stroke-width:0.240176" />
  </g>
</svg>
