<?xml version="1.0" encoding="UTF-8" standalone="no"?>
<svg
   width="124.00004"
   height="51.999859"
   viewBox="0 0 32.808341 13.758296"
   id="svg2"
   version="1.1"
   inkscape:version="1.3.2 (091e20ef0f, 2023-11-25)"
   sodipodi:docname="configuration-icons.svg"
   xmlns:inkscape="http://www.inkscape.org/namespaces/inkscape"
   xmlns:sodipodi="http://sodipodi.sourceforge.net/DTD/sodipodi-0.dtd"
   xmlns="http://www.w3.org/2000/svg"
   xmlns:svg="http://www.w3.org/2000/svg"
   xmlns:rdf="http://www.w3.org/1999/02/22-rdf-syntax-ns#"
   xmlns:cc="http://creativecommons.org/ns#"
   xmlns:dc="http://purl.org/dc/elements/1.1/">
  <style
     type="text/css"
     id="current-color-scheme">.ColorScheme-Text { color:#d1d5e9; }
</style>
  <defs
     id="defs4">
    <style
       type="text/css"
       id="style3" />
    <inkscape:perspective
       id="perspective4146"
       inkscape:persp3d-origin="11.999999 : 7.9999625 : 1"
       inkscape:vp_z="23.999998 : 11.999962 : 1"
       inkscape:vp_y="0 : 999.99997 : 0"
       inkscape:vp_x="0 : 11.999962 : 1"
       sodipodi:type="inkscape:persp3d" />
    <inkscape:perspective
       id="perspective4090"
       inkscape:persp3d-origin="11.999999 : 7.9999625 : 1"
       inkscape:vp_z="23.999998 : 11.999962 : 1"
       inkscape:vp_y="0 : 999.99997 : 0"
       inkscape:vp_x="0 : 11.999962 : 1"
       sodipodi:type="inkscape:persp3d" />
  </defs>
  <sodipodi:namedview
     id="base"
     pagecolor="#2e3238"
     bordercolor="#000000"
     borderopacity="1"
     inkscape:pageopacity="1"
     inkscape:pageshadow="2"
     inkscape:zoom="4"
     inkscape:cx="25.75"
     inkscape:cy="27.5"
     inkscape:document-units="px"
     inkscape:current-layer="layer1"
     showgrid="true"
     units="px"
     inkscape:showpageshadow="true"
     borderlayer="true"
     inkscape:window-width="1920"
     inkscape:window-height="990"
     inkscape:window-x="0"
     inkscape:window-y="0"
     inkscape:window-maximized="1"
     fit-margin-top="0"
     fit-margin-left="0"
     fit-margin-right="0"
     fit-margin-bottom="0"
     showguides="false"
     inkscape:lockguides="false"
     inkscape:document-rotation="0"
     inkscape:pagecheckerboard="true"
     inkscape:deskcolor="#2e3238">
    <sodipodi:guide
       position="1.0117348e-06,13.758296"
       orientation="16.000015,0"
       id="guide4136"
       inkscape:locked="false" />
    <sodipodi:guide
       position="1.0117348e-06,9.5249577"
       orientation="0,16"
       id="guide4138"
       inkscape:locked="false" />
    <sodipodi:guide
       position="4.2333342,9.5249577"
       orientation="-16.000015,0"
       id="guide4140"
       inkscape:locked="false" />
    <sodipodi:guide
       position="4.2333342,13.758296"
       orientation="0,-16"
       id="guide4142"
       inkscape:locked="false" />
    <inkscape:grid
       type="xygrid"
       id="grid990"
       originx="1.4117347e-06"
       originy="-3.7929694e-05"
       spacingy="1"
       spacingx="1"
       units="px"
       visible="true" />
  </sodipodi:namedview>
  <metadata
     id="metadata7">
    <rdf:RDF>
      <cc:Work
         rdf:about="">
        <dc:format>image/svg+xml</dc:format>
        <dc:type
           rdf:resource="http://purl.org/dc/dcmitype/StillImage" />
      </cc:Work>
    </rdf:RDF>
  </metadata>
  <g
     inkscape:label="Capa 1"
     inkscape:groupmode="layer"
     id="layer1"
     transform="translate(0.52916771,-249.37497)">
    <g
       id="menu">
      <rect
         y="249.37497"
         x="-0.52916771"
         height="4.2333322"
         width="4.2333336"
         id="rect4152"
         style="opacity:1;fill:none;fill-opacity:1;stroke:none" />
      <rect
         style="opacity:1;fill:none;fill-opacity:1;stroke:none"
         id="rect4154"
         width="3.1750002"
         height="3.1749992"
         x="-1.0174132e-06"
         y="249.90414" />
      <path
         id="rect4167"
         d="m 4.5328302e-8,250.16875 v 0.52917 H 3.1750002 v -0.52917 z m 0,1.05833 v 0.52917 H 3.1750002 v -0.52917 z m 0,1.05834 v 0.52916 H 3.1750002 v -0.52916 z"
         style="opacity:1;fill:#e1e1e1;fill-opacity:1;stroke:none;stroke-opacity:1"
         inkscape:connector-curvature="0"
         class="ColorScheme-Text " />
    </g>
    <g
       id="rotate">
      <rect
         y="249.37497"
         x="8.9958344"
         height="4.2333322"
         width="4.2333336"
         id="rect4176"
         style="opacity:1;fill:none;fill-opacity:1;stroke:none" />
      <rect
         style="opacity:1;fill:none;fill-opacity:1;stroke:none"
         id="rect4178"
         width="3.1750002"
         height="3.1749992"
         x="9.5250006"
         y="249.90414" />
      <path
         style="text-decoration:none;text-decoration-line:none;display:inline;overflow:visible;visibility:visible;fill:#e1e1e1;fill-opacity:1;fill-rule:nonzero;stroke:none;enable-background:accumulate"
         d="M 44.171875,1.671875 43.464844,2.3789062 44.414062,3.328125 45.085938,4 H 41 v 1 h 4.085938 L 44.414062,5.671875 43.464844,6.6210938 44.171875,7.328125 45.121094,6.3789062 47,4.5 45.121094,2.6210938 Z M 39.5,5 C 39.22386,5 39,5.2237543 39,5.5 39,5.7762835 39.223861,6 39.5,6 39.77614,6 40,5.7762457 40,5.5 40,5.2237165 39.776139,5 39.5,5 Z M 46.46875,6.5625 42.5625,10.46875 46.09375,14 50,10.09375 Z M 38.5,8 C 38.22386,8 38,8.2237543 38,8.5 38,8.7762835 38.223862,9 38.5,9 38.77614,9 39,8.7762457 39,8.5 39,8.2237165 38.776139,8 38.5,8 Z m 1,3 C 39.22386,11 39,11.223754 39,11.5 39,11.776283 39.223861,12 39.5,12 39.77614,12 40,11.776246 40,11.5 40,11.223717 39.776139,11 39.5,11 Z m 3,1 C 42.223868,12 42,12.223754 42,12.5 42,12.776283 42.22386,13 42.5,13 42.776132,13 43,12.776246 43,12.5 43,12.223717 42.77614,12 42.5,12 Z"
         transform="matrix(0.26458333,0,0,0.26458333,-0.52916771,249.37493)"
         id="rect4144-9"
         class="ColorScheme-Text"
         inkscape:connector-curvature="0" />
    </g>
    <g
       id="move">
      <rect
         style="opacity:1;fill:none;fill-opacity:1;stroke:none"
         id="rect4213"
         width="4.2333336"
         height="4.2333322"
         x="13.758335"
         y="249.37497" />
      <rect
         y="249.90414"
         x="14.287501"
         height="3.1749992"
         width="3.1750002"
         id="rect4215"
         style="opacity:1;fill:none;fill-opacity:1;stroke:none" />
      <path
         id="path4404"
         d="m 15.875001,249.90414 -0.529166,0.79375 h 1.058333 z m -0.79375,1.05833 -0.79375,0.52917 0.79375,0.52916 z m 1.5875,0 v 1.05833 l 0.79375,-0.52916 z m -0.79375,0.26458 c -0.146125,0 -0.264583,0.11846 -0.264583,0.26459 0,0.14612 0.118458,0.26458 0.264583,0.26458 0.146126,0 0.264584,-0.11846 0.264584,-0.26458 0,-0.14613 -0.118458,-0.26459 -0.264584,-0.26459 z m -0.529166,1.05834 0.529166,0.79375 0.529167,-0.79375 z"
         style="fill:#e1e1e1;fill-opacity:1;stroke:none"
         inkscape:connector-curvature="0"
         class="ColorScheme-Text" />
    </g>
    <g
       id="configure">
      <rect
         style="fill:none;fill-opacity:1;stroke:none"
         id="rect4156"
         width="4.2333336"
         height="4.2333322"
         x="4.2333336"
         y="249.37497" />
      <path
         d="m 6.9850535,251.46632 c 0,0.36575 -0.295953,0.66185 -0.6614242,0.66185 -0.3651609,0 -0.6614235,-0.2961 -0.6614235,-0.66185 0,-0.36527 0.2962626,-0.66159 0.6614235,-0.66159 0.3654712,0 0.6614242,0.29632 0.6614242,0.66159 z"
         id="path72-3-75-6"
         style="color:#e5e9ef;fill:#5c89ba;fill-opacity:1;stroke-width:0.00787609" />
      <path
         d="m 6.2146524,249.37547 c -0.1636982,-1e-5 -0.3205327,0.0607 -0.4360153,0.16917 -0.1154827,0.10821 -0.1802736,0.25496 -0.1794885,0.40757 v -0.004 c -0.00149,0.106 -0.089998,0.18711 -0.2036891,0.18753 -0.032397,-5.4e-4 -0.064009,-0.0119 -0.091962,-0.0241 l -0.00149,-7.1e-4 -0.00117,-8.5e-4 c -0.2934958,-0.15667 -0.6735711,-0.0607 -0.8423492,0.2121 l -0.1423809,0.21809 -0.00121,0.002 c -0.1685853,0.27275 -0.067219,0.62679 0.2246574,0.78505 h 4.173e-4 v 3.8e-4 c 0.063559,0.0345 0.1024473,0.0966 0.1024473,0.16506 0,0.0685 -0.038888,0.13082 -0.1024473,0.16515 -0.2919545,0.15729 -0.3936318,0.51108 -0.2250662,0.78343 l 4.23e-4,4.8e-4 0.1335077,0.21497 c 0.079609,0.13397 0.2134969,0.23261 0.3714801,0.27452 0.1579828,0.0419 0.3274457,0.0245 0.4707024,-0.0516 l 0.00149,-7.1e-4 0.00144,-8.4e-4 c 0.04626,-0.025 0.1010796,-0.0321 0.1528668,-0.0194 0.051763,0.0129 0.095605,0.0446 0.1222135,0.0874 l 6.819e-4,8.5e-4 6.827e-4,0.002 c 0.016812,0.0264 0.025875,0.0563 0.026214,0.0867 v -0.003 c 1.8e-6,0.31565 0.2788873,0.5756 0.6175208,0.5756 h 0.2694626 c 0.3375324,5e-5 0.6163191,-0.25833 0.6179234,-0.57295 v -8e-4 -8.3e-4 c -2.821e-4,-0.0507 0.021009,-0.0985 0.059294,-0.13425 0.037954,-0.0352 0.089093,-0.0551 0.1427847,-0.0556 0.033885,0.002 0.066917,0.0119 0.096403,0.0258 l -4.699e-4,-3.3e-4 c 0.2923889,0.15697 0.6718425,0.0625 0.841781,-0.20913 l 0.1411687,-0.2192 7.997e-4,-8.9e-4 c 0.082427,-0.13186 0.1047362,-0.28899 0.062516,-0.43644 h 4.706e-4 c -0.042251,-0.1471 -0.1461097,-0.27313 -0.2880335,-0.34934 -0.046808,-0.0245 -0.080859,-0.0666 -0.094787,-0.11496 -0.013914,-0.0487 -0.00665,-0.10003 0.020571,-0.14363 l 4.706e-4,-7.4e-4 4.701e-4,-6e-4 c 0.017351,-0.0282 0.042589,-0.0515 0.072981,-0.0675 l 7.995e-4,-4.3e-4 7.996e-4,-5.6e-4 c 0.2899827,-0.15812 0.3911303,-0.50987 0.2244974,-0.78201 l 0.027081,0.0954 v -0.0534 l -0.026964,-0.0446 -0.1339102,-0.21614 C 8.0817278,250.05165 7.701654,249.95597 7.4083242,250.11262 l -7.999e-4,4.8e-4 -0.00111,8.3e-4 c -0.046384,0.0245 -0.1014879,0.0326 -0.1536453,0.0198 -0.052158,-0.0127 -0.096565,-0.0439 -0.1238314,-0.087 l -4.465e-4,-6e-4 -4.469e-4,-4e-4 c -0.016999,-0.0264 -0.025672,-0.0565 -0.02602,-0.0866 l -4.471e-4,0.008 c 0.00483,-0.15546 -0.057933,-0.30619 -0.174217,-0.41769 -0.116275,-0.11151 -0.2764501,-0.17454 -0.4432709,-0.17447 z m 0,0.38497 h 0.2698373 c 0.055357,-3e-5 0.1082183,0.0208 0.1468181,0.0579 0.038595,0.0369 0.05928,0.0869 0.057682,0.13835 v 0.004 0.004 c 0.00103,0.0983 0.030126,0.19432 0.083899,0.27891 6.53e-5,1.3e-4 -6.8e-5,3.3e-4 0,4.2e-4 0.082714,0.13089 0.2177292,0.22614 0.375514,0.26433 0.1581571,0.0384 0.3266928,0.0165 0.467476,-0.0607 l -0.00247,9.3e-4 c 0.09998,-0.0534 0.2216023,-0.0231 0.2791252,0.0703 l 0.1060998,0.17103 v 0.002 l 0.027021,0.0445 c 0.05675,0.0927 0.024597,0.20518 -0.074212,0.25905 l 0.00155,-6.9e-4 c -0.093706,0.0503 -0.171153,0.12286 -0.2250457,0.21013 -0.082108,0.13184 -0.105061,0.28894 -0.062919,0.43621 0.042199,0.1475 0.1456011,0.2735 0.2875844,0.34963 0.046823,0.025 0.080873,0.0663 0.094789,0.1147 v 3.4e-4 c 0.01387,0.0485 0.00645,0.0996 -0.020562,0.14327 -7.03e-5,1.4e-4 7.09e-5,2.7e-4 0,4.2e-4 l -0.1411696,0.21884 -7.757e-4,8.5e-4 c -0.057856,0.0926 -0.1790117,0.12312 -0.2787157,0.0695 l -4.701e-4,-4.6e-4 h -4.722e-4 c -0.089463,-0.0478 -0.1899879,-0.0742 -0.2931264,-0.0767 h -0.00246 -0.00231 c -0.1641823,-7.3e-4 -0.3218937,0.0598 -0.4380322,0.1681 -0.1160885,0.1083 -0.1810402,0.2553 -0.1802956,0.40832 v -0.003 c -5.408e-4,0.10723 -0.089522,0.1898 -0.2045053,0.18979 h -0.270104 c -0.1154322,0 -0.2044966,-0.0833 -0.2044966,-0.19058 v -8.6e-4 -8.1e-4 c -6.109e-4,-0.0973 -0.029953,-0.19304 -0.083178,-0.27734 -0.081315,-0.1317 -0.2151676,-0.22841 -0.3727056,-0.26767 -0.1579906,-0.0399 -0.3265791,-0.0188 -0.4678795,0.0584 l 0.00323,-0.002 c -0.047538,0.0256 -0.1036729,0.0311 -0.1560893,0.0175 v -4.4e-4 c -0.052425,-0.0136 -0.096608,-0.0459 -0.1230261,-0.0907 l -7.999e-4,-0.003 -0.1367365,-0.21915 v -3.9e-4 c -0.056794,-0.0922 -0.024522,-0.20389 0.074218,-0.25715 0.1906589,-0.10291 0.3085592,-0.29331 0.3085592,-0.49856 0,-0.20506 -0.1177971,-0.39539 -0.3081556,-0.49814 -0.099319,-0.0537 -0.1317561,-0.16688 -0.07462,-0.25972 7.27e-5,-1.1e-4 -7.37e-5,-2.6e-4 0,-4.5e-4 l 0.1423805,-0.21805 0.00121,-0.002 c 0.057538,-0.093 0.1791769,-0.1237 0.2791355,-0.0704 l -0.00281,-0.002 c 0.090811,0.0504 0.1944044,0.0773 0.300088,0.0784 h 6.819e-4 0.00117 c 0.3352954,2e-5 0.6127035,-0.25522 0.6175134,-0.56768 v -0.002 -0.002 c -1.866e-4,-0.0506 0.020845,-0.0986 0.058932,-0.1343 0.038064,-0.0356 0.089623,-0.056 0.1435911,-0.056 z"
         id="path1715-7"
         style="fill:#e1e1e1;fill-opacity:1;stroke-width:0.211712" />
    </g>
    <g
       id="size-vertical">
      <rect
         y="249.37497"
         x="18.520834"
         height="4.2333322"
         width="4.2333336"
         id="rect4257"
         style="opacity:1;fill:none;fill-opacity:1;stroke:none" />
      <rect
         style="opacity:1;fill:none;fill-opacity:1;stroke:none"
         id="rect4259"
         width="3.1750002"
         height="3.1749992"
         x="19.050001"
         y="249.90414" />
      <path
         sodipodi:nodetypes="ccccssssscccc"
         inkscape:connector-curvature="0"
         style="fill:#e1e1e1;fill-opacity:1;stroke:none"
         d="m 20.637501,249.90414 -0.529166,0.79375 h 1.058333 z m 0,1.32291 c -0.146125,0 -0.264583,0.11846 -0.264583,0.26459 0,0.14612 0.118458,0.26458 0.264583,0.26458 0.146126,0 0.264584,-0.11846 0.264584,-0.26458 0,-0.14613 -0.118458,-0.26459 -0.264584,-0.26459 z m -0.529166,1.05834 0.529166,0.79375 0.529167,-0.79375 z"
         id="path4263"
         class="ColorScheme-Text" />
    </g>
    <g
       id="size-horizontal">
      <rect
         style="opacity:1;fill:none;fill-opacity:1;stroke:none"
         id="rect4265"
         width="4.2333336"
         height="4.2333322"
         x="23.283333"
         y="249.37497" />
      <rect
         y="249.90414"
         x="23.8125"
         height="3.1749992"
         width="3.1750002"
         id="rect4267"
         style="opacity:1;fill:none;fill-opacity:1;stroke:none" />
      <path
         id="path4269"
         d="m 26.987502,251.49164 -0.79375,-0.52917 v 1.05834 z m -1.32291,0 c 0,-0.14613 -0.11846,-0.26458 -0.26459,-0.26458 -0.14612,0 -0.26458,0.11845 -0.26458,0.26458 0,0.14613 0.11846,0.26458 0.26458,0.26458 0.14613,0 0.26459,-0.11845 0.26459,-0.26458 z m -1.05834,-0.52917 -0.79375,0.52917 0.79375,0.52917 z"
         style="fill:#e1e1e1;fill-opacity:1;stroke:none"
         inkscape:connector-curvature="0"
         sodipodi:nodetypes="ccccssssscccc"
         class="ColorScheme-Text" />
    </g>
    <g
       id="size-diagonal-tr2bl">
      <rect
         y="249.37497"
         x="28.045832"
         height="4.2333322"
         width="4.2333336"
         id="rect4271"
         style="opacity:1;fill:none;fill-opacity:1;stroke:none" />
      <rect
         style="opacity:1;fill:none;fill-opacity:1;stroke:none"
         id="rect4273"
         width="3.1750002"
         height="3.1749992"
         x="28.574999"
         y="249.90414" />
      <path
         inkscape:connector-curvature="0"
         id="rect3354"
         d="m 29.368751,253.07915 v -0.26458 h -0.606682 l 0.871265,-0.87127 -0.187068,-0.18706 -0.871265,0.87126 v -0.60668 h -0.264584 v 1.05833 h 0.264584 z"
         style="fill:#e1e1e1;fill-opacity:1;stroke:none"
         class="ColorScheme-Text" />
      <path
         inkscape:connector-curvature="0"
         id="rect3378"
         transform="matrix(0.26458334,0,0,0.26458334,-0.52916664,249.37498)"
         d="m 109,2 v 1 1 3 1 h 1 V 7 4 3 h 1 4 2 V 2 h -2 -4 -1 z m 13,6 v 1 3 1 h -2 -3 -2 v 1 h 2 3 2 1 V 12 9 8 Z"
         style="fill:#e1e1e1;fill-opacity:1;stroke:none"
         class="ColorScheme-Text" />
      <path
         style="fill:#e1e1e1;fill-opacity:1;stroke:none"
         d="m 30.95625,249.90415 v 0.26458 h 0.606682 L 30.691667,251.04 30.878735,251.22706 31.75,250.3558 v 0.60668 h 0.264584 v -1.05833 H 31.75 Z"
         id="path4303"
         inkscape:connector-curvature="0"
         class="ColorScheme-Text" />
    </g>
    <g
       id="size-diagonal-tl2br">
      <rect
         style="opacity:1;fill:none;fill-opacity:1;stroke:none"
         id="rect4308"
         width="4.2333336"
         height="4.2333322"
         x="-0.52916676"
         y="254.13741" />
      <rect
         y="254.66658"
         x="8.4756147e-07"
         height="3.1749992"
         width="3.1750002"
         id="rect4310"
         style="opacity:1;fill:none;fill-opacity:1;stroke:none" />
      <path
         style="fill:#e1e1e1;fill-opacity:1;stroke:none"
         d="m 2.3812496,257.84168 v -0.26458 h 0.6066819 l -0.8712649,-0.87127 0.187068,-0.18706 0.8712649,0.87126 v -0.60668 h 0.264584 v 1.05833 h -0.264584 z"
         id="path4312"
         inkscape:connector-curvature="0"
         class="ColorScheme-Text" />
      <path
         style="fill:#e1e1e1;fill-opacity:1;stroke:none"
         d="m 3.4395835,254.66667 v 0.26459 0.26458 0.79375 0.26458 h -0.264584 v -0.26458 -0.79375 -0.26458 H 2.9104166 1.8520836 1.3229166 v -0.26459 h 0.529167 1.058333 0.2645829 z M -4e-7,256.25417 v 0.26459 0.79375 0.26458 h 0.529167 0.79375 0.529167 v 0.26458 H 1.3229166 0.5291666 -4e-7 -0.2645834 v -0.52916 -0.79375 -0.26459 z"
         id="path4314"
         inkscape:connector-curvature="0"
         class="ColorScheme-Text" />
      <path
         inkscape:connector-curvature="0"
         id="path4316"
         d="m 0.7937506,254.66668 v 0.26458 h -0.606682 l 0.871265,0.87127 -0.187068,0.18706 L 6e-7,255.11833 v 0.60668 h -0.264584 v -1.05833 H 6e-7 Z"
         style="fill:#e1e1e1;fill-opacity:1;stroke:none"
         class="ColorScheme-Text" />
    </g>
    <g
       id="maximize">
      <rect
         y="254.13741"
         x="4.2333331"
         height="4.2333322"
         width="4.2333336"
         id="rect4318"
         style="opacity:1;fill:none;fill-opacity:1;stroke:none" />
      <rect
         style="opacity:1;fill:none;fill-opacity:1;stroke:none"
         id="rect4320"
         width="3.1750002"
         height="3.1749992"
         x="4.7625008"
         y="254.66658" />
      <path
         inkscape:connector-curvature="0"
         id="path4322"
         d="m 7.1437499,254.66667 v 0.26458 h 0.6066819 l -0.8712649,0.87127 0.187068,0.18706 0.8712649,-0.87126 v 0.60668 h 0.264584 v -1.05833 h -0.264584 z"
         style="fill:#e1e1e1;fill-opacity:1;stroke:none"
         class="ColorScheme-Text" />
      <path
         id="path4324"
         transform="matrix(0.26458333,0,0,0.26458334,-0.52916771,249.37497)"
         d="m 19,20 v 2 3 1 5 1 h 1 5 2 4 1 1 v -1 -1 -3 -1 h -1 v 1 3 1 h -1 -4 -2 -5 v -5 -1 -3 -1 h 2 3 2 v -1 h -2 -3 -2 z"
         style="fill:#e1e1e1;fill-opacity:1;stroke:none"
         inkscape:connector-curvature="0"
         class="ColorScheme-Text" />
    </g>
    <g
       id="unmaximize">
      <rect
         style="opacity:1;fill:none;fill-opacity:1;stroke:none"
         id="rect4333"
         width="4.2333336"
         height="4.2333322"
         x="8.9958324"
         y="254.13741" />
      <rect
         y="254.66658"
         x="9.5249996"
         height="3.1749992"
         width="3.1750002"
         id="rect4335"
         style="opacity:1;fill:none;fill-opacity:1;stroke:none" />
      <path
         style="fill:#e1e1e1;fill-opacity:1;stroke:none"
         d="M 12.700003,255.98958 V 255.725 h -0.606682 l 0.871265,-0.87127 -0.187068,-0.18706 -0.871266,0.87126 v -0.60668 h -0.264584 v 1.05833 h 0.264584 z"
         id="path4337"
         inkscape:connector-curvature="0"
         class="ColorScheme-Text" />
      <path
         inkscape:connector-curvature="0"
         style="fill:#e1e1e1;fill-opacity:1;stroke:none"
         d="m 9.2604158,254.66664 v 0.52916 0.79375 0.26459 1.32291 0.26459 h 0.2645833 1.3229169 0.529167 1.058334 0.264584 0.264583 v -0.26459 -0.26458 -0.79375 -0.26458 h -0.264583 v 0.26458 0.79375 0.26458 H 12.435417 11.377083 10.847916 9.5249991 v -1.32291 -0.26459 -0.79375 -0.26458 h 0.5291669 0.79375 0.529167 v -0.26458 h -0.529167 -0.79375 -0.5291669 z"
         id="path4339"
         class="ColorScheme-Text" />
    </g>
    <g
       id="status">
      <rect
         y="254.13741"
         x="13.758333"
         height="4.2333322"
         width="4.2333336"
         id="rect4341"
         style="opacity:1;fill:none;fill-opacity:1;stroke:none" />
      <rect
         style="opacity:1;fill:none;fill-opacity:1;stroke:none"
         id="rect4343"
         width="3.1750002"
         height="3.1749992"
         x="14.2875"
         y="254.66658" />
      <g
         inkscape:label="Capa 1"
         id="layer1-70"
         transform="matrix(0.26458333,0,0,0.26458334,-97.820237,113.43444)">
        <path
           sodipodi:nodetypes="cccccccccccccccccccccccccccccccc"
           inkscape:connector-curvature="0"
           id="rect4083"
           transform="translate(367.71428,513.79097)"
           d="m 56,20 v 3 3 1 5 H 57 60.970703 68 V 31 21 20 H 63.148438 57 Z m 1,3 h 7.345703 L 62.628906,29.408203 60.662109,26 H 60.369141 57.505859 57 Z m 8.382812,0 H 67 v 8 H 63.238281 Z M 57,27 h 3.083984 l 2.308594,4 H 57 Z"
           style="fill:#e1e1e1;fill-opacity:1;stroke:none"
           class="ColorScheme-Text" />
      </g>
    </g>
    <g
       id="collapse">
      <rect
         y="254.13741"
         x="23.283337"
         height="4.2333322"
         width="4.2333336"
         id="rect4397"
         style="opacity:1;fill:none;fill-opacity:1;stroke:none" />
      <rect
         style="opacity:1;fill:none;fill-opacity:1;stroke:none"
         id="rect4399"
         width="3.1750002"
         height="3.1749992"
         x="23.812504"
         y="254.66658" />
      <path
         inkscape:connector-curvature="0"
         style="opacity:1;fill:#e1e1e1;fill-opacity:1;stroke:none"
         d="m 24.870835,254.66664 0.529166,0.52916 0.529167,-0.52916 z m -1.058334,1.32291 v 0.52917 h 3.175 v -0.52917 z m 1.5875,1.32292 -0.529166,0.52917 h 1.058333 z"
         id="path4401"
         class="ColorScheme-Text" />
    </g>
    <g
       id="return-to-source">
      <rect
         style="opacity:1;fill:none;fill-opacity:1;stroke:none"
         id="rect4380"
         width="4.2333336"
         height="4.2333322"
         x="18.520832"
         y="254.13741" />
      <rect
         y="254.66658"
         x="19.049999"
         height="3.1749992"
         width="3.1750002"
         id="rect4382"
         style="opacity:1;fill:none;fill-opacity:1;stroke:none" />
      <path
         id="rect4403"
         transform="matrix(0.26458333,0,0,0.26458334,-0.52916771,249.37497)"
         d="M 74,20 V 32 H 86 V 20 Z m 4,1 h 4 l -2,2 z m -3,4 h 10 v 2 H 75 Z m 5,4 2,2 h -4 z"
         style="opacity:1;fill:#e1e1e1;fill-opacity:1;stroke:none"
         inkscape:connector-curvature="0"
         class="ColorScheme-Text" />
    </g>
    <g
       id="restore">
      <rect
         style="opacity:1;fill:none;fill-opacity:1;stroke:none"
         id="rect4414"
         width="4.2333336"
         height="4.2333322"
         x="28.045841"
         y="254.13741" />
      <rect
         y="254.66658"
         x="28.575008"
         height="3.1749992"
         width="3.1750002"
         id="rect4416"
         style="opacity:1;fill:none;fill-opacity:1;stroke:none" />
      <path
         sodipodi:nodetypes="ccccccccccccc"
         id="path4418"
         d="m 29.633338,255.1958 0.529166,-0.52916 0.529167,0.52916 z m -1.058334,0.79375 v 0.52917 h 3.175 v -0.52917 z m 1.5875,1.85209 -0.529166,-0.52917 h 1.058333 z"
         style="opacity:1;fill:#e1e1e1;fill-opacity:1;stroke:none"
         inkscape:connector-curvature="0"
         class="ColorScheme-Text" />
    </g>
    <g
       id="help">
      <rect
         y="258.89993"
         x="-0.52916676"
         height="4.2333322"
         width="4.2333336"
         id="rect4420"
         style="opacity:1;fill:none;fill-opacity:1;stroke:none" />
      <rect
         style="opacity:1;fill:none;fill-opacity:1;stroke:none"
         id="rect4422"
         width="3.1750002"
         height="3.1749992"
         x="8.4756147e-07"
         y="259.42911" />
      <path
         inkscape:connector-curvature="0"
         style="opacity:1;fill:#e1e1e1;fill-opacity:1;stroke:none;stroke-opacity:1"
         d="M 1.5875009,259.42911 A 1.5875,1.5875001 0 0 0 9.929289e-7,261.01661 1.5875,1.5875001 0 0 0 1.5875009,262.60411 a 1.5875,1.5875001 0 0 0 1.5875,-1.5875 1.5875,1.5875001 0 0 0 -1.5875,-1.5875 z M 9.929289e-7,259.69369 v 0.52917 L 0.52916759,259.69369 Z m 1.5874999070711,0 a 1.3229166,1.3229167 0 0 1 0.6325195,0.16123 l -0.4025594,0.40256 a 0.79374998,0.79375003 0 0 0 -0.2299601,-0.0346 0.79374998,0.79375003 0 0 0 -0.2299601,0.0346 l -0.40152591,-0.40153 a 1.3229166,1.3229167 0 0 1 0.63148601,-0.16226 z m 1.0583333,0 0.5291667,0.52917 v -0.52917 z m -2.22001941,0.6904 0.4025594,0.40256 a 0.79374998,0.79375003 0 0 0 -0.034623,0.22996 0.79374998,0.79375003 0 0 0 0.034623,0.22996 l -0.4015259,0.40152 a 1.3229166,1.3229167 0 0 1 -0.162264,-0.63148 1.3229166,1.3229167 0 0 1 0.1612305,-0.63252 z m 2.32233881,10e-4 a 1.3229166,1.3229167 0 0 1 0.1622639,0.63149 1.3229166,1.3229167 0 0 1 -0.1612304,0.63252 l -0.4025593,-0.40253 a 0.79374998,0.79375003 0 0 0 0.034623,-0.22996 0.79374998,0.79375003 0 0 0 -0.034623,-0.22996 l 0.4015258,-0.40153 z m -1.1606527,0.10232 a 0.52916665,0.52916669 0 0 1 0.5291667,0.52917 0.52916665,0.52916669 0 0 1 -0.5291667,0.52916 0.52916665,0.52916669 0 0 1 -0.5291667,-0.52916 0.52916665,0.52916669 0 0 1 0.5291667,-0.52917 z m -0.2299601,1.28829 a 0.79374998,0.79375003 0 0 0 0.2299601,0.0346 0.79374998,0.79375003 0 0 0 0.2299601,-0.0346 l 0.4015259,0.40153 a 1.3229166,1.3229167 0 0 1 -0.631486,0.16226 1.3229166,1.3229167 0 0 1 -0.63251951,-0.16123 z M 9.929289e-7,261.8103 v 0.52916 H 0.52916759 Z m 3.1749999070711,0 -0.5291667,0.52916 h 0.5291667 z"
         id="path59"
         class="ColorScheme-Text" />
    </g>
    <g
       id="delete">
      <rect
         style="opacity:1;fill:none;fill-opacity:1;stroke:none"
         id="rect4456"
         width="4.2333336"
         height="4.2333322"
         x="4.2333331"
         y="258.89993" />
      <rect
         y="259.42911"
         x="4.7625008"
         height="3.1749992"
         width="3.1750002"
         id="rect4458"
         style="opacity:1;fill:none;fill-opacity:1;stroke:none" />
      <path
         id="rect4455"
         d="m 5.5562478,259.42911 v 0.52916 h 0.2645834 v -0.26458 h 1.0583333 v 0.26458 h 0.2645833 v -0.52916 H 6.8791645 5.8208312 Z m -0.7937499,0.79375 v 0.26458 h 0.5291666 v 1.85208 0.26459 h 2.1166667 v -0.26459 -1.85208 h 0.5291666 v -0.26458 z m 0.7937499,0.26458 h 1.5875 v 1.85208 h -1.5875 z"
         style="opacity:1;fill:#e1e1e1;fill-opacity:1;stroke:none;stroke-width:1;stroke-linecap:round;stroke-miterlimit:4;stroke-dasharray:none;stroke-opacity:1"
         inkscape:connector-curvature="0"
         class="ColorScheme-Text" />
    </g>
    <g
       id="add">
      <rect
         y="258.89993"
         x="8.9958324"
         height="4.2333322"
         width="4.2333336"
         id="rect4488"
         style="opacity:1;fill:none;fill-opacity:1;stroke:none" />
      <rect
         style="opacity:1;fill:none;fill-opacity:1;stroke:none"
         id="rect4490"
         width="3.1750002"
         height="3.1749992"
         x="9.5249996"
         y="259.42911" />
      <path
         style="opacity:1;fill:#e1e1e1;fill-opacity:1;stroke:none"
         d="m 43,38 v 5 h -5 v 2 h 5 v 5 h 2 v -5 h 5 v -2 h -5 v -5 z"
         transform="matrix(0.26458333,0,0,0.26458333,-0.52916771,249.37493)"
         id="rect4498"
         class="ColorScheme-Text" />
    </g>
    <g
       id="remove">
      <rect
         style="opacity:1;fill:none;fill-opacity:1;stroke:none"
         id="rect4502"
         width="4.2333336"
         height="4.2333322"
         x="13.758328"
         y="258.89993" />
      <rect
         y="259.42911"
         x="14.287497"
         height="3.1749992"
         width="3.1750002"
         id="rect4504"
         style="opacity:1;fill:none;fill-opacity:1;stroke:none" />
      <rect
         y="-17.462498"
         x="260.75204"
         height="3.175"
         width="0.5291667"
         id="rect4508"
         style="opacity:1;fill:#e1e1e1;fill-opacity:1;stroke:none"
         transform="rotate(90)"
         class="ColorScheme-Text" />
    </g>
    <g
       id="filter">
      <rect
         y="258.89993"
         x="18.520828"
         height="4.2333322"
         width="4.2333336"
         id="rect4527"
         style="opacity:1;fill:none;fill-opacity:1;stroke:none" />
      <rect
         style="opacity:1;fill:none;fill-opacity:1;stroke:none"
         id="rect4529"
         width="3.1750002"
         height="3.1749992"
         x="19.049997"
         y="259.42911" />
      <path
         id="path4545"
         transform="matrix(0.26458333,0,0,0.26458334,-0.52916771,249.37497)"
         d="m 76,38 -1,1 v 1 l 3,5.259766 V 48 48.002 l 3,1.996094 v 0.002 h 1 V 49.461032 45.25986 L 85,40 v -1 l -1,-1 z m 0,1 h 8 v 0.734375 l -3,5.263672 v 0.002 1 2.794922 L 79,47.464844 V 45 44.998 l -3,-5.263672 z m 1,1 2,2 v -1 l 1,-1 z"
         style="fill:#e1e1e1;fill-opacity:1;fill-rule:evenodd;stroke:none;stroke-width:0.264583px;stroke-linecap:butt;stroke-linejoin:miter;stroke-opacity:1"
         inkscape:connector-curvature="0"
         class="ColorScheme-Text" />
    </g>
    <g
       id="showbackground">
      <g
         id="g942">
        <rect
           class="ColorScheme-Background  ColorScheme-Text"
           ry="0.12427091"
           y="259.69373"
           x="28.574997"
           height="2.6458437"
           width="2.6458342"
           id="rect929"
           style="opacity:0.35;fill:#e5e9ef;fill-opacity:1" />
        <rect
           y="258.89993"
           x="27.858765"
           height="4.2333322"
           width="4.2333336"
           id="rect908"
           style="opacity:1;fill:none;fill-opacity:1;stroke:none" />
        <path
           inkscape:connector-curvature="0"
           class="ColorScheme-Text"
           style="opacity:1;fill:#e1e1e1;fill-opacity:1"
           d="m 110,38 c -0.55407,0 -1,0.445928 -1,1 v 10 c 0,0.554072 0.44593,1 1,1 h 10 c 0.55407,0 1,-0.445928 1,-1 V 39 c 0,-0.554072 -0.44593,-1 -1,-1 z m 0.46875,1 h 9.0625 C 119.79146,39 120,39.210497 120,39.470703 V 48.53125 C 120,48.791456 119.79146,49 119.53125,49 h -9.0625 C 110.20854,49 110,48.791456 110,48.53125 V 39.470703 C 110,39.210497 110.20854,39 110.46875,39 Z"
           transform="matrix(0.26458332,0,0,0.26458332,-0.5291667,249.37493)"
           id="rect910" />
        <g
           aria-label="a"
           transform="scale(0.92487808,1.0812236)"
           id="text927">
          <path
             class="ColorScheme-Text"
             d="m 32.390856,240.67151 c 0.173043,0 0.30106,0.038 0.38405,0.11389 0.08299,0.0759 0.124486,0.19688 0.124486,0.36286 v 0.99379 H 32.72988 l -0.04503,-0.22834 h -0.01059 c -0.0618,0.0777 -0.127133,0.13508 -0.195998,0.17216 -0.06886,0.0371 -0.162449,0.0556 -0.280754,0.0556 -0.1289,0 -0.235727,-0.0335 -0.320483,-0.10065 -0.08476,-0.0689 -0.122393,-0.17569 -0.122393,-0.32048 0,-0.14126 0.05088,-0.28618 0.162122,-0.3621 0.111242,-0.0777 0.282519,-0.11816 0.513833,-0.12522 l 0.241024,-0.008 v -0.0504 c 0,-0.11831 -0.0256,-0.20042 -0.07681,-0.24633 -0.05121,-0.0459 -0.123603,-0.0689 -0.217187,-0.0689 -0.07416,0 -0.144791,0.0115 -0.211889,0.0344 -0.0671,0.0212 -0.129783,0.0459 -0.188052,0.0742 l -0.07151,-0.17481 c 0.0618,-0.0335 0.135078,-0.0618 0.219835,-0.0848 0.08476,-0.0247 0.173043,-0.0371 0.264862,-0.0371 z m 0.278106,0.73618 -0.209242,0.008 c -0.176575,0.007 -0.299294,0.0334 -0.368158,0.0829 -0.0671,0.0495 -0.100647,0.1345 -0.100647,0.22453 0,0.0795 0.02384,0.13773 0.07151,0.17481 0.04944,0.0371 0.112124,0.0556 0.188052,0.0556 0.118305,0 0.217187,-0.0327 0.296646,-0.098 0.08122,-0.0671 0.121837,-0.16951 0.121837,-0.30724 z"
             style="fill:#e1e1e1;fill-opacity:1"
             id="path934"
             inkscape:connector-curvature="0"
             sodipodi:nodetypes="ccscccccscscccscscccccccccscsccc" />
        </g>
      </g>
    </g>
    <g
       id="close">
      <g
         id="g968">
        <rect
           y="258.89993"
           x="23.283339"
           height="4.2333322"
           width="4.2333336"
           id="rect4253"
           style="opacity:1;fill:none;fill-opacity:1;stroke:none" />
        <rect
           style="opacity:1;fill:none;fill-opacity:1;stroke:none"
           id="rect4255"
           width="3.1750002"
           height="3.1749992"
           x="23.812508"
           y="259.42911" />
      </g>
      <path
         d="m 23.81316,259.42919 h 0.396716 c 0.0041,-5e-5 0.0082,-1.8e-4 0.0124,0 0.101142,0.004 0.202273,0.051 0.272742,0.12402 l 0.904986,0.90535 0.917404,-0.90535 c 0.105376,-0.0915 0.177201,-0.12124 0.272742,-0.12402 h 0.396715 v 0.39687 c 0,0.1137 -0.01362,0.21854 -0.09918,0.29766 l -0.904987,0.90535 0.892609,0.89296 c 0.07466,0.0747 0.111572,0.17997 0.111576,0.28526 v 0.39687 h -0.396715 c -0.105249,0 -0.210493,-0.0369 -0.285139,-0.11162 l -0.904987,-0.90535 -0.904987,0.90535 c -0.07465,0.0747 -0.179894,0.11162 -0.285139,0.11162 H 23.8132 v -0.39687 c -10e-7,-0.10529 0.03692,-0.21058 0.111576,-0.28526 l 0.904987,-0.89296 -0.904987,-0.90535 c -0.0836,-0.0772 -0.120268,-0.18623 -0.111576,-0.29766 z"
         id="path124"
         style="fill:#e1e1e1;fill-opacity:1;stroke-width:0.396795"
         class="ColorScheme-Text" />
    </g>
  </g>
</svg>
