<?xml version="1.0" encoding="UTF-8" standalone="no"?>
<svg
   id="svg6"
   height="96"
   style=""
   viewBox="0 0 96 96"
   width="96"
   version="1.1"
   sodipodi:docname="reboot.svg"
   inkscape:version="1.2.2 (b0a8486541, 2022-12-01)"
   xmlns:inkscape="http://www.inkscape.org/namespaces/inkscape"
   xmlns:sodipodi="http://sodipodi.sourceforge.net/DTD/sodipodi-0.dtd"
   xmlns="http://www.w3.org/2000/svg"
   xmlns:svg="http://www.w3.org/2000/svg">
  <defs
     id="defs6" />
  <sodipodi:namedview
     id="namedview4"
     pagecolor="#3a3f47"
     bordercolor="#000000"
     borderopacity="1"
     inkscape:showpageshadow="2"
     inkscape:pageopacity="1"
     inkscape:pagecheckerboard="true"
     inkscape:deskcolor="#3a3f47"
     showgrid="true"
     inkscape:zoom="4.3489583"
     inkscape:cx="115.08503"
     inkscape:cy="48.632336"
     inkscape:window-width="1920"
     inkscape:window-height="1002"
     inkscape:window-x="0"
     inkscape:window-y="0"
     inkscape:window-maximized="1"
     inkscape:current-layer="svg6">
    <inkscape:grid
       type="xygrid"
       id="grid180" />
  </sodipodi:namedview>
  <path
     id="Refresh"
     class="st0"
     d="M 76.079986,80.664107 C 83.971294,74.722401 89.725432,66.371849 92.355848,57.057766 l 0.328986,0.1608 C 93.342384,54.488551 93.835616,51.116208 94,48.386201 l -6.0387,-0.119668 -0.06622,-0.02141 -11.894905,0.06218 C 75.770864,60.097506 64.11351,73.941928 48.131702,73.921484 31.855834,73.902284 18.539155,60.913909 18.539155,45.015759 c 0,-15.898143 13.316639,-28.905722 29.592547,-28.905722 6.411704,0 12.494589,2.087634 17.426714,5.45997 L 51.419592,35.379803 H 87.588299 V 0.04927708 L 77.230837,10.166282 C 70.65471,4.8669011 62.598921,1.4945621 54.214381,0.37045508 44.021391,-0.91424136 33.828383,1.1733921 25.115023,6.1515961 16.401674,11.129808 9.4967755,18.677413 5.5510809,27.830925 1.6054159,36.984344 0.9478358,47.101374 3.5782684,56.736635 6.2086916,66.371849 11.962818,74.722401 20.018554,80.82473 c 8.055786,5.941728 17.919959,9.153459 28.112895,9.153459 10.192966,0 20.057142,-3.211731 27.948537,-9.314082 z"
     style="fill:#cdd8e5;fill-opacity:0.403922;stroke-width:1.62484"
     sodipodi:nodetypes="cccccccsssccccccssscsc" />
  <path
     id="Refresh-s"
     class="st1"
     d="m 53.885562,16.589775 c 4.274513,0.802937 8.220128,2.5694 11.672596,4.978209 l -4.767651,4.657053 c -2.466092,-1.605892 -5.260904,-2.730004 -8.220168,-3.211773 -4.43889,-0.802933 -9.042179,-0.481761 -13.316679,1.284672 -4.274426,1.766474 -7.726934,4.657067 -10.357362,8.350582 -2.466,3.693479 -3.945699,8.029374 -3.945699,12.525833 h -6.576087 c 0,-5.781142 1.808436,-11.241153 4.932085,-16.058743 3.123701,-4.817672 7.891362,-8.51115 13.316639,-10.598784 5.589741,-2.40881 11.508213,-2.890571 17.262326,-1.927049 z m 22.029997,60.380854 c -3.616848,4.175254 -7.655949,7.387034 -12.42368,9.63525 -4.767621,2.248206 -10.26389,3.37231 -15.36043,3.37231 v 6.021809 c 6.082932,0 12.165859,-0.88302 17.755557,-3.61298 5.589659,-2.569422 10.68617,-6.423508 14.96064,-11.241135 4.274465,-4.817594 7.562548,-10.438169 9.86416,-16.701087 0.986432,-2.569362 3.126235,-10.110325 3.24654,-16.224808 l -5.969297,-9.34e-4 c 0.05736,4.81831 -1.337195,10.224709 -2.725157,13.977518 -1.798043,5.497581 -5.731451,10.598806 -9.348333,14.774057 z"
     style="fill:#eff0f1;fill-opacity:1;stroke-width:1.62484"
     sodipodi:nodetypes="ccccscccsccsscccsccccss" />
</svg>
