<?xml version="1.0" encoding="UTF-8" standalone="no"?>
<svg
   id="svg6"
   height="96"
   style=""
   viewBox="0 0 96 96"
   width="96"
   version="1.1"
   sodipodi:docname="shutdown.svg"
   inkscape:version="1.2.2 (b0a8486541, 2022-12-01)"
   xmlns:inkscape="http://www.inkscape.org/namespaces/inkscape"
   xmlns:sodipodi="http://sodipodi.sourceforge.net/DTD/sodipodi-0.dtd"
   xmlns="http://www.w3.org/2000/svg"
   xmlns:svg="http://www.w3.org/2000/svg">
  <defs
     id="defs6" />
  <sodipodi:namedview
     id="namedview4"
     pagecolor="#3a3f47"
     bordercolor="#000000"
     borderopacity="1"
     inkscape:showpageshadow="2"
     inkscape:pageopacity="1"
     inkscape:pagecheckerboard="true"
     inkscape:deskcolor="#3a3f47"
     showgrid="true"
     inkscape:zoom="4.3489583"
     inkscape:cx="71.856288"
     inkscape:cy="51.161677"
     inkscape:window-width="1920"
     inkscape:window-height="1002"
     inkscape:window-x="0"
     inkscape:window-y="0"
     inkscape:window-maximized="1"
     inkscape:current-layer="svg6">
    <inkscape:grid
       type="xygrid"
       id="grid234" />
  </sodipodi:namedview>
  <path
     id="Power"
     class="st0"
     d="m 54.578023,33 c 0,3.3 -2.956576,6 -6.57023,6 H 41.437468 V 3 H 54.578023 Z M 66.404267,26.849992 C 73.138836,31.8 77.573911,39.449982 77.573911,48 c 0,14.849982 -13.304719,27 -29.566118,27 -16.261645,0 -29.566624,-12.150018 -29.566624,-27 0,-8.550018 4.434974,-16.2 11.169527,-21.150008 L 19.426757,15.15 C 12.035245,20.55 6.450323,28.049982 3.8222564,36.3 1.1940948,44.7 1.3584393,53.550018 4.6435477,61.8 7.7645045,70.049982 13.677721,77.1 21.397786,82.2 29.11807,87.3 38.480714,90 48.007793,90 57.534598,90 66.897363,87.3 74.617461,82.2 82.33759,77.1 88.25087,70.049982 91.371835,61.8 94.492495,53.550018 94.821275,44.7 92.028992,36.3 89.236426,27.900004 83.980321,20.55 76.424125,15.15 Z"
     style="fill:#cdd8e5;fill-opacity:0.403922;stroke-width:1.56972" />
  <path
     id="Power-s"
     class="st1"
     d="m 44.72262,33 c 0,1.649982 1.47812,3 3.285173,3 v 6 c -5.420548,0 -9.855479,-4.049982 -9.855479,-9 V 9 c 0,-4.95 4.434931,-9 9.855479,-9 5.420429,0 9.855354,4.05 9.855354,9 V 24 H 51.29294 V 9 c 0,-1.65 -1.478481,-3 -3.285147,-3 C 46.20074,6 44.72262,7.35 44.72262,9 Z M 94,54 v -6 h -6.5702 v 6 c 0,19.950018 -17.575987,36 -39.422007,36 v 6 C 73.467627,96 94,77.249982 94,54 Z"
     style="fill:#eff0f1;fill-opacity:1;stroke-width:1.56972" />
</svg>
