<?xml version="1.0" encoding="UTF-8" standalone="no"?>
<svg
   width="32"
   height="32"
   version="1.1"
   id="svg1"
   sodipodi:docname="applications-all-symbolic.svg"
   inkscape:version="1.3.2 (091e20ef0f, 2023-11-25)"
   xmlns:inkscape="http://www.inkscape.org/namespaces/inkscape"
   xmlns:sodipodi="http://sodipodi.sourceforge.net/DTD/sodipodi-0.dtd"
   xmlns="http://www.w3.org/2000/svg"
   xmlns:svg="http://www.w3.org/2000/svg">
  <defs
     id="defs1" />
  <sodipodi:namedview
     id="namedview1"
     pagecolor="#000000"
     bordercolor="#999999"
     borderopacity="1"
     inkscape:showpageshadow="2"
     inkscape:pageopacity="0"
     inkscape:pagecheckerboard="0"
     inkscape:deskcolor="#d1d1d1"
     inkscape:zoom="12.245804"
     inkscape:cx="15.842161"
     inkscape:cy="22.619993"
     inkscape:window-width="1920"
     inkscape:window-height="994"
     inkscape:window-x="0"
     inkscape:window-y="0"
     inkscape:window-maximized="1"
     inkscape:current-layer="svg1" />
  <style
     type="text/css"
     id="current-color-scheme">.ColorScheme-Text{color:#31363b;}.ColorScheme-Background{color:#E9E8E8;}.ColorScheme-ViewText{color:#31363b;}.ColorScheme-ViewBackground{color:#ffffff;}.ColorScheme-ViewHover{color:#000000;}.ColorScheme-ViewFocus{color:#5a5a5a;}.ColorScheme-ButtonText{color:#31363b;}.ColorScheme-ButtonBackground{color:#E9E8E8;}.ColorScheme-ButtonHover{color:#1489ff;}.ColorScheme-ButtonFocus { color: #2B74C7; } </style>
  <g
     id="applications-other">
    <path
       style="clip-rule:evenodd;fill:#ffffc1;fill-opacity:0;fill-rule:evenodd;stroke-width:1.00213;stroke-linejoin:round;stroke-miterlimit:1.41421"
       d="M 0,0 V 32 H 32 V 0 Z"
       id="rect817"
       inkscape:connector-curvature="0" />
    <path
       id="Grid"
       class="st0"
       d="M 3.9,16 H 15.166667 V 27.266667 H 3.9 Z m 13,-1.733333 h 9.533333 V 16 H 16.9 v 11.266667 h 6.933333 c 2.383334,0 4.333334,-1.95 4.333334,-4.333334 V 3 H 16.9 Z"
       style="fill:#cdd8e5;fill-opacity:0.403922;stroke-width:0.433333" />
    <path
       id="Grid-s"
       class="st1"
       d="M 15.166667,29 H 5.633333 v -1.733333 h 9.533334 z m 13,-13 v 7.8 c 0,2.86 -2.34,5.2 -5.2,5.2 H 16.9 v -1.733333 h 6.066667 c 1.906666,0 3.466666,-1.56 3.466666,-3.466667 V 16 Z m 0,-11.266667 v 9.533334 H 26.433333 V 4.733333 Z M 3.9,6.4666667 C 3.9,4.56 5.46,3 7.366667,3 h 3.466666 V 4.733333 H 7.366667 c -0.953334,0 -1.733334,0.78 -1.733334,1.7333337 V 14.266667 H 3.9 Z"
       style="clip-rule:evenodd;fill:#eff0f1;fill-opacity:1;fill-rule:evenodd;stroke-width:0.433333" />
  </g>
  <path
     d="m 15.679954,9.8002673 c 0,2.4740817 -2.005767,4.4798947 -4.479799,4.4798947 -2.4745726,0 -4.4803167,-2.005813 -4.4803167,-4.4798947 0,-2.47462 2.0057441,-4.480429 4.4803167,-4.480429 2.474032,0 4.479799,2.005809 4.479799,4.480429"
     id="path3436-6-3"
     style="fill:#e1e1e1;fill-opacity:1;stroke:#e1e1e1;stroke-width:0.0396766;stroke-opacity:1" />
</svg>
