<?xml version="1.0" encoding="UTF-8" standalone="no"?>
<svg
   version="1.1"
   viewBox="0 0 22.000047 21.999996"
   id="svg1"
   sodipodi:docname="activities.svg"
   width="22.000048"
   height="21.999996"
   inkscape:version="1.3.2 (091e20ef0f, 2023-11-25)"
   xmlns:inkscape="http://www.inkscape.org/namespaces/inkscape"
   xmlns:sodipodi="http://sodipodi.sourceforge.net/DTD/sodipodi-0.dtd"
   xmlns="http://www.w3.org/2000/svg"
   xmlns:svg="http://www.w3.org/2000/svg">
  <defs
     id="defs1" />
  <sodipodi:namedview
     id="namedview1"
     pagecolor="#ffffff"
     bordercolor="#999999"
     borderopacity="1"
     inkscape:showpageshadow="2"
     inkscape:pageopacity="0"
     inkscape:pagecheckerboard="0"
     inkscape:deskcolor="#d1d1d1"
     inkscape:zoom="16.83798"
     inkscape:cx="10.630729"
     inkscape:cy="5.9389547"
     inkscape:window-width="1920"
     inkscape:window-height="996"
     inkscape:window-x="0"
     inkscape:window-y="0"
     inkscape:window-maximized="1"
     inkscape:current-layer="svg1" />
  <style
     type="text/css"
     id="current-color-scheme">.ColorScheme-Text {color:#fcfcfc;}</style>
  <g
     id="22-22-activities"
     transform="matrix(3.7795275,0,0,3.7795275,-32.000005,-9.9999995)">
    <rect
       style="opacity:0.003;fill:#000000;stroke-width:0.363802"
       id="rect1430-3-7-5"
       width="5.8208323"
       height="5.8208323"
       x="8.4666681"
       y="2.6458333" />
    <path
       id="Other-4"
       class="st0"
       d="m 10.649492,5.3710419 c 0,-0.4074584 0.327421,-0.7408336 0.727596,-0.7408336 0.400184,0 0.727616,0.3333752 0.727616,0.7408336 0,0.4074576 -0.327432,0.7408325 -0.727616,0.7408325 -0.400175,0 -0.727596,-0.3333749 -0.727596,-0.7408325 z m 2.910409,-0.7408336 c -0.400174,0 -0.727598,0.3333752 -0.727598,0.7408336 0,0.4074576 0.327424,0.7408325 0.727598,0.7408325 0.400184,0 0.727613,-0.3333749 0.727613,-0.7408325 0,-0.4074584 -0.327429,-0.7408336 -0.727613,-0.7408336 z"
       style="fill:#cdd8e5;fill-opacity:0.403922;stroke-width:0.0917735" />
    <path
       class="st1"
       d="m 9.9218889,5.3710419 c 0,0.4074576 -0.3274332,0.7408325 -0.7276172,0.7408325 -0.4001816,0 -0.7276036,-0.3333749 -0.7276036,-0.7408325 0,-0.4074584 0.327422,-0.7408336 0.7276036,-0.7408336 0.400184,0 0.7276172,0.3333752 0.7276172,0.7408336 z m -0.3638109,0 c 0,0.2037282 -0.1637101,0.3704161 -0.3638063,0.3704161 -0.2000909,0 -0.363801,-0.1666879 -0.363801,-0.3704161 0,-0.2037295 0.1637101,-0.3704166 0.363801,-0.3704166 0.2000962,0 0.3638063,0.1666871 0.3638063,0.3704166 z m 4.36563,0 V 5.741458 c 0,0.2037292 -0.163707,0.3704164 -0.363807,0.3704164 v 0.3704173 c 0.400184,0 0.727613,-0.3333747 0.727613,-0.7408337 V 5.3710419 Z"
       id="path5-8"
       style="fill:#eff0f1;fill-opacity:1;stroke-width:0.0917735" />
  </g>
</svg>
