<?xml version="1.0" encoding="UTF-8" standalone="no"?>
<svg
   viewBox="0 0 22 22"
   version="1.1"
   id="svg1"
   sodipodi:docname="compass.svg"
   inkscape:version="1.3.2 (091e20ef0f, 2023-11-25)"
   width="22"
   height="22"
   xmlns:inkscape="http://www.inkscape.org/namespaces/inkscape"
   xmlns:sodipodi="http://sodipodi.sourceforge.net/DTD/sodipodi-0.dtd"
   xmlns="http://www.w3.org/2000/svg"
   xmlns:svg="http://www.w3.org/2000/svg">
  <sodipodi:namedview
     id="namedview1"
     pagecolor="#ffffff"
     bordercolor="#999999"
     borderopacity="1"
     inkscape:showpageshadow="2"
     inkscape:pageopacity="0"
     inkscape:pagecheckerboard="0"
     inkscape:deskcolor="#d1d1d1"
     inkscape:zoom="11.90625"
     inkscape:cx="11.086614"
     inkscape:cy="-9.1548556"
     inkscape:window-width="1920"
     inkscape:window-height="996"
     inkscape:window-x="0"
     inkscape:window-y="0"
     inkscape:window-maximized="1"
     inkscape:current-layer="svg1" />
  <defs
     id="defs3051">
    <style
       type="text/css"
       id="current-color-scheme">
            .ColorScheme-Text {
                color:#fcfcfc;
            }
        </style>
  </defs>
  <g
     id="22-22-compass">
    <path
       style="clip-rule:evenodd;fill:#ffffc1;fill-opacity:0;fill-rule:evenodd;stroke-width:0.688964;stroke-linejoin:round;stroke-miterlimit:1.41421"
       d="M 0,0 V 22 H 22 V 0 Z"
       id="rect817-5-5"
       inkscape:connector-curvature="0" />
    <path
       id="Compass-5"
       class="st0"
       d="M 9.625735,10.312502 6.045844,16.5 12.489662,13.062501 Z M 11.05768,20.625 c 5.155053,0 9.307719,-3.9875 9.307719,-8.937499 0,-4.9499963 -4.152666,-8.9375011 -9.307719,-8.9375011 -5.155025,0 -9.30768,3.9875048 -9.30768,8.9375011 0,4.949999 4.152655,8.937499 9.30768,8.937499 z"
       style="clip-rule:evenodd;fill:#cdd8e5;fill-opacity:0.403922;fill-rule:evenodd;stroke-width:0.350791" />
    <path
       id="Compass-s-3"
       class="st1"
       d="M 9.625735,2.8531269 C 9.124541,2.9218779 8.65918,3.0249999 8.193781,3.1624999 v -0.75625 C 8.193781,1.0656254 9.303563,0 10.699723,0 c 1.396138,0 2.505894,1.0656254 2.505894,2.4062499 v 0.584377 c -0.465374,-0.103127 -0.930761,-0.171877 -1.431945,-0.20625 v -0.378127 c 0,-0.5843737 -0.4654,-1.0312492 -1.073949,-1.0312492 -0.608588,0 -1.073988,0.4468755 -1.073988,1.0312492 z m 0,7.4593751 2.863927,2.749999 3.579854,-6.1874963 z m 9.307719,2.062499 v 0.6875 c 0,3.95312 -3.150315,7.184384 -7.159782,7.528131 V 19.25 H 10.341727 V 22 h 0.715953 c 5.155053,0 9.307719,-3.9875 9.307719,-8.937499 v -2.0625 h -2.863902 v 1.375 z"
       style="fill:#eff0f1;fill-opacity:1;stroke-width:0.350791" />
  </g>
</svg>
