<?xml version="1.0" encoding="UTF-8" standalone="no"?>
<svg
   width="32"
   height="32"
   version="1.1"
   id="svg30"
   sodipodi:docname="accessories.svg"
   inkscape:version="1.2.2 (b0a8486541, 2022-12-01)"
   xmlns:inkscape="http://www.inkscape.org/namespaces/inkscape"
   xmlns:sodipodi="http://sodipodi.sourceforge.net/DTD/sodipodi-0.dtd"
   xmlns="http://www.w3.org/2000/svg"
   xmlns:svg="http://www.w3.org/2000/svg">
  <sodipodi:namedview
     id="namedview32"
     pagecolor="#3a3f47"
     bordercolor="#000000"
     borderopacity="1"
     inkscape:showpageshadow="true"
     inkscape:pageopacity="1"
     inkscape:pagecheckerboard="true"
     inkscape:deskcolor="#3a3f47"
     showgrid="true"
     inkscape:zoom="5.2149125"
     inkscape:cx="12.94365"
     inkscape:cy="23.298569"
     inkscape:window-width="1920"
     inkscape:window-height="1002"
     inkscape:window-x="0"
     inkscape:window-y="0"
     inkscape:window-maximized="1"
     inkscape:current-layer="svg30">
    <inkscape:grid
       type="xygrid"
       id="grid515"
       originx="-32"
       originy="-21.999999" />
  </sodipodi:namedview>
  <defs
     id="defs5">
    <style
       id="current-color-scheme"
       type="text/css">
   .ColorScheme-Background {color:#181818; } .ColorScheme-ButtonBackground { color:#343434; } .ColorScheme-Highlight { color:#4285f4; } .ColorScheme-Text { color:#dfdfdf; } .ColorScheme-ViewBackground { color:#242424; } .ColorScheme-NegativeText { color:#f44336; } .ColorScheme-PositiveText { color:#4caf50; } .ColorScheme-NeutralText { color:#ff9800; }
  </style>
  </defs>
  <g
     id="accessories-dictionary"
     transform="translate(-32)">
    <rect
       style="opacity:0.00100002;fill:#d1d5e9;fill-opacity:1"
       width="32"
       height="32"
       x="0"
       y="0"
       id="rect18" />
    <path
       id="Book"
       class="st0"
       d="m 21,11.500001 h -9 v 4.5 h 9 z m -12,-3 c -0.825,0 -1.5,-0.675 -1.5,-1.5 v 19.5 h 14.25 c 2.0625,0 3.75,-1.6875 3.75,-3.75 v -17.25 H 24 v 3 z"
       style="clip-rule:evenodd;fill:#cdd8e5;fill-opacity:0.403922;fill-rule:evenodd;stroke-width:0.375" />
    <path
       id="Book-s"
       class="st1"
       d="m 10.5,5.500001 c -0.825,0 -1.5,0.675 -1.5,1.5 0,0.825 0.675,1.5 1.5,1.5 H 9 c -0.825,0 -1.5,-0.675 -1.5,-1.5 0,-1.65 1.35,-3 3,-3 h 15 v 1.5 z m 13.5,3 v 15 c 0,1.65 -1.35,3 -3,3 H 9 v 1.5 h 12 c 2.475,0 4.5,-2.025 4.5,-4.5 v -15 z"
       style="fill:#eff0f1;fill-opacity:1;stroke-width:0.375" />
  </g>
  <g
     id="22-22-accessories-dictionary"
     transform="translate(-32,-21.999999)">
    <rect
       style="opacity:0.00100002;fill:#d1d5e9;fill-opacity:1"
       width="22"
       height="22"
       x="0"
       y="0"
       id="rect4" />
    <path
       id="Book-8"
       class="st0"
       d="M 14,8 H 8 v 3 h 6 z M 6,6 C 5.449997,6 5,5.549997 5,5 v 13 h 9.5 C 15.875,18 17,16.875003 17,15.5 V 4 h -1 v 2 z"
       style="clip-rule:evenodd;fill:#cdd8e5;fill-opacity:0.403922;fill-rule:evenodd;stroke-width:0.250004" />
    <path
       id="Book-s-9"
       class="st1"
       d="M 7,4 C 6.45,4 6,4.449997 6,5 6,5.549997 6.45,6 7,6 H 6 C 5.449997,6 5,5.549997 5,5 5,3.9 5.9,3 7,3 h 10 v 1 z m 9,2 v 10 c 0,1.1 -0.9,2 -2,2 H 6 v 1 h 8 c 1.65,0 3,-1.350003 3,-3 V 6 Z"
       style="fill:#eff0f1;fill-opacity:1;stroke-width:0.250004" />
  </g>
  <g
     id="accessories-calculator">
    <rect
       style="opacity:0.00100002;fill:#d1d5e9;fill-opacity:1"
       width="32"
       height="32"
       x="0"
       y="0"
       id="rect25" />
    <path
       id="Menu"
       class="st0"
       d="m 12.857143,4 h 6.285714 v 6.4 h -6.285714 z m -1.571429,8 H 5.0000002 v 6.4 h 6.2857138 z m 0,8 H 5.0000002 v 6.4 h 6.2857138 z m 7.857143,-8 h -6.285714 v 6.4 h 6.285714 z m -6.285714,14.4 h 6.285714 V 20 H 12.857143 Z M 27,4 h -6.285714 v 6.4 h 4.714285 V 12 h -4.714285 v 6.4 h 4.714285 V 20 h -4.714285 v 6.4 h 2.357143 C 25.232143,26.4 27,24.6 27,22.4 Z"
       style="fill:#cdd8e5;fill-opacity:0.403922;stroke-width:0.396412" />
    <path
       id="Menu-s"
       class="st1"
       d="m 12.857143,26.4 h 6.285714 V 28 h -6.285714 z m -6.2857143,0 H 11.285714 V 28 H 6.5714287 Z M 25.428571,23.2 V 20 H 27 v 3.2 c 0,2.64 -2.121429,4.8 -4.714286,4.8 h -1.571428 v -1.6 h 1.571428 c 1.728572,0 3.142857,-1.44 3.142857,-3.2 z m 0,-4.8 V 12 H 27 v 6.4 z m 0,-8 V 5.6 H 27 v 4.8 z M 8.1428573,5.6 C 7.2785716,5.6 6.5714287,6.32 6.5714287,7.2 V 12 H 5.0000002 V 7.2 c 0,-1.76 1.4142857,-3.2 3.1428571,-3.2 h 1.5714285 v 1.6 z"
       style="clip-rule:evenodd;fill:#eff0f1;fill-opacity:1;fill-rule:evenodd;stroke-width:0.396412" />
    <path
       d="m 13.839383,7.949819 h 1.473274 v 1.500064 c 0,0.449996 0.294567,0.749919 0.736527,0.749919 0.441963,0 0.73653,-0.299923 0.73653,-0.749919 V 7.949819 h 1.473276 c 0.441962,0 0.736529,-0.299922 0.736529,-0.749919 0,-0.449996 -0.294567,-0.7499187 -0.736529,-0.7499187 H 16.785714 V 4.949918 c 0,-0.449996 -0.294567,-0.749919 -0.736529,-0.749919 -0.441959,0 -0.736526,0.299923 -0.736526,0.749919 v 1.5000633 h -1.473275 c -0.441961,0 -0.736527,0.2999227 -0.736527,0.7499187 0,0.449997 0.294566,0.749919 0.736526,0.749919 z"
       id="path1724-3"
       style="fill:#eff0f1;fill-opacity:1;stroke-width:0.0557451" />
    <path
       d="m 6.3012598,16.2 h 3.6830811 c 0.4419591,0 0.7365261,-0.299922 0.7365261,-0.749919 0,-0.449996 -0.294567,-0.749919 -0.7365261,-0.749919 H 6.3012598 c -0.4419604,0 -0.7365278,0.299923 -0.7365278,0.749919 C 5.564511,15.900078 5.8592994,16.2 6.3012598,16.2 Z"
       id="path1728-6"
       style="fill:#eff0f1;fill-opacity:1;stroke-width:0.0557451" />
    <path
       d="m 17.031312,15.249997 1.325883,-1.349989 c 0.294568,-0.299923 0.294568,-0.749919 0,-1.050067 -0.294568,-0.299923 -0.736528,-0.299923 -1.031316,0 l -1.325881,1.349989 -1.32588,-1.349989 c -0.294567,-0.299923 -0.736528,-0.299923 -1.031317,0 -0.294568,0.299923 -0.294568,0.749919 0,1.050067 l 1.325883,1.349989 -1.325883,1.34999 c -0.294568,0.299922 -0.294568,0.749919 0,1.050066 0.147395,0.150074 0.368374,0.224999 0.515547,0.224999 0.147393,0 0.368376,-0.07493 0.515549,-0.224999 l 1.32588,-1.349989 1.325881,1.349989 c 0.147393,0.150074 0.368377,0.224999 0.515549,0.224999 0.147393,0 0.368373,-0.07493 0.515545,-0.224999 0.294568,-0.299922 0.294568,-0.749919 0,-1.050066 z"
       id="path1726-7"
       style="fill:#eff0f1;fill-opacity:1;stroke-width:0.0557451" />
    <path
       d="m 17.841579,23.549999 h -3.68316 c -0.44197,0 -0.736543,0.299954 -0.736543,0.75 0,0.450045 0.294573,0.75 0.736543,0.75 h 3.68316 c 0.44197,0 0.736546,-0.299955 0.736546,-0.75 2.21e-4,-0.450046 -0.294576,-0.75 -0.736546,-0.75 z"
       id="path1730-53"
       style="fill:#eff0f1;fill-opacity:1;stroke-width:0.0557487" />
    <path
       d="m 17.841483,21.499999 h -3.68308 c -0.441962,0 -0.736527,0.299923 -0.736527,0.749919 0,0.449997 0.294566,0.74992 0.736527,0.74992 h 3.68308 c 0.441962,0 0.736529,-0.299923 0.736529,-0.74992 2.2e-4,-0.449996 -0.294568,-0.749919 -0.736529,-0.749919 z"
       id="path1732-5"
       style="fill:#eff0f1;fill-opacity:1;stroke-width:0.0557451" />
    <path
       d="m 6.3012598,23.799999 h 3.6830811 c 0.4419591,0 0.7365261,-0.25996 0.7365261,-0.65 0,-0.390039 -0.294567,-0.65 -0.7365261,-0.65 H 6.3012598 c -0.4419604,0 -0.7365278,0.259961 -0.7365278,0.65 -2.21e-4,0.39004 0.2945674,0.65 0.7365278,0.65 z"
       id="path1728-62"
       style="fill:#eff0f1;fill-opacity:1;stroke-width:0.0518986"
       sodipodi:nodetypes="ssssscs" />
    <ellipse
       cx="8.086607"
       cy="25.249998"
       id="circle2"
       style="fill:#eff0f1;fill-opacity:1;stroke-width:0.060429"
       rx="0.73660707"
       ry="0.75" />
    <ellipse
       cx="8.086607"
       cy="21.15"
       id="circle2-9"
       style="fill:#eff0f1;fill-opacity:1;stroke-width:0.060429"
       rx="0.73660707"
       ry="0.75" />
  </g>
  <g
     id="22-22-accessories-calculator"
     transform="translate(0,-21.999999)">
    <rect
       style="opacity:0.00100002;fill:#d1d5e9;fill-opacity:1"
       width="22"
       height="22"
       x="0"
       y="0"
       id="rect13" />
    <path
       id="Menu-7"
       class="st0"
       d="m 8.857148,3 h 4.285707 V 7.266668 H 8.857148 Z M 7.78571,8.333332 H 3.5 V 12.6 h 4.28571 z m 0,5.333336 H 3.5 v 4.266664 H 7.78571 Z M 13.142855,8.333332 H 8.857149 V 12.6 h 4.285706 z m -4.285706,9.6 h 4.285706 V 13.666668 H 8.857149 Z M 18.5,3 h -4.285713 v 4.266668 h 3.214286 V 8.333332 H 14.214287 V 12.6 h 3.214286 v 1.066668 h -3.214286 v 4.266664 h 1.607144 c 1.47321,0 2.678569,-1.2 2.678569,-2.666664 z"
       style="fill:#cdd8e5;fill-opacity:0.403922;stroke-width:0.267265" />
    <path
       id="Menu-s-9"
       class="st1"
       d="m 8.857148,17.933332 h 4.285707 V 19 H 8.857148 Z m -4.285716,0 H 7.78571 V 19 H 4.571432 Z M 17.428573,15.8 V 13.666668 H 18.5 V 15.8 c 0,1.76 -1.446432,3.2 -3.214288,3.2 h -1.071426 v -1.066668 h 1.071426 c 1.178574,0 2.142861,-0.96 2.142861,-2.133332 z m 0,-3.2 V 8.333332 H 18.5 V 12.6 Z m 0,-5.333332 v -3.2 H 18.5 v 3.2 z m -11.785718,-3.2 c -0.589278,0 -1.071423,0.48 -1.071423,1.066664 v 3.2 H 3.5 v -3.2 C 3.5,3.96 4.464286,3 5.642855,3 h 1.071431 v 1.066668 z"
       style="clip-rule:evenodd;fill:#eff0f1;fill-opacity:1;fill-rule:evenodd;stroke-width:0.267265" />
    <path
       d="m 9.526853,5.633211 h 1.004505 v 1.000045 c 0,0.299999 0.200842,0.499938 0.50217,0.499938 0.301342,0 0.502185,-0.199939 0.502185,-0.499938 V 5.633211 h 1.004505 c 0.301335,0 0.502181,-0.199953 0.502181,-0.49995 0,-0.299997 -0.200846,-0.499945 -0.502181,-0.499945 H 11.535713 V 3.633278 c 0,-0.299996 -0.200843,-0.499947 -0.502184,-0.499947 -0.301329,0 -0.50217,0.199951 -0.50217,0.499947 V 4.633316 H 9.526853 c -0.301345,0 -0.502186,0.199948 -0.502186,0.499945 0,0.299997 0.200841,0.49995 0.502186,0.49995 z"
       id="path1724-3-2"
       style="fill:#eff0f1;fill-opacity:1;stroke-width:0.0375839" />
    <path
       d="m 4.387217,11.133332 h 2.511202 c 0.30133,0 0.502168,-0.199946 0.502168,-0.499943 0,-0.299996 -0.200838,-0.499947 -0.502168,-0.499947 H 4.387217 c -0.30133,0 -0.502168,0.199951 -0.502168,0.499947 -1.51e-4,0.299997 0.200838,0.499943 0.502168,0.499943 z"
       id="path1728-6-0"
       style="fill:#eff0f1;fill-opacity:1;stroke-width:0.0375839" />
    <path
       d="m 11.703166,10.499997 0.904011,-0.899989 c 0.20084,-0.199952 0.20084,-0.499951 0,-0.700043 -0.200839,-0.199947 -0.502172,-0.199947 -0.703166,0 L 10.999997,9.799958 10.09599,8.899965 c -0.200831,-0.199947 -0.502184,-0.199947 -0.703171,0 -0.200848,0.199947 -0.200848,0.499943 0,0.700043 l 0.904009,0.899989 -0.904009,0.89999 c -0.200848,0.199954 -0.200848,0.499951 0,0.700049 0.100451,0.100096 0.251161,0.150004 0.351508,0.150004 0.100451,0 0.251169,-0.04995 0.351504,-0.150004 l 0.904018,-0.9 0.904003,0.9 c 0.100459,0.100096 0.251172,0.150004 0.351518,0.150004 0.100451,0 0.251157,-0.04995 0.35151,-0.150004 0.20083,-0.199962 0.20083,-0.499962 0,-0.700049 z"
       id="path1726-7-2"
       style="fill:#eff0f1;fill-opacity:1;stroke-width:0.0375839" />
    <path
       d="m 12.255621,16.033331 h -2.51124 c -0.30136,0 -0.502194,0.199973 -0.502194,0.5 0,0.300023 0.200834,0.5 0.502194,0.5 h 2.51124 c 0.301349,0 0.502182,-0.199977 0.502182,-0.5 1.64e-4,-0.300027 -0.200833,-0.5 -0.502182,-0.5 z"
       id="path1730-53-3"
       style="fill:#eff0f1;fill-opacity:1;stroke-width:0.0375855" />
    <path
       d="M 12.255553,14.666667 H 9.744366 c -0.301345,0 -0.502179,0.199947 -0.502179,0.499943 0,0.299997 0.200834,0.499948 0.502179,0.499948 h 2.511187 c 0.301343,0 0.502185,-0.199951 0.502185,-0.499948 1.43e-4,-0.299996 -0.200843,-0.499943 -0.502185,-0.499943 z"
       id="path1732-5-7"
       style="fill:#eff0f1;fill-opacity:1;stroke-width:0.0375839" />
    <path
       d="m 4.387217,16.199999 h 2.511202 c 0.30133,0 0.502168,-0.173304 0.502168,-0.433332 0,-0.260033 -0.200838,-0.433336 -0.502168,-0.433336 H 4.387217 c -0.30133,0 -0.502168,0.173315 -0.502168,0.433336 -1.51e-4,0.260028 0.200838,0.433332 0.502168,0.433332 z"
       id="path1728-62-5"
       style="fill:#eff0f1;fill-opacity:1;stroke-width:0.0349907"
       sodipodi:nodetypes="ssssscs" />
    <ellipse
       cx="5.604506"
       cy="17.166668"
       id="circle2-92"
       style="fill:#eff0f1;fill-opacity:1;stroke-width:0.0407407"
       rx="0.50223166"
       ry="0.49999988" />
    <ellipse
       cx="5.604506"
       cy="14.433323"
       id="circle2-9-2"
       style="fill:#eff0f1;fill-opacity:1;stroke-width:0.0407407"
       rx="0.50223166"
       ry="0.49999988" />
  </g>
</svg>
