<?xml version="1.0" encoding="UTF-8" standalone="no"?>
<svg
   width="32.000004"
   height="31.999998"
   viewBox="0 0 8.4666675 8.4666664"
   version="1.1"
   id="svg847"
   inkscape:version="1.2.2 (b0a8486541, 2022-12-01)"
   sodipodi:docname="activities.svg"
   xmlns:inkscape="http://www.inkscape.org/namespaces/inkscape"
   xmlns:sodipodi="http://sodipodi.sourceforge.net/DTD/sodipodi-0.dtd"
   xmlns="http://www.w3.org/2000/svg"
   xmlns:svg="http://www.w3.org/2000/svg"
   xmlns:rdf="http://www.w3.org/1999/02/22-rdf-syntax-ns#"
   xmlns:cc="http://creativecommons.org/ns#"
   xmlns:dc="http://purl.org/dc/elements/1.1/">
  <defs
     id="defs841">
    <linearGradient
       id="oomox"
       x1="0.00021740334"
       x2="0.00021740334"
       y1="2.2170208"
       y2="16.152622"
       gradientTransform="matrix(0.60065215,0,0,0.45566747,0.06601531,0.04810909)"
       gradientUnits="userSpaceOnUse">
      <stop
         offset="0%"
         style="stop-color:#303b3d; stop-opacity:1"
         id="stop18" />
      <stop
         offset="100%"
         style="stop-color:#bc985d; stop-opacity:1"
         id="stop20" />
    </linearGradient>
  </defs>
  <sodipodi:namedview
     id="base"
     pagecolor="#3a3f47"
     bordercolor="#000000"
     borderopacity="1"
     inkscape:pageopacity="1"
     inkscape:pageshadow="2"
     inkscape:zoom="7.919596"
     inkscape:cx="15.467961"
     inkscape:cy="18.24588"
     inkscape:document-units="px"
     inkscape:current-layer="layer1"
     inkscape:document-rotation="0"
     showgrid="true"
     units="px"
     inkscape:window-width="1920"
     inkscape:window-height="1002"
     inkscape:window-x="0"
     inkscape:window-y="0"
     inkscape:window-maximized="1"
     inkscape:snap-bbox="true"
     inkscape:bbox-nodes="true"
     inkscape:showpageshadow="true"
     inkscape:lockguides="false"
     inkscape:pagecheckerboard="true"
     inkscape:deskcolor="#3a3f47">
    <inkscape:grid
       type="xygrid"
       id="grid1410"
       originx="1.2e-06"
       originy="0" />
  </sodipodi:namedview>
  <metadata
     id="metadata844">
    <rdf:RDF>
      <cc:Work
         rdf:about="">
        <dc:format>image/svg+xml</dc:format>
        <dc:type
           rdf:resource="http://purl.org/dc/dcmitype/StillImage" />
      </cc:Work>
    </rdf:RDF>
    <style
       id="current-color-scheme" />
  </metadata>
  <g
     inkscape:label="Layer 1"
     inkscape:groupmode="layer"
     id="layer1">
    <g
       id="activities">
      <rect
         y="0"
         x="0"
         height="8.4666662"
         width="8.4666662"
         id="rect1430"
         style="opacity:0.003;fill:#000000;stroke-width:0.529167" />
      <path
         id="Other"
         class="st0"
         d="m 3.1750013,3.96875 c 0,-0.5820833 0.47625,-1.0583333 1.0583334,-1.0583333 0.5820833,0 1.0583333,0.47625 1.0583333,1.0583333 0,0.5820834 -0.47625,1.0583334 -1.0583333,1.0583334 -0.5820834,0 -1.0583334,-0.47625 -1.0583334,-1.0583334 z M 7.4083348,2.9104167 c -0.5820834,0 -1.0583334,0.47625 -1.0583334,1.0583333 0,0.5820834 0.47625,1.0583334 1.0583334,1.0583334 0.5820833,0 1.0583333,-0.47625 1.0583333,-1.0583334 0,-0.5820833 -0.47625,-1.0583333 -1.0583333,-1.0583333 z"
         style="fill:#cdd8e5;fill-opacity:0.40392157;stroke-width:0.132292" />
      <path
         class="st1"
         d="m 2.116668,3.9687501 c 0,0.5820833 -0.47625,1.0583333 -1.0583334,1.0583333 -0.58208334,0 -1.0583333510327,-0.47625 -1.0583333510327,-1.0583333 0,-0.5820834 0.4762500110327,-1.0583334 1.0583333510327,-1.0583334 0.5820834,0 1.0583334,0.47625 1.0583334,1.0583334 z m -0.5291667,0 c 0,0.2910417 -0.238125,0.5291667 -0.5291667,0.5291667 -0.29104167,0 -0.52916667,-0.238125 -0.52916667,-0.5291667 0,-0.2910417 0.238125,-0.5291667 0.52916667,-0.5291667 0.2910417,0 0.5291667,0.238125 0.5291667,0.5291667 z m 6.3500001,0 v 0.5291667 c 0,0.2910416 -0.238125,0.5291666 -0.5291666,0.5291666 v 0.5291667 c 0.5820833,0 1.0583333,-0.47625 1.0583333,-1.0583333 V 3.9687501 Z"
         id="path5"
         style="fill:#eff0f1;fill-opacity:1;stroke-width:0.132292" />
    </g>
    <g
       id="22-22-activities">
      <rect
         style="opacity:0.003;fill:#000000;stroke-width:0.363802"
         id="rect1430-3-7-5"
         width="5.8208323"
         height="5.8208323"
         x="8.4666681"
         y="2.6458333" />
      <path
         id="Other-4"
         class="st0"
         d="m 10.649492,5.3710419 c 0,-0.4074584 0.327421,-0.7408336 0.727596,-0.7408336 0.400184,0 0.727616,0.3333752 0.727616,0.7408336 0,0.4074576 -0.327432,0.7408325 -0.727616,0.7408325 -0.400175,0 -0.727596,-0.3333749 -0.727596,-0.7408325 z m 2.910409,-0.7408336 c -0.400174,0 -0.727598,0.3333752 -0.727598,0.7408336 0,0.4074576 0.327424,0.7408325 0.727598,0.7408325 0.400184,0 0.727613,-0.3333749 0.727613,-0.7408325 0,-0.4074584 -0.327429,-0.7408336 -0.727613,-0.7408336 z"
         style="fill:#cdd8e5;fill-opacity:0.40392157;stroke-width:0.0917735" />
      <path
         class="st1"
         d="m 9.9218889,5.3710419 c 0,0.4074576 -0.3274332,0.7408325 -0.7276172,0.7408325 -0.4001816,0 -0.7276036,-0.3333749 -0.7276036,-0.7408325 0,-0.4074584 0.327422,-0.7408336 0.7276036,-0.7408336 0.400184,0 0.7276172,0.3333752 0.7276172,0.7408336 z m -0.3638109,0 c 0,0.2037282 -0.1637101,0.3704161 -0.3638063,0.3704161 -0.2000909,0 -0.363801,-0.1666879 -0.363801,-0.3704161 0,-0.2037295 0.1637101,-0.3704166 0.363801,-0.3704166 0.2000962,0 0.3638063,0.1666871 0.3638063,0.3704166 z m 4.36563,0 V 5.741458 c 0,0.2037292 -0.163707,0.3704164 -0.363807,0.3704164 v 0.3704173 c 0.400184,0 0.727613,-0.3333747 0.727613,-0.7408337 V 5.3710419 Z"
         id="path5-8"
         style="fill:#eff0f1;fill-opacity:1;stroke-width:0.0917735" />
    </g>
  </g>
</svg>
