<?xml version="1.0" encoding="UTF-8" standalone="no"?>
<svg
   width="32"
   height="32"
   version="1.1"
   id="svg12"
   sodipodi:docname="akonadi.svg"
   inkscape:version="1.2.2 (b0a8486541, 2022-12-01)"
   xmlns:inkscape="http://www.inkscape.org/namespaces/inkscape"
   xmlns:sodipodi="http://sodipodi.sourceforge.net/DTD/sodipodi-0.dtd"
   xmlns="http://www.w3.org/2000/svg"
   xmlns:svg="http://www.w3.org/2000/svg"
   xmlns:rdf="http://www.w3.org/1999/02/22-rdf-syntax-ns#"
   xmlns:cc="http://creativecommons.org/ns#"
   xmlns:dc="http://purl.org/dc/elements/1.1/">
  <metadata
     id="metadata18">
    <rdf:RDF>
      <cc:Work
         rdf:about="">
        <dc:format>image/svg+xml</dc:format>
        <dc:type
           rdf:resource="http://purl.org/dc/dcmitype/StillImage" />
      </cc:Work>
    </rdf:RDF>
  </metadata>
  <defs
     id="defs16" />
  <sodipodi:namedview
     pagecolor="#3a3f47"
     bordercolor="#000000"
     borderopacity="1"
     objecttolerance="10"
     gridtolerance="10"
     guidetolerance="10"
     inkscape:pageopacity="1"
     inkscape:pageshadow="2"
     inkscape:window-width="1920"
     inkscape:window-height="1002"
     id="namedview14"
     showgrid="true"
     inkscape:zoom="9.8125"
     inkscape:cx="19.617834"
     inkscape:cy="16.66242"
     inkscape:window-x="0"
     inkscape:window-y="0"
     inkscape:window-maximized="1"
     inkscape:current-layer="svg12"
     inkscape:document-rotation="0"
     inkscape:lockguides="false"
     inkscape:showpageshadow="true"
     inkscape:pagecheckerboard="true"
     inkscape:deskcolor="#3a3f47">
    <inkscape:grid
       type="xygrid"
       id="grid907"
       originx="32.000001"
       originy="10.000001" />
  </sodipodi:namedview>
  <g
     id="akonadi">
    <path
       style="opacity:0.00100002"
       d="M 0,0 H 32.000001 V 32.000001 H 0 Z"
       id="path7" />
    <path
       id="List"
       class="st0"
       d="M 11.125,4 H 29 v 18 c 0,2.357143 -1.828125,4.285714 -4.0625,4.285714 H 11.125 v -5.142857 h 16.25 v -3.428571 h -16.25 v -5.142857 h 16.25 V 9.1428572 H 11.125 Z M 3,17.714286 H 7.875 V 12.571429 H 3 Z m 4.875,3.428571 H 3 v 5.142857 h 4.875 z"
       style="fill:#cdd8e5;fill-opacity:0.40392157;stroke-width:0.417261" />
    <path
       id="List-s"
       class="st1"
       d="M 4.625,9.1428572 H 3 V 7.4285715 C 3,5.5428572 4.4625,4 6.25,4 H 7.875 V 5.7142857 H 6.25 c -0.89375,0 -1.625,0.7714286 -1.625,1.7142858 z M 27.375,4 V 9.1428572 H 29 V 4 Z m 0,8.571429 v 5.142857 H 29 v -5.142857 z m 0,8.571428 v 1.714286 c 0,1.885714 -1.4625,3.428571 -3.25,3.428571 h -13 V 28 h 13 C 26.80625,28 29,25.685714 29,22.857143 V 21.142857 Z M 7.875,28 V 26.285714 H 4.625 V 28 Z"
       style="fill:#eff0f1;fill-opacity:1;stroke-width:0.417261" />
  </g>
  <g
     id="22-22-akonadi"
     transform="translate(32.000001,10.000001)">
    <path
       style="opacity:0.00100002"
       d="M 0,0 H 22 V 22 H 0 Z"
       id="path2" />
    <path
       id="List-4"
       class="st0"
       d="M 7.625,3 H 20 v 12 c 0,1.571429 -1.265625,2.857143 -2.8125,2.857143 H 7.625 v -3.428571 h 11.25 V 12.142857 H 7.625 V 8.7142858 h 11.25 V 6.4285714 H 7.625 Z M 2,12.142857 H 5.375 V 8.7142858 H 2 Z m 3.375,2.285715 H 2 v 3.428571 h 3.375 z"
       style="fill:#cdd8e5;fill-opacity:0.40392157;stroke-width:0.283473" />
    <path
       id="List-s-8"
       class="st1"
       d="M 3.125,6.4285714 H 2 V 5.2857143 C 2,4.0285714 3.0125,3 4.25,3 H 5.375 V 4.1428571 H 4.25 c -0.61875,0 -1.125,0.5142857 -1.125,1.1428572 z M 18.875,3 V 6.4285714 H 20 V 3 Z m 0,5.7142858 V 12.142857 H 20 V 8.7142858 Z m 0,5.7142862 v 1.142857 c 0,1.257143 -1.0125,2.285714 -2.25,2.285714 h -9 V 19 h 9 C 18.48125,19 20,17.457143 20,15.571429 V 14.428572 Z M 5.375,19 V 17.857143 H 3.125 V 19 Z"
       style="fill:#eff0f1;fill-opacity:1;stroke-width:0.283473" />
  </g>
</svg>
