<?xml version="1.0" encoding="UTF-8" standalone="no"?>
<svg
   width="32"
   height="32"
   version="1.1"
   id="svg12"
   sodipodi:docname="amarok.svg"
   inkscape:version="1.2.2 (b0a8486541, 2022-12-01)"
   xmlns:inkscape="http://www.inkscape.org/namespaces/inkscape"
   xmlns:sodipodi="http://sodipodi.sourceforge.net/DTD/sodipodi-0.dtd"
   xmlns="http://www.w3.org/2000/svg"
   xmlns:svg="http://www.w3.org/2000/svg"
   xmlns:rdf="http://www.w3.org/1999/02/22-rdf-syntax-ns#"
   xmlns:cc="http://creativecommons.org/ns#"
   xmlns:dc="http://purl.org/dc/elements/1.1/">
  <metadata
     id="metadata18">
    <rdf:RDF>
      <cc:Work
         rdf:about="">
        <dc:format>image/svg+xml</dc:format>
        <dc:type
           rdf:resource="http://purl.org/dc/dcmitype/StillImage" />
      </cc:Work>
    </rdf:RDF>
  </metadata>
  <defs
     id="defs16" />
  <sodipodi:namedview
     pagecolor="#3a3f47"
     bordercolor="#000000"
     borderopacity="1"
     objecttolerance="10"
     gridtolerance="10"
     guidetolerance="10"
     inkscape:pageopacity="1"
     inkscape:pageshadow="2"
     inkscape:window-width="1920"
     inkscape:window-height="1002"
     id="namedview14"
     showgrid="true"
     inkscape:zoom="9.8125"
     inkscape:cx="5.9617834"
     inkscape:cy="10.853503"
     inkscape:window-x="0"
     inkscape:window-y="0"
     inkscape:window-maximized="1"
     inkscape:current-layer="svg12"
     inkscape:document-rotation="0"
     inkscape:lockguides="true"
     inkscape:showpageshadow="true"
     inkscape:pagecheckerboard="true"
     inkscape:deskcolor="#3a3f47">
    <inkscape:grid
       type="xygrid"
       id="grid889"
       originx="32"
       originy="10.000001" />
  </sodipodi:namedview>
  <g
     id="amarok">
    <path
       style="opacity:0.00100002"
       d="M 0,0 V 32.000001 H 32 V 0 Z"
       id="path7" />
    <path
       id="Music"
       class="st0"
       d="M 11.5,10.675 C 11.5,8.95 12.6625,7.45 14.35,7.0375 L 26.5,4 V 21.25 C 26.5,23.3125 24.8125,25 22.75,25 20.6875,25 19,23.3125 19,21.25 19,19.1875 20.6875,17.5 22.75,17.5 H 25 V 10.375 L 11.5,13.75 Z M 13,20.5 H 9.25 C 7.1875,20.5 5.5,22.1875 5.5,24.25 5.5,26.3125 7.1875,28 9.25,28 11.3125,28 13,26.3125 13,24.25 Z"
       style="fill:#cdd8e5;fill-opacity:0.40392157;stroke-width:0.375" />
    <path
       id="Music-s"
       class="st1"
       d="M 26.5,10 25,10.375 v -4.5 L 26.5,5.5 Z M 14.125,8.65 14.5,8.5375 V 7 L 13.7875,7.1875 C 12.4375,7.525 11.5,8.725 11.5,10.1125 V 20.5 H 13 V 10.075 C 13,9.4 13.45,8.8 14.125,8.65 Z M 25,17.5 v 5.25 C 25,23.9875 23.9875,25 22.75,25 v 1.5 c 2.0625,0 3.75,-1.6875 3.75,-3.75 V 17.5 Z"
       style="fill:#eff0f1;fill-opacity:1;stroke-width:0.375" />
  </g>
  <g
     id="22-22-amarok"
     transform="translate(32,10.000001)">
    <path
       style="opacity:0.00100002"
       d="M 0,0 V 22 H 22 V 0 Z"
       id="path4" />
    <path
       id="Music-3"
       class="st0"
       d="M 8,7.45 C 8,6.3 8.775,5.3 9.9,5.025 L 18,3 V 14.5 C 18,15.875 16.875,17 15.5,17 14.125,17 13,15.875 13,14.5 13,13.125 14.125,12 15.5,12 H 17 V 7.25 L 8,9.5 Z M 9,14 H 6.5 C 5.125,14 4,15.125 4,16.5 4,17.875 5.125,19 6.5,19 7.875,19 9,17.875 9,16.5 Z"
       style="fill:#cdd8e5;fill-opacity:0.40392157;stroke-width:0.25" />
    <path
       id="Music-s-6"
       class="st1"
       d="m 18,7 -1,0.25 v -3 L 18,4 Z M 9.75,6.1 10,6.025 V 5 L 9.525,5.125 C 8.625,5.35 8,6.15 8,7.075 V 14 H 9 V 7.05 C 9,6.6 9.3,6.2 9.75,6.1 Z M 17,12 v 3.5 c 0,0.825 -0.675,1.5 -1.5,1.5 v 1 C 16.875,18 18,16.875 18,15.5 V 12 Z"
       style="fill:#eff0f1;fill-opacity:1;stroke-width:0.25" />
  </g>
</svg>
