<?xml version="1.0" encoding="UTF-8" standalone="no"?>
<svg
   width="32"
   height="32"
   version="1"
   id="svg14"
   sodipodi:docname="antimicro.svg"
   inkscape:version="1.2.2 (b0a8486541, 2022-12-01)"
   xmlns:inkscape="http://www.inkscape.org/namespaces/inkscape"
   xmlns:sodipodi="http://sodipodi.sourceforge.net/DTD/sodipodi-0.dtd"
   xmlns="http://www.w3.org/2000/svg"
   xmlns:svg="http://www.w3.org/2000/svg">
  <g
     id="22-22-antimicro"
     transform="translate(37.999998,10)">
    <rect
       style="opacity:0.00100002"
       width="22"
       height="22"
       x="0"
       y="0"
       id="rect9" />
    <path
       id="Game-3"
       class="st0"
       d="m 4.9843751,8.3333371 v 1.066663 H 3.8906254 v 1.0666629 h 1.0937497 v 1.066674 H 6.078122 V 10.466663 H 7.1718737 V 9.4000001 H 6.078122 V 8.3333371 Z M 15.375007,10.2 c 0,0.453337 -0.355472,0.8 -0.820323,0.8 -0.46484,0 -0.820311,-0.346663 -0.820311,-0.8 0,-0.4533368 0.355471,-0.7999999 0.820311,-0.7999999 0.464851,0 0.820323,0.3466631 0.820323,0.7999999 z m 2.460941,0.8 c 0.464836,0 0.820306,-0.346663 0.820306,-0.8 0,-0.4533368 -0.35547,-0.7999999 -0.820306,-0.7999999 -0.464844,0 -0.820311,0.3466631 -0.820311,0.7999999 0,0.453337 0.355467,0.8 0.820311,0.8 z m -0.820311,0.800001 c 0,0.453336 -0.355483,0.799999 -0.820323,0.799999 -0.464835,0 -0.820307,-0.346663 -0.820307,-0.799999 0,-0.453338 0.355472,-0.800001 0.820307,-0.800001 0.46484,0 0.820323,0.346663 0.820323,0.800001 z m 0,-3.2000009 c 0,0.453337 -0.355483,0.8 -0.820323,0.8 -0.464835,0 -0.820307,-0.346663 -0.820307,-0.8 0,-0.453337 0.355472,-0.8 0.820307,-0.8 0.46484,0 0.820323,0.346663 0.820323,0.8 z m -14.765637,0.8 v 6.9333369 c 0,0.880001 0.7382815,1.600001 1.6406254,1.600001 h 0.4921871 c 1.0390641,0 1.9960902,-0.56 2.4335898,-1.466674 l 1.4492245,-2.800001 h 5.4687462 l 1.695324,3.28 c 0.300782,0.586675 0.929675,0.986675 1.613271,0.986675 1.503906,0 2.707032,-1.173338 2.707032,-2.64 V 8.8666631 c 0,-1.466663 -1.230457,-2.666663 -2.734363,-2.666663 h -2.187502 l -1.093762,1.066663 H 8.2656268 L 7.1718737,6.2000001 H 5.5312479 c -1.8046842,0 -3.2812479,1.44 -3.2812479,3.2 z"
       style="clip-rule:evenodd;fill:#cdd8e5;fill-opacity:0.403922;fill-rule:evenodd;stroke-width:0.270033" />
    <path
       id="Game-s-6"
       class="st1"
       d="m 14.828135,3 v 0.533337 c 0,0.88 -0.738291,1.6000001 -1.640634,1.6000001 h -1.093752 c -0.300782,0 -0.546879,0.24 -0.546879,0.5333259 V 6.2000001 H 10.453133 V 5.666663 c 0,-0.8799999 0.738271,-1.6 1.640616,-1.6 h 1.093752 c 0.300781,0 0.546872,-0.24 0.546872,-0.533326 V 3 Z m 2.187502,14.933338 V 19 C 18.519543,19 19.75,17.800001 19.75,16.333337 V 12.6 h -1.093746 v 3.733337 c 0,0.880001 -0.738273,1.600001 -1.640617,1.600001 z m -3.554691,-4.8 H 7.3906339 l -1.9961023,3.92 c -0.2734372,0.533325 -0.8476562,0.88 -1.4765623,0.88 H 3.8906213 V 19 h 0.027348 c 1.0390628,0 1.9960901,-0.56 2.4335974,-1.466662 L 8.0468816,14.2 h 5.9609424 z"
       style="fill:#eff0f1;fill-opacity:1;stroke-width:0.270033" />
  </g>
  <sodipodi:namedview
     id="namedview16"
     pagecolor="#3a3f47"
     bordercolor="#000000"
     borderopacity="1"
     inkscape:showpageshadow="true"
     inkscape:pageopacity="1"
     inkscape:pagecheckerboard="true"
     inkscape:deskcolor="#3a3f47"
     showgrid="true"
     inkscape:zoom="10.429825"
     inkscape:cx="19.607232"
     inkscape:cy="14.142136"
     inkscape:window-width="1920"
     inkscape:window-height="1002"
     inkscape:window-x="0"
     inkscape:window-y="0"
     inkscape:window-maximized="1"
     inkscape:current-layer="svg14">
    <inkscape:grid
       type="xygrid"
       id="grid1266"
       originx="1e-06"
       originy="0" />
  </sodipodi:namedview>
  <defs
     id="defs5">
    <style
       type="text/css"
       id="current-color-scheme" />
  </defs>
  <g
     id="antimicro">
    <rect
       style="opacity:0.00100002"
       width="32"
       height="32"
       x="0"
       y="0"
       id="rect4" />
    <path
       id="Game"
       class="st0"
       d="M 7.75,12.333333 V 13.8 h -1.5 v 1.466667 h 1.5 v 1.466666 h 1.5 v -1.466666 h 1.5 V 13.8 H 9.25 V 12.333333 Z M 22,14.9 c 0,0.623333 -0.4875,1.1 -1.125,1.1 -0.6375,0 -1.125,-0.476667 -1.125,-1.1 0,-0.623333 0.4875,-1.1 1.125,-1.1 0.6375,0 1.125,0.476667 1.125,1.1 z m 3.375,1.1 c 0.6375,0 1.125,-0.476667 1.125,-1.1 0,-0.623333 -0.4875,-1.1 -1.125,-1.1 -0.6375,0 -1.125,0.476667 -1.125,1.1 0,0.623333 0.4875,1.1 1.125,1.1 z m -1.125,1.1 c 0,0.623333 -0.4875,1.1 -1.125,1.1 C 22.4875,18.2 22,17.723333 22,17.1 22,16.476667 22.4875,16 23.125,16 c 0.6375,0 1.125,0.476667 1.125,1.1 z m 0,-4.4 c 0,0.623333 -0.4875,1.1 -1.125,1.1 C 22.4875,13.8 22,13.323333 22,12.7 c 0,-0.623333 0.4875,-1.1 1.125,-1.1 0.6375,0 1.125,0.476667 1.125,1.1 z M 4,13.8 v 9.533333 c 0,1.210001 1.0125,2.200001 2.25,2.200001 h 0.675 c 1.425,0 2.7375,-0.77 3.3375,-2.016667 l 1.9875,-3.85 h 7.5 l 2.325,4.51 c 0.4125,0.806667 1.275,1.356667 2.2125,1.356667 C 26.35,25.533334 28,23.92 28,21.903333 V 13.066667 C 28,11.05 26.3125,9.4 24.25,9.4 h -3 l -1.5,1.466667 h -7.5 L 10.75,9.4 H 8.5 C 6.025,9.4 4,11.38 4,13.8 Z"
       style="clip-rule:evenodd;fill:#cdd8e5;fill-opacity:0.403922;fill-rule:evenodd;stroke-width:0.37081" />
    <path
       id="Game-s"
       class="st1"
       d="m 21.25,5 v 0.7333333 c 0,1.2100001 -1.0125,2.2000001 -2.25,2.2000001 h -1.5 c -0.4125,0 -0.75,0.33 -0.75,0.7333333 V 9.4 h -1.5 V 8.6666667 c 0,-1.21 1.0125,-2.2 2.25,-2.2 H 19 c 0.4125,0 0.75,-0.33 0.75,-0.7333334 V 5 Z m 3,20.533334 V 27 C 26.3125,27 28,25.35 28,23.333333 V 18.2 h -1.5 v 5.133333 c 0,1.210001 -1.0125,2.200001 -2.25,2.200001 z M 19.375,18.933333 H 11.05 l -2.7375,5.390001 c -0.375,0.733333 -1.1625,1.21 -2.025,1.21 H 6.25 V 27 H 6.2875 C 7.7125,27 9.025,26.23 9.625,24.983334 L 11.95,20.4 h 8.175 z"
       style="fill:#eff0f1;fill-opacity:1;stroke-width:0.37081" />
  </g>
</svg>
