<?xml version="1.0" encoding="UTF-8" standalone="no"?>
<svg
   width="32"
   height="32"
   version="1.1"
   id="svg12"
   sodipodi:docname="applications.svg"
   inkscape:version="1.2.2 (b0a8486541, 2022-12-01)"
   xmlns:inkscape="http://www.inkscape.org/namespaces/inkscape"
   xmlns:sodipodi="http://sodipodi.sourceforge.net/DTD/sodipodi-0.dtd"
   xmlns="http://www.w3.org/2000/svg"
   xmlns:svg="http://www.w3.org/2000/svg"
   xmlns:rdf="http://www.w3.org/1999/02/22-rdf-syntax-ns#"
   xmlns:cc="http://creativecommons.org/ns#"
   xmlns:dc="http://purl.org/dc/elements/1.1/">
  <metadata
     id="metadata18">
    <rdf:RDF>
      <cc:Work
         rdf:about="">
        <dc:format>image/svg+xml</dc:format>
        <dc:type
           rdf:resource="http://purl.org/dc/dcmitype/StillImage" />
      </cc:Work>
    </rdf:RDF>
  </metadata>
  <defs
     id="defs16" />
  <sodipodi:namedview
     pagecolor="#3a3f47"
     bordercolor="#000000"
     borderopacity="1"
     objecttolerance="10"
     gridtolerance="10"
     guidetolerance="10"
     inkscape:pageopacity="1"
     inkscape:pageshadow="2"
     inkscape:window-width="1920"
     inkscape:window-height="1002"
     id="namedview14"
     showgrid="true"
     inkscape:zoom="11.313709"
     inkscape:cx="19.224465"
     inkscape:cy="14.628271"
     inkscape:window-x="0"
     inkscape:window-y="0"
     inkscape:window-maximized="1"
     inkscape:current-layer="svg12"
     inkscape:document-rotation="0"
     inkscape:showpageshadow="true"
     inkscape:pagecheckerboard="true"
     inkscape:lockguides="true"
     inkscape:deskcolor="#3a3f47">
    <inkscape:grid
       type="xygrid"
       id="grid851"
       originx="0"
       originy="0" />
  </sodipodi:namedview>
  <g
     id="applications-other">
    <path
       style="clip-rule:evenodd;fill:#ffffc1;fill-opacity:0;fill-rule:evenodd;stroke-width:1.00213;stroke-linejoin:round;stroke-miterlimit:1.41421"
       d="M 0,0 V 32 H 32 V 0 Z"
       id="rect817"
       inkscape:connector-curvature="0" />
    <path
       id="Grid"
       class="st0"
       d="M 3.9,16 H 15.166667 V 27.266667 H 3.9 Z m 13,-1.733333 h 9.533333 V 16 H 16.9 v 11.266667 h 6.933333 c 2.383334,0 4.333334,-1.95 4.333334,-4.333334 V 3 H 16.9 Z"
       style="fill:#cdd8e5;fill-opacity:0.40392157;stroke-width:0.433333" />
    <path
       id="Grid-s"
       class="st1"
       d="M 15.166667,29 H 5.633333 v -1.733333 h 9.533334 z m 13,-13 v 7.8 c 0,2.86 -2.34,5.2 -5.2,5.2 H 16.9 v -1.733333 h 6.066667 c 1.906666,0 3.466666,-1.56 3.466666,-3.466667 V 16 Z m 0,-11.266667 v 9.533334 H 26.433333 V 4.733333 Z M 3.9,6.4666667 C 3.9,4.56 5.46,3 7.366667,3 h 3.466666 V 4.733333 H 7.366667 c -0.953334,0 -1.733334,0.78 -1.733334,1.7333337 V 14.266667 H 3.9 Z"
       style="clip-rule:evenodd;fill:#eff0f1;fill-opacity:1;fill-rule:evenodd;stroke-width:0.433333" />
  </g>
  <g
     id="22-22-applications-other">
    <path
       style="clip-rule:evenodd;fill:#ffffc1;fill-opacity:0;fill-rule:evenodd;stroke-width:0.688964;stroke-linejoin:round;stroke-miterlimit:1.41421"
       d="M 32,9.9999997 V 32 H 54 V 9.9999997 Z"
       id="rect817-5"
       inkscape:connector-curvature="0" />
    <path
       id="Grid-7"
       class="st0"
       d="m 33.7,21 h 8.666667 v 8.666667 H 33.7 Z m 10,-1.333333 h 7.333333 V 21 H 43.7 v 8.666667 h 5.333333 c 1.833334,0 3.333334,-1.5 3.333334,-3.333334 V 11 H 43.7 Z"
       style="fill:#cdd8e5;fill-opacity:0.40392157;stroke-width:0.333333" />
    <path
       id="Grid-s-5"
       class="st1"
       d="m 42.366667,31.000001 h -7.333334 v -1.333334 h 7.333334 z M 52.366667,21 v 6 c 0,2.2 -1.8,4.000001 -4,4.000001 H 43.7 v -1.333334 h 4.666667 c 1.466666,0 2.666666,-1.2 2.666666,-2.666667 v -6 z m 0,-8.666667 v 7.333334 H 51.033333 V 12.333333 Z M 33.7,13.666667 C 33.7,12.2 34.9,11 36.366667,11 h 2.666666 v 1.333333 h -2.666666 c -0.733334,0 -1.333334,0.6 -1.333334,1.333334 v 6 H 33.7 Z"
       style="clip-rule:evenodd;fill:#eff0f1;fill-opacity:1;fill-rule:evenodd;stroke-width:0.333333" />
  </g>
</svg>
