<?xml version="1.0" encoding="UTF-8" standalone="no"?>
<svg
   id="svg50"
   width="32"
   height="32"
   version="1.1"
   sodipodi:docname="audio.svg"
   inkscape:version="1.2.2 (b0a8486541, 2022-12-01)"
   xmlns:inkscape="http://www.inkscape.org/namespaces/inkscape"
   xmlns:sodipodi="http://sodipodi.sourceforge.net/DTD/sodipodi-0.dtd"
   xmlns:xlink="http://www.w3.org/1999/xlink"
   xmlns="http://www.w3.org/2000/svg"
   xmlns:svg="http://www.w3.org/2000/svg"
   xmlns:rdf="http://www.w3.org/1999/02/22-rdf-syntax-ns#"
   xmlns:cc="http://creativecommons.org/ns#"
   xmlns:dc="http://purl.org/dc/elements/1.1/">
  <g
     id="audio-volume-muted"
     transform="translate(96.000003)">
    <path
       style="opacity:0.00100002"
       d="M 0,0 H 31.999997 V 32.000001 H 0 Z"
       id="path45" />
    <path
       id="Silent"
       class="st0"
       d="M 17.678571,28 H 15.964286 L 9.107143,21.142857 V 10.857143 H 7.392857 V 21.142857 H 2.25 v -6 c 0,-2.357143 1.928571,-4.285714 4.285714,-4.285714 L 7.392857,9.142857 H 8.25 L 9.107143,8.371429 9.535714,10.428571 15.964286,4 h 1.714285 z"
       style="fill:#cdd8e5;fill-opacity:0.40392157;stroke-width:0.428571" />
    <path
       id="Silent-s"
       class="st1"
       d="m 23.764286,16.428571 -3.557143,-3.557142 1.2,-1.157143 3.557143,3.514285 3.514285,-3.514285 1.2,1.157143 -3.557142,3.557142 3.557142,3.514286 -1.2,1.2 -3.557142,-3.557143 -3.557143,3.557143 -1.2,-1.2 z m -19.8,3 v -5.142857 c 0,-1.885714 1.542857,-3.428571 3.428571,-3.428571 V 9.142857 C 4.564286,9.142857 2.25,11.457143 2.25,14.285714 v 5.142857 z M 13.478571,4 9.107143,8.371429 v 2.485714 l 5.614286,-5.614286 z"
       style="fill:url(#linearGradient2683);fill-opacity:1;stroke-width:0.428571" />
  </g>
  <metadata
     id="metadata67">
    <rdf:RDF>
      <cc:Work
         rdf:about="">
        <dc:format>image/svg+xml</dc:format>
        <dc:type
           rdf:resource="http://purl.org/dc/dcmitype/StillImage" />
      </cc:Work>
    </rdf:RDF>
  </metadata>
  <defs
     id="defs65">
    <linearGradient
       inkscape:collect="always"
       id="linearGradient1092">
      <stop
         style="stop-color:#eff0f1;stop-opacity:1"
         offset="0"
         id="stop1084" />
      <stop
         style="stop-color:#eff0f1;stop-opacity:1"
         offset="0.44269806"
         id="stop1086" />
      <stop
         style="stop-color:#bf616a;stop-opacity:1"
         offset="0.64684331"
         id="stop1088" />
      <stop
         style="stop-color:#bf616a;stop-opacity:1"
         offset="1"
         id="stop1090" />
    </linearGradient>
    <linearGradient
       inkscape:collect="always"
       id="linearGradient4088">
      <stop
         style="stop-color:#eff0f1;stop-opacity:1"
         offset="0"
         id="stop4080" />
      <stop
         style="stop-color:#eff0f1;stop-opacity:1"
         offset="0.43528166"
         id="stop4082" />
      <stop
         style="stop-color:#eff0f1;stop-opacity:0.60000002"
         offset="0.69697893"
         id="stop4084" />
      <stop
         style="stop-color:#eff0f1;stop-opacity:0.6"
         offset="1"
         id="stop4086" />
    </linearGradient>
    <linearGradient
       inkscape:collect="always"
       id="linearGradient3886">
      <stop
         style="stop-color:#eff0f1;stop-opacity:1"
         offset="0"
         id="stop3878" />
      <stop
         style="stop-color:#eff0f1;stop-opacity:1"
         offset="0.44193447"
         id="stop3880" />
      <stop
         style="stop-color:#eff0f1;stop-opacity:0.30000001"
         offset="0.69981784"
         id="stop3882" />
      <stop
         style="stop-color:#eff0f1;stop-opacity:0.30000001"
         offset="1"
         id="stop3884" />
    </linearGradient>
    <linearGradient
       inkscape:collect="always"
       id="linearGradient2761">
      <stop
         style="stop-color:#eff0f1;stop-opacity:1"
         offset="0"
         id="stop2753" />
      <stop
         style="stop-color:#eff0f1;stop-opacity:1"
         offset="0.44269806"
         id="stop2755" />
      <stop
         style="stop-color:#bf616a;stop-opacity:1"
         offset="0.64684331"
         id="stop2757" />
      <stop
         style="stop-color:#bf616a;stop-opacity:1"
         offset="1"
         id="stop2759" />
    </linearGradient>
    <linearGradient
       inkscape:collect="always"
       xlink:href="#linearGradient3886"
       id="linearGradient3600"
       x1="2.25"
       y1="15.442857"
       x2="29.678572"
       y2="15.442857"
       gradientUnits="userSpaceOnUse" />
    <linearGradient
       inkscape:collect="always"
       xlink:href="#linearGradient2761"
       id="linearGradient2683"
       x1="2.25"
       y1="12.571428"
       x2="29.678572"
       y2="12.571428"
       gradientUnits="userSpaceOnUse" />
    <linearGradient
       inkscape:collect="always"
       xlink:href="#linearGradient4088"
       id="linearGradient2225-5"
       x1="2.25"
       y1="15.442857"
       x2="29.678572"
       y2="15.442857"
       gradientUnits="userSpaceOnUse"
       gradientTransform="matrix(0.65625002,0,0,0.66666667,0.5234374,0.333333)" />
    <linearGradient
       inkscape:collect="always"
       xlink:href="#linearGradient3886"
       id="linearGradient3600-2"
       x1="2.25"
       y1="15.442857"
       x2="29.678572"
       y2="15.442857"
       gradientUnits="userSpaceOnUse"
       gradientTransform="matrix(0.65625,0,0,0.66666667,0.5234375,0.333333)" />
    <linearGradient
       inkscape:collect="always"
       xlink:href="#linearGradient1092"
       id="linearGradient2683-2"
       x1="2.25"
       y1="12.571428"
       x2="29.678572"
       y2="12.571428"
       gradientUnits="userSpaceOnUse"
       gradientTransform="matrix(0.65625002,0,0,0.66666667,0.5234374,0.3333333)" />
    <linearGradient
       inkscape:collect="always"
       xlink:href="#linearGradient4088"
       id="linearGradient2137"
       x1="2.25"
       y1="15.442857"
       x2="29.678572"
       y2="15.442857"
       gradientUnits="userSpaceOnUse" />
  </defs>
  <sodipodi:namedview
     pagecolor="#3a3f47"
     bordercolor="#000000"
     borderopacity="1"
     objecttolerance="10"
     gridtolerance="10"
     guidetolerance="10"
     inkscape:pageopacity="1"
     inkscape:pageshadow="2"
     inkscape:window-width="1920"
     inkscape:window-height="1002"
     id="namedview63"
     showgrid="true"
     inkscape:zoom="4.9062498"
     inkscape:cx="55.13376"
     inkscape:cy="22.318472"
     inkscape:window-x="0"
     inkscape:window-y="0"
     inkscape:window-maximized="1"
     inkscape:current-layer="svg50"
     inkscape:document-rotation="0"
     inkscape:lockguides="true"
     inkscape:showpageshadow="true"
     inkscape:pagecheckerboard="true"
     inkscape:deskcolor="#3a3f47">
    <inkscape:grid
       type="xygrid"
       id="grid902"
       originx="96.000003"
       originy="0" />
  </sodipodi:namedview>
  <g
     id="audio-volume-high">
    <path
       style="opacity:0.00100002"
       d="M 0,0 H 32.000001 V 32.000001 H 0 Z"
       id="path2" />
    <path
       id="Sound"
       class="st0"
       d="M 17.678322,28 H 15.964037 L 9.1068936,21.142857 V 10.857143 H 7.3926079 V 21.142857 H 2.2497508 v -6 c 0,-2.357143 1.928571,-4.285714 4.285714,-4.285714 L 7.3926079,9.142857 H 8.2497508 L 9.1068936,8.371428 9.5354651,10.428571 15.964037,4 h 1.714285 z"
       style="fill:#cdd8e5;fill-opacity:0.40392157;stroke-width:0.428571" />
    <path
       id="Sound-s"
       class="st1"
       d="m 23.249751,25.514286 c 1.457143,-1.114286 2.657143,-2.571429 3.471429,-4.2 0.814285,-1.671429 1.242857,-3.471429 1.242857,-5.314286 0,-1.842857 -0.428572,-3.642857 -1.242857,-5.314286 C 25.906894,9.014286 24.706894,7.6 23.249751,6.485714 l 1.028571,-1.371428 c 1.671429,1.285714 3,2.914285 3.942858,4.8 C 29.206894,11.8 29.678322,13.9 29.678322,16 c 0,2.1 -0.471428,4.2 -1.414285,6.085714 -0.942857,1.885714 -2.271429,3.514286 -3.942857,4.8 z M 22.22118,18.871428 c -0.385715,0.942858 -0.942858,1.8 -1.671429,2.485715 l 1.2,1.2 c 0.857143,-0.857143 1.585714,-1.928572 2.057143,-3.042857 0.471428,-1.157143 0.728571,-2.357143 0.728571,-3.6 0,-1.242858 -0.257143,-2.442858 -0.728571,-3.6 -0.471429,-1.157143 -1.157143,-2.185715 -2.057143,-3.042857 l -1.2,1.2 c 0.728571,0.728571 1.285714,1.585714 1.671429,2.485714 0.385714,0.942857 0.6,1.928571 0.6,2.957143 0,1.028571 -0.214286,2.057142 -0.6,2.957142 z M 3.9640368,19.428571 v -5.142857 c 0,-1.885714 1.542857,-3.428571 3.4285711,-3.428571 V 9.142857 c -2.8285711,0 -5.1428571,2.314286 -5.1428571,5.142857 v 5.142857 z M 13.478322,4 9.1068936,8.371428 v 2.485715 L 14.72118,5.242857 Z"
       style="fill:#eff0f1;fill-opacity:1;stroke-width:0.428571" />
  </g>
  <g
     id="audio-volume-medium"
     transform="translate(32.000001)">
    <path
       style="opacity:0.00100002"
       d="M 0,0 H 32.000001 V 32.000001 H 0 Z"
       id="path31" />
    <path
       id="Sound-3"
       class="st0"
       d="M 17.678571,28 H 15.964286 L 9.1071428,21.142857 V 10.857143 H 7.3928571 V 21.142857 H 2.25 v -6 c 0,-2.357143 1.928571,-4.285714 4.285714,-4.285714 L 7.3928571,9.142857 H 8.25 L 9.1071428,8.3714282 9.5357143,10.428571 15.964286,4 h 1.714285 z"
       style="fill:#cdd8e5;fill-opacity:0.40392157;stroke-width:0.428571" />
    <path
       id="Sound-s-6"
       class="st1"
       d="m 23.25,25.514286 c 1.457143,-1.114286 2.657143,-2.571429 3.471429,-4.2 0.814285,-1.671429 1.242857,-3.471429 1.242857,-5.314286 0,-1.842857 -0.428572,-3.642857 -1.242857,-5.314286 C 25.907143,9.014286 24.707143,7.6 23.25,6.485714 l 1.028571,-1.371428 c 1.671429,1.285714 3,2.914285 3.942858,4.8 C 29.207143,11.8 29.678571,13.9 29.678571,16 c 0,2.1 -0.471428,4.2 -1.414285,6.085714 -0.942857,1.885714 -2.271429,3.514286 -3.942857,4.8 z m -1.028571,-6.642858 c -0.385715,0.942858 -0.942858,1.8 -1.671429,2.485715 l 1.2,1.2 c 0.857143,-0.857143 1.585714,-1.928572 2.057143,-3.042857 0.471428,-1.157143 0.728571,-2.357143 0.728571,-3.6 0,-1.242858 -0.257143,-2.442858 -0.728571,-3.6 C 23.335714,11.157143 22.65,10.128571 21.75,9.271429 l -1.2,1.2 c 0.728571,0.728571 1.285714,1.585714 1.671429,2.485714 0.385714,0.942857 0.6,1.928571 0.6,2.957143 0,1.028571 -0.214286,2.057142 -0.6,2.957142 z M 3.964286,19.428571 v -5.142857 c 0,-1.885714 1.542857,-3.428571 3.4285711,-3.428571 V 9.142857 C 4.564286,9.142857 2.25,11.457143 2.25,14.285714 v 5.142857 z M 13.478571,4 9.1071428,8.3714282 V 10.857143 L 14.721429,5.242857 Z"
       style="fill:url(#linearGradient2137);fill-opacity:1;stroke-width:0.428571" />
  </g>
  <g
     id="audio-volume-low"
     transform="translate(64.000002)">
    <path
       style="opacity:0.00100002"
       d="M 0,0 H 32.000001 V 32.000001 H 0 Z"
       id="path38" />
    <path
       id="Sound-7"
       class="st0"
       d="M 17.678571,28 H 15.964286 L 9.107143,21.142857 V 10.857143 H 7.392857 V 21.142857 H 2.25 v -6 c 0,-2.357143 1.928571,-4.285714 4.285714,-4.285714 L 7.392857,9.142857 H 8.25 L 9.107143,8.371428 9.535714,10.428571 15.964286,4 h 1.714285 z"
       style="fill:#cdd8e5;fill-opacity:0.40392157;stroke-width:0.428571" />
    <path
       id="Sound-s-5"
       class="st1"
       d="m 23.25,25.514286 c 1.457143,-1.114286 2.657143,-2.571429 3.471429,-4.2 0.814285,-1.671429 1.242857,-3.471429 1.242857,-5.314286 0,-1.842857 -0.428572,-3.642857 -1.242857,-5.314286 C 25.907143,9.014286 24.707143,7.6 23.25,6.485714 l 1.028571,-1.371428 c 1.671429,1.285714 3,2.914285 3.942858,4.8 C 29.207143,11.8 29.678571,13.9 29.678571,16 c 0,2.1 -0.471428,4.2 -1.414285,6.085714 -0.942857,1.885714 -2.271429,3.514286 -3.942857,4.8 z m -1.028571,-6.642858 c -0.385715,0.942858 -0.942858,1.8 -1.671429,2.485715 l 1.2,1.2 c 0.857143,-0.857143 1.585714,-1.928572 2.057143,-3.042857 0.471428,-1.157143 0.728571,-2.357143 0.728571,-3.6 0,-1.242858 -0.257143,-2.442858 -0.728571,-3.6 C 23.335714,11.157143 22.65,10.128571 21.75,9.271429 l -1.2,1.2 c 0.728571,0.728571 1.285714,1.585714 1.671429,2.485714 0.385714,0.942857 0.6,1.928571 0.6,2.957143 0,1.028571 -0.214286,2.057142 -0.6,2.957142 z M 3.964286,19.428571 v -5.142857 c 0,-1.885714 1.542857,-3.428571 3.428571,-3.428571 V 9.142857 C 4.564286,9.142857 2.25,11.457143 2.25,14.285714 v 5.142857 z M 13.478571,4 9.107143,8.371428 v 2.485715 l 5.614286,-5.614286 z"
       style="fill:url(#linearGradient3600);fill-opacity:1;stroke-width:0.428571" />
  </g>
  <g
     id="22-22-audio-volume-high"
     transform="translate(0,-22)">
    <path
       style="opacity:0.00100002"
       d="M 0,0 H 22 V 22 H 0 Z"
       id="path7" />
    <path
       id="Sound-36"
       class="st0"
       d="M 12.125,19 H 11 L 6.5000005,14.428571 V 7.571429 H 5.3749996 v 6.857142 H 2 v -4 C 2,8.857143 3.2656248,7.571429 4.8125002,7.571429 L 5.3749996,6.428571 H 5.9375001 L 6.5000005,5.914285 6.7812502,7.285714 11,3 h 1.125 z"
       style="fill:#cdd8e5;fill-opacity:0.40392157;stroke-width:0.283474" />
    <path
       id="Sound-s-7"
       class="st1"
       d="M 15.78125,17.342857 C 16.7375,16.6 17.525001,15.628571 18.059375,14.542857 18.59375,13.428571 18.875,12.228571 18.875,11 18.875,9.771429 18.59375,8.571429 18.059375,7.457143 17.525001,6.342857 16.7375,5.4 15.78125,4.657143 l 0.675,-0.914286 C 17.553126,4.6 18.425,5.685714 19.04375,6.942857 19.690626,8.2 20,9.6 20,11 c 0,1.4 -0.309374,2.8 -0.928125,4.057143 -0.618749,1.257142 -1.490625,2.342857 -2.5875,3.2 z m -0.675,-4.428572 c -0.253124,0.628572 -0.61875,1.2 -1.096875,1.657144 l 0.7875,0.8 c 0.562501,-0.571429 1.040625,-1.285715 1.35,-2.028572 0.309375,-0.771428 0.478125,-1.571428 0.478125,-2.4 0,-0.828572 -0.16875,-1.628572 -0.478125,-2.4 C 15.8375,7.771429 15.3875,7.085714 14.796875,6.514286 l -0.7875,0.8 C 14.4875,7.8 14.853126,8.371429 15.10625,8.971429 15.359376,9.6 15.5,10.257143 15.5,10.942857 c 0,0.685714 -0.140624,1.371428 -0.39375,1.971428 z M 3.1249999,13.285714 V 9.857143 C 3.1249999,8.6 4.1375005,7.571429 5.3749996,7.571429 V 6.428571 C 3.5187499,6.428571 2,7.971429 2,9.857143 v 3.428571 z M 9.3687499,3 6.5000005,5.914285 V 7.571429 L 10.184375,3.828571 Z"
       style="fill:#eff0f1;fill-opacity:1;stroke-width:0.283474" />
  </g>
  <g
     id="22-22-audio-volume-medium"
     transform="translate(32.000001,-22)">
    <path
       style="opacity:0.00100002;fill:#c8b7b7"
       d="M 0,0 H 22 V 22 H 0 Z"
       id="path12" />
    <path
       id="Sound-3-9"
       class="st0"
       d="M 12.125,19 H 11 L 6.5,14.428571 V 7.5714287 H 5.375 V 14.428571 H 2 v -4 C 2,8.8571427 3.2656247,7.5714287 4.8124999,7.5714287 L 5.375,6.4285713 H 5.9375001 L 6.5,5.9142855 6.7812501,7.285714 11,3 h 1.125 z"
       style="fill:#cdd8e5;fill-opacity:0.40392157;stroke-width:0.283473" />
    <path
       id="Sound-s-6-1"
       class="st1"
       d="M 15.78125,17.342857 C 16.7375,16.6 17.525,15.628571 18.059375,14.542857 18.59375,13.428571 18.875,12.228571 18.875,11 18.875,9.7714287 18.59375,8.5714287 18.059375,7.4571427 17.525,6.3428573 16.7375,5.4 15.78125,4.6571427 l 0.675,-0.9142854 C 17.553125,4.6 18.425,5.685714 19.04375,6.9428573 19.690626,8.2 20,9.6 20,11 c 0,1.4 -0.309374,2.8 -0.928125,4.057143 -0.61875,1.257142 -1.490625,2.342857 -2.5875,3.2 z m -0.675,-4.428572 c -0.253125,0.628572 -0.61875,1.2 -1.096875,1.657144 l 0.7875,0.8 c 0.5625,-0.571429 1.040625,-1.285715 1.35,-2.028572 0.309375,-0.771428 0.478125,-1.571428 0.478125,-2.4 0,-0.828572 -0.16875,-1.6285717 -0.478125,-2.3999997 C 15.8375,7.7714287 15.3875,7.085714 14.796875,6.514286 l -0.7875,0.8 C 14.4875,7.8 14.853125,8.3714287 15.10625,8.9714287 15.359375,9.6 15.5,10.257143 15.5,10.942857 c 0,0.685714 -0.140625,1.371428 -0.39375,1.971428 z M 3.1250002,13.285714 V 9.8571427 C 3.1250002,8.6 4.1375002,7.5714287 5.375,7.5714287 V 6.4285713 C 3.5187502,6.4285713 2,7.9714287 2,9.8571427 V 13.285714 Z M 9.3687498,3 6.5,5.9142855 v 1.6571432 l 3.684375,-3.7428574 z"
       style="fill:url(#linearGradient2225-5);fill-opacity:1;stroke-width:0.283473" />
  </g>
  <g
     id="22-22-audio-volume-low"
     transform="translate(64.000002,-22)">
    <path
       style="opacity:0.00100002"
       d="M 0,0 H 22 V 22 H 0 Z"
       id="path19" />
    <path
       id="Sound-7-0"
       class="st0"
       d="M 12.125,19 H 11 L 6.5000002,14.428572 V 7.571429 H 5.3749999 v 6.857143 H 2 v -4 C 2,8.8571427 3.2656248,7.571429 4.8124999,7.571429 l 0.5625,-1.142858 H 5.9375001 L 6.5000002,5.914285 6.7812499,7.285714 11,3 h 1.125 z"
       style="fill:#cdd8e5;fill-opacity:0.40392157;stroke-width:0.283474" />
    <path
       id="Sound-s-5-6"
       class="st1"
       d="M 15.78125,17.342858 C 16.7375,16.6 17.525,15.628572 18.059375,14.542858 18.59375,13.428572 18.875,12.228572 18.875,11 18.875,9.771429 18.59375,8.5714287 18.059375,7.457143 17.525,6.342857 16.7375,5.4 15.78125,4.657143 l 0.675,-0.914286 C 17.553125,4.6 18.425,5.685714 19.04375,6.942857 19.690626,8.2 20,9.5999997 20,11 c 0,1.4 -0.309374,2.8 -0.928125,4.057143 -0.618749,1.257143 -1.490625,2.342857 -2.5875,3.2 z m -0.675,-4.428572 c -0.253125,0.628572 -0.61875,1.2 -1.096875,1.657143 l 0.7875,0.8 c 0.5625,-0.571429 1.040625,-1.285715 1.35,-2.028571 0.309375,-0.771429 0.478125,-1.571429 0.478125,-2.4 0,-0.828572 -0.16875,-1.6285727 -0.478125,-2.4000007 C 15.8375,7.771429 15.3875,7.085714 14.796875,6.514286 l -0.7875,0.8 C 14.4875,7.8 14.853125,8.3714287 15.10625,8.9714287 15.359375,9.5999997 15.5,10.257143 15.5,10.942858 c 0,0.685714 -0.140625,1.371428 -0.39375,1.971428 z M 3.1250002,13.285714 V 9.857143 c 0,-1.257143 1.0125,-2.285714 2.2499997,-2.285714 V 6.428571 C 3.5187501,6.428571 2,7.971429 2,9.857143 v 3.428571 z M 9.3687499,3 6.5000002,5.914285 V 7.571429 L 10.184375,3.828571 Z"
       style="fill:url(#linearGradient3600-2);fill-opacity:1;stroke-width:0.283474" />
  </g>
  <g
     id="22-22-audio-volume-muted"
     transform="translate(96.000003,-22)">
    <path
       style="opacity:0.00100002"
       d="M 0,0 H 21.999997 V 22 H 0 Z"
       id="path26" />
    <path
       id="Silent-9"
       class="st0"
       d="M 12.125,19 H 11 L 6.5000002,14.428571 V 7.5714287 H 5.3749999 V 14.428571 H 2 v -4 C 2,8.8571427 3.2656248,7.5714287 4.8124999,7.5714287 l 0.5625,-1.1428574 H 5.9375001 L 6.5000002,5.914286 6.78125,7.285714 11,3 h 1.125 z"
       style="fill:#cdd8e5;fill-opacity:0.40392157;stroke-width:0.283474" />
    <path
       id="Silent-s-2"
       class="st1"
       d="M 16.11875,11.285714 13.784375,8.914286 14.571875,8.1428573 16.90625,10.485714 19.2125,8.1428573 20,8.914286 17.665625,11.285714 20,13.628571 l -0.7875,0.8 -2.334375,-2.371428 -2.334375,2.371428 -0.7875,-0.8 z m -12.9937498,2 V 9.857143 c 0,-1.257143 1.0125,-2.2857143 2.2499997,-2.2857143 V 6.4285713 C 3.5187501,6.4285713 2,7.9714287 2,9.857143 v 3.428571 z M 9.3687498,3 6.5000002,5.914286 V 7.5714287 L 10.184375,3.8285713 Z"
       style="fill:url(#linearGradient2683-2);fill-opacity:1;stroke-width:0.283474" />
  </g>
</svg>
