<?xml version="1.0" encoding="UTF-8" standalone="no"?>
<svg
   width="32"
   height="32"
   version="1.1"
   id="svg11"
   sodipodi:docname="bookmarks.svg"
   inkscape:version="1.2.2 (b0a8486541, 2022-12-01)"
   xmlns:inkscape="http://www.inkscape.org/namespaces/inkscape"
   xmlns:sodipodi="http://sodipodi.sourceforge.net/DTD/sodipodi-0.dtd"
   xmlns="http://www.w3.org/2000/svg"
   xmlns:svg="http://www.w3.org/2000/svg"
   xmlns:rdf="http://www.w3.org/1999/02/22-rdf-syntax-ns#"
   xmlns:cc="http://creativecommons.org/ns#"
   xmlns:dc="http://purl.org/dc/elements/1.1/">
  <metadata
     id="metadata17">
    <rdf:RDF>
      <cc:Work
         rdf:about="">
        <dc:format>image/svg+xml</dc:format>
        <dc:type
           rdf:resource="http://purl.org/dc/dcmitype/StillImage" />
      </cc:Work>
    </rdf:RDF>
  </metadata>
  <defs
     id="defs15">
    <linearGradient
       id="_lgradient_1"
       x1="0"
       y1="0.5"
       x2="1"
       y2="0.5"
       gradientTransform="matrix(19.206691,0,0,28.000107,6.0550056,2.2700061)"
       gradientUnits="userSpaceOnUse">
      <stop
         offset="0%"
         stop-opacity="1"
         style="stop-color:rgb(242,55,239)"
         id="stop9" />
      <stop
         offset="98.69565217391305%"
         stop-opacity="1"
         style="stop-color:rgb(252,82,82)"
         id="stop11" />
    </linearGradient>
    <linearGradient
       id="_lgradient_1-3"
       x1="0"
       y1="0.5"
       x2="1"
       y2="0.5"
       gradientTransform="matrix(19.206691,0,0,28.000107,6.2711919,2.3832384)"
       gradientUnits="userSpaceOnUse">
      <stop
         offset="0%"
         stop-opacity="1"
         style="stop-color:rgb(242,55,239)"
         id="stop9-6" />
      <stop
         offset="98.69565217391305%"
         stop-opacity="1"
         style="stop-color:rgb(252,82,82)"
         id="stop11-7" />
    </linearGradient>
    <linearGradient
       gradientUnits="userSpaceOnUse"
       gradientTransform="matrix(19.206691,0,0,28.000107,6.2711923,2.3832385)"
       y2="0.5"
       x2="1"
       y1="0.5"
       x1="0"
       id="_lgradient_1-36">
      <stop
         id="stop9-7"
         style="stop-color:#ff005d;stop-opacity:1"
         stop-opacity="1"
         offset="0%" />
      <stop
         id="stop11-5"
         style="stop-color:#ff8b26;stop-opacity:0.98823529"
         stop-opacity="1"
         offset="98.69565217391305%" />
    </linearGradient>
  </defs>
  <sodipodi:namedview
     pagecolor="#3a3f47"
     bordercolor="#000000"
     inkscape:document-rotation="0"
     borderopacity="1"
     objecttolerance="10"
     gridtolerance="10"
     guidetolerance="10"
     inkscape:pageopacity="1"
     inkscape:pageshadow="2"
     inkscape:window-width="1920"
     inkscape:window-height="1002"
     id="namedview13"
     showgrid="true"
     inkscape:zoom="14.720533"
     inkscape:cx="15.6584"
     inkscape:cy="16.473588"
     inkscape:window-x="0"
     inkscape:window-y="0"
     inkscape:window-maximized="1"
     inkscape:current-layer="svg11"
     inkscape:showpageshadow="true"
     inkscape:pagecheckerboard="true"
     inkscape:lockguides="true"
     inkscape:deskcolor="#3a3f47">
    <inkscape:grid
       type="xygrid"
       id="grid844"
       originx="0.028859001"
       originy="0.11598" />
  </sodipodi:namedview>
  <g
     id="bookmarks">
    <rect
       y="-1.683197e-09"
       x="-7.2055817e-10"
       height="32"
       width="32"
       id="rect820"
       style="clip-rule:evenodd;fill:#2020ff;fill-opacity:0;fill-rule:evenodd;stroke-linejoin:round;stroke-miterlimit:1.41421" />
    <path
       id="Bookmark"
       class="st0"
       d="m 19.65625,14.374999 -1.21875,-3.7375 -1.21875,3.7375 h -3.940625 l 3.16875,2.315625 -1.21875,3.7375 3.16875,-2.315625 3.16875,2.315625 -1.21875,-3.7375 3.16875,-2.315625 z M 21.6875,3 H 9.5 c 0.89375,0 1.625,0.73125 1.625,1.625 V 29 l 7.3125,-2.437501 4.103125,1.381251 C 24.125,28.471875 25.75,27.29375 25.75,25.628124 V 7.0625004 C 25.75,4.828125 23.921875,3 21.6875,3 Z"
       style="clip-rule:evenodd;fill:#cdd8e5;fill-opacity:0.40216705;fill-rule:evenodd;stroke-width:0.40625" />
    <path
       id="Bookmark-s"
       class="st1"
       d="m 9.5,4.6262285 c -0.89375,0 -1.625,0.7318028 -1.625,1.6262285 v 4.878684 H 6.25 V 6.252457 C 6.25,4.4636057 7.7125,3 9.5,3 c 0.89375,0 1.625,0.7318028 1.625,1.6262285 V 6.252457 C 11.125,5.3580313 10.39375,4.6262285 9.5,4.6262285 Z M 21.971875,27.312116 19.0875,26.336378 16.528125,27.190149 21.44375,28.816378 C 23.596875,29.54818 25.75,28.003263 25.75,25.767198 v -8.131142 h -1.625 v 8.131142 c 0,1.097704 -1.096875,1.910819 -2.153125,1.544918 z"
       style="fill:#eff0f1;fill-opacity:1;stroke-width:0.406403" />
  </g>
  <g
     id="22-22-bookmarks"
     transform="translate(32,10.134293)">
    <rect
       y="0"
       x="0"
       height="22"
       width="22"
       id="rect820-6"
       style="clip-rule:evenodd;fill:#2020ff;fill-opacity:0;fill-rule:evenodd;stroke-width:0.6875;stroke-linejoin:round;stroke-miterlimit:1.41421" />
    <path
       id="Bookmark-7"
       class="st0"
       d="M 13.25,9.999999 12.5,7.6999989 11.75,9.999999 H 9.325 l 1.95,1.425 -0.75,2.300001 1.95,-1.425001 1.95,1.425001 -0.75,-2.300001 1.95,-1.425 z M 14.5,3 H 7 c 0.55,0 1,0.45 1,1 v 15 l 4.5,-1.500001 2.525,0.85 C 16,18.675001 17,17.95 17,16.924999 V 5.4999999 C 17,4.125 15.875,3 14.5,3 Z"
       style="clip-rule:evenodd;fill:#cdd8e5;fill-opacity:0.40392157;fill-rule:evenodd;stroke-width:0.25" />
    <path
       id="Bookmark-s-5"
       class="st1"
       d="M 7,4 C 6.45,4 6,4.45 6,5 V 7.9999989 H 5 V 5 C 5,3.8999999 5.9,3 7,3 7.55,3 8,3.45 8,4 V 5 C 8,4.45 7.55,4 7,4 Z M 14.675,17.95 12.9,17.349999 11.325,17.875 l 3.025,1 c 1.325,0.45 2.65,-0.5 2.65,-1.875001 v -5 h -1 v 5 c 0,0.675 -0.675,1.175001 -1.325,0.950001 z"
       style="fill:#eff0f1;fill-opacity:1;stroke-width:0.25" />
  </g>
</svg>
