<?xml version="1.0" encoding="UTF-8" standalone="no"?>
<svg
   width="32"
   height="32"
   version="1"
   id="svg1154"
   sodipodi:docname="cadence.svg"
   inkscape:version="1.2.2 (b0a8486541, 2022-12-01)"
   xmlns:inkscape="http://www.inkscape.org/namespaces/inkscape"
   xmlns:sodipodi="http://sodipodi.sourceforge.net/DTD/sodipodi-0.dtd"
   xmlns="http://www.w3.org/2000/svg"
   xmlns:svg="http://www.w3.org/2000/svg">
  <g
     id="22-22-cadence"
     transform="translate(-22,10)">
    <rect
       style="opacity:0.00100002;fill:#d1d5e9;fill-opacity:1"
       width="22"
       height="22"
       x="0"
       y="0"
       id="rect1144" />
    <path
       id="Page_1_-6"
       class="st0  ColorScheme-Highlight "
       d="m 14.499998,6 v 0 l -1,-1 V 5 H 6.5 v 12.999999 h 8.499998 c 1.375,0 2.5,-1.125 2.5,-2.5 V 9 Z M 8.4999987,7.5 Z m 0,2.4999997 z m 0,4.9999993 z m 0,-2.5 z"
       sodipodi:nodetypes="ccccccsscccccccccccccccccccccc"
       style="color:#cdd8e5;fill:#cdd8e5;fill-opacity:0.403922;stroke-width:0.25" />
    <path
       id="Page-s-7"
       class="st1  ColorScheme-Text "
       d="m 15.366665,9 h 2.133334 v 6.999999 c 0,1.65 -1.35,3 -2.999999,3 H 7.4999993 v -1 H 14.5 c 1.099999,0 2,-0.900001 2,-2 V 9.9999997 H 15.366667 Z M 4.5,5 c 0,-1.1 0.9,-2 2,-2 h 5 v 1 h -5 c -0.55,0 -1,0.45 -1,1 v 8.499999 h -1 z"
       style="color:#eff0f1;fill:currentColor;fill-opacity:1;stroke-width:0.25"
       sodipodi:nodetypes="ccssccsscccssccssccs" />
    <path
       style="color:#eff0f1;fill:currentColor;fill-opacity:1;stroke-width:0.333331"
       d="m 11.633429,7.900006 c -0.452478,0.0076 -1.142479,0.112765 -1.321279,0.307619 -0.190682,0.207807 -0.231986,0.4999647 -0.178713,0.823253 0.101567,0.616342 0.952674,1.371984 1.457026,2.051783 -0.0033,0.0034 -0.0073,0.0092 -0.0108,0.0137 -0.25404,0.316134 -0.783865,0.60614 -1.031246,0.851569 0.03988,-0.179621 0.06861,-0.574732 0.07519,-0.699231 0.0061,-0.106644 0.0025,-0.189398 -0.03027,-0.256838 -0.01657,-0.03373 -0.04624,-0.06609 -0.08692,-0.0791 -0.0407,-0.01307 -0.08269,-0.0033 -0.119133,0.01267 -0.0984,0.252472 -0.261133,0.592094 -0.39355,0.909194 -0.1217736,0.202241 -0.2078596,0.564367 -0.2636716,0.693368 -0.028733,0.06642 -0.050173,0.12435 -0.063447,0.174806 -0.012593,0.04753 -0.018693,0.08929 -0.016633,0.127932 0.069558,0.0938 0.1820247,0.08008 0.2734336,0.08594 0.03969,-6.67e-4 0.08113,-0.0075 0.126948,-0.03513 0.107525,-0.06502 0.2392,-0.167842 0.37988,-0.288092 -0.100332,0.332108 -0.117301,0.437999 -0.277344,0.80958 -0.0017,0.0055 -0.0059,0.01049 -0.0079,0.01562 -0.8444527,-0.114954 -1.725074,-0.04205 -2.32128,0.163088 -0.3127267,0.107627 -0.553556,0.347479 -0.647452,0.612309 -0.093899,0.264836 -0.036687,0.601313 0.1992147,1.018572 0.235924,0.417257 0.4961686,0.608518 0.7734306,0.667979 0.27726,0.05942 0.554158,-0.01826 0.8105414,-0.2256 C 9.4482393,15.25982 9.888966,14.342982 10.231906,13.571 c 0.0061,0.0013 0.01196,0.0014 0.01758,0.0017 0.403868,0.05961 0.79128,0.60314 1.129878,0.692391 -0.177305,0.05567 -0.384718,0.113305 -0.497071,0.169922 -0.09619,0.04848 -0.167456,0.09224 -0.209954,0.154302 -0.02127,0.03101 -0.0353,0.07287 -0.02636,0.114255 0.0089,0.04139 0.03815,0.073 0.07128,0.0957 0.06633,0.04538 0.160455,0.07036 0.300781,0.09082 0.140325,0.02041 0.375342,0.03295 0.61328,0.03615 8e-4,1.2e-5 0.0011,-10e-6 0.0016,0 8e-4,-10e-6 0.0011,1.2e-5 0.0016,0 0.237933,-0.0047 0.472948,-0.0156 0.613274,-0.03615 0.140324,-0.02042 0.234456,-0.04543 0.300778,-0.09082 0.03312,-0.0227 0.06236,-0.05429 0.07128,-0.0957 0.009,-0.04139 -0.0053,-0.08322 -0.02635,-0.114255 -0.04253,-0.0621 -0.113767,-0.105825 -0.209958,-0.154302 -0.112351,-0.05663 -0.319768,-0.114253 -0.497068,-0.169922 0.338595,-0.08925 0.726006,-0.632807 1.129872,-0.692391 0.0059,-0.0013 0.01194,-0.0013 0.01757,-0.0017 0.342945,0.771983 0.78367,1.688821 1.272449,2.083997 0.256383,0.207293 0.53328,0.285047 0.810545,0.225601 0.277253,-0.05944 0.537502,-0.250723 0.773429,-0.667979 0.235925,-0.41726 0.29311,-0.753736 0.199215,-1.018572 -0.0939,-0.264834 -0.334721,-0.504685 -0.647452,-0.612312 -0.596207,-0.205194 -1.476833,-0.278042 -2.321275,-0.163088 -0.0018,-0.0055 -0.0059,-0.01049 -0.0078,-0.01562 -0.160039,-0.371581 -0.177008,-0.477474 -0.277339,-0.80958 0.140678,0.120249 0.272354,0.223043 0.379877,0.288089 0.04579,0.02769 0.08728,0.03479 0.126951,0.03513 0.09141,-0.0063 0.203878,0.0079 0.273432,-0.08594 0.0017,-0.03865 -0.0047,-0.0804 -0.01661,-0.127932 -0.01336,-0.05045 -0.03477,-0.108381 -0.06347,-0.174806 -0.05587,-0.128998 -0.141926,-0.491122 -0.2637,-0.693364 -0.132417,-0.317099 -0.295154,-0.656721 -0.393547,-0.909194 -0.03642,-0.01704 -0.07845,-0.02573 -0.119137,-0.01267 -0.04067,0.01305 -0.07037,0.04539 -0.08692,0.0791 -0.03307,0.0674 -0.03591,0.150193 -0.03027,0.256838 0.0066,0.124499 0.03534,0.51961 0.07519,0.69923 -0.247446,-0.245419 -0.777265,-0.535431 -1.031301,-0.851565 -0.0033,-0.0033 -0.0073,-0.0093 -0.01075,-0.01371 0.504342,-0.679799 1.355452,-1.435441 1.457016,-2.051783 0.05333,-0.3232883 0.01199,-0.615445 -0.17869,-0.823253 C 12.774977,8.012755 12.084978,7.907499 11.632503,7.9 Z"
       id="path1151-5-3-5"
       class="ColorScheme-Text" />
  </g>
  <style
     id="current-color-scheme"
     type="text/css">.ColorScheme-Text { color:#eff0f1; }
.ColorScheme-Highlight { color:#cdd8e5; }
</style>
  <sodipodi:namedview
     id="namedview1156"
     pagecolor="#3a3f47"
     bordercolor="#000000"
     borderopacity="1"
     inkscape:showpageshadow="true"
     inkscape:pageopacity="1"
     inkscape:pagecheckerboard="true"
     inkscape:deskcolor="#3a3f47"
     showgrid="true"
     inkscape:zoom="7.375"
     inkscape:cx="-36.949153"
     inkscape:cy="5.4915254"
     inkscape:window-width="1920"
     inkscape:window-height="1002"
     inkscape:window-x="0"
     inkscape:window-y="0"
     inkscape:window-maximized="1"
     inkscape:current-layer="svg1154">
    <inkscape:grid
       type="xygrid"
       id="grid299" />
  </sodipodi:namedview>
  <defs
     id="l4k1">
    <style
       type="text/css"
       id="style200" />
  </defs>
  <g
     id="cadence">
    <rect
       style="opacity:0.00100002;fill:#d1d5e9;fill-opacity:1"
       width="32"
       height="32"
       x="0"
       y="0"
       id="rect1149" />
    <path
       id="path14"
       d="M 0,0 V 32 H 32 V 0 Z"
       style="fill:none" />
    <path
       id="Page_1_"
       class="st0  ColorScheme-Highlight "
       d="m 21.249998,8.5 v 0 l -1.5,-1.5 V 7 H 9.2500005 V 26.5 H 21.999998 c 2.0625,0 3.75,-1.6875 3.75,-3.75 V 13 Z m -8.999999,2.25 z m 0,3.75 z m 0,7.5 z m 0,-3.75 z"
       sodipodi:nodetypes="ccccccsscccccccccccccccccccccc"
       style="color:#cdd8e5;fill:#cdd8e5;fill-opacity:0.403922;stroke-width:0.375" />
    <path
       id="Page-s"
       class="st1  ColorScheme-Text "
       d="M 22.549999,13 H 25.75 v 10.5 c 0,2.475 -2.025,4.5 -4.5,4.5 h -10.5 v -1.5 h 10.499999 c 1.65,0 3,-1.350001 3,-3 v -9 H 22.55 Z M 6.2500005,7 c 0,-1.65 1.35,-3 3,-3 H 16.75 V 5.5 H 9.2500005 c -0.825,0 -1.5,0.675 -1.5,1.5 v 12.75 h -1.5 z"
       style="color:#eff0f1;fill:currentColor;fill-opacity:1;stroke-width:0.375"
       sodipodi:nodetypes="ccssccsscccssccssccs" />
    <path
       style="color:#eff0f1;fill:currentColor;fill-opacity:1;stroke-width:0.499996"
       d="m 16.750144,11.000002 c -0.678716,0.0114 -1.713717,0.169147 -1.981918,0.461428 -0.286023,0.31171 -0.347978,0.749948 -0.268069,1.234879 0.152351,0.924513 1.429011,2.057976 2.185538,3.077676 -0.005,0.0051 -0.0109,0.01381 -0.0162,0.02055 -0.38106,0.474202 -1.175796,0.909211 -1.546868,1.277354 0.05982,-0.269431 0.102921,-0.862098 0.11279,-1.048846 0.0091,-0.159967 0.0038,-0.284098 -0.04541,-0.385258 -0.02486,-0.05059 -0.06936,-0.09913 -0.130382,-0.118646 -0.06105,-0.0196 -0.124038,-0.005 -0.178699,0.01901 -0.147594,0.378709 -0.3917,0.888142 -0.590326,1.363791 -0.18266,0.303362 -0.311789,0.846551 -0.395507,1.040052 -0.0431,0.09963 -0.07526,0.186526 -0.09517,0.262209 -0.01889,0.07129 -0.02804,0.133942 -0.02495,0.191898 0.104337,0.140695 0.273037,0.120117 0.41015,0.128906 0.05953,-0.001 0.1217,-0.0113 0.190423,-0.05269 0.161287,-0.09753 0.3588,-0.251763 0.569819,-0.432138 -0.150498,0.498162 -0.175951,0.656998 -0.416016,1.214369 -0.0026,0.0082 -0.0089,0.01574 -0.0118,0.02343 -1.266679,-0.17243 -2.587611,-0.06307 -3.48192,0.244632 -0.46909,0.161441 -0.830334,0.521219 -0.971178,0.918464 -0.1408491,0.397254 -0.05503,0.901969 0.298822,1.527858 0.353886,0.625886 0.744253,0.912777 1.160146,1.001969 0.41589,0.08913 0.831237,-0.02739 1.215812,-0.338401 0.733177,-0.592765 1.394267,-1.968022 1.908677,-3.125995 0.0091,0.002 0.01794,0.0021 0.02637,0.0026 0.605801,0.08942 1.186918,0.904709 1.694815,1.038586 -0.265957,0.0835 -0.577076,0.169958 -0.745605,0.254883 -0.144285,0.07272 -0.251185,0.138362 -0.314932,0.231453 -0.03191,0.04652 -0.05295,0.1093 -0.03954,0.171383 0.01339,0.06209 0.05723,0.109498 0.106918,0.143555 0.0995,0.06807 0.240683,0.105537 0.451172,0.136236 0.210487,0.03061 0.563012,0.04942 0.91992,0.05423 0.0012,1.8e-5 0.0016,-1.5e-5 0.0024,0 0.0012,-1.5e-5 0.0016,1.8e-5 0.0024,0 0.356899,-0.007 0.709422,-0.0234 0.91991,-0.05423 0.210487,-0.03063 0.351684,-0.06815 0.451168,-0.136236 0.04968,-0.03405 0.09354,-0.08143 0.106928,-0.143555 0.01342,-0.06209 -0.008,-0.124838 -0.03953,-0.171383 -0.06379,-0.09315 -0.170651,-0.158737 -0.314938,-0.231453 -0.168526,-0.08495 -0.479651,-0.171379 -0.7456,-0.254883 0.507891,-0.133878 1.089007,-0.949211 1.694807,-1.038586 0.0089,-0.002 0.01791,-0.002 0.02636,-0.0026 0.514418,1.157975 1.175505,2.533231 1.908674,3.125995 0.384575,0.31094 0.799921,0.427571 1.215818,0.338402 0.41588,-0.08916 0.806253,-0.376084 1.160143,-1.001969 0.353888,-0.625889 0.439666,-1.130604 0.298823,-1.527858 -0.140844,-0.39725 -0.502083,-0.757027 -0.971178,-0.918468 -0.894311,-0.30779 -2.215249,-0.417063 -3.481914,-0.244632 -0.0027,-0.0082 -0.0089,-0.01573 -0.01169,-0.02343 -0.240059,-0.557371 -0.265512,-0.716211 -0.416008,-1.214369 0.211016,0.180373 0.408531,0.334564 0.569815,0.432133 0.06868,0.04153 0.130918,0.05219 0.190426,0.05269 0.137109,-0.0094 0.305817,0.0118 0.410149,-0.128903 0.0025,-0.05797 -0.007,-0.120601 -0.02492,-0.191898 -0.02004,-0.07568 -0.05215,-0.162572 -0.09521,-0.26221 -0.0838,-0.193496 -0.212891,-0.736683 -0.39555,-1.040045 -0.198627,-0.475649 -0.442733,-0.985082 -0.590323,-1.363791 -0.05463,-0.02556 -0.11767,-0.03859 -0.178703,-0.01901 -0.06101,0.01958 -0.105558,0.06809 -0.13038,0.118647 -0.0496,0.101107 -0.05387,0.22529 -0.0454,0.385257 0.0099,0.186749 0.05301,0.779415 0.112791,1.048845 -0.371168,-0.368129 -1.165898,-0.803147 -1.546952,-1.277348 -0.005,-0.005 -0.01099,-0.01391 -0.01612,-0.02056 0.756514,-1.0197 2.033179,-2.153163 2.185524,-3.077676 0.07997,-0.484932 0.01795,-0.923168 -0.268063,-1.234879 C 18.462465,11.169133 17.427467,11.011249 16.748754,11 Z"
       id="path1151-5-3"
       class="ColorScheme-Text" />
  </g>
</svg>
