<?xml version="1.0" encoding="UTF-8" standalone="no"?>
<svg
   width="32"
   height="32"
   version="1.1"
   id="svg12"
   sodipodi:docname="choqok_offline.svg"
   inkscape:version="1.2.2 (b0a8486541, 2022-12-01)"
   xmlns:inkscape="http://www.inkscape.org/namespaces/inkscape"
   xmlns:sodipodi="http://sodipodi.sourceforge.net/DTD/sodipodi-0.dtd"
   xmlns="http://www.w3.org/2000/svg"
   xmlns:svg="http://www.w3.org/2000/svg"
   xmlns:rdf="http://www.w3.org/1999/02/22-rdf-syntax-ns#"
   xmlns:cc="http://creativecommons.org/ns#"
   xmlns:dc="http://purl.org/dc/elements/1.1/">
  <g
     id="22-22-choqok_offline"
     transform="translate(32,10)">
    <rect
       style="opacity:0.00100002"
       width="22"
       height="22"
       x="0"
       y="0"
       id="rect2" />
    <path
       id="Review-3"
       class="st0"
       d="m 6.0218746,10.457143 z m 0,0 z m 0,0 z M 18.875,5.285714 H 2 V 15.571429 H 6.5000002 V 19 C 8.5250003,19 10.296874,17.685714 10.94375,15.742857 L 11,15.571429 h 6.187499 c 1.546875,0 2.812499,-1.285715 2.812499,-2.857143 V 4.142857 h -1.124999 z"
       sodipodi:nodetypes="cccccccccccccccccccccccccccccccccccccccccccccccccccccccssccc"
       style="clip-rule:evenodd;fill:#cdd8e5;fill-opacity:0.40392157;fill-rule:evenodd;stroke-width:0.283473" />
    <path
       id="Review-s-6"
       class="st1"
       d="M 3.1249998,5.285714 C 3.1249998,4.028571 4.1375003,3 5.3749994,3 H 8.7499999 V 4.142857 H 5.3749994 c -0.6187495,0 -1.1249998,0.514286 -1.1249998,1.142857 z M 6.5000002,16.714286 V 15.571429 H 3.1249998 v 1.142857 z M 20,13.285714 v -8 h -1.125 v 8 c 0,1.257143 -1.0125,2.285715 -2.25,2.285715 H 11 l -0.05625,0.171428 c -0.1125,0.342857 -0.253125,0.657143 -0.45,0.971429 H 16.625 c 1.85625,0 3.375,-1.542857 3.375,-3.428572 z"
       style="fill:#bf616a;fill-opacity:1;stroke-width:0.283473" />
    <path
       inkscape:connector-curvature="0"
       style="fill:#eff0f1;fill-opacity:1;fill-rule:evenodd;stroke-width:0.295797"
       id="path4411-1-6-36-7"
       d="m 8.1520413,13.029721 c 2.3277987,2.22666 4.4834077,2.144766 5.5328617,0.874266 1.049447,-1.270493 0.264199,-2.355746 0.264199,-2.355746 z" />
    <path
       inkscape:connector-curvature="0"
       style="color:#000000;fill:#eff0f1;fill-opacity:1;stroke:#eff0f1;stroke-width:0.887385;stroke-linecap:round;stroke-linejoin:round;stroke-opacity:1"
       id="path4170-2-7-5"
       d="m 5.9373049,7.400087 c -0.4991932,0 -0.9584544,0.01673 -1.3288422,0.2963 v 3.7011 c 0.3703878,0.279594 0.829649,0.447047 1.3288422,0.447047 1.2231598,0 2.5192666,-0.55048 2.5192666,-1.77778 0,-1.2273 -1.2961068,-2.666667 -2.5192666,-2.666667 z" />
    <path
       inkscape:connector-curvature="0"
       style="color:#000000;fill:#eff0f1;fill-opacity:1;stroke:#eff0f1;stroke-width:0.887385;stroke-linecap:round;stroke-linejoin:round;stroke-opacity:1"
       id="path4170-8-9-5-3"
       d="m 13.762713,6.5112 c -0.629718,0.77232 -1.031162,1.708207 -0.732903,2.619741 0.417222,1.275113 1.856559,1.434366 3.038187,1.045106 0.124397,-0.041 0.241017,-0.09463 0.352402,-0.155673 V 6.5112 Z" />
    <ellipse
       cx="6.5279045"
       cy="9.6223106"
       style="color:#000000;fill:#1f252f;fill-opacity:1;stroke-width:0.887385;stroke-linecap:round;stroke-linejoin:round"
       id="path4267-1-3-5"
       rx="1.0335443"
       ry="1.037037" />
    <ellipse
       cx="14.205654"
       cy="8.4371109"
       style="color:#000000;fill:#1f252f;fill-opacity:1;stroke-width:0.887385;stroke-linecap:round;stroke-linejoin:round"
       id="path4267-9-2-5-6"
       rx="1.0335443"
       ry="1.037037" />
    <path
       inkscape:connector-curvature="0"
       style="fill:#1f252f;fill-opacity:1;fill-rule:evenodd;stroke-width:0.295797"
       id="path4411-7-6-2"
       d="m 8.447342,13.031694 c 1.768882,1.82876 4.099546,1.736433 4.897018,0.692967 0.797471,-1.043454 0.200769,-1.93478 0.200769,-1.93478 z" />
    <path
       inkscape:connector-curvature="0"
       style="fill:#bf616a;fill-opacity:1;fill-rule:evenodd;stroke-width:0.295797"
       id="path4284-9-2-9"
       d="m 8.1520413,13.029721 c 0,0 0.4227772,-1.27968 2.6372667,-1.8568 2.214497,-0.577107 3.268049,0.37532 3.268049,0.37532 0.29489,0.861666 -2.558427,2.200486 -2.558427,2.200486 0,0 -3.1593023,0.170627 -3.3468887,-0.719006 z" />
  </g>
  <metadata
     id="metadata18">
    <rdf:RDF>
      <cc:Work
         rdf:about="">
        <dc:format>image/svg+xml</dc:format>
        <dc:type
           rdf:resource="http://purl.org/dc/dcmitype/StillImage" />
      </cc:Work>
    </rdf:RDF>
  </metadata>
  <defs
     id="defs16" />
  <sodipodi:namedview
     pagecolor="#3a3f47"
     bordercolor="#000000"
     borderopacity="1"
     objecttolerance="10"
     gridtolerance="10"
     guidetolerance="10"
     inkscape:pageopacity="1"
     inkscape:pageshadow="2"
     inkscape:window-width="1920"
     inkscape:window-height="1002"
     id="namedview14"
     showgrid="true"
     inkscape:zoom="6.9384853"
     inkscape:cx="13.475564"
     inkscape:cy="24.71721"
     inkscape:window-x="0"
     inkscape:window-y="0"
     inkscape:window-maximized="1"
     inkscape:current-layer="svg12"
     inkscape:document-rotation="0"
     inkscape:lockguides="false"
     inkscape:showpageshadow="true"
     inkscape:pagecheckerboard="true"
     inkscape:deskcolor="#3a3f47">
    <inkscape:grid
       type="xygrid"
       id="grid941"
       originx="0"
       originy="0" />
  </sodipodi:namedview>
  <g
     id="choqok_offline">
    <rect
       style="opacity:0.00100002"
       width="32"
       height="32"
       x="0"
       y="0"
       id="rect7" />
    <path
       id="Review"
       class="st0"
       d="m 8.428571,15.185714 z m 0,0 z m 0,0 z M 28.014287,7.428571 H 2.3 V 22.857143 H 9.157143 V 28 c 3.085714,0 5.785713,-1.971429 6.771428,-4.885714 l 0.08571,-0.257143 h 9.428572 c 2.357144,0 4.285714,-1.928572 4.285714,-4.285714 V 5.714286 h -1.714285 z"
       sodipodi:nodetypes="cccccccccccccccccccccccccccccccccccccccccccccccccccccccssccc"
       style="clip-rule:evenodd;fill:#cdd8e5;fill-opacity:0.40392157;fill-rule:evenodd;stroke-width:0.428571" />
    <path
       id="Review-s"
       class="st1"
       d="M 4.014286,7.428571 C 4.014286,5.542857 5.557143,4 7.442857,4 h 5.142857 V 5.714286 H 7.442857 C 6.5,5.714286 5.728571,6.485714 5.728571,7.428571 Z M 9.157143,24.571429 V 22.857143 H 4.014286 v 1.714286 z m 20.571428,-5.142858 v -12 h -1.714285 v 12 c 0,1.885715 -1.542858,3.428572 -3.428572,3.428572 h -8.571428 l -0.08571,0.257143 C 15.757144,23.628571 15.542857,24.1 15.242858,24.571429 h 9.342856 c 2.828573,0 5.142857,-2.314286 5.142857,-5.142858 z"
       style="fill:#bf616a;fill-opacity:1;stroke-width:0.428571" />
    <path
       inkscape:connector-curvature="0"
       style="fill:#eff0f1;fill-opacity:1;fill-rule:evenodd;stroke-width:0.447202"
       id="path4411-1-6-36"
       d="m 11.674539,19.044581 c 3.547123,3.33999 6.83186,3.21715 8.431027,1.3114 1.599158,-1.90574 0.40259,-3.53362 0.40259,-3.53362 z" />
    <path
       inkscape:connector-curvature="0"
       style="color:#000000;fill:#eff0f1;fill-opacity:1;stroke:#eff0f1;stroke-width:1.3416;stroke-linecap:round;stroke-linejoin:round;stroke-opacity:1"
       id="path4170-2-7"
       d="m 8.299703,10.60013 c -0.760675,0 -1.460502,0.0251 -2.024903,0.44445 v 5.551651 c 0.564401,0.41939 1.264228,0.67057 2.024903,0.67057 1.863863,0 3.838881,-0.82572 3.838881,-2.66667 0,-1.84095 -1.975018,-4.000001 -3.838881,-4.000001 z" />
    <path
       inkscape:connector-curvature="0"
       style="color:#000000;fill:#eff0f1;fill-opacity:1;stroke:#eff0f1;stroke-width:1.3416;stroke-linecap:round;stroke-linejoin:round;stroke-opacity:1"
       id="path4170-8-9-5"
       d="m 20.224134,9.2668 c -0.959569,1.15848 -1.571294,2.562311 -1.116804,3.929611 0.635767,1.91267 2.829042,2.15155 4.629618,1.56766 0.189558,-0.0615 0.367265,-0.14194 0.536994,-0.23351 V 9.2668 Z" />
    <ellipse
       cx="9.1996641"
       cy="13.933465"
       style="color:#000000;fill:#1f252f;fill-opacity:1;stroke-width:1.3416;stroke-linecap:round;stroke-linejoin:round"
       id="path4267-1-3"
       rx="1.5749246"
       ry="1.5555556" />
    <ellipse
       cx="20.899092"
       cy="12.155663"
       style="color:#000000;fill:#1f252f;fill-opacity:1;stroke-width:1.3416;stroke-linecap:round;stroke-linejoin:round"
       id="path4267-9-2-5"
       rx="1.5749246"
       ry="1.5555556" />
    <path
       inkscape:connector-curvature="0"
       style="fill:#1f252f;fill-opacity:1;fill-rule:evenodd;stroke-width:0.447202"
       id="path4411-7-6"
       d="m 12.124521,19.047541 c 2.69544,2.74314 6.246928,2.60465 7.462123,1.03945 1.215195,-1.56518 0.305932,-2.90217 0.305932,-2.90217 z" />
    <path
       inkscape:connector-curvature="0"
       style="fill:#bf616a;fill-opacity:1;fill-rule:evenodd;stroke-width:0.447202"
       id="path4284-9-2"
       d="m 11.674539,19.044581 c 0,0 0.644233,-1.91952 4.018693,-2.7852 3.374471,-0.86566 4.979883,0.56298 4.979883,0.56298 0.449357,1.2925 -3.898555,3.30073 -3.898555,3.30073 0,0 -4.814176,0.25594 -5.100021,-1.07851 z" />
  </g>
</svg>
