<?xml version="1.0" encoding="UTF-8" standalone="no"?>
<svg
   id="svg2"
   width="32"
   height="32"
   version="1.0"
   inkscape:version="1.2.2 (b0a8486541, 2022-12-01)"
   sodipodi:docname="computer.svg"
   xmlns:inkscape="http://www.inkscape.org/namespaces/inkscape"
   xmlns:sodipodi="http://sodipodi.sourceforge.net/DTD/sodipodi-0.dtd"
   xmlns="http://www.w3.org/2000/svg"
   xmlns:svg="http://www.w3.org/2000/svg"
   xmlns:rdf="http://www.w3.org/1999/02/22-rdf-syntax-ns#"
   xmlns:cc="http://creativecommons.org/ns#"
   xmlns:dc="http://purl.org/dc/elements/1.1/">
  <sodipodi:namedview
     pagecolor="#3a3f47"
     bordercolor="#000000"
     borderopacity="1"
     objecttolerance="10"
     gridtolerance="10"
     guidetolerance="10"
     inkscape:pageopacity="1"
     inkscape:pageshadow="2"
     inkscape:window-width="1920"
     inkscape:window-height="1002"
     id="namedview24"
     showgrid="true"
     inkscape:zoom="8"
     inkscape:cx="19.4375"
     inkscape:cy="9.0625"
     inkscape:window-x="0"
     inkscape:window-y="0"
     inkscape:window-maximized="1"
     inkscape:current-layer="svg2"
     inkscape:document-rotation="0"
     inkscape:pagecheckerboard="true"
     inkscape:lockguides="true"
     inkscape:showpageshadow="true"
     inkscape:deskcolor="#3a3f47"
     shape-rendering="crispEdges">
    <inkscape:grid
       type="xygrid"
       id="grid862"
       originx="0"
       originy="-1e-06" />
  </sodipodi:namedview>
  <metadata
     id="metadata7">
    <rdf:RDF>
      <cc:Work
         rdf:about="">
        <dc:format>image/svg+xml</dc:format>
        <dc:type
           rdf:resource="http://purl.org/dc/dcmitype/StillImage" />
      </cc:Work>
    </rdf:RDF>
  </metadata>
  <defs
     id="defs5">
    <style
       id="current-color-scheme"
       type="text/css" />
  </defs>
  <g
     style="fill:none;stroke:#ffffff"
     id="g4171"
     transform="translate(-102.11178,-18.990759)">
    <g
       transform="translate(-38.38147,-1006.1003)"
       style="stroke-width:0.5"
       id="g4173" />
    <g
       transform="translate(-39.59798,-1004.3622)"
       style="stroke-width:0.4"
       id="g4175" />
  </g>
  <g
     id="computer">
    <rect
       y="0"
       x="0"
       height="32"
       width="32"
       id="rect4171"
       style="opacity:0.00100002;fill:#000000;fill-opacity:1;stroke:none;stroke-width:4;stroke-linecap:round;stroke-linejoin:round;stroke-miterlimit:4;stroke-dasharray:none;stroke-opacity:1" />
    <path
       id="Computer"
       class="st0"
       d="m 29.057143,3 h 1.857143 v 16.714286 c 0,2.042856 -1.671429,3.714284 -3.714286,3.714284 H 1.2 V 19.714286 H 29.057143 Z M 22.557142,29 18.842857,27.142857 H 10.485714 V 29 Z"
       style="fill:#cdd8e5;fill-opacity:0.40392157;stroke-width:0.464286" />
    <path
       id="Computer-s"
       class="st1"
       d="M 3.057143,19.714286 H 1.2 V 6.7142859 C 1.2,4.671429 2.871429,3 4.914286,3 h 26 v 1.857143 h -26 c -1.021429,0 -1.857143,0.8357139 -1.857143,1.8571429 z m 26,0 c 0,2.042856 -1.671429,3.714284 -3.714287,3.714284 h -9.285713 v 1.857143 C 16.057143,27.328571 17.728571,29 19.771429,29 h 2.785713 v -1.857143 h -2.785713 c -1.021429,0 -1.857143,-0.835714 -1.857143,-1.857144 h 7.42857 c 3.064287,0 5.57143,-2.507143 5.57143,-5.571427 z"
       style="fill:#eff0f1;fill-opacity:1;stroke-width:0.464286" />
  </g>
  <g
     id="computer-laptop"
     transform="translate(32.000008)">
    <rect
       style="opacity:0.00100002;fill:#000000;fill-opacity:1;stroke:none;stroke-width:4;stroke-linecap:round;stroke-linejoin:round;stroke-miterlimit:4;stroke-dasharray:none;stroke-opacity:1"
       id="rect4228"
       width="32"
       height="32"
       x="0"
       y="0" />
    <path
       id="Computer-7"
       class="st0"
       d="m 29.057143,3 h 1.857143 v 16.714286 c 0,2.042856 -1.671429,3.714284 -3.714286,3.714284 H 1.2 V 19.714286 H 29.057143 Z M 22.557142,29 18.842857,27.142857 H 10.485714 V 29 Z"
       style="fill:#cdd8e5;fill-opacity:0.40392157;stroke-width:0.464286" />
    <path
       id="Computer-s-5"
       class="st1"
       d="M 3.057143,19.714286 H 1.2 v -13 C 1.2,4.671429 2.871429,3 4.914286,3 h 26 v 1.857143 h -26 c -1.021429,0 -1.857143,0.835714 -1.857143,1.857143 z m 26,0 c 0,2.042856 -1.671429,3.714284 -3.714287,3.714284 h -9.285713 v 1.857143 C 16.057143,27.328571 17.728571,29 19.771429,29 h 2.785713 v -1.857143 h -2.785713 c -1.021429,0 -1.857143,-0.835714 -1.857143,-1.857144 h 7.42857 c 3.064287,0 5.57143,-2.507143 5.57143,-5.571427 z"
       style="fill:#eff0f1;fill-opacity:1;stroke-width:0.464286" />
  </g>
  <g
     id="22-22-computer"
     transform="translate(0,-23)">
    <g
       id="g862">
      <rect
         style="opacity:0.00100002;stroke-width:0.981428"
         width="21.133608"
         height="22.059"
         x="0.41169441"
         y="1.0092004e-09"
         id="rect7" />
      <path
         id="Computer-2"
         class="st0"
         d="M 20.584688,1.0000055 H 21.957 V 13.85722 c 0,1.571438 -1.235082,2.857157 -2.744625,2.857157 H 0 V 13.85722 H 20.584688 Z M 15.781593,21.000116 13.036968,19.571537 H 6.8615613 v 1.428579 z"
         style="fill:#cdd8e5;fill-opacity:0.40392157;stroke-width:0.350041" />
      <path
         id="Computer-s-9"
         class="st1"
         d="M 1.3723128,13.85722 H 0 V 3.857164 C 0,2.2857278 1.2350818,1.0000055 2.744625,1.0000055 H 21.957 v 1.42858 H 2.744625 c -0.7547726,0 -1.3723122,0.6428591 -1.3723122,1.4285785 z m 19.2123752,0 c 0,1.571438 -1.235082,2.857157 -2.744626,2.857157 H 10.9785 v 1.42858 c 0,1.571437 1.23508,2.857159 2.744625,2.857159 h 2.058468 v -1.428579 h -2.058468 c -0.754776,0 -1.372313,-0.64286 -1.372313,-1.42858 h 5.48925 c 2.264312,0 4.116938,-1.928582 4.116938,-4.285737 z"
         style="fill:#eff0f1;fill-opacity:1;stroke-width:0.350041" />
    </g>
  </g>
  <g
     id="22-22-computer-laptop"
     transform="translate(32,-22.941123)">
    <rect
       style="opacity:0.00100002"
       width="22"
       height="22"
       x="0"
       y="-4.6325684e-07"
       id="rect2" />
    <path
       id="Computer-0"
       class="st0"
       d="M 20.584688,1 H 21.957 v 12.857143 c 0,1.571428 -1.235082,2.857142 -2.744625,2.857142 H 0 V 13.857143 H 20.584688 Z M 15.781593,21 13.036968,19.571428 H 6.861562 V 21 Z"
       style="fill:#cdd8e5;fill-opacity:0.40392157;stroke-width:0.35004" />
    <path
       id="Computer-s-93"
       class="st1"
       d="M 1.372313,13.857143 H 0 v -10 C 0,2.2857146 1.235082,1 2.744625,1 H 21.957 V 2.4285715 H 2.744625 c -0.754772,0 -1.372312,0.6428569 -1.372312,1.4285715 z m 19.212375,0 c 0,1.571428 -1.235082,2.857142 -2.744626,2.857142 H 10.9785 v 1.428571 C 10.9785,19.714285 12.21358,21 13.723126,21 h 2.058467 v -1.428572 h -2.058467 c -0.754773,0 -1.372313,-0.642856 -1.372313,-1.428572 h 5.489249 c 2.264316,0 4.116938,-1.928571 4.116938,-4.285713 z"
       style="fill:#eff0f1;fill-opacity:1;stroke-width:0.35004" />
  </g>
</svg>
