<?xml version="1.0" encoding="UTF-8" standalone="no"?>
<svg
   id="svg2"
   width="22"
   height="22"
   version="1.1"
   sodipodi:docname="configure.svg"
   inkscape:version="1.2.2 (b0a8486541, 2022-12-01)"
   xmlns:inkscape="http://www.inkscape.org/namespaces/inkscape"
   xmlns:sodipodi="http://sodipodi.sourceforge.net/DTD/sodipodi-0.dtd"
   xmlns="http://www.w3.org/2000/svg"
   xmlns:svg="http://www.w3.org/2000/svg"
   xmlns:rdf="http://www.w3.org/1999/02/22-rdf-syntax-ns#"
   xmlns:cc="http://creativecommons.org/ns#"
   xmlns:dc="http://purl.org/dc/elements/1.1/">
  <metadata
     id="metadata13">
    <rdf:RDF>
      <cc:Work
         rdf:about="">
        <dc:format>image/svg+xml</dc:format>
        <dc:type
           rdf:resource="http://purl.org/dc/dcmitype/StillImage" />
      </cc:Work>
    </rdf:RDF>
  </metadata>
  <defs
     id="defs11" />
  <sodipodi:namedview
     pagecolor="#3a3f47"
     bordercolor="#000000"
     borderopacity="1"
     objecttolerance="10"
     gridtolerance="10"
     guidetolerance="10"
     inkscape:pageopacity="1"
     inkscape:pageshadow="2"
     inkscape:window-width="1920"
     inkscape:window-height="1002"
     id="namedview9"
     showgrid="true"
     inkscape:zoom="10.092342"
     inkscape:cx="-11.246151"
     inkscape:cy="11.741576"
     inkscape:window-x="0"
     inkscape:window-y="0"
     inkscape:window-maximized="1"
     inkscape:current-layer="svg2"
     inkscape:document-rotation="0"
     inkscape:pagecheckerboard="true"
     inkscape:lockguides="false"
     showguides="false"
     inkscape:showpageshadow="true"
     inkscape:deskcolor="#3a3f47">
    <inkscape:grid
       type="xygrid"
       id="grid855"
       originx="0"
       originy="0" />
  </sodipodi:namedview>
  <g
     id="configure">
    <rect
       id="rect856"
       style="opacity:0.00100002"
       width="22"
       height="22"
       x="0"
       y="0" />
    <path
       id="Adjust"
       class="st0"
       d="m 10.993,17 v -1 h 1.770496 c -0.03712,-1 1.124125,-1.971429 2.163942,-1.971429 1.236537,0 2.248249,1.028572 2.248249,2.285715 0,1.257143 -1.011712,2.285714 -2.248249,2.285714 -1.039817,0 -1.939116,-0.6 -2.163942,-1.6 z M 10.515247,5 c -0.09136,1 1.124125,1.971 2.163941,1.971 C 13.915725,6.971 14.927,6.1428571 14.927,4.8857143 14.927,3.6285714 14.015537,2.6 12.779,2.6 11.739184,2.6 11.069,3 10.6,4 H 8.7447501 v 1 z m -1.2084344,5.6 c 0,-1.257143 -1.0117125,-2.2857143 -2.2482501,-2.2857143 -1.0398157,0 -1.9391152,0.7142853 -2.1639406,1.7142853 H 3.1241249 V 11 h 1.770497 C 5,12 6.0187468,12.885714 7.0585625,12.885714 c 1.2365376,0 2.2482501,-1.028571 2.2482501,-2.285714 z"
       style="fill:#cdd8e5;fill-opacity:0.40392157;stroke-width:0.283363"
       sodipodi:nodetypes="cccssscccsssccccssccccss" />
    <path
       id="Adjust-s"
       class="st1"
       d="m 19.062,6 c 0,-0.6285714 -0.405731,-1 -1.024,-1 H 14.843129 C 14.899339,4.8285714 14.910483,4.6188905 14.9,4.486 14.886729,4.3177712 14.898782,4.169924 14.8,4 h 2.93775 C 18.974288,4 19.986,4.7428571 19.986,6 Z M 9.2225031,11 H 19.986 V 10.028571 H 9.2225031 C 9.2787101,10.2 9.3068121,10.4 9.3068121,10.6 c 0,0.2 -0.028103,0.228571 -0.084309,0.4 z M 19.986,16 h -2.895 c 0.05621,0.171429 0.08468,0.214 0.08468,0.414 0,0.2 -0.02809,0.300286 -0.0843,0.471714 H 19.986 Z M 2,17 h 9.555063 V 16 H 2 Z M 2,5 H 9.3068126 V 4 H 2 Z m 0,6 H 3.6861878 V 10.028571 H 2 Z m 12.927438,6.657 C 14.309169,17.657 13.703,16.942857 13.703,16.314286 V 16 h -1.023812 v 0.314286 c 0,1.257143 1.011712,2.285714 2.24825,2.285714 z M 7.0585625,11.742857 C 6.4402941,11.742857 5.9344376,11.228571 5.9344376,10.6 V 10.028571 H 4.8103127 V 10.6 c 0,1.257143 1.0117121,2.285714 2.2482498,2.285714 z M 11.355,4 H 10.5 v 1 c 0,1.0004804 0.94265,1.971 2.179188,1.971 V 6.229 C 12.060919,6.229 11.355,5.6970145 11.355,5 Z"
       style="fill:#eff0f1;fill-opacity:1;stroke-width:0.283363"
       sodipodi:nodetypes="cscscsccccccscccscccccccccccccccccccsccscccsccsccccsccsc" />
  </g>
  <g
     id="22-22-configure"
     transform="translate(-16,6)">
    <rect
       id="rect817"
       style="opacity:0.00100002"
       width="16"
       height="16"
       x="0"
       y="0" />
    <path
       id="Adjust-8"
       class="st0"
       d="M 7.9947525,12.45 V 11.7 H 9.322625 c -0.02784,-0.75 0.843095,-1.478572 1.622957,-1.478572 0.927403,0 1.686188,0.771429 1.686188,1.714286 0,0.942858 -0.758785,1.714286 -1.686188,1.714286 -0.779862,0 -1.4543374,-0.45 -1.622957,-1.2 z M 7.6364377,3.75 c 0.189696,0.75 0.843094,1.328572 1.6229563,1.328572 0.927404,0 1.686188,-0.771429 1.686188,-1.714286 C 10.945582,2.421428 10.186798,1.65 9.259394,1.65 8.4795317,1.65 7.8048704,2.25 7.6362524,3 h -1.327688 v 0.75 z m -0.9063259,3.9 c 0,-0.942857 -0.7587848,-1.714286 -1.6861878,-1.714286 -0.779863,0 -1.454338,0.535714 -1.622957,1.285714 H 2.093094 V 7.95 h 1.327873 c 0.189696,0.75 0.843094,1.414286 1.622957,1.414286 0.927403,0 1.6861878,-0.771429 1.6861878,-1.714286 z"
       style="fill:#cdd8e5;fill-opacity:0.40392157;stroke-width:0.212522"
       sodipodi:nodetypes="cccssscccsssccccssccccss" />
    <path
       id="Adjust-s-7"
       class="st1"
       d="m 13.896411,4.5 c 0,-0.471428 -0.379392,-0.75 -0.843094,-0.75 H 10.88235 c 0.04216,-0.128572 0.06322,-0.235714 0.06322,-0.385714 0,-0.15 -0.02107,-0.235714 -0.06322,-0.364286 h 2.170967 c 0.927404,0 1.686188,0.557143 1.686188,1.5 z M 6.6668793,7.95 H 14.739505 V 7.221428 H 6.6668793 C 6.7090343,7.35 6.7301113,7.5 6.7301113,7.65 c 0,0.15 -0.021075,0.171428 -0.063232,0.3 z m 8.0726257,3.75 h -2.171251 c 0.04216,0.128572 0.06351,0.1605 0.06351,0.3105 0,0.15 -0.02107,0.225214 -0.06323,0.353785 H 14.7395 Z M 1.25,12.45 H 8.4163 V 11.7 H 1.25 Z m 0,-8.7 H 6.7301118 V 3 H 1.25 Z m 0,4.2 H 2.514641 V 7.221428 H 1.25 Z m 9.695582,4.842857 c -0.463701,0 -0.843093,-0.385714 -0.843093,-0.857143 V 11.7 H 9.259394 v 0.235714 c 0,0.942858 0.758785,1.714286 1.686188,1.714286 z M 5.043924,8.507143 C 4.580222,8.507143 4.200829,8.121428 4.200829,7.65 V 7.221428 H 3.357736 V 7.65 c 0,0.942857 0.758784,1.714286 1.686188,1.714286 z M 8.4162999,3 H 7.5732523 l -4.65e-5,0.364286 c -1.2e-4,0.942857 0.7587843,1.714286 1.6861882,1.714286 V 4.221428 C 8.7956921,4.221428 8.4163,3.835715 8.4163,3.364286 Z"
       style="fill:#eff0f1;fill-opacity:1;stroke-width:0.212522"
       sodipodi:nodetypes="cscscsccccccscccscccccccccccccccccccsccscccsccsccccsccsc" />
  </g>
</svg>
