<?xml version="1.0" encoding="UTF-8" standalone="no"?>
<svg
   width="32"
   height="32"
   version="1"
   id="svg902"
   sodipodi:docname="corectrl.svg"
   inkscape:version="1.2.2 (b0a8486541, 2022-12-01)"
   xmlns:inkscape="http://www.inkscape.org/namespaces/inkscape"
   xmlns:sodipodi="http://sodipodi.sourceforge.net/DTD/sodipodi-0.dtd"
   xmlns="http://www.w3.org/2000/svg"
   xmlns:svg="http://www.w3.org/2000/svg">
  <sodipodi:namedview
     id="namedview904"
     pagecolor="#3a3f47"
     bordercolor="#000000"
     borderopacity="1"
     inkscape:showpageshadow="true"
     inkscape:pageopacity="1"
     inkscape:pagecheckerboard="true"
     inkscape:deskcolor="#3a3f47"
     showgrid="true"
     inkscape:zoom="16.000001"
     inkscape:cx="33.156248"
     inkscape:cy="19.374999"
     inkscape:window-width="1920"
     inkscape:window-height="994"
     inkscape:window-x="0"
     inkscape:window-y="0"
     inkscape:window-maximized="1"
     inkscape:current-layer="svg902">
    <inkscape:grid
       type="xygrid"
       id="grid2771"
       originx="32"
       originy="10" />
  </sodipodi:namedview>
  <defs
     id="l4k1">
    <style
       id="current-color-scheme"
       type="text/css">
   .ColorScheme-Background {color:#181818; } .ColorScheme-ButtonBackground { color:#343434; } .ColorScheme-Highlight { color:#4285f4; } .ColorScheme-Text { color:#dfdfdf; } .ColorScheme-ViewBackground { color:#242424; } .ColorScheme-NegativeText { color:#f44336; } .ColorScheme-PositiveText { color:#4caf50; } .ColorScheme-NeutralText { color:#ff9800; }
  </style>
  </defs>
  <g
     id="corectrl">
    <rect
       style="opacity:0.00100002"
       width="32"
       height="32"
       x="0"
       y="0"
       id="rect897" />
    <path
       id="Page_1_"
       class="st0  ColorScheme-Highlight "
       d="m 21.249998,8.5000003 v 0 l -1.5,-1.5 v 0 H 9.25 V 26.5 h 12.749998 c 2.0625,0 3.75,-1.6875 3.75,-3.75 V 13 Z M 12.249999,10.75 Z m 0,3.75 z m 0,7.5 z m 0,-3.75 z"
       sodipodi:nodetypes="ccccccsscccccccccccccccccccccc"
       style="color:#cdd8e5;fill:#cdd8e5;fill-opacity:0.403922;stroke-width:0.375" />
    <path
       id="Page-s"
       class="st1  ColorScheme-Text "
       d="m 24.249999,13 h 1.499999 v 10.5 c 0,2.475 -2.024999,4.5 -4.5,4.5 H 10.749999 v -1.5 h 10.499999 c 1.65,0 3,-1.350001 3,-3 v -9 h 10e-7 z M 6.25,7.0000003 C 6.25,5.35 7.6,4 9.25,4 h 7.499998 V 5.5 H 9.25 c -0.825,0 -1.5,0.6750003 -1.5,1.5000003 V 19.75 h -1.5 z"
       style="color:#eff0f1;fill:currentColor;fill-opacity:1;stroke-width:0.375"
       sodipodi:nodetypes="ccssccsscccssccssccs" />
    <path
       d="m 19.77083,14.392251 c 0,-0.216286 -0.176963,-0.393251 -0.393247,-0.393251 h -5.046836 c -0.216284,0 -0.393247,0.176965 -0.393247,0.393251 v 5.046832 c 0,0.216286 0.176963,0.393251 0.393247,0.393251 h 5.046836 c 0.216284,0 0.393247,-0.176965 0.393247,-0.393251 z M 19.1875,19.258333 H 14.520833 L 19.188,19.258 l -5e-4,-4.666333 z"
       id="path659-1-0"
       style="fill:#eff0f1;fill-opacity:1;stroke-width:0.029962"
       sodipodi:nodetypes="sssssssssccccc" />
    <path
       d="m 23.356994,15.78386 c 0.193237,0 0.351339,-0.158091 0.351339,-0.351316 0,-0.193225 -0.158102,-0.351316 -0.351339,-0.351316 h -1.730381 v -0.790455 h 0.852003 c 0.193245,0 0.351346,-0.158091 0.351346,-0.351317 0,-0.193225 -0.158101,-0.351316 -0.351346,-0.351316 h -0.863728 c -0.0322,-0.790455 -0.661704,-1.419906 -1.452224,-1.452107 v -0.863662 c 0,-0.193225 -0.158102,-0.351316 -0.351346,-0.351316 -0.193239,0 -0.351341,0.158091 -0.351341,0.351316 v 0.851938 H 18.669458 V 10.101316 C 18.669458,9.908091 18.511356,9.75 18.318116,9.75 c -0.193243,0 -0.351345,0.158091 -0.351345,0.351316 v 2.022993 h -0.761259 v -0.851938 c 0,-0.193225 -0.158106,-0.351316 -0.351345,-0.351316 -0.193239,0 -0.351346,0.158091 -0.351346,0.351316 v 0.851938 h -0.761258 v -2.022993 c 0,-0.193225 -0.158102,-0.351316 -0.35134,-0.351316 -0.193244,0 -0.351347,0.158091 -0.351347,0.351316 v 2.022993 h -0.790519 v -0.851938 c 0,-0.193225 -0.158102,-0.351316 -0.351341,-0.351316 -0.193244,0 -0.351346,0.158091 -0.351346,0.351316 v 0.863662 c -0.790517,0.03221 -1.420018,0.661652 -1.452221,1.452107 h -0.863731 c -0.193241,0 -0.351345,0.158091 -0.351345,0.351316 0,0.193226 0.158104,0.351317 0.351345,0.351317 h 0.852006 v 0.790455 h -1.73038 C 10.158103,15.081228 10,15.239319 10,15.432544 c 0,0.193225 0.158103,0.351316 0.351344,0.351316 h 1.73038 v 0.761199 h -0.852006 c -0.193241,0 -0.351345,0.158091 -0.351345,0.351316 0,0.193225 0.158104,0.351316 0.351345,0.351316 h 0.852006 v 0.761199 h -1.73038 C 10.158103,18.00889 10,18.166981 10,18.360207 c 0,0.193225 0.158103,0.351315 0.351344,0.351315 h 1.73038 v 0.790456 h -0.852006 c -0.193241,0 -0.351345,0.158091 -0.351345,0.351316 0,0.193225 0.158104,0.351316 0.351345,0.351316 h 0.863731 c 0.03221,0.790455 0.661704,1.419907 1.452221,1.452107 v 0.863663 c 0,0.193225 0.158102,0.351316 0.351346,0.351316 0.193239,0 0.351341,-0.158091 0.351341,-0.351316 v -0.851939 h 0.790519 v 1.730243 c 0,0.193226 0.158103,0.351316 0.351347,0.351316 0.193238,0 0.35134,-0.158091 0.35134,-0.351316 v -1.730243 h 0.761258 v 0.851939 c 0,0.193225 0.158107,0.351316 0.351346,0.351316 0.193239,0 0.351345,-0.158091 0.351345,-0.351316 v -0.851939 h 0.761259 v 1.730243 c 0,0.193226 0.158102,0.351316 0.351345,0.351316 0.19324,0 0.351342,-0.158091 0.351342,-0.351316 v -1.730243 h 0.790519 v 0.851939 c 0,0.193225 0.158102,0.351316 0.351341,0.351316 0.193244,0 0.351346,-0.158091 0.351346,-0.351316 v -0.863663 c 0.79052,-0.03221 1.420021,-0.661652 1.452224,-1.452107 h 0.863728 c 0.193245,0 0.351346,-0.158091 0.351346,-0.351316 0,-0.193225 -0.158101,-0.351316 -0.351346,-0.351316 h -0.852003 v -0.790456 h 1.730381 c 0.193237,0 0.351339,-0.15809 0.351339,-0.351315 0,-0.193226 -0.158102,-0.351317 -0.351339,-0.351317 h -1.730381 v -0.761199 h 0.852003 c 0.193245,0 0.351346,-0.158091 0.351346,-0.351316 0,-0.193225 -0.158101,-0.351316 -0.351346,-0.351316 H 21.626613 V 15.78386 Z m -3.261547,5.181815 h -0.260578 c -0.0088,0 -0.02048,-0.0029 -0.02928,-0.0029 -0.0088,0 -0.02047,0.0029 -0.02928,0.0029 H 18.36215 c -0.0088,0 -0.02048,-0.0029 -0.02928,-0.0029 -0.0088,0 -0.02048,0.0029 -0.02928,0.0029 h -1.420015 c -0.0088,0 -0.02048,-0.0029 -0.02928,-0.0029 -0.0088,0 -0.02048,0.0029 -0.02928,0.0029 h -1.414153 c -0.0088,0 -0.02048,-0.0029 -0.02928,-0.0029 -0.0088,0 -0.02047,0.0029 -0.02928,0.0029 h -1.414153 c -0.0088,0 -0.02048,-0.0029 -0.02928,-0.0029 -0.0088,0 -0.02048,0.0029 -0.02928,0.0029 h -0.260584 c -0.450896,0 -0.828581,-0.377655 -0.828581,-0.828518 v -0.26056 c 0,-0.0088 0.0029,-0.02049 0.0029,-0.02928 0,-0.0088 -0.0029,-0.02049 -0.0029,-0.02928 v -1.41404 c 0,-0.0088 0.0029,-0.02049 0.0029,-0.02928 0,-0.0088 -0.0029,-0.02049 -0.0029,-0.02928 V 16.92553 c 0,-0.0088 0.0029,-0.02049 0.0029,-0.02928 0,-0.0088 -0.0029,-0.02049 -0.0029,-0.02928 v -1.414045 c 0,-0.0088 0.0029,-0.02049 0.0029,-0.02928 0,-0.0088 -0.0029,-0.02049 -0.0029,-0.02928 v -1.414043 c 0,-0.0088 0.0029,-0.02049 0.0029,-0.02928 0,-0.0088 -0.0029,-0.02049 -0.0029,-0.02928 v -0.26056 c 0,-0.450862 0.377685,-0.828517 0.828581,-0.828517 h 0.260584 c 0.0088,0 0.02048,0.0029 0.02928,0.0029 0.0088,0 0.02047,-0.0029 0.02928,-0.0029 h 1.414153 c 0.0088,0 0.02048,0.0029 0.02928,0.0029 0.0088,0 0.02048,-0.0029 0.02928,-0.0029 h 1.414153 c 0.0088,0 0.02048,0.0029 0.02928,0.0029 0.0088,0 0.02047,-0.0029 0.02928,-0.0029 h 1.414159 c 0.0088,0 0.02048,0.0029 0.02928,0.0029 0.0088,0 0.02047,-0.0029 0.02928,-0.0029 h 1.41416 c 0.0087,0 0.02048,0.0029 0.02928,0.0029 0.0088,0 0.02048,-0.0029 0.02928,-0.0029 h 0.260578 c 0.450899,0 0.828586,0.377655 0.828586,0.828517 v 0.260561 c 0,0.0088 -0.0029,0.02049 -0.0029,0.02928 0,0.0088 0.0029,0.02049 0.0029,0.02928 v 1.414044 c 0,0.0088 -0.0029,0.02049 -0.0029,0.02928 0,0.0088 0.0029,0.02049 0.0029,0.02928 v 1.414044 c 0,0.0088 -0.0029,0.02049 -0.0029,0.02928 0,0.0088 0.0029,0.02049 0.0029,0.02928 v 1.414045 c 0,0.0088 -0.0029,0.02049 -0.0029,0.02928 0,0.0088 0.0029,0.02049 0.0029,0.02928 v 1.414045 c 0,0.0088 -0.0029,0.02049 -0.0029,0.02928 0,0.0088 0.0029,0.02049 0.0029,0.02928 v 0.260561 c 0.0058,0.456698 -0.371853,0.834379 -0.822723,0.834379 z"
       id="path661-2-9"
       style="fill:#eff0f1;fill-opacity:1;stroke-width:0.026768" />
    <path
       d="m 14.5,16.608661 v 0.766678 h 1.833 v -0.766678 z"
       id="path29704-5-5"
       style="fill:#1a1a1a;fill-opacity:1;fill-rule:evenodd;stroke-width:0.296366" />
    <path
       d="m 14.883339,14.692 v 4.450437 h 0.683 V 14.692 Z"
       id="path29706-0-6"
       style="fill:#1a1a1a;fill-opacity:1;fill-rule:evenodd;stroke-width:0.262833" />
    <path
       d="m 19.300337,14.692076 h -0.967 v 1.916585 h 0.967 z"
       id="path29704-5-3-2"
       style="fill:#1a1a1a;fill-opacity:1;fill-rule:evenodd;stroke-width:0.34034" />
    <path
       d="m 19.300337,17.375415 h -0.967 V 19.292 h 0.967 z"
       id="path29704-5-3-6-9"
       style="fill:#1a1a1a;fill-opacity:1;fill-rule:evenodd;stroke-width:0.34034" />
  </g>
  <g
     id="22-22-corectrl"
     transform="translate(32,10)">
    <rect
       style="opacity:0.00100002"
       width="22"
       height="22"
       x="0"
       y="0"
       id="rect892" />
    <path
       id="Page_1_-6"
       class="st0  ColorScheme-Highlight "
       d="m 14.5,6 v 0 l -1,-1 v 0 h -7 V 18 H 15 c 1.374999,0 2.499999,-1.125 2.499999,-2.5 V 9 Z M 8.499999,7.5 Z m 0,2.5 z m 0,5 z m 0,-2.5 z"
       sodipodi:nodetypes="ccccccsscccccccccccccccccccccc"
       style="color:#cdd8e5;fill:#cdd8e5;fill-opacity:0.403922;stroke-width:0.25" />
    <path
       id="Page-s-0"
       class="st1  ColorScheme-Text "
       d="m 16.499999,9 h 1 v 7 c 0,1.65 -1.35,3 -2.999999,3 H 7.499999 V 18 H 14.5 c 1.099999,0 1.999999,-0.900001 1.999999,-2 v -6 0 z M 4.5,5 c 0,-1.1 0.9,-2 2,-2 h 5 v 1 h -5 c -0.55,0 -1,0.45 -1,1 v 8.5 h -1 z"
       style="color:#eff0f1;fill:currentColor;fill-opacity:1;stroke-width:0.25"
       sodipodi:nodetypes="ccssccsscccssccssccs" />
    <path
       d="M 13.513887,9.928167 C 13.513887,9.783977 13.395911,9.666 13.251722,9.666 H 9.887166 c -0.144191,0 -0.262165,0.117977 -0.262165,0.262167 v 3.364555 c 0,0.144191 0.117974,0.262167 0.262165,0.262167 h 3.364556 c 0.144189,0 0.262165,-0.117976 0.262165,-0.262167 z M 13.125,13.172222 H 10.013889 L 13.125,13.172 v -3.110889 z"
       id="path659-1-0-6"
       style="fill:#eff0f1;fill-opacity:1;stroke-width:0.0199747"
       sodipodi:nodetypes="sssssssssccccc" />
    <path
       d="m 15.904663,10.855907 c 0.128824,0 0.234226,-0.105394 0.234226,-0.234211 0,-0.128817 -0.105402,-0.234211 -0.234226,-0.234211 h -1.153588 v -0.52697 h 0.568002 c 0.12883,0 0.234231,-0.105394 0.234231,-0.234211 0,-0.128817 -0.105401,-0.234211 -0.234231,-0.234211 H 14.743259 C 14.721789,8.865123 14.302123,8.445489 13.775109,8.424022 V 7.848247 c 0,-0.128816 -0.105401,-0.23421 -0.23423,-0.23421 -0.128826,0 -0.234228,0.105394 -0.234228,0.23421 V 8.416206 H 12.77964 V 7.067544 c 0,-0.128817 -0.105403,-0.234211 -0.234229,-0.234211 -0.128829,0 -0.23423,0.105394 -0.23423,0.234211 V 8.416206 H 11.803675 V 7.848247 c 0,-0.128816 -0.105404,-0.23421 -0.23423,-0.23421 -0.128826,0 -0.234231,0.105394 -0.234231,0.23421 V 8.416206 H 10.827709 V 7.067544 c 0,-0.128817 -0.105402,-0.234211 -0.234227,-0.234211 -0.128829,0 -0.234231,0.105394 -0.234231,0.234211 V 8.416206 H 9.832238 V 7.848247 c 0,-0.128816 -0.105401,-0.23421 -0.234227,-0.23421 -0.12883,0 -0.234231,0.105394 -0.234231,0.23421 V 8.424022 C 8.836769,8.445492 8.417101,8.865123 8.395633,9.392093 H 7.819812 c -0.128827,0 -0.23423,0.105394 -0.23423,0.234211 0,0.128817 0.105403,0.234211 0.23423,0.234211 h 0.568004 v 0.52697 H 7.234229 C 7.105402,10.387485 7,10.492879 7,10.621696 c 0,0.128817 0.105402,0.234211 0.234229,0.234211 h 1.153587 v 0.507466 H 7.819812 c -0.128827,0 -0.23423,0.105394 -0.23423,0.23421 0,0.128817 0.105403,0.234211 0.23423,0.234211 H 8.387816 V 12.33926 H 7.234229 C 7.105402,12.33926 7,12.444654 7,12.573471 c 0,0.128817 0.105402,0.23421 0.234229,0.23421 h 1.153587 v 0.526971 H 7.819812 c -0.128827,0 -0.23423,0.105394 -0.23423,0.234211 0,0.128816 0.105403,0.23421 0.23423,0.23421 h 0.575821 c 0.02147,0.52697 0.441136,0.946605 0.968147,0.968072 v 0.575775 c 0,0.128817 0.105401,0.234211 0.234231,0.234211 0.128826,0 0.234227,-0.105394 0.234227,-0.234211 v -0.567959 h 0.527013 v 1.153495 c 0,0.128817 0.105402,0.234211 0.234231,0.234211 0.128825,0 0.234227,-0.105394 0.234227,-0.234211 v -1.153495 h 0.507505 v 0.567959 c 0,0.128817 0.105405,0.234211 0.234231,0.234211 0.128826,0 0.23423,-0.105394 0.23423,-0.234211 v -0.567959 h 0.507506 v 1.153495 c 0,0.128817 0.105401,0.234211 0.23423,0.234211 0.128826,0 0.234228,-0.105394 0.234228,-0.234211 v -1.153495 h 0.527012 v 0.567959 c 0,0.128817 0.105402,0.234211 0.234228,0.234211 0.128829,0 0.23423,-0.105394 0.23423,-0.234211 v -0.575775 c 0.527014,-0.02147 0.946681,-0.441102 0.96815,-0.968072 h 0.575818 c 0.12883,0 0.234231,-0.105394 0.234231,-0.23421 0,-0.128817 -0.105401,-0.234211 -0.234231,-0.234211 h -0.568002 v -0.526971 h 1.153588 c 0.128824,0 0.234226,-0.105393 0.234226,-0.23421 0,-0.128817 -0.105402,-0.234211 -0.234226,-0.234211 h -1.153588 v -0.507466 h 0.568002 c 0.12883,0 0.234231,-0.105394 0.234231,-0.234211 0,-0.128816 -0.105401,-0.23421 -0.234231,-0.23421 h -0.568002 v -0.507466 z m -2.174365,3.454543 h -0.173719 c -0.0059,0 -0.01365,-0.0019 -0.01952,-0.0019 -0.0059,0 -0.01365,0.0019 -0.01952,0.0019 h -0.942772 c -0.0059,0 -0.01365,-0.0019 -0.01952,-0.0019 -0.0059,0 -0.01365,0.0019 -0.01952,0.0019 H 11.58905 c -0.0059,0 -0.01365,-0.0019 -0.01952,-0.0019 -0.0059,0 -0.01365,0.0019 -0.01952,0.0019 h -0.942769 c -0.0059,0 -0.01365,-0.0019 -0.01952,-0.0019 -0.0059,0 -0.01365,0.0019 -0.01952,0.0019 H 9.625433 c -0.0059,0 -0.01365,-0.0019 -0.01952,-0.0019 -0.0059,0 -0.01365,0.0019 -0.01952,0.0019 H 9.41267 c -0.300597,0 -0.552387,-0.25177 -0.552387,-0.552345 v -0.173707 c 0,-0.0059 0.0019,-0.01366 0.0019,-0.01952 0,-0.0059 -0.0019,-0.01366 -0.0019,-0.01952 v -0.942693 c 0,-0.0059 0.0019,-0.01366 0.0019,-0.01952 0,-0.0059 -0.0019,-0.01366 -0.0019,-0.01952 V 11.61702 c 0,-0.0059 0.0019,-0.01366 0.0019,-0.01952 0,-0.0059 -0.0019,-0.01366 -0.0019,-0.01952 v -0.942697 c 0,-0.0059 0.0019,-0.01366 0.0019,-0.01952 0,-0.0059 -0.0019,-0.01366 -0.0019,-0.01952 V 9.653548 c 0,-0.0059 0.0019,-0.01366 0.0019,-0.01952 0,-0.0059 -0.0019,-0.01366 -0.0019,-0.01952 V 9.440801 c 0,-0.300574 0.25179,-0.552344 0.552387,-0.552344 h 0.173723 c 0.0059,0 0.01365,0.0019 0.01952,0.0019 0.0059,0 0.01365,-0.0019 0.01952,-0.0019 h 0.942768 c 0.0059,0 0.01365,0.0019 0.01952,0.0019 0.0059,0 0.01365,-0.0019 0.01952,-0.0019 h 0.94277 c 0.0059,0 0.01365,0.0019 0.01952,0.0019 0.0059,0 0.01365,-0.0019 0.01952,-0.0019 h 0.942773 c 0.0059,0 0.01365,0.0019 0.01952,0.0019 0.0059,0 0.01365,-0.0019 0.01952,-0.0019 h 0.942773 c 0.0058,0 0.01365,0.0019 0.01952,0.0019 0.0059,0 0.01365,-0.0019 0.01952,-0.0019 h 0.173719 c 0.300599,0 0.55239,0.25177 0.55239,0.552344 v 0.173708 c 0,0.0059 -0.0019,0.01366 -0.0019,0.01952 0,0.0059 0.0019,0.01366 0.0019,0.01952 v 0.942696 c 0,0.0059 -0.0019,0.01366 -0.0019,0.01952 0,0.0059 0.0019,0.01366 0.0019,0.01952 v 0.942696 c 0,0.0059 -0.0019,0.01366 -0.0019,0.01952 0,0.0059 0.0019,0.01366 0.0019,0.01952 v 0.942696 c 0,0.0059 -0.0019,0.01366 -0.0019,0.01952 0,0.0059 0.0019,0.01366 0.0019,0.01952 v 0.942697 c 0,0.0059 -0.0019,0.01366 -0.0019,0.01952 0,0.0059 0.0019,0.01366 0.0019,0.01952 v 0.173707 c 0.0039,0.304466 -0.247902,0.556253 -0.548482,0.556253 z"
       id="path661-2-9-2"
       style="fill:#eff0f1;fill-opacity:1;stroke-width:0.0178453" />
    <path
       d="m 10.133,11.433662 v 0.466676 h 1.233 v -0.466676 z"
       id="path29704-5-5-1"
       style="fill:#1a1a1a;fill-opacity:1;fill-rule:evenodd;stroke-width:0.189643" />
    <path
       d="m 10.366338,10.267 v 2.708958 h 0.533 V 10.267 Z"
       id="path29706-0-6-2"
       style="fill:#1a1a1a;fill-opacity:1;fill-rule:evenodd;stroke-width:0.181149" />
    <path
       d="m 13.233339,10.267045 h -0.767 v 1.166617 h 0.767 z"
       id="path29704-5-3-2-7"
       style="fill:#1a1a1a;fill-opacity:1;fill-rule:evenodd;stroke-width:0.236478" />
    <path
       d="m 13.233339,11.900385 h -0.767 V 13.067 h 0.767 z"
       id="path29704-5-3-6-9-0"
       style="fill:#1a1a1a;fill-opacity:1;fill-rule:evenodd;stroke-width:0.236478" />
  </g>
</svg>
