<?xml version="1.0" encoding="UTF-8" standalone="no"?>
<svg
   width="32"
   height="32"
   version="1.1"
   id="svg12"
   sodipodi:docname="desktop.svg"
   inkscape:version="1.2.2 (b0a8486541, 2022-12-01)"
   xmlns:inkscape="http://www.inkscape.org/namespaces/inkscape"
   xmlns:sodipodi="http://sodipodi.sourceforge.net/DTD/sodipodi-0.dtd"
   xmlns="http://www.w3.org/2000/svg"
   xmlns:svg="http://www.w3.org/2000/svg"
   xmlns:rdf="http://www.w3.org/1999/02/22-rdf-syntax-ns#"
   xmlns:cc="http://creativecommons.org/ns#"
   xmlns:dc="http://purl.org/dc/elements/1.1/">
  <g
     id="22-22-desktop">
    <rect
       style="opacity:0.00100002"
       width="22"
       height="22"
       x="32"
       y="10"
       id="rect2" />
    <path
       id="Computer-36"
       class="st0"
       d="m 50.704553,14 h 1.113628 v 10.5 c 0,1.283333 -1.002281,2.333333 -2.227278,2.333333 H 34 V 24.5 h 16.704553 z m -7.795454,14 z"
       style="fill:#cdd8e5;fill-opacity:0.403922;stroke-width:0.284968"
       sodipodi:nodetypes="ccssccccccccc" />
    <path
       id="Computer-s-7"
       class="st1"
       d="M 35.11363,24.5 H 34 V 16.333328 C 34,15.05 35.00228,14 36.22728,14 h 15.590901 v 1.166671 H 36.22728 c -0.6125,0 -1.11365,0.525 -1.11365,1.166657 z m 15.590923,0 c 0,1.283333 -1.002273,2.333333 -2.227272,2.333333 H 42.909099 V 28 h 1.113623 v 0 0 0 0 h 4.454559 c 1.837497,0 3.3409,-1.575 3.3409,-3.5 z"
       style="fill:#eff0f1;fill-opacity:1;stroke-width:0.284968"
       sodipodi:nodetypes="ccssccssccscccccccscc" />
    <path
       d="M 39.299994,17.799996 C 39.299994,18.628832 38.62882,19.3 37.799997,19.3 36.971871,19.300001 36.3,18.628832 36.3,17.799996 36.3,16.971872 36.971871,16.3 37.799997,16.3 c 0.828823,0 1.499997,0.671872 1.499997,1.499996 z"
       id="path72-3-3"
       style="color:#e5e9ef;fill:#eff0f1;fill-opacity:1;stroke-width:0.0178582"
       class="ColorScheme-Text" />
    <path
       d="M 39.299995,21.999992 C 39.299995,22.828824 38.628821,23.5 37.799997,23.5 36.971871,23.500001 36.3,22.828824 36.3,21.999992 36.3,21.171864 36.971871,20.5 37.799997,20.5 c 0.828824,0 1.499998,0.671864 1.499998,1.499992 z"
       id="path72-3-5-5"
       style="color:#e5e9ef;fill:#eff0f1;fill-opacity:1;stroke-width:0.0178574"
       class="ColorScheme-Text" />
  </g>
  <metadata
     id="metadata18">
    <rdf:RDF>
      <cc:Work
         rdf:about="">
        <dc:format>image/svg+xml</dc:format>
        <dc:type
           rdf:resource="http://purl.org/dc/dcmitype/StillImage" />
      </cc:Work>
    </rdf:RDF>
  </metadata>
  <defs
     id="defs16">
    <linearGradient
       x1="895.72339"
       x2="895.72339"
       y1="-131.54958"
       y2="-118.90034"
       gradientTransform="matrix(1.2648997,0,0,0.79057653,-1125.0002,116.5)"
       gradientUnits="userSpaceOnUse"
       id="linearGradient5">
      <stop
         offset="0%"
         style="stop-color:#303b3d; stop-opacity:1"
         id="stop18" />
      <stop
         offset="100%"
         style="stop-color:#bc985d; stop-opacity:1"
         id="stop20" />
    </linearGradient>
  </defs>
  <sodipodi:namedview
     pagecolor="#3a3f47"
     bordercolor="#000000"
     borderopacity="1"
     objecttolerance="10"
     gridtolerance="10"
     guidetolerance="10"
     inkscape:pageopacity="1"
     inkscape:pageshadow="2"
     inkscape:window-width="1920"
     inkscape:window-height="996"
     id="namedview14"
     showgrid="true"
     inkscape:zoom="9.8125"
     inkscape:cx="18.496815"
     inkscape:cy="17.987261"
     inkscape:window-x="0"
     inkscape:window-y="0"
     inkscape:window-maximized="1"
     inkscape:current-layer="svg12"
     inkscape:document-rotation="0"
     inkscape:lockguides="true"
     inkscape:showpageshadow="true"
     inkscape:pagecheckerboard="true"
     inkscape:deskcolor="#3a3f47">
    <inkscape:grid
       type="xygrid"
       id="grid868"
       originx="0"
       originy="0" />
  </sodipodi:namedview>
  <g
     id="desktop">
    <rect
       style="opacity:0.00100002"
       width="32"
       height="32"
       x="0"
       y="0"
       id="rect7" />
    <path
       id="Computer"
       class="st0"
       d="M 28.250002,5 H 30 v 16.5 c 0,2.016667 -1.575002,3.666667 -3.499998,3.666667 H 2 V 21.5 H 28.250002 Z M 16.000001,27 Z"
       style="fill:#cdd8e5;fill-opacity:0.403922;stroke-width:0.447794"
       sodipodi:nodetypes="ccssccccccccc" />
    <path
       id="Computer-s"
       class="st1"
       d="M 3.7499999,21.5 H 2 V 8.6666672 C 2,6.65 3.5750002,5 5.4999999,5 H 30 V 6.8333325 H 5.4999999 c -0.9625003,0 -1.75,0.825 -1.75,1.8333347 z m 24.5000021,0 c 0,2.016667 -1.575002,3.666667 -3.500001,3.666667 h -8.75 V 27 h 1.750001 v 0 0 0 0 h 6.999999 C 27.637498,27 30,24.525 30,21.5 Z"
       style="fill:#eff0f1;fill-opacity:1;stroke-width:0.447794"
       sodipodi:nodetypes="ccssccssccscccccccscc" />
    <path
       d="M 9.999993,9.999991 C 9.999993,11.105103 9.105095,12 7.999996,12 6.895828,12.000001 6,11.105103 6,9.999991 6,8.8958218 6.895828,8 7.999996,8 9.105095,8 9.999993,8.8958218 9.999993,9.999991 Z"
       id="path72-3"
       style="color:#e5e9ef;fill:#eff0f1;fill-opacity:1;stroke-width:0.0238098"
       class="ColorScheme-Text" />
    <path
       d="M 9.999993,17.999991 C 9.999993,19.105103 9.105095,20 7.999996,20 6.895828,20.000001 6,19.105103 6,17.999991 6,16.895822 6.895828,16 7.999996,16 c 1.105099,0 1.999997,0.895822 1.999997,1.999991 z"
       id="path72-3-5"
       style="color:#e5e9ef;fill:#eff0f1;fill-opacity:1;stroke-width:0.0238098"
       class="ColorScheme-Text" />
  </g>
</svg>
