<?xml version="1.0" encoding="UTF-8" standalone="no"?>
<svg
   width="32"
   height="32"
   version="1.1"
   id="svg12"
   sodipodi:docname="device.svg"
   inkscape:version="1.2.2 (b0a8486541, 2022-12-01)"
   xmlns:inkscape="http://www.inkscape.org/namespaces/inkscape"
   xmlns:sodipodi="http://sodipodi.sourceforge.net/DTD/sodipodi-0.dtd"
   xmlns="http://www.w3.org/2000/svg"
   xmlns:svg="http://www.w3.org/2000/svg"
   xmlns:rdf="http://www.w3.org/1999/02/22-rdf-syntax-ns#"
   xmlns:cc="http://creativecommons.org/ns#"
   xmlns:dc="http://purl.org/dc/elements/1.1/">
  <g
     id="22-22-device-notifier"
     transform="translate(32,10.000001)">
    <rect
       style="opacity:0.00100002"
       width="22"
       height="22"
       x="0"
       y="-4.6325681e-08"
       id="rect2" />
    <path
       id="Save-3"
       class="st0"
       d="M 14.428575,12.008137 H 7.5714228 v 5.179136 H 14.428575 Z M 8.4285777,4.757345 H 5 V 18.2231 h 9.857142 C 16.035718,18.2231 17,17.057794 17,15.633533 V 4.757345 H 14.428575 13.571426 V 8.900654 H 8.4285777 Z"
       sodipodi:nodetypes="ccccccccsscccccc"
       style="clip-rule:evenodd;fill:#cdd8e5;fill-opacity:0.40392157;fill-rule:evenodd;stroke-width:0.235565" />
    <path
       id="Save-s-6"
       class="st1"
       d="M 12.463505,3.084916 V 7.864827 H 9.5446847 V 3.084916 Z m 3.730453,5.815738 2e-5,7.250791 c 3e-6,1.139411 -0.822552,2.071655 -1.765403,2.071655 H 5.8571423 v 0.750975 l 8.5714327,0.02591 C 15.842851,19.004185 17,17.860559 17,16.151443 V 8.900654 Z"
       sodipodi:nodetypes="ccccccssccsscc"
       style="fill:#eff0f1;fill-opacity:1;stroke-width:0.235565" />
    <path
       d="M 9.7386302,3 C 9.4545362,3 9.2285282,3.359959 9.2285443,3.681661 V 5.03716 h 0.5101021 l -1.62e-5,-0.679079 c 0.014583,-0.80438 0,-0.859918 0.5101048,-0.859918 h 1.534438 c 0.505944,-3.4e-5 0.508403,0.06601 0.505944,0.859918 l 2.4e-5,0.679079 h 0.510092 l -1.1e-5,-1.35812 C 12.799222,3.270033 12.585936,3 12.296212,3.000034 Z M 10.248738,4.358121 V 5.03716 h 0.510107 V 4.358121 Z m 1.020206,0 V 5.03716 H 11.77904 V 4.358121 Z"
       style="solid-color:#d5c289;fill:#cdd8e5;fill-opacity:0.40392157;fill-rule:evenodd;stroke-width:0.58854"
       id="path4-7-3-7"
       sodipodi:nodetypes="ccccccccccccccccccccccc" />
  </g>
  <metadata
     id="metadata18">
    <rdf:RDF>
      <cc:Work
         rdf:about="">
        <dc:format>image/svg+xml</dc:format>
        <dc:type
           rdf:resource="http://purl.org/dc/dcmitype/StillImage" />
      </cc:Work>
    </rdf:RDF>
  </metadata>
  <defs
     id="defs16" />
  <sodipodi:namedview
     pagecolor="#3a3f47"
     bordercolor="#000000"
     borderopacity="1"
     objecttolerance="10"
     gridtolerance="10"
     guidetolerance="10"
     inkscape:pageopacity="1"
     inkscape:pageshadow="2"
     inkscape:window-width="1920"
     inkscape:window-height="1002"
     id="namedview14"
     showgrid="true"
     inkscape:zoom="11.313709"
     inkscape:cx="11.711456"
     inkscape:cy="22.494833"
     inkscape:window-x="0"
     inkscape:window-y="0"
     inkscape:window-maximized="1"
     inkscape:current-layer="svg12"
     inkscape:document-rotation="0"
     showguides="false"
     inkscape:guide-bbox="true"
     inkscape:pagecheckerboard="true"
     inkscape:lockguides="true"
     inkscape:showpageshadow="true"
     inkscape:deskcolor="#3a3f47">
    <inkscape:grid
       type="xygrid"
       id="grid849"
       originx="0"
       originy="0" />
    <sodipodi:guide
       position="-30.165605,19.66879"
       orientation="1,0"
       id="guide850"
       inkscape:locked="true" />
  </sodipodi:namedview>
  <g
     id="device-notifier">
    <rect
       style="opacity:0.00100002;fill:#eff0f1;fill-opacity:1"
       width="32"
       height="32"
       x="0"
       y="0"
       id="rect7" />
    <path
       id="Save"
       class="st0"
       d="m 20.857151,17.512205 h -9.714302 v 7.768704 h 9.714302 z M 12.357152,6.6360182 H 7.5 V 26.83465 H 21.464283 C 23.133935,26.83465 24.5,25.08669 24.5,22.950299 V 6.6360182 h -3.642849 -1.214302 v 6.2149628 h -7.285697 z"
       sodipodi:nodetypes="ccccccccsscccccc"
       style="clip-rule:evenodd;fill:#cdd8e5;fill-opacity:0.40392157;fill-rule:evenodd;stroke-width:0.343392" />
    <path
       id="Save-s"
       class="st1"
       d="M 18.073298,4.1273741 V 11.29724 H 13.938304 V 4.1273741 Z m 5.284808,8.7236069 2.9e-5,10.876187 c 4e-6,1.709116 -1.165286,3.107482 -2.500984,3.107482 H 8.7142848 v 1.126462 l 12.1428662,0.03887 C 22.860707,28.006355 24.5,26.290843 24.5,23.72717 V 12.850981 Z"
       sodipodi:nodetypes="ccccccssccsscc"
       style="fill:#eff0f1;fill-opacity:1;stroke-width:0.343392" />
    <path
       d="m 14.213057,4 c -0.402464,0 -0.722642,0.5399389 -0.722619,1.0224919 v 2.0332476 h 0.722642 l -2.3e-5,-1.018619 c 0.02067,-1.2065699 0,-1.2898768 0.722653,-1.2898768 h 2.173788 c 0.71675,-4.97e-5 0.720236,0.09902 0.71675,1.2898768 l 3.3e-5,1.018619 h 0.72263 l -1.6e-5,-2.0371799 C 18.548895,4.4050504 18.246742,4 17.836299,4.0000507 Z m 0.722658,2.0371817 v 1.0185578 h 0.72265 V 6.0371817 Z m 1.445291,0 v 1.0185578 h 0.722633 V 6.0371817 Z"
       style="solid-color:#d5c289;fill:#cdd8e5;fill-opacity:0.40392157;fill-rule:evenodd;stroke-width:0.857938"
       id="path4-7-3"
       sodipodi:nodetypes="ccccccccccccccccccccccc" />
  </g>
</svg>
