<?xml version="1.0" encoding="UTF-8" standalone="no"?>
<svg
   width="32"
   height="32"
   version="1.1"
   id="svg58"
   sodipodi:docname="disk.svg"
   inkscape:version="1.2.2 (b0a8486541, 2022-12-01)"
   xmlns:inkscape="http://www.inkscape.org/namespaces/inkscape"
   xmlns:sodipodi="http://sodipodi.sourceforge.net/DTD/sodipodi-0.dtd"
   xmlns="http://www.w3.org/2000/svg"
   xmlns:svg="http://www.w3.org/2000/svg"
   xmlns:rdf="http://www.w3.org/1999/02/22-rdf-syntax-ns#"
   xmlns:cc="http://creativecommons.org/ns#"
   xmlns:dc="http://purl.org/dc/elements/1.1/">
  <metadata
     id="metadata64">
    <rdf:RDF>
      <cc:Work
         rdf:about="">
        <dc:format>image/svg+xml</dc:format>
        <dc:type
           rdf:resource="http://purl.org/dc/dcmitype/StillImage" />
      </cc:Work>
    </rdf:RDF>
  </metadata>
  <defs
     id="defs62" />
  <sodipodi:namedview
     pagecolor="#3a3f47"
     bordercolor="#000000"
     borderopacity="1"
     objecttolerance="10"
     gridtolerance="10"
     guidetolerance="10"
     inkscape:pageopacity="1"
     inkscape:pageshadow="2"
     inkscape:window-width="1920"
     inkscape:window-height="1002"
     id="namedview60"
     showgrid="true"
     inkscape:zoom="4.9062501"
     inkscape:cx="-45.961783"
     inkscape:cy="13.757962"
     inkscape:window-x="0"
     inkscape:window-y="0"
     inkscape:window-maximized="1"
     inkscape:current-layer="svg58"
     inkscape:document-rotation="0"
     inkscape:lockguides="true"
     inkscape:showpageshadow="true"
     inkscape:pagecheckerboard="true"
     inkscape:deskcolor="#3a3f47">
    <inkscape:grid
       type="xygrid"
       id="grid879"
       originx="-96"
       originy="0" />
  </sodipodi:namedview>
  <g
     id="disk-quota"
     transform="translate(-96)">
    <rect
       style="opacity:0.00100002"
       width="32"
       height="32"
       x="0"
       y="0"
       id="rect35" />
    <path
       id="Inbox"
       class="st0"
       d="m 32,16 -0.9,-2 h -2.2 l 0.9,2 H 22 v 2 c 0,1.1 -0.9,2 -2,2 h -8 c -1.1,0 -2,-0.9 -2,-2 V 16 H 0 v 10 h 27 c 2.75,0 5,-2.25 5,-5 z"
       style="clip-rule:evenodd;fill:#cdd8e5;fill-opacity:0.40392157;fill-rule:evenodd;stroke-width:0.5" />
    <path
       id="Inbox-s"
       class="st1"
       d="M 2.2,16 H 0 L 4.25,6.4 C 4.9,4.95 6.3,4 7.95,4 H 24.1 c 1.6,0 3.05,0.95 3.7,2.4 l 3.3,7.6 h -2.2 l -3,-6.75 C 25.6,6.5 24.9,6 24.05,6 H 7.95 C 7.15,6 6.45,6.5 6.1,7.2 Z M 30,16 v 6 c 0,2.199999 -1.8,4 -4,4 H 2 v 2 h 24 c 3.3,0 6,-2.7 6,-6 v -6 z"
       style="fill:#eff0f1;fill-opacity:1;stroke-width:0.5" />
  </g>
  <g
     id="disk-quota-low"
     transform="translate(-64)">
    <rect
       style="opacity:0.00100002"
       width="32"
       height="32"
       x="0"
       y="0"
       id="rect35-6" />
    <path
       id="Inbox-3"
       class="st0"
       d="m 32,16 -0.9,-2 h -2.2 l 0.9,2 H 22 v 2 c 0,1.1 -0.9,2 -2,2 h -8 c -1.1,0 -2,-0.9 -2,-2 V 16 H 0 v 10 h 27 c 2.75,0 5,-2.25 5,-5 z"
       style="clip-rule:evenodd;fill:#a3be8c;fill-opacity:1;fill-rule:evenodd;stroke-width:0.5" />
    <path
       id="Inbox-s-6"
       class="st1"
       d="M 2.2,16 H 0 L 4.25,6.4 C 4.9,4.95 6.3,4 7.95,4 H 24.1 c 1.6,0 3.05,0.95 3.7,2.4 l 3.3,7.6 h -2.2 l -3,-6.75 C 25.6,6.5 24.9,6 24.05,6 H 7.95 C 7.15,6 6.45,6.5 6.1,7.2 Z M 30,16 v 6 c 0,2.199999 -1.8,4 -4,4 H 2 v 2 h 24 c 3.3,0 6,-2.7 6,-6 v -6 z"
       style="fill:#eff0f1;fill-opacity:1;stroke-width:0.5" />
  </g>
  <g
     id="disk-quota-high"
     transform="translate(-32)">
    <rect
       style="opacity:0.00100002"
       width="32"
       height="32"
       x="0"
       y="0"
       id="rect49" />
    <path
       id="Inbox-7"
       class="st0"
       d="m 32,16 -0.9,-2 h -2.2 l 0.9,2 H 22 v 2 c 0,1.1 -0.9,2 -2,2 h -8 c -1.1,0 -2,-0.9 -2,-2 V 16 H 0 v 10 h 27 c 2.75,0 5,-2.25 5,-5 z"
       style="clip-rule:evenodd;fill:#d08770;fill-opacity:1;fill-rule:evenodd;stroke-width:0.5" />
    <path
       id="Inbox-s-5"
       class="st1"
       d="M 2.2,16 H 0 L 4.25,6.4 C 4.9,4.95 6.3,4 7.95,4 H 24.1 c 1.6,0 3.05,0.95 3.7,2.4 l 3.3,7.6 h -2.2 l -3,-6.75 C 25.6,6.5 24.9,6 24.05,6 H 7.95 C 7.15,6 6.45,6.5 6.1,7.2 Z M 30,16 v 6 c 0,2.199999 -1.8,4 -4,4 H 2 v 2 h 24 c 3.3,0 6,-2.7 6,-6 v -6 z"
       style="fill:#eff0f1;fill-opacity:1;stroke-width:0.5" />
  </g>
  <g
     id="disk-quota-critical">
    <rect
       style="opacity:0.00100002"
       width="32"
       height="32"
       x="0"
       y="0"
       id="rect35-2" />
    <path
       id="Inbox-35"
       class="st0"
       d="m 32,16 -0.9,-2 h -2.2 l 0.9,2 H 22 v 2 c 0,1.1 -0.9,2 -2,2 h -8 c -1.1,0 -2,-0.9 -2,-2 V 16 H 0 v 10 h 27 c 2.75,0 5,-2.25 5,-5 z"
       style="clip-rule:evenodd;fill:#bf616a;fill-opacity:1;fill-rule:evenodd;stroke-width:0.5" />
    <path
       id="Inbox-s-62"
       class="st1"
       d="M 2.2,16 H 0 L 4.25,6.4 C 4.9,4.95 6.3,4 7.95,4 H 24.1 c 1.6,0 3.05,0.95 3.7,2.4 l 3.3,7.6 h -2.2 l -3,-6.75 C 25.6,6.5 24.9,6 24.05,6 H 7.95 C 7.15,6 6.45,6.5 6.1,7.2 Z M 30,16 v 6 c 0,2.199999 -1.8,4 -4,4 H 2 v 2 h 24 c 3.3,0 6,-2.7 6,-6 v -6 z"
       style="fill:#eff0f1;fill-opacity:1;stroke-width:0.5" />
  </g>
  <g
     id="22-22-disk-quota"
     transform="translate(-96,-22)">
    <rect
       style="opacity:0.00100002"
       width="22"
       height="22"
       x="0"
       y="0"
       id="rect12" />
    <path
       id="Inbox-36"
       class="st0"
       d="m 21.633333,11 -0.6,-1.333333 h -1.466666 l 0.6,1.333333 h -5.2 v 1.333333 c 0,0.733334 -0.6,1.333334 -1.333333,1.333334 H 8.3 c -0.7333333,0 -1.3333333,-0.6 -1.3333333,-1.333334 V 11 H 0.3 v 6.666667 h 18 c 1.833334,0 3.333333,-1.5 3.333333,-3.333334 z"
       style="clip-rule:evenodd;fill:#cdd8e5;fill-opacity:0.40392157;fill-rule:evenodd;stroke-width:0.333333" />
    <path
       id="Inbox-s-7"
       class="st1"
       d="M 1.7666667,11 H 0.3 L 3.1333333,4.6 C 3.5666667,3.633333 4.5,3 5.6,3 H 16.366667 C 17.433334,3 18.4,3.633333 18.833334,4.6 l 2.199999,5.066667 h -1.466666 l -2,-4.5 c -0.2,-0.5 -0.666667,-0.833334 -1.233333,-0.833334 H 5.6 c -0.5333333,0 -1,0.333334 -1.2333333,0.8 z M 20.3,11 v 4 c 0,1.466666 -1.2,2.666667 -2.666666,2.666667 H 1.6333333 V 19 H 17.633334 c 2.2,0 3.999999,-1.8 3.999999,-4 v -4 z"
       style="fill:#eff0f1;fill-opacity:1;stroke-width:0.333333" />
  </g>
  <g
     id="22-22-disk-quota-low"
     transform="translate(-64,-22)">
    <rect
       style="opacity:0.00100002"
       width="22"
       height="22"
       x="0"
       y="0"
       id="rect17" />
    <path
       id="Inbox-5"
       class="st0"
       d="m 21.633333,11 -0.6,-1.3333333 H 19.566667 L 20.166667,11 h -5.2 v 1.333333 c 0,0.733334 -0.6,1.333334 -1.333333,1.333334 H 8.3 c -0.7333333,0 -1.3333333,-0.6 -1.3333333,-1.333334 V 11 H 0.3 v 6.666667 h 18 c 1.833333,0 3.333333,-1.5 3.333333,-3.333334 z"
       style="clip-rule:evenodd;fill:#a3be8c;fill-opacity:1;fill-rule:evenodd;stroke-width:0.333333" />
    <path
       id="Inbox-s-3"
       class="st1"
       d="M 1.7666667,11 H 0.3 L 3.1333333,4.6 C 3.5666667,3.633333 4.5,3 5.6,3 H 16.366667 C 17.433334,3 18.4,3.633333 18.833333,4.6 l 2.2,5.0666667 h -1.466666 l -2,-4.4999997 c -0.2,-0.5 -0.666667,-0.833334 -1.233333,-0.833334 H 5.6 c -0.5333333,0 -1,0.333334 -1.2333333,0.8 z M 20.3,11 v 4 c 0,1.466666 -1.2,2.666667 -2.666666,2.666667 H 1.6333333 V 19 H 17.633334 c 2.199999,0 3.999999,-1.8 3.999999,-4 v -4 z"
       style="fill:#eff0f1;fill-opacity:1;stroke-width:0.333333" />
  </g>
  <g
     id="22-22-disk-quota-high"
     transform="translate(-32,-22)">
    <rect
       style="opacity:0.00100002"
       width="22"
       height="22"
       x="0"
       y="0"
       id="rect26" />
    <path
       id="Inbox-56"
       class="st0"
       d="m 21.633334,11 -0.6,-1.3333333 H 19.566667 L 20.166667,11 h -5.2 v 1.333333 c 0,0.733334 -0.6,1.333334 -1.333333,1.333334 H 8.3000003 c -0.7333333,0 -1.3333333,-0.6 -1.3333333,-1.333334 V 11 H 0.3 v 6.666667 h 18 c 1.833334,0 3.333334,-1.5 3.333334,-3.333334 z"
       style="clip-rule:evenodd;fill:#d08770;fill-opacity:1;fill-rule:evenodd;stroke-width:0.333333" />
    <path
       id="Inbox-s-2"
       class="st1"
       d="M 1.766667,11 H 0.3 L 3.133333,4.6 C 3.566667,3.633333 4.5000003,3 5.6000003,3 H 16.366667 C 17.433334,3 18.4,3.633333 18.833334,4.6 l 2.2,5.0666667 h -1.466667 l -2,-4.4999997 c -0.2,-0.5 -0.666667,-0.833334 -1.233333,-0.833334 H 5.6000003 c -0.5333333,0 -1,0.333334 -1.2333333,0.8 z M 20.3,11 v 4 c 0,1.466666 -1.2,2.666667 -2.666666,2.666667 H 1.633333 V 19 h 16.000001 c 2.2,0 4,-1.8 4,-4 v -4 z"
       style="fill:#eff0f1;fill-opacity:1;stroke-width:0.333333" />
  </g>
  <g
     id="22-22-disk-quota-critical"
     transform="translate(0,-22)">
    <rect
       style="opacity:0.00100002"
       width="22"
       height="22"
       x="0"
       y="0"
       id="rect7" />
    <path
       id="Inbox-9"
       class="st0"
       d="m 21.666667,11 -0.6,-1.333333 H 19.6 L 20.2,11 H 15 v 1.333333 c 0,0.733334 -0.6,1.333334 -1.333333,1.333334 H 8.3333333 C 7.6,13.666667 7,13.066667 7,12.333333 V 11 H 0.3333333 v 6.666667 H 18.333333 c 1.833334,0 3.333334,-1.5 3.333334,-3.333334 z"
       style="clip-rule:evenodd;fill:#bf616a;fill-opacity:1;fill-rule:evenodd;stroke-width:0.333333" />
    <path
       id="Inbox-s-1"
       class="st1"
       d="M 1.8000003,11 H 0.3333333 L 3.1666663,4.6 C 3.6000003,3.633333 4.5333333,3 5.6333333,3 H 16.4 c 1.066667,0 2.033333,0.633333 2.466667,1.6 l 2.2,5.066667 H 19.6 l -2,-4.5 c -0.2,-0.5 -0.666667,-0.833334 -1.233333,-0.833334 H 5.6333333 c -0.5333333,0 -1,0.333334 -1.2333333,0.8 z m 18.5333327,0 v 4 c 0,1.466666 -1.2,2.666667 -2.666666,2.666667 H 1.6666663 V 19 H 17.666667 c 2.2,0 4,-1.8 4,-4 v -4 z"
       style="fill:#eff0f1;fill-opacity:1;stroke-width:0.333333" />
  </g>
</svg>
