<?xml version="1.0" encoding="UTF-8" standalone="no"?>
<svg
   viewBox="0 0 22 22"
   id="svg"
   version="1.1"
   width="100%"
   height="100%"
   sodipodi:docname="distribute.svg"
   inkscape:version="1.3 (0e150ed6c4, 2023-07-21)"
   xmlns:inkscape="http://www.inkscape.org/namespaces/inkscape"
   xmlns:sodipodi="http://sodipodi.sourceforge.net/DTD/sodipodi-0.dtd"
   xmlns="http://www.w3.org/2000/svg"
   xmlns:svg="http://www.w3.org/2000/svg"
   xmlns:rdf="http://www.w3.org/1999/02/22-rdf-syntax-ns#"
   xmlns:cc="http://creativecommons.org/ns#"
   xmlns:dc="http://purl.org/dc/elements/1.1/">
  <sodipodi:namedview
     pagecolor="#3a3f47"
     bordercolor="#000000"
     borderopacity="1"
     objecttolerance="10"
     gridtolerance="10"
     guidetolerance="10"
     inkscape:pageopacity="0"
     inkscape:pageshadow="2"
     inkscape:window-width="1920"
     inkscape:window-height="994"
     id="namedview10"
     showgrid="true"
     inkscape:zoom="15.247761"
     inkscape:cx="12.526429"
     inkscape:cy="15.903974"
     inkscape:window-x="0"
     inkscape:window-y="0"
     inkscape:window-maximized="1"
     inkscape:current-layer="svg"
     inkscape:lockguides="false"
     inkscape:pagecheckerboard="true"
     inkscape:showpageshadow="2"
     inkscape:deskcolor="#3a3f47">
    <inkscape:grid
       type="xygrid"
       id="grid879"
       originx="0"
       originy="0"
       spacingy="1"
       spacingx="1"
       units="px"
       visible="true" />
  </sodipodi:namedview>
  <defs
     id="defs81">
    <style
       id="current-color-scheme"
       type="text/css" />
  </defs>
  <metadata
     id="metadata34">
    <rdf:RDF>
      <cc:Work
         rdf:about="">
        <dc:format>image/svg+xml</dc:format>
        <dc:type
           rdf:resource="http://purl.org/dc/dcmitype/StillImage" />
      </cc:Work>
    </rdf:RDF>
  </metadata>
  <g
     id="distribute-horizontal-x">
    <path
       style="opacity:0.00100002"
       d="M 0,0 H 22 V 22 H 0 Z"
       id="path2" />
    <path
       class="ColorScheme-Text"
       style="fill:#eff0f1;fill-opacity:1"
       d="m 3,8 v 6 c 0,0.56242 0.516361,1 0.976279,1 H 7 c 0.483744,0 1,-0.332405 1,-1 V 8 C 8,7.509899 7.641214,7 7.004782,7 H 3.95718 C 3.44931,7.0022 3,7.451547 3,8 Z m 11,0 v 6 c 0,0.568979 0.482781,1 1.024566,1 H 18 c 0.474173,-0.03995 1,-0.373506 1,-1 V 8 C 19,7.497635 18.611808,7 18.031605,7 H 14.998443 C 14.451526,7 14,7.479335 14,8 Z M 4,8 h 3 v 6 H 4 Z m 11,0 h 3 v 6 H 15 Z M 9,9 v 4 c 0,0.403013 1,0.457521 1,0 v -1 h 2 v 1 c 0,0.482751 1,0.489437 1,0 V 9 C 13,8.600065 12,8.618397 12,9 v 1 H 10 V 9 C 10,8.595529 9,8.592711 9,9 Z"
       id="rect4109-3"
       sodipodi:nodetypes="ccccccccccccccccccccccccccccccccccccccccc" />
    <path
       inkscape:connector-curvature="0"
       id="fill-6"
       d="m 4,8 v 6 H 7 V 8 Z"
       style="color:#1e92ff;fill:#cdd8e5;fill-opacity:0.403922;fill-rule:nonzero;stroke:none;stroke-width:0.866027"
       class="ColorScheme-ButtonFocus"
       sodipodi:nodetypes="ccccc" />
    <path
       inkscape:connector-curvature="0"
       id="fill-3-7"
       d="m 15,8 v 6 h 3 V 8 Z"
       style="color:#1e92ff;fill:#cdd8e5;fill-opacity:0.403922;fill-rule:nonzero;stroke:none;stroke-width:0.866027"
       class="ColorScheme-ButtonFocus"
       sodipodi:nodetypes="ccccc" />
  </g>
</svg>
