<?xml version="1.0" encoding="UTF-8" standalone="no"?>
<svg
   width="32"
   height="32"
   version="1.1"
   id="svg32"
   sodipodi:docname="document.svg"
   inkscape:version="1.2.2 (b0a8486541, 2022-12-01)"
   xmlns:inkscape="http://www.inkscape.org/namespaces/inkscape"
   xmlns:sodipodi="http://sodipodi.sourceforge.net/DTD/sodipodi-0.dtd"
   xmlns="http://www.w3.org/2000/svg"
   xmlns:svg="http://www.w3.org/2000/svg"
   xmlns:rdf="http://www.w3.org/1999/02/22-rdf-syntax-ns#"
   xmlns:cc="http://creativecommons.org/ns#"
   xmlns:dc="http://purl.org/dc/elements/1.1/">
  <g
     id="22-22-document-open-recent"
     transform="translate(0,-22)">
    <rect
       style="opacity:0.00100002"
       width="22"
       height="22"
       x="1.2623786e-15"
       y="0"
       id="rect7" />
    <path
       id="Page_1_-3"
       class="st0"
       d="m 14.5,6 v 2 h -1 V 5 h -7 V 18 H 15 c 1.375,0 2.5,-1.125 2.5,-2.5 V 9 Z m -6,1.5 h 3 v 1 h -3 z m 0,2.5 h 3 v 1 h -3 z m 6,6 h -6 v -1 h 6 z m 1,-2.5 h -7 v -1 h 7 z"
       style="fill:#cdd8e5;fill-opacity:0.40392157;stroke-width:0.25" />
    <path
       id="Page-s-6"
       class="st1"
       d="m 13.5,9 h 4 v 7 c 0,1.65 -1.35,3 -3,3 h -7 v -1 h 7 c 1.1,0 2,-0.9 2,-2 v -6 h -3 z m -9,-4 c 0,-1.1 0.9,-2 2,-2 h 5 v 1 h -5 c -0.55,0 -1,0.45 -1,1 v 8.5 h -1 z"
       style="fill:#eff0f1;fill-opacity:1;stroke-width:0.25" />
  </g>
  <g
     id="document-open-recent">
    <rect
       style="opacity:0.00100002"
       width="32"
       height="32"
       x="0"
       y="0"
       id="rect17" />
    <path
       id="Page_1_"
       class="st0"
       d="m 21.25,8.5 v 3 h -1.5 V 7 H 9.25 V 26.5 H 22 c 2.0625,0 3.75,-1.6875 3.75,-3.75 V 13 Z m -9,2.25 h 4.5 v 1.5 h -4.5 z m 0,3.75 h 4.5 V 16 h -4.5 z m 9,9 h -9 V 22 h 9 z m 1.5,-3.75 h -10.5 v -1.5 h 10.5 z"
       style="fill:#cdd8e5;fill-opacity:0.40392157;stroke-width:0.375" />
    <path
       id="Page-s"
       class="st1"
       d="m 19.75,13 h 6 v 10.5 c 0,2.475 -2.025,4.5 -4.5,4.5 h -10.5 v -1.5 h 10.5 c 1.65,0 3,-1.35 3,-3 v -9 h -4.5 z M 6.25,7 c 0,-1.65 1.35,-3 3,-3 h 7.5 V 5.5 H 9.25 C 8.425,5.5 7.75,6.175 7.75,7 v 12.75 h -1.5 z"
       style="fill:#eff0f1;fill-opacity:1;stroke-width:0.375" />
  </g>
  <metadata
     id="metadata38">
    <rdf:RDF>
      <cc:Work
         rdf:about="">
        <dc:format>image/svg+xml</dc:format>
        <dc:type
           rdf:resource="http://purl.org/dc/dcmitype/StillImage" />
      </cc:Work>
    </rdf:RDF>
  </metadata>
  <defs
     id="defs36">
    <linearGradient
       x1="0"
       x2="0"
       y1="0"
       y2="1"
       id="linearGradient13">
      <stop
         offset="0%"
         style="stop-color:#303b3d; stop-opacity:1"
         id="stop18" />
      <stop
         offset="100%"
         style="stop-color:#bc985d; stop-opacity:1"
         id="stop20" />
    </linearGradient>
  </defs>
  <sodipodi:namedview
     pagecolor="#3a3f47"
     bordercolor="#000000"
     borderopacity="1"
     objecttolerance="10"
     gridtolerance="10"
     guidetolerance="10"
     inkscape:pageopacity="1"
     inkscape:pageshadow="2"
     inkscape:window-width="1920"
     inkscape:window-height="1002"
     id="namedview34"
     showgrid="true"
     inkscape:zoom="6.9384855"
     inkscape:cx="43.020916"
     inkscape:cy="6.557627"
     inkscape:window-x="0"
     inkscape:window-y="0"
     inkscape:window-maximized="1"
     inkscape:current-layer="svg32"
     inkscape:document-rotation="0"
     inkscape:lockguides="true"
     inkscape:showpageshadow="true"
     showguides="true"
     inkscape:pagecheckerboard="true"
     inkscape:deskcolor="#3a3f47">
    <inkscape:grid
       type="xygrid"
       id="grid886"
       originx="0"
       originy="0" />
  </sodipodi:namedview>
  <g
     id="document-encrypt"
     transform="translate(32)">
    <rect
       style="opacity:0.00100002"
       width="32"
       height="32"
       x="0"
       y="0"
       id="rect22" />
    <path
       id="Lock"
       class="st0"
       d="m 17.666664,19.75 c 0,0.562495 -0.33333,1.05 -0.83333,1.312495 V 22.75 c 0,0.412495 -0.375,0.75 -0.833334,0.75 -0.458336,0 -0.833336,-0.337505 -0.833336,-0.75 v -1.687505 c -0.5,-0.262495 -0.833329,-0.75 -0.833329,-1.312495 0,-0.825001 0.75,-1.5 1.666665,-1.5 0.916665,0 1.666665,0.674999 1.666664,1.5 z M 21.833334,13 H 23.5 v 1.5 H 26 v 8.25 c 0,2.062495 -1.875,3.75 -4.166665,3.75 H 6 v -12 h 15.833335 z"
       style="clip-rule:evenodd;fill:#cdd8e5;fill-opacity:0.40392157;fill-rule:evenodd;stroke-width:0.395283" />
    <path
       id="Lock-s"
       class="st1"
       d="M 10.166665,14.5 H 8.5 V 10.75 C 8.5,7.0375 11.875,4 16,4 c 4.125,0 7.5,3.0375 7.5,6.75 V 13 h -1.666665 v -2.25 c 0,-2.8875 -2.625,-5.25 -5.833335,-5.25 -3.208335,0 -5.833335,2.3625 -5.833335,5.25 z M 26,14.5 H 21.833335 V 16 h 2.5 v 7.5 c 0,1.65 -1.5,3 -3.333335,3 H 7.666665 V 28 H 21 c 2.75,0 5,-2.025001 5,-4.5 z"
       style="fill:#eff0f1;fill-opacity:1;stroke-width:0.395283" />
  </g>
  <g
     id="document-decrypt"
     transform="translate(64)">
    <rect
       style="opacity:0.00100002"
       width="32"
       height="32"
       x="0"
       y="0"
       id="rect27" />
    <path
       id="Lock-7"
       class="st0"
       d="m 17.666664,19.75 c 0,0.562495 -0.33333,1.05 -0.83333,1.312495 V 22.75 c 0,0.412495 -0.375,0.75 -0.833334,0.75 -0.458336,0 -0.833336,-0.337505 -0.833336,-0.75 v -1.687505 c -0.5,-0.262495 -0.833329,-0.75 -0.833329,-1.312495 0,-0.825001 0.75,-1.5 1.666665,-1.5 0.916665,0 1.666665,0.674999 1.666664,1.5 z M 21.833334,13 H 23.5 v 1.5 H 26 v 8.25 c 0,2.062495 -1.875,3.75 -4.166665,3.75 H 6 v -12 h 15.833335 z"
       style="clip-rule:evenodd;fill:#cdd8e5;fill-opacity:0.40392157;fill-rule:evenodd;stroke-width:0.395283" />
    <path
       id="Lock-s-5"
       class="st1"
       d="M 10.166665,11.89997 H 8.5 V 10.75 C 8.5,7.0375 11.875,4 16,4 c 4.125,0 7.5,3.0375 7.5,6.75 V 13 h -1.666665 v -2.25 c 0,-2.8875 -2.625,-5.25 -5.833335,-5.25 -3.208335,0 -5.833335,2.3625 -5.833335,5.25 z M 26,14.5 H 21.833335 V 16 h 2.5 v 7.5 c 0,1.65 -1.5,3 -3.333335,3 H 7.666665 V 28 H 21 c 2.75,0 5,-2.025001 5,-4.5 z"
       style="fill:#eff0f1;fill-opacity:1;stroke-width:0.395283"
       sodipodi:nodetypes="ccsssccssscccccssccssc" />
  </g>
  <g
     id="22-22-document-encrypt"
     transform="translate(32,-22)">
    <rect
       style="opacity:0.00100002"
       width="22"
       height="22"
       x="0"
       y="0"
       id="rect2" />
    <path
       id="Lock-75"
       class="st0"
       d="m 12.077776,13.5 c 0,0.374997 -0.22222,0.7 -0.555553,0.874997 V 15.5 c 0,0.274997 -0.25,0.5 -0.555556,0.5 C 10.66111,16 10.41111,15.774997 10.41111,15.5 V 14.374997 C 10.077776,14.2 9.855557,13.874997 9.855557,13.5 c 0,-0.550001 0.5,-1 1.11111,-1 0.61111,0 1.11111,0.449999 1.111109,1 z M 14.855556,9 h 1.111111 v 1 h 1.666667 v 5.5 c 0,1.374997 -1.25,2.5 -2.777777,2.5 H 4.3 v -8 h 10.555557 z"
       style="clip-rule:evenodd;fill:#cdd8e5;fill-opacity:0.40392157;fill-rule:evenodd;stroke-width:0.263522" />
    <path
       id="Lock-s-3"
       class="st1"
       d="m 7.0777767,10 h -1.11111 V 7.5 c 0,-2.475 2.25,-4.5 5.0000003,-4.5 2.75,0 5,2.025 5,4.5 V 9 h -1.11111 V 7.5 c 0,-1.925 -1.75,-3.5 -3.88889,-3.5 C 8.8277767,4 7.0777767,5.575 7.0777767,7.5 Z m 10.5555573,0 h -2.777777 v 1 h 1.666667 v 5 c 0,1.1 -1,2 -2.222224,2 H 5.41111 v 1 H 14.3 c 1.833334,0 3.333334,-1.350001 3.333334,-3 z"
       style="fill:#eff0f1;fill-opacity:1;stroke-width:0.263522" />
  </g>
  <g
     id="22-22-document-decrypt"
     transform="translate(64,-22)">
    <rect
       style="opacity:0.00100002"
       width="22"
       height="22"
       x="0"
       y="0"
       id="rect12" />
    <path
       id="Lock-7-5"
       class="st0"
       d="m 12.077776,13.5 c 0,0.374997 -0.22222,0.7 -0.555553,0.874997 V 15.5 c 0,0.274997 -0.25,0.5 -0.555556,0.5 -0.305557,0 -0.555558,-0.225003 -0.555558,-0.5 V 14.374997 C 10.077776,14.2 9.8555566,13.874997 9.8555566,13.5 c 0,-0.550001 0.5000004,-1 1.1111104,-1 0.61111,0 1.11111,0.449999 1.111109,1 z M 14.855556,9 h 1.111111 v 1 h 1.666666 v 5.5 c 0,1.374997 -1.25,2.5 -2.777776,2.5 H 4.3 v -8 h 10.555557 z"
       style="clip-rule:evenodd;fill:#cdd8e5;fill-opacity:0.40392157;fill-rule:evenodd;stroke-width:0.263522" />
    <path
       id="Lock-s-5-6"
       class="st1"
       d="M 7.0777766,8.266647 H 5.9666667 V 7.5 c 0,-2.475 2.2499999,-4.5 5.0000003,-4.5 2.75,0 5,2.025 5,4.5 V 9 h -1.11111 V 7.5 c 0,-1.925 -1.75,-3.5 -3.88889,-3.5 C 8.8277766,4 7.0777766,5.575 7.0777766,7.5 Z M 17.633333,10 h -2.777776 v 1 h 1.666666 v 5 c 0,1.1 -1,2 -2.222223,2 H 5.41111 v 1 H 14.3 c 1.833333,0 3.333333,-1.350001 3.333333,-3 z"
       style="fill:#eff0f1;fill-opacity:1;stroke-width:0.263522"
       sodipodi:nodetypes="ccsssccssscccccssccssc" />
  </g>
</svg>
