<?xml version="1.0" encoding="UTF-8" standalone="no"?>
<svg
   width="32"
   height="32"
   version="1.1"
   id="svg986"
   sodipodi:docname="dropbox.svg"
   inkscape:version="1.3.2 (091e20ef0f, 2023-11-25)"
   xmlns:inkscape="http://www.inkscape.org/namespaces/inkscape"
   xmlns:sodipodi="http://sodipodi.sourceforge.net/DTD/sodipodi-0.dtd"
   xmlns="http://www.w3.org/2000/svg"
   xmlns:svg="http://www.w3.org/2000/svg">
  <style
     id="current-color-scheme"
     type="text/css">.ColorScheme-Text { color:#eff0f1; }
.ColorScheme-Highlight { color:#cdd8e5; }
</style>
  <sodipodi:namedview
     id="namedview988"
     pagecolor="#3a3f47"
     bordercolor="#000000"
     borderopacity="1"
     inkscape:showpageshadow="true"
     inkscape:pageopacity="1"
     inkscape:pagecheckerboard="true"
     inkscape:deskcolor="#3a3f47"
     showgrid="true"
     inkscape:zoom="7.375"
     inkscape:cx="15.59322"
     inkscape:cy="34.305085"
     inkscape:window-width="1920"
     inkscape:window-height="994"
     inkscape:window-x="0"
     inkscape:window-y="0"
     inkscape:window-maximized="1"
     inkscape:current-layer="svg986">
    <inkscape:grid
       type="xygrid"
       id="grid1519"
       originx="32"
       originy="10"
       spacingy="1"
       spacingx="1"
       units="px"
       visible="true" />
  </sodipodi:namedview>
  <defs
     id="Dexy" />
  <g
     id="dropbox">
    <rect
       style="opacity:0.00100002"
       width="32"
       height="32"
       x="0"
       y="0"
       id="rect976" />
    <path
       id="Page_1_"
       class="st0  ColorScheme-Highlight "
       d="m 21.249999,8.5 v 0 l -1.5,-1.5 V 7 H 9.2500006 V 26.5 H 21.999999 c 2.0625,0 3.75,-1.6875 3.75,-3.75 V 13 Z M 12.25,10.75 Z m 0,3.75 z m 0,7.5 z m 0,-3.75 z"
       sodipodi:nodetypes="ccccccsscccccccccccccccccccccc"
       style="color:#cdd8e5;fill:#cdd8e5;fill-opacity:0.403922;stroke-width:0.375" />
    <path
       id="Page-s"
       class="st1  ColorScheme-Text "
       d="m 24.25,13 h 1.499999 v 10.5 c 0,2.475 -2.024999,4.5 -4.5,4.5 H 10.75 v -1.5 h 10.499999 c 1.65,0 3,-1.350001 3,-3 v -9 h 1e-6 z M 6.2500006,7 c 0,-1.65 1.35,-3 3,-3 H 16.749999 V 5.5 H 9.2500006 c -0.825,0 -1.5,0.675 -1.5,1.5 v 12.75 h -1.5 z"
       style="color:#eff0f1;fill:currentColor;fill-opacity:1;stroke-width:0.375"
       sodipodi:nodetypes="ccssccsscccssccssccs" />
    <path
       style="fill:#eff0f1;fill-opacity:1;stroke-width:0.259905"
       d="m 13.432915,12.157135 -2.648963,1.729669 c -0.360488,0.235473 -0.380502,0.644564 -0.04421,0.913569 l 1.517068,1.215058 c 0.33606,0.269261 0.905775,0.30409 1.271979,0.0777 l 2.660397,-1.642861 c 0.366467,-0.22612 0.395318,-0.633391 0.06472,-0.909415 l -1.56982,-1.310437 c -0.330345,-0.275758 -0.890698,-0.308508 -1.251192,-0.0733 z"
       id="path190" />
    <path
       style="fill:#eff0f1;fill-opacity:1;stroke-width:0.259905"
       d="m 10.783952,19.118702 2.648963,1.729417 c 0.360492,0.235471 0.920846,0.202462 1.251448,-0.07331 l 1.569832,-1.310439 c 0.330599,-0.27602 0.301488,-0.683032 -0.06498,-0.909413 l -2.660389,-1.642862 c -0.366466,-0.226121 -0.935919,-0.191554 -1.271981,0.07769 l -1.51707,1.215063 c -0.336317,0.269521 -0.316306,0.678353 0.04421,0.913823 z"
       id="path192" />
    <path
       style="fill:#eff0f1;fill-opacity:1;stroke-width:0.259905"
       d="m 17.451319,19.464381 1.570087,1.310439 c 0.330601,0.276023 0.890957,0.30877 1.251441,0.07331 l 2.648706,-1.729417 c 0.36049,-0.235469 0.380501,-0.644559 0.04415,-0.913566 l -1.517057,-1.215063 c -0.336065,-0.269259 -0.905514,-0.304092 -1.27198,-0.07771 l -2.660396,1.642864 c -0.366468,0.226118 -0.395573,0.633131 -0.06498,0.909151 z"
       id="path194" />
    <path
       style="fill:#eff0f1;fill-opacity:1;stroke-width:0.259905"
       d="m 22.921816,13.886804 -2.648969,-1.729669 c -0.360484,-0.235476 -0.92084,-0.202467 -1.251441,0.0733 l -1.570087,1.310437 c -0.3306,0.276022 -0.301493,0.683033 0.06472,0.909151 l 2.660397,1.642868 c 0.366467,0.226116 0.935915,0.191548 1.271979,-0.07769 l 1.517064,-1.215052 c 0.336573,-0.269005 0.316824,-0.677837 -0.0437,-0.913309 z"
       id="path196" />
    <path
       style="fill:#eff0f1;fill-opacity:1;stroke-width:0.259905"
       d="m 16.260949,19.959501 -1.575026,1.307062 c -0.33138,0.274983 -0.865745,0.324361 -1.193751,0.110201 -0.327999,-0.214158 -0.593883,-0.193114 -0.593883,0.04705 0,0.240157 0.29941,0.614159 0.668737,0.835602 l 2.625308,1.574506 c 0.369327,0.221438 0.968148,0.221438 1.337474,0 l 2.625561,-1.574508 c 0.369334,-0.221442 0.668742,-0.595708 0.668742,-0.835601 0,-0.239893 -0.265881,-0.260942 -0.593626,-0.04706 -0.327994,0.214161 -0.862363,0.164782 -1.193744,-0.110199 L 17.461452,19.95949 c -0.331902,-0.274984 -0.869124,-0.274984 -1.200503,1e-6 z"
       id="path198" />
  </g>
  <g
     id="22-22-dropbox">
    <rect
       style="opacity:0.00100002"
       width="22"
       height="22"
       x="32"
       y="10"
       id="rect981" />
    <path
       id="Page_1_-36"
       class="st0  ColorScheme-Highlight "
       d="m 46.499999,16 v 0 l -1,-1 v 0 H 38.5 v 13 h 8.499999 c 1.375,0 2.5,-1.125 2.5,-2.5 V 19 Z m -6,1.5 z m 0,2.5 z m 0,5 z m 0,-2.5 z"
       sodipodi:nodetypes="ccccccsscccccccccccccccccccccc"
       style="color:#cdd8e5;fill:#cdd8e5;fill-opacity:0.403922;stroke-width:0.25" />
    <path
       id="Page-s-7"
       class="st1  ColorScheme-Text "
       d="m 48.499999,19 h 1 v 7 c 0,1.65 -1.35,3 -3,3 h -7 v -1 h 7 c 1.1,0 2,-0.900001 2,-2 v -6 0 z M 36.5,15 c 0,-1.1 0.9,-2 2,-2 h 4.999999 v 1 H 38.5 c -0.55,0 -1,0.45 -1,1 v 8.5 h -1 z"
       style="color:#eff0f1;fill:currentColor;fill-opacity:1;stroke-width:0.25"
       sodipodi:nodetypes="ccssccsscccssccssccs" />
    <path
       style="fill:#eff0f1;fill-opacity:1;stroke-width:0.173263"
       d="M 41.255268,18.104756 39.4893,19.257868 c -0.240327,0.156984 -0.253668,0.429711 -0.02946,0.609046 l 1.011378,0.810038 c 0.224038,0.179508 0.603847,0.202727 0.847984,0.05181 L 43.0928,19.633519 c 0.244309,-0.150745 0.263545,-0.42226 0.04314,-0.606273 l -1.046547,-0.873627 c -0.220226,-0.183839 -0.593797,-0.205672 -0.834122,-0.04886 z"
       id="path190-3" />
    <path
       style="fill:#eff0f1;fill-opacity:1;stroke-width:0.173263"
       d="m 39.4893,22.745796 1.765968,1.152946 c 0.240326,0.156975 0.613897,0.134973 0.834297,-0.04892 l 1.046552,-0.873598 c 0.220399,-0.184008 0.200991,-0.455341 -0.04333,-0.606265 l -1.773582,-1.095228 c -0.24431,-0.150745 -0.623946,-0.1277 -0.847984,0.05181 l -1.011378,0.81004 c -0.224211,0.17968 -0.21087,0.452238 0.02946,0.609217 z"
       id="path192-6" />
    <path
       style="fill:#eff0f1;fill-opacity:1;stroke-width:0.173263"
       d="m 43.934197,22.97625 1.046721,0.873625 c 0.2204,0.18401 0.593983,0.205842 0.834307,0.04893 l 1.765789,-1.152937 c 0.240323,-0.156984 0.253667,-0.429708 0.02939,-0.609047 l -1.011318,-0.810102 c -0.224026,-0.17951 -0.603672,-0.202728 -0.847981,-0.05181 l -1.773591,1.095237 c -0.244307,0.150752 -0.263718,0.42209 -0.04336,0.606107 z"
       id="path194-7" />
    <path
       style="fill:#eff0f1;fill-opacity:1;stroke-width:0.173263"
       d="m 47.581187,19.257868 -1.765962,-1.153112 c -0.240324,-0.156984 -0.613907,-0.134976 -0.834307,0.04887 l -1.046721,0.873629 c -0.2204,0.184012 -0.20099,0.455353 0.04311,0.606099 l 1.773593,1.09524 c 0.24431,0.150746 0.623945,0.1277 0.847986,-0.0518 l 1.011387,-0.81004 c 0.224385,-0.179336 0.211214,-0.451889 -0.02915,-0.608873 z"
       id="path196-5" />
    <path
       style="fill:#eff0f1;fill-opacity:1;stroke-width:0.173263"
       d="m 43.140621,23.30633 -1.050016,0.871379 c -0.22092,0.183307 -0.577164,0.216242 -0.795831,0.07342 -0.218667,-0.142775 -0.395922,-0.128737 -0.395922,0.03142 0,0.160114 0.199607,0.409436 0.445824,0.557075 l 1.750203,1.049655 c 0.246215,0.14763 0.645426,0.14763 0.891644,0 l 1.750385,-1.049662 c 0.246215,-0.147637 0.445822,-0.397147 0.445822,-0.557074 0,-0.159927 -0.177255,-0.173955 -0.395748,-0.03143 -0.218674,0.142773 -0.574922,0.109854 -0.795826,-0.07342 l -1.0502,-0.871363 c -0.221263,-0.18332 -0.579414,-0.18332 -0.800335,0 z"
       id="path198-3" />
  </g>
</svg>
