<?xml version="1.0" encoding="UTF-8" standalone="no"?>
<svg
   width="32"
   height="32"
   version="1.1"
   id="svg2222"
   sodipodi:docname="emblem.svg"
   inkscape:version="1.2.2 (b0a8486541, 2022-12-01)"
   xmlns:inkscape="http://www.inkscape.org/namespaces/inkscape"
   xmlns:sodipodi="http://sodipodi.sourceforge.net/DTD/sodipodi-0.dtd"
   xmlns="http://www.w3.org/2000/svg"
   xmlns:svg="http://www.w3.org/2000/svg">
  <defs
     id="defs2226" />
  <sodipodi:namedview
     id="namedview2224"
     pagecolor="#b2b2b2"
     bordercolor="#000000"
     borderopacity="1"
     inkscape:showpageshadow="false"
     inkscape:pageopacity="0"
     inkscape:pagecheckerboard="0"
     inkscape:deskcolor="#b2b2b2"
     showgrid="false"
     inkscape:zoom="10.429825"
     inkscape:cx="2.061396"
     inkscape:cy="18.840201"
     inkscape:window-width="1920"
     inkscape:window-height="998"
     inkscape:window-x="0"
     inkscape:window-y="0"
     inkscape:window-maximized="1"
     inkscape:current-layer="svg2222">
    <inkscape:grid
       type="xygrid"
       id="grid2709"
       originx="0"
       originy="0" />
  </sodipodi:namedview>
  <g
     id="emblem-shared-symbolic">
    <rect
       style="opacity:0.00100002"
       width="32"
       height="32"
       x="0"
       y="0"
       id="rect2217" />
    <path
       id="Share"
       class="st0"
       d="m 26.5,7.75 c 0,2.0625 -1.6875,3.75 -3.75,3.75 C 20.6875,11.5 19,9.8125 19,7.75 19,5.6875 20.6875,4 22.75,4 24.8125,4 26.5,5.6875 26.5,7.75 Z M 12.775,14.725 14.1625,13.9 13.375,12.625 11.9875,13.45 c -0.675,-0.75 -1.65,-1.2 -2.7375,-1.2 -2.0625,0 -3.75,1.6875 -3.75,3.75 0,2.0625 1.6875,3.75 3.75,3.75 2.0625,0 3.75,-1.6875 3.75,-3.75 0,-0.45 -0.075,-0.8625 -0.225,-1.275 z M 22.75,28 c 2.0625,0 3.75,-1.6875 3.75,-3.75 0,-2.0625 -1.6875,-3.75 -3.75,-3.75 -1.0875,0 -2.0625,0.45 -2.7375,1.2 l -1.3875,-0.8625 -0.7875,1.275 1.3875,0.825 C 19.075,23.3875 19,23.8 19,24.25 19,26.3125 20.6875,28 22.75,28 Z"
       style="fill:#cdd8e5;fill-opacity:0.403922;stroke-width:0.375" />
    <path
       id="Share-s"
       class="st1"
       d="m 19.225,9.025 v 0 C 19.4875,9.7 19.9,10.3 20.4625,10.7125 21.1,11.2 21.925,11.5 22.75,11.5 V 13 c -1.1625,0 -2.2875,-0.375 -3.1875,-1.0875 -0.3,-0.225 -0.6,-0.525 -0.8625,-0.825 l -4.575,2.775 -0.75,-1.2375 z m -1.3875,13.0875 0.7875,-1.275 -5.85,-3.5625 C 12.925,16.8625 13,16.45 13,16 c 0,-0.5625 -0.15,-1.125 -0.375,-1.65 -0.15,-0.3375 -0.375,-0.6375 -0.6375,-0.9 l -1.3125,0.825 c 0.525,0.4125 0.825,1.05 0.825,1.7625 0,0.7125 -0.3375,1.35 -0.825,1.7625 z m 3.4875,0.375 -1.3125,-0.825 C 19.375,22.375 19,23.275 19,24.25 19,26.3125 20.6875,28 22.75,28 v -1.5 c -1.2375,0 -2.25,-1.0125 -2.25,-2.25 0,-0.7125 0.3375,-1.35 0.825,-1.7625 z"
       style="fill:#eff0f1;fill-opacity:1;stroke-width:0.375" />
  </g>
  <g
     id="22-22-emblem-shared-symbolic"
     transform="translate(32.000001,10.000001)">
    <rect
       style="opacity:0.00100002"
       width="22"
       height="22"
       x="0"
       y="0"
       id="rect2212" />
    <path
       id="Share-3"
       class="st0"
       d="M 18,5.5 C 18,6.875 16.875001,8 15.5,8 14.124999,8 13,6.875 13,5.5 13,4.124999 14.124999,3 15.5,3 16.875001,3 18,4.125 18,5.5 Z M 8.850001,10.149999 9.775,9.6 9.250001,8.749999 8.325,9.3 C 7.875001,8.8 7.225,8.5 6.5,8.5 5.1250001,8.5 4,9.624999 4,11 4,12.375001 5.1250001,13.5 6.5,13.5 7.875001,13.5 9,12.375001 9,11 9,10.7 8.94996,10.424999 8.850001,10.149999 Z M 15.5,19 C 16.875001,19 18,17.875001 18,16.5 18,15.124999 16.875001,14 15.5,14 c -0.724999,0 -1.375001,0.3 -1.825,0.8 L 12.750001,14.224999 12.224999,15.075 13.150001,15.624999 C 13.050011,15.924999 13,16.2 13,16.5 c 0,1.375001 1.124999,2.5 2.5,2.5 z"
       style="fill:#cdd8e5;fill-opacity:0.403922;stroke-width:0.250001" />
    <path
       id="Share-s-6"
       class="st1"
       d="m 13.149999,6.349999 v 0 C 13.324999,6.8 13.6,7.2 13.975,7.475 14.4,7.8 14.949999,8 15.5,8 V 9 C 14.724999,9 13.975,8.749999 13.375,8.275 13.175,8.124999 12.975,7.924999 12.8,7.725 l -3.050001,1.85 -0.5,-0.824999 z m -0.925,8.725002 0.525,-0.850001 -3.9,-2.374999 C 8.949989,11.575001 9,11.3 9,11 9,10.625 8.899995,10.250001 8.749999,9.9 8.649994,9.675 8.5,9.475 8.325,9.3 L 7.449999,9.850001 C 7.8,10.125 8,10.550001 8,11.024999 8,11.5 7.775001,11.924999 7.449999,12.2 Z M 14.549999,15.325 13.675,14.775001 C 13.249999,15.249999 13,15.850001 13,16.5 13,17.875001 14.124999,19 15.5,19 V 18 C 14.675,18 14,17.325 14,16.5 c 0,-0.475 0.224999,-0.9 0.549999,-1.175 z"
       style="fill:#eff0f1;fill-opacity:1;stroke-width:0.250001" />
  </g>
</svg>
