<?xml version="1.0" encoding="UTF-8" standalone="no"?>
<svg
   width="32"
   height="32"
   version="1.1"
   id="svg14"
   sodipodi:docname="face.svg"
   inkscape:version="1.2.2 (b0a8486541, 2022-12-01)"
   xmlns:inkscape="http://www.inkscape.org/namespaces/inkscape"
   xmlns:sodipodi="http://sodipodi.sourceforge.net/DTD/sodipodi-0.dtd"
   xmlns="http://www.w3.org/2000/svg"
   xmlns:svg="http://www.w3.org/2000/svg">
  <sodipodi:namedview
     id="namedview16"
     pagecolor="#b2b2b2"
     bordercolor="#000000"
     borderopacity="1"
     inkscape:showpageshadow="false"
     inkscape:pageopacity="0"
     inkscape:pagecheckerboard="0"
     inkscape:deskcolor="#b2b2b2"
     showgrid="false"
     inkscape:zoom="10.429825"
     inkscape:cx="-2.061396"
     inkscape:cy="15.196803"
     inkscape:window-width="1920"
     inkscape:window-height="1000"
     inkscape:window-x="0"
     inkscape:window-y="0"
     inkscape:window-maximized="1"
     inkscape:current-layer="svg14">
    <inkscape:grid
       type="xygrid"
       id="grid191"
       originx="0"
       originy="0" />
  </sodipodi:namedview>
  <defs
     id="defs5">
    <style
       id="current-color-scheme"
       type="text/css">.ColorScheme-Background { color:#181818; }
.ColorScheme-ButtonBackground { color:#343434; }
.ColorScheme-Highlight { color:#cdd8e5; }
.ColorScheme-Text { color:#eff0f1; }
.ColorScheme-ViewBackground { color:#242424; }
.ColorScheme-NegativeText { color:#f44336; }
.ColorScheme-PositiveText { color:#4caf50; }
.ColorScheme-NeutralText { color:#ff9800; }
</style>
  </defs>
  <g
     id="face-laughing">
    <rect
       style="opacity:0.00100002"
       width="32"
       height="32"
       x="0"
       y="0"
       id="rect9" />
    <path
       id="Page_1_"
       class="st0  ColorScheme-Highlight "
       d="m 21.249999,8.5 v 0 l -1.5,-1.5 V 7 H 9.2500007 V 26.5 H 21.999999 c 2.0625,0 3.75,-1.6875 3.75,-3.75 V 13 Z M 12.25,10.75 Z m 0,3.75 z m 0,7.5 z m 0,-3.75 z"
       sodipodi:nodetypes="ccccccsscccccccccccccccccccccc"
       style="color:#cdd8e5;fill:#cdd8e5;fill-opacity:0.403922;stroke-width:0.375" />
    <path
       id="Page-s"
       class="st1  ColorScheme-Text "
       d="m 22.55,13 h 3.199999 v 10.5 c 0,2.475 -2.024999,4.5 -4.5,4.5 H 10.750001 v -1.5 h 10.499998 c 1.65,0 3,-1.350001 3,-3 v -9 H 22.55 Z M 6.2500007,7 c 0,-1.65 1.35,-3 3,-3 H 16.749999 V 5.5 H 9.2500007 c -0.825,0 -1.5,0.675 -1.5,1.5 v 12.75 h -1.5 z"
       style="color:#eff0f1;fill:currentColor;fill-opacity:1;stroke-width:0.375"
       sodipodi:nodetypes="ccssccsscccssccssccs" />
    <path
       d="M 16.750001,11 C 13.436388,11 10.75,13.686274 10.75,17 c 0,3.313726 2.686275,6 6.000001,6 3.313724,0 6,-2.686274 6,-6 0,-3.313726 -2.686276,-6 -6,-6 z m -2.270213,2.918919 c 0.626872,0 1.13511,0.508234 1.13511,1.135106 0,0.626873 -0.508238,1.135107 -1.13511,1.135107 -0.626873,0 -1.135103,-0.508234 -1.135103,-1.135107 0,-0.626872 0.50823,-1.135106 1.135103,-1.135106 z m 4.702702,0 c 0.626873,0 1.13511,0.508234 1.13511,1.135106 0,0.626873 -0.508237,1.135107 -1.13511,1.135107 -0.626872,0 -1.135102,-0.508234 -1.135102,-1.135107 0,-0.626872 0.50823,-1.135106 1.135102,-1.135106 z m 0.643643,4.530405 c 0.126458,-0.0092 0.246585,0.05633 0.307673,0.16741 0.06098,0.111191 0.05168,0.247723 -0.024,0.349517 -0.736703,1.063292 -1.96491,1.763456 -3.349808,1.763456 -1.384747,0 -2.607885,-0.700193 -3.344595,-1.763456 h 1.2e-4 c -0.0672,-0.09298 -0.08031,-0.214352 -0.0345,-0.31943 0.04583,-0.105197 0.143655,-0.178269 0.257453,-0.192409 0.121597,-0.01482 0.241155,0.04004 0.30915,0.141959 0.620872,0.896206 1.645245,1.48474 2.8125,1.48474 1.167247,0 2.19669,-0.588534 2.817593,-1.48474 h -1.13e-4 c 0.05535,-0.08517 0.147157,-0.139584 0.2484,-0.147049 z"
       id="path912"
       style="fill:#eff0f1;fill-opacity:1;stroke-width:0.0289575" />
  </g>
  <g
     id="22-22-face-laughing"
     transform="translate(32.000001,10.000001)">
    <rect
       style="opacity:0.00100002"
       width="22"
       height="22"
       x="0"
       y="0"
       id="rect4" />
    <path
       id="Page_1_-6"
       class="st0  ColorScheme-Highlight "
       d="m 14.5,6 v 0 l -1,-1 V 5 H 6.5000005 V 18 H 15 c 1.375,0 2.5,-1.125 2.5,-2.5 V 9 Z M 8.4999995,7.5 Z m 0,2.5 z m 0,5 z m 0,-2.5 z"
       sodipodi:nodetypes="ccccccsscccccccccccccccccccccc"
       style="color:#cdd8e5;fill:#cdd8e5;fill-opacity:0.403922;stroke-width:0.25" />
    <path
       id="Page-s-2"
       class="st1  ColorScheme-Text "
       d="M 15.366667,9 H 17.5 v 7 c 0,1.65 -1.350001,3 -3,3 H 7.5000005 V 18 H 14.5 c 1.1,0 2,-0.900001 2,-2 V 10 H 15.366667 Z M 4.5000005,5 c 0,-1.1 0.9,-2 2,-2 H 11.499999 V 4 H 6.5000005 c -0.55,0 -1,0.45 -1,1 v 8.5 h -1 z"
       style="color:#eff0f1;fill:currentColor;fill-opacity:1;stroke-width:0.25"
       sodipodi:nodetypes="ccssccsscccssccssccs" />
    <path
       d="M 11.600001,7.5 C 9.114786,7.5 7.1,9.514706 7.1,12 c 0,2.485294 2.014702,4.5 4.500001,4.5 2.485297,0 4.5,-2.014706 4.5,-4.5 0,-2.485294 -2.014703,-4.5 -4.5,-4.5 z M 9.897336,9.689189 c 0.47016,0 0.851332,0.381176 0.851332,0.85133 0,0.470155 -0.381172,0.85133 -0.851332,0.85133 -0.470154,0 -0.851318,-0.381175 -0.851318,-0.85133 0,-0.470154 0.381164,-0.85133 0.851318,-0.85133 z m 3.527031,0 c 0.470153,0 0.851333,0.381176 0.851333,0.85133 0,0.470155 -0.38118,0.85133 -0.851333,0.85133 -0.470159,0 -0.851333,-0.381175 -0.851333,-0.85133 0,-0.470154 0.381174,-0.85133 0.851333,-0.85133 z m 0.482737,3.397804 c 0.09483,-0.0069 0.184937,0.04225 0.230755,0.125557 0.04568,0.08339 0.03878,0.185793 -0.018,0.262138 -0.552527,0.797469 -1.473683,1.322592 -2.512358,1.322592 -1.038564,0 -1.9559178,-0.525145 -2.508451,-1.322592 h 9e-5 c -0.0504,-0.06973 -0.06021,-0.160764 -0.02586,-0.239572 0.03442,-0.0789 0.1077399,-0.133702 0.1930839,-0.144307 0.0912,-0.01111 0.180872,0.03003 0.231865,0.106469 0.4656521,0.672155 1.2339371,1.113555 2.1093761,1.113555 0.875431,0 1.64752,-0.4414 2.113196,-1.113555 h -8.5e-5 c 0.04155,-0.06387 0.110365,-0.104688 0.1863,-0.110287 z"
       id="path912-3"
       style="fill:#eff0f1;fill-opacity:1;stroke-width:0.0217185" />
  </g>
</svg>
