<?xml version="1.0" encoding="UTF-8" standalone="no"?>
<svg
   viewBox="0 0 22 22"
   id="svg"
   version="1.1"
   width="22"
   height="22"
   sodipodi:docname="go.svg"
   inkscape:version="1.1.2 (0a00cf5339, 2022-02-04)"
   xmlns:inkscape="http://www.inkscape.org/namespaces/inkscape"
   xmlns:sodipodi="http://sodipodi.sourceforge.net/DTD/sodipodi-0.dtd"
   xmlns="http://www.w3.org/2000/svg"
   xmlns:svg="http://www.w3.org/2000/svg"
   xmlns:rdf="http://www.w3.org/1999/02/22-rdf-syntax-ns#"
   xmlns:cc="http://creativecommons.org/ns#"
   xmlns:dc="http://purl.org/dc/elements/1.1/">
  <style
     id="current-color-scheme"
     type="text/css">.ColorScheme-Text { color:#d6dbf1; }
</style>
  <sodipodi:namedview
     pagecolor="#b2b2b2"
     bordercolor="#000000"
     borderopacity="1"
     objecttolerance="10"
     gridtolerance="10"
     guidetolerance="10"
     inkscape:pageopacity="0"
     inkscape:pageshadow="2"
     inkscape:window-width="1920"
     inkscape:window-height="1007"
     id="namedview21"
     showgrid="false"
     inkscape:zoom="5.3636364"
     inkscape:cx="63.669491"
     inkscape:cy="19.20339"
     inkscape:window-x="0"
     inkscape:window-y="0"
     inkscape:window-maximized="1"
     inkscape:current-layer="svg"
     inkscape:document-rotation="0"
     inkscape:pagecheckerboard="0"
     inkscape:lockguides="true"
     inkscape:showpageshadow="false">
    <inkscape:grid
       type="xygrid"
       id="grid853"
       originx="0"
       originy="0" />
  </sodipodi:namedview>
  <defs
     id="defs81">
    <style
       id="style5"
       type="text/css" />
  </defs>
  <metadata
     id="metadata34">
    <rdf:RDF>
      <cc:Work
         rdf:about="">
        <dc:format>image/svg+xml</dc:format>
        <dc:type
           rdf:resource="http://purl.org/dc/dcmitype/StillImage" />
      </cc:Work>
    </rdf:RDF>
  </metadata>
  <g
     id="go-down"
     transform="matrix(0.91666667,0,0,0.91666667,-30.08333,0)"
     style="fill:#d6dbf1;fill-opacity:1">
    <rect
       style="opacity:0.01;fill:#d6dbf1;fill-opacity:1;stroke:none"
       id="rect3098"
       width="24"
       height="24"
       x="155"
       y="0" />
    <path
       id="rect4176-9"
       d="M 157.88379,7.0278788 157,7.9116678 164.65625,15.567917 167,17.911667 169.34375,15.567917 177,7.9116678 176.11621,7.0278788 168.45996,14.684129 167,16.14409 165.54004,14.684129 Z"
       style="fill:#ffffff;fill-opacity:0.4;stroke:none"
       class="ColorScheme-Text" />
  </g>
  <g
     id="go-next"
     transform="matrix(0.91666667,0,0,0.91666667,-17.33333,0)"
     style="fill:#d6dbf1;fill-opacity:1">
    <rect
       style="opacity:0.01;fill:#d6dbf1;fill-opacity:1;stroke:none"
       id="rect3094"
       width="24"
       height="24"
       x="80"
       y="0" />
    <path
       id="rect4176-6"
       d="m 88.948831,1.9488962 -0.888311,0.8883112 7.695425,7.6954246 1.467431,1.467432 -1.467431,1.467431 -7.695425,7.695425 0.888311,0.888311 7.695425,-7.695425 L 99,12.000064 96.644256,9.6443212 Z"
       style="fill:#ffffff;fill-opacity:0.4;stroke:none"
       class="ColorScheme-Text" />
  </g>
  <g
     id="go-previous"
     transform="matrix(0.91666667,0,0,0.91666667,-8.66667,0)"
     style="fill:#d6dbf1;fill-opacity:1">
    <rect
       y="0"
       x="40"
       height="24"
       width="24"
       id="rect3092"
       style="opacity:0.01;fill:#d6dbf1;fill-opacity:1;stroke:none" />
    <path
       id="rect4176-31"
       d="m 56.088371,2 -7.656261,7.6562608 -2.343753,2.3437532 2.343753,2.343754 7.656261,7.65626 0.88379,-0.883751 L 49.3159,13.460016 47.855937,12.000014 49.3159,10.540137 56.972161,2.8838762 Z"
       style="fill:#ffffff;fill-opacity:0.4;stroke:none"
       class="ColorScheme-Text " />
  </g>
  <g
     id="go-up"
     transform="matrix(0.91666667,0,0,0.91666667,-21.41667,0)"
     style="fill:#d6dbf1;fill-opacity:1">
    <rect
       y="0"
       x="115"
       height="24"
       width="24"
       id="rect3096"
       style="opacity:0.01;fill:#d6dbf1;fill-opacity:1;stroke:none" />
    <path
       id="rect4176-2"
       d="M 117.88379,16.911625 117,16.027875 124.65625,8.371625 127,6.027875 l 2.34375,2.34375 7.65625,7.65625 -0.88379,0.88375 -7.65625,-7.65625 -1.45996,-1.46 -1.45996,1.46 z"
       style="fill:#ffffff;fill-opacity:0.4;stroke:none"
       class="ColorScheme-Text" />
  </g>
  <g
     id="go-home">
    <rect
       y="0"
       x="0"
       height="22"
       width="22"
       id="rect2996"
       style="opacity:0.01;fill:#d6dbf1;fill-opacity:1;stroke:none;stroke-width:0.916667" />
    <path
       id="Home_1_"
       class="st0"
       d="m 11,2 -9.6,9.6 0.9,0.9 8.7,-8.7 6,6 V 11 L 11,5 3.8,12.2 v 6.6 h 4.8 v -6 h 4.8 v 6 h 1.8 c 1.65,0 3,-1.35 3,-3 v -3 -0.6 -3 z"
       style="fill:#cdd8e5;fill-opacity:0.40392157;stroke-width:0.3" />
    <path
       id="Home-s"
       class="st1"
       d="M 7.4,3.2 V 4.4 H 6.8 C 6.14,4.4 5.6,4.94 5.6,5.6 V 7.4 L 4.4,8.6 v -3 C 4.4,4.28 5.48,3.2 6.8,3.2 Z M 18.2,16.4 V 12.2 L 17,11 v 5.4 c 0,1.32 -1.08,2.4 -2.4,2.4 H 13.4 V 20 h 1.2 c 1.98,0 3.6,-1.62 3.6,-3.6 z M 8.6,20 V 18.8 H 5 V 20 Z M 17.9,8.9 17,9.8 l 2.7,2.7 0.9,-0.9 z"
       style="fill:#eff0f1;fill-opacity:1;stroke-width:0.3" />
  </g>
</svg>
