<?xml version="1.0" encoding="UTF-8" standalone="no"?>
<svg
   inkscape:version="1.3 (0e150ed6c4, 2023-07-21)"
   sodipodi:docname="image.svg"
   id="svg44"
   version="1.1"
   height="32"
   width="32"
   style="enable-background:new"
   xmlns:inkscape="http://www.inkscape.org/namespaces/inkscape"
   xmlns:sodipodi="http://sodipodi.sourceforge.net/DTD/sodipodi-0.dtd"
   xmlns:xlink="http://www.w3.org/1999/xlink"
   xmlns="http://www.w3.org/2000/svg"
   xmlns:svg="http://www.w3.org/2000/svg"
   xmlns:rdf="http://www.w3.org/1999/02/22-rdf-syntax-ns#"
   xmlns:cc="http://creativecommons.org/ns#"
   xmlns:dc="http://purl.org/dc/elements/1.1/">
  <metadata
     id="metadata48">
    <rdf:RDF>
      <cc:Work
         rdf:about="">
        <dc:format>image/svg+xml</dc:format>
        <dc:type
           rdf:resource="http://purl.org/dc/dcmitype/StillImage" />
      </cc:Work>
    </rdf:RDF>
  </metadata>
  <sodipodi:namedview
     showguides="true"
     inkscape:current-layer="svg44"
     inkscape:window-maximized="1"
     inkscape:window-y="0"
     inkscape:window-x="0"
     inkscape:cy="26.948431"
     inkscape:cx="23.36787"
     inkscape:zoom="7.9596472"
     showgrid="true"
     id="namedview46"
     inkscape:window-height="996"
     inkscape:window-width="1920"
     inkscape:pageshadow="2"
     inkscape:pageopacity="0"
     guidetolerance="10"
     gridtolerance="10"
     objecttolerance="10"
     borderopacity="1"
     bordercolor="#000000"
     pagecolor="#3a3f47"
     inkscape:document-rotation="0"
     inkscape:lockguides="false"
     inkscape:showpageshadow="true"
     inkscape:pagecheckerboard="true"
     inkscape:deskcolor="#3a3f47">
    <inkscape:grid
       type="xygrid"
       id="grid905"
       originx="0"
       originy="-34"
       spacingy="1"
       spacingx="1"
       units="px"
       visible="true" />
  </sodipodi:namedview>
  <defs
     id="defs4">
    <linearGradient
       id="linearGradient5606"
       inkscape:swatch="solid">
      <stop
         style="stop-color:#000000"
         offset="0"
         id="stop5608" />
    </linearGradient>
    <linearGradient
       xlink:href="#1"
       id="9"
       gradientUnits="userSpaceOnUse"
       x1="252.72501"
       y1="388.505"
       x2="255.41499"
       y2="-76.616997"
       gradientTransform="matrix(0.02890894,0,0,0.02711282,8.3449777,8.8451403)" />
    <linearGradient
       id="1">
      <stop
         stop-color="#f9f9f9"
         id="stop2" />
      <stop
         offset="1"
         stop-color="#afafaf"
         id="stop4" />
    </linearGradient>
    <linearGradient
       id="oomox"
       x1="1.4797103"
       x2="1.4797103"
       y1="0.4730846"
       y2="14.665033"
       gradientTransform="matrix(0.94613118,0,0,1.0569359,7.8239662,8.0979799)"
       gradientUnits="userSpaceOnUse">
      <stop
         offset="0%"
         style="stop-color:#303b3d; stop-opacity:1"
         id="stop18" />
      <stop
         offset="100%"
         style="stop-color:#bc985d; stop-opacity:1"
         id="stop20" />
    </linearGradient>
  </defs>
  <g
     id="g34"
     transform="matrix(0,0.23269337,-0.3257329,0,32.286645,-29.331588)">
    <g
       id="g32">
      <g
         id="g30">
        <g
           id="g28">
          <g
             id="g26">
            <g
               id="g24">
              <g
                 id="g22" />
            </g>
          </g>
        </g>
      </g>
    </g>
  </g>
  <g
     id="g52"
     transform="matrix(0,0.23269337,-0.3257329,0,32.286645,-29.331588)">
    <g
       id="g50">
      <g
         id="g48">
        <g
           id="g46">
          <g
             id="g44">
            <g
               id="g42">
              <g
                 id="g40" />
            </g>
          </g>
        </g>
      </g>
    </g>
  </g>
  <g
     id="g70"
     transform="matrix(0,0.23269337,-0.3257329,0,32.286645,-29.331588)">
    <g
       id="g68">
      <g
         id="g66">
        <g
           id="g64">
          <g
             id="g62">
            <g
               id="g60">
              <g
                 id="g58" />
            </g>
          </g>
        </g>
      </g>
    </g>
  </g>
  <g
     id="g88"
     transform="matrix(0,0.23269337,-0.3257329,0,32.286645,-29.331588)">
    <g
       id="g86">
      <g
         id="g84">
        <g
           id="g82">
          <g
             id="g80">
            <g
               id="g78">
              <g
                 id="g76" />
            </g>
          </g>
        </g>
      </g>
    </g>
  </g>
  <g
     id="g106"
     transform="matrix(0,0.23269337,-0.3257329,0,32.286645,-29.331588)">
    <g
       id="g104">
      <g
         id="g102">
        <g
           id="g100">
          <g
             id="g98">
            <g
               id="g96">
              <g
                 id="g94" />
            </g>
          </g>
        </g>
      </g>
    </g>
  </g>
  <g
     id="g128"
     transform="matrix(0,0.23269337,-0.3257329,0,32.286645,-29.331588)">
    <g
       id="g126">
      <g
         id="g124">
        <g
           id="g122">
          <g
             id="g120">
            <g
               id="g118">
              <g
                 id="g116">
                <g
                   id="g114" />
              </g>
            </g>
          </g>
        </g>
      </g>
    </g>
  </g>
  <g
     id="g146"
     transform="matrix(0,0.23269337,-0.3257329,0,32.286645,-29.331588)">
    <g
       id="g144">
      <g
         id="g142">
        <g
           id="g140">
          <g
             id="g138">
            <g
               id="g136">
              <g
                 id="g134">
                <g
                   id="g132" />
              </g>
            </g>
          </g>
        </g>
      </g>
    </g>
  </g>
  <g
     id="image-x-generic">
    <g
       id="g1">
      <rect
         style="opacity:0.00100002"
         width="32"
         height="32"
         x="0"
         y="0"
         id="rect7" />
      <path
         id="Computer"
         class="st0"
         d="M 28.250002,5 H 30 v 16.5 c 0,2.016667 -1.575002,3.666667 -3.499998,3.666667 H 2 V 21.5 H 28.250002 Z M 16.000001,27 Z"
         style="fill:#cdd8e5;fill-opacity:0.403922;stroke-width:0.447794"
         sodipodi:nodetypes="ccssccccccccc" />
      <path
         id="Computer-s"
         class="st1"
         d="M 3.7499999,21.5 H 2 V 8.6666672 C 2,6.65 3.5750002,5 5.4999999,5 H 30 V 6.8333325 H 5.4999999 c -0.9625003,0 -1.75,0.825 -1.75,1.8333347 z m 24.5000021,0 c 0,2.016667 -1.575002,3.666667 -3.500001,3.666667 h -8.75 V 27 h 1.750001 v 0 0 0 0 h 6.999999 C 27.637498,27 30,24.525 30,21.5 Z"
         style="fill:#eff0f1;fill-opacity:1;stroke-width:0.447794"
         sodipodi:nodetypes="ccssccssccscccccccscc" />
      <path
         style="fill:#eff0f1;fill-opacity:1;stroke:none;stroke-width:1.45347;stroke-linecap:round;stroke-miterlimit:4;stroke-dasharray:none;stroke-opacity:1;enable-background:new"
         d="m 13.754369,10.610813 c -0.434936,-0.03217 -0.873992,0.10423 -1.186367,0.436859 L 3.7,20.491318 c 0,1.008685 0,1.008685 0,1.008685 l 20.059036,-2.1e-5 -8.843165,-10.309833 C 14.61905,10.844053 14.189289,10.643094 13.754369,10.610813 Z"
         id="rect2428-36"
         inkscape:connector-curvature="0"
         sodipodi:nodetypes="ccccccc" />
      <path
         style="fill:#cdd8e5;fill-opacity:0.403922;stroke:none;stroke-width:1.44078;stroke-linecap:round;stroke-miterlimit:4;stroke-dasharray:none;stroke-opacity:1;enable-background:new"
         d="m 20.443927,12.339597 c -0.427387,-0.03223 -0.858808,0.104132 -1.165745,0.436844 l -8.049351,8.723695 16.971,2.2e-5 V 20.83191 L 21.585242,12.918936 C 21.293577,12.57281 20.87129,12.371872 20.443927,12.339597 Z"
         id="path2433-7"
         inkscape:connector-curvature="0"
         sodipodi:nodetypes="ccccccc" />
      <ellipse
         style="fill:#eff0f1;fill-opacity:1;stroke:none;stroke-width:1.52266;stroke-linecap:round;stroke-miterlimit:4;stroke-dasharray:none;stroke-opacity:1;enable-background:new"
         id="path2451-5"
         cx="25.523165"
         cy="9.1208458"
         rx="1.1420875"
         ry="1.1208459" />
    </g>
  </g>
  <g
     id="22-22-image-x-generic">
    <rect
       style="opacity:0.00100002"
       width="22"
       height="22"
       x="32"
       y="10"
       id="rect2" />
    <path
       id="Computer-36"
       class="st0"
       d="m 50.704553,14 h 1.113628 v 10.5 c 0,1.283333 -1.002281,2.333333 -2.227278,2.333333 H 34 V 24.5 h 16.704553 z m -7.795454,14 z"
       style="fill:#cdd8e5;fill-opacity:0.403922;stroke-width:0.284968"
       sodipodi:nodetypes="ccssccccccccc" />
    <path
       id="Computer-s-7"
       class="st1"
       d="M 35.11363,24.5 H 34 V 16.333328 C 34,15.05 35.00228,14 36.22728,14 h 15.590901 v 1.166671 H 36.22728 c -0.6125,0 -1.11365,0.525 -1.11365,1.166657 z m 15.590923,0 c 0,1.283333 -1.002273,2.333333 -2.227272,2.333333 H 42.909099 V 28 h 1.113623 v 0 0 0 0 h 4.454559 c 1.837497,0 3.3409,-1.575 3.3409,-3.5 z"
       style="fill:#eff0f1;fill-opacity:1;stroke-width:0.284968"
       sodipodi:nodetypes="ccssccssccscccccccscc" />
    <path
       style="fill:#eff0f1;fill-opacity:1;stroke:none;stroke-width:0.953185;stroke-linecap:round;stroke-miterlimit:4;stroke-dasharray:none;stroke-opacity:1;enable-background:new"
       d="m 41.486694,17.240547 c -0.280609,-0.02148 -0.563868,0.0695 -0.765395,0.291232 L 35,23.827542 c 0,0.672456 0,0.672456 0,0.672456 l 12.94132,-2e-5 -5.705274,-6.873215 C 42.044549,17.396038 41.76728,17.262062 41.486694,17.240547 Z"
       id="rect2428-3-5"
       inkscape:connector-curvature="0"
       sodipodi:nodetypes="ccccccc" />
    <path
       style="fill:#cdd8e5;fill-opacity:0.403922;stroke:none;stroke-width:0.94028;stroke-linecap:round;stroke-miterlimit:4;stroke-dasharray:none;stroke-opacity:1;enable-background:new"
       d="m 45.744964,18.39296 c -0.273061,-0.02151 -0.548703,0.06948 -0.744807,0.291229 l -5.142846,5.815789 10.843,2.1e-5 V 24.0545 L 46.474165,18.779184 C 46.287812,18.54844 46.018009,18.414477 45.744964,18.39296 Z"
       id="path2433-6-6"
       inkscape:connector-curvature="0"
       sodipodi:nodetypes="ccccccc" />
    <circle
       style="fill:#eff0f1;fill-opacity:1;stroke:none;stroke-width:1.00927;stroke-linecap:round;stroke-miterlimit:4;stroke-dasharray:none;stroke-opacity:1;enable-background:new"
       id="path2451-7-2"
       cx="49.092636"
       cy="16.75"
       r="0.75" />
  </g>
</svg>
