<?xml version="1.0" encoding="UTF-8" standalone="no"?>
<svg
   width="32"
   height="32"
   id="svg3869"
   version="1.1"
   viewBox="0 0 32 32.000001"
   sodipodi:docname="input.svg"
   inkscape:version="1.2.2 (b0a8486541, 2022-12-01)"
   xmlns:inkscape="http://www.inkscape.org/namespaces/inkscape"
   xmlns:sodipodi="http://sodipodi.sourceforge.net/DTD/sodipodi-0.dtd"
   xmlns="http://www.w3.org/2000/svg"
   xmlns:svg="http://www.w3.org/2000/svg"
   xmlns:rdf="http://www.w3.org/1999/02/22-rdf-syntax-ns#"
   xmlns:cc="http://creativecommons.org/ns#"
   xmlns:dc="http://purl.org/dc/elements/1.1/">
  <sodipodi:namedview
     pagecolor="#bababa"
     bordercolor="#000000"
     borderopacity="1"
     objecttolerance="10"
     gridtolerance="10"
     guidetolerance="10"
     inkscape:pageopacity="0"
     inkscape:pageshadow="2"
     inkscape:window-width="1920"
     inkscape:window-height="1000"
     id="namedview49"
     showgrid="false"
     inkscape:zoom="2.8284271"
     inkscape:cx="31.819805"
     inkscape:cy="28.461048"
     inkscape:window-x="0"
     inkscape:window-y="0"
     inkscape:window-maximized="1"
     inkscape:current-layer="svg3869"
     inkscape:document-rotation="0"
     inkscape:lockguides="false"
     inkscape:showpageshadow="false"
     inkscape:pagecheckerboard="0"
     inkscape:deskcolor="#bababa">
    <inkscape:grid
       type="xygrid"
       id="grid874"
       originx="-38"
       originy="-96.000161" />
  </sodipodi:namedview>
  <metadata
     id="metadata25">
    <rdf:RDF>
      <cc:Work
         rdf:about="">
        <dc:format>image/svg+xml</dc:format>
        <dc:type
           rdf:resource="http://purl.org/dc/dcmitype/StillImage" />
      </cc:Work>
    </rdf:RDF>
  </metadata>
  <defs
     id="defs3871">
    <style
       type="text/css"
       id="current-color-scheme" />
    <linearGradient
       id="a"
       gradientUnits="userSpaceOnUse"
       x1="41"
       x2="23"
       y1="58"
       y2="6"
       gradientTransform="matrix(0.46153841,0,0,0.46153841,104.17525,-40.961285)">
      <stop
         offset="0"
         stop-color="#848f9a"
         id="stop2" />
      <stop
         offset=".33333299"
         stop-color="#bdc2c7"
         id="stop4" />
      <stop
         offset="1"
         stop-color="#f6f6f6"
         id="stop6" />
    </linearGradient>
    <linearGradient
       id="d"
       gradientUnits="userSpaceOnUse"
       x1="32"
       x2="32"
       y1="6"
       y2="28"
       gradientTransform="matrix(0.46153841,0,0,0.46153841,104.17525,-40.961285)">
      <stop
         offset="0"
         stop-color="#68737e"
         id="stop21" />
      <stop
         offset="1"
         stop-color="#7a8692"
         id="stop23" />
    </linearGradient>
    <linearGradient
       id="c"
       gradientTransform="matrix(-0.46153841,0,0,0.46153841,92.636793,-40.961285)"
       gradientUnits="userSpaceOnUse"
       x1="-60"
       x2="-54"
       y1="22"
       y2="12">
      <stop
         offset="0"
         stop-color="#8e98a2"
         id="stop16" />
      <stop
         offset="1"
         stop-color="#6c7884"
         id="stop18" />
    </linearGradient>
    <linearGradient
       id="e"
       gradientTransform="matrix(-0.46153846,0,0,0.46153846,92.636792,-40.96129)"
       gradientUnits="userSpaceOnUse"
       x1="-55"
       x2="-55"
       y1="22"
       y2="12">
      <stop
         offset="0"
         stop-color="#232629"
         id="stop26" />
      <stop
         offset=".333"
         stop-color="#373d43"
         id="stop28" />
      <stop
         offset=".667"
         stop-color="#565f68"
         id="stop30" />
      <stop
         offset="1"
         stop-color="#474e55"
         id="stop32" />
    </linearGradient>
    <linearGradient
       id="b"
       gradientTransform="matrix(-0.46153846,0,0,0.46153846,92.636792,-40.96129)"
       gradientUnits="userSpaceOnUse"
       x1="-55"
       x2="-55"
       y1="12"
       y2="22">
      <stop
         offset="0"
         stop-color="#54b5e8"
         id="stop9" />
      <stop
         offset=".333"
         stop-color="#8fd9ff"
         id="stop11" />
      <stop
         offset="1"
         stop-color="#369acf"
         id="stop13" />
    </linearGradient>
    <linearGradient
       id="f"
       gradientUnits="userSpaceOnUse"
       x1="21.005859"
       x2="21"
       y1="21.005859"
       y2="58"
       gradientTransform="matrix(0.46153846,0,0,0.46153846,104.17525,-40.96129)">
      <stop
         offset="0"
         stop-color="#565f68"
         id="stop35" />
      <stop
         offset=".5945304"
         stop-color="#68737e"
         id="stop37" />
      <stop
         offset="1"
         stop-color="#424950"
         id="stop39" />
    </linearGradient>
    <linearGradient
       id="a-3"
       gradientUnits="userSpaceOnUse"
       x1="41"
       x2="23"
       y1="58"
       y2="6"
       gradientTransform="matrix(0.30769228,0,0,0.30769228,3.077215,1.153843)">
      <stop
         offset="0"
         stop-color="#848f9a"
         id="stop2-6" />
      <stop
         offset=".33333299"
         stop-color="#bdc2c7"
         id="stop4-7" />
      <stop
         offset="1"
         stop-color="#f6f6f6"
         id="stop6-5" />
    </linearGradient>
    <linearGradient
       id="d-3"
       gradientUnits="userSpaceOnUse"
       x1="32"
       x2="32"
       y1="6"
       y2="28"
       gradientTransform="matrix(0.30769228,0,0,0.30769228,3.077215,1.153843)">
      <stop
         offset="0"
         stop-color="#68737e"
         id="stop21-5" />
      <stop
         offset="1"
         stop-color="#7a8692"
         id="stop23-6" />
    </linearGradient>
    <linearGradient
       id="c-2"
       gradientTransform="matrix(-0.30769228,0,0,0.30769228,-4.615092,1.153843)"
       gradientUnits="userSpaceOnUse"
       x1="-60"
       x2="-54"
       y1="22"
       y2="12">
      <stop
         offset="0"
         stop-color="#8e98a2"
         id="stop16-9" />
      <stop
         offset="1"
         stop-color="#6c7884"
         id="stop18-1" />
    </linearGradient>
    <linearGradient
       id="e-2"
       gradientTransform="matrix(-0.30769232,0,0,0.30769232,-4.615093,1.15384)"
       gradientUnits="userSpaceOnUse"
       x1="-55"
       x2="-55"
       y1="22"
       y2="12">
      <stop
         offset="0"
         stop-color="#232629"
         id="stop26-7" />
      <stop
         offset=".333"
         stop-color="#373d43"
         id="stop28-0" />
      <stop
         offset=".667"
         stop-color="#565f68"
         id="stop30-9" />
      <stop
         offset="1"
         stop-color="#474e55"
         id="stop32-3" />
    </linearGradient>
    <linearGradient
       id="b-6"
       gradientTransform="matrix(-0.30769232,0,0,0.30769232,-4.615093,1.15384)"
       gradientUnits="userSpaceOnUse"
       x1="-55"
       x2="-55"
       y1="12"
       y2="22">
      <stop
         offset="0"
         stop-color="#54b5e8"
         id="stop9-0" />
      <stop
         offset=".333"
         stop-color="#8fd9ff"
         id="stop11-6" />
      <stop
         offset="1"
         stop-color="#369acf"
         id="stop13-2" />
    </linearGradient>
    <linearGradient
       id="f-6"
       gradientUnits="userSpaceOnUse"
       x1="21.005859"
       x2="21"
       y1="21.005859"
       y2="58"
       gradientTransform="matrix(0.30769232,0,0,0.30769232,3.077215,1.15384)">
      <stop
         offset="0"
         stop-color="#565f68"
         id="stop35-1" />
      <stop
         offset=".5945304"
         stop-color="#68737e"
         id="stop37-8" />
      <stop
         offset="1"
         stop-color="#424950"
         id="stop39-7" />
    </linearGradient>
  </defs>
  <g
     id="16-16-input-mouse-battery"
     transform="translate(-341,-393.36217)">
    <path
       id="path4196"
       transform="translate(319,457.36217)"
       d="m -8,82 a 4,4 0 0 0 -4,4 v 4 a 4,4 0 0 0 4,4 4,4 0 0 0 4,-4 v -4 a 4,4 0 0 0 -4,-4 z m 0,1 a 3,3 0 0 1 3,3 v 4 a 3,3 0 0 1 -3,3 3,3 0 0 1 -3,-3 v -4 a 3,3 0 0 1 3,-3 z m 0,1 -2,5 h 2 v 3 l 2,-5 h -2 z"
       style="fill:#eff0f1;fill-opacity:1;stroke:none"
       inkscape:connector-curvature="0" />
    <rect
       style="opacity:1;fill:none"
       id="rect4442"
       width="16"
       height="16"
       x="303"
       y="537.36218" />
  </g>
  <g
     id="input-caps-on"
     transform="translate(-19,-47.999982)">
    <rect
       y="112"
       x="19"
       height="32"
       width="32"
       id="rect978"
       style="opacity:0.00100002;fill-opacity:1;stroke:none;stroke-width:0.713687;stroke-linecap:round;stroke-linejoin:round;stroke-miterlimit:4;stroke-dasharray:none;stroke-opacity:1" />
    <path
       id="Edit"
       class="st0"
       d="m 27,134.99982 v 0.0572 -0.057 0 0 0 0 0 H 42.692245 27 v -16.0002 l 16,1.6e-4 3,-3.00011 L 24.000002,116 v 22.28572 L 41,138.28598 c 1.905464,3e-5 3.3,-1.28616 3.307,-3.28616 z"
       sodipodi:nodetypes="cccccccccccccccscc"
       style="fill:#cdd8e5;fill-opacity:0.40392157;stroke-width:0.425815" />
    <path
       id="Edit-s"
       class="st1"
       d="M 40.923078,138.28572 H 25.692309 V 140 h 15.230769 c 2.792308,0 5.076924,-2.31428 5.076924,-5.14286 V 118.99998 L 44.307694,121.3 44.308,134.99998 c -0.008,2.14268 -1.523383,3.28574 -3.384922,3.28574 z"
       sodipodi:nodetypes="ccccccccc"
       style="fill:#eff0f1;fill-opacity:1;stroke-width:0.425815" />
    <path
       d="m 41.24989,131.49967 h -0.18604 c -0.31506,0 -0.58214,-0.19659 -0.69467,-0.46812 l -3.66993,-9.55441 c -0.003,-0.006 -0.007,-0.0105 -0.0106,-0.0165 -0.021,-0.0525 -0.057,-0.0945 -0.09,-0.141 -0.024,-0.0345 -0.042,-0.0735 -0.072,-0.10356 -0.0256,-0.0256 -0.06,-0.0405 -0.0885,-0.0631 -0.0511,-0.0359 -0.0991,-0.0749 -0.15606,-0.0975 -0.006,-0.003 -0.009,-0.007 -0.0135,-0.009 -0.0316,-0.012 -0.0631,-0.009 -0.0945,-0.0165 -0.0585,-0.0135 -0.11402,-0.03 -0.17406,-0.03 -0.0615,0 -0.11856,0.0165 -0.17708,0.0315 -0.03,0.007 -0.0616,0.003 -0.0915,0.015 -0.002,0 -0.005,0.006 -0.006,0.006 -0.18897,0.075 -0.34805,0.22053 -0.42608,0.42458 l -3.66996,9.55442 c -0.11103,0.27153 -0.37813,0.46812 -0.69318,0.46812 h -0.18604 c -0.41563,0 -0.75019,0.33608 -0.75019,0.75018 0,0.41111 0.33456,0.7502 0.75019,0.7502 h 1.23027 0.0165 1.75248 c 0.41411,0 0.7502,-0.33909 0.7502,-0.7502 0,-0.4141 -0.33609,-0.75018 -0.7502,-0.75018 h -0.14099 c -0.20856,0 -0.3751,-0.16955 -0.3751,-0.3751 0,-0.048 0.008,-0.093 0.024,-0.13655 0.002,-0.003 -0.006,0.005 -0.006,0.002 l 0.38112,-0.99326 h 4.00452 l 0.42609,1.13877 c 10e-4,0.001 0,0.001 0,0.003 0.0616,0.17256 -0.0105,0.36161 -0.16051,0.45011 0,0 0.006,0.005 0.006,0.006 -0.24163,0.12451 -0.40817,0.36756 -0.40817,0.65567 0,0.4111 0.33456,0.75019 0.75019,0.75019 h 1.62045 0.0585 1.32038 c 0.4141,0 0.75019,-0.33909 0.75019,-0.75019 -8e-5,-0.41411 -0.33617,-0.75019 -0.75028,-0.75019 z m -7.03978,-3.00376 1.04273,-2.71719 c 0.002,-0.003 0.003,0.009 0.006,0 0.078,-0.21903 0.31958,-0.33609 0.54011,-0.25804 0.11856,0.042 0.21007,0.13656 0.2521,0.24758 v -0.002 l 1.02322,2.73069 h -2.86422 z"
       id="path2"
       style="fill:#eff0f1;fill-opacity:1;stroke-width:0.021434"
       sodipodi:nodetypes="cscccccccccscccccssssccsssssccccccccssccscccccccccccc" />
  </g>
  <g
     id="input-keyboard"
     transform="translate(0,-95.999972)">
    <rect
       style="fill:none;fill-rule:evenodd;stroke:none;stroke-width:1.45455px;stroke-linecap:butt;stroke-linejoin:miter;stroke-opacity:1"
       id="rect4196"
       width="32"
       height="32"
       x="0"
       y="3.7060545e-07" />
    <path
       id="Keyboard"
       class="st0"
       d="m 2,9.538462 v 16.615384 h 23.625 c 2.406254,0 4.375,-2.076923 4.375,-4.615384 v -12 z m 14.875,3.692307 h 1.75 v 1.846154 h -1.75 z m -3.5,0 h 1.75 v 1.846154 h -1.75 z m 3.5,3.692308 v 1.846154 h -1.75 V 16.923077 Z M 5.5,13.230769 h 2.6249995 v 1.846154 H 5.5 Z m 3.4999996,9.230769 H 7.2499999 V 20.615385 H 8.9999996 Z M 9.875,18.769231 H 5.5 v -1.846154 h 4.375 z m 0,-5.538462 h 1.75 v 1.846154 h -1.75 z m 3.5,3.692308 v 1.846154 h -1.75 v -1.846154 z m 6.124999,5.538461 H 10.75 v -1.846153 h 8.749999 z m 0.875,-3.692307 H 18.625 v -1.846154 h 1.749999 z m 0,-5.538462 H 22.125 v 1.846154 H 20.374999 Z M 23,22.461538 H 21.249999 V 20.615385 H 23 Z m 2.625,-3.692307 h -3.5 v -1.846154 h 3.5 z m 0,-3.692308 h -1.75 v -1.846154 h 1.75 z"
       style="clip-rule:evenodd;fill:#cdd8e5;fill-opacity:0.40392157;fill-rule:evenodd;stroke-width:0.449357" />
    <path
       id="Keyboard-s"
       class="st1"
       d="M 30,11.384615 V 22.461538 C 30,25.507692 27.63749,28 24.75,28 H 3.7499999 V 26.153846 H 24.75 c 1.924999,0 3.5,-1.661538 3.5,-3.692308 V 11.384615 Z M 20.374999,4.9230769 V 4 H 22.125 v 0.9230769 c 0,1.5230769 -1.181256,2.7692308 -2.625001,2.7692308 H 17.75 c -0.481255,0 -0.875,0.4153843 -0.875,0.9230773 v 0.923077 h -1.75 V 8.615385 c 0,-1.5230773 1.181255,-2.7692312 2.625,-2.7692312 h 1.749999 c 0.481256,0 0.875,-0.4153846 0.875,-0.9230769 z"
       style="clip-rule:evenodd;fill:#eff0f1;fill-opacity:1;fill-rule:evenodd;stroke-width:0.449357" />
  </g>
  <g
     id="input-keyboard-virtual-on"
     transform="translate(0,-63.999982)">
    <rect
       style="fill:none;fill-rule:evenodd;stroke:none;stroke-width:1.45455px;stroke-linecap:butt;stroke-linejoin:miter;stroke-opacity:1"
       id="rect4192"
       width="32"
       height="32"
       x="0"
       y="0" />
    <path
       id="path8-9"
       d="M 6.0833333,4 A 2.9166662,2.926812 0 0 0 3.1666667,6.9268278 2.9166662,2.926812 0 0 0 6.0833333,9.853658 2.9166662,2.926812 0 0 0 9,6.9268278 2.9166662,2.926812 0 0 0 6.0833333,4 Z"
       style="fill:#3daee9;fill-opacity:1;stroke:none;stroke-width:1.69993"
       inkscape:connector-curvature="0" />
    <path
       id="Keyboard-3"
       class="st0"
       d="m 2,10.889307 v 15.399622 h 23.625 c 2.40625,0 4.375,-1.924951 4.375,-4.277672 v -11.12195 z m 14.875,3.422137 h 1.75 v 1.711071 h -1.75 z m -3.5,0 h 1.75 v 1.711071 h -1.75 z m 3.5,3.422142 v 1.711071 h -1.75 V 17.733586 Z M 5.5,14.311444 h 2.625 v 1.711071 H 5.5 Z M 9,22.866793 H 7.25 V 21.155722 H 9 Z M 9.875,19.444657 H 5.5 v -1.711071 h 4.375 z m 0,-5.133213 h 1.75 v 1.711071 h -1.75 z m 3.5,3.422142 v 1.711071 h -1.75 v -1.711071 z m 6.125,5.133207 h -8.75 v -1.711071 h 8.75 z m 0.875,-3.422136 h -1.75 v -1.711071 h 1.75 z m 0,-5.133213 h 1.75 v 1.711071 h -1.75 z M 23,22.866793 H 21.25 V 21.155722 H 23 Z m 2.625,-3.422136 h -3.5 v -1.711071 h 3.5 z m 0,-3.422142 h -1.75 v -1.711071 h 1.75 z"
       style="clip-rule:evenodd;fill:#cdd8e5;fill-opacity:0.40392157;fill-rule:evenodd;stroke-width:0.432606" />
    <path
       id="Keyboard-s-6"
       class="st1"
       d="M 30,12.600379 V 22.866793 C 30,25.690058 27.637499,28 24.75,28 h -21 v -1.711071 h 21 c 1.925,0 3.5,-1.539963 3.5,-3.422136 V 12.600379 Z M 20.375,6.6116341 V 5.7560997 h 1.75 v 0.8555344 c 0,1.4116325 -1.18125,2.5666039 -2.625,2.5666039 h -1.75 c -0.48125,0 -0.875,0.384993 -0.875,0.855534 v 0.855535 h -1.75 v -0.855535 c 0,-1.4116311 1.18125,-2.5666029 2.625,-2.5666029 h 1.75 c 0.48125,0 0.875,-0.3849905 0.875,-0.855535 z"
       style="clip-rule:evenodd;fill:#eff0f1;fill-opacity:1;fill-rule:evenodd;stroke-width:0.432606" />
  </g>
  <g
     id="input-keyboard-virtual-off"
     transform="translate(0,-31.999982)">
    <rect
       style="fill:none;fill-rule:evenodd;stroke:none;stroke-width:1.45455px;stroke-linecap:butt;stroke-linejoin:miter;stroke-opacity:1"
       id="rect4176"
       width="32"
       height="32"
       x="0"
       y="0" />
    <path
       id="Keyboard-35"
       class="st0"
       d="M 2,9.538462 V 26.15385 h 23.625 c 2.40625,0 4.375,-2.076926 4.375,-4.615389 V 9.538462 Z m 14.875,3.692315 h 1.75 v 1.846148 h -1.75 z m -3.5,0 h 1.75 v 1.846148 h -1.75 z m 3.5,3.692297 v 1.846149 h -1.75 V 16.923074 Z M 5.5,13.230745 h 2.625 v 1.84618 H 5.5 Z M 9,22.461537 H 7.25 v -1.84615 H 9 Z M 9.875,18.769223 H 5.5 v -1.846149 h 4.375 z m 0,-5.538446 h 1.75 v 1.846148 h -1.75 z m 3.5,3.692297 v 1.846149 h -1.75 v -1.846149 z m 6.125,5.538463 h -8.75 v -1.84615 h 8.75 z m 0.875,-3.692314 h -1.75 v -1.846149 h 1.75 z m 0,-5.538446 h 1.75 v 1.846148 h -1.75 z M 23,22.461537 h -1.75 v -1.84615 H 23 Z m 2.625,-3.692314 h -3.5 v -1.846149 h 3.5 z m 0,-3.692298 h -1.75 v -1.846148 h 1.75 z"
       style="clip-rule:evenodd;fill:#bf616a;fill-opacity:1;fill-rule:evenodd;stroke-width:0.449359" />
    <path
       id="Keyboard-s-62"
       class="st1"
       d="M 30,11.384613 V 22.461537 C 30,25.507688 27.6375,28 24.75,28 h -21 v -1.84615 h 21 c 1.925,0 3.5,-1.661538 3.5,-3.692313 V 11.384613 Z M 20.375,4.9230746 V 4 h 1.75 v 0.9230746 c 0,1.5230785 -1.18125,2.7692374 -2.625,2.7692374 h -1.75 c -0.48125,0 -0.875,0.41538 -0.875,0.923074 v 0.923076 h -1.75 V 8.615386 c 0,-1.5230786 1.18125,-2.7692317 2.625,-2.7692317 h 1.75 c 0.48125,0 0.875,-0.4153849 0.875,-0.9230797 z"
       style="clip-rule:evenodd;fill:#eff0f1;fill-opacity:1;fill-rule:evenodd;stroke-width:0.449359" />
  </g>
  <g
     id="input-mouse-battery"
     transform="translate(0,128)">
    <g
       id="g1627"
       transform="translate(0,-223.99998)">
      <rect
         style="fill:none"
         id="rect4378-6"
         width="32"
         height="32"
         x="0"
         y="223.99998"
         ry="0" />
    </g>
    <path
       id="Mouse_1_"
       class="st0"
       d="M 22,9.99993 H 8.5 v 16.5 h 8.25 c 3.7125,0 6.75,-3.0375 6.75,-6.75 v -11.25 H 22 Z"
       style="fill:#cdd8e5;fill-opacity:0.40392157;stroke-width:0.375" />
    <path
       id="Mouse-s"
       class="st1"
       d="m 15.25,15.99993 v -4.5 h 1.5 v 4.5 z m 6.75,4.5 v -10.5 h 1.5 v 10.5 c 0,4.125 -3.375,7.5 -7.5,7.5 h -6 v -1.5 h 6 c 3.3,0 6,-2.7 6,-6 z m -2.25,-15.75 v -0.75 h 1.5 v 0.75 c 0,1.2375 -1.0125,2.25 -2.25,2.25 h -1.5 c -0.4125,0 -0.75,0.3375 -0.75,0.75 v 0.75 h -1.5 v -0.75 c 0,-1.2375 1.0125,-2.25 2.25,-2.25 H 19 c 0.4125,0 0.75,-0.3375 0.75,-0.75 z"
       style="clip-rule:evenodd;fill:#eff0f1;fill-opacity:1;fill-rule:evenodd;stroke-width:0.375" />
  </g>
  <g
     id="22-22-input-keyboard"
     transform="translate(-22,-85.999982)">
    <rect
       y="0"
       x="0"
       height="22"
       width="22"
       id="rect4147"
       style="fill:none;fill-rule:evenodd;stroke:none;stroke-width:1px;stroke-linecap:butt;stroke-linejoin:miter;stroke-opacity:1" />
    <path
       id="Keyboard-36"
       class="st0"
       d="m 1,6.69231 v 11.07692 h 16.875 c 1.71875,0 3.125,-1.38461 3.125,-3.07692 v -8 z M 11.624999,9.15385 H 12.875 v 1.23077 h -1.250001 z m -2.4999991,0 H 10.375 v 1.23077 H 9.1249999 Z m 2.4999991,2.46153 v 1.23077 H 10.375 V 11.61538 Z M 3.4999995,9.15385 h 1.8750001 v 1.23077 H 3.4999995 Z M 6,15.30769 H 4.7500003 V 14.07692 H 6 Z M 6.6250004,12.84615 H 3.4999995 v -1.23077 h 3.1250009 z m 0,-3.6923 h 1.2499997 v 1.23077 H 6.6250004 Z m 2.4999995,2.46153 v 1.23077 H 7.8750001 v -1.23077 z m 4.3749991,3.69231 H 7.2499997 V 14.07692 H 13.499999 Z M 14.125,12.84615 h -1.25 v -1.23077 h 1.25 z m 0,-3.6923 h 1.25 v 1.23077 h -1.25 z M 16,15.30769 H 14.75 V 14.07692 H 16 Z m 1.875,-2.46154 h -2.5 v -1.23077 h 2.5 z m 0,-2.46153 H 16.624999 V 9.15385 H 17.875 Z"
       style="clip-rule:evenodd;fill:#cdd8e5;fill-opacity:0.40392157;fill-rule:evenodd;stroke-width:0.310086" />
    <path
       id="Keyboard-s-7"
       class="st1"
       d="m 21,7.92308 v 7.38461 C 21,17.33846 19.312498,19 17.25,19 H 2.2499997 V 17.76923 H 17.25 c 1.375,0 2.499999,-1.10769 2.499999,-2.46154 V 7.92308 Z M 14.125,3.61538 V 3 h 1.25 v 0.61538 c 0,1.01539 -0.843751,1.84616 -1.875001,1.84616 H 12.25 c -0.343751,0 -0.625001,0.27692 -0.625001,0.61538 V 6.69231 H 10.375 V 6.07692 c 0,-1.01538 0.84375,-1.84615 1.875,-1.84615 h 1.249999 c 0.343752,0 0.625001,-0.27692 0.625001,-0.61539 z"
       style="clip-rule:evenodd;fill:#eff0f1;fill-opacity:1;fill-rule:evenodd;stroke-width:0.310086" />
  </g>
  <g
     id="22-22-input-keyboard-virtual-on"
     transform="translate(-22,-53.999982)">
    <rect
       y="0"
       x="0"
       height="22"
       width="22"
       id="rect4140"
       style="fill:none;fill-opacity:1;stroke:none;stroke-linejoin:bevel" />
    <path
       id="path8-9-7"
       d="M 4.625,2.2 A 1.8749996,1.9047499 0 0 0 2.75,4.10476 1.8749996,1.9047499 0 0 0 4.625,6.009522 1.8749996,1.9047499 0 0 0 6.5,4.10476 1.8749996,1.9047499 0 0 0 4.625,2.2 Z"
       style="fill:#3daee9;fill-opacity:1;stroke:none;stroke-width:1.09954"
       inkscape:connector-curvature="0" />
    <path
       id="Keyboard-3-3"
       class="st0"
       d="M 1,6.6923074 V 17.769229 H 17.875001 C 19.59375,17.769229 21,16.384615 21,14.692307 V 6.6923074 Z m 10.625,2.4615368 h 1.25 v 1.2307698 h -1.25 z m -2.5,0 h 1.25 v 1.2307698 h -1.25 z m 2.5,2.4615408 v 1.230771 h -1.25 V 11.615385 Z M 3.5,9.1538442 H 5.375001 V 10.384614 H 3.5 Z M 6,15.307692 H 4.75 v -1.23077 H 6 Z M 6.625,12.846156 H 3.5 v -1.230771 h 3.125 z m 0,-3.6923118 h 1.25 v 1.2307698 h -1.25 z m 2.5,2.4615408 v 1.230771 H 7.875 V 11.615385 Z M 13.5,15.307692 H 7.25 v -1.23077 h 6.25 z m 0.625,-2.461536 h -1.25 v -1.230771 h 1.25 z m 0,-3.6923118 h 1.250001 V 10.384614 H 14.125 Z M 16,15.307692 h -1.25 v -1.23077 H 16 Z m 1.875001,-2.461536 h -2.5 v -1.230771 h 2.5 z m 0,-2.461542 H 16.625 V 9.1538442 h 1.250001 z"
       style="clip-rule:evenodd;fill:#cdd8e5;fill-opacity:0.40392157;fill-rule:evenodd;stroke-width:0.310088" />
    <path
       id="Keyboard-s-6-5"
       class="st1"
       d="M 21,7.9230779 V 15.307692 C 21,17.338463 19.312499,19 17.25,19 h -15 v -1.230771 h 15 c 1.375,0 2.5,-1.107692 2.5,-2.461537 V 7.9230779 Z M 14.125,3.615384 V 3 h 1.250001 v 0.615384 c 0,1.015386 -0.843751,1.846155 -1.875001,1.846155 h -1.25 c -0.343749,0 -0.625,0.2769242 -0.625,0.6153831 v 0.6153853 h -1.25 V 6.0769221 C 10.375,5.061539 11.21875,4.23077 12.25,4.23077 h 1.25 c 0.34375,0 0.625,-0.276924 0.625,-0.615386 z"
       style="clip-rule:evenodd;fill:#eff0f1;fill-opacity:1;fill-rule:evenodd;stroke-width:0.310088" />
  </g>
  <g
     id="22-22-input-keyboard-virtual-off"
     transform="translate(-22,-21.999982)">
    <rect
       style="fill:none;fill-opacity:1;stroke:none;stroke-linejoin:bevel"
       id="rect4172"
       width="22"
       height="22"
       x="0"
       y="0" />
    <path
       id="Keyboard-35-6"
       class="st0"
       d="M 1,6.6923074 V 17.769229 h 16.875 c 1.71875,0 3.125,-1.384614 3.125,-3.076922 V 6.6923074 Z m 10.625,2.4615377 h 1.25 v 1.2307699 h -1.25 z m -2.500001,0 H 10.375 V 10.384615 H 9.124999 Z M 11.625,11.615385 v 1.23077 h -1.25 v -1.23077 z M 3.5,9.153835 h 1.875001 v 1.23078 H 3.5 Z M 6,15.307693 H 4.75 V 14.076922 H 6 Z M 6.625,12.846155 H 3.5 v -1.23077 h 3.125 z m 0,-3.6923099 h 1.25 v 1.2307699 h -1.25 z m 2.499999,2.4615399 v 1.23077 H 7.875 v -1.23077 z M 13.5,15.307693 H 7.25 v -1.230771 h 6.25 z m 0.625,-2.461538 h -1.25 v -1.23077 h 1.25 z m 0,-3.6923099 h 1.25 v 1.2307699 h -1.25 z M 16,15.307693 H 14.75 V 14.076922 H 16 Z m 1.875,-2.461538 h -2.5 v -1.23077 h 2.5 z m 0,-2.46154 h -1.25 V 9.1538451 h 1.25 z"
       style="clip-rule:evenodd;fill:#bf616a;fill-opacity:1;fill-rule:evenodd;stroke-width:0.310088" />
    <path
       id="Keyboard-s-62-2"
       class="st1"
       d="M 21,7.9230779 V 15.307693 C 21,17.338463 19.3125,19 17.25,19 h -15 v -1.230771 h 15 c 1.375,0 2.5,-1.107692 2.5,-2.461536 V 7.9230779 Z M 14.125,3.6153836 V 3 h 1.25 v 0.6153836 c 0,1.0153852 -0.84375,1.8461549 -1.875,1.8461549 h -1.25 c -0.343749,0 -0.625,0.276928 -0.625,0.6153828 v 0.6153861 h -1.25 V 6.0769213 c 0,-1.0153828 0.84375,-1.8461516 1.875,-1.8461516 h 1.25 c 0.343749,0 0.625,-0.276923 0.625,-0.6153861 z"
       style="clip-rule:evenodd;fill:#eff0f1;fill-opacity:1;fill-rule:evenodd;stroke-width:0.310088" />
  </g>
  <g
     id="22-22-input-mouse-battery"
     transform="translate(-22,138.00001)">
    <rect
       style="fill:none"
       width="22"
       height="22"
       x="0"
       y="1.661377e-07"
       ry="0"
       id="rect8" />
    <path
       id="Mouse_1_-9"
       class="st0"
       d="M 15,6.9999 H 6 v 11 h 5.5 c 2.475,0 4.5,-2.025 4.5,-4.5 v -7.5 h -1 z"
       style="fill:#cdd8e5;fill-opacity:0.40392157;stroke-width:0.25" />
    <path
       id="Mouse-s-1"
       class="st1"
       d="m 10.5,10.9999 v -3 h 1 v 3 z m 4.5,3 v -7 h 1 v 7 c 0,2.75 -2.25,5 -5,5 H 7 v -1 h 4 c 2.2,0 4,-1.8 4,-4 z m -1.5,-10.5 v -0.5 h 1 v 0.5 c 0,0.825 -0.675,1.5 -1.5,1.5 h -1 c -0.275,0 -0.5,0.225 -0.5,0.5 v 0.5 h -1 v -0.5 c 0,-0.825 0.675,-1.5 1.5,-1.5 h 1 c 0.275,0 0.5,-0.225 0.5,-0.5 z"
       style="clip-rule:evenodd;fill:#eff0f1;fill-opacity:1;fill-rule:evenodd;stroke-width:0.25" />
    <path
       style="fill:#bf616a;fill-opacity:1;stroke:none;stroke-width:0.75"
       d="m 11,11.7499 -1.5,3.75 H 11 v 2.25 l 1.5,-3.75 H 11 Z"
       id="path12-2"
       inkscape:connector-curvature="0" />
  </g>
  <g
     id="input-keyboard-brightness">
    <rect
       ry="0"
       y="-4.2773436e-06"
       x="0"
       height="32"
       width="32"
       id="rect4266"
       style="fill:none" />
    <path
       style="fill:#3daee9;fill-opacity:1;stroke:none"
       d="m 24,3.49999 c -0.277,0 -0.5,0.223 -0.5,0.5 v 1 c 0,0.277 0.223,0.5 0.5,0.5 0.277,0 0.5,-0.223 0.5,-0.5 v -1 c 0,-0.277 -0.223,-0.5 -0.5,-0.5 z m -3.181641,1.318359 c -0.127809,0 -0.255581,0.04855 -0.353515,0.146485 -0.195869,0.195868 -0.195869,0.511162 0,0.707031 l 0.707031,0.707031 c 0.195869,0.195869 0.511163,0.195869 0.707031,0 0.195869,-0.195868 0.195869,-0.511162 0,-0.707031 L 21.171875,4.964834 C 21.073945,4.866904 20.946169,4.818349 20.818359,4.818349 Z m 6.363281,0 c -0.12781,0 -0.25558,0.04855 -0.35352,0.146485 l -0.70703,0.707031 c -0.19586,0.195869 -0.19586,0.511163 0,0.707031 0.19587,0.195869 0.51117,0.195869 0.70703,0 l 0.70704,-0.707031 c 0.19586,-0.195869 0.19586,-0.511163 0,-0.707031 -0.0979,-0.09793 -0.22571,-0.146485 -0.35352,-0.146485 z M 24,6.49999 c -1.104569,0 -2,0.895431 -2,2 0,1.104569 0.895431,2 2,2 1.10457,0 2,-0.895431 2,-2 0,-1.104569 -0.89543,-2 -2,-2 z m 0,1 v 2 c -0.552285,0 -1,-0.447715 -1,-1 0,-0.552285 0.447715,-1 1,-1 z m -4.5,0.5 c -0.277,0 -0.5,0.223 -0.5,0.5 0,0.277 0.223,0.5 0.5,0.5 h 1 c 0.277,0 0.5,-0.223 0.5,-0.5 0,-0.277 -0.223,-0.5 -0.5,-0.5 z m 8,0 c -0.277,0 -0.5,0.223 -0.5,0.5 0,0.277 0.223,0.5 0.5,0.5 h 1 c 0.277,0 0.5,-0.223 0.5,-0.5 0,-0.277 -0.223,-0.5 -0.5,-0.5 z m -5.974609,2.474609 c -0.12781,0 -0.255582,0.04855 -0.353516,0.146485 l -0.707031,0.707031 c -0.195869,0.195869 -0.195869,0.511163 0,0.707031 0.195868,0.195869 0.511162,0.195869 0.707031,0 l 0.707031,-0.707031 c 0.195869,-0.195869 0.195869,-0.511163 0,-0.707031 -0.09793,-0.09793 -0.225706,-0.146485 -0.353515,-0.146485 z m 4.949219,0 c -0.12781,0 -0.25558,0.04855 -0.35352,0.146485 -0.19586,0.195868 -0.19586,0.511162 0,0.707031 l 0.70703,0.707031 c 0.19587,0.195869 0.51117,0.195869 0.70704,0 0.19586,-0.195868 0.19586,-0.511162 0,-0.707031 l -0.70704,-0.707031 c -0.0979,-0.09793 -0.2257,-0.146485 -0.35351,-0.146485 z M 24,11.49999 c -0.277,0 -0.5,0.223 -0.5,0.5 v 1 c 0,0.277 0.223,0.5 0.5,0.5 0.277,0 0.5,-0.223 0.5,-0.5 v -1 c 0,-0.277 -0.223,-0.5 -0.5,-0.5 z"
       id="path4274"
       inkscape:connector-curvature="0" />
    <path
       id="Edit-7"
       class="st0"
       d="m 8.384615,22.85727 v 0 0 0 0 0 0 0 L 23.692243,23.00378 8.384615,22.85727 V 7.40013 H 17 L 20,4 5,4.00013 v 22.28572 h 17.76923 c 1.896038,0 2.682434,-3.27284 2.682434,-3.27284 z"
       sodipodi:nodetypes="cccccccccccccccscc"
       style="fill:#cdd8e5;fill-opacity:0.40392157;stroke-width:0.425815" />
    <path
       id="Edit-s-6"
       class="st1"
       d="M 21.923078,26.28585 H 6.692309 v 1.71428 h 15.230769 c 2.792308,0 5.076924,-2.31428 5.076924,-5.14286 V 13 l -1.692308,2 v 7.85727 c 0,1.88572 -1.523077,3.42858 -3.384616,3.42858 z"
       sodipodi:nodetypes="ccccccccc"
       style="fill:#eff0f1;fill-opacity:1;stroke-width:0.425815" />
    <path
       d="m 22.04989,19.79982 h -0.18604 c -0.31506,0 -0.58214,-0.19659 -0.69467,-0.46812 L 17.49925,9.77729 c -0.003,-0.006 -0.007,-0.0105 -0.0106,-0.0165 -0.021,-0.0525 -0.057,-0.0945 -0.09,-0.141 -0.024,-0.0345 -0.042,-0.0735 -0.072,-0.10356 -0.0256,-0.0256 -0.06,-0.0405 -0.0885,-0.0631 -0.0511,-0.0359 -0.0991,-0.0749 -0.15606,-0.0975 -0.006,-0.003 -0.009,-0.007 -0.0135,-0.009 -0.0316,-0.012 -0.0631,-0.009 -0.0945,-0.0165 -0.0585,-0.0135 -0.11402,-0.03 -0.17406,-0.03 -0.0615,0 -0.11856,0.0165 -0.17708,0.0315 -0.03,0.007 -0.0616,0.003 -0.0915,0.015 -0.002,0 -0.005,0.006 -0.006,0.006 -0.18897,0.075 -0.34805,0.22053 -0.42608,0.42458 l -3.66996,9.55442 c -0.11103,0.27153 -0.37813,0.46812 -0.69318,0.46812 h -0.18604 c -0.41563,0 -0.75019,0.33608 -0.75019,0.75018 0,0.41111 0.33456,0.7502 0.75019,0.7502 h 1.23027 0.0165 1.75248 c 0.41411,0 0.7502,-0.33909 0.7502,-0.7502 0,-0.4141 -0.33609,-0.75018 -0.7502,-0.75018 h -0.14099 c -0.20856,0 -0.3751,-0.16955 -0.3751,-0.3751 0,-0.048 0.008,-0.093 0.024,-0.13655 0.002,-0.003 -0.006,0.005 -0.006,0.002 l 0.38112,-0.99326 h 4.00452 l 0.42609,1.13877 c 0.001,0.001 0,0.001 0,0.003 0.0616,0.17256 -0.0105,0.36161 -0.16051,0.45011 0,0 0.006,0.005 0.006,0.006 -0.24163,0.12451 -0.40817,0.36756 -0.40817,0.65567 0,0.4111 0.33456,0.75019 0.75019,0.75019 h 1.62045 0.0585 1.32038 c 0.4141,0 0.75019,-0.33909 0.75019,-0.75019 -8e-5,-0.41411 -0.33617,-0.75019 -0.75028,-0.75019 z m -7.03978,-3.00376 1.04273,-2.71719 c 0.002,-0.003 0.003,0.009 0.006,0 0.078,-0.21903 0.31958,-0.33609 0.54011,-0.25804 0.11856,0.042 0.21007,0.13656 0.2521,0.24758 v -0.002 l 1.02322,2.73069 h -2.86422 z"
       id="path2-7"
       style="fill:#eff0f1;fill-opacity:1;stroke-width:0.021434"
       sodipodi:nodetypes="cscccccccccscccccssssccsssssccccccccssccscccccccccccc" />
  </g>
  <g
     id="input-keyboard-battery"
     transform="translate(-22,106)">
    <rect
       style="fill:none"
       id="rect4378"
       width="32"
       height="32"
       x="22"
       y="-74"
       ry="0" />
    <path
       id="Edit-7-2"
       class="st0"
       d="m 30.384615,-51.142728 v 0 0 0 0 0 0 0 l 15.307628,0.14651 -15.307628,-0.14651 v -15.45714 H 39 l 2.4,-3.40013 -14.4,1.3e-4 v 22.28572 h 17.76923 c 1.896038,0 2.682434,-3.27284 2.682434,-3.27284 z"
       sodipodi:nodetypes="cccccccccccccccscc"
       style="fill:#cdd8e5;fill-opacity:0.40392157;stroke-width:0.425815" />
    <path
       id="Edit-s-6-9"
       class="st1"
       d="M 43.923078,-47.714148 H 28.692309 v 1.71428 h 15.230769 c 2.792308,0 5.076924,-2.31428 5.076924,-5.14286 v -9.85727 l -1.692308,2.5 v 7.35727 c 0,1.88572 -1.523077,3.42858 -3.384616,3.42858 z"
       sodipodi:nodetypes="ccccccccc"
       style="fill:#eff0f1;fill-opacity:1;stroke-width:0.425815" />
    <path
       d="m 44.04989,-54.200178 h -0.18604 c -0.31506,0 -0.58214,-0.19659 -0.69467,-0.46812 l -3.66993,-9.55441 c -0.003,-0.006 -0.007,-0.0105 -0.0106,-0.0165 -0.021,-0.0525 -0.057,-0.0945 -0.09,-0.141 -0.024,-0.0345 -0.042,-0.0735 -0.072,-0.10356 -0.0256,-0.0256 -0.06,-0.0405 -0.0885,-0.0631 -0.0511,-0.0359 -0.0991,-0.0749 -0.15606,-0.0975 -0.006,-0.003 -0.009,-0.007 -0.0135,-0.009 -0.0316,-0.012 -0.0631,-0.009 -0.0945,-0.0165 -0.0585,-0.0135 -0.11402,-0.03 -0.17406,-0.03 -0.0615,0 -0.11856,0.0165 -0.17708,0.0315 -0.03,0.007 -0.0616,0.003 -0.0915,0.015 -0.002,0 -0.005,0.006 -0.006,0.006 -0.18897,0.075 -0.34805,0.22053 -0.42608,0.42458 l -3.66996,9.55442 c -0.11103,0.27153 -0.37813,0.46812 -0.69318,0.46812 h -0.18604 c -0.41563,0 -0.75019,0.33608 -0.75019,0.75018 0,0.41111 0.33456,0.7502 0.75019,0.7502 h 1.23027 0.0165 1.75248 c 0.41411,0 0.7502,-0.33909 0.7502,-0.7502 0,-0.4141 -0.33609,-0.75018 -0.7502,-0.75018 h -0.14099 c -0.20856,0 -0.3751,-0.16955 -0.3751,-0.3751 0,-0.048 0.008,-0.093 0.024,-0.13655 0.002,-0.003 -0.006,0.005 -0.006,0.002 l 0.38112,-0.99326 h 4.00452 l 0.42609,1.13877 c 0.001,10e-4 0,10e-4 0,0.003 0.0616,0.17256 -0.0105,0.36161 -0.16051,0.45011 0,0 0.006,0.005 0.006,0.006 -0.24163,0.12451 -0.40817,0.36756 -0.40817,0.65567 0,0.4111 0.33456,0.75019 0.75019,0.75019 h 1.62045 0.0585 1.32038 c 0.4141,0 0.75019,-0.33909 0.75019,-0.75019 -8e-5,-0.41411 -0.33617,-0.75019 -0.75028,-0.75019 z m -7.03978,-3.00376 1.04273,-2.71719 c 0.002,-0.003 0.003,0.009 0.006,0 0.078,-0.21903 0.31958,-0.33609 0.54011,-0.25804 0.11856,0.042 0.21007,0.13656 0.2521,0.24758 v -0.002 l 1.02322,2.73069 h -2.86422 z"
       id="path2-7-3"
       style="fill:#eff0f1;fill-opacity:1;stroke-width:0.021434"
       sodipodi:nodetypes="cscccccccccscccccssssccsssssccccccccssccscccccccccccc" />
    <path
       style="fill:#eff0f1;fill-opacity:1;stroke:none;stroke-width:1.39194"
       d="m 45.9,-69.999998 -3.9,6.25 h 3.1 l -0.8,3.75 3.9,-6.25 h -3.1 z"
       id="path12-2-9"
       inkscape:connector-curvature="0"
       sodipodi:nodetypes="ccccccc" />
  </g>
  <g
     id="input-num-on"
     transform="translate(0,95.999998)">
    <rect
       style="opacity:0.00100002;fill-opacity:1;stroke:none;stroke-width:0.713687;stroke-linecap:round;stroke-linejoin:round;stroke-miterlimit:4;stroke-dasharray:none;stroke-opacity:1"
       id="rect984"
       width="32"
       height="32"
       x="0"
       y="0" />
    <path
       id="Edit-39"
       class="st0"
       d="m 8.384615,22.85727 v 0 0 0 0 0 0 0 L 23.692243,23.00378 8.384615,22.85727 V 7.40013 H 23.999998 L 26.999998,4 5,4.00013 v 22.28572 h 17.76923 c 1.896038,0 2.682434,-3.27284 2.682434,-3.27284 z"
       sodipodi:nodetypes="cccccccccccccccscc"
       style="fill:#cdd8e5;fill-opacity:0.40392157;stroke-width:0.425815" />
    <path
       id="Edit-s-4"
       class="st1"
       d="M 21.923076,26.28585 H 6.692307 v 1.71428 H 21.923076 C 24.715384,28.00013 27,25.68585 27,22.85727 V 7.30013 l -1.692308,2 v 13.55714 c 0,1.88572 -1.523077,3.42858 -3.384616,3.42858 z"
       sodipodi:nodetypes="ccccccccc"
       style="fill:#eff0f1;fill-opacity:1;stroke-width:0.425815" />
    <path
       d="m 19.474838,19.099606 h -1.499921 v -8.624602 c 0,-0.298576 -0.11853,-0.584603 -0.32947,-0.795539 C 17.434517,9.46853 17.148238,9.35 16.849908,9.35 h -2.62492 c -0.40204,0 -0.77343,0.214451 -0.97432,0.562502 -0.200891,0.348051 -0.200891,0.77696 0,1.125004 0.20089,0.348051 0.57229,0.562502 0.97432,0.562502 h 1.49992 v 7.500241 h -1.49992 v -2.57e-4 c -0.40204,0 -0.77343,0.214451 -0.97432,0.562502 -0.200891,0.348051 -0.200891,0.77696 0,1.125004 0.20089,0.348051 0.57229,0.562502 0.97432,0.562502 h 5.2501 -2.5e-4 c 0.402029,0 0.77342,-0.214451 0.974309,-0.562502 0.200901,-0.348051 0.200901,-0.77696 0,-1.125004 -0.20089,-0.348051 -0.572289,-0.562502 -0.974309,-0.562502 z"
       id="path6"
       style="fill:#eff0f1;fill-opacity:1;stroke-width:0.0642859" />
  </g>
  <g
     id="22-22-input-keyboard-brightness"
     transform="translate(-22,10.000008)">
    <rect
       ry="0"
       y="2.6171874e-06"
       x="0"
       height="22"
       width="22"
       style="fill:none"
       id="rect20" />
    <path
       style="fill:#3daee9;fill-opacity:1;stroke:none;stroke-width:0.632451"
       d="m 15.374999,3.399994 c -0.173124,0 -0.312498,0.142718 -0.312498,0.319996 v 0.639992 c 0,0.177278 0.139374,0.319997 0.312498,0.319997 0.173126,0 0.312501,-0.142719 0.312501,-0.319997 V 3.71999 c 0,-0.177278 -0.139375,-0.319996 -0.312501,-0.319996 z m -1.988526,0.84374 c -0.07989,0 -0.159738,0.03107 -0.220946,0.09375 -0.122418,0.125354 -0.122418,0.32714 0,0.452494 l 0.441894,0.452495 c 0.122419,0.125354 0.319476,0.125354 0.441895,0 0.122418,-0.125354 0.122418,-0.32714 0,-0.452495 L 13.607421,4.337484 c -0.0612,-0.06267 -0.141064,-0.09375 -0.220948,-0.09375 z m 3.977052,0 c -0.07989,0 -0.159738,0.03107 -0.22095,0.09375 l -0.441896,0.452494 c -0.12241,0.125355 -0.12241,0.327141 0,0.452495 0.122421,0.125354 0.319483,0.125354 0.441896,0 l 0.4419,-0.452495 c 0.122411,-0.125354 0.122411,-0.32714 0,-0.452494 -0.06119,-0.06267 -0.141069,-0.09375 -0.22095,-0.09375 z m -1.988526,1.076237 c -0.690355,0 -1.249999,0.573069 -1.249999,1.279985 0,0.706915 0.559644,1.279984 1.249999,1.279984 0.690357,0 1.250001,-0.573069 1.250001,-1.279984 0,-0.706916 -0.559644,-1.279985 -1.250001,-1.279985 z m 0,0.639992 V 7.239948 C 15.029823,7.239948 14.75,6.953414 14.75,6.599956 c 0,-0.353459 0.279823,-0.639993 0.624999,-0.639993 z m -2.8125,0.319996 c -0.173124,0 -0.312499,0.142719 -0.312499,0.319997 0,0.177277 0.139375,0.319996 0.312499,0.319996 h 0.625002 c 0.173124,0 0.312498,-0.142719 0.312498,-0.319996 0,-0.177278 -0.139374,-0.319997 -0.312498,-0.319997 z m 5.000001,0 c -0.173125,0 -0.312501,0.142719 -0.312501,0.319997 0,0.177277 0.139376,0.319996 0.312501,0.319996 h 0.624999 C 18.360624,6.919952 18.5,6.777233 18.5,6.599956 18.5,6.422678 18.360624,6.279959 18.187499,6.279959 Z M 13.828369,7.86369 c -0.07989,0 -0.159739,0.03107 -0.220948,0.09375 l -0.441894,0.452495 c -0.122418,0.125355 -0.122418,0.32714 0,0.452494 0.122417,0.125355 0.319476,0.125355 0.441894,0 l 0.441895,-0.452494 c 0.122418,-0.125355 0.122418,-0.327141 0,-0.452495 C 13.988126,7.89477 13.90825,7.86369 13.828369,7.86369 Z m 3.09326,0 c -0.07989,0 -0.159737,0.03107 -0.22095,0.09375 -0.12241,0.125354 -0.12241,0.32714 0,0.452495 l 0.441896,0.452494 c 0.122417,0.125355 0.319482,0.125355 0.4419,0 0.122411,-0.125354 0.122411,-0.327139 0,-0.452494 L 17.142575,7.95744 C 17.081385,7.89477 17.001513,7.86369 16.921629,7.86369 Z m -1.54663,0.656243 c -0.173124,0 -0.312498,0.142718 -0.312498,0.319996 v 0.639992 c 0,0.177278 0.139374,0.319996 0.312498,0.319996 0.173126,0 0.312501,-0.142718 0.312501,-0.319996 V 8.839929 c 0,-0.177278 -0.139375,-0.319996 -0.312501,-0.319996 z"
       id="path4274-4"
       inkscape:connector-curvature="0" />
    <path
       id="Edit-7-8"
       class="st0"
       d="m 5.6153769,15.708609 v 0 0 0 0 0 0 0 l 9.5672751,0.09377 -9.5672751,-0.09377 V 5.816158 H 11 L 12.875,3.640101 3.5,3.640184 v 14.26269 h 11.10577 c 1.185021,0 1.676521,-2.094592 1.676521,-2.094592 z"
       sodipodi:nodetypes="cccccccccccccccscc"
       style="fill:#cdd8e5;fill-opacity:0.40392157;stroke-width:0.269308" />
    <path
       id="Edit-s-6-7"
       class="st1"
       d="M 14.076923,17.902874 H 4.5576983 V 19 H 14.076923 C 15.822118,19 17.25,17.518879 17.25,15.708609 V 9.400032 l -1.057691,1.279985 v 5.028592 c 0,1.206846 -0.951923,2.194265 -2.115386,2.194265 z"
       sodipodi:nodetypes="ccccccccc"
       style="fill:#eff0f1;fill-opacity:1;stroke-width:0.269308" />
    <path
       d="m 14.156182,13.751865 h -0.116277 c -0.19691,0 -0.363836,-0.125817 -0.434169,-0.299594 L 11.312032,7.337522 c -0.0019,-0.0038 -0.0045,-0.0067 -0.0068,-0.01056 -0.01312,-0.0336 -0.03562,-0.06048 -0.05626,-0.09024 -0.015,-0.02208 -0.02623,-0.04704 -0.045,-0.06628 -0.01599,-0.01638 -0.0375,-0.02592 -0.05531,-0.04038 -0.03194,-0.02298 -0.06194,-0.04793 -0.09754,-0.0624 -0.0038,-0.0019 -0.0058,-0.0045 -0.0083,-0.0058 -0.01975,-0.0077 -0.03944,-0.0058 -0.05907,-0.01056 -0.03657,-0.0086 -0.07127,-0.0192 -0.108788,-0.0192 -0.03844,0 -0.07411,0.01056 -0.110675,0.02016 -0.01874,0.0045 -0.03849,0.0019 -0.05719,0.0096 -0.0013,0 -0.0032,0.0038 -0.0038,0.0038 -0.118106,0.048 -0.21753,0.141138 -0.266299,0.271728 l -2.2937187,6.114756 c -0.069434,0.173777 -0.236331,0.299593 -0.4332376,0.299593 H 7.5939261 c -0.2597687,0 -0.4688632,0.215088 -0.4688632,0.480109 0,0.263107 0.2090945,0.480122 0.4688632,0.480122 h 0.7689154 0.010352 1.095302 c 0.2588195,0 0.4688745,-0.217015 0.4688745,-0.480122 0,-0.265021 -0.210055,-0.480109 -0.4688745,-0.480109 h -0.088116 c -0.1303502,0 -0.2344375,-0.108511 -0.2344375,-0.240061 0,-0.03072 0.00499,-0.05952 0.015,-0.08739 0.00127,-0.0019 -0.00373,0.0032 -0.00373,0.0013 l 0.2382043,-0.635679 h 2.5028257 l 0.266306,0.728804 c 6.24e-4,6.4e-4 0,6.4e-4 0,0.0019 0.03849,0.110437 -0.0067,0.231428 -0.100319,0.288067 0,0 0.0038,0.0032 0.0038,0.0038 -0.151019,0.07968 -0.255106,0.235235 -0.255106,0.419624 0,0.2631 0.209101,0.480115 0.468869,0.480115 h 1.01278 0.03657 0.825239 c 0.258811,0 0.468868,-0.217015 0.468868,-0.480115 -5.1e-5,-0.265028 -0.210107,-0.480116 -0.468926,-0.480116 z m -4.399863,-1.922384 0.651706,-1.73898 c 0.0013,-0.0019 0.0019,0.0058 0.0038,0 0.04875,-0.140178 0.199736,-0.215096 0.337567,-0.165144 0.07411,0.02688 0.131295,0.0874 0.157564,0.158449 v -0.0013 l 0.639511,1.747621 H 9.75633 Z"
       id="path2-7-1"
       style="fill:#eff0f1;fill-opacity:1;stroke-width:0.013556"
       sodipodi:nodetypes="cscccccccccscccccssssccsssssccccccccssccscccccccccccc" />
  </g>
  <g
     id="22-22-input-keyboard-battery"
     transform="translate(-22,10.000008)">
    <rect
       style="fill:none"
       width="22"
       height="22"
       x="0"
       y="32"
       ry="0"
       id="rect15" />
    <path
       id="Edit-7-2-2"
       class="st0"
       d="m 5.807693,47.571446 v 0 0 0 0 0 0 0 l 10.437018,0.09767 -10.437018,-0.09767 V 37.266742 h 5.874124 L 13.318182,35.000001 3.5,35.000088 v 14.857066 h 12.115382 c 1.292755,0 1.828932,-2.181882 1.828932,-2.181882 z"
       sodipodi:nodetypes="cccccccccccccccscc"
       style="fill:#cdd8e5;fill-opacity:0.40392157;stroke-width:0.287084" />
    <path
       id="Edit-s-6-9-2"
       class="st1"
       d="M 15.038461,49.857154 H 4.653846 v 1.142847 h 10.384615 c 1.903845,0 3.461539,-1.542845 3.461539,-3.428555 v -6.571477 l -1.153846,1.666657 v 4.90482 c 0,1.25714 -1.038461,2.285708 -2.307693,2.285708 z"
       sodipodi:nodetypes="ccccccccc"
       style="fill:#eff0f1;fill-opacity:1;stroke-width:0.287084" />
    <path
       d="m 15.124922,45.533157 h -0.126843 c -0.214814,0 -0.396913,-0.131059 -0.47364,-0.312078 l -2.502224,-6.369572 c -0.002,-0.004 -0.0047,-0.007 -0.0071,-0.011 -0.01435,-0.035 -0.03887,-0.063 -0.06137,-0.094 -0.01637,-0.023 -0.02863,-0.049 -0.0491,-0.06904 -0.01747,-0.01707 -0.0409,-0.027 -0.06033,-0.04207 -0.03483,-0.02393 -0.06757,-0.04993 -0.106404,-0.065 -0.004,-0.002 -0.006,-0.0047 -0.0094,-0.006 -0.02153,-0.008 -0.04304,-0.006 -0.06443,-0.011 -0.0399,-0.009 -0.07774,-0.02 -0.118678,-0.02 -0.04193,0 -0.08084,0.011 -0.120737,0.021 -0.02047,0.0047 -0.042,0.002 -0.0624,0.01 -0.0013,0 -0.0033,0.004 -0.004,0.004 -0.128843,0.05 -0.237306,0.147019 -0.290508,0.283051 l -2.5022178,6.369579 c -0.075692,0.181019 -0.2578151,0.312079 -0.4726221,0.312079 H 7.9660438 c -0.283384,0 -0.511493,0.224052 -0.511493,0.500117 0,0.274072 0.228109,0.500131 0.511493,0.500131 h 0.83882 0.01126 1.1948742 c 0.282347,0 0.511499,-0.226059 0.511499,-0.500131 0,-0.276065 -0.229152,-0.500117 -0.511499,-0.500117 h -0.09615 c -0.142199,0 -0.255749,-0.113033 -0.255749,-0.250066 0,-0.032 0.0053,-0.062 0.01637,-0.09103 0.0013,-0.002 -0.004,0.0033 -0.004,0.0013 l 0.259854,-0.66217 h 2.730347 l 0.290517,0.759176 c 6.82e-4,6.67e-4 0,6.67e-4 0,0.002 0.042,0.115039 -0.007,0.241072 -0.109439,0.300072 0,0 0.004,0.0033 0.004,0.004 -0.164749,0.08301 -0.278299,0.245038 -0.278299,0.437111 0,0.274065 0.228109,0.500124 0.511493,0.500124 h 1.104853 0.0399 0.90026 c 0.28234,0 0.511494,-0.226059 0.511494,-0.500124 -5.7e-5,-0.276072 -0.229207,-0.500124 -0.511556,-0.500124 z m -4.799845,-2.002496 0.710949,-1.81145 c 0.0013,-0.002 0.002,0.006 0.004,0 0.05317,-0.146019 0.217896,-0.224059 0.368256,-0.172025 0.08084,0.028 0.143231,0.09104 0.171888,0.165052 v -0.0013 l 0.697649,1.82045 h -1.952903 z"
       id="path2-7-3-6"
       style="fill:#eff0f1;fill-opacity:1;stroke-width:0.0144508"
       sodipodi:nodetypes="cscccccccccscccccssssccsssssccccccccssccscccccccccccc" />
    <path
       style="fill:#eff0f1;fill-opacity:1;stroke:none;stroke-width:0.938443"
       d="M 16.23209,35.000001 13.573,39.166645 h 2.113637 l -0.545454,2.499987 2.65909,-4.166645 h -2.113636 z"
       id="path12-2-9-1"
       inkscape:connector-curvature="0"
       sodipodi:nodetypes="ccccccc" />
  </g>
  <g
     id="22-22-input-caps-on"
     transform="translate(-22,73.999998)">
    <rect
       y="-1.2158202e-06"
       x="2.1582031e-07"
       height="22"
       width="22"
       id="rect964"
       style="opacity:0.00100002;fill-opacity:1;stroke:none;stroke-width:0.49066;stroke-linecap:round;stroke-linejoin:round;stroke-miterlimit:4;stroke-dasharray:none;stroke-opacity:1" />
    <path
       id="Edit-0"
       class="st0"
       d="m 5.8076923,15.571445 v 0 0 0 0 0 0 0 L 16.244713,15.669115 5.8076923,15.571445 V 5.266741 H 16.454545 L 18.499999,3 3.5,3.000087 v 14.857066 h 12.115384 c 1.292755,0 1.828932,-2.181882 1.828932,-2.181882 z"
       sodipodi:nodetypes="cccccccccccccccscc"
       style="fill:#cdd8e5;fill-opacity:0.40392157;stroke-width:0.287084" />
    <path
       id="Edit-s-61"
       class="st1"
       d="M 15.038462,17.857153 H 4.6538462 V 19 H 15.038462 C 16.942306,19 18.5,17.457155 18.5,15.571445 V 5.200075 l -1.153845,1.333326 v 9.038044 c 0,1.25714 -1.038462,2.285708 -2.307693,2.285708 z"
       sodipodi:nodetypes="ccccccccc"
       style="fill:#eff0f1;fill-opacity:1;stroke-width:0.287084" />
    <path
       d="m 15.124922,13.533156 h -0.126844 c -0.214813,0 -0.396913,-0.131059 -0.473638,-0.312078 L 12.022215,6.851506 c -0.002,-0.004 -0.0047,-0.007 -0.0071,-0.011 -0.01434,-0.035 -0.03887,-0.063 -0.06137,-0.094 -0.01637,-0.023 -0.02863,-0.049 -0.0491,-0.06904 -0.01747,-0.01707 -0.0409,-0.027 -0.06033,-0.04207 -0.03484,-0.02393 -0.06757,-0.04993 -0.106404,-0.065 -0.004,-0.002 -0.006,-0.0047 -0.0094,-0.006 -0.02154,-0.008 -0.04304,-0.006 -0.06443,-0.011 -0.0399,-0.009 -0.07774,-0.02 -0.118678,-0.02 -0.04193,0 -0.08084,0.011 -0.120735,0.021 -0.02047,0.0047 -0.042,0.002 -0.0624,0.01 -0.0013,0 -0.0033,0.004 -0.004,0.004 -0.128843,0.05 -0.237307,0.147019 -0.290508,0.283051 l -2.5022772,6.369579 c -0.075703,0.181019 -0.2578157,0.312079 -0.4726233,0.312079 H 7.9660021 c -0.2833839,0 -0.5114931,0.224052 -0.5114931,0.500117 0,0.274072 0.2281092,0.500131 0.5114931,0.500131 h 0.838821 0.01125 1.1948729 c 0.282349,0 0.511499,-0.226059 0.511499,-0.500131 0,-0.276065 -0.22915,-0.500117 -0.511499,-0.500117 H 9.914818 c -0.1422007,0 -0.2557507,-0.113033 -0.2557507,-0.250066 0,-0.032 0.00544,-0.062 0.016364,-0.09103 0.00133,-0.002 -0.0041,0.0033 -0.0041,0.0013 l 0.2598549,-0.66217 H 12.66154 l 0.290518,0.759176 c 6.81e-4,6.67e-4 0,6.67e-4 0,0.002 0.042,0.115039 -0.007,0.241072 -0.10944,0.300072 0,0 0.004,0.0033 0.004,0.004 -0.164747,0.08301 -0.278297,0.245038 -0.278297,0.437111 0,0.274065 0.228108,0.500124 0.511492,0.500124 h 1.104852 0.0399 0.900258 c 0.282343,0 0.511494,-0.226059 0.511494,-0.500124 -5.5e-5,-0.276072 -0.229207,-0.500124 -0.511555,-0.500124 z m -4.79985,-2.002496 0.710954,-1.81145 c 0.0013,-0.002 0.002,0.006 0.004,0 0.05318,-0.146019 0.217897,-0.224059 0.368256,-0.172025 0.08084,0.028 0.143231,0.09104 0.171888,0.165052 v -0.0013 l 0.697649,1.82045 h -1.952796 z"
       id="path2-5"
       style="fill:#eff0f1;fill-opacity:1;stroke-width:0.0144508"
       sodipodi:nodetypes="cscccccccccscccccssssccsssssccccccccssccscccccccccccc" />
  </g>
  <g
     id="22-22-input-num-on"
     transform="translate(-22,106)">
    <rect
       style="opacity:0.00100002;fill-opacity:1;stroke:none;stroke-width:0.49066;stroke-linecap:round;stroke-linejoin:round;stroke-miterlimit:4;stroke-dasharray:none;stroke-opacity:1"
       id="rect972"
       width="22"
       height="22"
       x="0"
       y="0" />
    <path
       id="Edit-39-9"
       class="st0"
       d="m 5.807693,15.571445 v 0 0 0 0 0 0 0 l 10.43702,0.09767 -10.43702,-0.09767 V 5.266741 H 16.454545 L 18.499999,3 3.5,3.000087 v 14.857066 h 12.115384 c 1.292755,0 1.828932,-2.181882 1.828932,-2.181882 z"
       sodipodi:nodetypes="cccccccccccccccscc"
       style="fill:#cdd8e5;fill-opacity:0.40392157;stroke-width:0.287084" />
    <path
       id="Edit-s-4-4"
       class="st1"
       d="M 15.038462,17.857153 H 4.653845 V 19 H 15.038462 C 16.942306,19 18.5,17.457155 18.5,15.571445 V 5.200075 l -1.153845,1.333326 v 9.038044 c 0,1.25714 -1.038462,2.285708 -2.307693,2.285708 z"
       sodipodi:nodetypes="ccccccccc"
       style="fill:#eff0f1;fill-opacity:1;stroke-width:0.287084" />
    <path
       d="M 13.369209,13.066349 H 12.346534 V 7.316646 c 0,-0.19905 -0.08082,-0.389733 -0.224639,-0.530357 C 11.978081,6.645667 11.782888,6.566647 11.579483,6.566647 H 9.789766 c -0.274121,0 -0.527341,0.142967 -0.66431,0.375 -0.136971,0.232032 -0.136971,0.51797 0,0.749998 0.136969,0.232033 0.390196,0.375 0.66431,0.375 h 1.022673 v 5.000133 H 9.789766 v -1.71e-4 c -0.274121,0 -0.527341,0.142966 -0.66431,0.374999 -0.136971,0.232033 -0.136971,0.517971 0,0.749999 0.136969,0.232032 0.390196,0.374999 0.66431,0.374999 h 3.579613 -1.7e-4 c 0.274109,0 0.52733,-0.142967 0.664299,-0.374999 0.13698,-0.232033 0.13698,-0.517971 0,-0.749999 -0.136969,-0.232033 -0.390196,-0.374999 -0.664299,-0.374999 z"
       id="path6-9"
       style="fill:#eff0f1;fill-opacity:1;stroke-width:0.0433415" />
  </g>
</svg>
