<?xml version="1.0" encoding="UTF-8" standalone="no"?>
<svg
   width="32"
   height="32"
   version="1"
   id="svg14"
   sodipodi:docname="internet.svg"
   inkscape:version="1.2.2 (b0a8486541, 2022-12-01)"
   xmlns:inkscape="http://www.inkscape.org/namespaces/inkscape"
   xmlns:sodipodi="http://sodipodi.sourceforge.net/DTD/sodipodi-0.dtd"
   xmlns="http://www.w3.org/2000/svg"
   xmlns:svg="http://www.w3.org/2000/svg">
  <g
     id="22-22-internet-web-browser">
    <rect
       style="opacity:0.00100002"
       width="22"
       height="22"
       x="32"
       y="10"
       id="rect981" />
    <path
       id="Page_1_-2"
       class="st0  ColorScheme-Highlight "
       d="m 46.5,16 v 0 l -1,-1 v 0 h -7 V 28 H 47 c 1.375,0 2.5,-1.125 2.5,-2.5 V 19 Z m -6,1.5 z m 0,2.5 z m 0,5 z m 0,-2.5 z"
       sodipodi:nodetypes="ccccccsscccccccccccccccccccccc"
       style="color:#cdd8e5;fill:#cdd8e5;fill-opacity:0.403922;stroke-width:0.25" />
    <path
       id="Page-s-7"
       class="st1  ColorScheme-Text "
       d="M 47.366667,19 H 49.5 v 7 c 0,1.65 -1.349999,3 -3,3 h -7 v -1 h 7 c 1.1,0 2,-0.900001 2,-2 V 20 H 47.366667 Z M 36.5,15 c 0,-1.1 0.899999,-2 2,-2 h 5 v 1 h -5 c -0.549999,0 -1,0.45 -1,1 v 8.5 h -1 z"
       style="color:#eff0f1;fill:currentColor;fill-opacity:1;stroke-width:0.25"
       sodipodi:nodetypes="ccssccsscccssccssccs" />
    <path
       style="color:#eff0f1;fill:currentColor;fill-opacity:1;stroke-width:0.5"
       d="m 43.567663,17.8 c -1.462306,1.71e-4 -2.902453,0.846555 -3.551561,2.167962 -0.658662,1.225582 -0.582707,2.78315 0.16136,3.953086 0.883944,1.444926 2.748652,2.200978 4.387018,1.748042 1.456069,-0.349373 2.616259,-1.601404 2.910881,-3.06124 0.258225,-1.124572 -0.04169,-2.33903 -0.743663,-3.24797 -0.7359,-0.971605 -1.947733,-1.56392 -3.16607,-1.558328 m 0,0.499672 c 0.569145,0.0037 1.132601,0.153408 1.640561,0.406693 -0.257472,0.08454 0.120897,0.330595 -0.07209,0.460277 0.199942,0.130548 0.467185,-0.119691 0.190503,-0.249952 -0.244362,-0.385774 0.62456,0.114351 0.17389,0.251892 -0.153467,0.139475 -0.527583,0.08389 -0.222988,0.337433 0.02454,0.246227 -0.53342,-0.04947 -0.463584,0.355766 0.02694,0.18227 0.10192,0.243863 -0.168657,0.407507 -0.213401,0.296082 -0.611501,0.541459 -0.545205,0.989786 -0.107157,0.354534 0.271574,0.536936 0.576894,0.613334 0.316474,-0.02081 1.070381,-0.226104 1.200012,0.17008 -0.134659,0.350708 0.589731,0.698258 0.28378,1.046539 -0.198562,0.325904 0.03904,0.439061 -0.02445,0.774421 0.244816,0.352371 -0.635348,0.868828 -0.90352,1.026345 -0.809761,0.475637 -1.847977,0.537769 -2.738962,0.230286 -0.350201,-0.212274 0.07882,-0.378711 0.18941,-0.485771 -0.153099,-0.29238 0.08561,-0.115442 0.08793,-0.425926 0.0036,-0.469576 0.626488,-0.392858 0.582343,-0.880938 0.01306,-0.290938 0.465567,-0.687126 -0.03467,-0.805184 -0.373936,-0.07128 -0.679409,-0.04763 -0.875264,-0.371252 -0.340674,-0.04527 -0.344696,-0.40377 -0.743211,-0.339067 -0.281222,-0.167407 -0.664423,0.425881 -0.835992,-2.29e-4 0.06465,-0.218248 -0.0628,-0.560478 -0.252546,-0.516554 0.09095,-0.163528 0.08988,-0.486089 -0.120612,-0.223 -0.34198,0.303152 -0.420492,-0.2103 -0.246159,-0.429132 0.219603,-0.286301 0.748742,-0.268493 0.926159,-0.01085 -0.01802,-0.417169 0.431133,-0.478875 0.626432,-0.799986 0.221923,-0.114332 0.44895,-0.377058 0.664135,-0.254014 0.149695,-0.02189 0.306008,-0.193422 0.06032,-0.105557 -0.117725,-0.05741 0.115924,-0.255256 -0.09401,-0.203347 0.175267,-0.0452 0.358995,-0.07824 0.536049,-0.0854 -0.388234,0.229765 0.438898,0.303812 0.09279,0.04957 0.103509,-0.266415 -0.09683,-0.341798 -0.165394,-0.566466 -0.188696,0.0075 -0.205475,0.0686 -0.310322,-0.119772 -0.370357,-0.21211 0.356665,0.06043 0.407001,-0.124385 0.14265,-0.158352 0.391043,-0.104548 0.581441,-0.122006 m -1.25004,0.234341 c -0.0823,0.2832 -0.32244,0.488432 -0.511823,0.576816 -0.05317,-0.157397 0.01524,-0.202432 -0.147685,-0.239508 0.182808,-0.166068 0.438491,-0.231644 0.657995,-0.337308 m 2.687595,0.374656 c -0.302452,0.08562 0.02533,0.359664 0.08995,0.05947 0.0011,-0.04557 -0.05375,-0.06431 -0.09045,-0.05898 m 1.06255,0.577059 c 0.256262,0.130471 0.689896,0.634867 0.56603,0.807042 -0.220208,-0.05359 -0.146422,0.230565 -0.391054,0.05736 -0.328017,-0.05054 -0.33082,-0.529109 -0.729468,-0.330828 -0.142634,0.100333 -0.709106,0.13896 -0.284658,-0.02826 0.18577,-0.201117 0.473436,-0.565645 0.797534,-0.313489 0.09725,0.112999 0.290404,0.337944 0.300868,0.09925 -0.07333,-0.06773 -0.397289,-0.158868 -0.25773,-0.292728 M 40.208575,21.2989 c 0.318767,0.09682 0.534866,0.668038 0.811816,0.721291 0.369337,-0.111394 0.03576,0.501837 -0.04335,0.656532 0.07128,0.382879 0.325586,0.553467 0.666648,0.755851 0.184672,0.422323 0.07879,0.915714 0.163229,1.359871 -0.435996,-0.20085 -0.823987,-0.609515 -1.115398,-1.010002 -0.451606,-0.640059 -0.667237,-1.441713 -0.614797,-2.220789 0.02688,-0.08642 0.02456,-0.238665 0.133852,-0.262504"
       id="path6-3-6-1-0"
       class="ColorScheme-Text" />
  </g>
  <style
     id="style1288">.ColorScheme-Text { color:#eff0f1; }
.ColorScheme-Highlight { color:#cdd8e5; }
</style>
  <sodipodi:namedview
     id="namedview16"
     pagecolor="#b2b2b2"
     bordercolor="#000000"
     borderopacity="1"
     inkscape:showpageshadow="false"
     inkscape:pageopacity="0"
     inkscape:pagecheckerboard="0"
     inkscape:deskcolor="#b2b2b2"
     showgrid="false"
     inkscape:zoom="7.375"
     inkscape:cx="12.677966"
     inkscape:cy="36"
     inkscape:window-width="1920"
     inkscape:window-height="1000"
     inkscape:window-x="0"
     inkscape:window-y="0"
     inkscape:window-maximized="1"
     inkscape:current-layer="svg14" />
  <defs
     id="l4k1">
    <style
       type="text/css"
       id="current-color-scheme" />
  </defs>
  <g
     id="internet-web-browser">
    <rect
       style="opacity:0.00100002"
       width="32"
       height="32"
       x="0"
       y="0"
       id="rect976" />
    <path
       id="Page_1_"
       class="st0  ColorScheme-Highlight "
       d="m 21.25,8.5000001 v 0 L 19.75,7 V 7 H 9.2500005 V 26.5 H 22 c 2.0625,0 3.75,-1.6875 3.75,-3.75 V 13 Z M 12.25,10.75 Z m 0,3.75 z m 0,7.5 z m 0,-3.75 z"
       sodipodi:nodetypes="ccccccsscccccccccccccccccccccc"
       style="color:#cdd8e5;fill:#cdd8e5;fill-opacity:0.403922;stroke-width:0.375" />
    <path
       id="Page-s"
       class="st1  ColorScheme-Text "
       d="m 22.55,13 h 3.2 v 10.5 c 0,2.475 -2.024999,4.5 -4.5,4.5 h -10.5 v -1.5 h 10.5 c 1.65,0 3,-1.350001 3,-3 v -9 h -1.7 z M 6.2500005,6.9999999 c 0,-1.65 1.35,-3 3,-3 H 16.75 v 1.5 H 9.2500005 c -0.825,0 -1.5,0.675 -1.5,1.5 V 19.75 h -1.5 z"
       style="color:#eff0f1;fill:currentColor;fill-opacity:1;stroke-width:0.375"
       sodipodi:nodetypes="ccssccsscccssccssccs" />
    <path
       style="color:#eff0f1;fill:currentColor;fill-opacity:1;stroke-width:0.75"
       d="m 16.700995,11 c -2.193459,2.57e-4 -4.353678,1.269833 -5.32734,3.251944 -0.987995,1.838372 -0.874062,4.174725 0.24204,5.929628 1.325916,2.16739 4.122976,3.301467 6.580526,2.622063 2.184103,-0.524059 3.924388,-2.402105 4.366322,-4.591859 0.387337,-1.686858 -0.06253,-3.508545 -1.115494,-4.871955 -1.10385,-1.457408 -2.921602,-2.345881 -4.749106,-2.337492 m 0,0.749507 c 0.853717,0.0055 1.698901,0.230113 2.46084,0.61004 -0.386206,0.126804 0.181348,0.495893 -0.108139,0.690415 0.299912,0.195823 0.700776,-0.179536 0.285755,-0.374928 -0.366543,-0.57866 0.936839,0.171527 0.260834,0.377838 -0.230202,0.209213 -0.791374,0.125831 -0.334481,0.50615 0.03681,0.369341 -0.80013,-0.0742 -0.695376,0.533649 0.04041,0.273405 0.152878,0.365795 -0.252986,0.611261 -0.320101,0.444123 -0.917252,0.812188 -0.817807,1.484678 -0.160736,0.531802 0.407361,0.805404 0.865341,0.920002 0.474711,-0.03121 1.605571,-0.339156 1.800017,0.25512 -0.201989,0.526061 0.884597,1.047387 0.425671,1.569808 -0.297844,0.488856 0.05856,0.658592 -0.03667,1.161632 0.367225,0.528556 -0.953022,1.303241 -1.35528,1.539517 -1.214641,0.713456 -2.771965,0.806653 -4.108442,0.345429 -0.525302,-0.318411 0.118225,-0.568066 0.284115,-0.728657 -0.229649,-0.438569 0.128419,-0.173163 0.131888,-0.638888 0.0054,-0.704364 0.939733,-0.589288 0.873515,-1.321408 0.01959,-0.436407 0.698349,-1.030688 -0.052,-1.207775 -0.560905,-0.106917 -1.019116,-0.07144 -1.312898,-0.556879 -0.511009,-0.0679 -0.517044,-0.605654 -1.114815,-0.5086 -0.421835,-0.25111 -0.996635,0.638822 -1.25399,-3.43e-4 0.09697,-0.327373 -0.0942,-0.840718 -0.378819,-0.774831 0.136427,-0.245292 0.134815,-0.729134 -0.180917,-0.3345 -0.512969,0.454727 -0.630739,-0.31545 -0.369239,-0.643698 0.329405,-0.429452 1.123114,-0.40274 1.389238,-0.01627 -0.02703,-0.625754 0.6467,-0.718313 0.939648,-1.19998 0.332887,-0.171498 0.673425,-0.565587 0.996205,-0.38102 0.224542,-0.03284 0.459011,-0.290134 0.09048,-0.158336 -0.176588,-0.08612 0.173886,-0.382884 -0.141014,-0.30502 0.262901,-0.0678 0.538491,-0.117356 0.804073,-0.128098 -0.58235,0.344647 0.658348,0.455717 0.139179,0.07435 0.155264,-0.399623 -0.145238,-0.512697 -0.24809,-0.8497 -0.283046,0.01122 -0.308215,0.102898 -0.465485,-0.179658 -0.555535,-0.318165 0.534998,0.09065 0.610502,-0.186577 0.213974,-0.237528 0.586564,-0.156822 0.872161,-0.183009 m -1.87506,0.351511 c -0.123451,0.4248 -0.483658,0.732648 -0.767735,0.865225 -0.07976,-0.236096 0.02286,-0.303649 -0.221526,-0.359262 0.274211,-0.249102 0.657735,-0.347467 0.986992,-0.505963 m 4.031392,0.561984 c -0.453678,0.128434 0.03799,0.539496 0.134922,0.0892 0.0016,-0.06835 -0.08062,-0.09647 -0.135667,-0.08847 m 1.593824,0.865589 c 0.384393,0.195706 1.034844,0.9523 0.849045,1.210563 -0.330312,-0.08038 -0.219633,0.345847 -0.58658,0.08604 -0.492026,-0.07581 -0.49623,-0.793663 -1.094203,-0.496242 -0.213951,0.150499 -1.063658,0.20844 -0.426987,-0.04239 0.278655,-0.301676 0.710154,-0.848468 1.196302,-0.470233 0.145881,0.169498 0.435605,0.506916 0.451302,0.148877 -0.109998,-0.101603 -0.595934,-0.238302 -0.386595,-0.439092 m -8.788021,2.717462 c 0.478149,0.145224 0.802298,1.002057 1.217723,1.081937 0.554005,-0.167091 0.05364,0.752755 -0.06502,0.984798 0.106921,0.574319 0.488377,0.8302 0.999972,1.133776 0.277006,0.633485 0.118186,1.373571 0.244843,2.039807 -0.653998,-0.301275 -1.235985,-0.914273 -1.673101,-1.515003 -0.677409,-0.960089 -1.000856,-2.16257 -0.922196,-3.331184 0.04032,-0.129629 0.03684,-0.357997 0.200778,-0.393756"
       id="path6-3-6-1"
       class="ColorScheme-Text" />
  </g>
</svg>
