<?xml version="1.0" encoding="UTF-8" standalone="no"?>
<svg
   width="32"
   height="32"
   version="1.1"
   id="svg986"
   sodipodi:docname="jami.svg"
   inkscape:version="1.2.2 (b0a8486541, 2022-12-01)"
   xmlns:inkscape="http://www.inkscape.org/namespaces/inkscape"
   xmlns:sodipodi="http://sodipodi.sourceforge.net/DTD/sodipodi-0.dtd"
   xmlns="http://www.w3.org/2000/svg"
   xmlns:svg="http://www.w3.org/2000/svg">
  <g
     id="22-22-jami"
     transform="translate(32,10)">
    <rect
       style="opacity:0.00100002"
       width="22"
       height="22"
       x="0"
       y="0"
       id="rect981" />
    <path
       id="Page_1_-36"
       class="st0  ColorScheme-Highlight "
       d="m 14.499999,6 v 0 l -1,-1 V 5 H 6.5 v 13 h 8.499999 c 1.375,0 2.5,-1.125 2.5,-2.5 V 9 Z m -6,1.5 z m 0,2.5 z m 0,5 z m 0,-2.5 z"
       sodipodi:nodetypes="ccccccsscccccccccccccccccccccc"
       style="color:#cdd8e5;fill:#cdd8e5;fill-opacity:0.403922;stroke-width:0.25" />
    <path
       id="Page-s-7"
       class="st1  ColorScheme-Text "
       d="m 16.499999,9 h 1 v 7 c 0,1.65 -1.35,3 -3,3 h -7 v -1 h 7 c 1.1,0 2,-0.900001 2,-2 v -6 0 z M 4.5,5 c 0,-1.1 0.9,-2 2,-2 h 4.999999 V 4 H 6.5 c -0.55,0 -1,0.45 -1,1 v 8.5 h -1 z"
       style="color:#eff0f1;fill:currentColor;fill-opacity:1;stroke-width:0.25"
       sodipodi:nodetypes="ccssccsscccssccssccs" />
    <path
       d="m 16.158239,11.485417 c 0,-0.743306 -0.83625,-1.254375 -1.95125,-1.533125 0,-0.139375 0.04651,-0.325181 0.09294,-0.418125 C 14.578679,8.233361 14.206989,7.675861 13.835372,7.489935 13.463679,7.304127 12.813315,7.211185 11.83773,8.093866 11.74479,8.186806 11.605412,8.279673 11.512548,8.419048 11.419608,8.326108 11.28023,8.18673 11.187367,8.093866 10.211662,7.211185 9.561219,7.257696 9.189525,7.443503 8.817912,7.675821 8.446219,8.186809 8.724969,9.534127 c 0.04643,0.09294 0.09294,0.27875 0.09294,0.418126 -1.115,0.27875 -1.95125,0.789818 -1.95125,1.533124 0,0.743307 0.83625,1.254375 1.95125,1.533125 0,0.139375 -0.04651,0.325182 -0.09294,0.464557 -0.27875,1.300807 0.09294,1.858307 0.464556,2.044233 0.139376,0.09294 0.27875,0.139375 0.511068,0.139375 0.371694,0 0.882682,-0.185807 1.486694,-0.743307 0.09294,-0.09294 0.232318,-0.185807 0.325182,-0.325181 0.09294,0.09294 0.232318,0.232318 0.325181,0.325181 0.650443,0.5575 1.161432,0.743307 1.486693,0.743307 0.185807,0 0.371694,-0.04643 0.511068,-0.139375 0.371694,-0.185807 0.743308,-0.743307 0.464558,-2.044233 -0.04643,-0.139375 -0.09294,-0.27875 -0.09294,-0.418125 1.115,-0.325182 1.95125,-0.83625 1.95125,-1.579557 z M 9.654205,8.279793 c 0.139376,0 0.418126,0.04643 0.929194,0.511068 0.09294,0.09294 0.232318,0.185806 0.325182,0.325181 -0.139376,0.139375 -0.325262,0.371693 -0.464637,0.5575 -0.232318,0 -0.464557,0.04643 -0.696875,0.09294 C 9.700639,9.627107 9.654199,9.441221 9.654199,9.301846 9.468314,8.55854 9.607689,8.27979 9.654199,8.27979 Z M 9.143137,12.1359 C 8.260456,11.950016 7.795819,11.624832 7.795819,11.485457 c 0,-0.139375 0.464557,-0.464557 1.347318,-0.650443 0.09294,0.185884 0.185807,0.418125 0.27875,0.650443 -0.09294,0.232318 -0.185806,0.464557 -0.27875,0.650443 z m 1.440182,2.044034 c -0.603932,0.5575 -0.882682,0.5575 -0.929114,0.511068 -0.04643,0 -0.185806,-0.27875 0,-1.068568 0,-0.09286 0.04643,-0.27875 0.09287,-0.418125 0.232318,0.04643 0.464557,0.04643 0.696875,0.09294 0.139375,0.185808 0.27875,0.418126 0.418125,0.5575 -0.09287,0.139376 -0.185806,0.232319 -0.27875,0.325182 z m 0.929194,-1.765363 h -0.511069 c -0.09294,-0.139376 -0.185807,-0.27875 -0.27875,-0.464557 -0.09294,-0.139375 -0.185807,-0.325182 -0.232318,-0.464557 0.09294,-0.139375 0.139375,-0.325182 0.232318,-0.464557 0.09294,-0.139375 0.185807,-0.325181 0.27875,-0.464557 h 0.511069 0.511068 c 0.09294,0.139376 0.185806,0.27875 0.27875,0.464557 0.09294,0.139375 0.185806,0.325182 0.232318,0.464557 -0.09294,0.139375 -0.139375,0.325182 -0.232318,0.464557 -0.09294,0.139375 -0.185807,0.325181 -0.27875,0.464557 z m 1.858306,2.276392 c -0.04643,0 -0.325182,0 -0.929193,-0.511069 -0.09294,-0.09294 -0.232318,-0.185807 -0.325182,-0.325181 0.139375,-0.185807 0.27875,-0.371694 0.418125,-0.5575 0.232318,0 0.464557,-0.04643 0.696875,-0.09294 0.04643,0.139374 0.09294,0.27875 0.09294,0.418124 0.232318,0.789819 0.09294,1.068569 0.04643,1.068569 z m 0,-5.389234 c 0,0.139376 -0.04643,0.325262 -0.09287,0.464637 -0.232318,-0.04643 -0.464556,-0.04643 -0.696874,-0.09294 -0.139376,-0.185807 -0.27875,-0.418125 -0.418126,-0.5575 l 0.325182,-0.325182 c 0.511068,-0.464557 0.789818,-0.511068 0.882682,-0.511068 h 0.04643 c 8e-5,0 0.139452,0.27875 -0.04643,1.022057 z m 0.511068,2.834092 c -0.09294,-0.232318 -0.185806,-0.418126 -0.27875,-0.650444 0.09294,-0.232318 0.185807,-0.464556 0.27875,-0.650443 0.882682,0.185885 1.347318,0.511069 1.347318,0.650443 0,0.139376 -0.464636,0.464557 -1.347318,0.650444 z"
       id="path355-5"
       style="fill:#eff0f1;fill-opacity:1;stroke-width:0.0199107" />
    <path
       d="m 11.930597,11.485417 c 0,0.230924 -0.187206,0.418125 -0.418124,0.418125 -0.230919,0 -0.418126,-0.187206 -0.418126,-0.418125 0,-0.230918 0.187207,-0.418125 0.418126,-0.418125 0.230918,0 0.418124,0.187207 0.418124,0.418125"
       id="path357-3"
       style="fill:#eff0f1;fill-opacity:1;stroke-width:0.0199107" />
  </g>
  <style
     id="current-color-scheme"
     type="text/css">.ColorScheme-Text { color:#eff0f1; }
.ColorScheme-Highlight { color:#cdd8e5; }
</style>
  <sodipodi:namedview
     id="namedview988"
     pagecolor="#b2b2b2"
     bordercolor="#000000"
     borderopacity="1"
     inkscape:showpageshadow="false"
     inkscape:pageopacity="0"
     inkscape:pagecheckerboard="0"
     inkscape:deskcolor="#b2b2b2"
     showgrid="false"
     inkscape:zoom="7.375"
     inkscape:cx="-2.6440678"
     inkscape:cy="12.40678"
     inkscape:window-width="1920"
     inkscape:window-height="1000"
     inkscape:window-x="0"
     inkscape:window-y="0"
     inkscape:window-maximized="1"
     inkscape:current-layer="svg986">
    <inkscape:grid
       type="xygrid"
       id="grid1519"
       originx="32"
       originy="10" />
  </sodipodi:namedview>
  <defs
     id="Dexy" />
  <g
     id="jami">
    <rect
       style="opacity:0.00100002"
       width="32"
       height="32"
       x="0"
       y="0"
       id="rect976" />
    <path
       id="Page_1_"
       class="st0  ColorScheme-Highlight "
       d="m 21.249999,8.5 v 0 l -1.5,-1.5 V 7 H 9.2500006 V 26.5 H 21.999999 c 2.0625,0 3.75,-1.6875 3.75,-3.75 V 13 Z M 12.25,10.75 Z m 0,3.75 z m 0,7.5 z m 0,-3.75 z"
       sodipodi:nodetypes="ccccccsscccccccccccccccccccccc"
       style="color:#cdd8e5;fill:#cdd8e5;fill-opacity:0.403922;stroke-width:0.375" />
    <path
       id="Page-s"
       class="st1  ColorScheme-Text "
       d="m 24.25,13 h 1.499999 v 10.5 c 0,2.475 -2.024999,4.5 -4.5,4.5 H 10.75 v -1.5 h 10.499999 c 1.65,0 3,-1.350001 3,-3 v -9 h 1e-6 z M 6.2500006,7 c 0,-1.65 1.35,-3 3,-3 H 16.749999 V 5.5 H 9.2500006 c -0.825,0 -1.5,0.675 -1.5,1.5 v 12.75 h -1.5 z"
       style="color:#eff0f1;fill:currentColor;fill-opacity:1;stroke-width:0.375"
       sodipodi:nodetypes="ccssccsscccssccssccs" />
    <path
       d="m 23.73736,16.728126 c 0,-1.11496 -1.254375,-1.881563 -2.926875,-2.299688 0,-0.209062 0.06976,-0.487772 0.139415,-0.627187 0.418125,-1.95121 -0.139415,-2.78746 -0.696835,-3.066349 -0.55754,-0.278711 -1.533085,-0.418125 -2.996463,0.905897 -0.139415,0.139415 -0.348477,0.27871 -0.487773,0.487773 -0.139415,-0.139415 -0.348477,-0.348477 -0.487772,-0.487773 -1.463557,-1.324022 -2.439222,-1.254255 -2.996762,-0.975545 -0.55742,0.348477 -1.11496,1.11496 -0.696835,3.135937 0.06965,0.139415 0.139415,0.418125 0.139415,0.627188 C 11.054375,14.846504 9.8,15.613106 9.8,16.728066 c 0,1.11496 1.254375,1.881562 2.926875,2.299687 0,0.209063 -0.06976,0.487773 -0.139415,0.696836 -0.418125,1.95121 0.139415,2.78746 0.696835,3.066349 C 13.493358,22.930353 13.70242,23 14.050897,23 c 0.55754,0 1.324023,-0.27871 2.23004,-1.11496 0.139415,-0.139414 0.348477,-0.27871 0.487773,-0.487772 0.139415,0.139415 0.348477,0.348477 0.487772,0.487772 C 18.232147,22.72129 18.99863,23 19.486522,23 c 0.27871,0 0.55754,-0.06965 0.766602,-0.209062 0.55754,-0.27871 1.114961,-1.11496 0.696836,-3.066349 -0.06965,-0.209063 -0.139415,-0.418125 -0.139415,-0.627188 1.6725,-0.487773 2.926875,-1.254375 2.926875,-2.369335 z m -9.756051,-4.808437 c 0.209063,0 0.627188,0.06965 1.39379,0.766602 0.139415,0.139415 0.348478,0.27871 0.487773,0.487772 -0.209063,0.209063 -0.487892,0.55754 -0.696955,0.83625 -0.348477,0 -0.696835,0.06965 -1.045312,0.139415 -0.06965,-0.209062 -0.139298,-0.487892 -0.139298,-0.696954 -0.278827,-1.11496 -0.06976,-1.533085 0,-1.533085 z m -0.766602,5.784161 c -1.324022,-0.278826 -2.020977,-0.766602 -2.020977,-0.975664 0,-0.209063 0.696835,-0.696836 2.020977,-0.975665 0.139415,0.278826 0.27871,0.627187 0.418125,0.975665 -0.139415,0.348477 -0.27871,0.696835 -0.418125,0.975664 z m 2.160273,3.066051 c -0.905898,0.83625 -1.324023,0.83625 -1.393671,0.766602 -0.06965,0 -0.27871,-0.418125 0,-1.602852 0,-0.139298 0.06965,-0.418125 0.139299,-0.627187 0.348477,0.06965 0.696835,0.06965 1.045312,0.139414 0.209063,0.278711 0.418125,0.627188 0.627188,0.83625 -0.139299,0.209063 -0.27871,0.348478 -0.418125,0.487773 z m 1.39379,-2.648045 h -0.766603 c -0.139415,-0.209063 -0.27871,-0.418125 -0.418125,-0.696835 -0.139415,-0.209063 -0.27871,-0.487773 -0.348477,-0.696835 0.139415,-0.209063 0.209062,-0.487773 0.348477,-0.696836 0.139415,-0.209062 0.27871,-0.487772 0.418125,-0.696835 h 0.766603 0.766602 c 0.139415,0.209063 0.27871,0.418125 0.418125,0.696835 0.139415,0.209063 0.27871,0.487773 0.348477,0.696836 -0.139415,0.209062 -0.209062,0.487772 -0.348477,0.696835 -0.139415,0.209062 -0.27871,0.487772 -0.418125,0.696835 z m 2.78746,3.414588 c -0.06965,0 -0.487773,0 -1.39379,-0.766603 -0.139415,-0.139414 -0.348477,-0.27871 -0.487773,-0.487772 0.209063,-0.27871 0.418125,-0.55754 0.627188,-0.83625 0.348477,0 0.696835,-0.06965 1.045312,-0.139415 0.06965,0.209062 0.139415,0.418125 0.139415,0.627187 0.348477,1.184728 0.139415,1.602853 0.06965,1.602853 z m 0,-8.08385 c 0,0.209063 -0.06965,0.487893 -0.139299,0.696955 -0.348477,-0.06965 -0.696835,-0.06965 -1.045312,-0.139415 -0.209063,-0.27871 -0.418125,-0.627187 -0.627188,-0.83625 l 0.487773,-0.487772 c 0.766602,-0.696836 1.184727,-0.766603 1.324023,-0.766603 h 0.06965 c 1.2e-4,0 0.209179,0.418125 -0.06965,1.533085 z m 0.766602,4.251137 c -0.139415,-0.348477 -0.27871,-0.627188 -0.418125,-0.975665 0.139415,-0.348477 0.27871,-0.696835 0.418125,-0.975665 1.324022,0.278827 2.020977,0.766603 2.020977,0.975665 0,0.209063 -0.696955,0.696835 -2.020977,0.975665 z"
       id="path355"
       style="fill:#eff0f1;fill-opacity:1;stroke-width:0.0298661" />
    <path
       d="m 17.395897,16.728126 c 0,0.346386 -0.280809,0.627187 -0.627187,0.627187 -0.346378,0 -0.627188,-0.280809 -0.627188,-0.627187 0,-0.346378 0.28081,-0.627188 0.627188,-0.627188 0.346378,0 0.627187,0.28081 0.627187,0.627188"
       id="path357"
       style="fill:#eff0f1;fill-opacity:1;stroke-width:0.0298661" />
  </g>
</svg>
