<?xml version="1.0" encoding="UTF-8" standalone="no"?>
<svg
   inkscape:version="1.1.2 (0a00cf5339, 2022-02-04)"
   sodipodi:docname="kaffeine.svg"
   id="svg44"
   version="1.1"
   height="32"
   width="32"
   style="enable-background:new"
   xmlns:inkscape="http://www.inkscape.org/namespaces/inkscape"
   xmlns:sodipodi="http://sodipodi.sourceforge.net/DTD/sodipodi-0.dtd"
   xmlns:xlink="http://www.w3.org/1999/xlink"
   xmlns="http://www.w3.org/2000/svg"
   xmlns:svg="http://www.w3.org/2000/svg"
   xmlns:rdf="http://www.w3.org/1999/02/22-rdf-syntax-ns#"
   xmlns:cc="http://creativecommons.org/ns#"
   xmlns:dc="http://purl.org/dc/elements/1.1/">
  <g
     id="22-22-kaffeine"
     transform="translate(32,10)">
    <path
       id="path6"
       d="m 0,0 h 22 c 0,0 0,0 0,0 v 22 c 0,0 0,0 0,0 H 0 c 0,0 0,0 0,0 V 0 c 0,0 0,0 0,0 z"
       style="opacity:0" />
    <path
       id="Movie-3"
       class="st0"
       d="M 17.92414,5.05 4.103449,8.375 3.827586,7.425 17.620685,4.075 Z M 3.551725,18 h 12.68966 C 17.758615,18 19,16.875001 19,15.5 v -7 h -1.103455 v 1 H 3.551725 Z m 6.06896,-2 v -4 l 3.86207,1.999999 z"
       style="fill:#cdd8e5;fill-opacity:0.40392157;stroke-width:0.262613;enable-background:new" />
    <path
       id="Movie-s-6"
       class="st1"
       d="M 18.44828,4.925 17.37242,5.175 16.820685,3.25 17.896545,3 Z M 4.075861,6.325 3,6.575 3.551725,8.424999 V 10.5 H 4.655172 V 8.3 Z M 11.055175,8.5 H 9.81379 l -1.10344,2 h 1.24137 z m 3.034475,0 h -1.24137 l -1.103455,2 h 1.241385 z m 3.03449,0 h -1.241385 l -1.10344,2 h 1.24137 z m -10.317245,0 -1.103446,2 H 6.944825 L 8.04828,8.5 Z M 15.68965,18 H 4.655172 v 1 H 15.68965 C 17.51035,19 19,17.650001 19,16 V 9.5 H 17.896545 V 16 c 0,1.1 -0.99309,2 -2.206895,2 z m -3.86207,-13.55 -1.186195,0.3 1.62758,1.65 1.18621,-0.3 z m -2.924125,0.7 -1.18621,0.3 1.62758,1.65 1.18621,-0.3 z m -2.924144,0.725 -1.186208,0.3 1.627586,1.65 1.186206,-0.3 z M 16.379315,5.4 14.75172,3.75 13.56551,4.05 15.193105,5.7 Z"
       style="fill:#eff0f1;fill-opacity:1;stroke-width:0.262613;enable-background:new" />
  </g>
  <g
     id="kaffeine">
    <rect
       id="rect11"
       style="opacity:0.00100002"
       y="0"
       x="0"
       height="32"
       width="32" />
    <path
       id="Movie"
       class="st0"
       d="M 26.38621,7.0749999 5.6551735,12.0625 5.241379,10.6375 25.931027,5.6125 Z M 4.8275868,26.5 H 23.862078 C 26.137922,26.5 28,24.812501 28,22.75 v -10.5 h -1.655183 v 1.5 H 4.8275868 Z m 9.1034402,-3 v -6 l 5.793105,2.999999 z"
       style="fill:#cdd8e5;fill-opacity:0.40392157;stroke-width:0.393919" />
    <path
       id="Movie-s"
       class="st1"
       d="M 27.17242,6.8875 25.55863,7.2624999 24.731027,4.375 26.344817,4 Z M 5.6137922,8.9874999 4,9.3624999 4.8275868,12.137499 V 15.25 H 6.482758 v -3.3 z M 16.082763,12.25 h -1.862078 l -1.65516,3 h 1.862055 z m 4.551712,0 H 18.77242 l -1.655183,3 h 1.862078 z m 4.551735,0 h -1.862078 l -1.655159,3 h 1.862054 z m -15.475867,0 -1.6551695,3 H 9.917238 l 1.655182,-3 z M 23.034475,26.5 H 6.482758 V 28 H 23.034475 C 25.765525,28 28,25.975001 28,23.5 v -9.75 h -1.655183 v 9.75 c 0,1.65 -1.489634,3 -3.310342,3 z M 17.24137,6.1749999 l -1.779292,0.45 2.441369,2.4749999 1.779316,-0.45 z m -4.386187,1.05 -1.779315,0.45 L 13.517237,10.15 15.296553,9.6999998 Z m -4.3862172,1.0875 -1.7793105,0.45 2.4413789,2.4750001 1.7793078,-0.45 z M 24.068973,7.5999999 21.62758,5.125 l -1.779315,0.4499999 2.441393,2.475 z"
       style="fill:#eff0f1;fill-opacity:1;stroke-width:0.393919" />
  </g>
  <metadata
     id="metadata48">
    <rdf:RDF>
      <cc:Work
         rdf:about="">
        <dc:format>image/svg+xml</dc:format>
        <dc:type
           rdf:resource="http://purl.org/dc/dcmitype/StillImage" />
      </cc:Work>
    </rdf:RDF>
  </metadata>
  <sodipodi:namedview
     showguides="true"
     inkscape:current-layer="svg44"
     inkscape:window-maximized="1"
     inkscape:window-y="0"
     inkscape:window-x="0"
     inkscape:cy="11.41784"
     inkscape:cx="14.372456"
     inkscape:zoom="9.9843755"
     showgrid="false"
     id="namedview46"
     inkscape:window-height="1007"
     inkscape:window-width="1920"
     inkscape:pageshadow="2"
     inkscape:pageopacity="0"
     guidetolerance="10"
     gridtolerance="10"
     objecttolerance="10"
     borderopacity="1"
     bordercolor="#000000"
     pagecolor="#b2b2b2"
     inkscape:document-rotation="0"
     inkscape:lockguides="true"
     inkscape:showpageshadow="false"
     inkscape:pagecheckerboard="0">
    <inkscape:grid
       id="grid845"
       type="xygrid"
       originx="0"
       originy="0" />
  </sodipodi:namedview>
  <defs
     id="defs4">
    <linearGradient
       id="linearGradient5606"
       inkscape:swatch="solid">
      <stop
         style="stop-color:#000000"
         offset="0"
         id="stop5608" />
    </linearGradient>
    <linearGradient
       xlink:href="#1"
       id="9"
       gradientUnits="userSpaceOnUse"
       x1="252.72501"
       y1="388.505"
       x2="255.41499"
       y2="-76.616997"
       gradientTransform="matrix(0.02890894,0,0,0.02711282,8.3449777,8.8451403)" />
    <linearGradient
       id="1">
      <stop
         stop-color="#f9f9f9"
         id="stop2" />
      <stop
         offset="1"
         stop-color="#afafaf"
         id="stop4" />
    </linearGradient>
    <linearGradient
       x1="1.4797103"
       x2="1.4797103"
       y1="0.4730846"
       y2="14.665033"
       gradientTransform="matrix(0.94613118,0,0,1.0569359,7.8239662,8.0979799)"
       gradientUnits="userSpaceOnUse"
       id="linearGradient13">
      <stop
         offset="0%"
         style="stop-color:#303b3d; stop-opacity:1"
         id="stop18" />
      <stop
         offset="100%"
         style="stop-color:#bc985d; stop-opacity:1"
         id="stop20" />
    </linearGradient>
  </defs>
  <g
     id="g34"
     transform="matrix(0,0.23269337,-0.3257329,0,32.286645,4.6684124)">
    <g
       id="g32">
      <g
         id="g30">
        <g
           id="g28">
          <g
             id="g26">
            <g
               id="g24">
              <g
                 id="g22" />
            </g>
          </g>
        </g>
      </g>
    </g>
  </g>
  <g
     id="g52"
     transform="matrix(0,0.23269337,-0.3257329,0,32.286645,4.6684124)">
    <g
       id="g50">
      <g
         id="g48">
        <g
           id="g46">
          <g
             id="g44">
            <g
               id="g42">
              <g
                 id="g40" />
            </g>
          </g>
        </g>
      </g>
    </g>
  </g>
  <g
     id="g70"
     transform="matrix(0,0.23269337,-0.3257329,0,32.286645,4.6684124)">
    <g
       id="g68">
      <g
         id="g66">
        <g
           id="g64">
          <g
             id="g62">
            <g
               id="g60">
              <g
                 id="g58" />
            </g>
          </g>
        </g>
      </g>
    </g>
  </g>
  <g
     id="g88"
     transform="matrix(0,0.23269337,-0.3257329,0,32.286645,4.6684124)">
    <g
       id="g86">
      <g
         id="g84">
        <g
           id="g82">
          <g
             id="g80">
            <g
               id="g78">
              <g
                 id="g76" />
            </g>
          </g>
        </g>
      </g>
    </g>
  </g>
  <g
     id="g106"
     transform="matrix(0,0.23269337,-0.3257329,0,32.286645,4.6684124)">
    <g
       id="g104">
      <g
         id="g102">
        <g
           id="g100">
          <g
             id="g98">
            <g
               id="g96">
              <g
                 id="g94" />
            </g>
          </g>
        </g>
      </g>
    </g>
  </g>
  <g
     id="g128"
     transform="matrix(0,0.23269337,-0.3257329,0,32.286645,4.6684123)">
    <g
       id="g126">
      <g
         id="g124">
        <g
           id="g122">
          <g
             id="g120">
            <g
               id="g118">
              <g
                 id="g116">
                <g
                   id="g114" />
              </g>
            </g>
          </g>
        </g>
      </g>
    </g>
  </g>
  <g
     id="g146"
     transform="matrix(0,0.23269337,-0.3257329,0,32.286645,4.6684123)">
    <g
       id="g144">
      <g
         id="g142">
        <g
           id="g140">
          <g
             id="g138">
            <g
               id="g136">
              <g
                 id="g134">
                <g
                   id="g132" />
              </g>
            </g>
          </g>
        </g>
      </g>
    </g>
  </g>
</svg>
