<?xml version="1.0" encoding="UTF-8" standalone="no"?>
<svg
   width="32"
   height="32"
   version="1.1"
   id="svg32"
   sodipodi:docname="kalarm.svg"
   inkscape:version="1.1.2 (0a00cf5339, 2022-02-04)"
   xmlns:inkscape="http://www.inkscape.org/namespaces/inkscape"
   xmlns:sodipodi="http://sodipodi.sourceforge.net/DTD/sodipodi-0.dtd"
   xmlns="http://www.w3.org/2000/svg"
   xmlns:svg="http://www.w3.org/2000/svg"
   xmlns:rdf="http://www.w3.org/1999/02/22-rdf-syntax-ns#"
   xmlns:cc="http://creativecommons.org/ns#"
   xmlns:dc="http://purl.org/dc/elements/1.1/">
  <g
     id="22-22-kalarm-disabled"
     transform="translate(32,-22)">
    <rect
       style="opacity:0.00100002"
       width="22"
       height="22"
       x="0"
       y="0"
       id="rect7" />
    <path
       d="M 9.982358,13.666667 C 9.6056899,13.666185 9.3004479,13.340012 9.2999999,12.937501 V 9.729164 c 0,-0.972219 1.3647181,-0.972219 1.3647181,0 v 3.208337 c -4.48e-4,0.402511 -0.305685,0.728686 -0.68236,0.729166 z m 0,-4.375003 z"
       id="path8-5-36"
       style="fill:#eff0f1;fill-opacity:1;stroke-width:0.141073"
       sodipodi:nodetypes="ccsscccccccc" />
    <path
       d="m 11.892962,13.666667 c -0.376663,-4.82e-4 -0.681897,-0.326655 -0.682354,-0.729166 V 9.729164 c 0.0013,-0.971105 1.363673,-0.971105 1.364726,0 v 3.208337 c -4.56e-4,0.402511 -0.305693,0.728686 -0.682372,0.729166 z m 0,-4.375003 z"
       id="path10-7"
       style="fill:#eff0f1;fill-opacity:1;stroke-width:0.141073"
       sodipodi:nodetypes="cccccccccccc" />
    <path
       id="Alarm-3-5"
       class="st0"
       d="m 16.3,11.533333 c 0,2.933334 -2.4,5.333334 -5.333333,5.333334 -2.9333338,0 -5.3333337,-2.4 -5.3333337,-5.333334 C 5.6333333,8.6 8.0333332,6.2 10.966667,6.2 13.9,6.2 16.3,8.6 16.3,11.533333 Z m -0.32,-8.08 c -0.933333,-0.72 -2.24,-0.56 -2.96,0.346667 L 12.646667,4.253333 C 12.113334,4.12 11.553334,4.066667 10.966667,4.066667 6.8333333,4.066667 3.5,7.4 3.5,11.533333 3.5,15.666667 6.8333333,19 10.966667,19 15.1,19 18.433333,15.666667 18.433333,11.533333 c 0,-1.226666 -0.293333,-2.4 -0.826666,-3.413333 L 17.98,7.64 C 18.7,6.733333 18.54,5.426667 17.633333,4.733333 Z"
       style="clip-rule:evenodd;fill:#cdd8e5;fill-opacity:0.40392157;fill-rule:evenodd;stroke-width:0.266667" />
    <path
       id="Alarm-s-6-3"
       class="st1"
       d="M 4.9666667,5.16 C 4.5133333,5.533333 4.4333333,6.2 4.78,6.653333 l 0.2666667,0.32 C 4.8333333,7.266667 4.62,7.586667 4.4333333,7.906667 l -0.48,-0.613334 c -0.72,-0.906666 -0.56,-2.24 0.3466667,-2.96 L 5.98,3 6.6466666,3.826667 Z m 12.4000003,6.373333 c 0,1.92 -0.853333,3.653334 -2.213333,4.826667 l 0.693333,0.8 v 0 0 l 1.68,1.68 0.746666,-0.746667 -1.679999,-1.68 C 17.58,15.293333 18.193333,13.88 18.38,12.386667 18.593333,10.52 18.113333,8.653333 16.993333,7.16 L 16.14,7.8 c 0.773333,1.04 1.226667,2.32 1.226667,3.733333 z M 11.5,11.266667 Z m -6.1866667,5.146666 -1.68,1.68 L 4.38,18.84 6.0599999,17.16 C 5.82,16.946667 5.5533333,16.68 5.3133333,16.413333 Z"
       style="fill:#eff0f1;fill-opacity:1;stroke-width:0.266667"
       sodipodi:nodetypes="cccccccccsccccccccccsccccccccccc" />
  </g>
  <metadata
     id="metadata38">
    <rdf:RDF>
      <cc:Work
         rdf:about="">
        <dc:format>image/svg+xml</dc:format>
        <dc:type
           rdf:resource="http://purl.org/dc/dcmitype/StillImage" />
      </cc:Work>
    </rdf:RDF>
  </metadata>
  <defs
     id="defs36" />
  <sodipodi:namedview
     pagecolor="#b2b2b2"
     bordercolor="#000000"
     borderopacity="1"
     objecttolerance="10"
     gridtolerance="10"
     guidetolerance="10"
     inkscape:pageopacity="0"
     inkscape:pageshadow="2"
     inkscape:window-width="1920"
     inkscape:window-height="1007"
     id="namedview34"
     showgrid="false"
     inkscape:zoom="8.0000004"
     inkscape:cx="41.312498"
     inkscape:cy="1.3749999"
     inkscape:window-x="0"
     inkscape:window-y="0"
     inkscape:window-maximized="1"
     inkscape:current-layer="svg32"
     inkscape:document-rotation="0"
     inkscape:lockguides="true"
     inkscape:showpageshadow="false"
     inkscape:pagecheckerboard="0">
    <inkscape:grid
       type="xygrid"
       id="grid883"
       originx="0"
       originy="0" />
  </sodipodi:namedview>
  <g
     id="kalarm">
    <rect
       style="opacity:0.00100002"
       width="32"
       height="32"
       x="0"
       y="0"
       id="rect17" />
    <path
       id="Alarm"
       class="st0"
       d="m 24.2,16.8 c 0,4.4 -3.6,8 -8,8 -4.4,0 -8,-3.6 -8,-8 0,-4.4 3.6,-8 8,-8 4.4,0 8,3.6 8,8 z M 23.72,4.68 C 22.32,3.6 20.36,3.84 19.28,5.2 L 18.72,5.88 C 17.92,5.68 17.08,5.6 16.2,5.6 10,5.6 5,10.6 5,16.8 5,23 10,28 16.2,28 c 6.2,0 11.2,-5 11.2,-11.2 0,-1.84 -0.44,-3.6 -1.24,-5.12 l 0.56,-0.72 C 27.8,9.6 27.56,7.64 26.2,6.6 Z"
       style="clip-rule:evenodd;fill:#cdd8e5;fill-opacity:0.40392157;fill-rule:evenodd;stroke-width:0.4" />
    <path
       id="Alarm-s"
       class="st1"
       d="M 7.2,7.24 C 6.52,7.8 6.4,8.8 6.92,9.48 l 0.4,0.48 C 7,10.4 6.68,10.88 6.4,11.36 L 5.68,10.44 C 4.6,9.08 4.84,7.08 6.2,6 l 2.52,-2 1,1.24 z m 18.6,9.56 c 0,2.88 -1.28,5.48 -3.32,7.24 l 1.04,1.2 v 0 0 l 2.52,2.52 1.12,-1.12 -2.52,-2.52 c 1.48,-1.68 2.4,-3.8 2.68,-6.04 0.32,-2.8 -0.4,-5.6 -2.08,-7.84 l -1.28,0.96 c 1.16,1.56 1.84,3.48 1.84,5.6 z M 17,10.4 h -1.6 v 6.8 l 3.52,2.64 0.96,-1.28 L 17,16.4 Z M 7.72,24.12 5.2,26.64 6.32,27.76 8.84,25.24 C 8.48,24.92 8.08,24.52 7.72,24.12 Z"
       style="fill:#eff0f1;fill-opacity:1;stroke-width:0.4" />
  </g>
  <g
     id="kalarm-disabled"
     transform="translate(32)">
    <rect
       style="opacity:0.00100002"
       width="32"
       height="32"
       x="0"
       y="0"
       id="rect22" />
    <path
       d="M 14.523536,20 C 13.958535,19.999278 13.500672,19.510018 13.5,18.906251 v -4.812505 c 0,-1.458328 2.047077,-1.458328 2.047077,0 v 4.812505 C 15.546404,19.510018 15.088549,19.99928 14.523536,20 Z m 0,-6.562504 z"
       id="path8-5"
       style="fill:#eff0f1;fill-opacity:1;stroke-width:0.211609"
       sodipodi:nodetypes="ccsscccccccc" />
    <path
       d="m 17.389443,20 c -0.564995,-7.22e-4 -1.022846,-0.489982 -1.023531,-1.093749 v -4.812505 c 0.002,-1.456657 2.045509,-1.456657 2.047088,0 v 4.812505 C 18.412316,19.510018 17.954461,19.99928 17.389443,20 Z m 0,-6.562504 z"
       id="path10"
       style="fill:#eff0f1;fill-opacity:1;stroke-width:0.211609"
       sodipodi:nodetypes="cccccccccccc" />
    <path
       id="Alarm-3"
       class="st0"
       d="m 24,16.8 c 0,4.4 -3.6,8 -8,8 -4.4,0 -8,-3.6 -8,-8 0,-4.4 3.6,-8 8,-8 4.4,0 8,3.6 8,8 z M 23.52,4.68 C 22.12,3.6 20.16,3.84 19.08,5.2 L 18.52,5.88 C 17.72,5.68 16.88,5.6 16,5.6 9.8,5.6 4.8,10.6 4.8,16.8 4.8,23 9.8,28 16,28 c 6.2,0 11.2,-5 11.2,-11.2 0,-1.84 -0.44,-3.6 -1.24,-5.12 l 0.56,-0.72 C 27.6,9.6 27.36,7.64 26,6.6 Z"
       style="clip-rule:evenodd;fill:#cdd8e5;fill-opacity:0.40392157;fill-rule:evenodd;stroke-width:0.4" />
    <path
       id="Alarm-s-6"
       class="st1"
       d="M 7,7.24 C 6.32,7.8 6.2,8.8 6.72,9.48 l 0.4,0.48 C 6.8,10.4 6.48,10.88 6.2,11.36 L 5.48,10.44 C 4.4,9.08 4.64,7.08 6,6 l 2.52,-2 1,1.24 z m 18.6,9.56 c 0,2.88 -1.28,5.48 -3.32,7.24 l 1.04,1.2 v 0 0 l 2.52,2.52 1.12,-1.12 -2.52,-2.52 c 1.48,-1.68 2.4,-3.8 2.68,-6.04 0.32,-2.8 -0.4,-5.6 -2.08,-7.84 l -1.28,0.96 c 1.16,1.56 1.84,3.48 1.84,5.6 z M 16.8,16.4 Z M 7.52,24.12 5,26.64 6.12,27.76 8.64,25.24 C 8.28,24.92 7.88,24.52 7.52,24.12 Z"
       style="fill:#eff0f1;fill-opacity:1;stroke-width:0.4"
       sodipodi:nodetypes="cccccccccsccccccccccsccccccccccc" />
  </g>
  <g
     id="kalarm-partdisabled"
     transform="translate(64)">
    <rect
       style="opacity:0.00100002"
       width="32"
       height="32"
       x="0"
       y="0"
       id="rect27" />
    <path
       d="m 18.692292,20.4 h -5.384584 c -0.446079,2e-6 -0.80771,-0.361607 -0.807708,-0.807682 v -5.38461 c -2e-6,-0.446094 0.361629,-0.80771 0.807708,-0.807708 h 5.384584 c 0.44608,-2e-6 0.80771,0.361614 0.807708,0.807708 v 5.38461 c 2e-6,0.446075 -0.361628,0.807684 -0.807708,0.807682 z m -5.384584,-6.461545 c -0.148701,1e-6 -0.269224,0.120549 -0.269224,0.269253 v 5.38461 c 0,0.148679 0.120518,0.269224 0.269224,0.269226 h 5.384584 c 0.148706,0 0.269242,-0.120547 0.269242,-0.269226 z"
       id="path8"
       style="fill:#eff0f1;fill-opacity:1;stroke-width:0.269231"
       sodipodi:nodetypes="ccccccccccscccsccc" />
    <path
       id="Alarm-7"
       class="st0"
       d="m 24,16.8 c 0,4.4 -3.6,8 -8,8 -4.4,0 -8,-3.6 -8,-8 0,-4.4 3.6,-8 8,-8 4.4,0 8,3.6 8,8 z M 23.52,4.68 C 22.12,3.6 20.16,3.84 19.08,5.2 L 18.52,5.88 C 17.72,5.68 16.88,5.6 16,5.6 9.8,5.6 4.8,10.6 4.8,16.8 4.8,23 9.8,28 16,28 c 6.2,0 11.2,-5 11.2,-11.2 0,-1.84 -0.44,-3.6 -1.24,-5.12 l 0.56,-0.72 C 27.6,9.6 27.36,7.64 26,6.6 Z"
       style="clip-rule:evenodd;fill:#cdd8e5;fill-opacity:0.40392157;fill-rule:evenodd;stroke-width:0.4" />
    <path
       id="Alarm-s-5"
       class="st1"
       d="M 7,7.24 C 6.32,7.8 6.2,8.8 6.72,9.48 l 0.4,0.48 C 6.8,10.4 6.48,10.88 6.2,11.36 L 5.48,10.44 C 4.4,9.08 4.64,7.08 6,6 l 2.52,-2 1,1.24 z m 18.6,9.56 c 0,2.88 -1.28,5.48 -3.32,7.24 l 1.04,1.2 v 0 0 l 2.52,2.52 1.12,-1.12 -2.52,-2.52 c 1.48,-1.68 2.4,-3.8 2.68,-6.04 0.32,-2.8 -0.4,-5.6 -2.08,-7.84 l -1.28,0.96 c 1.16,1.56 1.84,3.48 1.84,5.6 z M 16.8,16.4 Z M 7.52,24.12 5,26.64 6.12,27.76 8.64,25.24 C 8.28,24.92 7.88,24.52 7.52,24.12 Z"
       style="fill:#eff0f1;fill-opacity:1;stroke-width:0.4"
       sodipodi:nodetypes="cccccccccsccccccccccscccccccccccc" />
  </g>
  <g
     id="22-22-kalarm"
     transform="translate(0,-22)">
    <rect
       style="opacity:0.00100002"
       width="22"
       height="22"
       x="0"
       y="0"
       id="rect2" />
    <path
       id="Alarm-35"
       class="st0"
       d="m 16.3,11.533333 c 0,2.933334 -2.4,5.333334 -5.333334,5.333334 -2.9333327,0 -5.3333327,-2.4 -5.3333327,-5.333334 C 5.6333333,8.6 8.0333333,6.2 10.966666,6.2 13.9,6.2 16.3,8.6 16.3,11.533333 Z m -0.32,-8.08 c -0.933333,-0.72 -2.24,-0.56 -2.96,0.346667 L 12.646666,4.253333 C 12.113333,4.12 11.553333,4.066667 10.966666,4.066667 6.8333333,4.066667 3.5,7.4 3.5,11.533333 3.5,15.666667 6.8333333,19 10.966666,19 15.1,19 18.433333,15.666667 18.433333,11.533333 c 0,-1.226666 -0.293333,-2.4 -0.826666,-3.413333 L 17.98,7.64 C 18.7,6.733333 18.54,5.426667 17.633333,4.733333 Z"
       style="clip-rule:evenodd;fill:#cdd8e5;fill-opacity:0.40392157;fill-rule:evenodd;stroke-width:0.266667" />
    <path
       id="Alarm-s-62"
       class="st1"
       d="M 4.9666667,5.16 C 4.5133333,5.533333 4.4333333,6.2 4.78,6.653333 l 0.2666667,0.32 C 4.8333333,7.266667 4.62,7.586667 4.4333333,7.906667 l -0.48,-0.613334 c -0.72,-0.906666 -0.56,-2.24 0.3466667,-2.96 L 5.98,3 6.6466667,3.826667 Z m 12.4000003,6.373333 c 0,1.92 -0.853334,3.653334 -2.213334,4.826667 l 0.693334,0.8 v 0 0 l 1.68,1.68 0.746666,-0.746667 -1.68,-1.68 C 17.58,15.293333 18.193333,13.88 18.38,12.386667 18.593333,10.52 18.113333,8.653333 16.993333,7.16 L 16.14,7.8 c 0.773333,1.04 1.226667,2.32 1.226667,3.733333 z M 11.5,7.266667 H 10.433333 V 11.8 l 2.346667,1.76 0.64,-0.853333 -1.92,-1.44 z m -6.1866667,9.146666 -1.68,1.68 L 4.38,18.84 6.06,17.16 C 5.82,16.946667 5.5533333,16.68 5.3133333,16.413333 Z"
       style="fill:#eff0f1;fill-opacity:1;stroke-width:0.266667" />
  </g>
  <g
     id="22-22-kalarm-partdisabled"
     transform="translate(64,-22)">
    <rect
       style="opacity:0.00100002"
       width="22"
       height="22"
       x="0"
       y="0"
       id="rect12" />
    <path
       d="M 12.761528,13.933333 H 9.171805 c -0.297386,1e-6 -0.538473,-0.241071 -0.538472,-0.538455 V 9.8051387 c -1e-6,-0.297396 0.241086,-0.5384734 0.538472,-0.538472 h 3.589723 c 0.297387,-1.4e-6 0.538473,0.241076 0.538472,0.538472 v 3.5897393 c 10e-7,0.297384 -0.241085,0.538456 -0.538472,0.538455 z M 9.171805,9.6256367 c -0.09913,6e-7 -0.179482,0.080366 -0.179482,0.179502 v 3.5897393 c 0,0.09912 0.08035,0.179483 0.179482,0.179484 h 3.589723 c 0.09914,0 0.179495,-0.08036 0.179495,-0.179484 z"
       id="path8-56"
       style="fill:#eff0f1;fill-opacity:1;stroke-width:0.179487"
       sodipodi:nodetypes="ccccccccccscccsccc" />
    <path
       id="Alarm-7-2"
       class="st0"
       d="m 16.3,11.533333 c 0,2.933333 -2.4,5.333334 -5.333333,5.333334 -2.933334,0 -5.333334,-2.400001 -5.333334,-5.333334 C 5.633333,8.6 8.033333,6.2 10.966667,6.2 13.9,6.2 16.3,8.6 16.3,11.533333 Z M 15.98,3.4533333 c -0.933333,-0.72 -2.24,-0.56 -2.96,0.3466667 L 12.646667,4.2533333 C 12.113333,4.12 11.553333,4.0666666 10.966667,4.0666666 6.833333,4.0666666 3.5,7.4 3.5,11.533333 3.5,15.666667 6.833333,19 10.966667,19 15.1,19 18.433333,15.666667 18.433333,11.533333 18.433333,10.306666 18.14,9.1333333 17.606667,8.12 L 17.98,7.64 C 18.7,6.7333333 18.54,5.4266666 17.633333,4.7333333 Z"
       style="clip-rule:evenodd;fill:#cdd8e5;fill-opacity:0.40392157;fill-rule:evenodd;stroke-width:0.266667" />
    <path
       id="Alarm-s-5-9"
       class="st1"
       d="M 4.966667,5.16 C 4.513333,5.5333333 4.433333,6.2 4.78,6.6533333 l 0.266667,0.32 C 4.833333,7.2666667 4.62,7.5866667 4.433333,7.9066667 l -0.48,-0.6133334 c -0.72,-0.9066666 -0.56,-2.24 0.346667,-2.96 L 5.98,3 6.646667,3.8266667 Z m 12.4,6.373333 c 0,1.92 -0.853334,3.653334 -2.213334,4.826667 l 0.693334,0.8 v 0 0 l 1.68,1.68 0.746666,-0.746667 -1.68,-1.68 C 17.58,15.293333 18.193333,13.88 18.38,12.386666 18.593333,10.52 18.113333,8.6533333 16.993333,7.16 L 16.14,7.8 c 0.773333,1.04 1.226667,2.32 1.226667,3.733333 z M 11.5,11.266666 Z m -6.186667,5.146667 -1.68,1.68 L 4.38,18.84 6.06,17.16 C 5.82,16.946667 5.553333,16.68 5.313333,16.413333 Z"
       style="fill:#eff0f1;fill-opacity:1;stroke-width:0.266667"
       sodipodi:nodetypes="cccccccccsccccccccccscccccccccccc" />
  </g>
</svg>
