<?xml version="1.0" encoding="UTF-8" standalone="no"?>
<svg
   width="32"
   height="32"
   version="1"
   id="svg12"
   sodipodi:docname="kate.svg"
   inkscape:version="1.1.2 (0a00cf5339, 2022-02-04)"
   xmlns:inkscape="http://www.inkscape.org/namespaces/inkscape"
   xmlns:sodipodi="http://sodipodi.sourceforge.net/DTD/sodipodi-0.dtd"
   xmlns="http://www.w3.org/2000/svg"
   xmlns:svg="http://www.w3.org/2000/svg"
   xmlns:rdf="http://www.w3.org/1999/02/22-rdf-syntax-ns#"
   xmlns:cc="http://creativecommons.org/ns#"
   xmlns:dc="http://purl.org/dc/elements/1.1/">
  <g
     id="22-22-kate"
     transform="translate(32,10)">
    <rect
       style="opacity:0.00100002"
       width="22"
       height="22"
       x="0"
       y="0"
       id="rect2" />
    <path
       id="Page_1_-3"
       class="st0"
       d="m 14.499999,6 v 0 l -1,-1 V 5 H 6.5 v 13 h 8.499999 c 1.375,0 2.5,-1.125 2.5,-2.5 V 9 Z M 8.5,7.5 Z m 0,2.5 z m 0,5 z m 0,-2.5 z"
       sodipodi:nodetypes="ccccccsscccccccccccccccccccccc"
       style="fill:#cdd8e5;fill-opacity:0.40392157;stroke-width:0.25" />
    <path
       id="Page-s-6"
       class="st1"
       d="m 15.366667,9 h 2.133332 v 7 c 0,1.65 -1.349999,3 -3,3 H 7.5 v -1 h 6.999999 c 1.1,0 2,-0.900001 2,-2 V 10 H 15.366667 Z M 4.5,5 c 0,-1.1 0.9,-2 2,-2 h 4.999999 V 4 H 6.5 c -0.55,0 -1,0.45 -1,1 v 8.5 h -1 z"
       style="fill:#eff0f1;fill-opacity:1;stroke-width:0.25"
       sodipodi:nodetypes="ccssccsscccssccssccs" />
    <path
       style="fill:#eff0f1;fill-opacity:1;stroke:none;stroke-width:0.0293327;stroke-linecap:butt;stroke-linejoin:miter;stroke-miterlimit:4;stroke-dasharray:none;stroke-opacity:1"
       d="M 9.923042,9.292705 C 9.568317,8.115095 7.563739,8.400854 7.228667,8.375287 7.604747,8.1886 7.944615,8.034719 8.71992,7.473073 c 1.493598,-1.08196 3.074897,-0.845998 3.866774,-0.416325 -2.164875,0.0823 -1.752448,1.261717 -1.433586,1.883161 -0.405507,0.117786 -1.045615,0.295594 -1.230066,0.352796 z"
       id="path905-3-7"
       inkscape:connector-curvature="0" />
    <path
       sodipodi:nodetypes="cssscccccsssc"
       inkscape:connector-curvature="0"
       id="path907-6-5"
       d="m 15.266851,7.672255 c -0.779586,1.029722 -2.075706,2.420946 -3.494228,2.604204 -1.418536,0.183262 -2.770867,-0.01984 -3.084128,1.036702 -0.288479,0.9729 0.726135,1.881236 1.778458,1.662324 1.124223,-0.233883 0.881429,-1.508105 0.266528,-2.375816 0.467076,-0.02671 0.380192,-0.01991 1.172256,-0.05979 1.180596,1.00634 1.571932,1.293258 3.634508,2.761505 -1.58947,-0.166469 -2.167952,-0.319323 -3.307984,-1.001236 0.29533,0.741304 0.926554,2.423754 1.063286,3.729181 C 12.638031,15.084519 12.38875,14.737295 11.369755,14.055677 10.064487,13.182582 9.007372,13.153022 8.395521,11.866667 7.784998,10.583094 8.593107,9.658476 10.039168,9.258058 12.105669,8.685826 13.886259,8.143293 15.266851,7.672242 Z"
       style="fill:#e6e6e6;fill-opacity:1;stroke:none;stroke-width:0.0293327;stroke-linecap:butt;stroke-linejoin:miter;stroke-miterlimit:4;stroke-dasharray:none;stroke-opacity:1" />
    <path
       sodipodi:nodetypes="cccc"
       inkscape:connector-curvature="0"
       id="path909-7-3"
       d="m 10.733481,10.599669 c 0.467076,-0.02671 0.380192,-0.01991 1.172256,-0.05979 1.180596,1.00634 1.571932,1.293258 3.634508,2.761505 -2.073174,-0.148307 -3.641796,-0.759755 -4.806764,-2.701725 z"
       style="fill:#e6e6e6;fill-opacity:1;stroke:none;stroke-width:0.0293327;stroke-linecap:butt;stroke-linejoin:miter;stroke-miterlimit:4;stroke-dasharray:none;stroke-opacity:1" />
    <path
       style="fill:#eff0f1;fill-opacity:1;stroke:none;stroke-width:0.0293327;stroke-linecap:butt;stroke-linejoin:miter;stroke-miterlimit:4;stroke-dasharray:none;stroke-opacity:1"
       d="m 15.266851,7.672255 c -0.779586,1.029722 -2.075706,2.420946 -3.494228,2.604204 -1.418536,0.183262 -2.770867,-0.01984 -3.084128,1.036702 -0.288479,0.9729 0.726135,1.881236 1.778458,1.662324 1.124223,-0.233883 0.881429,-1.508105 0.266528,-2.375816 0.467076,-0.02671 0.380192,-0.01991 1.172256,-0.05979 1.180596,1.00634 1.571932,1.293258 3.634508,2.761505 -1.58947,-0.166469 -2.167952,-0.319323 -3.307984,-1.001236 0.29533,0.741304 0.926554,2.423754 1.063286,3.729181 C 12.638031,15.084519 12.38875,14.737295 11.369755,14.055677 10.064487,13.182582 9.007372,13.153022 8.395521,11.866667 7.784998,10.583094 8.593107,9.658476 10.039168,9.258058 12.105669,8.685826 13.886259,8.143293 15.266851,7.672242 Z"
       id="path911-5-5"
       inkscape:connector-curvature="0"
       sodipodi:nodetypes="cssscccccsssc" />
    <path
       style="fill:#eff0f1;fill-opacity:1;stroke:none;stroke-width:0.0293327;stroke-linecap:butt;stroke-linejoin:miter;stroke-miterlimit:4;stroke-dasharray:none;stroke-opacity:1"
       d="m 10.733481,10.599669 c 0.467076,-0.02671 0.380192,-0.01991 1.172256,-0.05979 1.180596,1.00634 1.571932,1.293258 3.634508,2.761505 -2.073174,-0.148307 -3.641796,-0.759755 -4.806764,-2.701725 z"
       id="path913-3-6"
       inkscape:connector-curvature="0"
       sodipodi:nodetypes="cccc" />
    <path
       sodipodi:nodetypes="ccccc"
       inkscape:connector-curvature="0"
       id="path915-5-2"
       d="M 7.228667,8.375287 C 7.604747,8.1886 7.944615,8.034719 8.71992,7.473073 10.213518,6.391113 11.794817,6.627075 12.586694,7.056748 10.421819,7.139048 10.700755,7.570393 10.692769,7.908545 9.254425,7.605357 8.834445,8.017864 7.228667,8.375287 Z"
       style="fill:#eff0f1;fill-opacity:1;stroke:none;stroke-width:0.0293327;stroke-linecap:butt;stroke-linejoin:miter;stroke-miterlimit:4;stroke-dasharray:none;stroke-opacity:1" />
    <path
       inkscape:connector-curvature="0"
       id="path917-6-9"
       d="m 12.586694,7.056747 c -2.164875,0.0823 -1.752448,1.261718 -1.433586,1.883162 -0.252631,0.07339 -0.526438,0.15698 -0.864152,0.246366 -1.362634,-2.42799 1.185592,-2.743858 2.297738,-2.129528 z"
       style="fill:#eff0f1;fill-opacity:1;stroke:none;stroke-width:0.0293327;stroke-linecap:butt;stroke-linejoin:miter;stroke-miterlimit:4;stroke-dasharray:none;stroke-opacity:1"
       sodipodi:nodetypes="cccc" />
    <path
       sodipodi:nodetypes="cscc"
       style="fill:#eff0f1;fill-opacity:1;stroke:none;stroke-width:0.0293327;stroke-linecap:butt;stroke-linejoin:miter;stroke-miterlimit:4;stroke-dasharray:none;stroke-opacity:1"
       d="M 8.785345,12.471539 C 7.725977,11.107469 7.921577,9.857183 9.995979,9.207573 12.043064,8.566519 13.886259,8.143307 15.266851,7.672255 11.54113,9.091833 6.875809,10.040391 8.785345,12.471539 Z"
       id="path919-2-1"
       inkscape:connector-curvature="0" />
  </g>
  <g
     id="kate">
    <rect
       style="opacity:0.00100002"
       width="32"
       height="32"
       x="0"
       y="0"
       id="rect7" />
    <path
       id="Page_1_"
       class="st0"
       d="m 21.249999,8.5 v 0 l -1.5,-1.5 V 7 H 9.25 v 19.5 h 12.749999 c 2.0625,0 3.75,-1.6875 3.75,-3.75 V 13 Z M 12.25,10.75 Z m 0,3.75 z m 0,7.5 z m 0,-3.75 z"
       sodipodi:nodetypes="ccccccsscccccccccccccccccccccc"
       style="fill:#cdd8e5;fill-opacity:0.40392157;stroke-width:0.375" />
    <path
       id="Page-s"
       class="st1"
       d="m 22.55,13 h 3.199999 v 10.5 c 0,2.475 -2.024999,4.5 -4.5,4.5 H 10.75 v -1.5 h 10.499999 c 1.65,0 3,-1.350001 3,-3 v -9 H 22.55 Z M 6.25,7 c 0,-1.65 1.35,-3 3,-3 h 7.499999 V 5.5 H 9.25 C 8.425,5.5 7.75,6.175 7.75,7 v 12.75 h -1.5 z"
       style="fill:#eff0f1;fill-opacity:1;stroke-width:0.375"
       sodipodi:nodetypes="ccssccsscccssccssccs" />
    <path
       style="fill:#eff0f1;fill-opacity:1;stroke:none;stroke-width:0.043999;stroke-linecap:butt;stroke-linejoin:miter;stroke-miterlimit:4;stroke-dasharray:none;stroke-opacity:1"
       d="M 14.384563,13.439058 C 13.852476,11.672642 10.845608,12.101281 10.343,12.062931 c 0.564121,-0.280031 1.073923,-0.510852 2.23688,-1.353321 2.240397,-1.62294 4.612345,-1.268997 5.800161,-0.624488 -3.247313,0.123443 -2.628672,1.892576 -2.150379,2.824742 -0.60826,0.176679 -1.568422,0.44339 -1.845099,0.529194 z"
       id="path905-3"
       inkscape:connector-curvature="0" />
    <path
       sodipodi:nodetypes="cssscccccsssc"
       inkscape:connector-curvature="0"
       id="path907-6"
       d="m 22.400276,11.008383 c -1.169378,1.544582 -3.113558,3.631419 -5.241341,3.906306 -2.127805,0.274893 -4.156301,-0.02976 -4.626193,1.555053 -0.432718,1.45935 1.089203,2.821853 2.667687,2.493486 1.686335,-0.350825 1.322144,-2.262158 0.399793,-3.563724 0.700613,-0.04007 0.570287,-0.02986 1.758384,-0.08968 1.770894,1.509511 2.357897,1.939888 5.451762,4.142258 -2.384205,-0.249703 -3.251928,-0.478985 -4.961977,-1.501854 0.442995,1.111956 1.389831,3.635631 1.594929,5.593772 -0.986273,-1.417216 -1.360195,-1.938052 -2.888687,-2.960479 -1.957903,-1.309642 -3.543575,-1.353982 -4.461351,-3.283515 -0.915785,-1.925359 0.296379,-3.312286 2.46547,-3.912913 3.099752,-0.858348 5.770637,-1.672148 7.841524,-2.378724 z"
       style="fill:#e6e6e6;fill-opacity:1;stroke:none;stroke-width:0.043999;stroke-linecap:butt;stroke-linejoin:miter;stroke-miterlimit:4;stroke-dasharray:none;stroke-opacity:1" />
    <path
       sodipodi:nodetypes="cccc"
       inkscape:connector-curvature="0"
       id="path909-7"
       d="m 15.600222,15.399504 c 0.700613,-0.04007 0.570287,-0.02986 1.758384,-0.08968 1.770894,1.509511 2.357897,1.939888 5.451762,4.142258 -3.109761,-0.222461 -5.462694,-1.139632 -7.210146,-4.052588 z"
       style="fill:#e6e6e6;fill-opacity:1;stroke:none;stroke-width:0.043999;stroke-linecap:butt;stroke-linejoin:miter;stroke-miterlimit:4;stroke-dasharray:none;stroke-opacity:1" />
    <path
       style="fill:#eff0f1;fill-opacity:1;stroke:none;stroke-width:0.043999;stroke-linecap:butt;stroke-linejoin:miter;stroke-miterlimit:4;stroke-dasharray:none;stroke-opacity:1"
       d="m 22.400276,11.008383 c -1.169378,1.544582 -3.113558,3.631419 -5.241341,3.906306 -2.127805,0.274893 -4.156301,-0.02976 -4.626193,1.555053 -0.432718,1.45935 1.089203,2.821853 2.667687,2.493486 1.686335,-0.350825 1.322144,-2.262158 0.399793,-3.563724 0.700613,-0.04007 0.570287,-0.02986 1.758384,-0.08968 1.770894,1.509511 2.357897,1.939888 5.451762,4.142258 -2.384205,-0.249703 -3.251928,-0.478985 -4.961977,-1.501854 0.442995,1.111956 1.389831,3.635631 1.594929,5.593772 -0.986273,-1.417216 -1.360195,-1.938052 -2.888687,-2.960479 -1.957903,-1.309642 -3.543575,-1.353982 -4.461351,-3.283515 -0.915785,-1.925359 0.296379,-3.312286 2.46547,-3.912913 3.099752,-0.858348 5.770637,-1.672148 7.841524,-2.378724 z"
       id="path911-5"
       inkscape:connector-curvature="0"
       sodipodi:nodetypes="cssscccccsssc" />
    <path
       style="fill:#eff0f1;fill-opacity:1;stroke:none;stroke-width:0.043999;stroke-linecap:butt;stroke-linejoin:miter;stroke-miterlimit:4;stroke-dasharray:none;stroke-opacity:1"
       d="m 15.600222,15.399504 c 0.700613,-0.04007 0.570287,-0.02986 1.758384,-0.08968 1.770894,1.509511 2.357897,1.939888 5.451762,4.142258 -3.109761,-0.222461 -5.462694,-1.139632 -7.210146,-4.052588 z"
       id="path913-3"
       inkscape:connector-curvature="0"
       sodipodi:nodetypes="cccc" />
    <path
       sodipodi:nodetypes="ccccc"
       inkscape:connector-curvature="0"
       id="path915-5"
       d="m 10.343,12.062931 c 0.564121,-0.280031 1.073923,-0.510852 2.23688,-1.353321 2.240397,-1.62294 4.612345,-1.268997 5.800161,-0.624488 -3.247313,0.123443 -2.828909,0.770467 -2.840888,1.277696 -2.157515,-0.454782 -2.787485,0.163978 -5.196153,0.700113 z"
       style="fill:#eff0f1;fill-opacity:1;stroke:none;stroke-width:0.043999;stroke-linecap:butt;stroke-linejoin:miter;stroke-miterlimit:4;stroke-dasharray:none;stroke-opacity:1" />
    <path
       inkscape:connector-curvature="0"
       id="path917-6"
       d="m 18.380041,10.085121 c -3.247313,0.123443 -2.628672,1.892576 -2.150379,2.824743 -0.378947,0.110079 -0.789657,0.235469 -1.296228,0.369548 -2.043951,-3.641985 1.778388,-4.115786 3.446607,-3.194291 z"
       style="fill:#eff0f1;fill-opacity:1;stroke:none;stroke-width:0.043999;stroke-linecap:butt;stroke-linejoin:miter;stroke-miterlimit:4;stroke-dasharray:none;stroke-opacity:1"
       sodipodi:nodetypes="cccc" />
    <path
       sodipodi:nodetypes="cscc"
       style="fill:#eff0f1;fill-opacity:1;stroke:none;stroke-width:0.043999;stroke-linecap:butt;stroke-linejoin:miter;stroke-miterlimit:4;stroke-dasharray:none;stroke-opacity:1"
       d="m 12.678018,18.207309 c -1.589053,-2.046105 -1.295652,-3.921535 1.81595,-4.895949 3.070628,-0.961582 5.835421,-1.596399 7.906308,-2.302977 -5.588581,2.129367 -12.586562,3.552203 -9.722258,7.198926 z"
       id="path919-2"
       inkscape:connector-curvature="0" />
  </g>
  <metadata
     id="metadata18">
    <rdf:RDF>
      <cc:Work
         rdf:about="">
        <dc:format>image/svg+xml</dc:format>
        <dc:type
           rdf:resource="http://purl.org/dc/dcmitype/StillImage" />
      </cc:Work>
    </rdf:RDF>
  </metadata>
  <defs
     id="defs16" />
  <sodipodi:namedview
     pagecolor="#b2b2b2"
     bordercolor="#000000"
     borderopacity="1"
     objecttolerance="10"
     gridtolerance="10"
     guidetolerance="10"
     inkscape:pageopacity="0"
     inkscape:pageshadow="2"
     inkscape:window-width="1920"
     inkscape:window-height="1007"
     id="namedview14"
     showgrid="false"
     inkscape:zoom="13.876971"
     inkscape:cx="30.22994"
     inkscape:cy="18.519892"
     inkscape:window-x="0"
     inkscape:window-y="0"
     inkscape:window-maximized="1"
     inkscape:current-layer="svg12"
     inkscape:document-rotation="0"
     inkscape:showpageshadow="false"
     inkscape:lockguides="true"
     inkscape:pagecheckerboard="0">
    <inkscape:grid
       type="xygrid"
       id="grid1003"
       originx="0"
       originy="0" />
  </sodipodi:namedview>
</svg>
