<?xml version="1.0" encoding="UTF-8" standalone="no"?>
<svg
   sodipodi:docname="kdeconnect.svg"
   height="31.999973"
   width="32.000015"
   inkscape:version="1.1.2 (0a00cf5339, 2022-02-04)"
   version="1.1"
   id="svg"
   viewBox="0 0 32.000013 31.999973"
   xmlns:inkscape="http://www.inkscape.org/namespaces/inkscape"
   xmlns:sodipodi="http://sodipodi.sourceforge.net/DTD/sodipodi-0.dtd"
   xmlns="http://www.w3.org/2000/svg"
   xmlns:svg="http://www.w3.org/2000/svg"
   xmlns:rdf="http://www.w3.org/1999/02/22-rdf-syntax-ns#"
   xmlns:cc="http://creativecommons.org/ns#"
   xmlns:dc="http://purl.org/dc/elements/1.1/">
  <g
     id="22-22-kdeconnect"
     transform="translate(4.5624742,38.581211)">
    <rect
       style="fill:#000000;fill-opacity:0;stroke:none"
       id="rect3841"
       width="22"
       height="22"
       x="4.6325685e-08"
       y="1.8530272e-07" />
    <path
       style="color:#d3dae3;fill:#eff0f1;fill-opacity:1;fill-rule:evenodd;stroke-width:0.332805;image-rendering:optimizeQuality;shape-rendering:geometricPrecision;text-rendering:geometricPrecision"
       d="m 11.333811,7.863342 -1.003615,0.1748513 v 3.4567427 l 0.998417,-0.128698 -0.0052,-1.5580741 1.177817,1.7244741 1.157015,-0.1664 L 12.32703,9.5813179 13.662793,8.0837 12.491479,7.8678873 11.323413,9.3655119 Z M 9.223233,8.7460493 c -0.0097,5.107e-4 -0.01874,0.005 -0.026,0.012333 L 8.852726,9.106787 c -0.01499,0.01504 -0.01747,0.03854 -0.0059,0.05656 L 9.262832,9.8023036 C 9.184352,9.941576 9.125059,10.094279 9.086678,10.25406 l -0.718263,0.17615 c -0.01991,0.0049 -0.03512,0.0229 -0.03512,0.04357 v 0.226848 0.226854 c 0,0.02066 0.01517,0.03867 0.03512,0.04359 l 0.718259,0.176149 c 0.03835,0.159779 0.09768,0.31249 0.176156,0.451758 l -0.415962,0.638945 c -0.01161,0.01799 -0.0091,0.04149 0.0059,0.05655 l 0.344506,0.348402 c 0.01452,0.01465 0.03708,0.01587 0.05457,0.0052 l 0.65195,-0.39974 c 0.127906,0.07451 0.327984,0.134464 0.47386,0.1742 l 0.152752,0.737762 c 0.0043,0.02129 0.02117,0.03638 0.04224,0.03638 h 0.256752 0.256754 c 0.02111,0 0.038,-0.01507 0.04225,-0.03638 l 0.152753,-0.737757 c 0.145874,-0.03971 0.345947,-0.09969 0.473859,-0.174203 l 0.651958,0.399751 c 0.01755,0.01063 0.04005,0.0095 0.05455,-0.0052 l 0.344508,-0.348402 c 0.01498,-0.01504 0.01749,-0.03855 0.0059,-0.05655 l -0.346454,-0.532353 -0.04291,0.0064 -0.243104,-0.356208 c -0.248292,0.52049 -0.773383,0.852186 -1.350066,0.852808 -0.827114,0 -1.49762,-0.670506 -1.49762,-1.497614 8e-4,-0.568476 0.322772,-1.0876675 0.83201,-1.3403175 v -0.326934 c -0.09493,0.031633 -0.188203,0.067349 -0.260004,0.1092107 L 9.251773,8.7531906 c -0.0088,-0.00533 -0.01896,-0.00795 -0.02861,-0.00703 z"
       class="ColorScheme-Text"
       id="path10-36" />
    <path
       id="Mobile-7"
       class="st0"
       d="M 8,3 C 6.9,3 6,3.9 6,5 h 9 V 16 H 6 v 2 h 8 c 1.1,0 2,-0.9 2,-2 V 3 Z"
       style="fill:#cdd8e5;fill-opacity:0.40392157;stroke-width:0.25" />
    <path
       id="Mobile-s-5"
       class="st1"
       d="M 7,16 H 6 V 5 C 6,3.9 6.9,3 8,3 H 9 V 4 H 8 C 7.45,4 7,4.45 7,5 Z m 8,0 c 0,1.1 -0.9,2 -2,2 H 7 v 1 h 6 c 1.65,0 3,-1.35 3,-3 z M 15,5 h 1 V 4 h -1 z m -3.5,11.5 h -1 v 1 h 1 z"
       style="fill:#eff0f1;fill-opacity:1;stroke-width:0.25" />
  </g>
  <defs
     id="defs81">
    <style
       type="text/css"
       id="current-color-scheme" />
    <style
       id="current-color-scheme-9"
       type="text/css" />
  </defs>
  <metadata
     id="metadata34">
    <rdf:RDF>
      <cc:Work
         rdf:about="">
        <dc:format>image/svg+xml</dc:format>
        <dc:type
           rdf:resource="http://purl.org/dc/dcmitype/StillImage" />
      </cc:Work>
    </rdf:RDF>
  </metadata>
  <sodipodi:namedview
     inkscape:document-rotation="0"
     fit-margin-bottom="0"
     fit-margin-right="0"
     fit-margin-left="0"
     fit-margin-top="0"
     inkscape:snap-bbox-midpoints="true"
     inkscape:snap-bbox="true"
     inkscape:guide-bbox="true"
     showguides="false"
     borderlayer="false"
     inkscape:current-layer="svg"
     inkscape:window-maximized="1"
     inkscape:window-y="0"
     inkscape:window-x="0"
     inkscape:cy="47.552934"
     inkscape:cx="17.589282"
     inkscape:zoom="5.6568539"
     showgrid="false"
     id="namedview32"
     inkscape:window-height="1007"
     inkscape:window-width="1920"
     inkscape:pageshadow="2"
     inkscape:pageopacity="0.11372549"
     guidetolerance="10"
     gridtolerance="10"
     objecttolerance="10"
     borderopacity="1"
     bordercolor="#000000"
     pagecolor="#b3b3b3"
     inkscape:lockguides="true"
     inkscape:pagecheckerboard="0"
     inkscape:showpageshadow="false">
    <inkscape:grid
       spacingy="1.0666667"
       spacingx="1.0666666"
       originy="-31.966645"
       originx="-51.666626"
       snapvisiblegridlinesonly="true"
       enabled="true"
       visible="true"
       empspacing="5"
       id="grid3046"
       type="xygrid" />
  </sodipodi:namedview>
  <g
     id="kdeconnect">
    <rect
       width="32.000015"
       height="31.999973"
       rx="0"
       ry="0"
       x="-4.4677737e-09"
       y="1.4697265e-07"
       id="rect3860"
       style="opacity:0.01;fill:#eff0f1;fill-opacity:0;stroke:none" />
    <path
       style="color:#d3dae3;fill:#eff0f1;fill-opacity:1;fill-rule:evenodd;stroke-width:0.499207;image-rendering:optimizeQuality;shape-rendering:geometricPrecision;text-rendering:geometricPrecision"
       d="m 16.500725,11.345013 -1.505423,0.262277 v 5.185115 l 1.497625,-0.193047 -0.0078,-2.337112 1.766726,2.586711 1.735522,-0.249599 -1.996822,-2.677381 2.003645,-2.246427 -1.756972,-0.323719 -1.752099,2.246437 z m -3.165868,1.324061 c -0.01451,7.66e-4 -0.02811,0.0075 -0.039,0.0185 l -0.51676,0.522607 c -0.02249,0.02256 -0.0262,0.05781 -0.0088,0.08484 l 0.624009,0.958435 c -0.11772,0.208908 -0.20666,0.437963 -0.264232,0.677635 L 12.05268,15.195316 C 12.02281,15.202616 12,15.229666 12,15.260666 v 0.340272 0.340281 c 0,0.03099 0.02275,0.058 0.05268,0.06538 l 1.077388,0.264224 c 0.05753,0.239668 0.146514,0.468734 0.264234,0.677636 l -0.623992,0.958419 c -0.01741,0.02699 -0.0137,0.06224 0.0088,0.08483 l 0.516759,0.522602 c 0.02178,0.02197 0.05562,0.02381 0.08185,0.0078 l 0.977925,-0.599609 c 0.191859,0.11177 0.491976,0.201695 0.710789,0.2613 l 0.229128,1.106642 c 0.0064,0.03193 0.03176,0.05457 0.06336,0.05457 h 0.385129 0.385131 c 0.03167,0 0.057,-0.0226 0.06338,-0.05457 l 0.22913,-1.106635 c 0.218811,-0.05957 0.518921,-0.149536 0.710789,-0.261305 l 0.977937,0.599627 c 0.02632,0.01595 0.06008,0.01421 0.08182,-0.0078 l 0.516762,-0.522603 c 0.02247,-0.02256 0.02623,-0.05782 0.0088,-0.08483 l -0.519681,-0.79853 -0.06437,0.0096 -0.364656,-0.534312 c -0.372438,0.780735 -1.160075,1.278279 -2.025099,1.279213 -1.240671,0 -2.24643,-1.00576 -2.24643,-2.246421 0.0012,-0.852715 0.484157,-1.631502 1.248014,-2.010477 v -0.490401 c -0.142394,0.04745 -0.282304,0.101023 -0.390006,0.163816 l -0.977904,-0.599599 c -0.01319,-0.008 -0.02844,-0.01192 -0.04292,-0.01055 z"
       class="ColorScheme-Text"
       id="path10" />
    <path
       id="Mobile"
       class="st0"
       d="m 11.500008,4.05 c -1.6500004,0 -3.0000004,1.35 -3.0000004,3 H 22.000008 v 16.5 H 8.5000076 v 3 H 20.500008 c 1.65,0 3,-1.35 3,-3 V 4.05 Z"
       style="fill:#cdd8e5;fill-opacity:0.40392157;stroke-width:0.375" />
    <path
       id="Mobile-s"
       class="st1"
       d="M 10.000008,23.55 H 8.5000076 V 7.05 c 0,-1.65 1.35,-3 3.0000004,-3 h 1.5 v 1.5 h -1.5 c -0.825,0 -1.5,0.675 -1.5,1.5 z m 12,0 c 0,1.65 -1.35,3 -3,3 h -9 v 1.5 h 9 c 2.475,0 4.5,-2.025 4.5,-4.5 z m 0,-16.5 h 1.5 v -1.5 h -1.5 z m -5.25,17.25 h -1.5 v 1.5 h 1.5 z"
       style="fill:#eff0f1;fill-opacity:1;stroke-width:0.375" />
  </g>
  <g
     id="16-16-kdeconnect"
     transform="translate(7.0624752,72.581215)">
    <rect
       style="fill:#566060;fill-opacity:0;stroke:none"
       id="rect3889"
       width="16"
       height="16"
       x="0"
       y="0"
       ry="2.9278411e-07" />
    <path
       style="color:#d3dae3;fill:#eff0f1;fill-opacity:1;fill-rule:evenodd;stroke-width:0.249603;image-rendering:optimizeQuality;shape-rendering:geometricPrecision;text-rendering:geometricPrecision"
       d="M 8.200358,5.7475065 7.447647,5.878645 V 8.4712025 L 8.196459,8.3746795 8.192559,7.2061235 9.075922,8.499479 9.943683,8.3746795 8.945272,7.035989 9.947095,5.9127755 9.068609,5.750916 8.192559,6.8741345 Z M 6.617424,6.409537 c -0.0073,3.83e-4 -0.01406,0.00375 -0.0195,0.00925 l -0.25838,0.2613035 c -0.01125,0.01128 -0.0131,0.028905 -0.0044,0.04242 L 6.647149,7.201728 C 6.588289,7.306182 6.543819,7.4207095 6.515033,7.5405455 L 5.976336,7.672658 c -0.01494,0.00365 -0.02634,0.017175 -0.02634,0.032675 v 0.170136 0.1701405 c 0,0.015495 0.01138,0.029 0.02634,0.03269 l 0.538694,0.132112 c 0.02876,0.119834 0.07326,0.234367 0.132117,0.338818 L 6.335151,9.028439 c -0.0087,0.013495 -0.0069,0.03112 0.0044,0.042415 L 6.59793,9.332155 C 6.60882,9.34314 6.62574,9.34406 6.63886,9.336055 L 7.127823,9.0362505 c 0.09593,0.055885 0.245988,0.1008475 0.355394,0.13065 l 0.114564,0.553321 c 0.0032,0.015965 0.01588,0.027285 0.03168,0.027285 h 0.192565 0.192565 c 0.01583,0 0.0285,-0.0113 0.03169,-0.027285 L 8.160846,9.166904 C 8.270252,9.137119 8.420307,9.092136 8.516241,9.0362515 L 9.005209,9.336065 c 0.01316,0.00798 0.03004,0.00711 0.04091,-0.0039 L 9.3045,9.0708635 c 0.01123,-0.01128 0.01311,-0.02891 0.0044,-0.042415 L 9.04906,8.6291835 9.01687,8.6339835 8.834542,8.3668275 C 8.648323,8.757195 8.254504,9.005967 7.821992,9.006434 c -0.620335,0 -1.123215,-0.50288 -1.123215,-1.1232105 6e-4,-0.4263575 0.242079,-0.815751 0.624007,-1.0052385 V 6.6327845 c -0.0712,0.023725 -0.141152,0.050511 -0.195003,0.081908 L 6.638829,6.414893 c -0.0066,-0.004 -0.01422,-0.00596 -0.02146,-0.00527 z"
       class="ColorScheme-Text"
       id="path10-3" />
    <path
       id="Mobile-5"
       class="st0"
       d="M 5.7,2.1 C 4.875,2.1 4.2,2.775 4.2,3.6 h 6.75 v 8.25 H 4.2 v 1.5 h 6 c 0.825,0 1.5,-0.675 1.5,-1.5 V 2.1 Z"
       style="fill:#cdd8e5;fill-opacity:0.40392157;stroke-width:0.1875" />
    <path
       id="Mobile-s-6"
       class="st1"
       d="M 4.95,11.85 H 4.2 V 3.6 C 4.2,2.775 4.875,2.1 5.7,2.1 H 6.45 V 2.85 H 5.7 C 5.2875,2.85 4.95,3.1875 4.95,3.6 Z m 6,0 c 0,0.825 -0.675,1.5 -1.5,1.5 h -4.5 v 0.75 h 4.5 c 1.2375,0 2.25,-1.0125 2.25,-2.25 z m 0,-8.25 H 11.7 V 2.85 h -0.75 z m -2.625,8.625 h -0.75 v 0.75 h 0.75 z"
       style="fill:#eff0f1;fill-opacity:1;stroke-width:0.1875" />
  </g>
</svg>
