<?xml version="1.0" encoding="UTF-8" standalone="no"?>
<svg
   width="32"
   height="32"
   version="1.1"
   id="svg12"
   sodipodi:docname="kdf.svg"
   inkscape:version="1.2.2 (b0a8486541, 2022-12-01)"
   xmlns:inkscape="http://www.inkscape.org/namespaces/inkscape"
   xmlns:sodipodi="http://sodipodi.sourceforge.net/DTD/sodipodi-0.dtd"
   xmlns="http://www.w3.org/2000/svg"
   xmlns:svg="http://www.w3.org/2000/svg"
   xmlns:rdf="http://www.w3.org/1999/02/22-rdf-syntax-ns#"
   xmlns:cc="http://creativecommons.org/ns#"
   xmlns:dc="http://purl.org/dc/elements/1.1/">
  <style
     id="style1179">
.ColorScheme-Highlight { 
    color:#cdd8e5;
}
.ColorScheme-Text { color:#eff0f1; }
</style>
  <g
     id="22-22-kdf">
    <rect
       style="opacity:0.00100002"
       width="22"
       height="22"
       x="-54"
       y="10"
       ry="0"
       id="rect2"
       transform="scale(-1,1)" />
    <path
       id="Page_1_-3"
       class="st0  ColorScheme-Highlight"
       d="m 46.5,16 v 0 l -1,-1 v 0 h -7 V 28 H 47 c 1.375,0 2.5,-1.125 2.5,-2.5 V 19 Z m -6,1.5 z m 0,2.5 z m 0,5 z m 0,-2.5 z"
       sodipodi:nodetypes="ccccccsscccccccccccccccccccccc"
       style="fill:#cdd8e5;fill-opacity:0.40392157;stroke-width:0.25" />
    <path
       id="Page-s-6"
       class="st1  ColorScheme-Text "
       d="M 47.366667,19 H 49.5 v 7 c 0,1.65 -1.349999,3 -3,3 h -7 v -1 h 7 c 1.1,0 2,-0.900001 2,-2 V 20 H 47.366667 Z M 36.5,15 c 0,-1.1 0.9,-2 2,-2 h 5 v 1 h -5 c -0.549999,0 -1,0.45 -1,1 v 8.5 h -1 z"
       style="fill:currentColor;fill-opacity:1;stroke-width:0.25"
       sodipodi:nodetypes="ccssccsscccssccssccs" />
    <path
       d="M 43.474822,16.7 C 41.058561,16.7 39.1,18.556579 39.1,20.894045 c 0,0.756504 0.206228,1.555681 0.565727,2.042641 h -0.0022 l 0.05152,0.121954 c 0.0091,0.01412 0.01734,0.04749 0.02615,0.06137 l 1.940676,3.579994 1.792556,-1.812338 c 0.273819,0.05193 -0.289557,0 0,0 2.416241,0 4.374818,-1.619326 4.374818,-3.956709 -1.43e-4,-2.33745 -1.958715,-4.230948 -4.374963,-4.230948 z m 0,6.232023 c -1.141774,0 -2.067097,-0.895333 -2.067097,-1.999843 0,-1.104214 0.925323,-1.99954 2.067097,-1.99954 1.141571,0 2.067105,0.895326 2.067105,1.99954 0,1.10451 -0.925534,1.999843 -2.067105,1.999843 z"
       id="path2-36-36-7-5"
       style="stroke-width:0.0190443;fill-opacity:1;fill:currentColor;"
       sodipodi:nodetypes="csccccccssccsssss"
       class="ColorScheme-Text" />
  </g>
  <metadata
     id="metadata18">
    <rdf:RDF>
      <cc:Work
         rdf:about="">
        <dc:format>image/svg+xml</dc:format>
        <dc:type
           rdf:resource="http://purl.org/dc/dcmitype/StillImage" />
      </cc:Work>
    </rdf:RDF>
  </metadata>
  <defs
     id="defs16" />
  <sodipodi:namedview
     pagecolor="#b2b2b2"
     bordercolor="#000000"
     borderopacity="1"
     objecttolerance="10"
     gridtolerance="10"
     guidetolerance="10"
     inkscape:pageopacity="0"
     inkscape:pageshadow="2"
     inkscape:window-width="1920"
     inkscape:window-height="1000"
     id="namedview14"
     showgrid="false"
     inkscape:zoom="8"
     inkscape:cx="2.3125"
     inkscape:cy="21.8125"
     inkscape:window-x="0"
     inkscape:window-y="0"
     inkscape:window-maximized="1"
     inkscape:current-layer="svg12"
     inkscape:document-rotation="0"
     inkscape:showpageshadow="false"
     inkscape:pagecheckerboard="0"
     inkscape:deskcolor="#b2b2b2">
    <inkscape:grid
       type="xygrid"
       id="grid898"
       originx="0"
       originy="0" />
  </sodipodi:namedview>
  <g
     id="kdf">
    <rect
       style="opacity:0.00100002"
       width="32"
       height="32"
       x="-32"
       y="0"
       ry="0"
       transform="scale(-1,1)"
       id="rect7" />
    <path
       id="Page_1_"
       class="st0  ColorScheme-Highlight "
       d="m 21.249999,8.5 v 0 l -1.5,-1.5 V 7 H 9.25 v 19.5 h 12.749999 c 2.0625,0 3.75,-1.6875 3.75,-3.75 V 13 Z M 12.25,10.75 Z m 0,3.75 z m 0,7.5 z m 0,-3.75 z"
       sodipodi:nodetypes="ccccccsscccccccccccccccccccccc"
       style="fill:#cdd8e5;fill-opacity:0.40392157;stroke-width:0.375" />
    <path
       id="Page-s"
       class="st1  ColorScheme-Text "
       d="m 22.55,13 h 3.199999 v 10.5 c 0,2.475 -2.024999,4.5 -4.5,4.5 H 10.75 v -1.5 h 10.499999 c 1.65,0 3,-1.350001 3,-3 v -9 H 22.55 Z M 6.25,7 c 0,-1.65 1.35,-3 3,-3 h 7.499999 V 5.5 H 9.25 C 8.425,5.5 7.75,6.175 7.75,7 v 12.75 h -1.5 z"
       style="fill:currentColor;fill-opacity:1;stroke-width:0.375"
       sodipodi:nodetypes="ccssccsscccssccssccs" />
    <path
       d="m 16.799785,11.000037 c -2.899506,0 -5.249785,2.2279 -5.249785,5.032864 0,0.907804 0.24747,1.866813 0.678867,2.451164 h -0.0022 l 0.06184,0.14635 c 0.011,0.01692 0.02076,0.05696 0.03135,0.07359 L 14.64867,23 16.799738,20.825198 c 0.328584,0.06233 -0.347467,0 0,0 2.899492,0 5.249786,-1.943201 5.249786,-4.748056 C 22.049352,13.272199 19.699063,11 16.799566,11 Z m 0,7.478432 c -1.370125,0 -2.480519,-1.0744 -2.480519,-2.399811 0,-1.325054 1.110394,-2.399446 2.480519,-2.399446 1.369891,0 2.480528,1.074392 2.480528,2.399446 0,1.325411 -1.110637,2.399811 -2.480528,2.399811 z"
       id="path2-36-36-7"
       style="stroke-width:0.0228525;fill-opacity:1;fill:currentColor;"
       sodipodi:nodetypes="csccccccssccsssss"
       class="ColorScheme-Text" />
  </g>
</svg>
