<?xml version="1.0" encoding="UTF-8" standalone="no"?>
<svg
   width="32"
   height="32"
   version="1.1"
   id="svg12"
   sodipodi:docname="keyboard.svg"
   inkscape:version="1.1.2 (0a00cf5339, 2022-02-04)"
   xmlns:inkscape="http://www.inkscape.org/namespaces/inkscape"
   xmlns:sodipodi="http://sodipodi.sourceforge.net/DTD/sodipodi-0.dtd"
   xmlns="http://www.w3.org/2000/svg"
   xmlns:svg="http://www.w3.org/2000/svg"
   xmlns:rdf="http://www.w3.org/1999/02/22-rdf-syntax-ns#"
   xmlns:cc="http://creativecommons.org/ns#"
   xmlns:dc="http://purl.org/dc/elements/1.1/">
  <g
     id="22-22-keyboard-layout"
     transform="translate(32,10)">
    <rect
       style="opacity:0.00100002"
       width="22"
       height="22"
       x="0"
       y="0"
       id="rect2" />
    <path
       id="Keyboard-3"
       class="st0"
       d="m 1,6.692307 v 11.076924 h 16.875 c 1.71875,0 3.125,-1.384616 3.125,-3.076923 V 6.692307 Z m 10.625,2.461539 h 1.25 v 1.230769 h -1.25 z m -2.5000001,0 H 10.375 v 1.230769 H 9.1249999 Z M 11.625,11.615385 v 1.230769 h -1.25 V 11.615385 Z M 3.5000005,9.153846 h 1.8750001 v 1.230769 H 3.5000005 Z M 6,15.307692 H 4.7500003 V 14.076923 H 6 Z M 6.6249994,12.846154 H 3.5000005 v -1.230769 h 3.1249989 z m 0,-3.692308 h 1.2500007 v 1.230769 H 6.6249994 Z m 2.5000005,2.461539 v 1.230769 H 7.8750001 v -1.230769 z m 4.3749991,3.692307 H 7.2499997 V 14.076923 H 13.499999 Z M 14.125,12.846154 h -1.25 v -1.230769 h 1.25 z m 0,-3.692308 h 1.25 v 1.230769 h -1.25 z M 16,15.307692 H 14.749999 V 14.076923 H 16 Z m 1.875,-2.461538 h -2.5 v -1.230769 h 2.5 z m 0,-2.461539 H 16.624999 V 9.153846 H 17.875 Z"
       style="clip-rule:evenodd;fill:#cdd8e5;fill-opacity:0.40392157;fill-rule:evenodd;stroke-width:0.310086" />
    <path
       id="Keyboard-s-6"
       class="st1"
       d="m 21,7.923077 v 7.384615 C 21,17.338461 19.312498,19 17.25,19 H 2.2499997 V 17.769231 H 17.25 c 1.375,0 2.5,-1.107692 2.5,-2.461539 V 7.923077 Z M 14.125,3.615385 V 3 h 1.25 v 0.615385 c 0,1.015384 -0.843751,1.846154 -1.875001,1.846154 H 12.25 c -0.343752,0 -0.625,0.276922 -0.625,0.615384 v 0.615384 h -1.25 V 6.076923 c 0,-1.015384 0.843751,-1.846154 1.875,-1.846154 h 1.249999 c 0.343752,0 0.625001,-0.276923 0.625001,-0.615384 z"
       style="clip-rule:evenodd;fill:#eff0f1;fill-opacity:1;fill-rule:evenodd;stroke-width:0.310086" />
  </g>
  <metadata
     id="metadata18">
    <rdf:RDF>
      <cc:Work
         rdf:about="">
        <dc:format>image/svg+xml</dc:format>
        <dc:type
           rdf:resource="http://purl.org/dc/dcmitype/StillImage" />
      </cc:Work>
    </rdf:RDF>
  </metadata>
  <defs
     id="defs16">
    <linearGradient
       x1="0"
       x2="0"
       y1="0"
       y2="1"
       id="linearGradient13">
      <stop
         offset="0%"
         style="stop-color:#303b3d; stop-opacity:1"
         id="stop18" />
      <stop
         offset="100%"
         style="stop-color:#bc985d; stop-opacity:1"
         id="stop20" />
    </linearGradient>
  </defs>
  <g
     id="keyboard-layout">
    <rect
       style="opacity:0.00100002"
       width="32"
       height="32"
       x="0"
       y="0"
       id="rect7" />
    <path
       id="Keyboard"
       class="st0"
       d="m 1.2,9.538461 v 16.615385 h 24.923077 c 2.538461,0 4.615385,-2.076923 4.615385,-4.615384 V 9.538461 Z m 15.692308,3.692308 h 1.846154 v 1.846154 h -1.846154 z m -3.692308,0 h 1.846154 v 1.846154 H 13.2 Z m 3.692308,3.692308 v 1.846154 h -1.846154 v -1.846154 z m -12,-3.692308 h 2.769231 v 1.846154 H 4.892308 Z m 3.692307,9.230769 H 6.738462 V 20.615385 H 8.584615 Z M 9.507692,18.769231 H 4.892308 v -1.846154 h 4.615384 z m 0,-5.538462 h 1.846154 v 1.846154 H 9.507692 Z M 13.2,16.923077 v 1.846154 h -1.846154 v -1.846154 z m 6.461538,5.538461 h -9.230769 v -1.846153 h 9.230769 z m 0.923077,-3.692307 h -1.846153 v -1.846154 h 1.846153 z m 0,-5.538462 h 1.846154 v 1.846154 h -1.846154 z m 2.769231,9.230769 h -1.846154 v -1.846153 h 1.846154 z m 2.769231,-3.692307 h -3.692308 v -1.846154 h 3.692308 z m 0,-3.692308 h -1.846154 v -1.846154 h 1.846154 z"
       style="clip-rule:evenodd;fill:#cdd8e5;fill-opacity:0.40392157;fill-rule:evenodd;stroke-width:0.461538" />
    <path
       id="Keyboard-s"
       class="st1"
       d="M 30.738462,11.384615 V 22.461538 C 30.738462,25.507692 28.246154,28 25.2,28 H 3.046154 V 26.153846 H 25.2 c 2.030769,0 3.692308,-1.661538 3.692308,-3.692308 V 11.384615 Z M 20.584615,4.923077 V 4 h 1.846154 v 0.923077 c 0,1.523077 -1.246154,2.769231 -2.769231,2.769231 h -1.846153 c -0.507693,0 -0.923077,0.415384 -0.923077,0.923077 V 9.538461 H 15.046154 V 8.615385 c 0,-1.523077 1.246154,-2.769231 2.769231,-2.769231 h 1.846153 c 0.507693,0 0.923077,-0.415385 0.923077,-0.923077 z"
       style="clip-rule:evenodd;fill:#eff0f1;fill-opacity:1;fill-rule:evenodd;stroke-width:0.461538" />
  </g>
  <sodipodi:namedview
     pagecolor="#acacac"
     bordercolor="#000000"
     borderopacity="1"
     objecttolerance="10"
     gridtolerance="10"
     guidetolerance="10"
     inkscape:pageopacity="0"
     inkscape:pageshadow="2"
     inkscape:window-width="1920"
     inkscape:window-height="1007"
     id="namedview14"
     showgrid="false"
     inkscape:zoom="9.8125003"
     inkscape:cx="32.050954"
     inkscape:cy="17.528662"
     inkscape:window-x="0"
     inkscape:window-y="0"
     inkscape:window-maximized="1"
     inkscape:current-layer="svg12"
     inkscape:document-rotation="0"
     inkscape:lockguides="true"
     inkscape:showpageshadow="false"
     inkscape:pagecheckerboard="0">
    <inkscape:grid
       type="xygrid"
       id="grid950"
       originx="0"
       originy="0" />
  </sodipodi:namedview>
</svg>
