<?xml version="1.0" encoding="UTF-8" standalone="no"?>
<svg
   width="32"
   height="32"
   version="1.1"
   id="svg12"
   sodipodi:docname="kget.svg"
   inkscape:version="1.1.2 (0a00cf5339, 2022-02-04)"
   xmlns:inkscape="http://www.inkscape.org/namespaces/inkscape"
   xmlns:sodipodi="http://sodipodi.sourceforge.net/DTD/sodipodi-0.dtd"
   xmlns:xlink="http://www.w3.org/1999/xlink"
   xmlns="http://www.w3.org/2000/svg"
   xmlns:svg="http://www.w3.org/2000/svg"
   xmlns:rdf="http://www.w3.org/1999/02/22-rdf-syntax-ns#"
   xmlns:cc="http://creativecommons.org/ns#"
   xmlns:dc="http://purl.org/dc/elements/1.1/">
  <g
     id="22-22-kget"
     transform="translate(32,9.9978008)">
    <rect
       style="opacity:0.00100002"
       width="22"
       height="22"
       x="0"
       y="2.7026367e-08"
       id="rect2" />
    <path
       id="Download-3"
       class="st0"
       d="M 2,12.142857 H 18.875 V 11 H 20 v 4 c 0,1.571428 -1.265626,2.857142 -2.812501,2.857142 H 2 Z"
       style="fill:#cdd8e5;fill-opacity:0.40392157;stroke-width:0.283472" />
    <path
       id="Download-s-6"
       class="st1"
       d="m 11.5625,3 v 9.257143 l 3.150001,-3.2 0.787499,0.8 -4.499999,4.571428 -4.5000013,-4.571428 0.7875007,-0.8 3.1499996,3.2 V 3 Z m 7.3125,9.142857 v 3.428571 c 0,1.257143 -1.012499,2.285715 -2.25,2.285715 H 3.1249997 V 19 H 16.625 C 18.481255,19 20,17.457142 20,15.571428 v -3.428571 z"
       style="fill:#ecedee;fill-opacity:1;stroke-width:0.283472" />
  </g>
  <g
     id="kget">
    <rect
       style="opacity:0.00100002"
       width="32"
       height="32"
       x="0"
       y="0"
       id="rect7" />
    <path
       id="Download"
       class="st0"
       d="M 3,17.714286 H 27.375 V 16 H 29 v 6 c 0,2.357143 -1.828129,4.285714 -4.062501,4.285714 H 3 Z"
       style="fill:#cdd8e5;fill-opacity:0.40392157;stroke-width:0.41726" />
    <path
       id="Download-s"
       class="st1"
       d="m 16.8125,4 v 13.885714 l 4.55,-4.8 1.1375,1.2 -6.5,6.857143 -6.5,-6.857143 1.1375,-1.2 4.55,4.8 V 4 Z M 27.375,17.714286 v 5.142857 c 0,1.885714 -1.4625,3.428571 -3.25,3.428571 H 4.625 V 28 h 19.5 C 26.806252,28 29,25.685714 29,22.857143 v -5.142857 z"
       style="fill:#ecedee;fill-opacity:1;stroke-width:0.41726" />
  </g>
  <metadata
     id="metadata18">
    <rdf:RDF>
      <cc:Work
         rdf:about="">
        <dc:format>image/svg+xml</dc:format>
        <dc:type
           rdf:resource="http://purl.org/dc/dcmitype/StillImage" />
      </cc:Work>
    </rdf:RDF>
  </metadata>
  <defs
     id="defs16">
    <linearGradient
       id="c"
       y1="13"
       y2="33"
       x2="0"
       gradientUnits="userSpaceOnUse"
       gradientTransform="matrix(1,0,0,-1,384.57,547.8)">
      <stop
         stop-color="#197cf1"
         id="stop12" />
      <stop
         offset="1"
         stop-color="#20bcfa"
         id="stop14" />
    </linearGradient>
    <linearGradient
       xlink:href="#c"
       id="d"
       y1="14"
       y2="33"
       x2="0"
       gradientUnits="userSpaceOnUse"
       gradientTransform="matrix(1,0,0,-1,-8,37)" />
    <linearGradient
       id="linearGradient917"
       y1="13"
       y2="33"
       x2="0"
       gradientUnits="userSpaceOnUse"
       gradientTransform="matrix(1,0,0,-1,384.57,547.8)">
      <stop
         stop-color="#197cf1"
         id="stop913" />
      <stop
         offset="1"
         stop-color="#20bcfa"
         id="stop915" />
    </linearGradient>
  </defs>
  <sodipodi:namedview
     pagecolor="#bababa"
     bordercolor="#000000"
     borderopacity="1"
     objecttolerance="10"
     gridtolerance="10"
     guidetolerance="10"
     inkscape:pageopacity="0"
     inkscape:pageshadow="2"
     inkscape:window-width="1920"
     inkscape:window-height="1007"
     id="namedview14"
     showgrid="false"
     inkscape:zoom="4.9062502"
     inkscape:cx="7.4394901"
     inkscape:cy="14.267515"
     inkscape:window-x="0"
     inkscape:window-y="0"
     inkscape:window-maximized="1"
     inkscape:current-layer="svg12"
     inkscape:document-rotation="0"
     showguides="false"
     inkscape:lockguides="true"
     inkscape:showpageshadow="false"
     inkscape:pagecheckerboard="0">
    <inkscape:grid
       type="xygrid"
       id="grid849"
       originx="0"
       originy="0" />
  </sodipodi:namedview>
</svg>
