<?xml version="1.0" encoding="UTF-8" standalone="no"?>
<svg
   width="32"
   height="32"
   version="1.1"
   id="svg12"
   sodipodi:docname="kgpg.svg"
   inkscape:version="1.1.2 (0a00cf5339, 2022-02-04)"
   xmlns:inkscape="http://www.inkscape.org/namespaces/inkscape"
   xmlns:sodipodi="http://sodipodi.sourceforge.net/DTD/sodipodi-0.dtd"
   xmlns="http://www.w3.org/2000/svg"
   xmlns:svg="http://www.w3.org/2000/svg"
   xmlns:rdf="http://www.w3.org/1999/02/22-rdf-syntax-ns#"
   xmlns:cc="http://creativecommons.org/ns#"
   xmlns:dc="http://purl.org/dc/elements/1.1/">
  <metadata
     id="metadata18">
    <rdf:RDF>
      <cc:Work
         rdf:about="">
        <dc:format>image/svg+xml</dc:format>
        <dc:type
           rdf:resource="http://purl.org/dc/dcmitype/StillImage" />
      </cc:Work>
    </rdf:RDF>
  </metadata>
  <defs
     id="defs16">
    <linearGradient
       x1="2.8236918"
       x2="2.8236918"
       y1="0"
       y2="13.423561"
       gradientTransform="matrix(1.2584592,0,0,1.7879013,3.9965,3.9999533)"
       gradientUnits="userSpaceOnUse"
       id="linearGradient5">
      <stop
         offset="0%"
         style="stop-color:#303b3d; stop-opacity:1"
         id="stop18" />
      <stop
         offset="100%"
         style="stop-color:#bc985d; stop-opacity:1"
         id="stop20" />
    </linearGradient>
  </defs>
  <sodipodi:namedview
     pagecolor="#a1a1a1"
     bordercolor="#000000"
     borderopacity="1"
     objecttolerance="10"
     gridtolerance="10"
     guidetolerance="10"
     inkscape:pageopacity="0"
     inkscape:pageshadow="2"
     inkscape:window-width="1920"
     inkscape:window-height="1007"
     id="namedview14"
     showgrid="false"
     inkscape:zoom="9.8125004"
     inkscape:cx="33.98726"
     inkscape:cy="15.082802"
     inkscape:window-x="0"
     inkscape:window-y="0"
     inkscape:window-maximized="1"
     inkscape:current-layer="svg12"
     inkscape:document-rotation="0"
     inkscape:lockguides="true"
     inkscape:showpageshadow="false"
     inkscape:pagecheckerboard="0">
    <inkscape:grid
       type="xygrid"
       id="grid871"
       originx="-1e-06"
       originy="0" />
  </sodipodi:namedview>
  <g
     id="kgpg">
    <rect
       style="opacity:0.00100002"
       width="32"
       height="32"
       x="0"
       y="0"
       id="rect7" />
    <path
       id="Lock"
       class="st0"
       d="m 17.5,19.75 c 0,0.5625 -0.3,1.05 -0.75,1.3125 V 22.75 c 0,0.4125 -0.3375,0.75 -0.75,0.75 -0.4125,0 -0.75,-0.3375 -0.75,-0.75 V 21.0625 C 14.8,20.8 14.5,20.3125 14.5,19.75 c 0,-0.825 0.675,-1.5 1.5,-1.5 0.825,0 1.5,0.675 1.5,1.5 z M 21.25,13 h 1.5 v 1.5 H 25 v 8.25 c 0,2.0625 -1.6875,3.75 -3.75,3.75 H 7 v -12 h 14.25 z"
       style="clip-rule:evenodd;fill:#cdd8e5;fill-opacity:0.40392157;fill-rule:evenodd;stroke-width:0.375" />
    <path
       id="Lock-s"
       class="st1"
       d="M 10.75,14.5 H 9.25 V 10.75 C 9.25,7.0375 12.2875,4 16,4 c 3.7125,0 6.75,3.0375 6.75,6.75 V 13 h -1.5 V 10.75 C 21.25,7.8625 18.8875,5.5 16,5.5 c -2.8875,0 -5.25,2.3625 -5.25,5.25 z M 25,14.5 H 21.25 V 16 h 2.25 v 7.5 c 0,1.65 -1.35,3 -3,3 H 8.5 V 28 h 12 c 2.475,0 4.5,-2.025 4.5,-4.5 z"
       style="fill:#eff0f1;fill-opacity:1;stroke-width:0.375" />
  </g>
  <g
     id="22-22-kgpg"
     transform="translate(32,10.000001)">
    <rect
       style="opacity:0.00100002"
       width="22"
       height="22"
       x="0"
       y="0"
       id="rect2" />
    <path
       id="Lock-3"
       class="st0"
       d="m 11.999999,13.5 c 0,0.375 -0.2,0.7 -0.5,0.875 V 15.5 c 0,0.275 -0.225,0.5 -0.5,0.5 -0.275,0 -0.5,-0.225 -0.5,-0.5 v -1.125 c -0.3,-0.175 -0.5,-0.5 -0.5,-0.875 0,-0.55 0.45,-1 1,-1 0.55,0 1,0.45 1,1 z m 2.5,-4.5 h 1 v 1 h 1.5 v 5.5 c 0,1.375 -1.125,2.5 -2.5,2.5 h -9.5 v -8 h 9.5 z"
       style="clip-rule:evenodd;fill:#cdd8e5;fill-opacity:0.40392157;fill-rule:evenodd;stroke-width:0.25" />
    <path
       id="Lock-s-6"
       class="st1"
       d="m 7.499999,10 h -1 V 7.5 c 0,-2.475 2.025,-4.5 4.5,-4.5 2.475,0 4.5,2.025 4.5,4.5 V 9 h -1 V 7.5 c 0,-1.925 -1.575,-3.5 -3.5,-3.5 -1.925,0 -3.5,1.575 -3.5,3.5 z m 9.5,0 h -2.5 v 1 h 1.5 v 5 c 0,1.1 -0.9,2 -2,2 h -8 v 1 h 8 c 1.65,0 3,-1.35 3,-3 z"
       style="fill:#eff0f1;fill-opacity:1;stroke-width:0.25" />
  </g>
</svg>
