<?xml version="1.0" encoding="UTF-8" standalone="no"?>
<svg
   width="32"
   height="32"
   version="1"
   id="svg12"
   sodipodi:docname="klipper.svg"
   inkscape:version="1.1.2 (0a00cf5339, 2022-02-04)"
   xmlns:inkscape="http://www.inkscape.org/namespaces/inkscape"
   xmlns:sodipodi="http://sodipodi.sourceforge.net/DTD/sodipodi-0.dtd"
   xmlns="http://www.w3.org/2000/svg"
   xmlns:svg="http://www.w3.org/2000/svg"
   xmlns:rdf="http://www.w3.org/1999/02/22-rdf-syntax-ns#"
   xmlns:cc="http://creativecommons.org/ns#"
   xmlns:dc="http://purl.org/dc/elements/1.1/">
  <g
     id="22-22-klipper"
     transform="translate(32,10)">
    <rect
       style="opacity:0.00100002"
       width="22"
       height="22"
       x="0"
       y="0"
       id="rect2" />
    <path
       id="Attachment-0"
       class="st0"
       d="M 12.5,5 H 5 v 13 h 9.5 C 15.875,18 17,16.875 17,15.5 V 9 L 13.5,5.5 V 8 h -1 z"
       style="fill:#cdd8e5;fill-opacity:0.40392157;stroke-width:0.25" />
    <path
       id="Attachment-s-4"
       class="st1"
       d="M 8.5,3 C 9.875,3 11,4.125 11,5.5 v 4 C 11,10.875 9.875,12 8.5,12 7.125,12 6,10.875 6,9.5 v -2 C 6,6.675 6.675,6 7.5,6 8.325,6 9,6.675 9,7.5 V 10 H 8 V 7.5 C 8,7.225 7.775,7 7.5,7 7.225,7 7,7.225 7,7.5 v 2 C 7,10.325 7.675,11 8.5,11 9.325,11 10,10.325 10,9.5 v -4 C 10,4.675 9.325,4 8.5,4 7.85,4 7.3,4.425 7.075,5 H 6.05 C 6.275,3.85 7.3,3 8.5,3 Z M 17,9 h -4.5 v 1 H 16 v 6 c 0,1.1 -0.9,2 -2,2 H 6 v 1 h 8 c 1.65,0 3,-1.35 3,-3 z"
       style="fill:#eff0f1;fill-opacity:1;stroke-width:0.25" />
  </g>
  <metadata
     id="metadata18">
    <rdf:RDF>
      <cc:Work
         rdf:about="">
        <dc:format>image/svg+xml</dc:format>
        <dc:type
           rdf:resource="http://purl.org/dc/dcmitype/StillImage" />
      </cc:Work>
    </rdf:RDF>
  </metadata>
  <defs
     id="defs16" />
  <sodipodi:namedview
     pagecolor="#b2b2b2"
     bordercolor="#000000"
     borderopacity="1"
     objecttolerance="10"
     gridtolerance="10"
     guidetolerance="10"
     inkscape:pageopacity="0"
     inkscape:pageshadow="2"
     inkscape:window-width="1920"
     inkscape:window-height="1007"
     id="namedview14"
     showgrid="false"
     inkscape:zoom="10.483688"
     inkscape:cx="28.472805"
     inkscape:cy="21.080368"
     inkscape:window-x="0"
     inkscape:window-y="0"
     inkscape:window-maximized="1"
     inkscape:current-layer="svg12"
     inkscape:document-rotation="0"
     inkscape:lockguides="true"
     showguides="true"
     inkscape:showpageshadow="false"
     inkscape:pagecheckerboard="0">
    <inkscape:grid
       type="xygrid"
       id="grid855"
       originx="0"
       originy="0" />
  </sodipodi:namedview>
  <g
     id="klipper">
    <rect
       style="opacity:0.00100002"
       width="32"
       height="32"
       x="0"
       y="0"
       id="rect7" />
    <path
       id="Attachment"
       class="st0"
       d="M 18.25,7 H 7 V 26.5 H 21.25 C 23.3125,26.5 25,24.8125 25,22.75 V 13 L 19.75,7.75 v 3.75 h -1.5 z"
       style="fill:#cdd8e5;fill-opacity:0.40392157;stroke-width:0.375" />
    <path
       id="Attachment-s"
       class="st1"
       d="M 12.25,4 C 14.3125,4 16,5.6875 16,7.75 v 6 c 0,2.0625 -1.6875,3.75 -3.75,3.75 -2.0625,0 -3.75,-1.6875 -3.75,-3.75 v -3 C 8.5,9.5125 9.5125,8.5 10.75,8.5 11.9875,8.5 13,9.5125 13,10.75 V 14.5 H 11.5 V 10.75 C 11.5,10.3375 11.1625,10 10.75,10 10.3375,10 10,10.3375 10,10.75 v 3 c 0,1.2375 1.0125,2.25 2.25,2.25 1.2375,0 2.25,-1.0125 2.25,-2.25 v -6 C 14.5,6.5125 13.4875,5.5 12.25,5.5 11.275,5.5 10.45,6.1375 10.1125,7 H 8.575 C 8.9125,5.275 10.45,4 12.25,4 Z M 25,13 h -6.75 v 1.5 h 5.25 v 9 c 0,1.65 -1.35,3 -3,3 H 8.5 V 28 h 12 c 2.475,0 4.5,-2.025 4.5,-4.5 z"
       style="fill:#eff0f1;fill-opacity:1;stroke-width:0.375" />
  </g>
</svg>
