<?xml version="1.0" encoding="UTF-8" standalone="no"?>
<svg
   id="svg3287"
   version="1.1"
   inkscape:version="1.2.2 (b0a8486541, 2022-12-01)"
   width="32.000004"
   height="32"
   sodipodi:docname="knotes.svg"
   viewBox="0 0 32.000004 32"
   xmlns:inkscape="http://www.inkscape.org/namespaces/inkscape"
   xmlns:sodipodi="http://sodipodi.sourceforge.net/DTD/sodipodi-0.dtd"
   xmlns="http://www.w3.org/2000/svg"
   xmlns:svg="http://www.w3.org/2000/svg"
   xmlns:rdf="http://www.w3.org/1999/02/22-rdf-syntax-ns#"
   xmlns:cc="http://creativecommons.org/ns#"
   xmlns:dc="http://purl.org/dc/elements/1.1/">
  <style
     id="current-color-scheme"
     type="text/css">.ColorScheme-Highlight {
    color:#cdd8e5;
}
.ColorScheme-Text { color:#eff0f1; }
</style>
  <metadata
     id="metadata4159">
    <rdf:RDF>
      <cc:Work
         rdf:about="">
        <dc:format>image/svg+xml</dc:format>
        <dc:type
           rdf:resource="http://purl.org/dc/dcmitype/StillImage" />
      </cc:Work>
    </rdf:RDF>
  </metadata>
  <defs
     id="defs3287">
    <style
       type="text/css"
       id="style4" />
    <linearGradient
       id="oomox"
       x1="33"
       x2="33"
       y1="81"
       y2="95"
       gradientUnits="userSpaceOnUse">
      <stop
         offset="0%"
         style="stop-color:#303b3d; stop-opacity:1"
         id="stop18" />
      <stop
         offset="100%"
         style="stop-color:#bc985d; stop-opacity:1"
         id="stop20" />
    </linearGradient>
  </defs>
  <sodipodi:namedview
     pagecolor="#b2b2b2"
     bordercolor="#000000"
     borderopacity="1"
     objecttolerance="10"
     gridtolerance="10000"
     guidetolerance="10"
     inkscape:pageopacity="0"
     inkscape:pageshadow="2"
     inkscape:window-width="1920"
     inkscape:window-height="1000"
     id="namedview4155"
     inkscape:document-units="px"
     showgrid="false"
     inkscape:showpageshadow="false"
     borderlayer="true"
     inkscape:zoom="8.0000004"
     inkscape:cx="15.937499"
     inkscape:cy="26.562499"
     inkscape:window-x="0"
     inkscape:window-y="0"
     inkscape:window-maximized="1"
     inkscape:current-layer="svg3287"
     fit-margin-top="0"
     fit-margin-left="0"
     fit-margin-right="0"
     fit-margin-bottom="0"
     inkscape:snap-bbox="true"
     inkscape:bbox-nodes="true"
     inkscape:document-rotation="0"
     showguides="false"
     inkscape:lockguides="false"
     inkscape:pagecheckerboard="0"
     inkscape:deskcolor="#b2b2b2">
    <inkscape:grid
       type="xygrid"
       id="grid4140"
       originx="1.3415527e-07"
       originy="0" />
    <sodipodi:guide
       position="2.0000001,29.999999"
       orientation="28,0"
       id="guide4186"
       inkscape:locked="false" />
    <sodipodi:guide
       position="2.0000001,1.999999"
       orientation="0,28.000004"
       id="guide4188"
       inkscape:locked="false" />
    <sodipodi:guide
       position="30.000004,1.999999"
       orientation="-28,0"
       id="guide4190"
       inkscape:locked="false" />
    <sodipodi:guide
       position="30.000004,29.999999"
       orientation="0,-28.000004"
       id="guide4192"
       inkscape:locked="false" />
    <sodipodi:guide
       position="1.3415527e-07,31.999999"
       orientation="32,0"
       id="guide4194"
       inkscape:locked="false" />
    <sodipodi:guide
       position="1.3415527e-07,-1e-06"
       orientation="0,32.000004"
       id="guide4196"
       inkscape:locked="false" />
    <sodipodi:guide
       position="32.000004,-1e-06"
       orientation="-32,0"
       id="guide4198"
       inkscape:locked="false" />
    <sodipodi:guide
       position="32.000004,31.999999"
       orientation="0,-32.000004"
       id="guide4200"
       inkscape:locked="false" />
  </sodipodi:namedview>
  <inkscape:clipboard
     style="opacity:0.01000001;fill:#00000f;fill-opacity:0;stroke-width:1;stroke-linecap:butt;stroke-linejoin:miter;stroke-miterlimit:4;stroke-dasharray:none;stroke-dashoffset:0;stroke-opacity:1;stroke:none"
     min="0,0"
     max="22,22" />
  <g
     id="knotes">
    <rect
       y="0"
       x="-1.3415527e-07"
       height="32"
       width="32.000004"
       id="rect4230"
       style="fill:none;fill-opacity:1;stroke:none" />
    <path
       id="Page_1_"
       class="st0  ColorScheme-Highlight "
       d="m 21.250001,8.5 v 0 l -1.5,-1.5 V 7 H 9.2500024 V 26.5 H 22.000001 c 2.0625,0 3.75,-1.6875 3.75,-3.75 V 13 Z m -8.999999,2.25 z m 0,3.75 z m 0,7.5 z m 0,-3.75 z"
       sodipodi:nodetypes="ccccccsscccccccccccccccccccccc"
       style="fill:#cdd8e5;fill-opacity:0.40392157;stroke-width:0.375" />
    <path
       id="Page-s"
       class="st1  ColorScheme-Text "
       d="m 22.550002,13 h 3.199999 v 10.5 c 0,2.475 -2.024999,4.5 -4.5,4.5 H 10.750002 v -1.5 h 10.499999 c 1.65,0 3,-1.350001 3,-3 v -9 H 22.550002 Z M 6.2500024,7 c 0,-1.65 1.35,-3 3,-3 H 16.750001 V 5.5 H 9.2500024 c -0.825,0 -1.5,0.675 -1.5,1.5 v 12.75 h -1.5 z"
       style="stroke-width:0.375;fill-opacity:1;fill:#eff0f1;"
       sodipodi:nodetypes="ccssccsscccssccssccs" />
    <path
       d="m 10.926343,16.129263 h 5.135379 c 0.104015,0 0.18836,-0.17629 0.18836,-0.393721 0,-0.21743 -0.08432,-0.39372 -0.18836,-0.39372 h -5.135379 c -0.104008,0 -0.188341,0.176291 -0.188341,0.39372 0,0.217431 0.08432,0.393721 0.188341,0.393721 z"
       id="path4-3-3"
       style="stroke-width:0.272325;fill-opacity:1;fill:#eff0f1;"
       class="ColorScheme-Text" />
    <path
       d="m 10.889941,12.979502 h 3.633321 c 0.08387,0 0.151942,-0.176292 0.151942,-0.39372 0,-0.217431 -0.06795,-0.393721 -0.151942,-0.393721 h -3.633321 c -0.084,0 -0.151939,0.17629 -0.151939,0.393721 0,0.217428 0.06796,0.39372 0.151939,0.39372 z"
       id="path6-6-6"
       style="stroke-width:0.244595;fill-opacity:1;fill:#eff0f1;"
       class="ColorScheme-Text" />
    <path
       d="m 11.036484,19.279022 h 6.489994 c 0.164843,0 0.298487,-0.176292 0.298487,-0.393716 0,-0.217435 -0.133643,-0.393723 -0.298487,-0.393723 h -6.489994 c -0.164844,0 -0.298482,0.176288 -0.298482,0.393723 0,0.217424 0.133635,0.393716 0.298482,0.393716 z"
       id="path8-7"
       style="stroke-width:0.342807;fill-opacity:1;fill:#eff0f1;"
       class="ColorScheme-Text" />
    <path
       d="m 19.123981,22.428784 h -8.110132 c -0.152335,0 -0.275847,0.176289 -0.275847,0.393719 0,0.217432 0.123512,0.393721 0.275847,0.393721 h 8.110132 c 0.152333,0 0.275862,-0.176289 0.275862,-0.393721 0,-0.21743 -0.123529,-0.393719 -0.275862,-0.393719 z"
       id="path10-7-5"
       style="stroke-width:0.329557;fill-opacity:1;fill:#eff0f1;"
       class="ColorScheme-Text" />
    <path
       d="m 20.974894,11.404623 c -0.868505,0 -1.575051,0.648651 -1.575051,1.445878 v 1.186193 0.92791 6.133146 c 0,0.02762 0.0063,0.05355 0.01847,0.07728 4.1e-4,0.0011 2.21e-4,0.0024 6.85e-4,0.0032 l 1.367112,2.715024 c 0.03398,0.06753 0.107727,0.110816 0.188748,0.110816 0.08105,0 0.154737,-0.04329 0.188741,-0.110821 L 21.866455,22.4973 c 5.67e-4,-0.0013 0.0018,-0.0023 0.0023,-0.0032 4.53e-4,-0.0011 2.9e-4,-0.0023 7.21e-4,-0.0031 l 0.661367,-1.313519 c 4.56e-4,-0.0011 2.45e-4,-0.0024 6.89e-4,-0.0032 0.01161,-0.02363 0.01847,-0.04966 0.01847,-0.07728 v -6.133048 -0.927907 -1.186192 c 0,-0.797228 -0.70655,-1.445878 -1.574945,-1.445878 z m -1.7e-4,9.449279 v 0 -5.51208 0 z m 0.599064,1.314437 c -0.384883,-0.11747 -0.816793,-0.11677 -1.197803,9.1e-5 l -0.443021,-0.879787 h 2.083775 z m -0.599064,-1.314437 v -5.51208 0 z m 1.159236,-6.075096 h -2.318247 v 0 z m -1.159066,8.579012 -0.42245,-0.838939 c 0.2704,-0.07415 0.57114,-0.07465 0.844833,4.7e-5 z m 1.159066,-9.590873 h -2.318247 v -0.916444 c 0,-0.58676 0.520038,-1.06409 1.159181,-1.06409 0.639138,0 1.159066,0.47733 1.159066,1.06409 z"
       id="path12-5-3"
       style="stroke-width:0.199241;fill-opacity:1;fill:#eff0f1;"
       sodipodi:nodetypes="csccscccsccccccsccsccccccccccccccccccccccccssccss"
       class="ColorScheme-Text" />
  </g>
  <g
     id="22-22-knotes">
    <rect
       style="fill:none;fill-opacity:1;stroke:none;stroke-width:0.1;stroke-linecap:square;stroke-linejoin:miter;stroke-miterlimit:4;stroke-dasharray:none;stroke-dashoffset:0;stroke-opacity:1"
       id="rect4148"
       width="22"
       height="22"
       x="31.999853"
       y="10" />
    <path
       id="Page_1_-3"
       class="st0  ColorScheme-Highlight"
       d="m 46.499852,16 v 0 l -1,-1 v 0 h -6.999998 v 13 h 8.499999 c 1.375,0 2.5,-1.125 2.5,-2.5 V 19 Z m -5.999998,1.5 z m 0,2.5 z m 0,5 z m 0,-2.5 z"
       sodipodi:nodetypes="ccccccsscccccccccccccccccccccc"
       style="fill:#cdd8e5;fill-opacity:0.40392157;stroke-width:0.25" />
    <path
       id="Page-s-6"
       class="st1  ColorScheme-Text "
       d="m 47.36652,19 h 2.133332 v 7 c 0,1.65 -1.349999,3 -3,3 h -6.999998 v -1 h 6.999998 c 1.1,0 2,-0.900001 2,-2 V 20 H 47.36652 Z M 36.499854,15 c 0,-1.1 0.9,-2 2,-2 h 4.999998 v 1 h -4.999998 c -0.55,0 -1,0.45 -1,1 v 8.5 h -1 z"
       style="stroke-width:0.25;fill-opacity:1;fill:#eff0f1;"
       sodipodi:nodetypes="ccssccsscccssccssccs" />
    <path
       d="m 39.904993,21.303881 h 3.930203 c 0.0796,0 0.144155,-0.188885 0.144155,-0.421852 0,-0.232962 -0.06454,-0.421848 -0.144155,-0.421848 h -3.930203 c -0.0796,0 -0.14414,0.188886 -0.14414,0.421848 0,0.232967 0.06454,0.421852 0.14414,0.421852 z"
       id="path4-3-36-5"
       style="stroke-width:0.246594;fill-opacity:1;fill:#eff0f1;"
       class="ColorScheme-Text" />
    <path
       d="m 39.891091,18.77278 h 3.114323 c 0.07187,0 0.130236,-0.188884 0.130236,-0.421846 0,-0.232968 -0.05826,-0.421853 -0.130236,-0.421853 h -3.114323 c -0.072,0 -0.130238,0.188885 -0.130238,0.421853 0,0.232962 0.05826,0.421846 0.130238,0.421846 z"
       id="path6-6-7-6"
       style="stroke-width:0.234395;fill-opacity:1;fill:#eff0f1;"
       class="ColorScheme-Text" />
    <path
       d="m 39.974058,23.834977 h 4.635787 c 0.117745,0 0.213206,-0.188881 0.213206,-0.421849 0,-0.232964 -0.09546,-0.421849 -0.213206,-0.421849 h -4.635787 c -0.117746,0 -0.213205,0.188885 -0.213205,0.421849 0,0.232968 0.09546,0.421849 0.213205,0.421849 z"
       id="path8-5-2"
       style="stroke-width:0.299906;fill-opacity:1;fill:#eff0f1;"
       class="ColorScheme-Text" />
    <path
       d="m 45.478659,25.522378 h -5.529728 c -0.103867,0 -0.188078,0.188886 -0.188078,0.421852 0,0.232961 0.0842,0.421847 0.188078,0.421847 h 5.529728 c 0.103866,0 0.18809,-0.188886 0.18809,-0.421847 0,-0.232966 -0.08422,-0.421852 -0.18809,-0.421852 z"
       id="path10-7-3-9"
       style="stroke-width:0.281678;fill-opacity:1;fill:#eff0f1;"
       class="ColorScheme-Text" />
    <path
       d="m 46.510621,17.929081 c -0.465323,0 -0.843872,0.46333 -0.843872,1.032787 v 0.847296 0.662803 4.380888 c 0,0.01973 0.0035,0.03826 0.0099,0.05517 2.19e-4,6.16e-4 1.19e-4,0.0016 3.66e-4,0.0023 l 0.732464,1.93934 c 0.01822,0.04826 0.05772,0.07914 0.101126,0.07914 0.04342,0 0.08291,-0.03089 0.101118,-0.07915 l 0.376585,-0.997119 c 3.04e-4,-7.32e-4 8.18e-4,-0.0015 8.18e-4,-0.0022 2.46e-4,-6.19e-4 1.58e-4,-0.0015 3.89e-4,-0.0022 l 0.354345,-0.938243 c 2.44e-4,-6.2e-4 1.28e-4,-0.0016 3.66e-4,-0.0022 0.0061,-0.01691 0.0099,-0.03543 0.0099,-0.05516 v -4.380886 -0.662802 -0.847297 c 0,-0.569454 -0.378554,-1.032785 -0.843816,-1.032785 z m -9.2e-5,6.749597 v 0 -3.937265 0 z m 0.320968,0.938898 c -0.206213,-0.08392 -0.437618,-0.08341 -0.641757,6.5e-5 l -0.237359,-0.62843 h 1.116437 z m -0.320968,-0.938898 v -3.937265 0 z m 0.621094,-4.339429 h -1.24206 v 0 z m -0.621001,6.127968 -0.226338,-0.599252 c 0.144875,-0.05297 0.306003,-0.0533 0.452644,3.5e-5 z m 0.621001,-6.850737 h -1.24206 v -0.654612 c 0,-0.419121 0.278622,-0.760075 0.621059,-0.760075 0.342435,0 0.621001,0.340954 0.621001,0.760075 z"
       id="path12-5-5-1"
       style="stroke-width:0.123253;fill-opacity:1;fill:#eff0f1;"
       sodipodi:nodetypes="csccscccsccccccsccsccccccccccccccccccccccccssccss"
       class="ColorScheme-Text" />
  </g>
</svg>
