<?xml version="1.0" encoding="UTF-8" standalone="no"?>
<svg
   width="32"
   height="32"
   version="1.1"
   id="svg12"
   sodipodi:docname="konversation.svg"
   inkscape:version="1.1.2 (0a00cf5339, 2022-02-04)"
   xmlns:inkscape="http://www.inkscape.org/namespaces/inkscape"
   xmlns:sodipodi="http://sodipodi.sourceforge.net/DTD/sodipodi-0.dtd"
   xmlns="http://www.w3.org/2000/svg"
   xmlns:svg="http://www.w3.org/2000/svg"
   xmlns:rdf="http://www.w3.org/1999/02/22-rdf-syntax-ns#"
   xmlns:cc="http://creativecommons.org/ns#"
   xmlns:dc="http://purl.org/dc/elements/1.1/">
  <metadata
     id="metadata18">
    <rdf:RDF>
      <cc:Work
         rdf:about="">
        <dc:format>image/svg+xml</dc:format>
        <dc:type
           rdf:resource="http://purl.org/dc/dcmitype/StillImage" />
      </cc:Work>
    </rdf:RDF>
  </metadata>
  <defs
     id="defs16" />
  <sodipodi:namedview
     pagecolor="#b2b2b2"
     bordercolor="#000000"
     borderopacity="1"
     objecttolerance="10"
     gridtolerance="10"
     guidetolerance="10"
     inkscape:pageopacity="0"
     inkscape:pageshadow="2"
     inkscape:window-width="1920"
     inkscape:window-height="1007"
     id="namedview14"
     showgrid="false"
     inkscape:zoom="9.8125"
     inkscape:cx="21.146497"
     inkscape:cy="25.88535"
     inkscape:window-x="0"
     inkscape:window-y="0"
     inkscape:window-maximized="1"
     inkscape:current-layer="svg12"
     inkscape:document-rotation="0"
     inkscape:pagecheckerboard="false"
     inkscape:showpageshadow="false"
     inkscape:lockguides="true">
    <inkscape:grid
       type="xygrid"
       id="grid896"
       originx="0"
       originy="0" />
  </sodipodi:namedview>
  <g
     id="konversation">
    <rect
       style="opacity:0.00100002"
       width="32"
       height="32"
       x="0"
       y="0"
       id="rect7" />
    <path
       id="Megaphone"
       class="st0"
       d="m 19.05,10 h 7.2 l 2.571429,2.571429 v 6 H 26.25 v -6.857143 h -1.714286 v 6.857143 l -1.714285,7.714285 h -5.142858 l 1.714286,-7.714285 H 19.05 c -4.628571,0 -8.957143,2.228571 -11.657143,6 H 5.678571 V 4 h 1.714286 c 2.7,3.7714286 7.028572,6 11.657143,6 z"
       style="fill:#cdd8e5;fill-opacity:0.40392157;stroke-width:0.428571" />
    <path
       id="Megaphone-s"
       class="st1"
       d="m 19.907143,28 h -0.942857 l 0.428571,-1.714286 h 0.514286 c 0.814286,0 1.5,-0.557143 1.671428,-1.328571 l 1.414286,-6.385714 H 26.25 c 0.942857,0 1.714286,-0.771429 1.714286,-1.714286 v -3.428572 c 0,-0.942857 -0.771429,-1.714285 -1.714286,-1.714285 V 10 c 1.885714,0 3.428571,1.542857 3.428571,3.428571 v 3.428572 c 0,1.885714 -1.542857,3.428571 -3.428571,3.428571 H 24.364286 L 23.25,25.3 C 22.907143,26.885714 21.492857,28 19.907143,28 Z M 5.678571,12.571429 V 10.857143 C 3.792857,10.857143 2.25,12.4 2.25,14.285714 c 0,1.885715 1.542857,3.428572 3.428571,3.428572 V 16 c -0.942857,0 -1.714285,-0.771429 -1.714285,-1.714286 0,-0.942857 0.771428,-1.714285 1.714285,-1.714285 z M 24.535714,10 h -1.714285 v 1.714286 h 1.714285 z"
       style="fill:#eff0f1;fill-opacity:1;stroke-width:0.428571" />
  </g>
  <g
     id="22-22-konversation"
     transform="translate(32,10)">
    <rect
       style="opacity:0.00100002"
       width="22"
       height="22"
       x="0"
       y="0"
       id="rect2" />
    <path
       id="Megaphone-3"
       class="st0"
       d="m 13.025,7 h 4.725 l 1.6875,1.714286 v 4 H 17.75 V 8.142857 h -1.125 v 4.571429 L 15.5,17.857143 h -3.375 l 1.125,-5.142857 h -0.225 c -3.0375,0 -5.878126,1.485714 -7.65,4 H 4.25 V 3 h 1.125 c 1.771874,2.514286 4.6125,4 7.65,4 z"
       style="fill:#cdd8e5;fill-opacity:0.40392157;stroke-width:0.283474" />
    <path
       id="Megaphone-s-6"
       class="st1"
       d="M 13.5875,19 H 12.96875 L 13.25,17.857143 h 0.3375 c 0.534375,0 0.984375,-0.371429 1.096875,-0.885714 L 15.6125,12.714286 H 17.75 c 0.61875,0 1.125,-0.514286 1.125,-1.142857 V 9.285714 c 0,-0.628571 -0.50625,-1.142857 -1.125,-1.142857 V 7 C 18.9875,7 20,8.028571 20,9.285714 v 2.285715 c 0,1.257142 -1.0125,2.285714 -2.25,2.285714 H 16.5125 L 15.78125,17.2 C 15.55625,18.257143 14.628125,19 13.5875,19 Z M 4.25,8.714286 V 7.571429 C 3.0125,7.571429 2,8.6 2,9.857143 c 0,1.257143 1.0125,2.285714 2.25,2.285714 V 11 C 3.63125,11 3.125,10.485714 3.125,9.857143 3.125,9.228571 3.63125,8.714286 4.25,8.714286 Z M 16.625,7 H 15.5 v 1.142857 h 1.125 z"
       style="fill:#eff0f1;fill-opacity:1;stroke-width:0.283474" />
  </g>
</svg>
