<?xml version="1.0" encoding="UTF-8" standalone="no"?>
<svg
   width="32"
   height="32"
   version="1.1"
   id="svg12"
   sodipodi:docname="konv_message.svg"
   inkscape:version="1.1.2 (0a00cf5339, 2022-02-04)"
   xmlns:inkscape="http://www.inkscape.org/namespaces/inkscape"
   xmlns:sodipodi="http://sodipodi.sourceforge.net/DTD/sodipodi-0.dtd"
   xmlns="http://www.w3.org/2000/svg"
   xmlns:svg="http://www.w3.org/2000/svg"
   xmlns:rdf="http://www.w3.org/1999/02/22-rdf-syntax-ns#"
   xmlns:cc="http://creativecommons.org/ns#"
   xmlns:dc="http://purl.org/dc/elements/1.1/">
  <g
     id="22-22-konv_message"
     transform="translate(32,10)">
    <rect
       style="opacity:0.00100002"
       width="22"
       height="22"
       x="0"
       y="4.7683716e-07"
       id="rect2" />
    <path
       id="Megaphone-3"
       class="st0"
       d="m 13.025,7.0000001 h 4.724999 L 19.4375,8.7142862 V 12.714285 H 17.749999 V 8.1428571 H 16.625 v 4.5714279 l -1.125001,5.142858 H 12.125 l 1.125001,-5.142858 H 13.025 c -3.0374998,0 -5.8781255,1.485715 -7.6500005,4.000001 H 4.2499998 V 3 H 5.3749995 C 7.1468745,5.514286 9.9875002,7.0000001 13.025,7.0000001 Z"
       style="fill:#a3be8c;fill-opacity:0.970146;stroke-width:0.283473" />
    <path
       id="Megaphone-s-6"
       class="st1"
       d="m 13.5875,19 h -0.618749 l 0.28125,-1.142857 H 13.5875 c 0.534374,0 0.984375,-0.371428 1.096875,-0.885714 L 15.6125,12.714285 h 2.137499 C 18.368752,12.714285 18.875,12.2 18.875,11.571428 V 9.2857141 c 0,-0.628571 -0.506248,-1.142857 -1.125001,-1.142857 v -1.142857 c 1.2375,0 2.250001,1.0285711 2.250001,2.285714 v 2.2857139 c 0,1.257145 -1.012501,2.285714 -2.250001,2.285714 h -1.237498 l -0.731253,3.342859 C 15.556248,18.257144 14.628126,19 13.5875,19 Z M 4.2499998,8.7142862 V 7.5714291 C 3.0124997,7.5714291 2,8.6000002 2,9.8571429 2,11.114286 3.0124997,12.142858 4.2499998,12.142858 V 11 c -0.6187497,0 -1.125,-0.514285 -1.125,-1.1428571 0,-0.6285717 0.5062503,-1.1428567 1.125,-1.1428567 z M 16.625,7.0000001 h -1.125001 v 1.142857 H 16.625 Z"
       style="fill:#eff0f1;fill-opacity:1;stroke-width:0.283473" />
  </g>
  <metadata
     id="metadata18">
    <rdf:RDF>
      <cc:Work
         rdf:about="">
        <dc:format>image/svg+xml</dc:format>
        <dc:type
           rdf:resource="http://purl.org/dc/dcmitype/StillImage" />
      </cc:Work>
    </rdf:RDF>
  </metadata>
  <defs
     id="defs16" />
  <sodipodi:namedview
     pagecolor="#b2b2b2"
     bordercolor="#000000"
     borderopacity="1"
     objecttolerance="10"
     gridtolerance="10"
     guidetolerance="10"
     inkscape:pageopacity="0"
     inkscape:pageshadow="2"
     inkscape:window-width="1920"
     inkscape:window-height="1015"
     id="namedview14"
     showgrid="false"
     inkscape:zoom="9.8125"
     inkscape:cx="24.305732"
     inkscape:cy="17.070064"
     inkscape:window-x="0"
     inkscape:window-y="0"
     inkscape:window-maximized="1"
     inkscape:current-layer="svg12"
     inkscape:document-rotation="0"
     inkscape:pagecheckerboard="false"
     inkscape:showpageshadow="false"
     inkscape:lockguides="false">
    <inkscape:grid
       type="xygrid"
       id="grid896"
       originx="0"
       originy="0" />
  </sodipodi:namedview>
  <g
     id="konv_message">
    <rect
       style="opacity:0.00100002"
       width="32"
       height="32"
       x="0"
       y="0"
       id="rect7" />
    <path
       id="Megaphone"
       class="st0"
       d="m 19.05,10 h 7.2 l 2.571429,2.571429 v 6 H 26.25 v -6.857143 h -1.714286 v 6.857143 l -1.714285,7.714285 h -5.142858 l 1.714286,-7.714285 H 19.05 c -4.628571,0 -8.957143,2.228571 -11.657143,6 H 5.678571 V 4 h 1.714286 c 2.7,3.771429 7.028572,6 11.657143,6 z"
       style="fill:#a3be8c;fill-opacity:1;stroke-width:0.428571" />
    <path
       id="Megaphone-s"
       class="st1"
       d="m 19.907143,28 h -0.942857 l 0.428571,-1.714286 h 0.514286 c 0.814286,0 1.5,-0.557143 1.671428,-1.328571 l 1.414286,-6.385714 H 26.25 c 0.942857,0 1.714286,-0.771429 1.714286,-1.714286 v -3.428572 c 0,-0.942857 -0.771429,-1.714285 -1.714286,-1.714285 V 10 c 1.885714,0 3.428571,1.542857 3.428571,3.428571 v 3.428572 c 0,1.885714 -1.542857,3.428571 -3.428571,3.428571 H 24.364286 L 23.25,25.3 C 22.907143,26.885714 21.492857,28 19.907143,28 Z M 5.678571,12.571429 V 10.857143 C 3.792857,10.857143 2.25,12.4 2.25,14.285714 c 0,1.885715 1.542857,3.428572 3.428571,3.428572 V 16 c -0.942857,0 -1.714285,-0.771429 -1.714285,-1.714286 0,-0.942857 0.771428,-1.714285 1.714285,-1.714285 z M 24.535714,10 h -1.714285 v 1.714286 h 1.714285 z"
       style="fill:#eff0f1;fill-opacity:1;stroke-width:0.428571" />
  </g>
</svg>
