<?xml version="1.0" encoding="UTF-8" standalone="no"?>
<svg
   width="32"
   height="32"
   version="1.1"
   id="svg12"
   sodipodi:docname="korgac.svg"
   inkscape:version="1.2.2 (b0a8486541, 2022-12-01)"
   xmlns:inkscape="http://www.inkscape.org/namespaces/inkscape"
   xmlns:sodipodi="http://sodipodi.sourceforge.net/DTD/sodipodi-0.dtd"
   xmlns="http://www.w3.org/2000/svg"
   xmlns:svg="http://www.w3.org/2000/svg"
   xmlns:rdf="http://www.w3.org/1999/02/22-rdf-syntax-ns#"
   xmlns:cc="http://creativecommons.org/ns#"
   xmlns:dc="http://purl.org/dc/elements/1.1/">
  <g
     id="22-22-korgac"
     transform="translate(32.000001,10.000001)">
    <rect
       style="opacity:0.00100002;fill:#a8aeca;fill-opacity:1"
       width="22"
       height="22"
       x="0"
       y="0"
       id="rect2" />
    <path
       id="Calendar-8"
       class="st0"
       d="m 4,4.999999 v 3 h 13 v 1 H 4 v 9 h 11.5 c 1.375,0 2.5,-1.125 2.5,-2.5 v -10.5 z m 3.5,11.5 H 6 v -1.5 h 1.5 z m 0,-2.5 H 6 v -1.5 h 1.5 z m 2.5,2.5 H 8.5 v -1.5 H 10 Z m 0,-2.5 H 8.5 v -1.5 H 10 Z m 0,-2.5 H 8.5 v -1.5 H 10 Z m 2.5,5 H 11 v -1.5 h 1.5 z m 0,-2.5 H 11 v -1.5 h 1.5 z m 0,-2.5 H 11 v -1.5 h 1.5 z m 2.5,2.5 h -1.5 v -1.5 H 15 Z m 0,-2.5 h -1.5 v -1.5 H 15 Z"
       style="fill:#cdd8e5;fill-opacity:0.40392157;stroke-width:0.25" />
    <path
       id="Calendar-s-7"
       class="st1"
       d="m 17,15.999999 v -7 h 1 v 7 c 0,1.65 -1.35,3 -3,3 H 5 v -1 h 10 c 1.1,0 2,-0.9 2,-2 z m 0,-8 v -3 h 1 v 3 z m -3,-3.5 c 0,-0.825 0.675,-1.5 1.5,-1.5 H 16 v 1 h -0.5 c -0.275,0 -0.5,0.225 -0.5,0.5 v 2.5 h -1 z m -8,0 c 0,-0.825 0.675,-1.5 1.5,-1.5 H 8 v 1 H 7.5 c -0.275,0 -0.5,0.225 -0.5,0.5 v 2.5 H 6 Z"
       style="fill:#eff0f1;fill-opacity:1;stroke-width:0.25" />
  </g>
  <style
     id="current-color-scheme"
     type="text/css">.ColorScheme-Text { color:#d6dbf1; }
</style>
  <metadata
     id="metadata18">
    <rdf:RDF>
      <cc:Work
         rdf:about="">
        <dc:format>image/svg+xml</dc:format>
        <dc:type
           rdf:resource="http://purl.org/dc/dcmitype/StillImage" />
      </cc:Work>
    </rdf:RDF>
  </metadata>
  <defs
     id="defs16" />
  <sodipodi:namedview
     pagecolor="#b2b2b2"
     bordercolor="#666666"
     borderopacity="1"
     objecttolerance="10"
     gridtolerance="10"
     guidetolerance="10"
     inkscape:pageopacity="0"
     inkscape:pageshadow="2"
     inkscape:window-width="1920"
     inkscape:window-height="1000"
     id="namedview14"
     showgrid="false"
     inkscape:zoom="9.8125"
     inkscape:cx="21.452229"
     inkscape:cy="14.216561"
     inkscape:window-x="0"
     inkscape:window-y="0"
     inkscape:window-maximized="1"
     inkscape:current-layer="svg12"
     inkscape:document-rotation="0"
     inkscape:pagecheckerboard="0"
     inkscape:lockguides="true"
     inkscape:showpageshadow="false"
     inkscape:deskcolor="#b2b2b2">
    <inkscape:grid
       type="xygrid"
       id="grid858"
       originx="0"
       originy="0" />
  </sodipodi:namedview>
  <g
     id="korgac">
    <rect
       style="opacity:0.00100002;fill:#a8aeca;fill-opacity:1"
       width="32"
       height="32"
       x="0"
       y="0"
       id="rect7" />
    <path
       id="Calendar"
       class="st0"
       d="m 5.5,7 v 4.5 H 25 V 13 H 5.5 v 13.5 h 17.25 c 2.0625,0 3.75,-1.6875 3.75,-3.75 V 7 Z m 5.25,17.25 H 8.5 V 22 h 2.25 z m 0,-3.75 H 8.5 v -2.25 h 2.25 z m 3.75,3.75 H 12.25 V 22 h 2.25 z m 0,-3.75 h -2.25 v -2.25 h 2.25 z m 0,-3.75 H 12.25 V 14.5 h 2.25 z m 3.75,7.5 H 16 V 22 h 2.25 z m 0,-3.75 H 16 v -2.25 h 2.25 z m 0,-3.75 H 16 V 14.5 h 2.25 z M 22,20.5 H 19.75 V 18.25 H 22 Z m 0,-3.75 H 19.75 V 14.5 H 22 Z"
       style="fill:#cdd8e5;fill-opacity:0.40392157;stroke-width:0.375" />
    <path
       id="Calendar-s"
       class="st1"
       d="M 25,23.5 V 13 h 1.5 V 23.5 C 26.5,25.975 24.475,28 22,28 H 7 v -1.5 h 15 c 1.65,0 3,-1.35 3,-3 z m 0,-12 V 7 h 1.5 v 4.5 z M 20.5,6.25 C 20.5,5.0125 21.5125,4 22.75,4 H 23.5 V 5.5 H 22.75 C 22.3375,5.5 22,5.8375 22,6.25 V 10 h -1.5 z m -12,0 C 8.5,5.0125 9.5125,4 10.75,4 H 11.5 V 5.5 H 10.75 C 10.3375,5.5 10,5.8375 10,6.25 V 10 H 8.5 Z"
       style="fill:#eff0f1;fill-opacity:1;stroke-width:0.375" />
  </g>
</svg>
