<?xml version="1.0" encoding="UTF-8" standalone="no"?>
<svg
   width="32"
   height="32"
   version="1.1"
   id="svg12"
   sodipodi:docname="ktorrent.svg"
   inkscape:version="1.1.2 (0a00cf5339, 2022-02-04)"
   xmlns:inkscape="http://www.inkscape.org/namespaces/inkscape"
   xmlns:sodipodi="http://sodipodi.sourceforge.net/DTD/sodipodi-0.dtd"
   xmlns="http://www.w3.org/2000/svg"
   xmlns:svg="http://www.w3.org/2000/svg"
   xmlns:rdf="http://www.w3.org/1999/02/22-rdf-syntax-ns#"
   xmlns:cc="http://creativecommons.org/ns#"
   xmlns:dc="http://purl.org/dc/elements/1.1/">
  <g
     id="22-22-ktorrent"
     transform="translate(32,10.000001)">
    <rect
       style="opacity:0.00100002"
       width="22"
       height="22"
       x="0"
       y="0"
       id="rect2" />
    <polygon
       id="Arrow-Down-0"
       class="st0"
       points="60,28 32,56 4,28 20,28 20,4 40,4 40,0 44,0 44,28 "
       transform="matrix(0.23809524,0,0,0.23488756,3.372619,3)"
       style="fill:#cdd8e5;fill-opacity:0.40392157" />
    <path
       id="ArrowDown-s-4"
       class="st1"
       d="M 13.848807,9.576851 V 3.93955 H 12.89643 v 5.637301 z m -6.666663,5.496371 2.452379,2.41934 c 0.738098,0.728151 1.952382,0.728151 2.690476,0 l 2.47619,-2.44283 -0.666666,-0.657686 -2.47619,2.419342 c -0.380954,0.375821 -0.976192,0.375821 -1.357144,0 L 7.848812,14.392046 Z"
       style="clip-rule:evenodd;fill:#ecedee;fill-opacity:1;fill-rule:evenodd;stroke-width:0.23649" />
    <rect
       x="18.151464"
       y="-16.710787"
       width="0.84853637"
       height="11.433031"
       rx="0"
       ry="0"
       transform="rotate(90)"
       id="rect4-8"
       style="fill:#cdd8e5;fill-opacity:0.40392157;stroke-width:0.201013" />
  </g>
  <g
     id="ktorrent">
    <rect
       style="opacity:0.00100002"
       width="32"
       height="32"
       x="0"
       y="0"
       id="rect7" />
    <polygon
       id="Arrow-Down"
       class="st0"
       points="32,56 4,28 20,28 20,4 40,4 40,0 44,0 44,28 60,28 "
       transform="matrix(0.35714286,0,0,0.35233134,4.5714287,4)"
       style="fill:#cdd8e5;fill-opacity:0.40392157" />
    <path
       id="ArrowDown-s"
       class="st1"
       d="M 20.285711,13.865277 V 5.409325 h -1.428566 v 8.455952 z m -9.999995,8.244556 3.678568,3.62901 c 1.107147,1.092227 2.928573,1.092227 4.035715,0 L 21.714283,22.074598 20.714284,21.088069 17,24.717082 c -0.571431,0.563732 -1.464289,0.563732 -2.035716,0 l -3.678566,-3.629013 z"
       style="clip-rule:evenodd;fill:#ecedee;fill-opacity:1;fill-rule:evenodd;stroke-width:0.354735" />
    <rect
       x="26.727196"
       y="-24.578682"
       width="1.2728046"
       height="17.149548"
       rx="0"
       ry="0"
       transform="rotate(90)"
       id="rect4"
       style="fill:#cdd8e5;fill-opacity:0.40392157;stroke-width:0.301519" />
  </g>
  <metadata
     id="metadata18">
    <rdf:RDF>
      <cc:Work
         rdf:about="">
        <dc:format>image/svg+xml</dc:format>
        <dc:type
           rdf:resource="http://purl.org/dc/dcmitype/StillImage" />
      </cc:Work>
    </rdf:RDF>
  </metadata>
  <defs
     id="defs16">
    <linearGradient
       id="linearGradient875"
       x1="0"
       x2="0"
       y1="0"
       y2="1">
      <stop
         offset="0%"
         style="stop-color:#acc3d3;stop-opacity:1"
         id="stop870" />
      <stop
         offset="100%"
         style="stop-color:#00ffff;stop-opacity:0"
         id="stop872" />
    </linearGradient>
    <linearGradient
       id="linearGradient862"
       x1="0"
       x2="0"
       y1="0"
       y2="1">
      <stop
         offset="0%"
         style="stop-color:#5d8aa8;stop-opacity:1"
         id="stop858" />
      <stop
         offset="100%"
         style="stop-color:#00ffff;stop-opacity:1"
         id="stop860" />
    </linearGradient>
    <linearGradient
       id="linearGradient861"
       x1="0"
       x2="0"
       y1="0"
       y2="1">
      <stop
         offset="0%"
         style="stop-color:#cce0ff;stop-opacity:1"
         id="stop857" />
      <stop
         offset="100%"
         style="stop-color:#00ffff;stop-opacity:0"
         id="stop859" />
    </linearGradient>
    <linearGradient
       id="linearGradient924"
       x1="0"
       x2="0"
       y1="0"
       y2="1">
      <stop
         offset="0%"
         style="stop-color:#0062f7;stop-opacity:1"
         id="stop920" />
      <stop
         offset="100%"
         style="stop-color:#00ffff;stop-opacity:1"
         id="stop922" />
    </linearGradient>
    <linearGradient
       id="linearGradient900"
       x1="0"
       x2="0"
       y1="0"
       y2="1">
      <stop
         offset="0%"
         style="stop-color:#00ffff;stop-opacity:1"
         id="stop896" />
      <stop
         offset="100%"
         style="stop-color:#00ffff;stop-opacity:0.4678033"
         id="stop898" />
    </linearGradient>
    <linearGradient
       x1="0"
       x2="0"
       y1="0"
       y2="1"
       id="linearGradient14">
      <stop
         offset="0%"
         style="stop-color:#303b3d; stop-opacity:1"
         id="stop18" />
      <stop
         offset="100%"
         style="stop-color:#bc985d; stop-opacity:1"
         id="stop20" />
    </linearGradient>
  </defs>
  <sodipodi:namedview
     pagecolor="#b2b2b2"
     bordercolor="#000000"
     borderopacity="1"
     objecttolerance="10"
     gridtolerance="10"
     guidetolerance="10"
     inkscape:pageopacity="0"
     inkscape:pageshadow="2"
     inkscape:window-width="1920"
     inkscape:window-height="1007"
     id="namedview14"
     showgrid="false"
     inkscape:zoom="9.8125"
     inkscape:cx="35.821656"
     inkscape:cy="24.968153"
     inkscape:window-x="0"
     inkscape:window-y="0"
     inkscape:window-maximized="1"
     inkscape:current-layer="svg12"
     inkscape:document-rotation="0"
     inkscape:lockguides="false"
     inkscape:showpageshadow="false"
     inkscape:pagecheckerboard="0"
     showguides="false">
    <inkscape:grid
       type="xygrid"
       id="grid848"
       originx="0"
       originy="0" />
    <sodipodi:guide
       position="70,66"
       orientation="0,-1"
       id="guide1542"
       inkscape:locked="false" />
  </sodipodi:namedview>
</svg>
