<?xml version="1.0" encoding="UTF-8" standalone="no"?>
<svg
   width="32"
   height="32"
   version="1.1"
   id="svg2046"
   sodipodi:docname="lutris.svg"
   inkscape:version="1.2.2 (b0a8486541, 2022-12-01)"
   xmlns:inkscape="http://www.inkscape.org/namespaces/inkscape"
   xmlns:sodipodi="http://sodipodi.sourceforge.net/DTD/sodipodi-0.dtd"
   xmlns="http://www.w3.org/2000/svg"
   xmlns:svg="http://www.w3.org/2000/svg">
  <g
     id="lutris">
    <rect
       style="opacity:0.00100002;fill:#d3dae3;fill-opacity:1"
       width="32"
       height="32"
       x="0"
       y="0"
       id="rect2039" />
    <path
       id="Page_1_"
       class="st0  ColorScheme-Highlight "
       d="m 21.25,8.5 v 0 L 19.75,7 V 7 H 9.25 V 26.5 H 22 c 2.0625,0 3.75,-1.6875 3.75,-3.75 V 13 Z m -9,2.25 z m 0,3.75 z m 0,7.5 z m 0,-3.75 z"
       sodipodi:nodetypes="ccccccsscccccccccccccccccccccc"
       style="color:#cdd8e5;fill:#cdd8e5;fill-opacity:0.403922;stroke-width:0.375" />
    <path
       id="Page-s"
       class="st1  ColorScheme-Text "
       d="m 22.55,13 h 3.2 v 10.5 c 0,2.475 -2.024999,4.5 -4.5,4.5 h -10.5 v -1.5 h 10.5 c 1.65,0 3,-1.350001 3,-3 v -9 h -1.7 z M 6.25,7 c 0,-1.65 1.350001,-3 3,-3 h 7.5 V 5.5 H 9.25 C 8.425001,5.5 7.75,6.175 7.75,7 v 12.75 h -1.5 z"
       style="color:#eff0f1;fill:currentColor;fill-opacity:1;stroke-width:0.375"
       sodipodi:nodetypes="ccssccsscccssccssccs" />
    <path
       d="m 16.404338,24.665778 c -0.881912,-0.330189 -5.827393,-2.613837 -5.958376,-2.751373 -0.08214,-0.08628 -0.137944,-0.565657 -0.160892,-1.382284 L 10.25,19.281896 l 2.512733,-1.39932 c 1.382001,-0.769626 2.522024,-1.387453 2.533384,-1.372952 0.01133,0.01453 0.04846,0.305121 0.08255,0.645819 0.06136,0.614849 0.05959,0.620381 -0.238882,0.744031 -0.44304,0.183508 -1.075795,0.840596 -1.154477,1.198868 -0.215342,0.980441 0.733491,1.740363 2.357952,1.888492 1.781292,0.162426 3.441011,-0.691164 3.441011,-1.769687 0,-0.546197 -0.302945,-0.933902 -1.034132,-1.323445 -0.373261,-0.198855 -0.37835,-0.209748 -0.37835,-0.811661 0,-0.561041 0.01595,-0.605018 0.198727,-0.54702 0.330367,0.104868 4.77516,2.159563 4.853112,2.243463 0.07756,0.08353 -0.02367,2.500837 -0.108151,2.581483 -0.07423,0.07085 -5.143894,3.040125 -5.498586,3.220475 -0.520645,0.264724 -0.875972,0.286193 -1.412475,0.08531 z m -0.605352,-4.339166 c -0.633654,-0.15292 -1.261142,-0.61529 -1.261142,-0.929288 0,-0.289905 0.572279,-0.860479 1.064768,-1.061599 l 0.454164,-0.185474 -0.05581,-0.655788 c -0.0939,-1.104451 -0.454267,-7.353771 -0.454267,-7.877172 0,-0.662327 0.231518,-0.817291 1.22103,-0.817291 0.56121,0 0.784189,0.0444 0.987819,0.196596 l 0.262988,0.196587 -0.03671,1.552685 c -0.02024,0.853982 -0.08831,2.84144 -0.151342,4.416585 l -0.114584,2.863895 0.35312,0.160076 c 1.223378,0.55458 1.441622,1.21318 0.586439,1.769698 -0.598945,0.389774 -2.015358,0.573481 -2.856496,0.37049 z"
       stroke-width="0.100891"
       id="path2165-36"
       style="fill:#eff0f1;fill-opacity:1" />
  </g>
  <sodipodi:namedview
     id="namedview2048"
     pagecolor="#cccccc"
     bordercolor="#000000"
     borderopacity="1"
     inkscape:showpageshadow="2"
     inkscape:pageopacity="0"
     inkscape:pagecheckerboard="0"
     inkscape:deskcolor="#808080"
     showgrid="false"
     inkscape:zoom="10.429825"
     inkscape:cx="9.8275858"
     inkscape:cy="21.333052"
     inkscape:window-width="1920"
     inkscape:window-height="998"
     inkscape:window-x="0"
     inkscape:window-y="0"
     inkscape:window-maximized="1"
     inkscape:current-layer="svg2046">
    <inkscape:grid
       type="xygrid"
       id="grid224"
       originx="0"
       originy="0" />
  </sodipodi:namedview>
  <defs
     id="l4k1">
    <style
       id="current-color-scheme"
       type="text/css">
   .ColorScheme-Background {color:#181818; } .ColorScheme-ButtonBackground { color:#343434; } .ColorScheme-Highlight { color:#4285f4; } .ColorScheme-Text { color:#dfdfdf; } .ColorScheme-ViewBackground { color:#242424; } .ColorScheme-NegativeText { color:#f44336; } .ColorScheme-PositiveText { color:#4caf50; } .ColorScheme-NeutralText { color:#ff9800; }
  </style>
    <linearGradient
       id="f"
       gradientUnits="userSpaceOnUse"
       x1="48"
       x2="48"
       y1="90"
       y2="5.9877172"
       gradientTransform="matrix(0.5,0,0,0.5,47.90916,-20.93187)">
      <stop
         offset="0"
         stop-color="#fe5f00"
         id="stop2130" />
      <stop
         offset="1"
         stop-color="#ffa100"
         id="stop2132" />
    </linearGradient>
  </defs>
  <g
     id="22-22-lutris">
    <rect
       style="opacity:0.00100002;fill:#d3dae3;fill-opacity:1"
       width="22"
       height="22"
       x="32"
       y="10"
       id="rect2032" />
    <path
       id="Page_1_-6"
       class="st0  ColorScheme-Highlight "
       d="m 46.5,16 v 0 l -1,-1 v 0 h -7 V 28 H 47 c 1.375,0 2.5,-1.125 2.5,-2.5 V 19 Z m -6,1.5 z m 0,2.5 z m 0,5 z m 0,-2.5 z"
       sodipodi:nodetypes="ccccccsscccccccccccccccccccccc"
       style="color:#cdd8e5;fill:#cdd8e5;fill-opacity:0.403922;stroke-width:0.25" />
    <path
       id="Page-s-1"
       class="st1  ColorScheme-Text "
       d="M 47.366667,19 H 49.5 v 7 c 0,1.65 -1.349999,3 -3,3 h -7 v -1 h 7 c 1.1,0 2,-0.900001 2,-2 V 20 H 47.366667 Z M 36.5,15 c 0,-1.1 0.900001,-2 2,-2 h 5 v 1 h -5 c -0.549999,0 -1,0.45 -1,1 v 8.5 h -1 z"
       style="color:#eff0f1;fill:currentColor;fill-opacity:1;stroke-width:0.25"
       sodipodi:nodetypes="ccssccsscccssccssccs" />
    <path
       d="m 42.729545,26.916105 c -0.534439,-0.206366 -3.531413,-1.633649 -3.61079,-1.719608 -0.04978,-0.05392 -0.08359,-0.353535 -0.0975,-0.863926 L 39,23.55118 40.522725,22.676609 c 0.8375,-0.48102 1.52836,-0.867162 1.535245,-0.858092 0.0065,0.009 0.02941,0.1907 0.04996,0.403629 0.03724,0.384284 0.03615,0.387738 -0.144765,0.46502 -0.268483,0.11469 -0.651933,0.525379 -0.699615,0.749291 -0.130499,0.612779 0.444494,1.087729 1.428927,1.18031 1.079465,0.101515 2.085262,-0.431978 2.085262,-1.106052 0,-0.34137 -0.183584,-0.58369 -0.626683,-0.827159 -0.226203,-0.124281 -0.229284,-0.131089 -0.229284,-0.507285 0,-0.350648 0.0097,-0.378129 0.120428,-0.341892 0.200204,0.06552 2.89376,1.349734 2.941001,1.402169 0.04701,0.05225 -0.01429,1.563023 -0.06547,1.613427 -0.04504,0.04429 -3.117221,1.900074 -3.332168,2.012794 -0.315511,0.165454 -0.530835,0.178874 -0.855964,0.05335 z m -0.366834,-2.711977 c -0.384004,-0.09557 -0.76426,-0.384555 -0.76426,-0.580805 0,-0.181188 0.346799,-0.537798 0.645247,-0.663498 l 0.275234,-0.11592 -0.03375,-0.409866 c -0.05689,-0.69029 -0.275305,-4.596104 -0.275305,-4.92323 0,-0.413959 0.1403,-0.510809 0.73995,-0.510809 0.340095,0 0.475226,0.02772 0.598619,0.122872 l 0.159372,0.122872 -0.02221,0.970421 c -0.0122,0.533742 -0.05357,1.775899 -0.09171,2.76037 l -0.06938,1.789926 0.213992,0.100053 c 0.741373,0.346611 0.873631,0.758235 0.355387,1.106058 -0.362965,0.243607 -1.221315,0.358424 -1.731046,0.231556 z"
       stroke-width="0.0620904"
       id="path2165-3-7"
       style="fill:#eff0f1;fill-opacity:1" />
  </g>
</svg>
