<?xml version="1.0" encoding="UTF-8" standalone="no"?>
<svg
   width="32"
   height="32"
   version="1.1"
   id="svg22"
   sodipodi:docname="mail.svg"
   inkscape:version="1.1.2 (0a00cf5339, 2022-02-04)"
   xmlns:inkscape="http://www.inkscape.org/namespaces/inkscape"
   xmlns:sodipodi="http://sodipodi.sourceforge.net/DTD/sodipodi-0.dtd"
   xmlns="http://www.w3.org/2000/svg"
   xmlns:svg="http://www.w3.org/2000/svg"
   xmlns:rdf="http://www.w3.org/1999/02/22-rdf-syntax-ns#"
   xmlns:cc="http://creativecommons.org/ns#"
   xmlns:dc="http://purl.org/dc/elements/1.1/">
  <metadata
     id="metadata28">
    <rdf:RDF>
      <cc:Work
         rdf:about="">
        <dc:format>image/svg+xml</dc:format>
        <dc:type
           rdf:resource="http://purl.org/dc/dcmitype/StillImage" />
      </cc:Work>
    </rdf:RDF>
  </metadata>
  <defs
     id="defs26" />
  <sodipodi:namedview
     pagecolor="#b2b2b2"
     bordercolor="#000000"
     borderopacity="1"
     objecttolerance="10"
     gridtolerance="10"
     guidetolerance="10"
     inkscape:pageopacity="0"
     inkscape:pageshadow="2"
     inkscape:window-width="1920"
     inkscape:window-height="1007"
     id="namedview24"
     showgrid="false"
     inkscape:zoom="6.9384855"
     inkscape:cx="26.014323"
     inkscape:cy="41.507617"
     inkscape:window-x="0"
     inkscape:window-y="0"
     inkscape:window-maximized="1"
     inkscape:current-layer="svg22"
     inkscape:document-rotation="0"
     showguides="false"
     inkscape:showpageshadow="false"
     inkscape:pagecheckerboard="0"
     inkscape:lockguides="true">
    <inkscape:grid
       type="xygrid"
       id="grid884"
       originx="0"
       originy="32" />
  </sodipodi:namedview>
  <g
     id="mail-unread"
     transform="translate(0,32)">
    <rect
       style="opacity:0.00100002"
       width="32"
       height="32"
       x="0"
       y="0"
       id="rect7-3" />
    <path
       id="Mailbox"
       class="st0"
       d="M 7.249999,9.142857 C 4.3625,9.142857 2,11.457143 2,14.285714 v 8.571429 h 9.624999 l 0.875,1.714286 H 14.25 l 0.875,-1.714286 h 12.25 C 28.818748,22.857143 30,21.7 30,20.285714 v -5.142857 c 0,-3.3 -2.756253,-6 -6.125,-6 H 21.25 v 1.714286 H 19.5 V 9.142857 H 11.887499 C 13.243752,10.3 14.118752,11.971429 14.25,13.857143 v 0 9 h -1.750001 v -8.571429 c 0,-2.828571 -2.362499,-5.142857 -5.25,-5.142857 z"
       style="fill:#cdd8e5;fill-opacity:0.40392157;stroke-width:0.433013" />
    <path
       id="Mailbox-s"
       class="st1"
       d="M 19.5,14.285714 H 17.75 V 7.428571 C 17.75,5.542857 19.325,4 21.25,4 H 23 v 1.714286 h -1.75 c -0.9625,0 -1.75,0.771428 -1.75,1.714285 z m 10.5,0 C 30,11.457143 27.6375,9.142857 24.75,9.142857 h -3.5 v 1.714286 h 3.5 c 1.925,0 3.5,1.542857 3.5,3.428571 v 6.857143 c 0,0.942857 -0.7875,1.714286 -1.75,1.714286 H 14.25 V 28 H 16 v -3.428571 h 10.5 c 1.925,0 3.5,-1.542858 3.5,-3.428572 z m -19.25,4.285715 h -7 v 1.714285 h 7 z m 1.749999,4.285714 H 3.75 v 1.714286 h 8.749999 z"
       style="fill:#eff0f1;fill-opacity:1;stroke-width:0.433013" />
  </g>
  <g
     id="mail-unread-new"
     transform="translate(32,10)">
    <rect
       style="opacity:0.00100002"
       width="32"
       height="32"
       x="-32"
       y="-10"
       id="rect7-5" />
    <path
       id="Mailbox-3"
       class="st0"
       d="M -24.750001,-0.857143 C -27.6375,-0.857143 -30,1.457143 -30,4.285714 v 8.571429 h 9.624999 l 0.875,1.714286 H -17.75 l 0.875,-1.714286 h 12.25 C -3.181252,12.857143 -2,11.7 -2,10.285714 V 5.142857 c 0,-3.3 -2.756253,-6 -6.125,-6 h -2.625 v 1.714286 h -1.75 v -1.714286 h -7.612501 C -18.756248,0.3 -17.881248,1.971429 -17.75,3.857143 v 0 9 h -1.750001 V 4.285714 c 0,-2.828571 -2.362499,-5.142857 -5.25,-5.142857 z"
       style="fill:#a3be8c;fill-opacity:1;stroke-width:0.433013" />
    <path
       id="Mailbox-s-6"
       class="st1"
       d="m -12.5,4.285714 h -1.75 V -2.571429 C -14.25,-4.457143 -12.675,-6 -10.75,-6 H -9 v 1.714286 h -1.75 c -0.9625,0 -1.75,0.771428 -1.75,1.714285 z m 10.5,0 c 0,-2.828571 -2.3625,-5.142857 -5.25,-5.142857 h -3.5 v 1.714286 h 3.5 c 1.925,0 3.5,1.542857 3.5,3.428571 v 6.857143 c 0,0.942857 -0.7875,1.714286 -1.75,1.714286 H -17.75 V 18 H -16 v -3.428571 h 10.5 c 1.925,0 3.5,-1.542858 3.5,-3.428572 z m -19.25,4.285715 h -7 v 1.714285 h 7 z m 1.749999,4.285714 H -28.25 v 1.714286 h 8.749999 z"
       style="fill:#eff0f1;fill-opacity:1;stroke-width:0.433013" />
  </g>
  <g
     id="22-22-mail-unread-new"
     transform="translate(32,10)">
    <rect
       style="opacity:0.00100002"
       width="22"
       height="22"
       x="0"
       y="0"
       id="rect2" />
    <path
       id="Mailbox-3-7"
       class="st0"
       d="M 5.199999,6.428571 C 3.275,6.428571 1.7,7.971429 1.7,9.857143 v 5.714286 h 6.416666 l 0.583333,1.142857 H 9.866667 L 10.45,15.571429 h 8.166667 c 0.962498,0 1.75,-0.771429 1.75,-1.714286 v -3.428572 c 0,-2.2 -1.837502,-4 -4.083334,-4 h -1.75 V 7.571429 H 13.366667 V 6.428571 H 8.291666 C 9.195835,7.2 9.779168,8.314286 9.866667,9.571429 v 0 6 H 8.699999 V 9.857143 c 0,-1.885714 -1.574999,-3.428572 -3.5,-3.428572 z"
       style="fill:#a3be8c;fill-opacity:1;stroke-width:0.288675" />
    <path
       id="Mailbox-s-6-5"
       class="st1"
       d="M 13.366667,9.857143 H 12.2 V 5.285714 C 12.2,4.028571 13.25,3 14.533333,3 H 15.7 v 1.142857 h -1.166667 c -0.641666,0 -1.166666,0.514286 -1.166666,1.142857 z m 7,0 c 0,-1.885714 -1.575,-3.428572 -3.5,-3.428572 h -2.333334 v 1.142858 h 2.333334 C 18.15,7.571429 19.2,8.6 19.2,9.857143 v 4.571428 c 0,0.628572 -0.525,1.142858 -1.166667,1.142858 H 9.866667 V 19 h 1.166666 v -2.285714 h 7 c 1.283334,0 2.333334,-1.028572 2.333334,-2.285715 z M 7.533333,12.714286 H 2.866667 v 1.142857 h 4.666666 z m 1.166666,2.857143 H 2.866667 v 1.142857 h 5.833332 z"
       style="fill:#eff0f1;fill-opacity:1;stroke-width:0.288675" />
  </g>
  <g
     id="22-22-mail-unread"
     transform="translate(32,10)">
    <rect
       style="opacity:0.00100002"
       width="22"
       height="22"
       x="0"
       y="32"
       id="rect2-6" />
    <path
       id="Mailbox-35"
       class="st0"
       d="M 5.199999,38.428571 C 3.275,38.428571 1.7,39.971429 1.7,41.857143 v 5.714286 h 6.416666 l 0.583333,1.142857 H 9.866667 L 10.45,47.571429 h 8.166667 c 0.962498,0 1.75,-0.771429 1.75,-1.714286 v -3.428572 c 0,-2.2 -1.837502,-4 -4.083334,-4 h -1.75 v 1.142858 H 13.366667 V 38.428571 H 8.291666 C 9.195835,39.2 9.779168,40.314286 9.866667,41.571429 v 0 6 H 8.699999 v -5.714286 c 0,-1.885714 -1.574999,-3.428572 -3.5,-3.428572 z"
       style="fill:#cdd8e5;fill-opacity:0.40392157;stroke-width:0.288675" />
    <path
       id="Mailbox-s-62"
       class="st1"
       d="M 13.366667,41.857143 H 12.2 V 37.285714 C 12.2,36.028571 13.25,35 14.533333,35 H 15.7 v 1.142857 h -1.166667 c -0.641666,0 -1.166666,0.514286 -1.166666,1.142857 z m 7,0 c 0,-1.885714 -1.575,-3.428572 -3.5,-3.428572 h -2.333334 v 1.142858 h 2.333334 C 18.15,39.571429 19.2,40.6 19.2,41.857143 v 4.571428 c 0,0.628572 -0.525,1.142858 -1.166667,1.142858 H 9.866667 V 51 h 1.166666 v -2.285714 h 7 c 1.283334,0 2.333334,-1.028572 2.333334,-2.285715 z M 7.533333,44.714286 H 2.866667 v 1.142857 h 4.666666 z m 1.166666,2.857143 H 2.866667 v 1.142857 h 5.833332 z"
       style="fill:#eff0f1;fill-opacity:1;stroke-width:0.288675" />
  </g>
</svg>
