<?xml version="1.0" encoding="UTF-8" standalone="no"?>
<svg
   width="32"
   height="32"
   x="0"
   y="0"
   version="1.1"
   id="svg18"
   sodipodi:docname="mellowplayer.svg"
   inkscape:version="1.2.2 (b0a8486541, 2022-12-01)"
   xmlns:inkscape="http://www.inkscape.org/namespaces/inkscape"
   xmlns:sodipodi="http://sodipodi.sourceforge.net/DTD/sodipodi-0.dtd"
   xmlns="http://www.w3.org/2000/svg"
   xmlns:svg="http://www.w3.org/2000/svg">
  <g
     id="22-22-mellowplayer"
     transform="translate(32,10)">
    <rect
       style="opacity:0.00100002;fill:#d1d5e9;fill-opacity:1"
       width="22"
       height="22"
       x="0"
       y="0"
       id="rect4" />
    <path
       id="Page_1_-6"
       class="st0  ColorScheme-Highlight "
       d="m 14.5,6 v 0 l -1,-1 v 0 h -7 V 18 H 15 c 1.375,0 2.5,-1.125 2.5,-2.5 V 9 Z m -6,1.5 z m 0,2.5 z m 0,5 z m 0,-2.5 z"
       sodipodi:nodetypes="ccccccsscccccccccccccccccccccc"
       style="color:#cdd8e5;fill:#cdd8e5;fill-opacity:0.403922;stroke-width:0.25" />
    <path
       id="Page-s-1"
       class="st1  ColorScheme-Text "
       d="M 15.366667,9 H 17.5 v 7 c 0,1.65 -1.349999,3 -3,3 h -7 v -1 h 7 c 1.1,0 2,-0.900001 2,-2 V 10 H 15.366667 Z M 4.5,5 c 0,-1.1 0.900001,-2 2,-2 h 5 v 1 h -5 c -0.549999,0 -1,0.45 -1,1 v 8.5 h -1 z"
       style="color:#eff0f1;fill:currentColor;fill-opacity:1;stroke-width:0.25"
       sodipodi:nodetypes="ccssccsscccssccssccs" />
    <path
       style="fill:#eff0f1;fill-opacity:1;stroke-width:0.333333"
       d="M 10.461385,7.5 A 2.4285716,2.4285716 0 0 0 8.033,9.928388 a 2.4285716,2.4285716 0 0 0 0.179037,0.907548 1.3333332,1.3333332 0 0 1 1.154296,-0.669271 1.3333332,1.3333332 0 0 1 0.0035,0 v -1.46484 c 1.47e-4,0 -0.01161,-0.132515 0.09245,-0.184895 0.02526,-0.01275 0.05087,-0.01741 0.07423,-0.01688 0.06998,8.67e-4 0.124349,0.0469 0.124349,0.0469 l 1.328777,0.790363 a 1.3333332,1.3333332 0 0 1 1.043598,-0.503902 1.3333332,1.3333332 0 0 1 0.67513,0.185546 2.4285716,2.4285716 0 0 0 -2.246746,-1.518886 z M 9.702921,8.959633 v 2.531251 2.526694 l 2.102213,-1.249345 2.151696,-1.277349 -2.146489,-1.277345 z M 13.033,9.166665 a 2.3333332,2.3333332 0 0 0 -0.112632,0.0072 1.3333332,1.3333332 0 0 1 0.445965,0.992837 1.3333332,1.3333332 0 0 1 -0.10742,0.520837 l 0.965491,0.574871 c 0,0 0.141929,0.06909 0.141929,0.235678 0,0.167026 -0.143228,0.221352 -0.143228,0.221352 L 13.2524,12.296262 a 1.3333332,1.3333332 0 0 1 0.113933,0.53711 1.3333332,1.3333332 0 0 1 -0.446614,0.993488 2.3333332,2.3333332 0 0 0 0.113281,0.0067 2.3333332,2.3333332 0 0 0 2.333333,-2.33335 A 2.3333332,2.3333332 0 0 0 13.033,9.166811 Z M 10.036254,9.546225 11.63977,10.5 l 1.664712,0.990884 -1.669269,0.990882 -1.598959,0.949879 V 11.490884 Z M 8.211388,12.164064 A 2.4285716,2.4285716 0 0 0 8.033,13.071611 2.4285716,2.4285716 0 0 0 10.461385,15.5 2.4285716,2.4285716 0 0 0 12.710081,13.979818 1.3333332,1.3333332 0 0 1 12.033,14.166664 1.3333332,1.3333332 0 0 1 10.978962,13.647131 l -1.375649,0.817716 c 0,0 -0.06898,0.06174 -0.158203,0.02215 C 9.343237,14.441427 9.3696,14.325535 9.3696,14.325535 v -1.492184 a 1.3333332,1.3333332 0 0 1 -0.0035,0 1.3333332,1.3333332 0 0 1 -1.154927,-0.66927 z"
       id="path13-7-6-8" />
    <path
       style="opacity:0.5;fill:#d1d5e9;fill-opacity:1;stroke-width:0.333333"
       d="m 12.033,8.833335 a 1.3333332,1.3333332 0 0 0 -1.043622,0.503909 l 0.991539,0.589185 1.277996,0.761073 A 1.3333332,1.3333332 0 0 0 13.366333,10.166665 1.3333332,1.3333332 0 0 0 12.033,8.833335 Z m -2.666667,1.33333 A 1.3333332,1.3333332 0 0 0 8.033,11.5 a 1.3333332,1.3333332 0 0 0 1.333333,1.333335 1.3333332,1.3333332 0 0 0 0.0035,0 v -1.342451 -1.324219 a 1.3333332,1.3333332 0 0 0 -0.0035,0 z m 3.886067,2.129563 -1.27669,0.758461 -0.996748,0.592442 A 1.3333332,1.3333332 0 0 0 12.033,14.166664 1.3333332,1.3333332 0 0 0 13.366333,12.833335 1.3333332,1.3333332 0 0 0 13.2524,12.296228 Z"
       id="path15-5-2-7" />
  </g>
  <sodipodi:namedview
     id="namedview20"
     pagecolor="#b2b2b2"
     bordercolor="#000000"
     borderopacity="1"
     inkscape:showpageshadow="false"
     inkscape:pageopacity="0"
     inkscape:pagecheckerboard="0"
     inkscape:deskcolor="#b2b2b2"
     showgrid="false"
     inkscape:zoom="10.429825"
     inkscape:cx="13.950378"
     inkscape:cy="18.552564"
     inkscape:window-width="1920"
     inkscape:window-height="1000"
     inkscape:window-x="0"
     inkscape:window-y="0"
     inkscape:window-maximized="1"
     inkscape:current-layer="svg18">
    <inkscape:grid
       type="xygrid"
       id="grid1877"
       originx="32"
       originy="10" />
  </sodipodi:namedview>
  <defs
     id="987">
    <style
       type="text/css"
       id="current-color-scheme" />
  </defs>
  <g
     id="mellowplayer">
    <rect
       style="opacity:0.00100002;fill:#d1d5e9;fill-opacity:1"
       width="32"
       height="32"
       x="0"
       y="0"
       id="rect11" />
    <path
       id="Page_1_"
       class="st0  ColorScheme-Highlight "
       d="m 21.25,8.5 v 0 L 19.75,7 V 7 H 9.2500005 V 26.5 H 22 c 2.0625,0 3.75,-1.6875 3.75,-3.75 V 13 Z m -9,2.25 z m 0,3.75 z m 0,7.5 z m 0,-3.75 z"
       sodipodi:nodetypes="ccccccsscccccccccccccccccccccc"
       style="color:#cdd8e5;fill:#cdd8e5;fill-opacity:0.403922;stroke-width:0.375" />
    <path
       id="Page-s"
       class="st1  ColorScheme-Text "
       d="m 22.55,13 h 3.2 v 10.5 c 0,2.475 -2.024999,4.5 -4.5,4.5 h -10.5 v -1.5 h 10.5 c 1.65,0 3,-1.350001 3,-3 v -9 h -1.7 z M 6.2500005,7 c 0,-1.65 1.35,-3 3,-3 H 16.75 V 5.5 H 9.2500005 c -0.825,0 -1.5,0.675 -1.5,1.5 v 12.75 h -1.5 z"
       style="color:#eff0f1;fill:currentColor;fill-opacity:1;stroke-width:0.375"
       sodipodi:nodetypes="ccssccsscccssccssccs" />
    <path
       style="fill:#eff0f1;fill-opacity:1;stroke-width:0.541669"
       d="M 14.846128,10.4 A 3.9464284,3.9464284 0 0 0 10.9,14.346132 a 3.9464284,3.9464284 0 0 0 0.290935,1.474762 2.1666668,2.1666668 0 0 1 1.875734,-1.087567 2.1666668,2.1666668 0 0 1 0.0053,0 v -2.38036 c 2.4e-4,0 -0.01882,-0.215342 0.150227,-0.300452 0.04109,-0.02073 0.08271,-0.02831 0.12062,-0.02742 0.113717,0.0013 0.202067,0.07625 0.202067,0.07625 l 2.159262,1.284341 a 2.1666668,2.1666668 0 0 1 1.695847,-0.81884 2.1666668,2.1666668 0 0 1 1.097085,0.301509 3.9464284,3.9464284 0 0 0 -3.650962,-2.468188 z m -1.232506,2.371899 v 4.113287 4.105881 l 3.416099,-2.030187 3.496504,-2.075694 -3.488044,-2.075688 z M 19.025,13.108327 a 3.7916668,3.7916668 0 0 0 -0.183028,0.01177 2.1666668,2.1666668 0 0 1 0.724697,1.613356 2.1666668,2.1666668 0 0 1 -0.17456,0.846365 l 1.568927,0.934166 c 0,0 0.230633,0.112259 0.230633,0.382978 0,0.271411 -0.232751,0.359698 -0.232751,0.359698 L 19.38153,18.193991 A 2.1666668,2.1666668 0 0 1 19.566669,19.066798 2.1666668,2.1666668 0 0 1 18.840918,20.68121 3.7916668,3.7916668 0 0 0 19.025,20.69202 3.7916668,3.7916668 0 0 0 22.816669,16.900328 3.7916668,3.7916668 0 0 0 19.025,13.108573 Z m -4.869709,0.616791 2.605714,1.549882 2.705158,1.610186 -2.712564,1.610183 -2.598308,1.543559 v -3.153742 z m -2.965409,4.253988 A 3.9464284,3.9464284 0 0 0 10.9,19.453867 3.9464284,3.9464284 0 0 0 14.846128,23.4 3.9464284,3.9464284 0 0 0 18.500262,20.929707 2.1666668,2.1666668 0 0 1 17.4,21.233326 2.1666668,2.1666668 0 0 1 15.687193,20.389087 L 13.45176,21.71788 c 0,0 -0.112097,0.100311 -0.257085,0.03603 -0.165539,-0.07405 -0.122695,-0.262383 -0.122695,-0.262383 v -2.424796 a 2.1666668,2.1666668 0 0 1 -0.0053,0 2.1666668,2.1666668 0 0 1 -1.876754,-1.087565 z"
       id="path13-7-6" />
    <path
       style="opacity:0.5;fill:#d1d5e9;fill-opacity:1;stroke-width:0.541669"
       d="m 17.4,12.566673 a 2.1666668,2.1666668 0 0 0 -1.695883,0.818853 l 1.611249,0.957418 2.076743,1.236749 A 2.1666668,2.1666668 0 0 0 19.566669,14.733327 2.1666668,2.1666668 0 0 0 17.4,12.566673 Z m -4.333331,2.166654 A 2.1666668,2.1666668 0 0 0 10.9,16.9 a 2.1666668,2.1666668 0 0 0 2.166669,2.166673 2.1666668,2.1666668 0 0 0 0.0053,0 v -2.181487 -2.151859 a 2.1666668,2.1666668 0 0 0 -0.0053,0 z m 6.314861,3.460545 -2.074625,1.232502 -1.619712,0.962713 A 2.1666668,2.1666668 0 0 0 17.4,21.233326 2.1666668,2.1666668 0 0 0 19.566669,19.066673 2.1666668,2.1666668 0 0 0 19.38153,18.193872 Z"
       id="path15-5-2" />
  </g>
</svg>
