<?xml version="1.0" encoding="UTF-8" standalone="no"?>
<svg
   id="svg50"
   width="32"
   height="32"
   version="1.1"
   sodipodi:docname="microphone.svg"
   inkscape:version="1.2.2 (b0a8486541, 2022-12-01)"
   xmlns:inkscape="http://www.inkscape.org/namespaces/inkscape"
   xmlns:sodipodi="http://sodipodi.sourceforge.net/DTD/sodipodi-0.dtd"
   xmlns="http://www.w3.org/2000/svg"
   xmlns:svg="http://www.w3.org/2000/svg"
   xmlns:rdf="http://www.w3.org/1999/02/22-rdf-syntax-ns#"
   xmlns:cc="http://creativecommons.org/ns#"
   xmlns:dc="http://purl.org/dc/elements/1.1/">
  <g
     id="microphone-sensitivity-low"
     transform="translate(64.000003)">
    <path
       style="opacity:0.00100002;fill:#e5e9ef;fill-opacity:1"
       d="M 0,0 H 32.000001 V 32.000001 H 0 Z"
       id="path38" />
    <path
       d="m 26.488797,3.5001972 c -0.190926,-0.0042 -0.381856,0.05876 -0.552263,0.18096 -0.453454,0.336961 -0.571831,1.005889 -0.267299,1.49833 1.804283,2.916683 1.804283,6.7214288 0,9.6381178 -0.305487,0.492441 -0.186155,1.161629 0.267299,1.498335 0.453458,0.33228 1.066341,0.20228 1.375173,-0.290166 C 28.435803,14.203384 29,12.103201 29,9.998798 29,7.8944052 28.435803,5.7942262 27.311707,3.9718162 c -0.19093,-0.30732 -0.505963,-0.47164 -0.82291,-0.471619 z m 0,0"
       id="path1590-1"
       style="fill:#eff0f1;fill-opacity:0.50442475" />
    <path
       d="m 22.524188,5.1217112 c 0.485567,-0.264946 1.092451,-0.083 1.355356,0.406461 0.714889,1.331009 1.120457,2.855157 1.120457,4.4718098 0,1.616649 -0.405568,3.140862 -1.120457,4.471862 -0.262905,0.489349 -0.869789,0.67141 -1.355356,0.406447 -0.485689,-0.264965 -0.666337,-0.876586 -0.403433,-1.365936 0.56062,-1.043728 0.8794,-2.239023 0.8794,-3.512373 0,-1.2733568 -0.31878,-2.4686508 -0.8794,-3.5123398 -0.262904,-0.489426 -0.08226,-1.100978 0.403433,-1.365931 z"
       id="path2061-3-8"
       style="fill:#eff0f1;fill-opacity:0.5;stroke-width:1.33844" />
    <path
       id="Microphone-7"
       class="st0"
       d="m 7.5,8.4999952 c 0,-2.475 2.025,-4.5 4.5,-4.5 2.475,0 4.5,2.025 4.5,4.5 V 14.499995 H 18 v 0.75 h 1.5 v 0.75 c 0,4.125 -3.375,7.5 -7.5,7.5 -4.125,0 -7.5,-3.375 -7.5,-7.5 H 3 v -1.5 h 3 v 1.5 c 0,3.3 2.7,6 6,6 3.3,0 6,-2.7 6,-6 h -1.5 c 0,2.475 -2.025,4.5 -4.5,4.5 -2.475,0 -4.5,-2.025 -4.5,-4.5 z m 0,19.4999998 h 8.25 v -1.5 H 7.5 Z"
       style="fill:#cdd8e5;fill-opacity:0.403922;stroke-width:0.375" />
    <path
       id="Microphone-s-9"
       class="st1"
       d="M 7.5,8.4999952 H 9.75 V 9.999995 H 7.5 Z m 9,0 H 14.25 V 9.999995 h 2.25 z m -9,4.4999998 h 2.25 v -1.5 H 7.5 Z m 9,-1.5 h -2.25 v 1.5 h 2.25 z m -9,4.5 h 2.25 v -1.5 H 7.5 Z m 9,-1.5 h -2.25 v 1.5 h 2.25 z m 1.5,1.5 c 0,3.3 -2.7,6 -6,6 h -0.75 v 3 c 0,1.65 1.35,3 3,3 h 2.25 v -1.5 h -2.25 c -0.825,0 -1.5,-0.675 -1.5,-1.5 v -1.5375 c 3.7875,-0.375 6.75,-3.5625 6.75,-7.4625 H 21 v -1.5 h -3 z"
       style="fill:#eff0f1;fill-opacity:1;stroke-width:0.375" />
  </g>
  <g
     id="22-22-microphone-sensitivity-muted"
     transform="translate(96.000004,-22.05)">
    <path
       style="opacity:0.00100002;fill:#e5e9ef;fill-opacity:1"
       d="m 0,0.05 h 21.999997 v 22 H 0 Z"
       id="path26" />
    <path
       id="Mute-5"
       class="st0"
       d="M 15,4.46 V 5.8775 L 7.6,13.37 C 7.2,12.762508 7,12.02 7,11.21 V 4.46 c 0,-2.2275 1.799997,-4.05 4,-4.05 2.200008,0 4,1.8225 4,4.05 z m -4,12.15 c -1.1333254,0 -2.1666666,-0.337492 -2.999999,-0.945 L 7.0333344,16.643746 C 8.1333344,17.453746 9.500003,17.96 11,17.96 c 3.666674,0 6.666666,-3.037492 6.666666,-6.75 V 10.535 H 16.333334 V 9.86 H 15 V 8.577497 L 8.9666656,14.686254 C 9.5666638,15.057508 10.266674,15.26 11,15.26 c 2.200008,0 4,-1.822492 4,-4.05 h 1.333334 c 0,2.97 -2.4,5.4 -5.333334,5.4 z M 5.6666666,9.86 H 3 v 1.35 h 1.3333334 c 0,1.518746 0.499999,2.936254 1.3666676,4.083746 L 6.6666666,14.315 c -0.6333322,-0.877492 -1,-1.957492 -1,-3.105 z m 8.6666674,10.8 H 7 v 1.35 h 7.333334 z"
       style="fill:#cdd8e5;fill-opacity:0.403922;stroke-width:0.335406" />
    <path
       id="Mute-s-3"
       class="st1"
       d="M 19,2.705 3.9333334,17.96 3,17.015 18.066666,1.76 Z m -2.666666,8.505 c 0,2.97 -2.4,5.4 -5.333334,5.4 h -0.666666 v 2.7 c 0,1.485 1.2,2.7 2.666666,2.7 h 2 v -1.35 h -2 c -0.733326,0 -1.333334,-0.607492 -1.333334,-1.35 v -1.383746 c 3.366664,-0.337508 6,-3.206254 6,-6.716254 H 19 V 9.86 h -2.666666 z"
       style="fill:#eff0f1;fill-opacity:1;stroke-width:0.335406" />
  </g>
  <style
     id="current-color-scheme"
     type="text/css" />
  <metadata
     id="metadata67">
    <rdf:RDF>
      <cc:Work
         rdf:about="">
        <dc:format>image/svg+xml</dc:format>
        <dc:type
           rdf:resource="http://purl.org/dc/dcmitype/StillImage" />
      </cc:Work>
    </rdf:RDF>
  </metadata>
  <defs
     id="defs65" />
  <sodipodi:namedview
     pagecolor="#b2b2b2"
     bordercolor="#000000"
     borderopacity="1"
     objecttolerance="10"
     gridtolerance="10"
     guidetolerance="10"
     inkscape:pageopacity="1"
     inkscape:pageshadow="2"
     inkscape:window-width="1920"
     inkscape:window-height="998"
     id="namedview63"
     showgrid="false"
     inkscape:zoom="5.5138889"
     inkscape:cx="62.478589"
     inkscape:cy="15.869018"
     inkscape:window-x="0"
     inkscape:window-y="0"
     inkscape:window-maximized="1"
     inkscape:current-layer="svg50"
     inkscape:document-rotation="0"
     inkscape:lockguides="true"
     inkscape:showpageshadow="false"
     inkscape:pagecheckerboard="false"
     inkscape:deskcolor="#b2b2b2">
    <inkscape:grid
       type="xygrid"
       id="grid5308"
       originx="96.000004"
       originy="0" />
  </sodipodi:namedview>
  <g
     id="microphone-sensitivity-high">
    <path
       style="opacity:0.00100002;fill:#d1d5e9;fill-opacity:1"
       d="M 0,0 H 32.000001 V 32.000001 H 0 Z"
       id="path2" />
    <path
       d="m 26.488797,3.5002017 c -0.190926,-0.00425 -0.381856,0.05876 -0.552263,0.1809603 -0.453454,0.3369605 -0.571831,1.0058894 -0.267299,1.4983299 1.804283,2.9166836 1.804283,6.7214291 0,9.6381181 -0.305487,0.492441 -0.186155,1.161629 0.267299,1.498335 0.453458,0.33228 1.066341,0.20228 1.375173,-0.290166 C 28.435803,14.203389 29,12.103206 29,9.998803 29,7.8944103 28.435803,5.7942313 27.311707,3.9718214 27.120777,3.6645009 26.805744,3.5001807 26.488797,3.5002017 Z m 0,0"
       id="path1590"
       style="fill:#eff0f1;fill-opacity:1" />
    <path
       d="m 22.524188,5.1217163 c 0.485567,-0.2649463 1.092451,-0.083001 1.355356,0.4064606 0.714889,1.3310086 1.120457,2.8551567 1.120457,4.4718102 0,1.6166489 -0.405568,3.1408619 -1.120457,4.4718619 -0.262905,0.489349 -0.869789,0.67141 -1.355356,0.406447 -0.485689,-0.264965 -0.666337,-0.876586 -0.403433,-1.365936 0.56062,-1.043728 0.8794,-2.239023 0.8794,-3.5123729 0,-1.2733567 -0.31878,-2.4686515 -0.8794,-3.5123402 -0.262904,-0.4894261 -0.08226,-1.100978 0.403433,-1.3659306 z"
       id="path2061-3"
       style="fill:#eff0f1;fill-opacity:1;stroke-width:1.33844" />
    <path
       id="Microphone"
       class="st0"
       d="M 7.5,8.5 C 7.5,6.025 9.525,4 12,4 c 2.475,0 4.5,2.025 4.5,4.5 v 6 H 18 v 0.75 h 1.5 V 16 c 0,4.125 -3.375,7.5 -7.5,7.5 C 7.875,23.5 4.5,20.125 4.5,16 H 3 V 14.5 H 6 V 16 c 0,3.3 2.7,6 6,6 3.3,0 6,-2.7 6,-6 h -1.5 c 0,2.475 -2.025,4.5 -4.5,4.5 -2.475,0 -4.5,-2.025 -4.5,-4.5 z m 0,19.5 h 8.25 V 26.5 H 7.5 Z"
       style="fill:#cdd8e5;fill-opacity:0.403922;stroke-width:0.375" />
    <path
       id="Microphone-s"
       class="st1"
       d="M 7.5,8.5 H 9.75 V 10 H 7.5 Z m 9,0 H 14.25 V 10 H 16.5 Z M 7.5,13 H 9.75 V 11.5 H 7.5 Z m 9,-1.5 H 14.25 V 13 H 16.5 Z M 7.5,16 H 9.75 V 14.5 H 7.5 Z m 9,-1.5 H 14.25 V 16 H 16.5 Z M 18,16 c 0,3.3 -2.7,6 -6,6 h -0.75 v 3 c 0,1.65 1.35,3 3,3 h 2.25 v -1.5 h -2.25 c -0.825,0 -1.5,-0.675 -1.5,-1.5 V 23.4625 C 16.5375,23.0875 19.5,19.9 19.5,16 H 21 v -1.5 h -3 z"
       style="fill:#eff0f1;fill-opacity:1;stroke-width:0.375" />
  </g>
  <g
     id="22-22-microphone-sensitivity-high"
     transform="translate(10e-7,-22)">
    <path
       style="opacity:0.00100002;fill:#d1d5e9;fill-opacity:1"
       d="M 0,0 H 22 V 22 H 0 Z"
       id="path7-5" />
    <path
       d="M 19.939506,2.6164941e-4 C 19.782841,-0.00439835 19.626153,0.05330865 19.486364,0.1637114 19.11428,0.4680704 19.01715,1.0722887 19.267029,1.5170875 c 1.480441,2.6344627 1.480441,6.0710596 0,8.7055635 -0.250643,0.444781 -0.152749,1.049225 0.219335,1.353338 0.372069,0.30014 0.874932,0.182714 1.128351,-0.262082 C 21.537063,9.66786 22,7.7708803 22,5.8700777 22,3.9693015 21.537063,2.0723356 20.614715,0.4262483 20.458037,0.1486634 20.199562,2.3994941e-4 19.939506,2.6164941e-4 Z m 0,0"
       id="path1590-7"
       style="fill:#eff0f1;fill-opacity:1;stroke-width:0.860873" />
    <path
       d="m 17.121585,1.4648874 c 0.398404,-0.2393142 0.896371,-0.074836 1.112088,0.3671332 0.586585,1.2022343 0.919346,2.5789096 0.919346,4.0391173 0,1.4602516 -0.332761,2.8369722 -0.919346,4.0391981 -0.215717,0.441988 -0.713684,0.606416 -1.112088,0.367132 -0.398553,-0.239348 -0.546756,-0.79177 -0.331045,-1.2337907 0.459993,-0.9427474 0.721564,-2.0223802 0.721564,-3.1725394 0,-1.1501323 -0.261571,-2.2297864 -0.721564,-3.1724935 -0.215711,-0.442066 -0.06738,-0.9944434 0.331045,-1.233757 z"
       id="path2061-3-0"
       style="fill:#eff0f1;fill-opacity:1;stroke-width:1.15225" />
    <path
       id="Microphone-6"
       class="st0"
       d="m 3.6550653,4.4582901 c 0,-2.2264489 1.6447794,-4.0480868 3.6550654,-4.0480868 2.0102843,0 3.6550573,1.8216379 3.6550573,4.0480868 V 9.855747 h 1.218369 v 0.674685 h 1.218345 v 0.674666 c 0,3.710747 -2.74129,6.746823 -6.0917713,6.746823 -3.3504762,0 -6.091775,-3.036076 -6.091775,-6.746823 H 0 V 9.855747 h 2.4367098 v 1.349351 c 0,2.968604 2.1930399,5.397447 4.8734209,5.397447 2.6803763,0 4.8734263,-2.428843 4.8734263,-5.397447 h -1.218369 c 0,2.226463 -1.644773,4.048096 -3.6550573,4.048096 -2.010286,0 -3.6550654,-1.821633 -3.6550654,-4.048096 z M 3.6550653,22 H 10.356012 V 20.650649 H 3.6550653 Z"
       style="fill:#cdd8e5;fill-opacity:0.403922;stroke-width:0.320536" />
    <path
       id="Microphone-s-7"
       class="st1"
       d="M 3.6550653,4.4582901 H 5.4825981 V 5.8076513 H 3.6550653 Z m 7.3101227,0 H 9.137662 v 1.3493612 h 1.827526 z M 3.6550653,8.5063745 H 5.4825981 V 7.1570146 H 3.6550653 Z M 10.965188,7.1570146 H 9.137662 v 1.3493599 h 1.827526 z M 3.6550653,11.205098 H 5.4825981 V 9.855747 H 3.6550653 Z M 10.965188,9.855747 H 9.137662 v 1.349351 h 1.827526 z m 1.218369,1.349351 c 0,2.968604 -2.19305,5.397447 -4.8734263,5.397447 h -0.609177 v 2.698728 C 6.7009537,20.785578 7.7974727,22 9.137662,22 h 1.827526 V 20.650649 H 9.137662 c -0.670091,0 -1.2183545,-0.607233 -1.2183545,-1.349376 v -1.383099 c 3.0763555,-0.337331 5.4825945,-3.204732 5.4825945,-6.713076 h 1.218364 V 9.855747 h -2.436709 z"
       style="fill:#eff0f1;fill-opacity:1;stroke-width:0.320536" />
  </g>
  <g
     id="microphone-sensitivity-muted"
     transform="translate(96.000004)">
    <path
       style="opacity:0.00100002;fill:#e5e9ef;fill-opacity:1"
       d="M 0,0 H 31.999997 V 32.000001 H 0 Z"
       id="path45" />
    <path
       id="Mute"
       class="st0"
       d="m 20.5,8.5 v 1.575 L 12.175,18.4 C 11.725,17.725 11.5,16.9 11.5,16 V 8.5 C 11.5,6.025 13.525,4 16,4 c 2.475,0 4.5,2.025 4.5,4.5 z M 16,22 c -1.275,0 -2.4375,-0.375 -3.375,-1.05 l -1.0875,1.0875 c 1.2375,0.9 2.775,1.4625 4.4625,1.4625 4.125,0 7.5,-3.375 7.5,-7.5 V 15.25 H 22 V 14.5 h -1.5 v -1.425 l -6.7875,6.7875 C 14.3875,20.275 15.175,20.5 16,20.5 c 2.475,0 4.5,-2.025 4.5,-4.5 H 22 c 0,3.3 -2.7,6 -6,6 z M 10,14.5 H 7 V 16 h 1.5 c 0,1.6875 0.5625,3.2625 1.5375,4.5375 L 11.125,19.45 C 10.4125,18.475 10,17.275 10,16 Z m 9.75,12 H 11.5 V 28 h 8.25 z"
       style="fill:#cdd8e5;fill-opacity:0.403922;stroke-width:0.375" />
    <path
       id="Mute-s"
       class="st1"
       d="M 25,6.55 8.05,23.5 7,22.45 23.95,5.5 Z M 22,16 c 0,3.3 -2.7,6 -6,6 h -0.75 v 3 c 0,1.65 1.35,3 3,3 h 2.25 v -1.5 h -2.25 c -0.825,0 -1.5,-0.675 -1.5,-1.5 V 23.4625 C 20.5375,23.0875 23.5,19.9 23.5,16 H 25 v -1.5 h -3 z"
       style="fill:#eff0f1;fill-opacity:1;stroke-width:0.375" />
  </g>
  <g
     id="22-22-microphone-sensitivity-low"
     transform="translate(64.000003,-22)">
    <path
       style="opacity:0.00100002;fill:#e5e9ef;fill-opacity:1"
       d="M 0,0 H 22 V 22 H 0 Z"
       id="path19" />
    <path
       id="Microphone-6-5"
       class="st0"
       d="M 3.655065,4.458087 C 3.655065,2.231638 5.299845,0.41 7.310131,0.41 c 2.010284,0 3.655057,1.821638 3.655057,4.048087 v 5.397458 h 1.218369 v 0.674683 h 1.218345 v 0.674666 c 0,3.710747 -2.74129,6.746823 -6.091771,6.746823 -3.350477,0 -6.091775,-3.036076 -6.091775,-6.746822 H 0 v -1.34935 h 2.43671 v 1.34935 c 0,2.968604 2.19304,5.397446 4.873421,5.397446 2.680376,0 4.873426,-2.428842 4.873426,-5.397446 h -1.218369 c 0,2.226464 -1.644773,4.048095 -3.655057,4.048095 -2.010286,0 -3.655066,-1.821631 -3.655066,-4.048095 z m 0,17.541709 h 6.700947 V 20.650445 H 3.655065 Z"
       style="fill:#cdd8e5;fill-opacity:0.403922;stroke-width:0.320536" />
    <path
       id="Microphone-s-7-3"
       class="st1"
       d="M 3.655065,4.458087 H 5.482598 V 5.807448 H 3.655065 Z m 7.310123,0 H 9.137662 v 1.349361 h 1.827526 z M 3.655065,8.506172 H 5.482598 V 7.156812 H 3.655065 Z m 7.310123,-1.34936 H 9.137662 v 1.34936 h 1.827526 z M 3.655065,11.204895 H 5.482598 V 9.855545 H 3.655065 Z m 7.310123,-1.34935 H 9.137662 v 1.34935 h 1.827526 z m 1.218369,1.34935 c 0,2.968604 -2.19305,5.397446 -4.873426,5.397446 H 6.700954 v 2.698728 c 0,1.484305 1.096519,2.698727 2.436708,2.698727 h 1.827526 V 20.650445 H 9.137662 c -0.670091,0 -1.218354,-0.607233 -1.218354,-1.349375 v -1.3831 c 3.076355,-0.33733 5.482594,-3.204732 5.482594,-6.713075 h 1.218364 v -1.34935 h -2.436709 z"
       style="fill:#eff0f1;fill-opacity:1;stroke-width:0.320536" />
    <path
       d="M 19.939046,2.6581681e-4 C 19.782381,-0.00443418 19.625693,0.05331582 19.485904,0.16371482 19.11382,0.4680738 19.01669,1.0722928 19.266569,1.5170918 c 1.480441,2.634462 1.480441,6.071059 0,8.7055632 -0.250643,0.444781 -0.152749,1.049225 0.219335,1.353338 0.372069,0.30014 0.874932,0.182714 1.128351,-0.262082 0.922348,-1.646047 1.385285,-3.5430272 1.385285,-5.4438292 0,-1.900776 -0.462937,-3.797742 -1.385285,-5.44383 C 20.457577,0.14866682 20.199102,2.4381681e-4 19.939046,2.6581681e-4 Z m 0,0"
       id="path1590-7-60"
       style="fill:#eff0f1;fill-opacity:0.5;stroke-width:0.860873" />
    <path
       d="m 17.121125,1.4648908 c 0.398404,-0.239314 0.896371,-0.07484 1.112088,0.367134 0.586585,1.202234 0.919346,2.578909 0.919346,4.039117 0,1.460252 -0.332761,2.836972 -0.919346,4.0391982 -0.215717,0.441988 -0.713684,0.606416 -1.112088,0.367132 -0.398553,-0.239348 -0.546756,-0.79177 -0.331045,-1.233791 0.459993,-0.9427472 0.721564,-2.0223802 0.721564,-3.1725392 0,-1.150132 -0.261571,-2.229786 -0.721564,-3.172494 -0.215711,-0.442066 -0.06738,-0.994443 0.331045,-1.233757 z"
       id="path2061-3-0-6"
       style="fill:#eff0f1;fill-opacity:0.5;stroke-width:1.15225" />
  </g>
  <g
     id="22-22-microphone-sensitivity-medium"
     transform="translate(32.000002,-22)">
    <path
       style="opacity:0.00100002;fill:#e5e9ef;fill-opacity:1"
       d="M 0,0 H 22 V 22 H 0 Z"
       id="path12" />
    <path
       id="Microphone-6-5-9"
       class="st0"
       d="M 3.655065,4.458087 C 3.655065,2.231638 5.299845,0.41 7.310131,0.41 c 2.010284,0 3.655057,1.821638 3.655057,4.048087 v 5.397457 h 1.218369 v 0.674685 h 1.218345 v 0.674666 c 0,3.710747 -2.74129,6.746823 -6.091771,6.746823 -3.350477,0 -6.091775,-3.036076 -6.091775,-6.746823 H 0 V 9.855544 h 2.43671 v 1.349351 c 0,2.968604 2.19304,5.397447 4.873421,5.397447 2.680376,0 4.873426,-2.428843 4.873426,-5.397447 h -1.218369 c 0,2.226463 -1.644773,4.048096 -3.655057,4.048096 -2.010286,0 -3.655066,-1.821633 -3.655066,-4.048096 z m 0,17.54171 h 6.700947 V 20.650446 H 3.655065 Z"
       style="fill:#cdd8e5;fill-opacity:0.403922;stroke-width:0.320536" />
    <path
       id="Microphone-s-7-3-3"
       class="st1"
       d="M 3.655065,4.458087 H 5.482598 V 5.807448 H 3.655065 Z m 7.310123,0 H 9.137662 v 1.349361 h 1.827526 z M 3.655065,8.506172 H 5.482598 V 7.156812 H 3.655065 Z m 7.310123,-1.34936 H 9.137662 v 1.34936 h 1.827526 z M 3.655065,11.204895 H 5.482598 V 9.855544 H 3.655065 Z M 10.965188,9.855544 H 9.137662 v 1.349351 h 1.827526 z m 1.218369,1.349351 c 0,2.968604 -2.19305,5.397447 -4.873426,5.397447 H 6.700954 v 2.698728 c 0,1.484305 1.096519,2.698727 2.436708,2.698727 h 1.827526 V 20.650446 H 9.137662 c -0.670091,0 -1.218354,-0.607233 -1.218354,-1.349376 v -1.383099 c 3.076355,-0.337331 5.482594,-3.204732 5.482594,-6.713076 h 1.218364 V 9.855544 h -2.436709 z"
       style="fill:#eff0f1;fill-opacity:1;stroke-width:0.320536" />
    <path
       d="M 19.939046,2.6581681e-4 C 19.782381,-0.00443418 19.625693,0.05331582 19.485904,0.16371482 19.11382,0.46807482 19.01669,1.0722928 19.266569,1.5170928 c 1.480441,2.634462 1.480441,6.071058 0,8.7055622 -0.250643,0.444781 -0.152749,1.049225 0.219335,1.353338 0.372069,0.30014 0.874932,0.182714 1.128351,-0.262082 0.922348,-1.646047 1.385285,-3.5430262 1.385285,-5.4438292 0,-1.900776 -0.462937,-3.797742 -1.385285,-5.44382898 C 20.457577,0.14866782 20.199102,2.4481681e-4 19.939046,2.6581681e-4 Z m 0,0"
       id="path1590-7-60-2"
       style="fill:#eff0f1;fill-opacity:0.50147492;stroke-width:0.860873" />
    <path
       d="m 17.121125,1.4648918 c 0.398404,-0.239314 0.896371,-0.07484 1.112088,0.367134 0.586585,1.202234 0.919346,2.578909 0.919346,4.039117 0,1.460252 -0.332761,2.836972 -0.919346,4.0391972 -0.215717,0.441988 -0.713684,0.606416 -1.112088,0.367133 -0.398553,-0.239348 -0.546756,-0.79177 -0.331045,-1.233791 0.459993,-0.9427472 0.721564,-2.0223802 0.721564,-3.1725392 0,-1.150132 -0.261571,-2.229786 -0.721564,-3.172494 -0.215711,-0.442066 -0.06738,-0.994443 0.331045,-1.233757 z"
       id="path2061-3-0-6-6"
       style="fill:#eff0f1;fill-opacity:1;stroke-width:1.15225" />
  </g>
  <g
     id="microphone-sensitivity-medium"
     transform="translate(32.000002)">
    <path
       style="opacity:0.00100002;fill:#e5e9ef;fill-opacity:1"
       d="M 0,0 H 32.000001 V 32.000001 H 0 Z"
       id="path31" />
    <path
       d="m 26.488797,3.5001972 c -0.190926,-0.0042 -0.381856,0.05876 -0.552263,0.18096 -0.453454,0.336961 -0.571831,1.005889 -0.267299,1.49833 1.804283,2.916683 1.804283,6.7214288 0,9.6381178 -0.305487,0.492441 -0.186155,1.161629 0.267299,1.498335 0.453458,0.33228 1.066341,0.20228 1.375173,-0.290166 C 28.435803,14.203384 29,12.103201 29,9.998798 29,7.8944052 28.435803,5.7942262 27.311707,3.9718162 c -0.19093,-0.30732 -0.505963,-0.47164 -0.82291,-0.471619 z m 0,0"
       id="path1590-1-2"
       style="fill:#eff0f1;fill-opacity:0.49852508" />
    <path
       d="m 22.524188,5.1217112 c 0.485567,-0.264946 1.092451,-0.083 1.355356,0.406461 0.714889,1.331009 1.120457,2.855157 1.120457,4.4718098 0,1.616649 -0.405568,3.140862 -1.120457,4.471862 -0.262905,0.489349 -0.869789,0.67141 -1.355356,0.406447 -0.485689,-0.264965 -0.666337,-0.876586 -0.403433,-1.365936 0.56062,-1.043728 0.8794,-2.239023 0.8794,-3.512373 0,-1.2733568 -0.31878,-2.4686508 -0.8794,-3.5123398 -0.262904,-0.489426 -0.08226,-1.100978 0.403433,-1.365931 z"
       id="path2061-3-8-0"
       style="fill:#eff0f1;fill-opacity:1;stroke-width:1.33844" />
    <path
       id="Microphone-7-2"
       class="st0"
       d="m 7.5,8.4999952 c 0,-2.475 2.025,-4.5 4.5,-4.5 2.475,0 4.5,2.025 4.5,4.5 V 14.499995 H 18 v 0.75 h 1.5 v 0.75 c 0,4.125 -3.375,7.5 -7.5,7.5 -4.125,0 -7.5,-3.375 -7.5,-7.5 H 3 v -1.5 h 3 v 1.5 c 0,3.3 2.7,6 6,6 3.3,0 6,-2.7 6,-6 h -1.5 c 0,2.475 -2.025,4.5 -4.5,4.5 -2.475,0 -4.5,-2.025 -4.5,-4.5 z m 0,19.4999998 h 8.25 v -1.5 H 7.5 Z"
       style="fill:#cdd8e5;fill-opacity:0.403922;stroke-width:0.375" />
    <path
       id="Microphone-s-9-3"
       class="st1"
       d="M 7.5,8.4999952 H 9.75 V 9.999995 H 7.5 Z m 9,0 H 14.25 V 9.999995 h 2.25 z m -9,4.4999998 h 2.25 v -1.5 H 7.5 Z m 9,-1.5 h -2.25 v 1.5 h 2.25 z m -9,4.5 h 2.25 v -1.5 H 7.5 Z m 9,-1.5 h -2.25 v 1.5 h 2.25 z m 1.5,1.5 c 0,3.3 -2.7,6 -6,6 h -0.75 v 3 c 0,1.65 1.35,3 3,3 h 2.25 v -1.5 h -2.25 c -0.825,0 -1.5,-0.675 -1.5,-1.5 v -1.5375 c 3.7875,-0.375 6.75,-3.5625 6.75,-7.4625 H 21 v -1.5 h -3 z"
       style="fill:#eff0f1;fill-opacity:1;stroke-width:0.375" />
  </g>
</svg>
