<?xml version="1.0" encoding="UTF-8" standalone="no"?>
<svg
   width="32"
   height="32"
   version="1.1"
   id="svg12"
   sodipodi:docname="nepomuk.svg"
   inkscape:version="1.2.2 (b0a8486541, 2022-12-01)"
   xmlns:inkscape="http://www.inkscape.org/namespaces/inkscape"
   xmlns:sodipodi="http://sodipodi.sourceforge.net/DTD/sodipodi-0.dtd"
   xmlns="http://www.w3.org/2000/svg"
   xmlns:svg="http://www.w3.org/2000/svg"
   xmlns:rdf="http://www.w3.org/1999/02/22-rdf-syntax-ns#"
   xmlns:cc="http://creativecommons.org/ns#"
   xmlns:dc="http://purl.org/dc/elements/1.1/">
  <g
     id="22-22-nepomuk"
     transform="translate(32.000002,10.000001)">
    <path
       style="opacity:0.00100002"
       d="M 0,0 V 22 H 22 V 0 Z"
       id="path2" />
    <path
       id="Zoom-3"
       class="st0"
       d="m 18.418977,15.57009 -3.14877,-3.12378 C 15.745022,11.571652 15.994925,10.572042 15.994925,9.497462 15.994925,5.898867 13.096056,3 9.497463,3 5.898867,3 3,5.898867 3,9.497462 c 0,3.598594 2.898867,6.497462 6.497463,6.497462 2.14916,0 4.048418,-1.04959 5.24795,-2.673955 l 0.849667,0.849668 -1.424443,1.424443 2.12417,2.12417 c 0.574775,0.574776 1.524404,0.574776 2.12417,0 0.574776,-0.599765 0.574776,-1.549395 0,-2.14916 z M 9.497463,13.995705 c -2.474034,0 -4.498244,-2.02421 -4.498244,-4.498243 0,-2.474033 2.02421,-4.498243 4.498244,-4.498243 2.474032,0 4.498242,2.02421 4.498242,4.498243 0,2.474033 -2.02421,4.498243 -4.498242,4.498243 z"
       style="clip-rule:evenodd;fill:#cdd8e5;fill-opacity:0.40392157;fill-rule:evenodd;stroke-width:0.249903" />
    <path
       id="Zoom-s-6"
       class="st1"
       d="m 16.294807,13.47091 2.12417,2.12417 c 0.774697,0.774697 0.774697,2.049199 0,2.823897 -0.774698,0.774697 -2.0492,0.774697 -2.823897,0 l -1.424443,-1.424444 0.699726,-0.699726 1.424444,1.424443 c 0.399844,0.399844 1.0246,0.399844 1.424443,0 0.399844,-0.399843 0.399844,-1.024599 0,-1.424443 l -2.12417,-2.12417 z M 7.023429,7.023429 c -0.649747,0.649746 -1.0246,1.549394 -1.0246,2.474033 h 0.99961 c 0,-1.374463 1.12456,-2.499024 2.499024,-2.499024 V 5.998829 c -0.924639,0 -1.824288,0.374853 -2.474034,1.0246 z m 7.721984,6.29754 c 0.899648,-1.224522 1.349472,-2.748927 1.22452,-4.273331 -0.09996,-1.574385 -0.774696,-3.048809 -1.899257,-4.14838 l -0.699727,0.699727 c 0.99961,0.999609 1.599375,2.374072 1.599375,3.898477 0,1.149551 -0.349863,2.224131 -0.974619,3.12378 z"
       style="clip-rule:evenodd;fill:#eff0f1;fill-opacity:1;fill-rule:evenodd;stroke-width:0.249903" />
  </g>
  <g
     id="nepomuk">
    <path
       style="opacity:0.00100002"
       d="M -5.0000001e-7,-1e-6 V 32 H 32 V -1e-6 Z"
       id="path7" />
    <path
       id="Zoom"
       class="st0"
       d="m 27.128465,22.855135 -4.723155,-4.68567 c 0.712223,-1.311987 1.087077,-2.811402 1.087077,-4.423272 C 23.492387,8.348301 19.144084,4 13.746194,4 8.348301,4 4,8.348301 4,13.746193 c 0,5.397891 4.348301,9.746193 9.746194,9.746193 3.22374,0 6.072627,-1.574385 7.871925,-4.010933 l 1.274501,1.274502 -2.136665,2.136665 3.186256,3.186255 c 0.862162,0.862164 2.286606,0.862164 3.186254,0 0.862164,-0.899648 0.862164,-2.324092 0,-3.22374 z M 13.746194,20.493557 c -3.711051,0 -6.747365,-3.036314 -6.747365,-6.747364 0,-3.71105 3.036314,-6.747364 6.747365,-6.747364 3.711049,0 6.747364,3.036314 6.747364,6.747364 0,3.71105 -3.036315,6.747364 -6.747364,6.747364 z"
       style="clip-rule:evenodd;fill:#cdd8e5;fill-opacity:0.40392157;fill-rule:evenodd;stroke-width:0.374854" />
    <path
       id="Zoom-s"
       class="st1"
       d="m 23.942211,19.706365 3.186254,3.186255 c 1.162047,1.162046 1.162047,3.073799 0,4.235845 -1.162046,1.162047 -3.073799,1.162047 -4.235845,0 l -2.136665,-2.136665 1.04959,-1.04959 2.136665,2.136665 c 0.599766,0.599766 1.5369,0.599766 2.136665,0 0.599766,-0.599765 0.599766,-1.536899 0,-2.136665 L 22.89262,20.755955 Z M 10.035143,10.035143 c -0.97462,0.974619 -1.5369,2.324092 -1.5369,3.71105 h 1.499415 c 0,-2.061695 1.686841,-3.748536 3.748536,-3.748536 V 8.498243 c -1.386958,0 -2.736431,0.56228 -3.711051,1.5369 z m 11.582976,9.44631 c 1.349473,-1.836783 2.024208,-4.12339 1.836781,-6.409996 -0.14994,-2.361578 -1.162045,-4.573214 -2.848886,-6.22257 l -1.049591,1.04959 c 1.499415,1.4994142 2.399063,3.561109 2.399063,5.847716 0,1.724326 -0.524794,3.336197 -1.461928,4.68567 z"
       style="clip-rule:evenodd;fill:#eff0f1;fill-opacity:1;fill-rule:evenodd;stroke-width:0.374854" />
  </g>
  <metadata
     id="metadata18">
    <rdf:RDF>
      <cc:Work
         rdf:about="">
        <dc:format>image/svg+xml</dc:format>
        <dc:type
           rdf:resource="http://purl.org/dc/dcmitype/StillImage" />
      </cc:Work>
    </rdf:RDF>
  </metadata>
  <defs
     id="defs16" />
  <sodipodi:namedview
     pagecolor="#b3b3b3"
     bordercolor="#666666"
     borderopacity="1"
     objecttolerance="10"
     gridtolerance="10"
     guidetolerance="10"
     inkscape:pageopacity="0"
     inkscape:pageshadow="2"
     inkscape:window-width="1920"
     inkscape:window-height="1000"
     id="namedview14"
     showgrid="false"
     inkscape:zoom="9.8125"
     inkscape:cx="10.343949"
     inkscape:cy="16.152866"
     inkscape:window-x="0"
     inkscape:window-y="0"
     inkscape:window-maximized="1"
     inkscape:current-layer="svg12"
     inkscape:document-rotation="0"
     inkscape:pagecheckerboard="0"
     inkscape:lockguides="true"
     inkscape:showpageshadow="false"
     inkscape:deskcolor="#b3b3b3"
     shape-rendering="crispEdges">
    <inkscape:grid
       type="xygrid"
       id="grid1043"
       originx="5.0000001e-07"
       originy="1e-06" />
  </sodipodi:namedview>
</svg>
