<?xml version="1.0" encoding="UTF-8" standalone="no"?>
<svg
   width="22"
   height="22"
   version="1.1"
   id="svg9"
   sodipodi:docname="notifications.svg"
   inkscape:version="1.1.2 (0a00cf5339, 2022-02-04)"
   xmlns:inkscape="http://www.inkscape.org/namespaces/inkscape"
   xmlns:sodipodi="http://sodipodi.sourceforge.net/DTD/sodipodi-0.dtd"
   xmlns="http://www.w3.org/2000/svg"
   xmlns:svg="http://www.w3.org/2000/svg"
   xmlns:rdf="http://www.w3.org/1999/02/22-rdf-syntax-ns#"
   xmlns:cc="http://creativecommons.org/ns#"
   xmlns:dc="http://purl.org/dc/elements/1.1/">
  <metadata
     id="metadata15">
    <rdf:RDF>
      <cc:Work
         rdf:about="">
        <dc:format>image/svg+xml</dc:format>
        <dc:type
           rdf:resource="http://purl.org/dc/dcmitype/StillImage" />
      </cc:Work>
    </rdf:RDF>
  </metadata>
  <defs
     id="defs13" />
  <sodipodi:namedview
     pagecolor="#b2b2b2"
     bordercolor="#000000"
     borderopacity="1"
     objecttolerance="10"
     gridtolerance="10"
     guidetolerance="10"
     inkscape:pageopacity="0"
     inkscape:pageshadow="2"
     inkscape:window-width="1920"
     inkscape:window-height="1015"
     id="namedview11"
     showgrid="false"
     inkscape:zoom="10.092342"
     inkscape:cx="7.1836646"
     inkscape:cy="13.723277"
     inkscape:window-x="0"
     inkscape:window-y="0"
     inkscape:window-maximized="1"
     inkscape:current-layer="svg9"
     inkscape:document-rotation="0"
     inkscape:showpageshadow="false"
     inkscape:lockguides="true"
     inkscape:pagecheckerboard="0">
    <inkscape:grid
       type="xygrid"
       id="grid855" />
  </sodipodi:namedview>
  <g
     id="notifications-disabled">
    <path
       style="opacity:0.00100002"
       d="M 0,0 H 22 V 22 H 0 Z"
       id="path2" />
    <path
       id="Bell"
       class="st0"
       d="M 7.28281,7.8125 C 7.65469,7.175 8.18594,6.61719 8.85,6.24531 L 9.38125,7.175 C 8.425,7.73281 7.7875,8.76875 7.7875,9.9375 H 6.725 C 6.725,9.19375 6.91094,8.45 7.28281,7.8125 Z M 5.6625,9.9375 c 0,-2.92188 2.39063,-5.3125 5.3125,-5.3125 2.92188,0 5.3125,2.39062 5.3125,5.3125 v 7.96875 H 4.6 v -1.0625 h 10.625 v -1.0625 H 5.6625 Z"
       style="clip-rule:evenodd;fill:#bf616a;fill-opacity:1;fill-rule:evenodd;stroke-width:0.265625" />
    <path
       id="Bell-s"
       class="st1"
       d="M 8.85,4.625 C 8.85,3.45625 9.80625,2.5 10.975,2.5 h 0.53125 V 3.5625 H 10.975 c -0.58438,0 -1.0625,0.47812 -1.0625,1.0625 V 4.73125 C 9.54062,4.81095 9.19531,4.91719 8.85,5.07656 Z m 5.87031,1.56719 -0.74375,0.74375 C 14.74687,7.70625 15.225,8.76875 15.225,9.9375 v 5.84375 h 1.0625 V 9.9375 c 0,-0.69062 -0.13281,-1.38125 -0.39844,-2.04531 -0.26562,-0.6375 -0.66406,-1.22188 -1.16875,-1.7 z M 17.35,17.90625 v -1.0625 h -2.125 v 1.0625 z m -4.78125,0 h -3.1875 c 0,0.87656 0.71719,1.59375 1.59375,1.59375 0.87656,0 1.59375,-0.71719 1.59375,-1.59375 z"
       style="fill:#eff0f1;fill-opacity:1;stroke-width:0.265625" />
  </g>
</svg>
