<?xml version="1.0" encoding="UTF-8" standalone="no"?>
<svg
   width="32"
   height="32"
   version="1.1"
   id="svg12"
   sodipodi:docname="nulloy.svg"
   inkscape:version="1.2.2 (b0a8486541, 2022-12-01)"
   xmlns:inkscape="http://www.inkscape.org/namespaces/inkscape"
   xmlns:sodipodi="http://sodipodi.sourceforge.net/DTD/sodipodi-0.dtd"
   xmlns="http://www.w3.org/2000/svg"
   xmlns:svg="http://www.w3.org/2000/svg">
  <g
     id="22-22-nulloy">
    <rect
       style="opacity:0.00100002;fill:#d3dae3;fill-opacity:1"
       width="22"
       height="22"
       x="32"
       y="10"
       id="rect2" />
    <path
       id="Page_1_-0"
       class="st0  ColorScheme-Highlight "
       d="m 46.5,16 v 0 l -1,-1 v 0 H 38.500001 V 28 H 47 c 1.375,0 2.5,-1.125 2.5,-2.5 V 19 Z m -6,1.5 z m 0,2.5 z m 0,5 z m 0,-2.5 z"
       sodipodi:nodetypes="ccccccsscccccccccccccccccccccc"
       style="color:#cdd8e5;fill:#cdd8e5;fill-opacity:0.403922;stroke-width:0.25" />
    <path
       id="Page-s-2"
       class="st1  ColorScheme-Text "
       d="m 47.366667,19 h 2.133332 v 7 c 0,1.65 -1.35,3 -2.999999,3 H 39.500001 V 28 H 46.5 c 1.1,0 2,-0.900001 2,-2 V 20 H 47.366667 Z M 36.500001,15 c 0,-1.1 0.9,-2 2,-2 H 43.5 v 1 h -4.999999 c -0.55,0 -1,0.45 -1,1 v 8.5 h -1 z"
       style="color:#eff0f1;fill:currentColor;fill-opacity:1;stroke-width:0.25"
       sodipodi:nodetypes="ccssccsscccssccssccs" />
    <path
       style="color:#eff0f1;fill:#eff0f1;fill-opacity:1;stroke-width:0.328627"
       d="m 39.382152,17.5 0.0076,0.05469 c 0.188369,1.284372 0.296533,2.344241 0.436639,2.988287 0.14012,0.644025 0.314396,1.027704 0.641674,1.240229 0.327272,0.212515 0.793412,0.248835 1.510214,0.225578 0.716798,-0.02325 1.68651,-0.207603 3.025141,-0.25 l 0.04367,-0.0017 -0.0058,-0.04297 c -0.126046,-0.986324 -0.168037,-1.720772 -0.25338,-2.213131 -0.08534,-0.492366 -0.218926,-0.799624 -0.52492,-1.007806 -0.306,-0.208184 -0.774584,-0.317704 -1.535837,-0.445311 -0.761226,-0.12761 -1.816212,-0.27167 -3.292821,-0.538087 z m 6.414807,0 c -0.535136,0 -0.971998,0.446571 -0.971998,1 0,0.553489 0.436865,0.999999 0.971998,0.999999 0.535128,0 0.971996,-0.44651 0.971996,-0.999999 0,-0.553429 -0.436863,-1 -0.971996,-1 z m 1.570004,1.764651 -0.07878,0.04782 c -0.63057,0.387905 -1.096539,0.457458 -1.457048,0.661136 -0.180263,0.101838 -0.332951,0.239024 -0.457521,0.462883 -0.124579,0.223864 -0.222319,0.532963 -0.30091,0.983399 l -0.01141,0.06933 0.06265,-0.0244 c 0.978819,-0.376902 1.413805,-0.410139 1.677264,-0.606446 0.131721,-0.09815 0.212901,-0.236902 0.287613,-0.466795 0.07471,-0.229891 0.144684,-0.553688 0.256283,-1.035157 z m -0.08068,1.685548 -0.104414,0.03513 c -1.045987,0.359078 -1.474685,0.462366 -1.694361,0.62695 -0.109834,0.08231 -0.162127,0.18263 -0.202185,0.324226 -0.04006,0.141598 -0.07118,0.327999 -0.143327,0.599603 l -0.01714,0.06348 0.06265,-0.01467 c 0.633463,-0.143816 0.925207,-0.17821 1.172282,-0.357417 0.247075,-0.179207 0.434342,-0.491951 0.866636,-1.18261 z m -2.20978,1.01952 -0.05316,0.004 c -1.590894,0.0853 -2.419297,0.09617 -2.971049,0.45898 -0.275862,0.1814 -0.475588,0.474859 -0.657803,0.947272 -0.182227,0.472407 -0.349648,0.960422 -0.562889,1.873046 l -0.01518,0.0664 0.0636,-0.01956 c 0.949476,-0.286983 1.623023,-0.411055 2.114844,-0.492188 0.49183,-0.08113 0.803517,-0.11739 1.034648,-0.238282 0.231138,-0.120889 0.370752,-0.326957 0.50973,-0.72168 0.138981,-0.394724 0.28136,-0.917527 0.523024,-1.824218 z m 1.909826,0.03809 c -0.467204,0.504296 -0.866031,0.59547 -1.175138,0.707032 -0.154547,0.05579 -0.288928,0.117736 -0.390117,0.241208 -0.101191,0.123486 -0.166284,0.304264 -0.191751,0.590818 l -0.004,0.04982 0.04746,-0.0059 c 0.568187,-0.07565 0.887104,-0.1341 1.128625,-0.34277 0.241519,-0.20868 0.395386,-0.556779 0.648312,-1.198242 z m -5.72852,0.943357 -0.06929,0.01859 c -0.721426,0.185939 -1.054158,0.413826 -1.260559,0.790998 -0.206406,0.377156 -0.289403,0.892182 -0.53726,1.665036 l -0.0237,0.07422 0.07309,-0.02539 c 0.327507,-0.111417 0.559772,-0.191902 0.737542,-0.283206 0.177775,-0.09128 0.30141,-0.19482 0.401519,-0.348627 0.200214,-0.307593 0.312526,-0.803828 0.654957,-1.823233 z m 5.575693,0.451176 -0.07024,0.02739 c -0.579013,0.226804 -0.89691,0.328086 -1.070721,0.483386 -0.0869,0.07766 -0.134959,0.17126 -0.151871,0.291018 -0.01696,0.11976 -0.0059,0.128588 0.01713,0.323248 l 0.0047,0.04495 0.04275,-0.01075 c 0.197625,-0.05141 0.341269,-0.05103 0.456575,-0.0459 0.115307,0.0052 0.20593,0.0182 0.29046,-0.02251 0.08453,-0.04069 0.149096,-0.131466 0.217371,-0.30664 0.06828,-0.175187 0.142132,-0.303362 0.244899,-0.709962 z"
       id="path9-6-9-2-3"
       class="ColorScheme-Text" />
  </g>
  <style
     id="current-color-scheme"
     type="text/css">.ColorScheme-Text { color:#eff0f1; }
</style>
  <defs
     id="defs16" />
  <sodipodi:namedview
     id="namedview14"
     pagecolor="#b2b2b2"
     bordercolor="#000000"
     borderopacity="1"
     inkscape:showpageshadow="false"
     inkscape:pageopacity="0"
     inkscape:pagecheckerboard="0"
     inkscape:deskcolor="#b2b2b2"
     showgrid="false"
     inkscape:zoom="10.429825"
     inkscape:cx="-1.0067283"
     inkscape:cy="25.455844"
     inkscape:window-width="1920"
     inkscape:window-height="1000"
     inkscape:window-x="0"
     inkscape:window-y="0"
     inkscape:window-maximized="1"
     inkscape:current-layer="svg12"
     showguides="false">
    <inkscape:grid
       type="xygrid"
       id="grid559"
       originx="0"
       originy="0" />
  </sodipodi:namedview>
  <g
     id="nulloy">
    <rect
       style="opacity:0.00100002;fill:#d3dae3;fill-opacity:1"
       width="32"
       height="32"
       x="0"
       y="0"
       id="rect7" />
    <path
       id="Page_1_"
       class="st0  ColorScheme-Highlight "
       d="m 21.249999,8.4999999 v 0 l -1.5,-1.5 v 0 H 9.2500007 V 26.5 H 22 c 2.0625,0 3.75,-1.6875 3.75,-3.75 V 13 Z M 12.25,10.75 Z m 0,3.75 z m 0,7.5 z m 0,-3.75 z"
       sodipodi:nodetypes="ccccccsscccccccccccccccccccccc"
       style="color:#cdd8e5;fill:#cdd8e5;fill-opacity:0.403922;stroke-width:0.375" />
    <path
       id="Page-s"
       class="st1  ColorScheme-Text "
       d="m 22.55,13 h 3.199999 v 10.5 c 0,2.475 -2.024999,4.5 -4.5,4.5 H 10.750001 V 26.5 H 21.25 c 1.649999,0 3,-1.350001 3,-3 v -9 h -1.7 z M 6.2500007,6.9999999 c 0,-1.65 1.35,-3 3,-3 h 7.4999983 v 1.5 H 9.2500007 c -0.825,0 -1.5,0.675 -1.5,1.5 V 19.75 h -1.5 z"
       style="color:#eff0f1;fill:currentColor;fill-opacity:1;stroke-width:0.375"
       sodipodi:nodetypes="ccssccsscccssccssccs" />
    <path
       style="color:#eff0f1;fill:#eff0f1;fill-opacity:1;stroke-width:0.478347"
       d="m 11.021408,11 0.01074,0.08203 c 0.26607,1.926558 0.418853,3.516362 0.616755,4.482431 0.197918,0.966037 0.444087,1.541556 0.906369,1.860343 0.462274,0.318773 1.120697,0.373253 2.133185,0.338367 1.012481,-0.03488 2.382204,-0.311404 4.273029,-0.375 l 0.06168,-0.0026 -0.008,-0.06445 C 18.836941,15.841636 18.777623,14.739964 18.657076,14.001425 18.536535,13.262876 18.347846,12.801989 17.915627,12.489716 17.4834,12.17744 16.82152,12.01316 15.746248,11.821749 14.671007,11.630335 13.180837,11.414244 11.095114,11.014619 Z m 9.06095,0 c -0.755882,0 -1.372952,0.669856 -1.372952,1.5 0,0.830234 0.617075,1.499999 1.372952,1.499999 0.755872,0 1.37295,-0.669765 1.37295,-1.499999 0,-0.830144 -0.617068,-1.5 -1.37295,-1.5 z M 22.3,13.646976 l -0.111276,0.07173 c -0.890685,0.581858 -1.548867,0.686188 -2.05809,0.991704 -0.254625,0.152757 -0.470295,0.358536 -0.646252,0.694325 -0.175971,0.335796 -0.314027,0.799444 -0.42504,1.475098 l -0.01613,0.103999 0.08851,-0.0366 c 1.382591,-0.565353 1.997006,-0.615208 2.369146,-0.909668 0.186054,-0.14723 0.300724,-0.355353 0.406257,-0.700192 0.105525,-0.344837 0.204362,-0.830532 0.361999,-1.552736 z m -0.11396,2.528322 -0.147484,0.05269 c -1.477461,0.538617 -2.083006,0.693549 -2.393298,0.940425 -0.155141,0.123459 -0.229003,0.273945 -0.285584,0.486339 -0.05659,0.212397 -0.100547,0.491999 -0.202453,0.899405 l -0.02423,0.09522 0.08851,-0.02201 c 0.894771,-0.215725 1.306861,-0.267315 1.655859,-0.536126 0.348991,-0.26881 0.613508,-0.737926 1.224129,-1.773915 z m -3.121327,1.52928 -0.07511,0.006 c -2.247144,0.127947 -3.417271,0.14425 -4.196624,0.68847 -0.389658,0.2721 -0.671769,0.712289 -0.929154,1.420908 -0.257395,0.708611 -0.493877,1.440633 -0.795082,2.809569 l -0.02144,0.0996 0.08982,-0.02934 c 1.341142,-0.430474 2.29253,-0.616582 2.987232,-0.738281 0.694712,-0.121694 1.134972,-0.176085 1.461445,-0.357424 0.326481,-0.181333 0.523688,-0.490435 0.719997,-1.08252 0.196312,-0.592086 0.397423,-1.37629 0.738773,-2.736326 z m 2.69764,0.05713 c -0.659928,0.756444 -1.223276,0.893205 -1.659891,1.060549 -0.218297,0.08368 -0.40811,0.176603 -0.55104,0.361811 -0.142932,0.18523 -0.234879,0.456396 -0.270848,0.886227 l -0.0057,0.07473 0.06706,-0.0088 c 0.802567,-0.113474 1.253039,-0.20115 1.594189,-0.514155 0.341147,-0.313019 0.558486,-0.835168 0.915744,-1.797362 z m -8.09157,1.415036 -0.09787,0.02788 c -1.019018,0.278908 -1.489005,0.620738 -1.780548,1.186497 -0.291551,0.565734 -0.408782,1.338272 -0.758882,2.497553 L 11,23 11.103232,22.96191 c 0.46261,-0.167124 0.790682,-0.287853 1.041784,-0.424808 0.251109,-0.13692 0.425742,-0.292231 0.567148,-0.522941 0.282802,-0.46139 0.441447,-1.205742 0.925131,-2.734849 z m 7.8757,0.676764 -0.09921,0.04108 c -0.817858,0.340206 -1.266887,0.492129 -1.512399,0.725079 -0.122742,0.116486 -0.190631,0.25689 -0.214514,0.436527 -0.02397,0.179639 -0.0081,0.192882 0.02421,0.484871 l 0.0063,0.06742 0.06041,-0.01612 c 0.279147,-0.07711 0.482047,-0.07655 0.644916,-0.06885 0.162872,0.0078 0.290876,0.0273 0.410277,-0.03376 0.119401,-0.06104 0.210599,-0.197198 0.307038,-0.45996 0.09646,-0.26278 0.200762,-0.455042 0.34592,-1.064943 z"
       id="path9-6-9-2"
       class="ColorScheme-Text" />
  </g>
</svg>
