<?xml version="1.0" encoding="UTF-8" standalone="no"?>
<svg
   width="32"
   height="32"
   version="1.1"
   id="svg3204"
   sodipodi:docname="office.svg"
   inkscape:version="1.2.2 (b0a8486541, 2022-12-01)"
   xmlns:inkscape="http://www.inkscape.org/namespaces/inkscape"
   xmlns:sodipodi="http://sodipodi.sourceforge.net/DTD/sodipodi-0.dtd"
   xmlns="http://www.w3.org/2000/svg"
   xmlns:svg="http://www.w3.org/2000/svg">
  <sodipodi:namedview
     id="namedview3206"
     pagecolor="#b2b2b2"
     bordercolor="#000000"
     borderopacity="1"
     inkscape:showpageshadow="false"
     inkscape:pageopacity="0"
     inkscape:pagecheckerboard="0"
     inkscape:deskcolor="#b2b2b2"
     showgrid="false"
     inkscape:zoom="10.429825"
     inkscape:cx="-13.279226"
     inkscape:cy="8.1017658"
     inkscape:window-width="1920"
     inkscape:window-height="1000"
     inkscape:window-x="0"
     inkscape:window-y="0"
     inkscape:window-maximized="1"
     inkscape:current-layer="svg3204">
    <inkscape:grid
       type="xygrid"
       id="grid3410" />
  </sodipodi:namedview>
  <defs
     id="defs199">
    <style
       id="current-color-scheme"
       type="text/css">.ColorScheme-Background { color:#181818; }
.ColorScheme-ButtonBackground { color:#343434; }
.ColorScheme-Highlight { color:#cdd8e5; }
.ColorScheme-Text { color:#eff0f1; }
.ColorScheme-ViewBackground { color:#242424; }
.ColorScheme-NegativeText { color:#f44336; }
.ColorScheme-PositiveText { color:#4caf50; }
.ColorScheme-NeutralText { color:#ff9800; }
</style>
  </defs>
  <g
     id="office-chart-pie">
    <rect
       style="opacity:0.00100002"
       width="32"
       height="32"
       x="0"
       y="0"
       id="rect3197" />
    <path
       id="Star"
       class="st0  ColorScheme-Highlight"
       d="m 16.001367,4 2.999658,8.25 H 28 l -7.424154,5.6625 3.224632,8.8875 -5.624359,-4.05 c -1.31235,-0.9375 -3.07465,-0.9375 -4.349504,0 L 8.5772126,26.5 Z"
       style="fill:#cdd8e5;fill-opacity:0.40392157;stroke-width:0.374979" />
    <path
       id="Star-s"
       class="st1  ColorScheme-Text"
       d="M 10.939443,19.4125 4.6401612,14.9875 C 3.4402979,14.125 4.0402295,12.25 5.5025629,12.25 H 10.00205 v 1.5 H 5.5025629 l 5.9243251,4.1625 z M 10.26452,25.3 l 0.862402,1.2 3.562094,-2.55 c 0.787411,-0.5625 1.837291,-0.5625 2.624701,0 l 5.661855,4.05 0.862402,-1.2 v 0 0 l -5.661855,-4.05 c -1.31235,-0.9375 -3.07465,-0.9375 -4.349504,0 z M 21.100786,19.3 28,14.125 l -0.899898,-1.2 -6.524256,4.9875 z"
       style="fill:currentColor;fill-opacity:1;stroke-width:0.374979" />
  </g>
</svg>
