<?xml version="1.0" encoding="UTF-8" standalone="no"?>
<svg
   id="svg4153"
   version="1.1"
   width="22"
   height="22"
   viewBox="0 0 22 22"
   sodipodi:docname="pamac.svg"
   inkscape:version="1.1.2 (0a00cf5339, 2022-02-04)"
   xmlns:inkscape="http://www.inkscape.org/namespaces/inkscape"
   xmlns:sodipodi="http://sodipodi.sourceforge.net/DTD/sodipodi-0.dtd"
   xmlns="http://www.w3.org/2000/svg"
   xmlns:svg="http://www.w3.org/2000/svg"
   xmlns:rdf="http://www.w3.org/1999/02/22-rdf-syntax-ns#"
   xmlns:cc="http://creativecommons.org/ns#"
   xmlns:dc="http://purl.org/dc/elements/1.1/">
  <sodipodi:namedview
     pagecolor="#b2b2b2"
     bordercolor="#000000"
     borderopacity="1"
     objecttolerance="10"
     gridtolerance="10"
     guidetolerance="10"
     inkscape:pageopacity="0"
     inkscape:pageshadow="2"
     inkscape:window-width="1920"
     inkscape:window-height="1007"
     id="namedview9"
     showgrid="false"
     inkscape:zoom="10.727273"
     inkscape:cx="18.597457"
     inkscape:cy="14.635593"
     inkscape:window-x="0"
     inkscape:window-y="0"
     inkscape:window-maximized="1"
     inkscape:current-layer="svg4153"
     inkscape:document-rotation="0"
     inkscape:showpageshadow="false"
     inkscape:lockguides="true"
     inkscape:pagecheckerboard="0">
    <inkscape:grid
       type="xygrid"
       id="grid887"
       originx="0"
       originy="0" />
  </sodipodi:namedview>
  <metadata
     id="metadata4159">
    <rdf:RDF>
      <cc:Work
         rdf:about="">
        <dc:format>image/svg+xml</dc:format>
        <dc:type
           rdf:resource="http://purl.org/dc/dcmitype/StillImage" />
      </cc:Work>
    </rdf:RDF>
  </metadata>
  <defs
     id="defs4157">
    <style
       type="text/css"
       id="current-color-scheme" />
  </defs>
  <g
     id="pamac-tray-update">
    <rect
       y="0"
       x="0"
       height="22"
       width="22"
       id="rect4183"
       style="fill:none;fill-opacity:1;stroke:none;stroke-width:0.1;stroke-linecap:square;stroke-linejoin:miter;stroke-miterlimit:4;stroke-dasharray:none;stroke-dashoffset:0;stroke-opacity:1" />
    <polygon
       id="Arrow-Down-367"
       class="st0"
       points="44,28 60,28 32,56 4,28 20,28 20,4 40,4 40,0 44,0 "
       transform="matrix(-0.24961017,0,0,-0.24961017,18.97661,19.000007)"
       style="fill:#bf616a;fill-opacity:1" />
    <path
       id="ArrowDown-s-5"
       class="st1"
       d="M 7.993763,11.992195 V 17.98286 H 8.9922034 V 11.992195 Z M 14.982848,6.1513513 12.411863,3.5803654 c -0.773791,-0.7738205 -2.046804,-0.7738205 -2.820595,0 L 6.9953225,6.1762962 7.6942309,6.8752064 10.290177,4.3042206 c 0.399376,-0.3993827 1.023401,-0.3993827 1.422777,0 l 2.570986,2.5709858 z"
       style="clip-rule:evenodd;fill:#eff0f1;fill-opacity:1;fill-rule:evenodd;stroke-width:0.24961" />
  </g>
  <g
     id="pamac-tray-no-update"
     transform="translate(22)">
    <rect
       style="fill:none;fill-opacity:1;stroke:none;stroke-width:0.1;stroke-linecap:square;stroke-linejoin:miter;stroke-miterlimit:4;stroke-dasharray:none;stroke-dashoffset:0;stroke-opacity:1"
       id="rect855"
       width="22"
       height="22"
       x="0"
       y="0" />
    <polygon
       id="Arrow-Down-367-3"
       class="st0"
       points="44,0 44,28 60,28 32,56 4,28 20,28 20,4 40,4 40,0 "
       transform="matrix(-0.24961017,0,0,-0.24961017,18.97661,19.000007)"
       style="fill:#cdd8e5;fill-opacity:0.40392157" />
    <path
       id="ArrowDown-s-5-6"
       class="st1"
       d="M 7.9937651,11.992195 V 17.98286 H 8.9922052 V 11.992195 Z M 14.982848,6.1513513 12.411863,3.580365 c -0.773791,-0.77382 -2.046804,-0.77382 -2.820594,0 L 6.9953247,6.1762962 7.694233,6.8752064 10.290177,4.3042206 c 0.399376,-0.3993826 1.023401,-0.3993826 1.422778,0 l 2.570985,2.5709858 z"
       style="clip-rule:evenodd;fill:#eff0f1;fill-opacity:1;fill-rule:evenodd;stroke-width:0.24961" />
  </g>
</svg>
