<?xml version="1.0" encoding="UTF-8" standalone="no"?>
<svg
   sodipodi:docname="phone.svg"
   inkscape:version="1.1.2 (0a00cf5339, 2022-02-04)"
   id="svg"
   viewBox="0 0 32.000015 31.999973"
   height="31.999973"
   width="32.000015"
   version="1.1"
   xmlns:inkscape="http://www.inkscape.org/namespaces/inkscape"
   xmlns:sodipodi="http://sodipodi.sourceforge.net/DTD/sodipodi-0.dtd"
   xmlns="http://www.w3.org/2000/svg"
   xmlns:svg="http://www.w3.org/2000/svg"
   xmlns:rdf="http://www.w3.org/1999/02/22-rdf-syntax-ns#"
   xmlns:cc="http://creativecommons.org/ns#"
   xmlns:dc="http://purl.org/dc/elements/1.1/">
  <g
     id="22-22-phone-battery"
     transform="translate(56.562478,38.781212)">
    <rect
       y="0"
       x="-3.9535522e-08"
       height="22"
       width="22"
       id="rect3054"
       style="fill:#000000;fill-opacity:0;stroke:none" />
    <path
       class="ColorScheme-Text"
       style="color:#7b7c7e;fill:#bf616a;fill-opacity:1;fill-rule:evenodd;stroke:none;stroke-width:0.71"
       d="M 11.281773,7.3 8.7,11.172694 H 9.99085 V 14.4 l 2.581774,-3.872766 h -1.290851 z"
       id="path3072"
       inkscape:connector-curvature="0"
       sodipodi:nodetypes="ccccccc" />
    <path
       id="Mobile-35"
       class="st0"
       d="m 7.65,3 c -1.1,0 -2,0.9 -2,2 h 9 v 11 h -9 v 2 h 8 c 1.1,0 2,-0.9 2,-2 V 3 Z"
       style="fill:#cdd8e5;fill-opacity:0.40392157;stroke-width:0.25" />
    <path
       id="Mobile-s-62"
       class="st1"
       d="m 6.65,16 h -1 V 5 c 0,-1.1 0.9,-2 2,-2 h 1 v 1 h -1 c -0.55,0 -1,0.45 -1,1 z m 8,0 c 0,1.1 -0.9,2 -2,2 h -6 v 1 h 6 c 1.65,0 3,-1.35 3,-3 z m 0,-11 h 1 V 4 h -1 z m -3.5,11.5 h -1 v 1 h 1 z"
       style="fill:#ecedee;fill-opacity:1;stroke-width:0.25" />
  </g>
  <g
     id="phone-battery"
     transform="translate(52)">
    <rect
       style="opacity:0.01;fill:#eff0f1;fill-opacity:0;stroke:none"
       id="rect3038"
       y="1.4697265e-07"
       x="-4.3444825e-08"
       ry="0"
       rx="0"
       height="31.999973"
       width="32.000015" />
    <path
       sodipodi:nodetypes="ccccccc"
       inkscape:connector-curvature="0"
       id="path4444"
       d="M 17.413559,9.25 13.05,15.7954 h 2.181719 V 21.25 l 4.36356,-6.54552 h -2.18172 z"
       style="color:#7b7c7e;fill:#bf616a;fill-opacity:1;fill-rule:evenodd;stroke:none"
       class="ColorScheme-Text" />
    <path
       id="Mobile-7"
       class="st0"
       d="m 11.8,4 c -1.65,0 -3,1.35 -3,3 H 22.3 V 23.499994 H 8.8 v 3 h 12 c 1.65,0 3,-1.35 3,-3 V 4 Z"
       style="fill:#cdd8e5;fill-opacity:0.40392157;stroke-width:0.375" />
    <path
       id="Mobile-s-5"
       class="st1"
       d="M 10.3,23.499994 H 8.8 V 7 c 0,-1.65 1.35,-3 3,-3 h 1.5 v 1.5 h -1.5 c -0.825,0 -1.5,0.675 -1.5,1.5 z m 12,0 c 0,1.65 -1.35,3 -3,3 h -9 v 1.5 h 9 c 2.475,0 4.5,-2.025 4.5,-4.5 z M 22.3,7 h 1.5 V 5.5 h -1.5 z m -5.25,17.249994 h -1.5 v 1.5 h 1.5 z"
       style="fill:#ecedee;fill-opacity:1;stroke-width:0.375" />
  </g>
  <g
     id="22-22-phone"
     transform="translate(4.5624763,38.781212)">
    <rect
       style="fill:#000000;fill-opacity:0;stroke:none"
       id="rect3841"
       width="22"
       height="22"
       x="-1.8530272e-07"
       y="0" />
    <path
       id="Mobile-3"
       class="st0"
       d="m 7.9,3 c -1.1,0 -2,0.9 -2,2 h 9 v 11 h -9 v 2 h 8 c 1.1,0 2,-0.9 2,-2 V 3 Z"
       style="fill:#cdd8e5;fill-opacity:0.40392157;stroke-width:0.25" />
    <path
       id="Mobile-s-6"
       class="st1"
       d="m 6.9,16 h -1 V 5 c 0,-1.1 0.9,-2 2,-2 h 1 v 1 h -1 c -0.55,0 -1,0.45 -1,1 z m 8,0 c 0,1.1 -0.9,2 -2,2 h -6 v 1 h 6 c 1.65,0 3,-1.35 3,-3 z m 0,-11 h 1 V 4 h -1 z m -3.5,11.5 h -1 v 1 h 1 z"
       style="fill:#ecedee;fill-opacity:1;stroke-width:0.25" />
  </g>
  <g
     id="phone">
    <rect
       width="32.000015"
       height="31.999973"
       rx="0"
       ry="0"
       x="-2.9711913e-07"
       y="-3.8330079e-08"
       id="rect3860"
       style="opacity:0.01;fill:#eff0f1;fill-opacity:0;stroke:none" />
    <path
       id="Mobile"
       class="st0"
       d="m 11.5,4 c -1.65,0 -3,1.35 -3,3 H 22 V 23.5 H 8.5 v 3 h 12 c 1.65,0 3,-1.35 3,-3 V 4 Z"
       style="fill:#cdd8e5;fill-opacity:0.40392157;stroke-width:0.375" />
    <path
       id="Mobile-s"
       class="st1"
       d="M 10,23.5 H 8.5 V 7 c 0,-1.65 1.35,-3 3,-3 H 13 V 5.5 H 11.5 C 10.675,5.5 10,6.175 10,7 Z m 12,0 c 0,1.65 -1.35,3 -3,3 H 10 V 28 h 9 c 2.475,0 4.5,-2.025 4.5,-4.5 z M 22,7 h 1.5 V 5.5 H 22 Z m -5.25,17.25 h -1.5 v 1.5 h 1.5 z"
       style="fill:#ecedee;fill-opacity:1;stroke-width:0.375" />
  </g>
  <sodipodi:namedview
     inkscape:document-rotation="0"
     fit-margin-bottom="0"
     fit-margin-right="0"
     fit-margin-left="0"
     fit-margin-top="0"
     inkscape:snap-bbox-midpoints="true"
     inkscape:snap-bbox="true"
     inkscape:current-layer="svg"
     inkscape:window-maximized="1"
     inkscape:window-y="0"
     inkscape:window-x="0"
     inkscape:cy="36.239222"
     inkscape:cx="29.96365"
     inkscape:zoom="5.6568543"
     showgrid="false"
     id="namedview10"
     inkscape:window-height="1007"
     inkscape:window-width="1920"
     inkscape:pageshadow="2"
     inkscape:pageopacity="0"
     guidetolerance="10"
     gridtolerance="10"
     objecttolerance="10"
     borderopacity="1"
     bordercolor="#000000"
     pagecolor="#b3b3b3"
     showguides="true"
     inkscape:lockguides="true"
     inkscape:pagecheckerboard="0"
     inkscape:showpageshadow="false">
    <inkscape:grid
       spacingy="1.0666667"
       spacingx="1.0666667"
       originy="-27.733348"
       originx="-52.266651"
       empopacity="0.07843137"
       empcolor="#0000ff"
       opacity="0.03921569"
       color="#0000ff"
       snapvisiblegridlinesonly="true"
       enabled="true"
       visible="true"
       empspacing="4"
       id="grid2987"
       type="xygrid" />
  </sodipodi:namedview>
  <defs
     id="defs81">
    <style
       id="current-color-scheme"
       type="text/css" />
  </defs>
  <metadata
     id="metadata34">
    <rdf:RDF>
      <cc:Work
         rdf:about="">
        <dc:format>image/svg+xml</dc:format>
        <dc:type
           rdf:resource="http://purl.org/dc/dcmitype/StillImage" />
      </cc:Work>
    </rdf:RDF>
  </metadata>
</svg>
