<?xml version="1.0" encoding="UTF-8" standalone="no"?>
<svg
   width="32"
   height="32"
   version="1.1"
   id="svg12"
   sodipodi:docname="plasmavault_error.svg"
   inkscape:version="1.1.2 (0a00cf5339, 2022-02-04)"
   xmlns:inkscape="http://www.inkscape.org/namespaces/inkscape"
   xmlns:sodipodi="http://sodipodi.sourceforge.net/DTD/sodipodi-0.dtd"
   xmlns="http://www.w3.org/2000/svg"
   xmlns:svg="http://www.w3.org/2000/svg"
   xmlns:rdf="http://www.w3.org/1999/02/22-rdf-syntax-ns#"
   xmlns:cc="http://creativecommons.org/ns#"
   xmlns:dc="http://purl.org/dc/elements/1.1/">
  <g
     id="22-22-plasmavault_error"
     transform="translate(32,10)">
    <rect
       style="opacity:0.00100002"
       width="22"
       height="22"
       x="0"
       y="0"
       id="rect2" />
    <path
       id="Computer-3"
       class="st0"
       d="m 18,5 h 1 v 9 c 0,1.1 -0.9,2 -2,2 H 3 v -2 h 15 z m -7,12 z"
       style="fill:#cdd8e5;fill-opacity:0.40392157;stroke-width:0.25"
       sodipodi:nodetypes="ccssccccccccc" />
    <path
       id="Computer-s-6"
       class="st1"
       d="M 4,14 H 3 V 7 C 3,5.9 3.9,5 5,5 H 19 V 6 H 5 C 4.45,6 4,6.45 4,7 Z m 14,0 c 0,1.1 -0.9,2 -2,2 h -5 v 1 h 1 v 0 0 0 0 h 4 c 1.65,0 3,-1.35 3,-3 z"
       style="fill:#ecedee;fill-opacity:1;stroke-width:0.25"
       sodipodi:nodetypes="ccssccssccscccccccscc" />
    <path
       id="Key-7"
       class="st0"
       d="m 12.666667,8.4668333 c 0,0.2916667 -0.229167,0.5208334 -0.520834,0.5208334 C 11.854167,8.9876667 11.625,8.7585 11.625,8.4668333 11.625,8.1751667 11.854167,7.946 12.145833,7.946 c 0.291667,0 0.520834,0.2291667 0.520834,0.5208333 z M 13.5,8.9876667 c 0,1.0312433 -0.843757,1.8749993 -1.875,1.8749993 -0.1875,0 -0.375,-0.03122 -0.541667,-0.08333 L 8.916667,12.946 h -1.25 v -1.041667 h 0.625 v -0.625 h 0.625 v -0.625 h 0.625 v -0.625 L 9.885423,9.6855767 C 9.80209,9.4668333 9.75,9.2376667 9.75,8.9876667 c 0,-1.03125 0.843757,-1.875 1.875,-1.875 1.031243,0 1.875,0.84375 1.875,1.875 z"
       style="clip-rule:evenodd;fill:#bf616a;fill-opacity:1;fill-rule:evenodd;stroke-width:0.104167" />
    <path
       id="Key-s-5"
       class="st1"
       d="m 13.083333,7.1126667 c -0.218756,0 -0.416666,0.083333 -0.57291,0.2291666 -0.125,-0.072917 -0.270846,-0.125 -0.416666,-0.1666666 C 12.333333,6.8835 12.6875,6.696 13.083333,6.696 c 0.6875,0 1.25,0.5625 1.25,1.25 0,0.6875 -0.5625,1.25 -1.25,1.25 -0.656243,0 -1.19791,-0.5104187 -1.25,-1.1458333 0.08333,-0.0625 0.19791,-0.1041667 0.3125,-0.1041667 0.03121,0 0.07292,0 0.104167,0.010427 0.01037,0.4583333 0.375,0.822914 0.833333,0.822914 0.458334,0 0.833334,-0.3749974 0.833334,-0.8333307 0,-0.4583333 -0.375,-0.8333333 -0.833334,-0.8333333 z M 8.385417,12.946 H 8.083333 v 0.416666 h 0.302084 c 0.333336,0 0.645826,-0.135423 0.885416,-0.364576 l 2.145834,-2.145847 C 11.25,10.831363 11.093757,10.789763 10.94791,10.737667 L 8.968757,12.706423 C 8.8125,12.862666 8.604167,12.946 8.385417,12.946 Z"
       style="fill:#ecedee;fill-opacity:1;stroke-width:0.104167" />
  </g>
  <metadata
     id="metadata18">
    <rdf:RDF>
      <cc:Work
         rdf:about="">
        <dc:format>image/svg+xml</dc:format>
        <dc:type
           rdf:resource="http://purl.org/dc/dcmitype/StillImage" />
      </cc:Work>
    </rdf:RDF>
  </metadata>
  <defs
     id="defs16">
    <linearGradient
       x1="895.72339"
       x2="895.72339"
       y1="-131.54958"
       y2="-118.90034"
       gradientTransform="matrix(1.2648997,0,0,0.79057653,-1125.0002,116.5)"
       gradientUnits="userSpaceOnUse"
       id="linearGradient5">
      <stop
         offset="0%"
         style="stop-color:#303b3d; stop-opacity:1"
         id="stop18" />
      <stop
         offset="100%"
         style="stop-color:#bc985d; stop-opacity:1"
         id="stop20" />
    </linearGradient>
  </defs>
  <sodipodi:namedview
     pagecolor="#b2b2b2"
     bordercolor="#000000"
     borderopacity="1"
     objecttolerance="10"
     gridtolerance="10"
     guidetolerance="10"
     inkscape:pageopacity="0"
     inkscape:pageshadow="2"
     inkscape:window-width="1920"
     inkscape:window-height="1007"
     id="namedview14"
     showgrid="false"
     inkscape:zoom="8.0000004"
     inkscape:cx="25.062499"
     inkscape:cy="20.749999"
     inkscape:window-x="0"
     inkscape:window-y="0"
     inkscape:window-maximized="1"
     inkscape:current-layer="svg12"
     inkscape:document-rotation="0"
     inkscape:lockguides="false"
     inkscape:showpageshadow="false"
     inkscape:pagecheckerboard="0">
    <inkscape:grid
       type="xygrid"
       id="grid868"
       originx="0"
       originy="0" />
  </sodipodi:namedview>
  <g
     id="g8"
     style="image-rendering:optimizeQuality;shape-rendering:geometricPrecision;text-rendering:geometricPrecision"
     transform="translate(66.51071,-14.68571)" />
  <g
     id="plasmavault_error">
    <rect
       style="opacity:0.00100002"
       width="32"
       height="32"
       x="0"
       y="0"
       id="rect7" />
    <path
       id="Computer"
       class="st0"
       d="M 26.5,7 H 28 v 13.5 c 0,1.65 -1.35,3 -3,3 H 4 v -3 H 26.5 Z M 16,25 Z"
       style="fill:#cdd8e5;fill-opacity:0.40392157;stroke-width:0.375"
       sodipodi:nodetypes="ccssccccccccc" />
    <path
       id="Computer-s"
       class="st1"
       d="M 5.5,20.5 H 4 V 10 C 4,8.35 5.35,7 7,7 H 28 V 8.5 H 7 C 6.175,8.5 5.5,9.175 5.5,10 Z m 21,0 c 0,1.65 -1.35,3 -3,3 H 16 V 25 h 1.5 v 0 0 0 0 h 6 c 2.475,0 4.5,-2.025 4.5,-4.5 z"
       style="fill:#ecedee;fill-opacity:1;stroke-width:0.375"
       sodipodi:nodetypes="ccssccssccscccccccscc" />
    <path
       id="Key"
       class="st0"
       d="m 18.5,12.20025 c 0,0.4375 -0.34375,0.78125 -0.78125,0.78125 -0.4375,0 -0.78125,-0.34375 -0.78125,-0.78125 0,-0.4375 0.34375,-0.78125 0.78125,-0.78125 0.4375,0 0.78125,0.34375 0.78125,0.78125 z m 1.25,0.78125 c 0,1.546865 -1.265635,2.8125 -2.8125,2.8125 -0.28125,0 -0.5625,-0.04683 -0.8125,-0.125 l -3.25,3.25 H 11 v -1.5625 h 0.9375 V 16.419 h 0.9375 v -0.9375 h 0.9375 V 14.544 l 0.515635,-0.515635 C 14.203135,13.70025 14.125,13.3565 14.125,12.9815 c 0,-1.546875 1.265635,-2.8125 2.8125,-2.8125 1.546865,0 2.8125,1.265625 2.8125,2.8125 z"
       style="clip-rule:evenodd;fill:#bf616a;fill-opacity:1;fill-rule:evenodd;stroke-width:0.15625" />
    <path
       id="Key-s"
       class="st1"
       d="m 19.125,10.169 c -0.328135,0 -0.625,0.125 -0.859365,0.34375 -0.1875,-0.109375 -0.40627,-0.1875 -0.625,-0.25 C 18,9.82525 18.53125,9.544 19.125,9.544 c 1.03125,0 1.875,0.84375 1.875,1.875 0,1.03125 -0.84375,1.875 -1.875,1.875 -0.984365,0 -1.796865,-0.765628 -1.875,-1.71875 0.125,-0.09375 0.296865,-0.15625 0.46875,-0.15625 0.04682,0 0.109385,0 0.15625,0.01564 0.01555,0.6875 0.5625,1.234371 1.25,1.234371 0.6875,0 1.25,-0.562496 1.25,-1.249996 0,-0.6875 -0.5625,-1.25 -1.25,-1.25 z m -7.046875,8.75 H 11.625 v 0.625 h 0.453125 c 0.500004,0 0.96874,-0.203135 1.328125,-0.546865 l 3.21875,-3.21877 c -0.25,-0.03132 -0.484365,-0.09372 -0.703135,-0.171865 l -2.96873,2.953135 C 12.71875,18.794 12.40625,18.919 12.078125,18.919 Z"
       style="fill:#ecedee;fill-opacity:1;stroke-width:0.15625" />
  </g>
</svg>
