<?xml version="1.0" encoding="UTF-8" standalone="no"?>
<svg
   width="32"
   height="32"
   version="1"
   id="svg5543"
   sodipodi:docname="plasma.svg"
   inkscape:version="1.2.2 (b0a8486541, 2022-12-01)"
   xmlns:inkscape="http://www.inkscape.org/namespaces/inkscape"
   xmlns:sodipodi="http://sodipodi.sourceforge.net/DTD/sodipodi-0.dtd"
   xmlns="http://www.w3.org/2000/svg"
   xmlns:svg="http://www.w3.org/2000/svg">
  <sodipodi:namedview
     id="namedview5545"
     pagecolor="#3a3f47"
     bordercolor="#000000"
     borderopacity="1"
     inkscape:showpageshadow="2"
     inkscape:pageopacity="1"
     inkscape:pagecheckerboard="true"
     inkscape:deskcolor="#3a3f47"
     showgrid="true"
     inkscape:zoom="10.429825"
     inkscape:cx="7.142977"
     inkscape:cy="13.518923"
     inkscape:window-width="1920"
     inkscape:window-height="994"
     inkscape:window-x="0"
     inkscape:window-y="0"
     inkscape:window-maximized="1"
     inkscape:current-layer="svg5543">
    <inkscape:grid
       type="xygrid"
       id="grid6017"
       originx="31.745763"
       originy="-37.966102" />
  </sodipodi:namedview>
  <defs
     id="defs5">
    <style
       id="current-color-scheme"
       type="text/css">
   .ColorScheme-Background {color:#181818; } .ColorScheme-ButtonBackground { color:#343434; } .ColorScheme-Highlight { color:#4285f4; } .ColorScheme-Text { color:#dfdfdf; } .ColorScheme-ViewBackground { color:#242424; } .ColorScheme-NegativeText { color:#f44336; } .ColorScheme-PositiveText { color:#4caf50; } .ColorScheme-NeutralText { color:#ff9800; }
  </style>
  </defs>
  <g
     id="22-22-plasma-browser-integration"
     transform="translate(32,10)">
    <rect
       style="opacity:0.00100002;fill:#d3dae3;fill-opacity:1"
       width="22"
       height="22"
       x="0"
       y="0"
       id="rect2" />
    <path
       id="Page_1_-0"
       class="st0  ColorScheme-Highlight "
       d="m 14.5,6 v 0 l -1,-1 V 5 H 6.500001 V 18 H 15 c 1.375,0 2.5,-1.125 2.5,-2.5 V 9 Z m -6,1.5 z m 0,2.5 z m 0,5 z m 0,-2.5 z"
       sodipodi:nodetypes="ccccccsscccccccccccccccccccccc"
       style="color:#cdd8e5;fill:#cdd8e5;fill-opacity:0.403922;stroke-width:0.25" />
    <path
       id="Page-s-2"
       class="st1  ColorScheme-Text "
       d="m 15.366667,9 h 2.133332 v 7 c 0,1.65 -1.35,3 -2.999999,3 H 7.500001 V 18 H 14.5 c 1.1,0 2,-0.900001 2,-2 V 10 H 15.366667 Z M 4.500001,5 c 0,-1.1 0.9,-2 2,-2 H 11.5 V 4 H 6.500001 c -0.55,0 -1,0.45 -1,1 v 8.5 h -1 z"
       style="color:#eff0f1;fill:currentColor;fill-opacity:1;stroke-width:0.25"
       sodipodi:nodetypes="ccssccsscccssccssccs" />
    <path
       id="path20-3"
       style="color:#31363b;fill:#eff0f1;fill-opacity:1;stroke-width:0.306159"
       d="m 9.346096,7.3793823 c -0.2548894,0 -0.4615234,0.2045877 -0.4615234,0.4569608 0,0.252372 0.206634,0.456962 0.4615234,0.456962 0.2548941,0 0.4615258,-0.20459 0.4615258,-0.456962 0,-0.2523731 -0.2066317,-0.4569608 -0.4615258,-0.4569608 z m 3.230666,0 c -0.56249,-0.3091221 -1.229495,0.3455646 -0.923044,0.9139228 l 1.384569,1.3708849 -1.384569,1.370887 c -0.380226,0.628764 0.37208,1.231689 0.923044,0.91392 L 14.884412,9.66419 Z M 8.2692055,10.121153 C 7.8443873,10.121153 7.5,10.462133 7.5,10.88276 c 0,0.420618 0.3443873,0.761597 0.7692055,0.761597 0.4248236,0 0.7692058,-0.340979 0.7692058,-0.761597 0,-0.420627 -0.3443822,-0.761607 -0.7692058,-0.761607 z m 1.9999385,2.74177 c -0.5097862,0 -0.923048,0.409177 -0.923048,0.91392 0,0.504745 0.4132618,0.913926 0.923048,0.913926 0.509787,0 0.923048,-0.409181 0.923048,-0.913926 0,-0.504743 -0.413261,-0.91392 -0.923048,-0.91392 z"
       class="ColorScheme-Text "
       sodipodi:nodetypes="ssssscccccccssssssssss" />
    <path
       style="fill:#eff0f1;fill-opacity:1;stroke-width:0.00840822"
       inkscape:connector-curvature="0"
       d="m 15.310685,14.395189 c 0.120702,-0.230384 0.189055,-0.491773 0.189055,-0.769906 0,-0.525282 -0.243922,-0.993596 -0.625414,-1.301054 0.02936,0.02682 0.0574,0.05366 0.08027,0.07377 0.117321,0.107237 0.220297,0.23206 0.302169,0.367777 -0.004,0 -0.004,0.0016 -0.004,0.0017 0.05642,0.08127 0.100449,0.171743 0.135862,0.265573 -0.02024,-0.02758 -0.08861,-0.07036 -0.05567,-0.0046 0.01578,0.03265 0.05567,0.04941 0.06751,0.08125 0.0093,-0.0015 0.004,-0.01257 0.0098,-0.01257 0.0093,0.01586 -0.0039,0.03511 0.01577,0.04687 0.02346,0.07711 0.04132,0.156707 0.05409,0.237974 -0.07083,0.01934 -0.128264,0.09049 -0.173011,0.004 -0.02346,-0.04604 -0.03551,-0.07792 -0.06747,-0.119787 -0.02355,-0.03181 -0.05744,-0.05617 -0.06685,-0.09717 -0.01581,-0.067 -0.126613,-0.10724 -0.129979,-0.180958 -0.0034,-0.01085 -0.02783,-0.06366 -0.02625,-0.0653 0.0067,-0.0059 0.004,-0.03347 0.004,-0.04106 0.0039,-0.02758 0.0075,-0.04942 0.0034,-0.07707 -0.06005,0.01586 -0.110573,-0.0084 -0.172162,-0.01418 0.004,-0.0016 0.004,-0.0027 0.004,-0.0046 -0.01771,-0.01586 -0.03033,-0.0268 -0.05148,-0.03857 0.0235,-0.02348 -0.0033,-0.01341 -0.0042,-0.02843 -0.004,-0.02095 0.05143,-0.01168 0.06063,-0.01587 -0.0033,-0.0026 -0.0075,-0.006 -0.0075,-0.0093 -0.02173,-0.004 -0.01877,0.01932 -0.04301,0.0027 -0.01872,-0.01341 -0.02096,-0.0039 -0.03887,-0.0027 0.004,0.004 0.004,0.0093 0.004,0.01417 0,0 -0.03033,-0.02181 -0.02704,-0.0039 0.01781,0.01672 0.02785,0.03427 0.04897,0.05104 -0.0125,0.0065 -0.02342,-0.0013 -0.03452,-0.0093 0.0033,0.0046 0.0066,0.03096 0.0109,0.03348 -0.02461,-0.0027 -0.03887,-0.01417 -0.02855,-0.03516 -0.0187,-0.0027 -0.05908,-0.04194 -0.06334,-0.06115 -0.0054,-0.0351 -0.0541,-0.03939 -0.05741,-0.06116 -0.0094,-0.0013 -0.106346,-0.06782 -0.103841,-0.04857 0.004,0.03097 0.05569,0.07377 0.08778,0.07709 0.0041,0.02596 0.05409,0.01933 0.05478,0.04773 -0.0465,-0.01254 -0.02847,-0.01586 -0.02344,0.01676 -0.0032,-0.004 -0.02703,0.03605 -0.03031,0.01585 0.0489,0.004 -0.106336,-0.116454 -0.100467,-0.103048 -0.03451,-0.03517 -0.04049,-0.04857 -0.08605,-0.02519 -0.02178,0.01085 -0.09624,-0.0276 -0.07671,0.02096 -0.0029,0.004 -0.102957,0.04687 -0.05906,0.06616 -0.01346,0.0185 -0.0345,0.03426 -0.05316,0.04192 -0.02271,-0.0083 -0.06419,0.02265 -0.07765,0.0027 -0.01582,-0.02595 -0.02699,-0.01586 -0.05408,-0.01758 -0.02793,-0.0027 -0.004,-0.09384 -0.004,-0.105554 0,-0.01669 -0.01418,-0.04028 0.02098,-0.03773 0.03045,0.0027 0.05994,0.0093 0.09115,0.01255 0.03449,-0.0041 0.04806,0.0075 0.04565,-0.03942 -0.0029,0 -0.0029,0.0013 -0.004,0.0013 0.021,-0.03426 -0.07339,-0.04356 -0.07339,-0.06198 0,-0.01257 0.05478,-0.0013 0.06062,-0.0027 0,-0.0059 -0.0039,-0.01086 -0.0039,-0.01757 0.04385,0.004 0.04974,-0.01254 0.08697,-0.02016 0.03112,-0.0065 0.02703,-0.03942 0.06413,-0.03693 0.01089,0.0013 0.05064,0.0039 0.04131,-0.01341 -0.02177,-0.03771 -0.02177,-0.03771 0.0187,-0.05367 0.004,0.0117 0.0076,0.01586 0.0098,0.02014 -0.004,0 -0.004,0.0065 -0.004,0.01506 0.0075,0.0013 0.01254,0.0039 0.0109,0.01339 -0.004,-0.0059 -0.0093,-0.0039 -0.01345,-0.0059 -0.004,0.0093 -0.004,0.01586 -0.004,0.0117 0.02033,0.0027 0.04479,0.0013 0.06504,0.0039 -0.004,0.02435 0.07435,-0.0039 0.09289,0.004 -0.0031,0.0016 -0.0041,0.004 -0.0041,0.004 0.0075,0.0013 0.01581,0.0013 0.0228,0.0013 -0.0053,-0.04194 0.06998,-0.05783 0.06998,-0.04687 0,-0.01006 -0.03379,-0.02265 -0.02344,-0.02684 0.02851,-0.01505 0.06231,0.0075 0.0937,-0.0039 -0.01202,-0.01252 -0.158691,-0.0085 -0.13675,-0.03607 -0.01246,-0.0039 -0.01092,-0.01167 -0.01707,-0.02015 0.004,0.0013 0.06582,-0.02094 0.06505,-0.02349 -0.01196,-0.02845 -0.06004,-0.004 -0.06505,0.004 0.004,0.01341 -0.06232,0.0075 -0.06012,0.0276 0.0043,0.02181 0.03038,0.01586 0.03542,0.03513 0.0031,0.0039 -0.06503,0.03007 -0.02348,0.03773 0.0031,0.01585 -0.04976,0.02843 -0.06063,0.0276 -0.0095,-0.0016 -0.02941,-0.03943 -0.0345,-0.04769 -0.01244,-0.0185 -0.01871,-0.03264 -0.03969,-0.01934 -0.0076,0.0039 -0.06998,0.02015 -0.0726,-0.0027 -0.003,-0.0059 0.0109,0.0013 0.0094,-0.0093 -0.0094,-0.0013 -0.0094,-0.0013 -0.01581,0 0.004,-0.0039 0.004,-0.0059 0.0095,-0.0075 -0.04389,-0.03014 0.03978,-0.04687 0.06005,-0.04437 -0.0066,-0.0016 -0.0095,-0.0027 -0.01419,-0.0039 0.01259,-0.0013 0.110563,-0.04027 0.113921,-0.05027 -0.01345,0.0013 -0.01872,0.0027 -0.03104,0.0027 0.004,-0.0013 0.0094,-0.0027 0.0099,-0.0027 -0.004,0 -0.0093,-0.0016 -0.0093,-0.0016 0.0039,-0.0046 0.04565,-0.0016 0.04657,-0.0016 -0.004,-0.0013 -0.004,-0.0013 -0.0093,-0.0013 0.0066,-0.0027 0.01413,-0.004 0.02173,-0.0027 -0.0041,-0.0017 -0.0041,-0.0017 -0.0041,-0.0027 0.02033,-0.0059 0.04558,0 0.06677,-0.0039 -0.01581,-0.0027 0.03804,-0.01256 0.03291,0.0039 0.02176,0.0027 0.04481,0.0093 0.06748,0.02094 -0.261035,-0.165089 -0.570787,-0.261438 -0.903323,-0.261438 -0.93179,0 -1.687183,0.750641 -1.687183,1.674697 0,0.61074 0.328321,1.143557 0.819538,1.435934 -0.0098,-0.0142 -0.004,-0.0301 -0.0098,-0.04688 -0.01086,-0.02264 -0.02862,-0.02596 -0.02862,-0.057 0,-0.06198 -0.004,-0.100536 -0.02947,-0.162527 -0.02678,-0.03512 -0.02251,-0.113104 -0.0302,-0.15667 -0.01501,-0.04193 -0.02093,-0.08459 -0.03877,-0.125653 -0.01953,-0.04438 -0.07427,-0.07542 -0.122327,-0.08127 -0.0624,-0.01087 -0.07176,-0.06363 -0.109791,-0.104716 -0.03219,-0.03347 -0.06413,-0.07205 -0.08948,-0.109751 -0.01258,-0.01677 -0.03802,-0.01848 -0.04566,-0.04769 -0.0067,-0.02682 0.01955,-0.03773 0.01955,-0.06199 -0.03724,-0.02015 -0.02632,-0.02517 -0.0254,-0.06529 0.0026,-0.03426 0.04808,-0.07122 0.04729,-0.106389 -0.0093,-0.004 -0.01258,-0.0082 -0.0093,-0.01585 -0.0076,-0.03345 -0.05072,-0.08881 -0.0076,-0.106399 -0.0093,-0.04604 0.04812,-0.07709 0.08266,-0.09217 0.0076,-0.0039 0.0159,-0.02683 0.02625,-0.01341 0.0042,0.004 0.0042,0.01086 -0.004,0.01586 0,0.01087 -0.0067,0.06447 0.01772,0.06365 0.01084,-0.0018 -0.03041,-0.05783 0.02628,-0.06117 -0.004,-0.01004 -0.01588,-0.0039 -0.01869,-0.01586 0.02032,-0.0016 0.0448,0.01668 0.05644,0.03006 0.0094,0.01005 0.04564,0.0046 0.05741,0.0093 0.01687,0.0066 0.05063,-0.01584 0.07343,-0.01584 -0.004,0.0026 -0.0093,0.0039 -0.01187,0.0026 0.0076,0.03774 0.092,0.04688 0.115633,0.08126 0.01871,0.0268 0.09791,0.03426 0.127453,0.03347 0.03452,-0.0026 0.09368,0.08126 0.07761,0.103046 -0.02456,0.03263 0.0109,0.07292 0.042,0.06955 0.03118,-0.004 0.0039,-0.05865 0.06334,-0.03426 0.02271,0.01005 0.03118,0.0083 0.0379,0.03515 0.02782,-0.004 0.06507,-0.01338 0.09789,-0.0046 0.03281,0.0093 0.0532,0.03007 0.08782,0.03774 0.07502,0.01586 0.0039,0.152476 -0.01417,0.185985 -0.01262,0.02519 0.02543,0.109751 0.02033,0.14661 -0.0159,0.06443 -0.02633,0.08712 -0.0819,0.123153 -0.01514,0.0093 -0.04388,0.03942 -0.0405,0.06036 0.004,0.01756 0.01088,0.03606 0.01692,0.05366 -0.0098,0.01256 -0.01515,0.02683 -0.01515,0.04193 v 0 c -0.0039,0.04027 -0.02112,0.07624 -0.02859,0.118123 -0.004,0.0276 -0.09115,0.04027 -0.09458,0.03179 0.01587,0.04275 0.07761,0.02435 0.04893,0.08882 -0.0099,0.02264 -0.04558,0.02762 -0.0658,0.03263 -0.02537,0.006 0.0022,0.03428 0,0.04767 0.01182,0.0268 -0.02866,0.01336 -0.04481,0.01765 -0.0304,0.0085 0.0456,0.04275 0.0405,0.03264 0.0076,0.01586 -0.01781,0.0072 -0.02367,0.0094 0.0067,0.01586 0.03119,0.05446 0.0026,0.06782 -0.04561,0.0276 0.03452,0.04358 0.04211,0.06528 0.194981,0.07791 0.407666,0.121478 0.630491,0.121478 0.638072,0 1.193433,-0.351861 1.479546,-0.870445 0.0093,-0.01667 0.01504,-0.02595 0.02355,-0.03347 z m -0.638088,-2.056721 c 0,0.0043 -0.0039,0.01254 -0.01196,0.0117 -0.0042,0 -0.0075,-0.004 -0.0075,-0.0059 0.0042,0 0.0094,-0.0016 0.01261,-0.0016 -0.01408,-0.01087 0.004,-0.0065 0.0065,-0.004 z m -0.06831,0.0092 c -0.004,0.004 -0.0076,0.0082 -0.0109,0.0134 -0.0094,-0.0075 0.0075,-0.01419 0.0109,-0.0134 z m -0.10469,0.03011 c -0.01245,0.0013 -0.0076,0.02517 -0.02699,0.01168 0.004,-0.0027 0.004,-0.0027 0.004,0 0.0039,0 0.0093,-0.0027 0.0093,-0.004 -0.02938,-0.0059 -0.004,-0.03181 0.01345,-0.0065 z m -0.13758,-0.208619 c -0.0039,0.0013 -0.0039,0.0013 -0.0039,0.0013 0.0039,0.0016 0.0075,0.0016 0.0098,0.0027 -0.0076,-0.0016 0.01708,0.0016 0.02036,0.0027 -0.0158,-0.01419 0.01709,-0.0046 0.01783,-0.0046 0,0.0017 -0.003,0.0017 -0.003,0.0039 0.0075,-0.0016 0.01776,0 0.02792,0.002 -0.0041,-0.0013 -0.0041,-0.002 -0.0041,-0.004 0.0055,0.0013 0.01254,0 0.01866,0 -0.004,0 -0.01952,-0.0013 -0.02011,-0.0013 -0.0039,0 -0.01871,0.0013 -0.02101,-0.0039 0.0041,0 0.0094,0 0.01345,0.0013 v -0.0013 c 0.004,0 0.004,0 0.0066,0 -0.003,-0.0013 -0.004,-0.0013 -0.004,-0.0017 0.02782,0 0.07171,-0.0043 0.09789,0.0065 -0.0094,0.0016 -0.05315,0.0085 -0.07759,0.004 0.0039,0.0016 0.0075,0.0027 0.0109,0.004 -0.0039,0.0013 -0.0039,0 -0.0039,0 0.01252,0.0016 0.02938,0.004 0.04298,0.01005 -0.01248,0.0013 -0.01708,0.0039 -0.02854,0.0046 -0.004,-0.0013 -0.004,-0.0027 0,-0.004 -0.004,0 -0.01501,-0.0013 -0.02024,-0.0016 0,-0.0027 0.004,-0.0016 0.0055,-0.0039 -0.004,0 -0.0055,-0.0027 -0.0093,-0.004 -0.01872,0.004 -0.07261,0.02435 -0.07435,0.004 0.0094,0 0.01708,0.0013 0.02625,0.0013 -0.004,-0.0017 -0.03111,0 -0.03111,-0.0046 0,0 0.01583,-0.0027 0.0246,-0.004 -0.0109,0 -0.03039,0.0027 -0.03546,-0.0016 0.003,-0.0013 0.004,-0.0013 0.004,-0.0013 -0.0053,-0.0013 -0.01091,-0.0027 -0.0095,-0.0039 -0.004,-0.0013 -0.0075,-0.0027 -0.01198,-0.004 0.0098,-0.0013 0.01955,-0.002 0.02939,0.0013 z m -0.02769,0.0046 v 0 c 0,0.0013 0,0.0013 0,0 0,0.0013 0,0 0,0 z m -0.0029,0 c 0.004,0.0016 0.0094,0.0027 0.01089,0.0059 -0.0055,0 -0.01501,-0.004 -0.01089,-0.0059 z m 0.683629,0.655997 c 0.0034,0.01005 -0.03377,0.03011 -0.03801,0.0093 0.0094,-0.004 0.0263,-0.0085 0.03801,-0.0093 z m -0.168767,-0.0059 c -0.01196,0.0046 -0.03725,-0.004 -0.04728,-0.0093 0.01579,-0.0013 0.03451,0.004 0.04728,0.0093 z m -0.241121,-0.09024 c -0.004,0.0059 -0.004,0.03016 -0.004,0.03016 -0.0098,-0.0013 -0.0541,-0.02517 -0.05478,-0.03345 0.0094,-0.0027 0.0481,0.0014 0.0574,0.004 z m -0.134026,-0.115477 c 0,0.004 0.004,0.0059 0.004,0.0059 -0.004,0.0072 -0.004,0.02179 -0.004,0.02518 -0.0075,-0.0027 -0.01091,-0.02015 -0.01583,-0.02599 0.0039,0 0.01092,-0.0017 0.01583,-0.0046 z m -0.0075,0.05702 c -0.003,-0.0046 -0.0075,-0.0093 -0.0094,-0.01505 0.05569,-0.0082 0.01583,0.07376 0.0094,0.01505 z m -0.109723,0.004 c 0.003,0.0072 -0.01584,-0.004 -0.01584,-0.004 0.0094,-0.0065 0.01347,-0.0046 0.01584,0.004 z m -0.147916,-0.36846 c -0.004,0.004 -0.0098,0.0059 -0.01581,0.0082 0.0065,0.01254 0.01954,0.01587 0.0398,0.0046 0.004,0.01087 -0.02025,0.02015 -0.02181,0.02598 0.02625,0.0065 0.06507,0.03266 0.06679,0.05954 0.0039,-0.0013 0.0039,-0.0027 0.0075,-0.0027 0.01503,-0.0065 0.01503,0.0093 -0.0029,0.02762 0.0039,0.0013 0.0094,0.0018 0.01421,0.004 0,0.0043 -0.115641,0.01505 -0.128298,0.01419 0.0075,-0.0134 0.04564,-0.01934 0.04564,-0.0268 -0.004,0.004 -0.0413,-0.0027 -0.0413,-0.0046 0,-0.0085 0.01349,-0.01085 0.01349,-0.02682 0.01089,0.0013 0.02938,0.0013 0.02938,-0.01255 -0.0098,0 -0.0187,-0.0016 -0.0109,-0.01166 -0.004,-0.0013 -0.03219,0.0026 -0.031,-0.004 0,-0.01505 0.01778,-0.0075 -0.004,-0.0185 -0.0039,0.0027 -0.0039,0.004 0,0.004 -0.0039,0 -0.0039,0 -0.0039,0 0,-0.01586 -0.004,-0.01252 -0.004,-0.02433 -0.0094,-0.0016 -0.01412,-0.0039 -0.01412,-0.0075 0.004,0 0.01779,0.0046 0.01779,0.0027 -0.0125,-0.004 0.04391,-0.03347 0.04201,-0.01169 z m -0.02938,0.07035 c 0,-0.0027 0.0028,-0.004 0.0041,-0.0046 0.0028,0 0.0039,0.0013 0.0039,0.0013 0,0.0013 -0.0028,0.0027 -0.0028,0.0043 -0.004,-0.0013 -0.004,-0.0013 -0.0076,-0.0013 z m -0.02354,-0.07292 c 0,0.004 -0.004,0.0085 -0.0126,0.0075 -0.01348,0 0.0109,-0.0075 0.0126,-0.0075 z m -0.06914,0.06865 c 0.0027,-0.0075 0.02179,-0.0045 0.02699,-0.0075 -0.0126,-0.01338 0.02093,-0.01338 0.02697,-0.0117 0.03888,0.0027 0.0098,0.02015 0.0098,0.02436 -0.0028,0.03095 -0.02179,0.04103 -0.05642,0.03855 -0.03622,-0.0027 0.004,-0.02517 0.004,-0.03427 -0.004,-0.004 -0.0066,-0.0065 -0.012,-0.0093 z M 13.1421,12.209354 c 0.0067,0 0.01419,0 0.02032,0 -0.004,0 -0.0093,0 -0.01258,-0.0027 0.004,-0.0027 0.01087,-0.002 0.01687,-0.002 -0.0022,-0.0013 -0.004,-0.0013 -0.004,-0.0016 0.0077,-0.0016 0.01586,-0.0016 0.02363,-0.0027 -0.0041,-0.0013 -0.0098,-0.0013 -0.0067,-0.0027 0.01348,0 0.0413,0.01167 0.04973,0.0059 l -0.0022,-0.0013 c 0.0098,-0.0013 0.0092,0.0013 0.0038,0.0046 0.01346,-0.0075 0.01688,0.0093 0.03889,-0.0059 0.0039,-0.0013 -0.0098,-0.0039 -0.01416,-0.0039 0.0098,0 0.01257,-0.0013 0.0067,-0.0027 -0.01089,0 -0.01954,-0.002 -0.02107,-0.004 0.0039,-0.0013 0.0093,-0.002 0.01259,-0.0027 -0.004,0.0013 -0.01192,0.0013 -0.01772,0.0013 0.0093,-0.004 0.01873,-0.004 0.02939,-0.004 -0.0098,-0.0016 -0.02032,0.004 -0.03037,0.0016 0.0052,-0.0013 0.0093,-0.0016 0.01418,-0.0027 -0.0095,0.0016 -0.01778,0.0016 -0.02701,0.0016 0.04891,-0.01766 0.187369,-0.03006 0.236313,-0.01255 -0.02542,0.0065 0.04131,-0.004 0.03888,0.0027 -0.004,0.0046 -0.0421,0.0046 -0.04564,0.0046 0.0039,0.0013 0.01344,-0.0013 0.02033,-0.0013 -0.03544,0.01003 -0.07341,0.0092 -0.108879,0.01766 0.0041,0 0.0053,0 0.0095,0 -0.004,0.0027 -0.004,0.0027 -0.01258,0.0027 0.004,0.0013 0.0067,0.0013 0.0067,0.004 -0.0159,0.004 -0.02456,0.0065 -0.0413,0.0085 -0.004,0.0075 -0.01782,0.004 -0.02458,0.01005 0.004,-0.0013 0.01587,-0.0016 0.0141,0 -0.027,0.02599 -0.08947,0.004 -0.129126,0.0065 0.0077,-0.0027 0.01587,-0.004 0.02458,-0.004 -0.02173,-0.01004 0.02781,-0.004 0.03452,-0.004 -0.01087,-0.0082 -0.02939,-0.0065 -0.0405,-0.0039 0,0.0013 0.0037,0.0016 0.0022,0.0027 -0.0093,0 -0.03888,-0.0027 -0.04728,0.0013 0.0036,0 0.0041,0 0.0041,0 -0.0036,0 -0.0041,0.0013 -0.0067,0.0013 0.0022,0 0.0036,-0.0013 0.0036,-0.0013 -0.0039,0 -0.0041,-0.0013 -0.0067,-0.0039 0.01185,-0.0027 0.02366,-0.004 0.03549,-0.004 -0.0041,-0.0013 -0.02273,-0.0016 -0.03382,-0.0016 0.0022,0 0.004,0 0.004,-0.0013 -0.01349,0.0039 -0.02113,0.0039 -0.0152,0 z m 0.146848,0.0553 c -0.0098,0.004 -0.03289,0.004 -0.04385,0.004 -0.0022,0 -0.0169,-0.0039 -0.01258,-0.0065 0.01258,-0.01005 0.04298,-0.0017 0.05644,0.0016 z m -0.188254,-0.05275 c 0.004,0 0.01087,0 0.01349,-0.0013 -0.0036,0.0013 -0.004,0.0027 -0.004,0.0039 0.0068,0 -0.01419,0.0013 -0.0093,-0.0027 z m 0.01949,0.01586 c 0.004,-0.0013 0.004,0 0,0 v 0 c -0.0094,0 -0.04207,0.0027 -0.02172,-0.0013 -0.0099,-0.0084 0.0322,-0.01088 0.02172,0.0013 z m 0.01522,0.0016 c -0.0041,0.0027 -0.0076,0.004 -0.01189,0.004 -0.004,0 -0.02276,-0.0013 -0.02276,-0.0013 0.01186,-0.0027 0.02358,-0.0027 0.03453,-0.0027 z m 0.02032,0.01255 c -0.004,0.0013 -0.01085,0.0013 -0.01588,0.0013 -0.004,0.004 0.0098,0.0016 0.01353,0.0039 -0.0095,0.0027 0.116476,-0.0084 0.11817,-0.0013 -0.004,0 -0.004,0.0013 -0.0076,0.0027 0.004,0 0.004,0 0.004,0 -0.03117,0.01933 -0.09024,-0.0093 -0.118169,0.0059 -0.0076,0 -0.05907,0 -0.03116,-0.004 -0.0039,-0.0085 -0.0068,-0.01004 -0.01521,-0.004 -0.0067,0 -0.0135,-0.0016 -0.02034,-0.004 0.004,-0.004 0.06998,-0.004 0.07172,0.0027 z m -0.06063,0.0084 c 0.01257,0.0059 -0.03548,0.0039 -0.03548,0.0039 0.004,-0.0016 0.0093,-0.0027 0.0095,-0.0027 0.0093,-0.004 0.01689,-0.0059 0.02629,-0.0027 z m -0.07604,-0.02597 c 0.0036,0 0.004,-0.0013 0.004,-0.0016 -0.004,0 -0.0055,-0.0013 -0.004,-0.0016 0.01087,-0.0016 0.0456,-0.0046 0.05409,0.0039 -0.0036,0 -0.004,0.0013 -0.004,0.0016 0.004,0.004 -0.0093,0.0046 -0.0236,0.0046 -0.0041,0.0013 -0.0076,0.0013 -0.01258,0.0016 0.004,0 0.0053,-0.0013 0.0095,-0.0016 -0.01181,0 -0.02457,-0.0016 -0.02698,-0.004 0.0055,0.0013 0.01259,-0.0013 0.01768,-0.004 -0.0098,0.0016 -0.0135,0.0027 -0.01417,0.0016 z m -0.0263,0.0093 c 0.0098,-0.0013 0.004,0.0039 0.01188,0.0039 -0.004,0.0013 -0.0055,0.0027 -0.0093,0.0027 -0.004,0.0013 -0.0067,-0.004 -0.004,-0.0059 z m -0.0036,0.01169 v 0 c 0,-0.0039 0.0187,0.0027 0.02366,0.004 h 0.0025 c -0.0036,-0.0013 -0.004,-0.0013 -0.004,-0.0016 0.0093,-0.0046 0.01588,0.0027 0.0254,-0.004 -0.0067,0.0013 -0.01256,0.0013 -0.0098,-0.0016 0.004,-0.0013 0.038,0 0.038,0 0,0.02178 -0.04298,0.0084 -0.05238,0.01417 0.004,-0.004 0.01688,-0.004 0.02178,-0.0059 -0.004,-0.0027 -0.01259,-0.002 -0.02033,-0.002 0,0.0015 0,0.0015 0,0.0015 0,0 0,0 -0.0026,-0.0015 -0.0093,0.002 -0.01689,0.0027 -0.02275,0.0027 0.0026,-0.0013 0.0026,-0.0013 0.0036,-0.0027 -0.004,0.002 -0.004,0 -0.0067,-0.0013 z m 0.038,0.02436 c -0.0076,0.004 -0.0152,0.004 -0.02361,0.0065 0.0041,0 0.02033,-0.004 0.0095,0.0027 0.0036,0 0.0067,0.0013 0.0093,0.0013 -0.01587,0.0093 -0.05477,0.02263 -0.06914,0.0027 0.0109,-0.0065 0.02175,0.0014 0.03283,-0.0065 -0.03042,-0.0013 0.0397,-0.004 0.0421,-0.0059 z m -0.04889,0.0494 c -0.0076,0.0027 -0.06163,0.0027 -0.03382,-0.0027 -0.01086,0.0027 0.0421,-0.01586 0.03382,0.0027 z m -0.01181,-0.06034 c -0.004,0.0013 -0.004,0 -0.0076,0.0013 0.0055,-0.0039 0.01188,-0.0039 0.0187,-0.0043 -0.0036,0.004 -0.004,0.0059 -0.01086,0.004 z m -0.04898,-0.02516 c 0.0055,-0.0039 0.02634,-0.0027 0.038,-0.0027 0.0039,-0.0013 0.0041,-0.0013 0.0075,-0.0013 -0.0026,0.0013 -0.004,0.0013 -0.0075,0.0013 -0.0036,0 -0.004,0.0013 -0.004,0.0013 0.0026,0.0013 0.0036,0.002 0.0036,0.0027 -0.02275,0.0027 -0.0254,0.004 -0.0093,0.0027 -0.004,0.0039 -0.02033,0.004 -0.02778,0.004 -0.0093,0.0013 0.0041,-0.004 0.01872,-0.0093 -0.0068,-0.0016 -0.01189,-0.0013 -0.01688,0.0013 z m -0.01087,0.004 c -0.0041,0.0039 -0.0093,0.0039 -0.01187,0.0013 0.004,-0.0027 0.0093,-0.0027 0.01187,-0.0013 z m -0.02625,0.01004 c 0.004,-0.0013 0.0093,-0.0013 0.01258,-0.0013 -0.004,0.0027 -0.0077,0.0041 -0.01195,0.004 -0.0036,-0.0013 -0.0041,-0.0016 -0.0026,-0.0027 z m -0.004,-0.0059 c 0.004,0.0016 0.004,0.004 -0.0055,0.004 -0.004,0.0046 -0.0093,0.0075 -0.01688,0.0059 0.0055,-0.0075 0.01353,-0.01087 0.02276,-0.01005 z m -0.03218,0.01666 c 0.004,-0.0027 0.0068,-0.0027 0.01194,-0.0027 -0.0026,0 -0.0036,-0.0013 -0.004,-0.0013 0.004,-0.0016 0.0077,-0.0027 0.01188,-0.0027 -0.0036,0 -0.004,-0.0013 0,-0.0016 0.01949,-0.0027 0.03888,0.01166 0.06006,0.004 -0.004,0.0013 -0.004,0 -0.0068,-0.0013 0.004,0 0.0068,-0.0013 0.0093,-0.0027 -0.01588,-0.0013 0.01953,-0.0065 0.02274,-0.0065 -0.01943,0.0093 0.02036,0.0059 0.01688,0.0082 -0.02777,0.01585 -0.0717,0.004 -0.102124,0.0093 0,0.0059 -0.004,0.0075 -0.01419,0.0045 0.004,-0.0027 0.0093,-0.0045 0.01419,-0.0045 0,0 0,-0.0013 0,-0.0013 -0.004,0 -0.0055,0.0017 -0.0076,0.0027 -0.0076,0.0016 -0.01586,0.0027 -0.02363,0.0016 0.0041,-0.004 0.0093,-0.0075 0.0142,-0.0065 -0.0036,0.0013 -0.004,0 -0.004,0 z m -0.07262,0.05444 c 0.0039,-0.0046 0.02627,-0.02264 0.03982,-0.02761 -0.0026,0 -0.0036,0 -0.004,0 0.0041,-0.0027 0.0067,-0.004 0.0099,-0.0065 0.0026,0.0027 0,0.004 -0.0026,0.0046 0.004,0 0.004,0.0016 0.004,0.0065 0.02113,-0.0041 0.05479,0.0065 0.05147,0.0065 0.02032,-0.0013 0.04049,-0.03265 0.06749,-0.02345 -0.0036,-0.0013 -0.02458,0.01417 -0.02629,0.01761 -0.0098,0.02095 0.0036,0.0082 0.01588,0.02015 -0.0067,0.0027 -0.02115,0.0013 -0.027,0.0039 0.0026,-0.0013 0.004,0.004 0.004,0.004 -0.01952,0.0093 -0.134206,0.01341 -0.139263,0.0075 -0.0036,-0.0013 -0.0095,0 -0.01522,0 0.01689,-0.01341 0.02623,-0.01254 0.0465,-0.01504 -0.0093,-0.0039 -0.02103,-0.0016 -0.027,0 z m -0.02455,0.0185 c 0.004,-0.0013 0.004,0.0016 0.004,0.0065 -0.004,0.0013 -0.0098,0.0013 -0.01522,0.0027 0.004,-0.0039 0.0076,-0.0065 0.01086,-0.0093 z m -0.271486,0.931571 c 0.004,-0.0059 0.004,-0.0093 0.01087,-0.01085 0.004,-0.0059 0.004,-0.01167 0.0067,-0.0065 -0.01189,0.03428 -0.0135,0.01005 -0.01773,0.01756 z m 0.08604,0.163362 c -0.04891,0.0018 -0.02697,-0.02516 -0.02101,-0.02435 0.0093,0.0026 0.01588,0.01086 0.01953,0.01502 0,-0.0015 0,-0.0026 0,-0.004 0.004,0.004 0.004,0.0072 0.0036,0.01256 z m 0.0026,-0.09134 c 0.01421,-0.03427 0.004,-0.08881 -0.04813,-0.09466 -0.01349,-0.04525 -0.0177,0.01166 -0.05907,0.006 0.04131,-0.05276 0.07343,-0.06116 0.119007,-0.01586 0.0142,0.01503 0.0481,0.062 0.04653,0.07459 0.02276,0.0065 0.0055,0.01933 0.01688,0.03511 -0.02361,0.03094 -0.04893,-0.0015 -0.07503,-0.0039 z m 0.06996,-0.190159 c 0.0039,-0.004 0.004,0.01255 0.004,0.01586 -0.0093,0.01758 -0.004,-0.01339 -0.004,-0.01586 z m 0.06914,0.285673 c -0.0036,-0.01586 -0.02623,0.02266 -0.03219,0.02095 0,0 -0.03723,-0.0653 -0.05239,-0.02352 -0.0397,-0.02354 0.03888,-0.03015 0.04298,-0.02758 0.0026,-0.0072 0.0036,-0.0821 0.02112,-0.05367 0.0093,0.01418 0.02179,0.004 0.0345,0.004 0.02635,0.004 0.02277,0.02926 0.03219,0.04688 -0.0036,-0.0059 -0.0039,-0.0084 0,0.0015 0,0 0,-0.0015 0,-0.0015 0.004,0.01086 0.0095,0.03426 0.0095,0.03262 -0.004,0 -0.05567,0 -0.05567,-0.0015 z m -0.05661,-0.333538 c 0.004,-0.004 0.0093,-0.0059 0.01349,-0.0059 0.004,0.0015 0.004,0.004 0.004,0.0082 -0.0093,0 -0.01521,-0.0027 -0.01871,-0.0027 z m 0.04886,0.176767 c -0.0036,0.01086 -0.0076,0.01587 -0.01945,0.01502 -0.01187,-0.0039 0.01688,-0.01257 0.01945,-0.01502 z m -0.02033,-0.169199 c 0,0.0027 0,0.0046 0,0.0085 -0.004,0 -0.0036,-0.0046 0,-0.0085 z m 0.108873,0.348505 c 0.0055,-0.01761 0.03453,0.0059 0.03546,0.01505 -0.0093,0.01256 -0.0405,0.004 -0.03546,-0.01505 z m 0.361407,-0.764104 c -0.02698,0.01506 0.0026,-0.03093 0.038,-0.03264 -0.0094,0.0017 -0.01182,-0.0017 -0.0054,-0.0085 -0.02699,0.0014 -0.07263,0.03181 -0.09369,0.0268 -0.02276,-0.004 -0.09287,0.05187 -0.05409,0.05105 -0.02355,0.0083 -0.05821,0.0065 -0.08354,0.01773 0.004,0 0.01952,-0.0039 0.02367,0.0013 -0.01421,0.004 -0.07857,0.02683 -0.07437,0.03607 -0.01187,0.0065 -0.01587,0.04439 -0.03794,0.04361 0.0036,0 0.0095,-0.03181 0.0099,-0.03514 -0.004,0.004 -0.02455,0.03858 -0.02273,0.04439 0.0036,0 0.004,0 0.004,0 -0.004,0.0072 -0.0095,0.01339 -0.01773,0.01586 0,0.0043 0.004,0.0059 0.0055,0.0065 -0.0068,0.0083 -0.02457,0.0046 -0.01258,0.01849 -0.01511,0.01168 -0.03548,0.01419 -0.05147,0.02517 0,0 0.0026,0.0018 0.0026,0.0018 -0.06505,0.0268 -0.122382,0.05533 -0.130825,0.131528 -0.004,0.01934 -0.02536,0.104719 -0.05407,0.10137 -0.02629,-0.004 0.02366,-0.127338 0.02032,-0.137389 0,-0.0014 -0.07262,-0.01341 -0.06914,-0.02016 -0.01088,0.0027 -0.02174,0 -0.03452,0.004 0.004,0.004 0.004,0.004 0.0093,0.0014 -0.0076,0.01168 -0.01689,0.01848 -0.01351,0.02599 -0.02113,0.0093 -0.0405,-0.03347 -0.06916,-0.01771 -0.04298,0.02266 -0.07434,0.04275 -0.09875,0.08543 -0.0026,0 -0.0026,0 -0.0036,0 -0.0055,0.01504 -0.132509,0.222845 -0.07435,0.235418 0.07933,0.01665 0.08268,-0.09384 0.168806,-0.07959 -0.01086,0.02264 -0.03042,0.03857 -0.0405,0.06117 -0.0067,0.01419 -0.01349,0.02181 -0.02034,0.03012 -0.0098,0.01586 -0.09791,0.08796 -0.02114,0.09133 0.09199,0.0059 0.0236,0.09217 0.004,0.139071 -0.01588,0.04194 -0.04972,0.178444 0.02946,0.144935 0.03792,-0.01586 0.0389,0.04027 0.04485,0.06201 -0.004,0.004 -0.03114,0.02926 -0.03114,0.02926 -0.0036,-0.01257 0.01257,-0.05701 -0.004,-0.06365 -0.03548,-0.01256 -0.03791,0.07124 -0.05569,0.06365 -0.03382,-0.01341 -0.01688,-0.142419 -0.04201,-0.150793 -0.0039,0.004 -0.0039,0.0093 -0.0039,0.01256 -0.004,-0.0016 -0.004,-0.0018 -0.0055,-0.0026 -0.0067,-0.02598 0.01589,-0.05274 0.01418,-0.08039 -0.0036,-0.02435 -0.0041,-0.04523 0.0036,-0.06953 -0.0228,-0.0065 -0.04388,-0.02264 -0.05567,-0.05188 -0.004,-0.01085 0.0026,-0.06445 -0.01089,-0.06699 -0.0075,-0.03096 -0.02173,0.0093 -0.03622,0.0045 -0.01588,-0.004 -0.02101,-0.0578 -0.03452,-0.0578 0.04481,-0.242114 0.144323,-0.473333 0.289499,-0.674401 0.07085,-0.09886 0.153608,-0.188499 0.244759,-0.269763 0.02948,-0.0268 0.06582,-0.05864 0.111427,-0.04277 0.0077,0.0027 0.03119,0.0013 0.0448,-0.01005 -0.0026,0 -0.0036,0 -0.0036,0 -0.0075,0.0016 -0.03042,0.0046 -0.02698,0.0027 0.0041,-0.0027 0.01258,-0.0027 0.02698,-0.0027 0.0036,0 0.004,0 0.004,0 0,0 -0.0026,0 -0.0026,0 0.03546,0.0016 0.09196,0.0085 0.112238,0.004 0.0041,-0.0027 0.0076,-0.004 0.0076,-0.004 0,0.0027 -0.004,0.004 -0.0076,0.004 -0.004,0.0027 -0.004,0.004 0.0041,0.0027 0.0142,-0.01086 0.03801,-0.0082 0.04386,-0.01666 -0.0041,0.0013 -0.0076,0.0016 -0.01258,0.0027 0.0041,-0.0027 0.0093,-0.004 0.01258,-0.0065 0.0041,-0.004 -0.02032,-0.0046 -0.0159,-0.0085 0.0159,-0.01169 0.07263,-0.01339 0.05906,-0.004 -0.0053,0.0027 -0.01186,0.004 -0.01769,0.004 0.0026,0.0039 0.0135,0.0013 0.01871,0.0027 -0.01871,0.0043 0.004,0.0013 -0.0093,0.01085 -0.004,0 0.04651,-0.01167 0.03715,-0.0039 -0.01188,-0.0013 -0.01588,0.0039 -0.01418,0.01254 0.01351,0.01341 0.05409,-0.0235 0.06504,-0.02595 -0.0026,0 -0.08359,-0.0016 -0.07342,-0.0093 0.01182,0.0039 0.02172,0.0039 0.03042,-0.004 -0.004,-0.0016 -0.02865,-0.0027 -0.02865,-0.0027 -0.004,-0.01085 0.0312,-0.01586 0.0372,-0.01851 -0.0098,0.004 -0.02781,0.002 -0.03801,0.0065 0.0036,0 0.004,0 0.004,-0.0013 -0.0093,0.004 -0.01767,0.0075 -0.0278,0.0065 0.02948,-0.02015 0.04483,-0.02015 0.08529,-0.0218 -0.0067,0.004 -0.01258,0.0041 -0.02032,0.0065 0.01952,-0.004 0.03714,-0.004 0.05567,-0.004 -0.0067,0.0017 -0.03968,0.01006 -0.02944,0.01006 -0.02175,0.01004 0.06997,-0.02095 0.07501,-0.0046 0.0022,0.0013 -0.004,0.0084 -0.0054,0.0084 0.03889,0 0.07083,0.01253 0.10803,0.01337 0,0.0013 -0.0022,0.0017 -0.0022,0.0027 0.004,-0.0013 0.0092,0 0.0118,0.004 -0.0041,0.0013 -0.0093,0 -0.01089,0.0027 0.0039,-0.0013 0.0095,0 0.0125,0.0016 -0.004,0.0016 -0.0076,0.0016 -0.0109,0.004 0.004,0.0016 0.0481,0.01586 0.0473,0.01766 -0.004,0.02015 -0.03621,0.01085 -0.05238,0.0093 -0.0039,0.004 -0.004,0.0013 -0.0067,0.0059 0.0093,-0.0013 0.01253,0.01085 0.02459,0.0093 -0.0093,0.03012 -0.0093,0.01254 -0.04299,0.01933 -0.0022,-0.0016 0.0389,0.01759 0.01781,0.02261 -0.02639,0.004 -0.05645,-0.01339 -0.07265,-0.02095 -0.0053,-0.0039 -0.07501,0.004 -0.07262,0.0013 0.0152,-0.02016 0.05478,-0.01341 0.07605,-0.02351 -0.01689,-0.0046 0.04388,-0.01585 0.02362,-0.03007 0,0.01341 -0.03282,0.0039 -0.03219,0.0039 0.0093,-0.0039 0.01689,-0.0075 0.02703,-0.0065 -0.0041,-0.0027 -0.02865,-0.0039 -0.02941,-0.0039 0.0041,-0.0013 0.0076,-0.0016 0.01186,-0.004 -0.004,-0.0027 -0.0054,-0.0046 -0.0093,-0.0046 -0.004,0 -0.01089,0.0016 -0.01419,0.0046 0.0041,-0.004 0.0099,-0.0046 0.01419,-0.0046 0,0 0.0022,0 0.0038,0 -0.0099,-0.0039 -0.04808,0.004 -0.04049,-0.0016 -0.0054,0 -0.01587,0 -0.02698,0.0013 0.0093,0.0013 0.01687,0.0046 0.02541,0.0046 -0.01587,0.01342 -0.0465,0.02761 -0.07935,0.03774 0.0067,-0.0016 0.004,0.0016 0.004,0.004 -0.0055,0 -0.0076,-0.0016 -0.004,-0.004 -0.004,0.0016 -0.01085,0.004 -0.01689,0.0046 0,0.0016 0.0026,0.0027 0,0.004 0.0041,-0.0027 0.0278,0.0013 0.03041,0.0065 0,0.0016 -0.004,0.004 -0.0036,0.0046 0.0041,0.0039 0.0152,0.0013 0.01589,0.0039 -0.02272,0.0059 -0.06164,0.01005 -0.0853,0.01166 -0.0055,0 -0.0036,-0.0027 0.004,-0.0046 -0.0067,-0.0013 -0.01688,0.0013 -0.02104,0.0013 0.0076,-0.0059 0.02864,-0.01758 0.04483,-0.02517 -0.01769,0.0027 -0.03454,0.0027 -0.0481,-0.0017 -0.0036,0.0075 0.01588,0.0039 0.02944,0.0065 -0.01955,0.01586 -0.06916,0.02266 -0.09877,0.01933 0.004,0.0013 0.0041,0.0027 0.0077,0.0039 -0.02626,0.02355 -0.08778,0.04277 -0.119845,0.06364 0.02536,-0.0039 0.02274,0.0046 0.0055,0.02265 0.06007,-0.0027 0.05409,0.03264 0.102144,0.03095 0.01588,0.01086 -0.0076,0.02599 -0.0095,0.03426 0.0053,-0.0013 0.01688,-0.0013 0.01186,0.0046 -0.004,0.0013 -0.0076,-0.0013 -0.01186,-0.0027 0.0036,0.0039 0.0098,0.0039 0.03042,0.0039 0.0236,-0.02598 -0.004,-0.0351 0.04206,-0.05367 0.05742,-0.02265 0.01522,-0.02265 0.01418,-0.05188 0.06162,-0.01341 0.0372,-0.06782 0.119,-0.02843 0.02362,0.01085 0.09457,0.03181 0.112257,-0.0013 -0.01085,0.0185 -0.004,0.02097 0.0054,0.02435 -0.004,-0.0027 -0.0067,-0.004 -0.0095,-0.0075 0.02101,-0.02844 0.06676,0.03181 0.03026,0.04439 0.004,0.004 0.0098,0.0082 0.0246,0.0082 l -0.0022,0.0013 c -0.01196,0.02015 0.04809,0.01417 0.04298,0.02015 -0.0093,0.0084 -0.0473,0.01172 -0.06411,0.01586 0.0039,0.0082 0.07088,-0.0093 0.07672,-0.01167 0.02096,0.07036 -0.19074,0.06367 -0.234631,0.09887 0.0041,0 0.112248,-0.02519 0.103847,-0.0093 -0.0076,0.01254 -0.02701,0.0093 -0.03796,0.01586 0.0054,0 0.01257,0.0017 0.01586,0.0017 -0.03802,0.04603 0.0473,0.04028 0.04297,0.0486 -0.01348,0.01505 -0.087,0.02682 -0.102943,0.03514 z m -0.119574,-0.298851 c -0.0092,0.004 -0.02699,0.01006 -0.03546,0.01087 0.0036,-0.0014 0.004,-0.0027 0.004,-0.0039 0.0098,-0.004 0.02032,-0.01007 0.03118,-0.0075 z m 0.240562,0.171739 c 0.01344,0.0027 -0.01193,0.01006 0,0 z m -0.0039,0.02094 c -0.01258,0.01005 -0.03219,-0.004 -0.04202,-0.0117 0.02274,-0.0039 0.03116,0.0059 0.04202,0.0117 z m -0.03451,0.05188 c -0.0093,0.01673 -0.0398,-0.0013 -0.03722,-0.0046 0.0022,-0.0027 0.0041,-0.0039 0.0041,-0.0039 0.0076,0.01085 0.01873,0.01418 0.03218,0.01005 z m 0.01255,0.01005 c 0.0076,-0.0075 0.01587,-0.01419 0.02632,-0.0185 0,0.0027 0.004,0.0039 0.004,0.0046 -0.004,0.0039 -0.01517,0.0082 0.0039,0.0082 -0.0041,0.01168 -0.03383,0.01255 -0.03038,0.004 z m 0.09126,-0.02262 c 0,0 -0.03451,0.01757 -0.03288,0.01417 0.004,-0.004 0.0067,-0.0065 0.01192,-0.0084 -0.0093,0 -0.08604,-0.0059 -0.08528,-0.0059 0.004,-0.0082 0.01587,-0.0039 0.01954,-0.01337 -0.0039,0 -0.0039,-0.0013 -0.0039,-0.0027 0.03032,-0.0093 0.0541,-0.05446 0.087,-0.05446 0.0098,0 -0.0294,0.0318 -0.03037,0.03425 0.0076,-0.0039 0.01519,-0.0039 0.02362,-0.0027 -0.004,0.0017 -0.0053,0.004 -0.0067,0.0072 0.0039,0 0.0093,0 0.01249,0 0,0.0013 -0.0039,0.0027 -0.0039,0.0027 0.0039,0 0.0067,-0.0017 0.0098,-0.0027 0.0076,0.0027 0.01694,0.0027 0.02172,0 -0.0039,0.0046 -0.0039,0.0093 -0.0075,0.0167 0.004,-0.0013 0.0053,-0.0017 0.0095,-0.0017 -0.0053,0.01167 -0.0041,0.0046 -0.0095,0.01666 0.0075,0.0013 0.0053,-0.0017 0.0109,-0.004 -0.01415,0.03941 -0.0125,0.01758 -0.02778,0.0027 z m 0.430663,-0.348492 c -0.0066,0.02014 -0.03219,-0.01253 -0.03543,0 0.0055,0.004 0.0405,0.0085 0.03621,0.02181 -0.004,0.0093 -0.04388,-0.0059 -0.04975,-0.0075 -0.004,0.0059 0.004,0.0059 -0.0075,0.0075 -0.004,0.0059 0.03622,0.004 0.04483,0.0065 -0.03622,0.01255 -0.07606,0.0185 -0.113927,0.0185 -0.02458,0.0065 -0.0389,0.02343 -0.06751,0.02264 0.0026,-0.0016 0.0026,-0.0026 0.0039,-0.004 -0.02627,0.004 -0.05742,0.05783 -0.07083,0.05619 -0.0096,-0.0013 -0.07263,-0.02927 -0.04974,-0.04194 -0.004,-0.0046 -0.02359,-0.0085 -0.01253,-0.02353 -0.004,-0.0013 -0.004,-0.0013 -0.004,0 0.004,-0.0134 0.02701,-0.01586 0.03547,-0.02678 -0.0093,-0.0016 -0.02787,-0.0027 -0.02702,-0.0075 0.0075,-0.0016 0.01877,0.0075 0.02362,0 -0.0039,0 -0.021,-0.01086 -0.02786,-0.01005 0.0076,-0.004 0.0093,-0.0065 0.0024,-0.0084 0.01192,-0.02845 -0.04976,-0.02845 -0.06681,-0.02436 0.0023,0 0.0023,0.0013 0.0039,0.0013 -0.004,0.0014 -0.01092,0 -0.01587,-0.0027 0.004,-0.0013 0.004,-0.0013 0.004,-0.0027 -0.004,-0.0027 -0.0098,-0.0039 -0.01517,-0.0017 0.0052,-0.0093 0.02706,0 0.03452,-0.0082 -0.004,0 -0.0405,0.004 -0.03888,-0.0027 0.0076,-0.01506 0.04651,-0.0013 0.05479,-0.01668 -0.0039,0.0013 -0.01088,0 -0.01586,-0.0016 0.0093,-0.01755 0.09371,-0.02095 0.106353,-0.02178 0.004,-0.0059 0.01255,-0.0046 0.01958,-0.0027 -0.0025,-0.0013 -0.0038,-0.0027 -0.0025,-0.0027 0.004,-0.0059 0.03803,0 0.0448,0 -0.004,0 -0.0099,-0.0013 -0.01409,-0.004 0.004,-0.0016 0.0093,-0.0027 0.01263,-0.0027 -0.0039,-0.0013 -0.0039,-0.0013 -0.0039,-0.0016 0.08435,-0.01934 0.178081,-0.01506 0.264176,-0.01254 -0.0055,0.004 -0.01587,0.0084 -0.02782,0.01004 0.0094,-0.0013 0.01588,-0.0017 0.01588,0 -0.0027,0.0013 -0.0345,0.01086 -0.03621,0.01341 0.0096,-0.0016 0.173037,-0.02095 0.171336,-0.01851 -0.004,0.0084 -0.03974,0.01005 -0.05743,0.01086 -0.004,0.0093 -0.07087,0.02345 -0.08267,0.03009 0.0098,-0.0027 0.02024,-0.0013 0.03033,0.002 -0.004,0.0013 -0.0053,0.0016 -0.0094,0.0016 0.0055,0.0013 0.01203,0.0027 0.0179,0.0046 -0.004,0.01087 -0.03888,-0.0046 -0.04386,0.0065 -0.0039,0.0027 0.02034,0.0013 0.01706,0.01005 -0.004,0.0093 -0.01419,0 -0.01706,0.0065 0.004,0.0039 0.01089,0.0046 0.01706,0.0039 -0.004,0.004 -0.01348,0.004 -0.02267,0.004 0,0.0016 0.0039,0.0027 0.0039,0.0039 -0.01089,0.01256 -0.03221,0.004 -0.04564,0.004 0.0096,0.004 0.01704,0.0075 0.02355,0.01167 z m 0.02096,0.03693 c 0.0066,0 0.01955,0 0.02543,-0.0013 0.0027,0.0013 -0.01956,-0.0084 -0.01871,-0.01085 0.0066,-0.0013 0.01706,-0.004 0.02355,-0.004 -0.0066,0.01502 0.0094,0.0093 0.0135,0.0059 0.004,0.0065 0.01347,0.0013 0.02033,0.004 0.0027,-0.004 0.0524,-0.0013 0.05825,0 -0.01348,0.0039 0.0066,0.01341 0.004,0.01932 -0.04894,0.02095 -0.07503,0.002 -0.120689,-0.0027 0.0039,-0.0016 0.0039,-0.0027 0.0039,-0.0027 0.004,-0.004 0.004,-0.004 0.0094,-0.0082 -0.0055,-0.0013 -0.01504,0.0016 -0.01788,-0.0016 z m 1.362237,1.816292 c -0.004,0.03012 0.03973,0.06034 0.02789,0.08796 -0.03458,0.07293 0.03112,0.146612 -0.05409,0.200232 -0.0294,0.01849 -0.06834,0.03511 -0.07504,0.07377 -0.05479,0.01085 -0.004,0.0754 -0.004,0.102206 -0.0039,0.06199 -0.0142,0.04859 -0.05315,0.08125 -0.04051,0.03427 -0.004,0.0636 -0.03617,0.104716 -0.03209,0.03774 -0.04893,0.08294 -0.07859,0.123157 -0.0125,0.01667 -0.07342,0.03855 -0.07606,0.05186 -0.033,0.004 -0.06065,-0.004 -0.09287,0.01256 -0.03038,0.01586 -0.06579,-0.0039 -0.07669,0.0014 0.0032,-0.107241 -0.08531,-0.188506 -0.09789,-0.300763 -0.004,-0.05188 -0.0066,-0.07203 -0.03112,-0.118957 -0.02545,-0.04942 -0.04657,-0.104716 -0.03623,-0.16085 0.0075,-0.04104 0.04048,-0.06868 0.04971,-0.107241 0.0094,-0.03854 -0.0095,-0.09882 -0.01958,-0.136513 -0.0109,-0.04026 -0.01345,-0.09049 -0.0405,-0.123989 -0.02703,-0.03346 -0.07339,-0.07794 -0.0557,-0.125663 0.02703,-0.07291 0.03972,-0.148284 -0.06678,-0.146612 -0.03289,0.0016 -0.0294,-0.06365 -0.06835,-0.06283 -0.05238,0.0018 -0.09458,0.06114 -0.138406,0.06201 -0.01785,0.0016 -0.03297,-0.01586 -0.05146,-0.01503 -0.02276,0 -0.03887,0.01255 -0.05907,0.02015 -0.04481,0.01503 -0.0776,-0.02843 -0.105509,-0.05617 -0.0372,-0.03774 -0.04386,-0.08797 -0.07859,-0.126498 -0.01951,-0.02095 -0.03889,-0.04273 -0.05411,-0.06782 0.0027,0 0.004,0 0.004,0 0,-0.02927 -0.01871,-0.05864 -0.004,-0.08124 0.01504,-0.02351 0.02541,-0.05618 0.027,-0.08462 0.0039,-0.04025 -0.027,-0.09802 -0.0053,-0.134881 0.01582,-0.02759 0.02698,-0.05619 0.03968,-0.08543 0.01707,-0.03605 0.03283,-0.08125 0.07262,-0.09549 0.02179,-0.0085 0.04895,-0.03095 0.05566,-0.05368 0.0075,-0.02435 0.004,-0.05277 0.01871,-0.0746 0.02265,-0.0318 0.04979,-0.05952 0.07438,-0.09049 -0.0027,0 -0.0027,0 -0.004,0 0.02699,-0.03605 0.06833,0.0039 0.115641,-0.02353 0.03791,-0.02095 0.08528,-0.04522 0.129969,-0.04688 0.0294,-0.0014 0.05645,0 0.08697,-0.0014 0.01424,0 0.03295,-0.02684 0.0456,-0.0065 0.0075,0.01003 0.01501,0.01003 0.02342,0.0027 -0.0039,0.02599 -0.01254,0.04769 -0.01254,0.07623 0,0.05104 0.04891,0.03426 0.07935,0.04439 0.0279,0.0093 0.135055,0.124823 0.133353,0.03605 -0.0039,-0.07708 0.112249,-0.01086 0.140962,-0.0014 0.0405,0.01418 0.07172,0.01933 0.111423,0.0039 0.03033,-0.01085 0.0574,0.0082 0.0886,0 0.01878,0.04604 0.01579,0.057 0.004,0.103882 -0.01708,-0.0027 -0.03459,-0.04603 -0.04891,-0.06282 0.004,0.04854 0.04891,0.106401 0.0717,0.149124 0.01507,0.0284 0.01873,0.05864 0.0345,0.08627 0.0196,0.03264 0.01088,0.07794 0.03452,0.103884 0.02542,0.02763 0.03454,0.04193 0.04299,0.08041 0.01089,0.05025 0.09287,0.08293 0.103859,0.13069 0.01579,0.06867 0.0379,0.05187 0.09458,0.04192 0.03209,-0.0065 0.0623,-0.0235 0.09285,-0.03348 0.03301,0.07958 -0.05404,0.232064 -0.09878,0.297412 -0.05144,0.07461 -0.135052,0.102207 -0.156973,0.198547 -0.0042,0.02599 -0.02859,0.03942 -0.02859,0.06782 -0.004,0.02518 0.0039,0.05187 0.0039,0.07959 z"
       id="path1025-6-3-6-6-6-6" />
  </g>
  <g
     id="plasma-browser-integration">
    <rect
       style="opacity:0.00100002;fill:#d3dae3;fill-opacity:1"
       width="32"
       height="32"
       x="0"
       y="0"
       id="rect7" />
    <path
       id="Page_1_"
       class="st0  ColorScheme-Highlight "
       d="m 21.249999,8.4999999 v 0 l -1.5,-1.5 v 0 H 9.2500007 V 26.5 H 22 c 2.0625,0 3.75,-1.6875 3.75,-3.75 V 13 Z M 12.25,10.75 Z m 0,3.75 z m 0,7.5 z m 0,-3.75 z"
       sodipodi:nodetypes="ccccccsscccccccccccccccccccccc"
       style="color:#cdd8e5;fill:#cdd8e5;fill-opacity:0.403922;stroke-width:0.375" />
    <path
       id="Page-s"
       class="st1  ColorScheme-Text "
       d="m 22.55,13 h 3.199999 v 10.5 c 0,2.475 -2.024999,4.5 -4.5,4.5 H 10.750001 V 26.5 H 21.25 c 1.649999,0 3,-1.350001 3,-3 v -9 h -1.7 z M 6.2500007,6.9999999 c 0,-1.65 1.35,-3 3,-3 h 7.4999983 v 1.5 H 9.2500007 c -0.825,0 -1.5,0.675 -1.5,1.5 V 19.75 h -1.5 z"
       style="color:#eff0f1;fill:currentColor;fill-opacity:1;stroke-width:0.375"
       sodipodi:nodetypes="ccssccsscccssccssccs" />
    <path
       id="path20-3-7"
       style="color:#31363b;fill:#eff0f1;fill-opacity:1;stroke-width:0.459227"
       d="m 13.569235,10.519067 c -0.382352,0 -0.692308,0.306865 -0.692308,0.685412 0,0.378537 0.309956,0.685409 0.692308,0.685409 0.382351,0 0.692312,-0.306872 0.692312,-0.685409 0,-0.378547 -0.309961,-0.685412 -0.692312,-0.685412 z m 4.846161,0 c -0.843763,-0.46366 -1.844305,0.518325 -1.384614,1.370821 l 2.076921,2.056233 -2.076921,2.056231 c -0.570355,0.9431 0.558137,1.847449 1.384614,1.370819 l 3.461584,-3.42705 z m -6.461544,4.112464 c -0.637256,0 -1.153852,0.511447 -1.153852,1.142348 0,0.630907 0.516596,1.142355 1.153852,1.142355 0.637249,0 1.153842,-0.511448 1.153842,-1.142355 0,-0.630901 -0.516593,-1.142348 -1.153842,-1.142348 z m 3.000002,4.112462 c -0.764701,0 -1.384619,0.613737 -1.384619,1.370819 0,0.757084 0.619918,1.370821 1.384619,1.370821 0.764704,0 1.384617,-0.613737 1.384617,-1.370821 0,-0.757082 -0.619913,-1.370819 -1.384617,-1.370819 z"
       class="ColorScheme-Text "
       sodipodi:nodetypes="ssssscccccccssssssssss" />
    <path
       style="fill:#eff0f1;fill-opacity:1;stroke-width:0.0126126"
       inkscape:connector-curvature="0"
       d="M 22.516409,21.042285 C 22.697469,20.696728 22.8,20.304663 22.8,19.887483 c 0,-0.787885 -0.365892,-1.490323 -0.938145,-1.951489 0.04406,0.0402 0.08612,0.08048 0.12041,0.110577 0.175987,0.160852 0.330459,0.348078 0.453264,0.551644 -0.006,0 -0.006,0.0023 -0.006,0.0025 0.0847,0.121919 0.150677,0.257605 0.203801,0.398341 -0.03035,-0.0414 -0.132912,-0.105551 -0.08357,-0.0068 0.02367,0.04899 0.08357,0.07412 0.101224,0.121899 0.01379,-0.0022 0.0063,-0.01884 0.01474,-0.01884 0.01391,0.02379 -0.0062,0.05272 0.02365,0.07032 0.03517,0.115649 0.06207,0.235053 0.08118,0.356945 -0.106291,0.029 -0.192398,0.135712 -0.259528,0.006 -0.03517,-0.06903 -0.05327,-0.116843 -0.101182,-0.179669 -0.03537,-0.0477 -0.08626,-0.08429 -0.100335,-0.145754 -0.02373,-0.100524 -0.189916,-0.16085 -0.194975,-0.271421 -0.0049,-0.01626 -0.04177,-0.0955 -0.03938,-0.09799 0.01047,-0.0088 0.0062,-0.05025 0.0062,-0.06156 0.0059,-0.04139 0.01146,-0.07412 0.0049,-0.115586 -0.09007,0.02381 -0.165862,-0.01256 -0.258248,-0.02127 0.006,-0.0023 0.006,-0.0042 0.006,-0.0068 -0.02655,-0.0238 -0.0455,-0.04019 -0.07718,-0.05785 0.03521,-0.03524 -0.0048,-0.02006 -0.0061,-0.04263 -0.006,-0.0314 0.07711,-0.01753 0.091,-0.02379 -0.0048,-0.0041 -0.01146,-0.0088 -0.01146,-0.01386 -0.03258,-0.0059 -0.0282,0.02899 -0.06456,0.0042 -0.02809,-0.0201 -0.03141,-0.0061 -0.05842,-0.0042 0.0059,0.0059 0.0059,0.01386 0.0059,0.02126 0,0 -0.04546,-0.03272 -0.04058,-0.006 0.02667,0.02512 0.04179,0.05144 0.07336,0.07659 -0.01877,0.01029 -0.03511,-0.002 -0.05173,-0.01386 0.0048,0.0068 0.01042,0.04642 0.01637,0.05025 -0.03693,-0.0042 -0.05837,-0.02127 -0.04288,-0.05277 -0.02808,-0.0042 -0.08871,-0.06289 -0.09495,-0.09171 -0.0079,-0.05271 -0.0812,-0.05913 -0.08615,-0.09171 -0.01394,-0.002 -0.159528,-0.101789 -0.15577,-0.07285 0.006,0.04643 0.08359,0.110576 0.131669,0.115599 0.006,0.03899 0.08119,0.029 0.08217,0.07159 -0.06968,-0.0188 -0.04277,-0.0238 -0.03515,0.02517 -0.0047,-0.0061 -0.0406,0.05406 -0.0455,0.02379 0.07328,0.0061 -0.159519,-0.174667 -0.150703,-0.154561 -0.05172,-0.05278 -0.06082,-0.07286 -0.129091,-0.03775 -0.03264,0.01626 -0.144367,-0.04137 -0.1151,0.03143 -0.0044,0.006 -0.154439,0.07032 -0.08867,0.09926 -0.0202,0.0277 -0.05171,0.05141 -0.07972,0.06288 -0.03406,-0.01234 -0.0962,0.034 -0.116445,0.0042 -0.02373,-0.03899 -0.04053,-0.0238 -0.08118,-0.02638 -0.04183,-0.0042 -0.0061,-0.140736 -0.0061,-0.158325 0,-0.02509 -0.02128,-0.06043 0.03143,-0.0566 0.04565,0.0042 0.08996,0.01374 0.136737,0.01882 0.05169,-0.0061 0.07207,0.01143 0.06841,-0.05912 -0.0044,0 -0.0044,0.002 -0.0062,0.002 0.03145,-0.05141 -0.110143,-0.06534 -0.110143,-0.09298 0,-0.01883 0.08216,-0.002 0.09099,-0.0042 0,-0.0088 -0.0062,-0.01628 -0.0062,-0.02637 0.06583,0.006 0.07451,-0.0188 0.130458,-0.03021 0.04663,-0.0103 0.04055,-0.05911 0.09614,-0.05536 0.01637,0.002 0.07593,0.0059 0.06204,-0.02008 -0.03264,-0.05659 -0.03264,-0.05659 0.02805,-0.08048 0.0062,0.01755 0.01156,0.02381 0.01472,0.03022 -0.006,0 -0.006,0.01029 -0.006,0.0226 0.01153,0.002 0.01881,0.006 0.01637,0.02007 -0.0059,-0.0088 -0.01386,-0.006 -0.02019,-0.0088 -0.0059,0.01376 -0.0059,0.0238 -0.0059,0.01755 0.0305,0.0042 0.06719,0.002 0.09751,0.0061 -0.0059,0.03653 0.111557,-0.0061 0.13933,0.0061 -0.0046,0.0024 -0.0061,0.0059 -0.0061,0.0059 0.01146,0.002 0.02371,0.002 0.0342,0.002 -0.0078,-0.06286 0.105024,-0.08675 0.105024,-0.07032 0,-0.01507 -0.05061,-0.03399 -0.03515,-0.04021 0.04284,-0.02259 0.09351,0.01144 0.140546,-0.0059 -0.01801,-0.0188 -0.238049,-0.01256 -0.20513,-0.05407 -0.01877,-0.0059 -0.0164,-0.01751 -0.0256,-0.03021 0.0059,0.002 0.09869,-0.03139 0.09754,-0.03522 -0.01791,-0.04267 -0.09006,-0.006 -0.09754,0.006 0.0059,0.02009 -0.09351,0.01143 -0.09012,0.04136 0.0062,0.03272 0.04555,0.0238 0.05308,0.05274 0.0046,0.0059 -0.09753,0.0451 -0.0352,0.0566 0.0046,0.02379 -0.07457,0.04263 -0.09099,0.04139 -0.01414,-0.0024 -0.04415,-0.05913 -0.0517,-0.07153 -0.01876,-0.0277 -0.0281,-0.04898 -0.05963,-0.02901 -0.01156,0.0061 -0.105014,0.03021 -0.108975,-0.0042 -0.0045,-0.0087 0.01633,0.002 0.01391,-0.01374 -0.01391,-0.002 -0.01391,-0.002 -0.02372,0 0.0062,-0.0061 0.0062,-0.0087 0.01417,-0.01144 -0.06589,-0.0452 0.05973,-0.07034 0.09008,-0.06655 -0.01033,-0.0023 -0.0141,-0.0042 -0.02126,-0.0059 0.01889,-0.002 0.165851,-0.0604 0.170888,-0.07541 -0.02019,0.002 -0.02811,0.0042 -0.04662,0.0042 0.0061,-0.002 0.01393,-0.0042 0.0148,-0.0042 -0.0059,0 -0.01391,-0.0023 -0.01391,-0.0023 0.006,-0.0068 0.06842,-0.0023 0.06976,-0.0023 -0.0061,-0.002 -0.0061,-0.002 -0.01387,-0.002 0.01037,-0.0042 0.02119,-0.0059 0.03256,-0.0042 -0.0062,-0.0025 -0.0062,-0.0025 -0.0062,-0.0042 0.03045,-0.0087 0.0684,0 0.100154,-0.0061 -0.02369,-0.0042 0.05709,-0.01883 0.04931,0.0061 0.0326,0.0042 0.06723,0.01381 0.101174,0.03141 -0.391567,-0.247629 -0.856212,-0.392141 -1.355035,-0.392141 -1.397732,0 -2.530861,1.125907 -2.530861,2.511928 0,0.91606 0.492503,1.715246 1.229346,2.153797 -0.01468,-0.02127 -0.0062,-0.04515 -0.01468,-0.07035 -0.01632,-0.03397 -0.04297,-0.03895 -0.04297,-0.08551 0,-0.093 -0.0059,-0.150798 -0.04419,-0.243779 -0.0402,-0.05273 -0.03369,-0.16965 -0.04534,-0.234996 -0.02255,-0.06286 -0.03132,-0.126902 -0.05817,-0.188475 -0.02926,-0.06654 -0.111463,-0.113087 -0.183497,-0.121889 -0.0936,-0.01627 -0.107684,-0.09548 -0.164696,-0.157072 -0.04822,-0.05024 -0.09614,-0.108043 -0.134233,-0.164615 -0.01886,-0.02517 -0.057,-0.02768 -0.06848,-0.07154 -0.01056,-0.04022 0.02932,-0.05662 0.02932,-0.09297 -0.05587,-0.03022 -0.03944,-0.03774 -0.03812,-0.09798 0.004,-0.05142 0.07209,-0.106815 0.07086,-0.159582 -0.01382,-0.0059 -0.01883,-0.01234 -0.01382,-0.0238 -0.01156,-0.05024 -0.07603,-0.133206 -0.01156,-0.159594 -0.01388,-0.06905 0.0721,-0.115596 0.123977,-0.138224 0.01155,-0.006 0.02385,-0.04021 0.0394,-0.02009 0.0061,0.0061 0.0061,0.01627 -0.0059,0.02381 0,0.01626 -0.01058,0.09673 0.02657,0.09547 0.0163,-0.0026 -0.0456,-0.08676 0.03943,-0.0917 -0.0062,-0.01505 -0.02383,-0.0061 -0.02804,-0.0238 0.03051,-0.0023 0.06723,0.02504 0.08472,0.04511 0.01405,0.01505 0.06842,0.0068 0.08617,0.01382 0.02529,0.01043 0.07591,-0.02378 0.1102,-0.02378 -0.0059,0.004 -0.01387,0.006 -0.01782,0.004 0.01155,0.05661 0.137994,0.07031 0.173455,0.121898 0.02809,0.04021 0.146872,0.05141 0.191187,0.05025 0.05173,-0.004 0.140511,0.12189 0.116411,0.15456 -0.0369,0.04895 0.01631,0.109324 0.06305,0.104338 0.04673,-0.0059 0.0059,-0.08796 0.09495,-0.05141 0.03413,0.01507 0.0467,0.01231 0.05686,0.05276 0.04177,-0.006 0.09756,-0.02006 0.146848,-0.0068 0.0492,0.01382 0.07972,0.04511 0.131736,0.05662 0.112582,0.0238 0.0062,0.228702 -0.02118,0.278964 -0.01896,0.03773 0.03815,0.164614 0.03052,0.219905 -0.02384,0.0967 -0.03947,0.130681 -0.122836,0.18472 -0.0227,0.01379 -0.06587,0.05913 -0.06083,0.0905 0.0059,0.02636 0.01636,0.05406 0.02537,0.08047 -0.01472,0.01883 -0.02271,0.04019 -0.02271,0.06288 v 0 c -0.006,0.06041 -0.03164,0.114321 -0.04291,0.177175 -0.006,0.0414 -0.136732,0.0604 -0.141857,0.0477 0.02381,0.06412 0.116411,0.03653 0.07334,0.133212 -0.01484,0.03395 -0.06839,0.04138 -0.09865,0.04899 -0.03811,0.0088 0.0036,0.05146 0,0.07152 0.01776,0.0402 -0.04302,0.02006 -0.06721,0.02646 -0.04559,0.01257 0.06842,0.06416 0.06082,0.04898 0.01156,0.02379 -0.02668,0.01124 -0.03557,0.01384 0.01056,0.02381 0.04674,0.08167 0.004,0.101789 -0.06842,0.04139 0.05173,0.06529 0.06321,0.09796 0.292484,0.116865 0.611519,0.182222 0.94577,0.182222 0.957139,0 1.790205,-0.527778 2.21939,-1.305607 0.01379,-0.02503 0.02258,-0.03898 0.03528,-0.05024 z M 21.559255,17.95735 c 0,0.0062 -0.006,0.01881 -0.01791,0.01755 -0.0062,0 -0.01146,-0.006 -0.01146,-0.0087 0.0061,0 0.01393,-0.0024 0.01895,-0.0024 -0.02118,-0.01631 0.0061,-0.01031 0.01034,-0.0062 z m -0.10248,0.01376 c -0.0062,0.006 -0.01156,0.01232 -0.01637,0.02008 -0.01391,-0.01145 0.01146,-0.02126 0.01637,-0.02008 z m -0.157039,0.04518 c -0.01874,0.002 -0.01146,0.03774 -0.04055,0.01751 0.0062,-0.0042 0.0062,-0.0042 0.0062,0 0.0059,0 0.01395,-0.0042 0.01395,-0.0061 -0.0441,-0.0089 -0.0062,-0.0477 0.02019,-0.01028 z m -0.206373,-0.312885 c -0.0059,0.002 -0.0059,0.002 -0.0059,0.002 0.0059,0.0023 0.01156,0.0023 0.01476,0.0042 -0.01156,-0.0023 0.02567,0.0023 0.03062,0.0042 -0.02371,-0.02124 0.02567,-0.0068 0.02671,-0.0068 0,0.0025 -0.0045,0.0025 -0.0045,0.0059 0.01155,-0.0023 0.02661,0 0.04185,0.0028 -0.006,-0.002 -0.006,-0.0028 -0.006,-0.006 0.008,0.002 0.01876,0 0.02796,0 -0.0059,0 -0.02931,-0.002 -0.03016,-0.002 -0.0062,0 -0.0281,0.002 -0.0315,-0.0061 0.0061,0 0.01393,0 0.02019,0.002 v -0.002 c 0.0063,0 0.0063,0 0.01039,0 -0.0045,-0.002 -0.0059,-0.002 -0.0059,-0.0025 0.04179,0 0.107624,-0.0062 0.146841,0.01029 -0.01392,0.0023 -0.07971,0.01257 -0.116388,0.006 0.0062,0.0023 0.01155,0.0042 0.01634,0.0059 -0.006,0.002 -0.006,0 -0.006,0 0.01878,0.0023 0.0441,0.0059 0.06453,0.01507 -0.01877,0.002 -0.02565,0.006 -0.04285,0.0068 -0.0059,-0.002 -0.0059,-0.0042 0,-0.0061 -0.0059,0 -0.02252,-0.002 -0.03035,-0.0023 0,-0.0042 0.0061,-0.0023 0.008,-0.0061 -0.006,0 -0.008,-0.0042 -0.01391,-0.006 -0.02805,0.006 -0.108978,0.03653 -0.111545,0.006 0.01393,0 0.02565,0.002 0.03941,0.002 -0.0062,-0.0025 -0.04665,0 -0.04665,-0.0068 0,0 0.02377,-0.0042 0.03693,-0.0059 -0.01636,0 -0.04554,0.0042 -0.05314,-0.0023 0.0045,-0.002 0.0059,-0.002 0.0059,-0.002 -0.0078,-0.002 -0.01636,-0.0042 -0.01416,-0.006 -0.0062,-0.002 -0.01156,-0.0042 -0.01793,-0.0059 0.01467,-0.002 0.02932,-0.0028 0.04412,0.002 z m -0.04158,0.0068 v 0 c 0,0.002 0,0.002 0,0 0,0.002 0,0 0,0 z m -0.0044,0 c 0.0061,0.0023 0.01392,0.0042 0.01635,0.0088 -0.008,0 -0.02248,-0.0059 -0.01635,-0.0088 z m 1.025477,0.983948 c 0.0049,0.01507 -0.05058,0.04517 -0.05699,0.01386 0.01401,-0.006 0.03945,-0.01259 0.05699,-0.01386 z m -0.25316,-0.0088 c -0.01791,0.0066 -0.05592,-0.0059 -0.07087,-0.01385 0.02366,-0.002 0.05172,0.0061 0.07087,0.01385 z M 21.458061,18.55012 c -0.0059,0.0088 -0.0059,0.04522 -0.0059,0.04522 -0.01463,-0.002 -0.0812,-0.03774 -0.08216,-0.05023 0.01393,-0.0042 0.07208,0.0021 0.08614,0.006 z m -0.20097,-0.173231 c 0,0.0061 0.0059,0.0088 0.0059,0.0088 -0.0059,0.01124 -0.0059,0.03268 -0.0059,0.03774 -0.0115,-0.0042 -0.01637,-0.0302 -0.02377,-0.03895 0.0061,0 0.01637,-0.0025 0.02377,-0.0068 z m -0.0115,0.08553 c -0.0045,-0.0068 -0.01156,-0.01383 -0.01393,-0.02259 0.08359,-0.01235 0.02376,0.11058 0.01393,0.02259 z m -0.164592,0.0059 c 0.0045,0.01123 -0.02378,-0.0059 -0.02378,-0.0059 0.01394,-0.0103 0.02021,-0.0068 0.02378,0.0059 z m -0.221751,-0.552513 c -0.0062,0.0061 -0.01473,0.0087 -0.02372,0.01233 0.01034,0.01881 0.02934,0.02381 0.05974,0.0068 0.0061,0.01629 -0.03036,0.03022 -0.03268,0.03899 0.03937,0.01029 0.09755,0.04901 0.100214,0.08925 0.006,-0.002 0.006,-0.0042 0.01156,-0.0042 0.02257,-0.01029 0.02257,0.01376 -0.0044,0.04139 0.0059,0.002 0.01394,0.0026 0.02128,0.0059 0,0.0062 -0.173465,0.02256 -0.192452,0.02127 0.01147,-0.02008 0.06842,-0.02899 0.06842,-0.04019 -0.0062,0.0059 -0.06204,-0.0042 -0.06204,-0.0068 0,-0.01257 0.02023,-0.01624 0.02023,-0.04018 0.01637,0.002 0.04415,0.002 0.04415,-0.01881 -0.01477,0 -0.02806,-0.0024 -0.01636,-0.01751 -0.0062,-0.002 -0.0482,0.0041 -0.04659,-0.0061 0,-0.02258 0.02665,-0.01142 -0.0061,-0.0277 -0.0059,0.0042 -0.0059,0.006 0,0.006 -0.0059,0 -0.0059,0 -0.0059,0 0,-0.02381 -0.0062,-0.01879 -0.0062,-0.0365 -0.01397,-0.0024 -0.02124,-0.0062 -0.02124,-0.01144 0.0061,0 0.02665,0.0066 0.02665,0.0042 -0.01877,-0.006 0.06589,-0.05025 0.06305,-0.01754 z m -0.04414,0.105601 c 0,-0.0042 0.0043,-0.0061 0.0063,-0.0066 0.0043,0 0.0059,0.002 0.0059,0.002 0,0.002 -0.0043,0.0042 -0.0043,0.0062 -0.0061,-0.002 -0.0061,-0.002 -0.01155,-0.002 z m -0.03535,-0.109327 c 0,0.0059 -0.0059,0.01256 -0.01893,0.01144 -0.02022,0 0.01638,-0.01144 0.01893,-0.01144 z m -0.103711,0.103025 c 0.0042,-0.01144 0.03267,-0.0064 0.04052,-0.01144 -0.01887,-0.0201 0.03134,-0.0201 0.04051,-0.01755 0.05841,0.0042 0.01469,0.03021 0.01469,0.03652 -0.0043,0.04641 -0.03268,0.06155 -0.08474,0.05785 -0.05428,-0.0042 0.0059,-0.03774 0.0059,-0.05144 -0.0059,-0.0061 -0.01035,-0.01028 -0.01797,-0.01377 z m -1.412771,-0.251452 c 0.01057,0 0.02126,0 0.03051,0 -0.006,0 -0.01381,0 -0.01889,-0.0042 0.0063,-0.0042 0.01634,-0.0028 0.0253,-0.0028 -0.0036,-0.002 -0.0059,-0.002 -0.0059,-0.0023 0.01157,-0.0023 0.0238,-0.0023 0.03552,-0.0042 -0.0062,-0.002 -0.01472,-0.002 -0.01055,-0.0042 0.02022,0 0.06202,0.01752 0.07456,0.0087 l -0.0036,-0.002 c 0.01469,-0.002 0.01368,0.002 0.0059,0.0068 0.0202,-0.01144 0.02533,0.01377 0.05841,-0.0087 0.0061,-0.002 -0.01471,-0.006 -0.0212,-0.006 0.01471,0 0.01882,-0.002 0.01053,-0.0042 -0.01636,0 -0.02931,-0.0028 -0.03157,-0.0061 0.0062,-0.002 0.01386,-0.0028 0.01882,-0.0042 -0.0059,0.002 -0.01787,0.002 -0.02657,0.002 0.01387,-0.006 0.0281,-0.006 0.04417,-0.006 -0.0147,-0.0023 -0.0305,0.006 -0.04551,0.0024 0.0077,-0.002 0.01384,-0.0024 0.02124,-0.0042 -0.0141,0.0024 -0.02665,0.0024 -0.04057,0.0024 0.07331,-0.02646 0.281062,-0.0451 0.354477,-0.01881 -0.03814,0.0103 0.06204,-0.006 0.05841,0.0042 -0.0059,0.0066 -0.06319,0.0066 -0.06841,0.0066 0.0059,0.002 0.02017,-0.002 0.0305,-0.002 -0.05314,0.01505 -0.110188,0.01374 -0.163324,0.02646 0.0061,0 0.0078,0 0.01417,0 -0.0062,0.0042 -0.0062,0.0042 -0.01884,0.0042 0.0059,0.002 0.0105,0.002 0.0105,0.0059 -0.02383,0.006 -0.03689,0.0103 -0.06202,0.01257 -0.0059,0.01144 -0.02672,0.0059 -0.03688,0.01506 0.0061,-0.002 0.02381,-0.0023 0.02121,0 -0.04058,0.03899 -0.134219,0.0059 -0.193692,0.01028 0.0116,-0.0042 0.02381,-0.0061 0.03695,-0.0061 -0.03259,-0.01506 0.04173,-0.0059 0.05173,-0.0059 -0.01637,-0.01231 -0.04415,-0.01028 -0.06081,-0.0061 0,0.002 0.0058,0.0023 0.0036,0.0042 -0.01386,0 -0.05841,-0.0042 -0.07087,0.002 0.0057,0 0.0062,0 0.0062,0 -0.0057,0 -0.0062,0.002 -0.01055,0.002 0.0036,0 0.0057,-0.002 0.0057,-0.002 -0.006,0 -0.006,-0.002 -0.01057,-0.0059 0.0178,-0.0042 0.03556,-0.0061 0.05323,-0.0061 -0.0061,-0.002 -0.03416,-0.0023 -0.05072,-0.0023 0.0036,0 0.0062,0 0.0062,-0.002 -0.02024,0.006 -0.03167,0.006 -0.02277,0 z m 0.220275,0.08296 c -0.01471,0.0059 -0.04928,0.0059 -0.06582,0.0059 -0.0036,0 -0.02535,-0.0059 -0.01887,-0.01029 0.01887,-0.01506 0.06454,-0.0025 0.08472,0.0024 z m -0.282377,-0.07912 c 0.0062,0 0.01636,0 0.02024,-0.002 -0.0057,0.002 -0.0059,0.0041 -0.0059,0.006 0.01056,0 -0.02126,0.002 -0.01382,-0.0042 z m 0.0292,0.0238 c 0.0061,-0.002 0.0061,0 0,0 v 0 c -0.01394,0 -0.06312,0.0042 -0.03253,-0.002 -0.0148,-0.01256 0.04822,-0.01624 0.03253,0.002 z m 0.02278,0.0023 c -0.006,0.0042 -0.01154,0.006 -0.01783,0.006 -0.0063,0 -0.03419,-0.002 -0.03419,-0.002 0.01781,-0.0042 0.03542,-0.0042 0.05174,-0.0042 z m 0.03052,0.01882 c -0.0062,0.002 -0.01634,0.002 -0.02383,0.002 -0.0061,0.0059 0.01468,0.0023 0.02026,0.0059 -0.01412,0.0042 0.17472,-0.01256 0.177261,-0.002 -0.0062,0 -0.0062,0.002 -0.01156,0.0042 0.0061,0 0.0061,0 0.0061,0 -0.04669,0.029 -0.135378,-0.01385 -0.177257,0.0087 -0.01156,0 -0.08869,0 -0.04673,-0.0059 -0.0061,-0.01256 -0.01056,-0.01504 -0.02275,-0.006 -0.01055,0 -0.02025,-0.0023 -0.03052,-0.0061 0.006,-0.0059 0.104983,-0.0059 0.107626,0.0042 z m -0.091,0.01254 c 0.01887,0.0087 -0.05322,0.0061 -0.05322,0.0061 0.0062,-0.0023 0.01384,-0.0042 0.01413,-0.0042 0.01383,-0.006 0.02533,-0.0087 0.03938,-0.0042 z m -0.11401,-0.03897 c 0.0057,0 0.0062,-0.002 0.0062,-0.0023 -0.0062,0 -0.008,-0.002 -0.0062,-0.0023 0.01635,-0.0023 0.06842,-0.0068 0.08119,0.0061 -0.0057,0 -0.0061,0.002 -0.0061,0.0023 0.0061,0.0059 -0.01383,0.0066 -0.03547,0.0066 -0.006,0.002 -0.01152,0.002 -0.01885,0.0023 0.006,0 0.0078,-0.002 0.01411,-0.0023 -0.01774,0 -0.03688,-0.0023 -0.04051,-0.006 0.008,0.002 0.01888,-0.002 0.0265,-0.0059 -0.01468,0.0023 -0.02027,0.0042 -0.02125,0.0023 z m -0.03942,0.01382 c 0.01468,-0.002 0.0062,0.006 0.0178,0.006 -0.0061,0.002 -0.008,0.0042 -0.01378,0.0042 -0.0062,0.002 -0.01058,-0.0059 -0.0062,-0.0087 z m -0.0057,0.01754 v 0 c 0,-0.0061 0.02804,0.0042 0.03557,0.0059 h 0.0039 c -0.0057,-0.002 -0.0059,-0.002 -0.0059,-0.0024 0.01383,-0.0068 0.02383,0.0042 0.0381,-0.006 -0.01057,0.002 -0.01884,0.002 -0.01468,-0.0023 0.0061,-0.002 0.057,0 0.057,0 0,0.03267 -0.06454,0.01257 -0.07865,0.02125 0.0059,-0.0061 0.02531,-0.0061 0.03264,-0.0087 -0.0063,-0.0042 -0.01889,-0.0028 -0.0305,-0.0028 0,0.0022 0,0.0022 0,0.0022 0,0 0,0 -0.004,-0.0022 -0.01383,0.0028 -0.0253,0.0042 -0.03414,0.0042 0.004,-0.002 0.004,-0.002 0.0057,-0.0042 -0.0062,0.0028 -0.0062,0 -0.01056,-0.002 z m 0.05698,0.03653 c -0.01156,0.0059 -0.02276,0.0059 -0.03544,0.01028 0.006,0 0.03051,-0.0059 0.01412,0.0042 0.0057,0 0.01055,0.002 0.01383,0.002 -0.02381,0.01376 -0.08216,0.03395 -0.103742,0.0042 0.01636,-0.01029 0.0326,0.0021 0.04922,-0.01029 -0.04561,-0.002 0.05964,-0.006 0.06318,-0.0087 z m -0.07329,0.0741 c -0.01155,0.0042 -0.09244,0.0042 -0.0507,-0.0042 -0.01635,0.0042 0.0632,-0.02379 0.0507,0.0042 z m -0.01773,-0.09048 c -0.0062,0.002 -0.0062,0 -0.01156,0.002 0.008,-0.0059 0.01783,-0.0061 0.02805,-0.0062 -0.0057,0.0062 -0.0063,0.0087 -0.01637,0.0062 z m -0.07336,-0.03772 c 0.008,-0.0059 0.03947,-0.0042 0.05705,-0.0042 0.0059,-0.002 0.0059,-0.002 0.01156,-0.002 -0.004,0.002 -0.006,0.002 -0.01156,0.002 -0.0057,0 -0.0063,0.002 -0.0063,0.002 0.004,0.002 0.0057,0.0028 0.0057,0.0042 -0.03415,0.0042 -0.03812,0.006 -0.01388,0.0042 -0.0059,0.0061 -0.0305,0.0061 -0.04173,0.0061 -0.01383,0.002 0.0062,-0.0061 0.02804,-0.0138 -0.01057,-0.0023 -0.01783,-0.002 -0.02531,0.002 z m -0.01637,0.0061 c -0.0061,0.0059 -0.01385,0.0059 -0.01781,0.002 0.0059,-0.0042 0.01383,-0.0042 0.01781,-0.002 z m -0.03937,0.01506 c 0.006,-0.002 0.01386,-0.002 0.01884,-0.002 -0.0061,0.0042 -0.01158,0.0062 -0.01789,0.006 -0.0057,-0.002 -0.0059,-0.0023 -0.004,-0.0042 z m -0.0063,-0.0087 c 0.0063,0.0023 0.0063,0.0059 -0.008,0.0059 -0.0059,0.0068 -0.01382,0.01144 -0.02531,0.0087 0.008,-0.01144 0.02026,-0.01629 0.03418,-0.01501 z m -0.04821,0.02505 c 0.0059,-0.0042 0.01056,-0.0042 0.01788,-0.0042 -0.004,0 -0.0057,-0.002 -0.0061,-0.002 0.0061,-0.0023 0.0116,-0.0042 0.01782,-0.0042 -0.0057,0 -0.0059,-0.002 0,-0.0023 0.02922,-0.0042 0.05842,0.01751 0.09008,0.006 -0.0059,0.002 -0.0059,0 -0.01057,-0.002 0.0059,0 0.01057,-0.002 0.01383,-0.0042 -0.02382,-0.002 0.0293,-0.01028 0.03412,-0.01028 -0.02913,0.0138 0.03051,0.0088 0.0253,0.01232 -0.04173,0.02379 -0.107608,0.0059 -0.153194,0.01375 0,0.0087 -0.0062,0.01143 -0.02128,0.0064 0.0063,-0.0042 0.01383,-0.0064 0.02128,-0.0064 0,0 0,-0.002 0,-0.002 -0.0062,0 -0.008,0.0025 -0.01156,0.0042 -0.01156,0.0024 -0.02381,0.0042 -0.03551,0.0024 0.0061,-0.0059 0.01388,-0.01145 0.02128,-0.0103 -0.0057,0.002 -0.006,0 -0.006,0 z m -0.108966,0.08165 c 0.0059,-0.0068 0.03937,-0.03399 0.05979,-0.04138 -0.004,0 -0.0057,0 -0.0062,0 0.0062,-0.0042 0.01057,-0.006 0.0148,-0.01031 0.004,0.0042 0,0.0061 -0.004,0.0066 0.0063,0 0.0063,0.0024 0.0063,0.0103 0.03169,-0.0059 0.08219,0.0103 0.07714,0.0103 0.03052,-0.002 0.06082,-0.049 0.101202,-0.03519 -0.0057,-0.002 -0.0369,0.02126 -0.03943,0.02641 -0.0147,0.03141 0.0057,0.01233 0.02383,0.0302 -0.01056,0.0042 -0.03172,0.002 -0.04052,0.0061 0.004,-0.002 0.0059,0.0059 0.0059,0.0059 -0.02931,0.01384 -0.201315,0.02007 -0.208909,0.01144 -0.0057,-0.002 -0.01411,0 -0.02277,0 0.02531,-0.02009 0.03938,-0.01881 0.0697,-0.02257 -0.01384,-0.0059 -0.03151,-0.0024 -0.04054,0 z m -0.03672,0.0277 c 0.0059,-0.002 0.0059,0.0024 0.0059,0.01029 -0.0059,0.002 -0.01469,0.002 -0.02277,0.0042 0.0062,-0.006 0.01156,-0.0103 0.01635,-0.01385 z m -0.407257,1.397386 c 0.006,-0.0089 0.006,-0.01383 0.01636,-0.01625 0.0062,-0.0089 0.0062,-0.01752 0.01056,-0.0103 -0.01782,0.05145 -0.02025,0.01506 -0.02658,0.02636 z m 0.129081,0.245022 c -0.07329,0.0026 -0.04054,-0.03773 -0.0315,-0.03651 0.01388,0.004 0.02382,0.01627 0.0293,0.02255 0,-0.0022 0,-0.004 0,-0.0061 0.0062,0.0061 0.0062,0.01124 0.0057,0.01884 z m 0.004,-0.136971 c 0.02126,-0.05144 0.0062,-0.133209 -0.0721,-0.141992 -0.02024,-0.06779 -0.02653,0.01751 -0.08868,0.0088 0.06204,-0.07916 0.1102,-0.09171 0.178514,-0.02378 0.02127,0.02254 0.0721,0.093 0.06973,0.111841 0.03412,0.0103 0.008,0.02899 0.0253,0.05272 -0.03546,0.0464 -0.07333,-0.0022 -0.112571,-0.0059 z m 0.104904,-0.28532 c 0.0059,-0.006 0.0059,0.01882 0.0059,0.02381 -0.01385,0.02638 -0.0059,-0.02008 -0.0059,-0.02381 z m 0.103718,0.428476 c -0.0057,-0.02381 -0.03938,0.034 -0.04822,0.03143 0,0 -0.05586,-0.09799 -0.07859,-0.03527 -0.05963,-0.0353 0.05841,-0.04522 0.06453,-0.0414 0.004,-0.01123 0.0057,-0.123148 0.03168,-0.08048 0.01384,0.02125 0.03268,0.0062 0.05172,0.0062 0.03949,0.0059 0.03417,0.04391 0.04822,0.07035 -0.0057,-0.0088 -0.006,-0.01257 0,0.0022 0,0 0,-0.0022 0,-0.0022 0.006,0.01627 0.01411,0.05141 0.01411,0.04895 -0.0059,0 -0.08357,0 -0.08357,-0.0022 z m -0.08491,-0.500157 c 0.0063,-0.006 0.01383,-0.0089 0.02025,-0.0089 0.0063,0.0022 0.0063,0.006 0.0063,0.01232 -0.01384,0 -0.0228,-0.0041 -0.02807,-0.0041 z m 0.07328,0.265136 c -0.0057,0.01626 -0.01155,0.02381 -0.02915,0.02254 -0.01782,-0.0061 0.0253,-0.01883 0.02915,-0.02254 z m -0.03038,-0.253758 c 0,0.0041 0,0.0068 0,0.01259 -0.0062,0 -0.0057,-0.0068 0,-0.01259 z m 0.163315,0.52274 c 0.008,-0.02641 0.05174,0.0089 0.05313,0.02258 -0.01387,0.01883 -0.06083,0.0061 -0.05313,-0.02258 z m 0.542136,-1.146053 c -0.04053,0.02259 0.004,-0.04639 0.057,-0.04897 -0.01405,0.0025 -0.01773,-0.0025 -0.0079,-0.01257 -0.04052,0.0021 -0.108994,0.0477 -0.14053,0.0402 -0.03421,-0.0061 -0.139297,0.07787 -0.08119,0.0766 -0.03543,0.01236 -0.08738,0.0103 -0.125321,0.02655 0.006,0 0.02928,-0.006 0.03558,0.002 -0.02127,0.0059 -0.117807,0.04019 -0.111569,0.05407 -0.01783,0.01031 -0.02382,0.06656 -0.05693,0.06533 0.0057,0 0.01412,-0.04769 0.0148,-0.05275 -0.0062,0.0061 -0.03685,0.05785 -0.03413,0.06656 0.0057,0 0.0063,0 0.0063,0 -0.0063,0.01124 -0.01412,0.02009 -0.02658,0.02381 0,0.0062 0.0062,0.0089 0.008,0.0103 -0.01056,0.01235 -0.03689,0.0068 -0.01882,0.02769 -0.02266,0.01753 -0.05321,0.02125 -0.07717,0.03775 0,0 0.004,0.0026 0.004,0.0026 -0.09756,0.04019 -0.183575,0.08298 -0.196236,0.197283 -0.0061,0.02898 -0.03808,0.157071 -0.08117,0.152052 -0.03939,-0.0059 0.03557,-0.191002 0.03052,-0.206078 0,-0.0021 -0.108985,-0.02008 -0.103742,-0.03022 -0.01637,0.0042 -0.0326,0 -0.05173,0.006 0.0063,0.0061 0.0063,0.0061 0.01385,0.0021 -0.01156,0.01753 -0.02529,0.02768 -0.02025,0.03899 -0.03172,0.01381 -0.06083,-0.05025 -0.103727,-0.02653 -0.06453,0.03399 -0.111542,0.06413 -0.148138,0.128169 -0.004,0 -0.004,0 -0.0057,0 -0.008,0.02259 -0.198772,0.334255 -0.111544,0.353109 0.118954,0.02501 0.124009,-0.14074 0.253216,-0.119377 -0.01634,0.03397 -0.0456,0.05786 -0.06082,0.09171 -0.01056,0.02127 -0.02023,0.03272 -0.03051,0.04517 -0.01479,0.02381 -0.146872,0.13194 -0.03168,0.136976 0.137987,0.0088 0.03546,0.138225 0.0059,0.208594 -0.02382,0.0629 -0.07455,0.267652 0.0442,0.21739 0.05689,-0.02379 0.05841,0.06041 0.06721,0.09298 -0.006,0.0061 -0.04667,0.0439 -0.04667,0.0439 -0.0057,-0.01882 0.01885,-0.0855 -0.006,-0.09548 -0.05323,-0.01884 -0.05687,0.106838 -0.08359,0.09548 -0.05069,-0.0201 -0.02529,-0.213617 -0.06305,-0.22618 -0.006,0.006 -0.006,0.01377 -0.006,0.01883 -0.0061,-0.0023 -0.0061,-0.0026 -0.008,-0.004 -0.01056,-0.03899 0.02383,-0.07915 0.02126,-0.120622 -0.0057,-0.03648 -0.0062,-0.0678 0.0057,-0.104328 -0.0342,-0.01029 -0.06587,-0.03399 -0.08357,-0.07788 -0.0062,-0.01627 0.004,-0.09669 -0.01635,-0.100528 -0.01156,-0.04645 -0.03255,0.01383 -0.05428,0.0064 -0.02383,-0.0061 -0.03152,-0.08671 -0.05173,-0.08671 0.06723,-0.363156 0.216497,-0.709974 0.434265,-1.011557 0.106344,-0.148282 0.230418,-0.282738 0.367155,-0.404621 0.04419,-0.0402 0.09869,-0.08796 0.167141,-0.06412 0.0116,0.0042 0.04673,0.002 0.06722,-0.01505 -0.004,0 -0.0057,0 -0.0057,0 -0.01155,0.0024 -0.0456,0.0068 -0.04049,0.0042 0.0061,-0.0042 0.01884,-0.0042 0.04049,-0.0042 0.0057,0 0.0061,0 0.0061,0 0,0 -0.004,0 -0.004,0 0.05319,0.0024 0.137951,0.01257 0.168369,0.0059 0.0062,-0.0042 0.01155,-0.0059 0.01155,-0.0059 0,0.0042 -0.0061,0.0059 -0.01155,0.0059 -0.0061,0.0042 -0.0061,0.0059 0.0062,0.0042 0.02127,-0.01627 0.05705,-0.01234 0.06583,-0.02501 -0.0059,0.002 -0.01156,0.0024 -0.01888,0.0042 0.0059,-0.0042 0.01384,-0.0059 0.01888,-0.01027 0.0062,-0.0061 -0.0305,-0.0066 -0.02385,-0.01258 0.02385,-0.01754 0.109003,-0.02007 0.08866,-0.0061 -0.0078,0.0041 -0.01781,0.0061 -0.02653,0.0061 0.004,0.006 0.02027,0.002 0.02807,0.0042 -0.02807,0.0062 0.0061,0.002 -0.01383,0.01628 -0.006,0 0.0697,-0.0175 0.05573,-0.006 -0.01782,-0.002 -0.02383,0.006 -0.02127,0.01881 0.02024,0.0201 0.08119,-0.03524 0.09756,-0.03896 -0.004,0 -0.1254,-0.0024 -0.1102,-0.01385 0.01775,0.0059 0.03253,0.0059 0.0456,-0.006 -0.006,-0.0024 -0.04299,-0.0042 -0.04299,-0.0042 -0.0062,-0.01628 0.04674,-0.02382 0.05585,-0.02771 -0.01469,0.0059 -0.04176,0.0028 -0.057,0.01028 0.0057,0 0.0063,0 0.0063,-0.002 -0.01388,0.006 -0.02648,0.01144 -0.04174,0.01031 0.04421,-0.0302 0.06723,-0.0302 0.127945,-0.0327 -0.01055,0.0059 -0.01888,0.0059 -0.03051,0.01028 0.02934,-0.006 0.05573,-0.006 0.08357,-0.006 -0.01055,0.0025 -0.05962,0.01508 -0.04419,0.01508 -0.03259,0.01506 0.104991,-0.03141 0.112575,-0.0068 0.0036,0.002 -0.006,0.01256 -0.0079,0.01256 0.05843,0 0.106319,0.0188 0.162053,0.02009 0,0.002 -0.0036,0.0025 -0.0036,0.0042 0.006,-0.002 0.0137,0 0.01768,0.0061 -0.0061,0.002 -0.01385,0 -0.01637,0.0042 0.0062,-0.002 0.01417,0 0.01879,0.0024 -0.0061,0.0023 -0.01154,0.0023 -0.01634,0.0061 0.0062,0.0024 0.07209,0.02379 0.07088,0.02647 -0.0062,0.03019 -0.05425,0.01626 -0.07858,0.01383 -0.006,0.0062 -0.0062,0.002 -0.01051,0.0087 0.01388,-0.002 0.01879,0.01629 0.0369,0.01381 -0.01388,0.04519 -0.01388,0.01881 -0.06453,0.02901 -0.0036,-0.0024 0.05841,0.02639 0.02669,0.03396 -0.03957,0.0059 -0.08473,-0.02008 -0.109031,-0.03141 -0.0078,-0.0059 -0.112575,0.0062 -0.109,0.002 0.02277,-0.03022 0.08217,-0.02009 0.114051,-0.03526 -0.02533,-0.0068 0.06586,-0.02379 0.03551,-0.04509 0,0.02008 -0.04919,0.006 -0.04821,0.006 0.01386,-0.006 0.02534,-0.01143 0.04058,-0.01031 -0.0062,-0.0042 -0.04301,-0.0059 -0.04421,-0.0059 0.0063,-0.002 0.01156,-0.0024 0.01782,-0.006 -0.0059,-0.0042 -0.0079,-0.0068 -0.01384,-0.0068 -0.0062,0 -0.01636,0.0024 -0.02126,0.0068 0.0061,-0.006 0.01483,-0.0068 0.02126,-0.0068 0,0 0.0036,0 0.006,0 -0.01485,-0.0061 -0.07209,0.0059 -0.06082,-0.0024 -0.0079,0 -0.02381,0 -0.0405,0.002 0.01383,0.002 0.02531,0.0068 0.03812,0.0068 -0.02381,0.02011 -0.06971,0.04138 -0.118972,0.05659 0.01056,-0.0024 0.0061,0.0024 0.0061,0.0059 -0.008,0 -0.01156,-0.0024 -0.0061,-0.0059 -0.0059,0.0024 -0.01631,0.0059 -0.0253,0.0068 0,0.0024 0.004,0.0042 0,0.006 0.006,-0.0042 0.04171,0.002 0.0456,0.01029 0,0.0024 -0.0059,0.0059 -0.0057,0.0068 0.0059,0.006 0.02275,0.002 0.02383,0.006 -0.03413,0.0088 -0.09244,0.01507 -0.127949,0.01751 -0.008,0 -0.0057,-0.0042 0.0061,-0.0068 -0.01058,-0.002 -0.02531,0.002 -0.03155,0.002 0.01156,-0.0087 0.04299,-0.02638 0.06724,-0.03772 -0.0265,0.0042 -0.05174,0.0042 -0.0721,-0.0025 -0.0057,0.01145 0.02382,0.0061 0.0442,0.0103 -0.02933,0.02379 -0.103743,0.034 -0.148154,0.02899 0.006,0.002 0.006,0.0042 0.01159,0.0061 -0.03943,0.0353 -0.131694,0.06414 -0.179779,0.09549 0.03812,-0.0059 0.03414,0.0068 0.008,0.03399 0.09008,-0.0042 0.08119,0.04899 0.153217,0.04642 0.02383,0.01629 -0.01155,0.03899 -0.01412,0.05142 0.0078,-0.002 0.02529,-0.002 0.0178,0.0068 -0.0062,0.002 -0.01153,-0.002 -0.0178,-0.0042 0.0057,0.0061 0.01468,0.0061 0.0456,0.0061 0.03546,-0.03896 -0.0062,-0.05271 0.06311,-0.08048 0.08616,-0.03399 0.02276,-0.03399 0.02127,-0.07788 0.09245,-0.02007 0.05584,-0.101789 0.178508,-0.04266 0.03547,0.01629 0.141858,0.0477 0.168386,-0.002 -0.01634,0.0277 -0.006,0.03145 0.0079,0.03651 -0.006,-0.0042 -0.01056,-0.006 -0.0141,-0.01144 0.03148,-0.04263 0.100183,0.04769 0.04546,0.06655 0.0059,0.0059 0.01471,0.01233 0.03693,0.01233 l -0.0036,0.002 c -0.01791,0.03022 0.07209,0.02127 0.06455,0.03022 -0.01386,0.01258 -0.07088,0.01758 -0.09613,0.02378 0.0059,0.01235 0.106382,-0.01383 0.115093,-0.01751 0.03142,0.105558 -0.286117,0.09552 -0.351956,0.148283 0.006,0 0.168375,-0.03777 0.155772,-0.01377 -0.01153,0.01881 -0.04053,0.01377 -0.05694,0.0238 0.0079,0 0.01883,0.0025 0.02381,0.0025 -0.05704,0.06905 0.07088,0.06043 0.06454,0.07289 -0.02021,0.02258 -0.13049,0.0402 -0.154427,0.05275 z m -0.179308,-0.448531 c -0.01365,0.0061 -0.04052,0.01505 -0.05314,0.01627 0.0057,-0.0021 0.0059,-0.0042 0.0059,-0.0059 0.01468,-0.006 0.03051,-0.01508 0.04674,-0.01146 z m 0.360849,0.257594 c 0.02017,0.0042 -0.01785,0.01506 0,0 z m -0.0061,0.03142 c -0.01881,0.01506 -0.0482,-0.006 -0.06306,-0.01755 0.03412,-0.0059 0.04671,0.0088 0.06306,0.01755 z m -0.0517,0.07789 c -0.01383,0.02513 -0.05975,-0.002 -0.05585,-0.0068 0.0036,-0.0042 0.0061,-0.0061 0.0061,-0.0061 0.01156,0.01629 0.02808,0.02124 0.04819,0.01506 z m 0.0188,0.01507 c 0.01156,-0.01144 0.02381,-0.02127 0.03946,-0.0277 0,0.0042 0.0061,0.0059 0.0061,0.0068 -0.0061,0.0061 -0.02273,0.01234 0.0062,0.01234 -0.0062,0.01752 -0.0507,0.01882 -0.04552,0.0059 z m 0.136885,-0.03395 c 0,0 -0.05172,0.02637 -0.04927,0.02125 0.0062,-0.006 0.01054,-0.01031 0.01785,-0.01257 -0.01391,0 -0.129065,-0.0089 -0.127918,-0.0089 0.006,-0.01233 0.02381,-0.0062 0.02933,-0.02009 -0.0062,0 -0.0062,-0.002 -0.0062,-0.0042 0.04551,-0.01382 0.0812,-0.08167 0.13049,-0.08167 0.01473,0 -0.04412,0.04769 -0.04551,0.05141 0.01156,-0.006 0.02277,-0.006 0.03549,-0.0042 -0.006,0.0025 -0.0078,0.0059 -0.01051,0.01124 0.006,0 0.01387,0 0.01876,0 0,0.002 -0.0059,0.0042 -0.0059,0.0042 0.0059,0 0.01053,-0.0025 0.01476,-0.0042 0.01156,0.0042 0.02538,0.0042 0.03251,0 -0.0062,0.0068 -0.0062,0.01381 -0.01156,0.0251 0.0059,-0.002 0.0078,-0.0025 0.01418,-0.0025 -0.0078,0.01751 -0.0062,0.0068 -0.01418,0.02502 0.01156,0.002 0.0078,-0.0025 0.01638,-0.0061 -0.02123,0.05911 -0.01879,0.02638 -0.0417,0.0042 z m 0.646072,-0.52266 c -0.01039,0.03021 -0.04823,-0.0188 -0.05311,0 0.008,0.006 0.06084,0.01259 0.05426,0.03271 -0.0062,0.01384 -0.06588,-0.0087 -0.07452,-0.01144 -0.0061,0.0087 0.0059,0.0087 -0.01155,0.01144 -0.006,0.0087 0.05427,0.006 0.06724,0.01029 -0.05429,0.01881 -0.114063,0.0277 -0.170903,0.0277 -0.0369,0.01031 -0.05842,0.03515 -0.101203,0.03399 0.0041,-0.0024 0.0041,-0.0041 0.0061,-0.0061 -0.03938,0.0061 -0.08614,0.08673 -0.106319,0.08429 -0.01425,-0.002 -0.108999,-0.0439 -0.07455,-0.06289 -0.006,-0.0068 -0.03539,-0.01256 -0.01876,-0.03528 -0.0061,-0.002 -0.0061,-0.002 -0.0061,0 0.0061,-0.02009 0.04056,-0.02381 0.05319,-0.04021 -0.01389,-0.0024 -0.04178,-0.0042 -0.04058,-0.01145 0.01156,-0.0024 0.0282,0.01145 0.03546,0 -0.0062,0 -0.03146,-0.01627 -0.04182,-0.01507 0.01156,-0.0059 0.0139,-0.0103 0.0038,-0.01259 0.01786,-0.04263 -0.07455,-0.04263 -0.100215,-0.03651 0.0037,0 0.0037,0.002 0.0059,0.002 -0.0059,0.0021 -0.01637,0 -0.02381,-0.0042 0.0061,-0.002 0.0061,-0.002 0.0061,-0.0042 -0.0061,-0.0042 -0.01475,-0.006 -0.02274,-0.0025 0.0077,-0.01377 0.0406,0 0.05173,-0.01232 -0.006,0 -0.0608,0.0059 -0.05841,-0.0042 0.01156,-0.02259 0.0697,-0.002 0.08219,-0.02509 -0.0059,0.002 -0.01634,0 -0.0238,-0.0023 0.01385,-0.02635 0.140553,-0.03141 0.159527,-0.03269 0.0059,-0.0087 0.0188,-0.0068 0.0294,-0.0042 -0.0039,-0.002 -0.006,-0.0042 -0.0039,-0.0042 0.0059,-0.0087 0.05707,0 0.06723,0 -0.0059,0 -0.01482,-0.002 -0.0212,-0.0061 0.006,-0.0023 0.01386,-0.0042 0.01897,-0.0042 -0.006,-0.002 -0.0061,-0.002 -0.0061,-0.0023 0.126552,-0.02901 0.267136,-0.02259 0.39629,-0.01881 -0.008,0.006 -0.02382,0.01257 -0.0418,0.01506 0.01394,-0.002 0.02382,-0.0025 0.02382,0 -0.0042,0.002 -0.05171,0.01625 -0.05426,0.02008 0.01428,-0.0023 0.259559,-0.03141 0.257013,-0.02771 -0.0063,0.01256 -0.05967,0.01506 -0.08619,0.01628 -0.0062,0.01386 -0.106352,0.03518 -0.124014,0.04514 0.01479,-0.0041 0.03035,-0.002 0.04546,0.0028 -0.0062,0.002 -0.0078,0.0023 -0.01393,0.0023 0.008,0.002 0.01802,0.0042 0.02681,0.0068 -0.006,0.01626 -0.05839,-0.0068 -0.06583,0.0103 -0.0061,0.0042 0.0305,0.002 0.02556,0.01507 -0.0063,0.01379 -0.02127,0 -0.02556,0.01029 0.0061,0.0059 0.01636,0.0068 0.02556,0.0059 -0.0063,0.006 -0.02023,0.006 -0.03399,0.006 0,0.0023 0.006,0.0042 0.006,0.0061 -0.01637,0.01881 -0.04822,0.0059 -0.06842,0.0059 0.01427,0.006 0.02554,0.01144 0.03535,0.0175 z m 0.03142,0.05536 c 0.01038,0 0.0293,0 0.03816,-0.002 0.0042,0.002 -0.02935,-0.01258 -0.02806,-0.01624 0.01038,-0.002 0.02556,-0.0059 0.03536,-0.0059 -0.01037,0.02256 0.01394,0.01377 0.02023,0.0088 0.006,0.01029 0.02024,0.002 0.03054,0.0059 0.0042,-0.0059 0.07859,-0.002 0.08744,0 -0.02024,0.0059 0.01035,0.02008 0.0059,0.02898 -0.07334,0.03144 -0.112588,0.0028 -0.181039,-0.0042 0.0061,-0.0024 0.0061,-0.0042 0.0061,-0.0042 0.0061,-0.0061 0.0061,-0.0061 0.01393,-0.01232 -0.008,-0.002 -0.02258,0.0024 -0.02681,-0.0024 z m 2.043422,2.724301 c -0.0062,0.04519 0.05967,0.09051 0.04183,0.131935 -0.05183,0.109328 0.04664,0.219906 -0.08119,0.300327 -0.04411,0.02769 -0.102515,0.05272 -0.112624,0.110598 -0.08219,0.01627 -0.0061,0.113077 -0.0061,0.153303 -0.0062,0.09295 -0.02132,0.07287 -0.07972,0.121894 -0.06084,0.05141 -0.0059,0.09546 -0.0542,0.157073 -0.04809,0.05661 -0.0733,0.124397 -0.117823,0.184721 -0.01875,0.02505 -0.110192,0.05783 -0.114065,0.07786 -0.04941,0.0061 -0.09102,-0.006 -0.139304,0.01884 -0.04552,0.0238 -0.09866,-0.0061 -0.115077,0.0021 0.0047,-0.160851 -0.127961,-0.282739 -0.146855,-0.451116 -0.0061,-0.07789 -0.01037,-0.108033 -0.04664,-0.178431 -0.03817,-0.07413 -0.06978,-0.157062 -0.05429,-0.241265 0.01156,-0.06158 0.0608,-0.103064 0.07454,-0.160849 0.01391,-0.0578 -0.01407,-0.148223 -0.02942,-0.204763 -0.01637,-0.0604 -0.02019,-0.13571 -0.06081,-0.185975 -0.04055,-0.05024 -0.110146,-0.116854 -0.0836,-0.188485 0.04058,-0.109321 0.05965,-0.222414 -0.100214,-0.219903 -0.04929,0.0023 -0.04412,-0.09549 -0.102506,-0.09424 -0.07865,0.0026 -0.141861,0.0917 -0.207624,0.09296 -0.02675,0.0023 -0.04937,-0.02381 -0.07712,-0.02258 -0.03415,0 -0.0584,0.01883 -0.08866,0.03023 -0.06724,0.02256 -0.116405,-0.04264 -0.158271,-0.08427 -0.05584,-0.0566 -0.06586,-0.131938 -0.117821,-0.189736 -0.02929,-0.03142 -0.05841,-0.06412 -0.08121,-0.101782 0.0042,0 0.0061,0 0.0061,0 0,-0.04391 -0.02805,-0.08794 -0.0061,-0.121892 0.02258,-0.03524 0.03817,-0.08427 0.04056,-0.12694 0.0061,-0.0604 -0.04056,-0.147028 -0.0078,-0.202315 0.02374,-0.0414 0.04051,-0.08428 0.05963,-0.128169 0.02557,-0.05406 0.04922,-0.121897 0.108988,-0.143247 0.03265,-0.01257 0.07335,-0.04641 0.08355,-0.08049 0.01155,-0.03651 0.0062,-0.07917 0.02804,-0.11183 0.03397,-0.0477 0.07456,-0.08923 0.111581,-0.135715 -0.0042,0 -0.0042,0 -0.0063,0 0.04049,-0.05406 0.10249,0.0061 0.173472,-0.03526 0.05686,-0.03142 0.12792,-0.06781 0.194954,-0.07031 0.04414,-0.0021 0.08471,0 0.130443,-0.0021 0.02138,0 0.04937,-0.04021 0.06842,-0.0103 0.01151,0.01503 0.02252,0.01503 0.03513,0.0042 -0.0061,0.03899 -0.01882,0.07153 -0.01882,0.114312 0,0.07661 0.0733,0.05142 0.118975,0.0666 0.04182,0.01378 0.20258,0.187229 0.200025,0.05406 -0.006,-0.1156 0.168385,-0.01629 0.211457,-0.0021 0.06081,0.02126 0.107631,0.02898 0.167138,0.0059 0.0455,-0.01628 0.08614,0.01234 0.132897,0 0.02823,0.06902 0.02369,0.08548 0.0062,0.155815 -0.02564,-0.0041 -0.05178,-0.06906 -0.07329,-0.09425 0.0059,0.07284 0.07329,0.159601 0.107606,0.22368 0.02261,0.04263 0.0281,0.08794 0.05173,0.129417 0.02942,0.04896 0.01637,0.116867 0.05173,0.155818 0.03816,0.04139 0.05174,0.06289 0.06454,0.120623 0.01634,0.07539 0.139296,0.124399 0.155791,0.196022 0.02363,0.103047 0.05683,0.07788 0.141867,0.06286 0.04808,-0.0103 0.0935,-0.03524 0.139264,-0.05024 0.04948,0.119371 -0.08114,0.34808 -0.14817,0.446093 -0.07714,0.111831 -0.202586,0.153306 -0.235462,0.297809 -0.0062,0.03898 -0.04293,0.05911 -0.04293,0.101794 -0.0062,0.03773 0.0059,0.07786 0.0059,0.11937 z"
       id="path1025-6-3-6-6-6-6-5" />
  </g>
</svg>
