<?xml version="1.0" encoding="UTF-8" standalone="no"?>
<svg
   width="32"
   height="32"
   version="1.1"
   id="svg12"
   sodipodi:docname="printer.svg"
   inkscape:version="1.1.2 (0a00cf5339, 2022-02-04)"
   xmlns:inkscape="http://www.inkscape.org/namespaces/inkscape"
   xmlns:sodipodi="http://sodipodi.sourceforge.net/DTD/sodipodi-0.dtd"
   xmlns="http://www.w3.org/2000/svg"
   xmlns:svg="http://www.w3.org/2000/svg"
   xmlns:rdf="http://www.w3.org/1999/02/22-rdf-syntax-ns#"
   xmlns:cc="http://creativecommons.org/ns#"
   xmlns:dc="http://purl.org/dc/elements/1.1/">
  <metadata
     id="metadata18">
    <rdf:RDF>
      <cc:Work
         rdf:about="">
        <dc:format>image/svg+xml</dc:format>
        <dc:type
           rdf:resource="http://purl.org/dc/dcmitype/StillImage" />
      </cc:Work>
    </rdf:RDF>
  </metadata>
  <defs
     id="defs16">
    <linearGradient
       x1="372"
       x2="372"
       y1="160"
       y2="176"
       gradientUnits="userSpaceOnUse"
       id="linearGradient8">
      <stop
         offset="0%"
         style="stop-color:#303b3d; stop-opacity:1"
         id="stop18" />
      <stop
         offset="100%"
         style="stop-color:#bc985d; stop-opacity:1"
         id="stop20" />
    </linearGradient>
  </defs>
  <sodipodi:namedview
     pagecolor="#b2b2b2"
     bordercolor="#000000"
     borderopacity="1"
     objecttolerance="10"
     gridtolerance="10"
     guidetolerance="10"
     inkscape:pageopacity="0"
     inkscape:pageshadow="2"
     inkscape:window-width="1920"
     inkscape:window-height="1007"
     id="namedview14"
     showgrid="false"
     inkscape:zoom="9.8125003"
     inkscape:cx="32.254776"
     inkscape:cy="16.815286"
     inkscape:window-x="0"
     inkscape:window-y="0"
     inkscape:window-maximized="1"
     inkscape:current-layer="svg12"
     inkscape:document-rotation="0"
     inkscape:lockguides="true"
     inkscape:showpageshadow="false"
     inkscape:pagecheckerboard="0">
    <inkscape:grid
       type="xygrid"
       id="grid908"
       originx="-1e-06"
       originy="-4.6325681e-08" />
  </sodipodi:namedview>
  <g
     id="printer">
    <rect
       style="opacity:0.00100002"
       width="32"
       height="32"
       x="0"
       y="4.6325681e-08"
       id="rect7" />
    <path
       id="Print_1_"
       class="st0"
       d="M 22.750001,21.142857 H 9.2500002 v 5.142857 H 22.750001 Z M 2.5,9.1428571 H 8.40625 V 12.571429 H 22.750001 V 4 H 24.4375 v 5.1428571 h 3.375 V 7.4285714 H 29.5 V 20.285714 c 0,2.357143 -1.898438,4.285715 -4.21875,4.285715 H 24.4375 V 28 H 7.5624999 V 24.571429 H 2.5 Z"
       style="clip-rule:evenodd;fill:#cdd8e5;fill-opacity:0.40392157;fill-rule:evenodd;stroke-width:0.42521" />
    <path
       id="Print-s"
       class="st1"
       d="m 4.1875003,24.571429 h 3.3749996 v 1.714285 H 4.1875003 Z M 10.9375,22.857143 h 6.75 v 1.714286 h -6.75 z m 16.875,-1.714286 V 9.1428571 H 29.5 V 21.142857 c 0,2.828572 -2.278125,5.142857 -5.0625,5.142857 v -1.714285 c 1.856251,0 3.375,-1.542858 3.375,-3.428572 z M 7.5624999,7.4285714 C 7.5624999,5.5428571 9.0812499,4 10.9375,4 h 8.4375 v 1.7142857 h -8.4375 c -0.928125,0 -1.6874998,0.7714286 -1.6874998,1.7142857 V 12.571429 H 7.5624999 Z"
       style="clip-rule:evenodd;fill:#eff0f1;fill-opacity:1;fill-rule:evenodd;stroke-width:0.42521" />
  </g>
  <g
     id="22-22-printer">
    <rect
       style="opacity:0.00100002"
       width="22"
       height="22"
       x="32"
       y="10.000001"
       id="rect2" />
    <path
       id="Print_1_-3"
       class="st0"
       d="M 47.500001,24.428573 H 38.5 v 3.428571 h 9.000001 z M 34,16.428572 h 3.9375 v 2.285715 h 9.562501 V 13.000001 H 48.625 v 3.428571 h 2.25 V 15.285715 H 52 v 8.571429 c 0,1.571429 -1.265625,2.857143 -2.8125,2.857143 H 48.625 v 2.285714 H 37.375 V 26.714287 H 34 Z"
       style="clip-rule:evenodd;fill:#cdd8e5;fill-opacity:0.40392157;fill-rule:evenodd;stroke-width:0.283473" />
    <path
       id="Print-s-6"
       class="st1"
       d="m 35.125,26.714287 h 2.25 v 1.142857 h -2.25 z m 4.5,-1.142857 h 4.5 v 1.142857 h -4.5 z m 11.25,-1.142857 V 16.428572 H 52 v 8.000001 c 0,1.885714 -1.51875,3.428571 -3.375,3.428571 v -1.142857 c 1.237501,0 2.25,-1.028572 2.25,-2.285714 z m -13.5,-9.142858 c 0,-1.257143 1.0125,-2.285714 2.25,-2.285714 h 5.625 v 1.142857 h -5.625 c -0.61875,0 -1.125,0.514286 -1.125,1.142857 v 3.428572 h -1.125 z"
       style="clip-rule:evenodd;fill:#eff0f1;fill-opacity:1;fill-rule:evenodd;stroke-width:0.283473" />
  </g>
</svg>
