<?xml version="1.0" encoding="UTF-8" standalone="no"?>
<svg
   style="enable-background:new"
   width="32"
   height="32"
   version="1.1"
   id="svg36"
   sodipodi:docname="qbittorrent.svg"
   inkscape:version="1.2.2 (b0a8486541, 2022-12-01)"
   xmlns:inkscape="http://www.inkscape.org/namespaces/inkscape"
   xmlns:sodipodi="http://sodipodi.sourceforge.net/DTD/sodipodi-0.dtd"
   xmlns="http://www.w3.org/2000/svg"
   xmlns:svg="http://www.w3.org/2000/svg"
   xmlns:rdf="http://www.w3.org/1999/02/22-rdf-syntax-ns#"
   xmlns:cc="http://creativecommons.org/ns#"
   xmlns:dc="http://purl.org/dc/elements/1.1/">
  <style
     id="current-color-scheme"
     type="text/css">.ColorScheme-Highlight { color:#cdd8e5; }
.ColorScheme-Text { color:#eff0f1; }
</style>
  <metadata
     id="metadata40">
    <rdf:RDF>
      <cc:Work
         rdf:about="">
        <dc:format>image/svg+xml</dc:format>
        <dc:type
           rdf:resource="http://purl.org/dc/dcmitype/StillImage" />
      </cc:Work>
    </rdf:RDF>
  </metadata>
  <sodipodi:namedview
     pagecolor="#b2b2b2"
     bordercolor="#000000"
     borderopacity="1"
     objecttolerance="10"
     gridtolerance="10"
     guidetolerance="10"
     inkscape:pageopacity="0"
     inkscape:pageshadow="2"
     inkscape:window-width="1920"
     inkscape:window-height="1000"
     id="namedview38"
     showgrid="false"
     inkscape:zoom="14.75"
     inkscape:cx="14.745763"
     inkscape:cy="14.677966"
     inkscape:window-x="0"
     inkscape:window-y="0"
     inkscape:window-maximized="1"
     inkscape:current-layer="svg36"
     inkscape:lockguides="true"
     inkscape:document-rotation="0"
     inkscape:showpageshadow="false"
     inkscape:pagecheckerboard="0"
     inkscape:deskcolor="#b2b2b2">
    <inkscape:grid
       type="xygrid"
       id="grid923"
       originx="0"
       originy="0" />
  </sodipodi:namedview>
  <defs
     id="defs4">
    <linearGradient
       id="linearGradient5606"
       inkscape:swatch="solid">
      <stop
         id="stop5608"
         offset="0"
         style="stop-color:#000000" />
    </linearGradient>
  </defs>
  <g
     id="qbittorrent">
    <rect
       width="32"
       height="32"
       x="0"
       y="0"
       style="opacity:0.00100002"
       id="rect13" />
    <path
       id="Zoom-4-9"
       class="st0  ColorScheme-Highlight "
       d="m 25.695858,23.049081 h 2e-6 c 0.87692,-1.615386 2.30415,-5.064464 2.30415,-7.049079 C 28.00001,9.3538465 22.646151,4 15.999999,4 9.353845,4 4,9.3538465 4,16.000002 c 0,6.646154 5.353845,11.999997 11.999999,11.999997 3.969231,0 7.476927,-1.938455 9.692315,-4.938458 z m -9.69586,1.258614 c -4.569231,0 -8.307688,-3.738462 -8.307688,-8.307693 0,-4.569232 3.738458,-8.307693 8.307688,-8.307693 4.569232,0 8.307702,3.738461 8.307702,8.307693 0,4.569231 -3.73847,8.307693 -8.307702,8.307693 z"
       sodipodi:nodetypes="ccssssccscccs"
       style="fill:#cdd8e5;fill-opacity:0.40392157" />
    <path
       id="Zoom-s-8"
       class="st1  ColorScheme-Text"
       d="M 25.080234,23.049081 Z M 23.848983,9.5053284 Z m 1.843306,13.5562126 c 1.661535,-2.261538 2.492309,-5.076924 2.261536,-7.892309 C 27.769212,12.26154 26.52305,9.5384626 24.446128,7.507693 L 23.15382,8.800001 c 1.846161,1.846153 2.953856,4.384616 2.953856,7.200001 0,2.123077 -0.64616,4.107693 -1.800001,5.769231 z"
       style="fill:currentColor;fill-opacity:1;stroke-width:0.461539"
       sodipodi:nodetypes="ccccccccccccccccsccc" />
    <path
       style="fill:#cdd8e5;fill-opacity:0.40392157;stroke-width:0.75;enable-background:new"
       d="M 17.5,10.25 A 0.75,0.75 0 0 0 16.75,11 v 8.25 h 1.5 v -0.405763 c 0.455612,0.264906 0.972977,0.404382 1.5,0.405763 1.656858,0 3,-1.343142 3,-3 0,-1.656858 -1.343142,-3 -3,-3 -0.526892,0.0012 -1.044241,0.139915 -1.5,0.404299 V 11 A 0.75,0.75 0 0 0 17.5,10.25 Z m 2.25,4.5 c 0.828423,0 1.5,0.671577 1.5,1.5 0,0.828423 -0.671577,1.5 -1.5,1.5 -0.828423,0 -1.5,-0.671577 -1.5,-1.5 0,-0.828423 0.671577,-1.5 1.5,-1.5 z"
       id="path8-3"
       class="ColorScheme-Highlight" />
    <path
       style="fill:currentColor;fill-opacity:1;stroke-width:0.75;enable-background:new"
       d="m 12.25,13.25 c -1.656854,0 -3,1.343142 -3,3 0,1.656858 1.343146,3 3,3 0.526892,-0.0013 1.044245,-0.141375 1.5,-0.405763 V 21.5 a 0.75,0.75 0 0 0 0.75,0.75 0.75,0.75 0 0 0 0.75,-0.75 v -8.25 h -1.5 v 0.405763 C 13.294388,13.390856 12.777023,13.251388 12.25,13.25 Z m 0,1.5 c 0.828424,0 1.5,0.671577 1.5,1.5 0,0.828423 -0.671576,1.5 -1.5,1.5 -0.828423,0 -1.5,-0.671577 -1.5,-1.5 0,-0.828423 0.671577,-1.5 1.5,-1.5 z"
       id="path10-6"
       class="ColorScheme-Text" />
  </g>
  <g
     id="22-22-qbittorrent"
     transform="translate(32,10)">
    <path
       style="opacity:0"
       d="M 0,0 H 22 V 22 H 0 Z"
       id="path6" />
    <path
       style="fill:#cdd8e5;fill-opacity:0.40392157;stroke-width:0.5"
       d="m 12,7.25 a 0.49999999,0.5 0 0 0 -0.5,0.5 v 5.5 h 1 v -0.270513 c 0.303743,0.176611 0.648649,0.269593 1,0.270513 1.10457,0 2.000001,-0.895427 2.000001,-2 0,-1.104573 -0.895431,-2 -2.000001,-2 -0.35126,0.0012 -0.696161,0.09327 -1,0.269534 V 7.75 A 0.49999999,0.5 0 0 0 12,7.25 Z m 1.5,3 c 0.552284,0 1,0.44772 1,1 0,0.55228 -0.447716,1 -1,1 -0.552284,0 -1,-0.44772 -1,-1 0,-0.55228 0.447716,-1 1,-1 z"
       id="path8"
       class="ColorScheme-Highlight" />
    <path
       style="fill:currentColor;fill-opacity:1;stroke-width:0.5"
       d="m 8.5,9.25 c -1.1045698,0 -2,0.895427 -2,2 0,1.104573 0.8954302,2 2,2 0.3512612,-0.0012 0.6961628,-0.09424 1,-0.270513 V 14.75 a 0.49999999,0.5 0 0 0 0.5,0.5 0.49999999,0.5 0 0 0 0.5,-0.5 v -5.5 h -1 V 9.520513 C 9.1962578,9.343901 8.8513506,9.250922 8.5,9.25 Z m 0,1 c 0.5522847,0 1,0.44772 1,1 0,0.55228 -0.4477153,1 -1,1 -0.552284,0 -1,-0.44772 -1,-1 0,-0.55228 0.447716,-1 1,-1 z"
       id="path10"
       class="ColorScheme-Text" />
    <path
       id="Zoom-4-9-0"
       class="st0  ColorScheme-Highlight "
       d="m 17.463906,15.699388 v 0 c 0.584615,-1.076924 1.5361,-3.37631 1.5361,-4.699386 C 19.000006,6.569231 15.430768,3 10.999998,3 6.56923,3 3,6.569231 3,11.000002 c 0,4.430769 3.56923,7.999997 7.999998,7.999997 2.646155,0 4.984618,-1.292303 6.461544,-3.292304 z M 11,16.538463 c -3.046155,0 -5.53846,-2.492307 -5.53846,-5.538461 0,-3.046155 2.492305,-5.538463 5.53846,-5.538463 3.046153,0 5.538468,2.492308 5.538468,5.538463 0,3.046153 -2.492314,5.538461 -5.538468,5.538461 z"
       sodipodi:nodetypes="ccssssccscccs"
       style="fill:#cdd8e5;fill-opacity:0.40392157" />
    <path
       id="Zoom-s-8-9"
       class="st1  ColorScheme-Text "
       d="M 17.053489,15.699388 Z M 16.232656,6.670219 Z m 1.228872,9.037475 c 1.107689,-1.507692 1.661538,-3.384616 1.507688,-5.261538 -0.123075,-1.938462 -0.95385,-3.753847 -2.338464,-5.107694 l -0.861539,0.861539 c 1.230774,1.230769 1.969237,2.923077 1.969237,4.800002 0,1.415384 -0.430773,2.738462 -1.200001,3.846154 z"
       style="fill:currentColor;fill-opacity:1;stroke-width:0.307693"
       sodipodi:nodetypes="ccccccccccccccccsccc" />
  </g>
</svg>
