<?xml version="1.0" encoding="UTF-8" standalone="no"?>
<svg
   width="32"
   height="32"
   version="1.1"
   id="svg32"
   sodipodi:docname="quassel.svg"
   inkscape:version="1.1.2 (0a00cf5339, 2022-02-04)"
   xmlns:inkscape="http://www.inkscape.org/namespaces/inkscape"
   xmlns:sodipodi="http://sodipodi.sourceforge.net/DTD/sodipodi-0.dtd"
   xmlns:xlink="http://www.w3.org/1999/xlink"
   xmlns="http://www.w3.org/2000/svg"
   xmlns:svg="http://www.w3.org/2000/svg"
   xmlns:rdf="http://www.w3.org/1999/02/22-rdf-syntax-ns#"
   xmlns:cc="http://creativecommons.org/ns#"
   xmlns:dc="http://purl.org/dc/elements/1.1/">
  <metadata
     id="metadata38">
    <rdf:RDF>
      <cc:Work
         rdf:about="">
        <dc:format>image/svg+xml</dc:format>
        <dc:type
           rdf:resource="http://purl.org/dc/dcmitype/StillImage" />
      </cc:Work>
    </rdf:RDF>
  </metadata>
  <defs
     id="defs36">
    <linearGradient
       xlink:href="#linearGradient4167"
       id="linearGradient4183"
       x1="24.112"
       y1="36.417"
       x2="17.358"
       y2="8.9840002"
       gradientUnits="userSpaceOnUse"
       gradientTransform="matrix(0.63157893,0,0,0.63157893,0.842109,0.21052802)" />
    <linearGradient
       id="linearGradient4167">
      <stop
         style="stop-color:#7d519e;stop-opacity:1;"
         offset="0"
         id="stop12" />
      <stop
         style="stop-color:#a987c2;stop-opacity:1"
         offset="1"
         id="stop14" />
    </linearGradient>
    <linearGradient
       x1="0"
       x2="0"
       y1="0"
       y2="1"
       id="linearGradient9">
      <stop
         offset="0%"
         style="stop-color:#303b3d; stop-opacity:1"
         id="stop18" />
      <stop
         offset="100%"
         style="stop-color:#bc985d; stop-opacity:1"
         id="stop20" />
    </linearGradient>
  </defs>
  <sodipodi:namedview
     pagecolor="#b2b2b2"
     bordercolor="#000000"
     borderopacity="1"
     objecttolerance="10"
     gridtolerance="10"
     guidetolerance="10"
     inkscape:pageopacity="0"
     inkscape:pageshadow="2"
     inkscape:window-width="1920"
     inkscape:window-height="1007"
     id="namedview34"
     showgrid="false"
     inkscape:zoom="4.90625"
     inkscape:cx="31.082803"
     inkscape:cy="6.522293"
     inkscape:window-x="0"
     inkscape:window-y="0"
     inkscape:window-maximized="1"
     inkscape:current-layer="svg32"
     inkscape:document-rotation="0"
     inkscape:showpageshadow="false"
     inkscape:lockguides="false"
     inkscape:pagecheckerboard="0">
    <inkscape:grid
       type="xygrid"
       id="grid890"
       originx="0"
       originy="0" />
  </sodipodi:namedview>
  <g
     id="quassel">
    <rect
       style="opacity:0.00100002"
       width="32"
       height="32"
       x="0"
       y="0"
       id="rect17" />
    <path
       id="Chat"
       class="st0"
       d="M 28.250001,5.714286 V 7.428571 H 5.5 v 15.428572 h 10.500001 l 0.0875,0.257143 C 17.093751,26.028572 19.850001,28 23.000001,28 v -5.142857 h 2.625 c 2.40625,0 4.375,-1.928571 4.375,-4.285714 V 5.714286 Z M 9,17.714286 Z m 0,-3.428572 z m 0,-1.714285 z"
       style="fill:#cdd8e5;fill-opacity:0.40392157;stroke-width:0.433013"
       sodipodi:nodetypes="ccccccccssccccccccccccccccc" />
    <path
       id="Chat-s"
       class="st1"
       d="m 30.000001,7.428571 v 12 c 0,2.828572 -2.3625,5.142858 -5.25,5.142858 h -1.75 v -1.714286 h 1.75 c 1.925,0 3.5,-1.542857 3.5,-3.428572 v -12 z M 2,7.428571 C 2,5.542857 3.575,4 5.5,4 H 16.875001 V 5.714286 H 5.5 c -0.9625,0 -1.75,0.771428 -1.75,1.714285 v 5.142858 H 2 Z M 16.000001,22.857143 H 7.25 v 1.714286 h 9.537501 c -0.2625,-0.471429 -0.525,-0.942857 -0.7,-1.457143 z"
       style="fill:#eff0f1;fill-opacity:1;stroke-width:0.433013"
       sodipodi:nodetypes="cssccssccssccssccsccccsc" />
    <path
       d="m 11,11.95 v 1.749999 H 9.250001 V 14.575 H 11 v 1.749999 H 9.250001 v 0.874999 H 11 v 1.75 h 0.875 v -1.75 h 1.749999 v 1.75 h 0.874999 v -1.75 h 1.75 v -0.874999 h -1.75 V 14.575 h 1.75 v -0.875001 h -1.75 V 11.95 h -0.874999 v 1.749999 H 11.875 V 11.95 Z m 0.875,2.625 h 1.749999 v 1.749999 H 11.875 Z"
       style="color:#d5c289;fill:#eff0f1;fill-opacity:1;stroke-width:0.0875"
       class="ColorScheme-Text"
       id="path58-2-6-3" />
    <rect
       width="1.75"
       height="1.75"
       x="19.25"
       y="17.299999"
       rx="0.875"
       style="color:#d5c289;fill:#eff0f1;fill-opacity:1;stroke-width:0.0875"
       class="ColorScheme-Text"
       id="rect62-1-5-5" />
    <rect
       width="1.75"
       height="1.75"
       x="23.25"
       y="17.299999"
       rx="0.875"
       style="color:#d5c289;fill:#eff0f1;fill-opacity:1;stroke-width:0.0875"
       class="ColorScheme-Text"
       id="rect62-1-5-5-6" />
  </g>
  <g
     id="22-22-quassel"
     transform="translate(64,-22)">
    <rect
       style="opacity:0.00100002"
       width="22"
       height="22"
       x="-64"
       y="0"
       id="rect2" />
    <path
       id="Chat-3"
       class="st0"
       d="m -44.799999,4.142857 v 1.142857 h -15.166668 v 10.285715 h 7.000001 l 0.05833,0.171428 C -52.237499,17.685715 -50.399999,19 -48.299999,19 v -3.428571 h 1.75 c 1.604166,0 2.916666,-1.285714 2.916666,-2.857143 V 4.142857 Z m -12.833334,8 z m 0,-2.285714 z m 0,-1.142857 z"
       style="fill:#cdd8e5;fill-opacity:0.40392157;stroke-width:0.288675"
       sodipodi:nodetypes="ccccccccssccccccccccccccccc" />
    <path
       id="Chat-s-6"
       class="st1"
       d="m -43.633333,5.285714 v 8 c 0,1.885715 -1.575,3.428572 -3.5,3.428572 h -1.166666 v -1.142857 h 1.166666 c 1.283334,0 2.333334,-1.028572 2.333334,-2.285715 v -8 z m -18.666667,0 C -62.3,4.028571 -61.25,3 -59.966667,3 h 7.583334 v 1.142857 h -7.583334 c -0.641666,0 -1.166666,0.514286 -1.166666,1.142857 V 8.714286 H -62.3 Z m 9.333334,10.285715 H -58.8 v 1.142857 h 6.358334 c -0.175,-0.314286 -0.35,-0.628571 -0.466667,-0.971429 z"
       style="fill:#eff0f1;fill-opacity:1;stroke-width:0.288675"
       sodipodi:nodetypes="cssccssccssccssccsccccsc" />
    <path
       d="m -56.3,8.3 v 1.166666 h -1.166666 V 10.05 H -56.3 v 1.166666 h -1.166666 v 0.583333 H -56.3 v 1.166666 h 0.583333 v -1.166666 h 1.166666 v 1.166666 h 0.583333 v -1.166666 h 1.166667 v -0.583333 h -1.166667 V 10.05 h 1.166667 V 9.466666 h -1.166667 V 8.3 h -0.583333 v 1.166666 h -1.166666 V 8.3 Z m 0.583333,1.75 h 1.166666 v 1.166666 h -1.166666 z"
       style="color:#d5c289;fill:#eff0f1;fill-opacity:1;stroke-width:0.0583333"
       class="ColorScheme-Text"
       id="path58-2-6-3-7" />
    <rect
       width="1.1666666"
       height="1.1666666"
       x="-50.799999"
       y="11.866658"
       rx="0.58333331"
       style="color:#d5c289;fill:#eff0f1;fill-opacity:1;stroke-width:0.0583333"
       class="ColorScheme-Text"
       id="rect62-1-5-5-5" />
    <rect
       width="1.1666666"
       height="1.1666666"
       x="-48.133331"
       y="11.866658"
       rx="0.58333331"
       style="color:#d5c289;fill:#eff0f1;fill-opacity:1;stroke-width:0.0583333"
       class="ColorScheme-Text"
       id="rect62-1-5-5-6-3" />
  </g>
  <g
     id="22-22-quassel-message"
     transform="translate(64,-22)">
    <rect
       style="opacity:0.00100002"
       width="22"
       height="22"
       x="-32"
       y="0"
       id="rect7" />
    <path
       id="Chat-3-5"
       class="st0"
       d="m -12.799999,4.142857 v 1.142857 h -15.166668 v 10.285715 h 7.000001 l 0.05833,0.171428 C -20.237499,17.685715 -18.399999,19 -16.299999,19 v -3.428571 h 1.75 c 1.604166,0 2.916666,-1.285714 2.916666,-2.857143 V 4.142857 Z m -12.833334,8 z m 0,-2.285714 z m 0,-1.142857 z"
       style="fill:#cdd8e5;fill-opacity:0.40392157;stroke-width:0.288675"
       sodipodi:nodetypes="ccccccccssccccccccccccccccc" />
    <path
       id="Chat-s-6-6"
       class="st1"
       d="m -11.633333,5.285714 v 8 c 0,1.885715 -1.575,3.428572 -3.5,3.428572 h -1.166666 v -1.142857 h 1.166666 c 1.283334,0 2.333334,-1.028572 2.333334,-2.285715 v -8 z m -18.666667,0 C -30.3,4.028571 -29.25,3 -27.966667,3 h 7.583334 v 1.142857 h -7.583334 c -0.641666,0 -1.166666,0.514286 -1.166666,1.142857 V 8.714286 H -30.3 Z m 9.333334,10.285715 H -26.8 v 1.142857 h 6.358334 c -0.175,-0.314286 -0.35,-0.628571 -0.466667,-0.971429 z"
       style="fill:#a3be8c;fill-opacity:1;stroke-width:0.288675"
       sodipodi:nodetypes="cssccssccssccssccsccccsc" />
    <path
       d="m -24.3,8.3 v 1.166666 h -1.166666 V 10.05 H -24.3 v 1.166666 h -1.166666 v 0.583333 H -24.3 v 1.166666 h 0.583333 v -1.166666 h 1.166666 v 1.166666 h 0.583333 v -1.166666 h 1.166667 v -0.583333 h -1.166667 V 10.05 h 1.166667 V 9.466666 h -1.166667 V 8.3 h -0.583333 v 1.166666 h -1.166666 V 8.3 Z m 0.583333,1.75 h 1.166666 v 1.166666 h -1.166666 z"
       style="color:#d5c289;fill:#a3be8c;fill-opacity:1;stroke-width:0.0583333"
       class="ColorScheme-Text"
       id="path58-2-6-3-7-2" />
    <rect
       width="1.1666666"
       height="1.1666666"
       x="-18.799997"
       y="11.866663"
       rx="0.58333331"
       style="color:#d5c289;fill:#a3be8c;fill-opacity:1;stroke-width:0.0583333"
       class="ColorScheme-Text"
       id="rect62-1-5-5-5-9" />
    <rect
       width="1.1666666"
       height="1.1666666"
       x="-16.133327"
       y="11.866663"
       rx="0.58333331"
       style="color:#d5c289;fill:#a3be8c;fill-opacity:1;stroke-width:0.0583333"
       class="ColorScheme-Text"
       id="rect62-1-5-5-6-3-1" />
  </g>
  <g
     id="22-22-quassel-inactive"
     transform="translate(64,-22)">
    <rect
       style="opacity:0.00100002"
       width="22"
       height="22"
       x="0"
       y="0"
       id="rect12" />
    <path
       id="Chat-3-2"
       class="st0"
       d="M 19.2,4.142857 V 5.285714 H 4.033333 v 10.285715 h 6.999997 l 0.0583,0.171428 C 11.7625,17.685715 13.6,19 15.7,19 v -3.428571 h 1.75 c 1.60417,0 2.91667,-1.285714 2.91667,-2.857143 V 4.142857 Z m -12.833333,8 z m 0,-2.285714 z m 0,-1.142857 z"
       style="opacity:1;fill:#cdd8e5;fill-opacity:0.40392157;stroke-width:0.288675"
       sodipodi:nodetypes="ccccccccssccccccccccccccccc" />
    <path
       id="Chat-s-6-7"
       class="st1"
       d="m 20.36667,5.285714 v 8 c 0,1.885715 -1.575,3.428572 -3.5,3.428572 H 15.7 v -1.142857 h 1.16667 c 1.28333,0 2.33333,-1.028572 2.33333,-2.285715 v -8 z m -18.66667,0 C 1.7,4.028571 2.75,3 4.033333,3 H 11.61667 V 4.142857 H 4.033333 c -0.641666,0 -1.166666,0.514286 -1.166666,1.142857 V 8.714286 H 1.7 Z m 9.33333,10.285715 H 5.2 v 1.142857 h 6.35833 c -0.175,-0.314286 -0.35,-0.628571 -0.46666,-0.971429 z"
       style="opacity:1;fill:#bf616a;fill-opacity:1;stroke-width:0.288675"
       sodipodi:nodetypes="cssccssccssccssccsccccsc" />
    <path
       d="M 7.7,8.3 V 9.466666 H 6.533334 V 10.05 H 7.7 v 1.166666 H 6.533334 v 0.583333 H 7.7 v 1.166666 h 0.583333 v -1.166666 h 1.166666 v 1.166666 H 10.03333 V 11.799999 H 11.2 V 11.216666 H 10.03333 V 10.05 H 11.2 V 9.466666 H 10.03333 V 8.3 H 9.449999 V 9.466666 H 8.283333 V 8.3 Z m 0.583333,1.75 h 1.166666 v 1.166666 H 8.283333 Z"
       style="color:#d5c289;fill:#bf616a;fill-opacity:1;stroke-width:0.0583333"
       class="ColorScheme-Text"
       id="path58-2-6-3-7-0" />
    <rect
       width="1.1666666"
       height="1.1666666"
       x="13.200003"
       y="11.866657"
       rx="0.58333331"
       style="color:#d5c289;fill:#bf616a;fill-opacity:1;stroke-width:0.0583333"
       class="ColorScheme-Text"
       id="rect62-1-5-5-5-93" />
    <rect
       width="1.1666666"
       height="1.1666666"
       x="15.866674"
       y="11.866657"
       rx="0.58333331"
       style="color:#d5c289;fill:#bf616a;fill-opacity:1;stroke-width:0.0583333"
       class="ColorScheme-Text"
       id="rect62-1-5-5-6-3-6" />
  </g>
  <g
     id="quassel-message"
     transform="translate(64,-22)">
    <rect
       style="opacity:0.00100002"
       width="32"
       height="32"
       x="-32"
       y="22"
       id="rect22-1" />
    <path
       id="Chat-0"
       class="st0"
       d="m -3.749999,27.714286 v 1.714285 H -26.5 V 44.85714 h 10.500001 l 0.0875,0.25715 c 1.00625,2.91428 3.7625,4.88571 6.9125,4.88571 v -5.14286 h 2.625 c 2.40625,0 4.375,-1.92857 4.375,-4.285711 V 27.714286 Z m -19.250001,12 z m 0,-3.428572 z m 0,-1.714285 z"
       style="fill:#cdd8e5;fill-opacity:0.40392157;stroke-width:0.433013"
       sodipodi:nodetypes="ccccccccssccccccccccccccccc" />
    <path
       id="Chat-s-62"
       class="st1"
       d="m -1.999999,29.428571 v 12 c 0,2.828569 -2.3625,5.142859 -5.25,5.142859 h -1.75 v -1.71429 h 1.75 c 1.925,0 3.5,-1.54285 3.5,-3.428569 v -12 z m -28.000001,0 C -30,27.542857 -28.425,26 -26.5,26 h 11.375001 v 1.714286 H -26.5 c -0.9625,0 -1.75,0.771428 -1.75,1.714285 v 5.142858 H -30 Z M -15.999999,44.85714 H -24.75 v 1.71429 h 9.537501 c -0.2625,-0.47143 -0.525,-0.94286 -0.7,-1.45714 z"
       style="fill:#a3be8c;fill-opacity:1;stroke-width:0.433013"
       sodipodi:nodetypes="cssccssccssccssccsccccsc" />
    <path
       d="m -21,33.95 v 1.749999 h -1.749999 V 36.575 H -21 v 1.749999 h -1.749999 v 0.874999 H -21 v 1.75 h 0.875 v -1.75 h 1.749999 v 1.75 h 0.874999 v -1.75 h 1.75 v -0.874999 h -1.75 V 36.575 h 1.75 v -0.875001 h -1.75 V 33.95 h -0.874999 v 1.749999 H -20.125 V 33.95 Z m 0.875,2.625 h 1.749999 v 1.749999 H -20.125 Z"
       style="color:#d5c289;fill:#a3be8c;fill-opacity:1;stroke-width:0.0875"
       class="ColorScheme-Text"
       id="path58-2-6-3-6" />
    <rect
       width="1.75"
       height="1.75"
       x="-12.749998"
       y="39.300003"
       rx="0.875"
       style="color:#d5c289;fill:#a3be8c;fill-opacity:1;stroke-width:0.0875"
       class="ColorScheme-Text"
       id="rect62-1-5-5-1" />
    <rect
       width="1.75"
       height="1.75"
       x="-8.7499981"
       y="39.300003"
       rx="0.875"
       style="color:#d5c289;fill:#a3be8c;fill-opacity:1;stroke-width:0.0875"
       class="ColorScheme-Text"
       id="rect62-1-5-5-6-8" />
  </g>
  <g
     id="quassel-inactive"
     transform="translate(64,-22)">
    <rect
       style="opacity:0.00100002"
       width="32"
       height="32"
       x="0"
       y="22"
       id="rect27" />
    <path
       id="Chat-7"
       class="st0"
       d="m 28.25,27.714286 v 1.714285 H 5.5 V 44.857143 H 16 l 0.0875,0.257143 C 17.09375,48.028572 19.85,50 23,50 v -5.142857 h 2.625 c 2.40625,0 4.375,-1.928571 4.375,-4.285714 V 27.714286 Z m -19.25,12 z m 0,-3.428572 z m 0,-1.714285 z"
       style="opacity:1;fill:#cdd8e5;fill-opacity:0.40392157;stroke-width:0.433013"
       sodipodi:nodetypes="ccccccccssccccccccccccccccc" />
    <path
       id="Chat-s-9"
       class="st1"
       d="m 30,29.428571 v 12 c 0,2.828572 -2.3625,5.142858 -5.25,5.142858 H 23 v -1.714286 h 1.75 c 1.925,0 3.5,-1.542857 3.5,-3.428572 v -12 z m -28,0 C 2,27.542857 3.575,26 5.5,26 h 11.375 v 1.714286 H 5.5 c -0.9625,0 -1.75,0.771428 -1.75,1.714285 v 5.142858 H 2 Z M 16,44.857143 H 7.25 v 1.714286 h 9.5375 C 16.525,46.1 16.2625,45.628572 16.0875,45.114286 Z"
       style="opacity:1;fill:#bf616a;fill-opacity:1;stroke-width:0.433013"
       sodipodi:nodetypes="cssccssccssccssccsccccsc" />
    <path
       d="m 11,33.95 v 1.749999 H 9.25 V 36.575 H 11 v 1.749999 H 9.25 v 0.874999 H 11 v 1.75 h 0.875 v -1.75 h 1.75 v 1.75 H 14.5 v -1.75 h 1.75 V 38.324999 H 14.5 V 36.575 h 1.75 V 35.699999 H 14.5 V 33.95 h -0.875 v 1.749999 h -1.75 V 33.95 Z m 0.875,2.625 h 1.75 v 1.749999 h -1.75 z"
       style="color:#d5c289;fill:#bf616a;fill-opacity:1;stroke-width:0.0875"
       class="ColorScheme-Text"
       id="path58-2-6-3-2" />
    <rect
       width="1.75"
       height="1.75"
       x="19.25"
       y="39.299999"
       rx="0.875"
       style="color:#d5c289;fill:#bf616a;fill-opacity:1;stroke-width:0.0875"
       class="ColorScheme-Text"
       id="rect62-1-5-5-0" />
    <rect
       width="1.75"
       height="1.75"
       x="23.25"
       y="39.299999"
       rx="0.875"
       style="color:#d5c289;fill:#bf616a;fill-opacity:1;stroke-width:0.0875"
       class="ColorScheme-Text"
       id="rect62-1-5-5-6-2" />
  </g>
</svg>
