<?xml version="1.0" encoding="UTF-8" standalone="no"?>
<svg
   width="32"
   height="32"
   viewBox="0 0 32 32"
   version="1.1"
   id="svg867"
   inkscape:version="1.2.2 (b0a8486541, 2022-12-01)"
   sodipodi:docname="redshift.svg"
   xmlns:inkscape="http://www.inkscape.org/namespaces/inkscape"
   xmlns:sodipodi="http://sodipodi.sourceforge.net/DTD/sodipodi-0.dtd"
   xmlns="http://www.w3.org/2000/svg"
   xmlns:svg="http://www.w3.org/2000/svg"
   xmlns:rdf="http://www.w3.org/1999/02/22-rdf-syntax-ns#"
   xmlns:cc="http://creativecommons.org/ns#"
   xmlns:dc="http://purl.org/dc/elements/1.1/">
  <defs
     id="defs3871">
    <style
       type="text/css"
       id="current-color-scheme">
      .ColorScheme-Text {
        color:#31363b;
      }
      </style>
  </defs>
  <sodipodi:namedview
     inkscape:object-paths="true"
     guideopacity="0.62745098"
     guidecolor="#0000ff"
     inkscape:bbox-nodes="true"
     inkscape:snap-intersection-paths="true"
     inkscape:snap-bbox="true"
     id="base"
     pagecolor="#b2b2b2"
     bordercolor="#000000"
     borderopacity="1"
     inkscape:pageopacity="0"
     inkscape:pageshadow="2"
     inkscape:zoom="5.6"
     inkscape:cx="-26.160714"
     inkscape:cy="17.410714"
     inkscape:document-units="px"
     inkscape:current-layer="layer1"
     inkscape:document-rotation="0"
     showgrid="false"
     inkscape:window-width="1920"
     inkscape:window-height="1000"
     inkscape:window-x="0"
     inkscape:window-y="0"
     inkscape:window-maximized="1"
     units="px"
     inkscape:snap-bbox-edge-midpoints="false"
     inkscape:lockguides="true"
     inkscape:pagecheckerboard="0"
     inkscape:showpageshadow="false"
     inkscape:deskcolor="#b2b2b2">
    <inkscape:grid
       opacity="0.41960784"
       color="#3f3fff"
       type="xygrid"
       id="grid1448"
       originx="-3.5527137e-15"
       originy="0" />
  </sodipodi:namedview>
  <metadata
     id="metadata864">
    <rdf:RDF>
      <cc:Work
         rdf:about="">
        <dc:format>image/svg+xml</dc:format>
        <dc:type
           rdf:resource="http://purl.org/dc/dcmitype/StillImage" />
      </cc:Work>
    </rdf:RDF>
  </metadata>
  <g
     inkscape:label="Layer 1"
     inkscape:groupmode="layer"
     id="layer1">
    <g
       id="22-22-redshift-status-on">
      <rect
         y="10"
         x="-44"
         height="22"
         width="22"
         id="rect1467-9-7-9-9-4"
         style="opacity:0.003;fill-opacity:1" />
      <path
         id="Bulb-3"
         class="st0"
         d="m -33,14 c -2.2,0 -4,1.8 -4,4 h 1 c 0,-1.65 1.35,-3 3,-3 z m 0,-1 c -2.75,0 -5,2.25 -5,5 0,1.125 0.375,2.175 1,3 l 0.825,1.25 c 0.45,0.65 0.675,1.425 0.675,2.225 V 25 h 4 v 1.5 h 1 v -2.05 c 0,-0.8 0.225,-1.55 0.675,-2.225 L -29,20.975 c 0.625,-0.825 1,-1.875 1,-3 C -28,15.25 -30.25,13 -33,13 Z"
         style="clip-rule:evenodd;fill:#3daee9;fill-opacity:0.74901962;fill-rule:evenodd;stroke-width:0.25" />
      <path
         id="Bulb-s-6"
         class="st1"
         d="m -28,18 v 0.15 c 0,0.9 -0.275,1.75 -0.75,2.5 l -1.075,1.6 c -0.45,0.65 -0.675,1.425 -0.675,2.225 V 25 h -1 v -0.525 c 0,-0.975 0.3,-1.95 0.85,-2.775 l 1.075,-1.6 c 0.375,-0.575 0.6,-1.25 0.6,-1.95 V 18 Z m -2.5,8 h -5 v 1 h 4 c 0,0.55 -0.45,1 -1,1 H -34 v 1 h 1.5 c 1.1,0 2,-0.9 2,-2 z"
         style="fill:#ffffff;fill-opacity:1;stroke-width:0.25" />
    </g>
    <g
       id="redshift-status-on">
      <rect
         y="0"
         x="3.5527137e-15"
         height="32"
         width="32"
         id="rect910"
         style="opacity:0.003;fill:#000000;stroke-width:1" />
      <path
         id="Bulb"
         class="st0"
         d="m 16,5.5 c -3.3,0 -6,2.7 -6,6 h 1.5 C 11.5,9.025 13.525,7 16,7 Z M 16,4 c -4.125,0 -7.5,3.375 -7.5,7.5 0,1.6875 0.5625,3.2625 1.5,4.5 l 1.2375,1.875 c 0.675,0.975 1.0125,2.1375 1.0125,3.3375 V 22 h 6 v 2.25 h 1.5 v -3.075 c 0,-1.2 0.3375,-2.325 1.0125,-3.3375 L 22,15.9625 c 0.9375,-1.2375 1.5,-2.8125 1.5,-4.5 C 23.5,7.375 20.125,4 16,4 Z"
         style="clip-rule:evenodd;fill:#3daee9;fill-opacity:0.74901962;fill-rule:evenodd;stroke-width:0.375" />
      <path
         id="Bulb-s"
         class="st1"
         d="m 23.5,11.5 v 0.225 c 0,1.35 -0.4125,2.625 -1.125,3.75 l -1.6125,2.4 C 20.0875,18.85 19.75,20.0125 19.75,21.2125 V 22 h -1.5 v -0.7875 c 0,-1.4625 0.45,-2.925 1.275,-4.1625 l 1.6125,-2.4 c 0.5625,-0.8625 0.9,-1.875 0.9,-2.925 V 11.5 Z m -3.75,12 h -7.5 V 25 h 6 c 0,0.825 -0.675,1.5 -1.5,1.5 H 14.5 V 28 h 2.25 c 1.65,0 3,-1.35 3,-3 z"
         style="fill:#ffffff;fill-opacity:1;stroke-width:0.375" />
    </g>
    <g
       id="redshift-status-off">
      <rect
         style="opacity:0.003;fill:#000000;stroke-width:1"
         id="rect1033"
         width="32"
         height="32"
         x="32"
         y="0" />
      <path
         id="Bulb-7"
         class="st0"
         d="m 48,5.5 c -3.3,0 -6,2.7 -6,6 h 1.5 C 43.5,9.025 45.525,7 48,7 Z M 48,4 c -4.125,0 -7.5,3.375 -7.5,7.5 0,1.6875 0.5625,3.2625 1.5,4.5 l 1.2375,1.875 c 0.675,0.975 1.0125,2.1375 1.0125,3.3375 V 22 h 6 v 2.25 h 1.5 v -3.075 c 0,-1.2 0.3375,-2.325 1.0125,-3.3375 L 54,15.9625 c 0.9375,-1.2375 1.5,-2.8125 1.5,-4.5 C 55.5,7.375 52.125,4 48,4 Z"
         style="clip-rule:evenodd;opacity:1;fill:#cdd8e5;fill-opacity:0.29733682;fill-rule:evenodd;stroke-width:0.375" />
      <path
         id="Bulb-s-5"
         class="st1"
         d="m 55.5,11.5 v 0.225 c 0,1.35 -0.4125,2.625 -1.125,3.75 l -1.6125,2.4 C 52.0875,18.85 51.75,20.0125 51.75,21.2125 V 22 h -1.5 v -0.7875 c 0,-1.4625 0.45,-2.925 1.275,-4.1625 l 1.6125,-2.4 c 0.5625,-0.8625 0.9,-1.875 0.9,-2.925 V 11.5 Z m -3.75,12 h -7.5 V 25 h 6 c 0,0.825 -0.675,1.5 -1.5,1.5 H 46.5 V 28 h 2.25 c 1.65,0 3,-1.35 3,-3 z"
         style="fill:#ffffff;fill-opacity:1;stroke-width:0.375" />
    </g>
    <g
       id="22-22-redshift-status-off">
      <rect
         style="opacity:0.003;fill-opacity:1"
         id="rect1467-9-7-9-9-4-67"
         width="22"
         height="22"
         x="-22"
         y="10" />
      <path
         id="Bulb-35"
         class="st0"
         d="m -11,14 c -2.2,0 -4,1.8 -4,4 h 1 c 0,-1.65 1.35,-3 3,-3 z m 0,-1 c -2.75,0 -5,2.25 -5,5 0,1.125 0.375,2.175 1,3 l 0.825,1.25 c 0.45,0.65 0.675,1.425 0.675,2.225 V 25 h 4 v 1.5 h 1 v -2.05 c 0,-0.8 0.225,-1.55 0.675,-2.225 L -7,20.975 c 0.625,-0.825 1,-1.875 1,-3 C -6,15.25 -8.25,13 -11,13 Z"
         style="clip-rule:evenodd;opacity:1;fill:#cdd8e5;fill-opacity:0.29827297;fill-rule:evenodd;stroke-width:0.25" />
      <path
         id="Bulb-s-62"
         class="st1"
         d="m -6,18 v 0.15 c 0,0.9 -0.275,1.75 -0.75,2.5 l -1.075,1.6 C -8.275,22.9 -8.5,23.675 -8.5,24.475 V 25 h -1 v -0.525 c 0,-0.975 0.3,-1.95 0.85,-2.775 l 1.075,-1.6 c 0.375,-0.575 0.6,-1.25 0.6,-1.95 V 18 Z m -2.5,8 h -5 v 1 h 4 c 0,0.55 -0.45,1 -1,1 H -12 v 1 h 1.5 c 1.1,0 2,-0.9 2,-2 z"
         style="fill:#ffffff;fill-opacity:1;stroke-width:0.25" />
    </g>
  </g>
</svg>
