<?xml version="1.0" encoding="UTF-8" standalone="no"?>
<svg
   width="32"
   height="32"
   version="1.1"
   id="svg1404"
   sodipodi:docname="ring.svg"
   inkscape:version="1.2.2 (b0a8486541, 2022-12-01)"
   xmlns:inkscape="http://www.inkscape.org/namespaces/inkscape"
   xmlns:sodipodi="http://sodipodi.sourceforge.net/DTD/sodipodi-0.dtd"
   xmlns="http://www.w3.org/2000/svg"
   xmlns:svg="http://www.w3.org/2000/svg">
  <g
     id="22-22-ring-kde">
    <rect
       style="opacity:0.00100002"
       width="22"
       height="22"
       x="32"
       y="10"
       id="rect1399" />
    <path
       id="Page_1_-4"
       class="st0  ColorScheme-Highlight "
       d="m 46.5,16 v 0 l -1,-1 v 0 h -7 V 28 H 47 c 1.375,0 2.5,-1.125 2.5,-2.5 V 19 Z m -6,1.5 z m 0,2.5 z m 0,5 z m 0,-2.5 z"
       sodipodi:nodetypes="ccccccsscccccccccccccccccccccc"
       style="color:#cdd8e5;fill:#cdd8e5;fill-opacity:0.403922;stroke-width:0.25" />
    <path
       id="Page-s-5"
       class="st1  ColorScheme-Text "
       d="M 47.366667,19 H 49.5 v 7 c 0,1.65 -1.350001,3 -3,3 h -7 v -1 h 7 c 1.1,0 2,-0.900001 2,-2 V 20 H 47.366667 Z M 36.5,15 c 0,-1.1 0.9,-2 2,-2 h 5 v 1 h -5 c -0.549999,0 -1,0.45 -1,1 v 8.5 h -1 z"
       style="color:#eff0f1;fill:currentColor;fill-opacity:1;stroke-width:0.25"
       sodipodi:nodetypes="ccssccsscccssccssccs" />
    <path
       inkscape:connector-curvature="0"
       style="color:#eff0f1;fill:currentColor;fill-opacity:0.6;stroke-width:0.196959"
       id="path6313-36-4-0"
       d="m 40.664721,19.580381 -0.58189,1.039235 c -0.387932,0.692824 6.331177,4.692824 6.719105,4.000001 l 0.581891,-1.039233 c 0.387931,-0.692824 -6.33118,-4.692824 -6.719106,-4.000003 z"
       class="ColorScheme-Text" />
    <path
       inkscape:connector-curvature="0"
       style="color:#eff0f1;fill:currentColor;fill-opacity:0.6;stroke-width:0.196959"
       id="path6309-7-7-3"
       d="m 46.801936,19.580381 0.581891,1.039235 c 0.387931,0.692824 -6.33118,4.692824 -6.719106,4.000001 l -0.58189,-1.039233 c -0.387932,-0.692824 6.331177,-4.692824 6.719105,-4.000003 z"
       class="ColorScheme-Text" />
    <path
       inkscape:connector-curvature="0"
       style="color:#eff0f1;fill:currentColor;fill-opacity:1;stroke-width:0.196959"
       id="rect5354-53-8-6"
       d="m 43.151436,18.1 h 1.163784 c 0.775863,0 0.775863,8 0,8 h -1.163784 c -0.775849,0 -0.775849,-8 0,-8 z"
       class="ColorScheme-Text" />
  </g>
  <style
     id="current-color-scheme"
     type="text/css">.ColorScheme-Text { color:#eff0f1; }
.ColorScheme-Highlight { color:#cdd8e5; }
</style>
  <sodipodi:namedview
     id="namedview1406"
     pagecolor="#b2b2b2"
     bordercolor="#000000"
     borderopacity="1"
     inkscape:showpageshadow="false"
     inkscape:pageopacity="0"
     inkscape:pagecheckerboard="0"
     inkscape:deskcolor="#b2b2b2"
     showgrid="false"
     inkscape:zoom="10.429825"
     inkscape:cx="19.031959"
     inkscape:cy="21.380992"
     inkscape:window-width="1920"
     inkscape:window-height="1000"
     inkscape:window-x="0"
     inkscape:window-y="0"
     inkscape:window-maximized="1"
     inkscape:current-layer="svg1404">
    <inkscape:grid
       type="xygrid"
       id="grid1730"
       originx="0"
       originy="0" />
  </sodipodi:namedview>
  <defs
     id="l4k1">
    <style
       type="text/css"
       id="style4020" />
  </defs>
  <g
     id="ring-kde">
    <rect
       style="opacity:0.00100002"
       width="32"
       height="32"
       x="0"
       y="0"
       id="rect1394" />
    <path
       id="Page_1_"
       class="st0  ColorScheme-Highlight "
       d="m 21.249999,8.5 v 0 l -1.5,-1.5 V 7 H 9.2500007 V 26.5 H 22 c 2.0625,0 3.75,-1.6875 3.75,-3.75 V 13 Z M 12.25,10.75 Z m 0,3.75 z m 0,7.5 z m 0,-3.75 z"
       sodipodi:nodetypes="ccccccsscccccccccccccccccccccc"
       style="color:#cdd8e5;fill:#cdd8e5;fill-opacity:0.403922;stroke-width:0.375" />
    <path
       id="Page-s"
       class="st1  ColorScheme-Text "
       d="m 22.55,13 h 3.199999 v 10.5 c 0,2.475 -2.024999,4.5 -4.5,4.5 H 10.75 v -1.5 h 10.499999 c 1.65,0 3,-1.350001 3,-3 v -9 H 22.55 Z M 6.2500007,7 c 0,-1.65 1.35,-3 3,-3 H 16.749999 V 5.5 H 9.2500007 c -0.825,0 -1.5,0.675 -1.5,1.5 v 12.75 h -1.5 z"
       style="color:#eff0f1;fill:currentColor;fill-opacity:1;stroke-width:0.375"
       sodipodi:nodetypes="ccssccsscccssccssccs" />
    <path
       inkscape:connector-curvature="0"
       style="color:#eff0f1;fill:currentColor;fill-opacity:0.6;stroke-width:0.295438"
       id="path6313-36-4"
       d="m 12.197082,13.220572 -0.872834,1.558852 c -0.581898,1.039236 9.496763,7.039236 10.078655,6.000001 L 22.27574,19.220576 C 22.857637,18.18134 12.778971,12.18134 12.197082,13.220572 Z"
       class="ColorScheme-Text" />
    <path
       inkscape:connector-curvature="0"
       style="color:#eff0f1;fill:currentColor;fill-opacity:0.6;stroke-width:0.295438"
       id="path6309-7-7"
       d="m 21.402903,13.220572 0.872837,1.558852 c 0.581897,1.039236 -9.496769,7.039236 -10.078658,6.000001 L 11.324248,19.220576 C 10.74235,18.18134 20.821011,12.18134 21.402903,13.220572 Z"
       class="ColorScheme-Text" />
    <path
       inkscape:connector-curvature="0"
       style="color:#eff0f1;fill:currentColor;fill-opacity:1;stroke-width:0.295438"
       id="rect5354-53-8"
       d="m 15.927153,11 h 1.745676 c 1.163795,0 1.163795,12 0,12 h -1.745676 c -1.163773,0 -1.163773,-12 0,-12 z"
       class="ColorScheme-Text" />
  </g>
</svg>
