<?xml version="1.0" encoding="UTF-8" standalone="no"?>
<svg
   id="svg4153"
   width="22"
   height="22"
   version="1.1"
   viewBox="0 0 22 22"
   sodipodi:docname="software.svg"
   inkscape:version="1.2.2 (b0a8486541, 2022-12-01)"
   xmlns:inkscape="http://www.inkscape.org/namespaces/inkscape"
   xmlns:sodipodi="http://sodipodi.sourceforge.net/DTD/sodipodi-0.dtd"
   xmlns:xlink="http://www.w3.org/1999/xlink"
   xmlns="http://www.w3.org/2000/svg"
   xmlns:svg="http://www.w3.org/2000/svg"
   xmlns:rdf="http://www.w3.org/1999/02/22-rdf-syntax-ns#"
   xmlns:cc="http://creativecommons.org/ns#"
   xmlns:dc="http://purl.org/dc/elements/1.1/">
  <g
     id="software-updates-important"
     transform="translate(4e-6,50.036994)">
    <rect
       id="rect855"
       width="22"
       height="22"
       x="-3.0863184e-14"
       y="-6.5917966e-08"
       style="opacity:0;fill:#7a0000;fill-opacity:1;stroke:none;stroke-opacity:1" />
    <path
       id="Arrow-Up-72-72"
       class="st0"
       d="M 18,12.002734 11.000001,5.0054667 4,12.002734 h 4 v 5.997657 h 3.5 c 1.375001,0 2.5,-1.12456 2.5,-2.499023 v -3.498634 z"
       style="opacity:1;fill:#bf616a;fill-opacity:1;stroke-width:0.24995;enable-background:new" />
    <path
       id="ArrowUp-s-7-7"
       class="st1"
       d="m 14.3,6.8797337 -2.6,-2.573995 c -0.4,-0.399843 -1.025,-0.399843 -1.424999,0 L 7.7,6.8797337 7,6.1800076 9.6,3.5810227 c 0.775,-0.7746969 2.05,-0.7746969 2.825,0 L 15,6.1550177 Z m -1.299999,5.1230003 v 3.998438 c 0,1.099571 -0.900001,1.999219 -2,1.999219 H 9 v 0.99961 h 2.000001 C 12.65,19.000001 14,17.650528 14,16.001172 v -3.998438 z"
       style="fill:#eff0f1;fill-opacity:1;stroke-width:0.24995" />
  </g>
  <g
     id="software-updates-security"
     transform="translate(0,24.999996)">
    <rect
       id="rect865"
       width="22"
       height="22"
       x="0"
       y="1.8530274e-07"
       style="opacity:0;fill:#7a0000;fill-opacity:1;stroke:none;stroke-opacity:1" />
    <path
       id="Arrow-Up-72-2"
       class="st0"
       d="M 18,12.002733 11.000001,5.0054658 4,12.002733 h 4 v 5.997656 h 3.5 c 1.375001,0 2.5,-1.12456 2.5,-2.499022 v -3.498634 z"
       style="opacity:1;fill:#d08770;fill-opacity:1;stroke-width:0.24995;enable-background:new" />
    <path
       id="ArrowUp-s-7-2"
       class="st1"
       d="m 14.3,6.8797327 -2.6,-2.573994 c -0.4,-0.3998429 -1.025,-0.3998429 -1.424999,0 L 7.7,6.8797327 7,6.1800067 9.6,3.5810227 c 0.775,-0.7746969 2.05,-0.7746969 2.825,0 L 15,6.1550167 Z m -1.299999,5.1230003 v 3.998437 c 0,1.099571 -0.900001,1.999219 -2,1.999219 H 9 v 0.99961 h 2.000001 C 12.65,18.999999 14,17.650526 14,16.00117 v -3.998437 z"
       style="fill:#eff0f1;fill-opacity:1;stroke-width:0.24995" />
  </g>
  <g
     id="software-updates-additional"
     transform="translate(30.002001,24.936996)">
    <rect
       style="opacity:0;fill:#7a0000;fill-opacity:1;stroke:none;stroke-opacity:1"
       y="4.5996094e-07"
       x="-1.9128419e-07"
       height="22"
       width="22"
       id="rect860" />
    <path
       id="Arrow-Up-7"
       class="st0"
       d="M 18,12.002733 11.000001,5.0054667 4,12.002733 h 4 v 5.997657 h 3.5 c 1.375001,0 2.5,-1.12456 2.5,-2.499023 v -3.498634 z"
       style="fill:#5e81ac;fill-opacity:1;stroke-width:0.24995;enable-background:new" />
    <path
       id="ArrowUp-s-1"
       class="st1"
       d="m 14.3,6.8797337 -2.6,-2.573994 c -0.4,-0.3998439 -1.025,-0.3998439 -1.424999,0 L 7.7,6.8797337 7,6.1800077 9.6,3.5810227 c 0.775,-0.7746969 2.05,-0.7746969 2.825,0 L 15,6.1550177 Z m -1.299999,5.1229993 v 3.998438 c 0,1.099571 -0.900001,1.999219 -2,1.999219 H 9 V 19 h 2.000001 C 12.65,19 14,17.650527 14,16.001171 v -3.998438 z"
       style="fill:#eff0f1;fill-opacity:1;stroke-width:0.24995" />
  </g>
  <style
     id="current-color-scheme"
     type="text/css">.ColorScheme-Text { color:#d6dbf1; }
</style>
  <metadata
     id="metadata35">
    <rdf:RDF>
      <cc:Work
         rdf:about="">
        <dc:format>image/svg+xml</dc:format>
        <dc:type
           rdf:resource="http://purl.org/dc/dcmitype/StillImage" />
      </cc:Work>
    </rdf:RDF>
  </metadata>
  <sodipodi:namedview
     pagecolor="#b2b2b2"
     bordercolor="#000000"
     borderopacity="1"
     objecttolerance="10"
     gridtolerance="10"
     guidetolerance="10"
     inkscape:pageopacity="0"
     inkscape:pageshadow="2"
     inkscape:window-width="1920"
     inkscape:window-height="1000"
     id="namedview33"
     showgrid="false"
     inkscape:zoom="8.0000004"
     inkscape:cx="3.5624998"
     inkscape:cy="40.062498"
     inkscape:window-x="0"
     inkscape:window-y="0"
     inkscape:window-maximized="1"
     inkscape:current-layer="svg4153"
     inkscape:document-rotation="0"
     showguides="true"
     inkscape:pagecheckerboard="0"
     inkscape:showpageshadow="false"
     inkscape:lockguides="true"
     inkscape:deskcolor="#b2b2b2">
    <inkscape:grid
       type="xygrid"
       id="grid891"
       originx="1e-06"
       originy="-4e-06" />
  </sodipodi:namedview>
  <defs
     id="defs4157">
    <style
       id="style10"
       type="text/css" />
  </defs>
  <use
     x="0"
     y="0"
     xlink:href="#g878"
     id="use880"
     transform="translate(-27.327829)"
     width="100%"
     height="100%" />
  <use
     x="0"
     y="0"
     xlink:href="#use880"
     id="use882"
     transform="translate(-24.481181,0.189779)"
     width="100%"
     height="100%" />
  <use
     x="0"
     y="0"
     xlink:href="#use884"
     id="use886"
     transform="translate(-27.897158,0.759102)"
     width="100%"
     height="100%" />
  <g
     id="g6"
     transform="matrix(0.81634558,0,0,0.81634558,-30.939696,-12.614518)" />
  <g
     id="software-updates-inactive">
    <rect
       id="rect870"
       width="22"
       height="22"
       x="0"
       y="0"
       style="opacity:0;fill:#7a0000;fill-opacity:1;stroke:none;stroke-opacity:1" />
    <path
       id="Arrow-Up-72"
       class="st0"
       d="M 18.000001,12.002733 11.000002,5.0054661 4.000001,12.002733 h 4 v 5.997657 h 3.5 c 1.375001,0 2.5,-1.12456 2.5,-2.499023 v -3.498634 z"
       style="opacity:1;fill:#cdd8e5;fill-opacity:0.403922;stroke-width:0.24995;enable-background:new" />
    <path
       id="ArrowUp-s-7"
       class="st1"
       d="m 14.300001,6.8797334 -2.6,-2.5739939 c -0.4,-0.3998438 -1.025,-0.3998438 -1.424999,0 l -2.575001,2.5739939 -0.7,-0.6997263 2.6,-2.5989844 c 0.775,-0.774697 2.05,-0.774697 2.825,0 l 2.575,2.5739945 z m -1.299999,5.1229996 v 3.998438 c 0,1.099571 -0.900001,1.999219 -2,1.999219 H 9.000001 V 19 h 2.000001 c 1.649999,0 2.999999,-1.349473 2.999999,-2.998829 v -3.998438 z"
       style="fill:#eff0f1;fill-opacity:1;stroke-width:0.24995" />
  </g>
  <g
     id="software-updates-updates"
     transform="translate(30.002001,-0.063004)">
    <rect
       id="rect4210"
       width="22"
       height="22"
       x="-1.9128419e-07"
       y="-3.9062503e-11"
       style="opacity:0;fill:#7a0000;fill-opacity:1;stroke:none;stroke-opacity:1" />
    <path
       id="Arrow-Up-72-4"
       class="st0"
       d="M 18,12.002733 11.000001,5.0054661 4,12.002733 h 4 v 5.997657 h 3.5 c 1.375001,0 2.5,-1.12456 2.5,-2.499023 v -3.498634 z"
       style="opacity:1;fill:#a3be8c;fill-opacity:1;stroke-width:0.24995;enable-background:new" />
    <path
       id="ArrowUp-s-7-8"
       class="st1"
       d="M 14.3,6.8797334 11.7,4.3057395 c -0.4,-0.3998437 -1.025,-0.3998437 -1.424999,0 L 7.7,6.8797334 7,6.1800071 9.6,3.5810228 c 0.775,-0.774697 2.05,-0.774697 2.825,0 L 15,6.1550172 Z m -1.299999,5.1229996 v 3.998438 c 0,1.099571 -0.900001,1.999219 -2,1.999219 H 9 V 19 h 2.000001 C 12.65,19 14,17.650527 14,16.001171 v -3.998438 z"
       style="fill:#eff0f1;fill-opacity:1;stroke-width:0.24995" />
  </g>
  <g
     id="software-updates-release"
     transform="translate(30.002001,49.936996)">
    <rect
       id="rect27"
       width="22"
       height="22"
       x="-1.9128419e-07"
       y="4.5996094e-07"
       style="opacity:0;fill:#7a0000;fill-opacity:1;stroke:none;stroke-opacity:1" />
    <path
       id="Arrow-Up-72-7"
       class="st0"
       d="M 18,12.002733 11.000001,5.0054657 4,12.002733 h 4 v 5.997657 h 3.5 c 1.375001,0 2.5,-1.12456 2.5,-2.499023 v -3.498634 z"
       style="opacity:1;fill:#8aac6d;fill-opacity:1;stroke-width:0.24995;enable-background:new" />
    <path
       id="ArrowUp-s-7-1"
       class="st1"
       d="m 14.3,6.8797327 -2.6,-2.573994 c -0.4,-0.399843 -1.025,-0.399843 -1.424999,0 L 7.7,6.8797327 7,6.1800067 9.6,3.5810227 c 0.775,-0.7746969 2.05,-0.7746969 2.825,0 L 15,6.1550167 Z m -1.299999,5.1230003 v 3.998438 c 0,1.099571 -0.900001,1.999219 -2,1.999219 H 9 V 19 h 2.000001 C 12.65,19 14,17.650527 14,16.001171 v -3.998438 z"
       style="fill:#b2c79e;fill-opacity:1;stroke-width:0.24995" />
  </g>
</svg>
