<?xml version="1.0" encoding="UTF-8" standalone="no"?>
<svg
   style="enable-background:new"
   width="32"
   height="32"
   version="1.1"
   id="svg36"
   sodipodi:docname="solaar.svg"
   inkscape:version="1.3.2 (091e20ef0f, 2023-11-25)"
   xmlns:inkscape="http://www.inkscape.org/namespaces/inkscape"
   xmlns:sodipodi="http://sodipodi.sourceforge.net/DTD/sodipodi-0.dtd"
   xmlns="http://www.w3.org/2000/svg"
   xmlns:svg="http://www.w3.org/2000/svg"
   xmlns:rdf="http://www.w3.org/1999/02/22-rdf-syntax-ns#"
   xmlns:cc="http://creativecommons.org/ns#"
   xmlns:dc="http://purl.org/dc/elements/1.1/">
  <style
     id="current-color-scheme"
     type="text/css">.ColorScheme-Highlight { color:#cdd8e5; }
.ColorScheme-Text { color:#eff0f1; }
</style>
  <metadata
     id="metadata40">
    <rdf:RDF>
      <cc:Work
         rdf:about="">
        <dc:format>image/svg+xml</dc:format>
        <dc:type
           rdf:resource="http://purl.org/dc/dcmitype/StillImage" />
      </cc:Work>
    </rdf:RDF>
  </metadata>
  <sodipodi:namedview
     pagecolor="#3a3f47"
     bordercolor="#000000"
     borderopacity="1"
     objecttolerance="10"
     gridtolerance="10"
     guidetolerance="10"
     inkscape:pageopacity="1"
     inkscape:pageshadow="2"
     inkscape:window-width="1920"
     inkscape:window-height="994"
     id="namedview38"
     showgrid="true"
     inkscape:zoom="10.429825"
     inkscape:cx="32.502942"
     inkscape:cy="17.689654"
     inkscape:window-x="0"
     inkscape:window-y="0"
     inkscape:window-maximized="1"
     inkscape:current-layer="svg36"
     inkscape:lockguides="true"
     inkscape:document-rotation="0"
     inkscape:showpageshadow="true"
     inkscape:pagecheckerboard="true"
     inkscape:deskcolor="#3a3f47">
    <inkscape:grid
       type="xygrid"
       id="grid923"
       originx="0"
       originy="0"
       spacingy="1"
       spacingx="1"
       units="px"
       visible="true" />
  </sodipodi:namedview>
  <defs
     id="defs4">
    <linearGradient
       id="linearGradient5606"
       inkscape:swatch="solid">
      <stop
         id="stop5608"
         offset="0"
         style="stop-color:#000000" />
    </linearGradient>
  </defs>
  <g
     id="solaar">
    <rect
       width="32"
       height="32"
       x="0"
       y="0"
       style="opacity:0.00100002"
       id="rect13" />
    <path
       id="Zoom-4-9"
       class="st0  ColorScheme-Highlight "
       d="m 25.695858,23.049081 h 2e-6 c 0.87692,-1.615386 2.30415,-5.064464 2.30415,-7.049079 C 28.00001,9.3538465 22.646151,4 15.999999,4 9.353845,4 4,9.3538465 4,16.000002 c 0,6.646154 5.353845,11.999997 11.999999,11.999997 3.969231,0 7.476927,-1.938455 9.692315,-4.938458 z m -9.69586,1.258614 c -4.569231,0 -8.307688,-3.738462 -8.307688,-8.307693 0,-4.569232 3.738458,-8.307693 8.307688,-8.307693 4.569232,0 8.307702,3.738461 8.307702,8.307693 0,4.569231 -3.73847,8.307693 -8.307702,8.307693 z"
       sodipodi:nodetypes="ccssssccscccs"
       style="fill:#cdd8e5;fill-opacity:0.403922" />
    <path
       id="Zoom-s-8"
       class="st1  ColorScheme-Text"
       d="M 25.080234,23.049081 Z M 23.848983,9.5053284 Z m 1.843306,13.5562126 c 1.661535,-2.261538 2.492309,-5.076924 2.261536,-7.892309 C 27.769212,12.26154 26.52305,9.5384626 24.446128,7.507693 L 23.15382,8.800001 c 1.846161,1.846153 2.953856,4.384616 2.953856,7.200001 0,2.123077 -0.64616,4.107693 -1.800001,5.769231 z"
       style="fill:currentColor;fill-opacity:1;stroke-width:0.461539"
       sodipodi:nodetypes="ccccccccccccccccsccc" />
    <path
       d="m 13.76684,10.24962 -1.50179,0.876224 1.356182,2.373676 a 3.4674924,3.5048928 0 0 0 -0.92359,1.624093 H 9.9818885 v 1.752447 h 2.7132135 a 3.4674924,3.5048928 0 0 0 0.926978,1.621526 l -1.35703,2.376241 1.50179,0.876223 1.357029,-2.37624 a 3.4674924,3.5048928 0 0 0 0.926132,0.130919 3.4674924,3.5048928 0 0 0 0.927825,-0.127505 l 1.355336,2.372819 1.50179,-0.876222 -1.356181,-2.373675 a 3.4674924,3.5048928 0 0 0 0.92359,-1.624093 h 2.715752 v -1.75244 h -2.713212 a 3.4674924,3.5048928 0 0 0 -0.926978,-1.621527 l 1.357029,-2.376242 -1.50179,-0.876224 -1.357028,2.376243 a 3.4674924,3.5048928 0 0 0 -0.926133,-0.13092 3.4674924,3.5048928 0 0 0 -0.927826,0.127498 z m 2.283161,3.559658 a 2.1671828,2.1905581 0 0 1 2.167182,2.190558 2.1671828,2.1905581 0 0 1 -2.167182,2.190558 2.1671828,2.1905581 0 0 1 -2.167182,-2.190558 2.1671828,2.1905581 0 0 1 2.167182,-2.190558 z"
       id="path8-0"
       style="fill:#d3dae3;fill-opacity:1;stroke:#000000;stroke-width:0.363777;stroke-dasharray:none;stroke-opacity:0.3" />
  </g>
  <g
     id="22-22-solaar"
     transform="translate(32,10)">
    <path
       style="opacity:0"
       d="M 0,0 H 22 V 22 H 0 Z"
       id="path6" />
    <path
       id="Zoom-4-9-0"
       class="st0  ColorScheme-Highlight "
       d="m 17.463906,15.699388 v 0 c 0.584615,-1.076924 1.5361,-3.37631 1.5361,-4.699386 C 19.000006,6.569231 15.430768,3 10.999998,3 6.56923,3 3,6.569231 3,11.000002 c 0,4.430769 3.56923,7.999997 7.999998,7.999997 2.646155,0 4.984618,-1.292303 6.461544,-3.292304 z M 11,16.538463 c -3.046155,0 -5.53846,-2.492307 -5.53846,-5.538461 0,-3.046155 2.492305,-5.538463 5.53846,-5.538463 3.046153,0 5.538468,2.492308 5.538468,5.538463 0,3.046153 -2.492314,5.538461 -5.538468,5.538461 z"
       sodipodi:nodetypes="ccssssccscccs"
       style="fill:#cdd8e5;fill-opacity:0.403922" />
    <path
       id="Zoom-s-8-9"
       class="st1  ColorScheme-Text "
       d="M 17.053489,15.699388 Z M 16.232656,6.670219 Z m 1.228872,9.037475 c 1.107689,-1.507692 1.661538,-3.384616 1.507688,-5.261538 -0.123075,-1.938462 -0.95385,-3.753847 -2.338464,-5.107694 l -0.861539,0.861539 c 1.230774,1.230769 1.969237,2.923077 1.969237,4.800002 0,1.415384 -0.430773,2.738462 -1.200001,3.846154 z"
       style="fill:currentColor;fill-opacity:1;stroke-width:0.307693"
       sodipodi:nodetypes="ccccccccccccccccsccc" />
    <path
       d="M 9.3969979,7.1665866 8.375477,7.7505836 9.297951,9.3326257 A 2.3585916,2.3359924 0 0 0 8.6697273,10.415073 H 6.822464 v 1.167998 h 1.8455303 a 2.3585916,2.3359924 0 0 0 0.6305327,1.080738 l -0.92305,1.583752 1.0215209,0.583996 0.9230471,-1.583754 a 2.3585916,2.3359924 0 0 0 0.629958,0.08728 2.3585916,2.3359924 0 0 0 0.631108,-0.08501 l 0.921904,1.581469 1.021516,-0.583995 -0.922474,-1.582046 a 2.3585916,2.3359924 0 0 0 0.628226,-1.082445 h 1.847252 v -1.167993 h -1.845524 a 2.3585916,2.3359924 0 0 0 -0.63053,-1.080739 l 0.92305,-1.5837514 -1.021516,-0.5839971 -0.923056,1.5837504 a 2.3585916,2.3359924 0 0 0 -0.629956,-0.087273 2.3585916,2.3359924 0 0 0 -0.631104,0.085002 z m 1.5530051,2.3724885 a 1.4741199,1.4599951 0 0 1 1.474122,1.4599979 1.4741199,1.4599951 0 0 1 -1.474122,1.459996 1.4741199,1.4599951 0 0 1 -1.4741153,-1.459996 1.4741199,1.4599951 0 0 1 1.4741153,-1.4599979 z"
       id="path8-0-3"
       style="fill:#d3dae3;fill-opacity:1;stroke:#000000;stroke-width:0.244928;stroke-dasharray:none;stroke-opacity:0.3;enable-background:new" />
  </g>
</svg>
