<?xml version="1.0" encoding="UTF-8" standalone="no"?>
<svg
   inkscape:version="1.1.2 (0a00cf5339, 2022-02-04)"
   sodipodi:docname="start.svg"
   id="svg12"
   version="1.1"
   height="32"
   width="32"
   xmlns:inkscape="http://www.inkscape.org/namespaces/inkscape"
   xmlns:sodipodi="http://sodipodi.sourceforge.net/DTD/sodipodi-0.dtd"
   xmlns="http://www.w3.org/2000/svg"
   xmlns:svg="http://www.w3.org/2000/svg"
   xmlns:rdf="http://www.w3.org/1999/02/22-rdf-syntax-ns#"
   xmlns:cc="http://creativecommons.org/ns#"
   xmlns:dc="http://purl.org/dc/elements/1.1/">
  <g
     id="start-here-kde">
    <rect
       style="opacity:0.00100002;vector-effect:none;fill:#000000;fill-opacity:1;stroke:none;stroke-width:3.22818;stroke-linecap:round;stroke-linejoin:round;stroke-miterlimit:4;stroke-dasharray:none;stroke-dashoffset:0;stroke-opacity:1"
       y="0"
       x="0"
       height="32"
       width="32"
       id="rect860" />
    <path
       style="color:#d3dae3;fill:#cdd8e5;fill-opacity:0.40392157;stroke-width:1.0621"
       d="m 17.090869,4 -4.363632,0.626078 v 14.961223 l 4.363632,-1.110783 V 12.696413 L 21.45451,19.510557 25.818149,17.9595 20.363607,11.755278 25.820281,5.036056 21.58662,4 17.090869,10.781829 Z m -8.88494,4.057383 c -0.103185,0 -0.206383,0.0381 -0.285511,0.1131 L 6.205217,9.796264 c -0.158254,0.150004 -0.120164,0.364299 0,0.543273 l 1.77486,2.641642 c -0.131505,0.258737 -0.24537,0.525197 -0.340909,0.797743 -0.0042,0.0117 -0.0108,0.02259 -0.01485,0.03433 L 4.404832,14.491838 C 4.186352,14.537858 4,14.663429 4,14.875566 v 1.01586 1.015862 c 0,0.212138 0.186352,0.337705 0.40483,0.383726 L 7.624291,17.9696 c 0.007,0.02005 0.01831,0.03858 0.02557,0.05858 0.093,0.264757 0.203292,0.523767 0.330253,0.775528 L 6.205257,21.44333 c -0.120165,0.178974 -0.158256,0.393269 0,0.543273 l 1.715199,1.625781 c 0.158255,0.150005 0.412766,0.150005 0.571023,0 l 2.782668,-1.68031 c 0.273555,0.126105 0.555387,0.235384 0.84375,0.327175 0.01893,0.0063 0.03644,0.01607 0.0554,0.02222 l 0.713778,3.049601 c 0,0.212139 0.181026,0.383724 0.404829,0.383724 h 2.422583 c 0.223812,0 0.356284,-0.176639 0.404833,-0.383724 l 0.713778,-3.142503 c 0.327938,-0.116865 0.646277,-0.256596 0.952421,-0.418059 l 2.716617,1.841878 c 0.158251,0.150006 0.41277,0.150006 0.57102,0 l 1.715202,-1.625781 c 0.158253,-0.150004 0.12015,-0.364297 0,-0.543273 l -1.033383,-1.486428 -0.10863,0.03837 c -0.245723,0.0875 -0.52235,-0.0033 -0.658379,-0.216096 l -1.086654,-1.696463 c -0.905382,2.052764 -3.04356,3.495934 -5.537643,3.495934 -3.313708,0 -6,-2.546249 -6,-5.687205 0,-2.410257 1.584872,-4.465334 3.818183,-5.293382 V 9.465066 l -0.0085,0.03636 c -0.02408,0.0078 -0.04631,0.02023 -0.07031,0.02828 -0.284525,0.08957 -0.562782,0.196144 -0.833085,0.319096 L 8.491535,8.170512 c -0.07914,-0.075 -0.18232,-0.1131 -0.285513,-0.1131 z"
       class="ColorScheme-Text"
       id="path10-7-7-6" />
    <path
       id="Power-s-5-2"
       class="st1"
       d="m 27.999968,17.142612 v 0 h -1.636361 v 0 c 0,5.157259 -5.468183,9.306332 -10.9091,9.306332 V 28 c 6.340917,0 12.545461,-4.847049 12.545461,-10.857388 z"
       style="fill:#eff0f1;fill-opacity:1;stroke-width:0.398284"
       sodipodi:nodetypes="ccccccc" />
  </g>
  <metadata
     id="metadata16">
    <rdf:RDF>
      <cc:Work
         rdf:about="">
        <dc:format>image/svg+xml</dc:format>
        <dc:type
           rdf:resource="http://purl.org/dc/dcmitype/StillImage" />
      </cc:Work>
    </rdf:RDF>
  </metadata>
  <sodipodi:namedview
     inkscape:document-rotation="0"
     inkscape:lockguides="true"
     inkscape:current-layer="svg12"
     inkscape:window-maximized="1"
     inkscape:window-y="0"
     inkscape:window-x="0"
     inkscape:cy="7.2995959"
     inkscape:cx="6.2160622"
     inkscape:zoom="8.7676086"
     showgrid="false"
     id="namedview14"
     inkscape:window-height="1007"
     inkscape:window-width="1920"
     inkscape:pageshadow="2"
     inkscape:pageopacity="0"
     guidetolerance="10"
     gridtolerance="10"
     objecttolerance="10"
     borderopacity="1"
     bordercolor="#666666"
     pagecolor="#b2b2b2"
     inkscape:pagecheckerboard="0"
     inkscape:showpageshadow="false">
    <inkscape:grid
       type="xygrid"
       id="grid2781"
       originx="0"
       originy="0" />
  </sodipodi:namedview>
  <defs
     id="defs7386">
    <style
       type="text/css"
       id="current-color-scheme">
   .ColorScheme-Text { color:#d3dae3; } .ColorScheme-Highlight { color:#5294e2; } .ColorScheme-ButtonBackground { color:#d3dae3; }
  </style>
  </defs>
  <g
     id="g4500"
     transform="translate(31.984375,10.025391)" />
  <g
     id="22-22-start-here-kde"
     transform="translate(31.984375,10.025391)">
    <rect
       style="opacity:0.00100002;vector-effect:none;fill:#000000;fill-opacity:1;stroke:none;stroke-width:2.71574;stroke-linecap:round;stroke-linejoin:round;stroke-miterlimit:4;stroke-dasharray:none;stroke-dashoffset:0;stroke-opacity:1"
       y="0"
       x="0"
       height="22"
       width="22"
       id="rect849" />
    <path
       style="color:#d3dae3;fill:#cdd8e5;fill-opacity:0.40392157;stroke-width:0.708064"
       d="M 11.727267,3 8.818179,3.417385 v 9.974149 l 2.909088,-0.740522 V 8.797609 l 2.909094,4.542762 2.909093,-1.034038 L 13.909092,8.170185 17.546875,3.690704 14.724434,3 11.727267,7.521219 Z M 5.8039739,5.704922 c -0.068793,0 -0.1375888,0.0254 -0.1903408,0.0754 L 4.4701664,6.864176 c -0.1055033,0.100003 -0.080107,0.242866 0,0.362182 l 1.1832393,1.761095 c -0.087668,0.172491 -0.1635799,0.350131 -0.2272732,0.531828 -0.00279,0.0078 -0.00715,0.01506 -0.00992,0.02289 L 3.269888,9.994562 C 3.1242351,10.025242 3,10.108956 3,10.250381 v 0.67724 0.677241 c 0,0.141425 0.1242351,0.225137 0.2698866,0.255817 l 2.1463072,0.452391 c 0.00473,0.01337 0.012209,0.02572 0.017052,0.03905 0.062001,0.176505 0.1355283,0.349178 0.2201697,0.517019 l -1.1832387,1.759748 c -0.080107,0.119316 -0.1055041,0.262179 0,0.362182 l 1.1434664,1.083854 c 0.1055032,0.100003 0.2751766,0.100003 0.380682,0 l 1.8551122,-1.120207 c 0.18237,0.08407 0.3702581,0.156923 0.5624995,0.218117 0.012619,0.0042 0.024286,0.01071 0.036933,0.01481 l 0.4758517,2.033067 c 0,0.141426 0.120684,0.255816 0.2698867,0.255816 h 1.6150547 c 0.149208,0 0.237523,-0.117759 0.269889,-0.255816 l 0.475852,-2.095002 c 0.218625,-0.07791 0.430851,-0.171064 0.634947,-0.278706 l 1.811078,1.227919 c 0.105501,0.100004 0.27518,0.100004 0.38068,0 l 1.143468,-1.083854 c 0.105502,-0.100003 0.0801,-0.242865 0,-0.362182 l -0.688922,-0.990952 -0.07242,0.02558 c -0.163815,0.05833 -0.348233,-0.0022 -0.438919,-0.144064 L 13.60088,12.388473 c -0.603588,1.36851 -2.02904,2.330623 -3.691762,2.330623 -2.2091386,0 -4,-1.697499 -4,-3.79147 0,-1.606838 1.0565814,-2.976889 2.5454551,-3.528921 V 6.643374 l -0.00572,0.02424 c -0.016051,0.0052 -0.030869,0.01349 -0.046869,0.01885 -0.1896827,0.05971 -0.3751881,0.130763 -0.55539,0.212731 L 5.994313,5.780335 c -0.052758,-0.05 -0.1215472,-0.0754 -0.1903417,-0.0754 z"
       class="ColorScheme-Text"
       id="path10-7-7" />
    <path
       id="Power-s-5"
       class="st1"
       d="m 19,11.761741 v 0 h -1.090908 v 0 c 0,3.438173 -3.645455,6.204222 -7.272733,6.204222 V 19 C 14.863637,19 19,15.768634 19,11.761741 Z"
       style="fill:#eff0f1;fill-opacity:1;stroke-width:0.265523"
       sodipodi:nodetypes="ccccccc" />
  </g>
</svg>
