<?xml version="1.0" encoding="UTF-8" standalone="no"?>
<svg
   width="32"
   height="32"
   version="1.1"
   id="svg12"
   sodipodi:docname="TeamViewer.svg"
   inkscape:version="1.1.2 (0a00cf5339, 2022-02-04)"
   xmlns:inkscape="http://www.inkscape.org/namespaces/inkscape"
   xmlns:sodipodi="http://sodipodi.sourceforge.net/DTD/sodipodi-0.dtd"
   xmlns="http://www.w3.org/2000/svg"
   xmlns:svg="http://www.w3.org/2000/svg"
   xmlns:rdf="http://www.w3.org/1999/02/22-rdf-syntax-ns#"
   xmlns:cc="http://creativecommons.org/ns#"
   xmlns:dc="http://purl.org/dc/elements/1.1/">
  <metadata
     id="metadata18">
    <rdf:RDF>
      <cc:Work
         rdf:about="">
        <dc:format>image/svg+xml</dc:format>
        <dc:type
           rdf:resource="http://purl.org/dc/dcmitype/StillImage" />
      </cc:Work>
    </rdf:RDF>
  </metadata>
  <defs
     id="defs16">
    <linearGradient
       x1="0.45854774"
       x2="0.45854774"
       y1="0.20984644"
       y2="15.209846"
       gradientUnits="userSpaceOnUse"
       id="linearGradient8">
      <stop
         offset="0%"
         style="stop-color:#303b3d; stop-opacity:1"
         id="stop18" />
      <stop
         offset="100%"
         style="stop-color:#bc985d; stop-opacity:1"
         id="stop20" />
    </linearGradient>
  </defs>
  <sodipodi:namedview
     pagecolor="#b2b2b2"
     bordercolor="#000000"
     borderopacity="1"
     objecttolerance="10"
     gridtolerance="10"
     guidetolerance="10"
     inkscape:pageopacity="0"
     inkscape:pageshadow="2"
     inkscape:window-width="1920"
     inkscape:window-height="1007"
     id="namedview14"
     showgrid="false"
     inkscape:zoom="9.8125003"
     inkscape:cx="25.834394"
     inkscape:cy="15.898089"
     inkscape:window-x="0"
     inkscape:window-y="0"
     inkscape:window-maximized="1"
     inkscape:current-layer="svg12"
     inkscape:document-rotation="0"
     inkscape:showpageshadow="false"
     inkscape:lockguides="false"
     inkscape:pagecheckerboard="0">
    <inkscape:grid
       type="xygrid"
       id="grid864"
       originx="0"
       originy="0" />
  </sodipodi:namedview>
  <g
     id="TeamViewer">
    <rect
       style="opacity:0.00100002"
       width="32"
       height="32"
       x="0"
       y="0"
       id="rect7" />
    <path
       id="Exchange_2_"
       class="st0"
       d="m 0,20 8,-8 v 5 h 12 v -2 h 2 v 3 c 0,2.75 -2.25,5 -5,5 H 8 v 5 z"
       style="fill:#cdd8e5;fill-opacity:0.40392157;stroke-width:0.5" />
    <path
       id="Exchange-s_1_"
       class="st1"
       d="m 25,4 7,7 -7,7 -1.45,-1.4 4.6,-4.6 H 14 c -1.1,0 -2,0.9 -2,2 v 1 h -2 v -1 c 0,-2.2 1.8,-4 4,-4 H 28.15 L 23.6,5.45 Z m -5,13 v 2 c 0,2.2 -1.8,4 -4,4 H 8 v 2 h 8 c 3.3,0 6,-2.7 6,-6 v -2 z"
       style="fill:#eff0f1;fill-opacity:1;stroke-width:0.5" />
  </g>
  <g
     id="22-22-TeamViewer"
     transform="translate(32,10.000001)">
    <rect
       style="opacity:0.00100002"
       width="22"
       height="22"
       x="0"
       y="-4.6325681e-08"
       id="rect2" />
    <path
       id="Exchange_2_-3"
       class="st0"
       d="M 0.4,13.666667 5.733333,8.333333 v 3.333334 h 8 v -1.333334 h 1.333334 v 2 c 0,1.833334 -1.5,3.333334 -3.333334,3.333334 h -6 V 19 Z"
       style="fill:#cdd8e5;fill-opacity:0.40392157;stroke-width:0.333333" />
    <path
       id="Exchange-s_1_-6"
       class="st1"
       d="M 17.066667,3 21.733333,7.666667 17.066667,12.333333 16.1,11.4 19.166667,8.333333 H 9.733333 C 9,8.333333 8.4,8.933333 8.4,9.666667 v 0.666666 H 7.066667 V 9.666667 C 7.066667,8.2 8.266667,7 9.733333,7 h 9.433334 L 16.133333,3.966667 Z m -3.333334,8.666667 V 13 c 0,1.466667 -1.2,2.666667 -2.666666,2.666667 H 5.733333 V 17 h 5.333334 c 2.2,0 4,-1.8 4,-4 v -1.333333 z"
       style="fill:#eff0f1;fill-opacity:1;stroke-width:0.333333" />
  </g>
</svg>
