<?xml version="1.0" encoding="UTF-8" standalone="no"?>
<svg
   width="22"
   height="22"
   version="1.1"
   id="svg12"
   sodipodi:docname="telegram.svg"
   inkscape:version="1.3.2 (091e20ef0f, 2023-11-25)"
   xmlns:inkscape="http://www.inkscape.org/namespaces/inkscape"
   xmlns:sodipodi="http://sodipodi.sourceforge.net/DTD/sodipodi-0.dtd"
   xmlns="http://www.w3.org/2000/svg"
   xmlns:svg="http://www.w3.org/2000/svg"
   xmlns:rdf="http://www.w3.org/1999/02/22-rdf-syntax-ns#"
   xmlns:cc="http://creativecommons.org/ns#"
   xmlns:dc="http://purl.org/dc/elements/1.1/">
  <style
     type="text/css"
     id="current-color-scheme">
.ColorScheme-Text {
    color:#eff0f1;
}
</style>
  <metadata
     id="metadata18">
    <rdf:RDF>
      <cc:Work
         rdf:about="">
        <dc:format>image/svg+xml</dc:format>
        <dc:type
           rdf:resource="http://purl.org/dc/dcmitype/StillImage" />
      </cc:Work>
    </rdf:RDF>
  </metadata>
  <defs
     id="defs16" />
  <sodipodi:namedview
     pagecolor="#3a3f47"
     bordercolor="#000000"
     borderopacity="1"
     objecttolerance="10"
     gridtolerance="10"
     guidetolerance="10"
     inkscape:pageopacity="0"
     inkscape:pageshadow="2"
     inkscape:window-width="1920"
     inkscape:window-height="996"
     id="namedview14"
     showgrid="true"
     inkscape:zoom="9.9124993"
     inkscape:cx="16.645651"
     inkscape:cy="6.910467"
     inkscape:window-x="0"
     inkscape:window-y="0"
     inkscape:window-maximized="1"
     inkscape:current-layer="svg12"
     inkscape:document-rotation="0"
     inkscape:pagecheckerboard="true"
     inkscape:lockguides="true"
     inkscape:showpageshadow="2"
     inkscape:deskcolor="#3a3f47">
    <inkscape:grid
       type="xygrid"
       id="grid833"
       originx="-10"
       originy="-10"
       spacingy="1"
       spacingx="1"
       units="px"
       visible="true" />
  </sodipodi:namedview>
  <g
     id="telegram-panel"
     transform="translate(-22)">
    <rect
       style="opacity:0.00100002"
       width="22"
       height="22"
       x="0"
       y="0"
       id="rect2-1" />
    <ellipse
       class="st0"
       cx="10.744234"
       cy="11.258531"
       id="circle1"
       style="fill:#cdd8e5;fill-opacity:0.403922;stroke-width:0.258095"
       rx="7.7442346"
       ry="7.7414694" />
    <path
       class="st2"
       d="M 6.6139758,4.1105737 C 8.498406,3.0009631 10.770048,2.7171092 12.886805,3.284817 c 2.116758,0.5677077 3.923746,1.9611722 5.007939,3.8449298 1.084192,1.8837575 1.393962,4.1545882 0.826051,6.2705902 -0.567911,2.116002 -1.961873,3.922344 -3.846304,5.00615 l -0.516282,-0.903171 c 1.652104,-0.954781 2.865367,-2.52888 3.355836,-4.386833 0.516282,-1.832148 0.25814,-3.8191248 -0.722796,-5.4706383 C 16.036128,5.9943313 14.461466,4.7815011 12.602849,4.291208 10.770048,3.77511 8.7823613,4.033159 7.1302579,5.0137451 Z"
       id="path2"
       style="clip-rule:evenodd;fill:#eff0f1;fill-opacity:1;fill-rule:evenodd;stroke-width:0.258095" />
    <path
       class="st3"
       d="m 7.7239827,10.329554 c -1.0583787,0.490293 -2.1425715,0.877367 -2.1425715,1.135416 0,0.335463 0.6453527,0.438683 1.368148,0.670927 0.5937246,0.206439 1.368148,0.206439 1.8328021,-0.154829 0.5420965,-0.412879 2.6072247,-1.728929 3.2525787,-2.1934167 0.645352,-0.4902931 0.696981,-0.077415 0.413025,0.1806343 -0.258141,0.2580494 -1.806988,1.7031234 -2.5814108,2.5030754 -0.3355835,0.309658 -0.077443,0.774147 0.2581398,1.006391 l 1.600477,1.083805 c 1.213263,0.825757 1.084192,0.825757 1.523032,0.825757 0.464654,0 0.619538,-0.541903 0.722795,-1.083806 0.103257,-0.541902 0.43884,-2.296635 0.696981,-4.3094175 0.258141,-2.0127821 0.258141,-2.1676115 0,-2.296636 -0.258141,-0.1290245 -0.671166,0 -1.600475,0.3612686 C 12.138196,8.4199917 8.7823613,9.865066 7.7239827,10.329554 Z"
       id="path3"
       style="fill:#ffffff;stroke-width:0.258095" />
  </g>
  <g
     id="telegram-mute-panel">
    <rect
       style="opacity:0.00100002"
       width="22"
       height="22"
       x="0"
       y="0"
       id="rect2-8" />
    <ellipse
       class="st0"
       cx="10.744234"
       cy="11.258529"
       id="circle1-9"
       style="fill:#cdd8e5;fill-opacity:0.403922;stroke-width:0.258095"
       rx="7.7442346"
       ry="7.7414694" />
    <path
       class="st2"
       d="m 6.6139772,4.1105741 c 1.88443,-1.109611 4.1560718,-1.393465 6.2728288,-0.825757 2.116758,0.567708 3.923746,1.961172 5.007939,3.84493 1.084192,1.883757 1.393962,4.1545889 0.826051,6.2705909 -0.567911,2.116002 -1.961873,3.922344 -3.846304,5.00615 L 14.35821,17.503317 c 1.652104,-0.954781 2.865367,-2.52888 3.355836,-4.386833 0.516282,-1.832148 0.25814,-3.8191259 -0.722796,-5.4706389 -0.955121,-1.651514 -2.529783,-2.864344 -4.3884,-3.354637 -1.832801,-0.516098 -3.8204878,-0.258049 -5.4725908,0.722537 z"
       id="path2-2"
       style="clip-rule:evenodd;fill:#bf616a;fill-opacity:1;fill-rule:evenodd;stroke-width:0.258095" />
    <path
       class="st3"
       d="m 7.7239842,10.329555 c -1.058379,0.490293 -2.142572,0.877367 -2.142572,1.135416 0,0.335463 0.645353,0.438683 1.368148,0.670927 0.593725,0.206439 1.368148,0.206439 1.832802,-0.154829 0.542097,-0.412879 2.6072248,-1.728929 3.2525788,-2.1934174 0.645352,-0.4902935 0.696981,-0.07742 0.413025,0.1806344 -0.258141,0.25805 -1.806988,1.703124 -2.5814108,2.503076 -0.335583,0.309658 -0.07744,0.774147 0.2581398,1.006391 l 1.600477,1.083805 c 1.213263,0.825757 1.084192,0.825757 1.523032,0.825757 0.464654,0 0.619538,-0.541903 0.722795,-1.083806 0.103257,-0.541902 0.43884,-2.296635 0.696981,-4.309418 0.258141,-2.0127829 0.258141,-2.1676119 0,-2.2966359 -0.258141,-0.129025 -0.671166,0 -1.600475,0.361268 -0.929308,0.361269 -4.2851428,1.8063439 -5.3435208,2.2708319 z"
       id="path3-6"
       style="fill:#ffffff;stroke-width:0.258095" />
  </g>
  <g
     id="telegram-attention-panel"
     transform="translate(22)">
    <rect
       style="opacity:0.00100002"
       width="22"
       height="22"
       x="0"
       y="0"
       id="rect2" />
    <ellipse
       class="st0"
       cx="10.744235"
       cy="11.258529"
       id="circle1-6"
       style="fill:#cdd8e5;fill-opacity:0.403922;stroke-width:0.258095"
       rx="7.7442346"
       ry="7.7414694" />
    <path
       class="st2"
       d="m 6.613978,4.1105741 c 1.88443,-1.109611 4.156072,-1.393465 6.272829,-0.825757 2.116758,0.567708 3.923746,1.961172 5.007939,3.84493 1.084192,1.883758 1.393962,4.1545889 0.826051,6.2705909 -0.567911,2.116002 -1.961873,3.922344 -3.846304,5.00615 l -0.516282,-0.903171 c 1.652104,-0.954781 2.865367,-2.52888 3.355836,-4.386833 0.516282,-1.832148 0.25814,-3.8191259 -0.722796,-5.4706389 -0.955121,-1.651514 -2.529783,-2.864344 -4.3884,-3.354637 C 10.77005,3.7751101 8.782363,4.0331591 7.13026,5.0137451 Z"
       id="path2-4"
       style="clip-rule:evenodd;fill:#00aa7f;fill-opacity:1;fill-rule:evenodd;stroke-width:0.258095" />
    <path
       class="st3"
       d="m 7.723985,10.329555 c -1.058379,0.490293 -2.142572,0.877367 -2.142572,1.135416 0,0.335463 0.645353,0.438683 1.368148,0.670927 0.593725,0.206439 1.368148,0.206439 1.832802,-0.154829 0.542097,-0.412879 2.607225,-1.728929 3.252579,-2.1934162 0.645352,-0.4902947 0.696981,-0.07741 0.413025,0.1806342 -0.258141,0.258049 -1.806988,1.703123 -2.581411,2.503075 -0.335583,0.309658 -0.07744,0.774147 0.25814,1.006391 l 1.600477,1.083805 c 1.213263,0.825757 1.084192,0.825757 1.523032,0.825757 0.464654,0 0.619538,-0.541903 0.722795,-1.083806 0.103257,-0.541902 0.43884,-2.296635 0.696981,-4.309417 0.258141,-2.0127839 0.258141,-2.1676129 0,-2.2966369 -0.258141,-0.129025 -0.671166,0 -1.600475,0.361268 -0.929308,0.361269 -4.285143,1.8063439 -5.343521,2.2708319 z"
       id="path3-9"
       style="fill:#ffffff;stroke-width:0.258095" />
  </g>
</svg>
