<?xml version="1.0" encoding="UTF-8" standalone="no"?>
<svg
   width="32"
   height="32"
   version="1.1"
   id="svg22"
   sodipodi:docname="touchpad.svg"
   inkscape:version="1.1.2 (0a00cf5339, 2022-02-04)"
   xmlns:inkscape="http://www.inkscape.org/namespaces/inkscape"
   xmlns:sodipodi="http://sodipodi.sourceforge.net/DTD/sodipodi-0.dtd"
   xmlns:xlink="http://www.w3.org/1999/xlink"
   xmlns="http://www.w3.org/2000/svg"
   xmlns:svg="http://www.w3.org/2000/svg"
   xmlns:rdf="http://www.w3.org/1999/02/22-rdf-syntax-ns#"
   xmlns:cc="http://creativecommons.org/ns#"
   xmlns:dc="http://purl.org/dc/elements/1.1/">
  <g
     id="22-22-touchpad_enabled">
    <rect
       style="opacity:0.00100002"
       width="22"
       height="22"
       x="0"
       y="-22.000015"
       id="rect2" />
    <rect
       style="fill:#cdd8e5;fill-opacity:0.40392157;stroke-width:0.560001;stroke-opacity:0.550265"
       height="8"
       rx="4"
       y="-16.666683"
       x="6.9666677"
       width="8"
       id="rect16-7" />
    <path
       style="fill:#ffffff;fill-opacity:1;fill-rule:nonzero;stroke:none;stroke-width:8.50747;stroke-miterlimit:4;stroke-dasharray:none;stroke-opacity:1"
       d="m 10.923201,-15.389734 c -0.537997,-0.0025 -0.999275,0.09739 -1.418747,0.307422 -0.1396497,0.06991 -0.1613857,0.09444 -0.1523457,0.169922 0.01849,0.154054 0.09801,0.169009 0.3335907,0.06328 0.437971,-0.196548 0.651077,-0.238463 1.203516,-0.239063 0.634034,-5.14e-4 0.867523,0.05379 1.387501,0.323048 0.08934,0.0462 0.372171,0.264523 0.477741,0.147266 0.104549,-0.104543 0.0493,-0.191073 -0.219924,-0.344141 -0.53096,-0.30187 -0.99488,-0.424814 -1.611332,-0.427734 z m -0.01641,0.622656 c -0.709843,-5.4e-4 -1.419249,0.279914 -1.9394497,0.841796 -0.2012466,0.217365 -0.4359406,0.573634 -0.4359406,0.66172 0,0.102706 0.042327,0.159378 0.1191413,0.159378 0.0602,0 0.12144,-0.06494 0.267188,-0.283985 0.3259613,-0.489897 0.748546,-0.814889 1.29297,-0.994536 0.422221,-0.137804 0.916651,-0.121854 1.391793,0 0.613498,0.201658 1.139813,0.650891 1.428132,1.219143 0.06275,0.123645 0.10026,0.161327 0.161714,0.161327 0.105832,0 0.167974,-0.07876 0.139064,-0.176563 -0.04662,-0.157752 -0.295309,-0.539985 -0.483596,-0.74336 -0.520935,-0.562671 -1.231177,-0.844384 -1.941018,-0.84492 z m 0.03359,0.618357 c -0.151295,-0.0029 -0.304807,0.01167 -0.458205,0.04372 -0.72892,0.152363 -1.3381787,0.742698 -1.5332047,1.485544 -0.103496,0.394209 -0.055907,1.038105 0.1148454,1.553125 0.05102,0.153912 0.075676,0.186012 0.1488246,0.194535 0.168199,0.01955 0.184629,-0.06049 0.083985,-0.408597 -0.287992,-0.996027 -0.04008,-1.84342 0.6742247,-2.305468 0.70618,-0.456816 1.677412,-0.321622 2.23008,0.310157 0.346324,0.395906 0.536279,1.065569 0.38515,1.357813 -0.09983,0.193064 -0.342906,0.309095 -0.542575,0.258985 -0.145916,-0.03659 -0.318879,-0.215937 -0.341019,-0.353517 -0.07813,-0.485497 -0.188419,-0.675494 -0.467576,-0.805468 -0.238131,-0.110878 -0.436619,-0.107817 -0.670311,0.01057 -0.217745,0.110289 -0.384577,0.332899 -0.418365,0.558201 -0.01221,0.08119 -0.0068,0.256889 0.01214,0.390235 0.117798,0.830621 0.71208,1.487709 1.528121,1.689845 0.102629,0.02538 0.270425,0.04339 0.373051,0.03982 l 0.186718,-0.0061 c 0.105471,-0.05353 0.111246,-0.176757 0,-0.2375 l -0.26406,-0.04026 c -0.332363,-0.05067 -0.46999,-0.09443 -0.698443,-0.223045 -0.4968,-0.279673 -0.852729,-0.885945 -0.852729,-1.452342 0,-0.249604 0.0945,-0.395406 0.31484,-0.486719 0.15921,-0.06599 0.16149,-0.06599 0.3207,0 0.201495,0.0835 0.298478,0.223252 0.323438,0.465234 0.04584,0.444096 0.354016,0.736328 0.776562,0.736328 0.339116,0 0.62456,-0.220062 0.725788,-0.559376 0.09907,-0.332072 -0.03397,-0.889822 -0.313282,-1.314063 -0.370228,-0.562232 -0.98306,-0.890171 -1.63868,-0.90156 z m -0.02191,0.643361 c -0.211149,0.003 -0.428291,0.04164 -0.606252,0.110941 -0.274389,0.134383 -0.53585,0.402755 -0.671091,0.688277 -0.102914,0.217257 -0.109049,0.251091 -0.108988,0.619923 7.6e-5,0.453781 0.05496,0.694841 0.250392,1.102348 0.168378,0.351134 0.401648,0.657383 0.660942,0.867186 0.224746,0.181857 0.248626,0.190683 0.342183,0.122268 0.09579,-0.07004 0.04234,-0.190305 -0.151171,-0.338675 -0.209837,-0.160871 -0.436478,-0.451866 -0.589454,-0.75703 -0.251268,-0.50124 -0.314574,-1.120738 -0.15078,-1.475394 0.118875,-0.257392 0.300138,-0.449394 0.531248,-0.562886 0.277673,-0.136364 0.683269,-0.136364 0.960944,0 0.331421,0.162747 0.543327,0.459101 0.618357,0.86562 0.04477,0.242663 0.11258,0.323322 0.216017,0.256641 0.04791,-0.03086 0.05836,-0.08238 0.05395,-0.267186 -0.01081,-0.449246 -0.325597,-0.900302 -0.785555,-1.126175 -0.1544,-0.07513 -0.359544,-0.108525 -0.570699,-0.105858 z"
       id="path20-5" />
    <path
       style="fill:#ffffff;fill-opacity:1;fill-rule:nonzero;stroke:none;stroke-width:8.50747;stroke-miterlimit:4;stroke-dasharray:none;stroke-opacity:1"
       d="m 11.856047,-10.775655 c -0.579728,-0.126457 -1.02656,-0.637227 -1.076726,-1.230781 -0.01584,-0.187593 -0.01034,-0.212385 0.05461,-0.247158 0.123739,-0.06622 0.195254,0.0037 0.22,0.213868 0.06223,0.529484 0.451339,0.928818 0.974794,1.000402 0.2561,0.035 0.338467,0.133351 0.215071,0.25675 -0.06179,0.06179 -0.130595,0.063 -0.387724,0.0069 z"
       id="path22-3" />
    <path
       id="Grid-5"
       class="st0"
       d="M 3.5615333,-6.692322 H 10.3308 v 2.602466 L 3.5,-4.066646 Z m 13.8076207,0 v 0 0 h -5.80756 l -0.06133,2.625645 h 4.26662 c 1.466746,0 2.666746,-1.2 2.666746,-2.666673 z"
       style="fill:#cdd8e5;fill-opacity:0.40392157;stroke-width:0.266662"
       sodipodi:nodetypes="ccccccccccssc" />
    <path
       id="Grid-s-6"
       class="st1"
       d="M 10.43338,-3.000015 H 4.566662 v -1.066662 h 5.866718 z m 8.000001,-8 v 4.8 c 0,1.76 -1.44,3.2 -3.2,3.2 h -3.73338 v -1.066662 h 3.73338 c 1.17324,0 2.13324,-0.96 2.13324,-2.133338 v -4.8 z m 0,-6.933334 v 5.866668 h -1.06676 v -5.866668 z M 3.5,-16.866681 c 0,-1.173334 0.96,-2.133334 2.133338,-2.133334 h 2.133324 v 1.066666 H 5.633338 c -0.586676,0 -1.066676,0.48 -1.066676,1.066668 v 4.8 H 3.5 Z"
       style="clip-rule:evenodd;fill:#eff0f1;fill-opacity:1;fill-rule:evenodd;stroke-width:0.266662" />
  </g>
  <metadata
     id="metadata28">
    <rdf:RDF>
      <cc:Work
         rdf:about="">
        <dc:format>image/svg+xml</dc:format>
        <dc:type
           rdf:resource="http://purl.org/dc/dcmitype/StillImage" />
      </cc:Work>
    </rdf:RDF>
  </metadata>
  <defs
     id="defs26">
    <linearGradient
       gradientTransform="matrix(0.35000018,0,0,0.35000018,-127.12577,-169.60226)"
       xlink:href="#linearGradient4177"
       id="linearGradient4205"
       x1="388.73499"
       y1="503.991"
       x2="428.40799"
       y2="543.93201"
       gradientUnits="userSpaceOnUse" />
    <linearGradient
       id="linearGradient4177">
      <stop
         offset="0"
         style="stop-color:#3f3f3f;stop-opacity:1;"
         id="stop3" />
      <stop
         style="stop-color:#de7d9c;stop-opacity:1"
         offset=".11"
         id="stop5" />
      <stop
         offset=".449"
         style="stop-color:#cc3d8a;stop-opacity:1"
         id="stop7" />
      <stop
         style="stop-color:#5f2b76;stop-opacity:1"
         offset=".934"
         id="stop9" />
      <stop
         offset="1"
         style="stop-color:#3f3f3f;stop-opacity:0;"
         id="stop11" />
    </linearGradient>
    <linearGradient
       x1="0"
       x2="0"
       y1="0"
       y2="1"
       id="linearGradient12">
      <stop
         offset="0%"
         style="stop-color:#303b3d; stop-opacity:1"
         id="stop18" />
      <stop
         offset="100%"
         style="stop-color:#bc985d; stop-opacity:1"
         id="stop20" />
    </linearGradient>
  </defs>
  <sodipodi:namedview
     pagecolor="#b2b2b2"
     bordercolor="#000000"
     borderopacity="1"
     objecttolerance="10"
     gridtolerance="10"
     guidetolerance="10"
     inkscape:pageopacity="0"
     inkscape:pageshadow="2"
     inkscape:window-width="1920"
     inkscape:window-height="1007"
     id="namedview24"
     showgrid="false"
     inkscape:zoom="8"
     inkscape:cx="21.8125"
     inkscape:cy="3.75"
     inkscape:window-x="0"
     inkscape:window-y="0"
     inkscape:window-maximized="1"
     inkscape:current-layer="svg22"
     inkscape:document-rotation="0"
     inkscape:lockguides="true"
     inkscape:showpageshadow="false"
     inkscape:pagecheckerboard="0">
    <inkscape:grid
       type="xygrid"
       id="grid924"
       originx="0"
       originy="0" />
  </sodipodi:namedview>
  <g
     id="touchpad_enabled">
    <rect
       style="opacity:0.00100002"
       width="32"
       height="32"
       x="0"
       y="0"
       id="rect12" />
    <rect
       style="fill:#cdd8e5;fill-opacity:0.40392157;stroke-width:0.840001;stroke-opacity:0.550265"
       height="12"
       rx="6"
       y="7.5"
       x="10"
       width="12"
       id="rect16" />
    <path
       style="fill:#ffffff;fill-opacity:1;fill-rule:nonzero;stroke:none;stroke-width:12.7612;stroke-miterlimit:4;stroke-dasharray:none;stroke-opacity:1"
       d="m 15.934801,9.4154211 c -0.806995,-0.00373 -1.498911,0.1460898 -2.128119,0.461133 -0.209476,0.104873 -0.242079,0.1416599 -0.228519,0.2548829 0.02774,0.231082 0.147013,0.253514 0.500386,0.09492 0.656957,-0.2948216 0.976616,-0.3576937 1.805273,-0.3585937 0.951051,-7.716e-4 1.301285,0.080689 2.081252,0.4845717 0.134016,0.0693 0.558256,0.396785 0.716611,0.220899 0.156824,-0.156814 0.07395,-0.28661 -0.329885,-0.516212 C 17.555359,9.604218 16.859479,9.4198011 15.934801,9.4154211 Z m -0.02462,0.9339849 c -1.064764,-8.1e-4 -2.128873,0.41987 -2.909175,1.262694 -0.30187,0.326047 -0.653911,0.86045 -0.653911,0.992579 0,0.15406 0.06349,0.239067 0.178712,0.239067 0.0903,0 0.18216,-0.09741 0.400782,-0.425977 0.488942,-0.734845 1.12282,-1.222334 1.939456,-1.491804 0.633331,-0.206706 1.374976,-0.182781 2.087688,0 0.920248,0.302487 1.70972,0.976337 2.142198,1.828714 0.09413,0.185468 0.15039,0.241991 0.242571,0.241991 0.158749,0 0.251961,-0.118133 0.208597,-0.264844 -0.06993,-0.236629 -0.442964,-0.809978 -0.725394,-1.115041 -0.781403,-0.844006 -1.846766,-1.266575 -2.911528,-1.267379 z m 0.05039,0.927535 c -0.226942,-0.0044 -0.457209,0.0175 -0.687307,0.06558 -1.09338,0.228545 -2.007268,1.114047 -2.299807,2.228316 -0.155244,0.591313 -0.08386,1.557158 0.172268,2.329688 0.07653,0.230868 0.113514,0.279018 0.223237,0.291802 0.252299,0.02932 0.276944,-0.09073 0.125978,-0.612895 -0.431988,-1.494041 -0.06012,-2.76513 1.011338,-3.458203 1.059269,-0.685223 2.516116,-0.482433 3.345118,0.465236 0.519487,0.593859 0.804419,1.598353 0.577726,2.03672 -0.149752,0.289596 -0.514359,0.463642 -0.813863,0.388477 -0.218874,-0.05489 -0.478318,-0.323905 -0.511529,-0.530275 -0.117197,-0.728246 -0.282628,-1.013242 -0.701363,-1.208203 -0.357197,-0.166317 -0.654929,-0.161725 -1.005466,0.01586 -0.326618,0.165434 -0.576865,0.499348 -0.627548,0.837301 -0.01832,0.121788 -0.0102,0.385334 0.01821,0.585353 0.176698,1.245932 1.068119,2.231563 2.292181,2.534767 0.153944,0.03807 0.405638,0.06508 0.559576,0.05973 l 0.280077,-0.0092 c 0.158207,-0.08029 0.16687,-0.265136 0,-0.356251 l -0.39609,-0.06039 c -0.498544,-0.076 -0.704984,-0.14165 -1.047664,-0.334567 -0.7452,-0.41951 -1.279093,-1.328917 -1.279093,-2.178513 0,-0.374406 0.141746,-0.593109 0.47226,-0.730079 0.238815,-0.09898 0.242234,-0.09898 0.48105,0 0.302242,0.125257 0.447716,0.334879 0.485156,0.697851 0.06876,0.666145 0.531024,1.104493 1.164844,1.104493 0.508674,0 0.93684,-0.330093 1.088681,-0.839064 0.148608,-0.498108 -0.05096,-1.334734 -0.469922,-1.971095 -0.555342,-0.843348 -1.47459,-1.335256 -2.45802,-1.35234 z m -0.03287,0.965041 c -0.316724,0.0045 -0.642437,0.06246 -0.909378,0.166412 -0.411584,0.201574 -0.803775,0.604133 -1.006637,1.032416 -0.15437,0.325885 -0.163573,0.376636 -0.163481,0.929884 1.14e-4,0.680672 0.08244,1.042261 0.375588,1.653522 0.252566,0.526701 0.602471,0.986074 0.991412,1.300779 0.337119,0.272786 0.372939,0.286025 0.513275,0.183402 0.143679,-0.105057 0.06351,-0.285457 -0.226756,-0.508013 -0.314756,-0.241306 -0.654718,-0.677799 -0.884181,-1.135545 -0.376903,-0.75186 -0.471861,-1.681107 -0.22617,-2.21309 0.178312,-0.386089 0.450206,-0.674091 0.796872,-0.84433 0.416509,-0.204545 1.024902,-0.204545 1.441415,0 0.497131,0.244121 0.814991,0.688652 0.927536,1.29843 0.06716,0.363995 0.16887,0.484984 0.324025,0.384962 0.07186,-0.04629 0.08754,-0.123565 0.08092,-0.400779 -0.01622,-0.673869 -0.488395,-1.350453 -1.178332,-1.689263 -0.2316,-0.112692 -0.539316,-0.162787 -0.856048,-0.158787 z"
       id="path20" />
    <path
       style="fill:#ffffff;fill-opacity:1;fill-rule:nonzero;stroke:none;stroke-width:12.7612;stroke-miterlimit:4;stroke-dasharray:none;stroke-opacity:1"
       d="m 17.33407,16.33654 c -0.869591,-0.189686 -1.539839,-0.95584 -1.615088,-1.846171 -0.02376,-0.28139 -0.01551,-0.318578 0.08192,-0.370738 0.185609,-0.09933 0.292881,0.0056 0.33,0.320802 0.09334,0.794227 0.677009,1.393228 1.462192,1.500604 0.38415,0.0525 0.5077,0.200026 0.322606,0.385125 -0.09269,0.09269 -0.195892,0.0945 -0.581586,0.01037 z"
       id="path22" />
    <path
       id="Grid"
       class="st0"
       d="m 4.8923,22.461539 h 10.153901 v 3.9037 L 4.8,26.400049 Z m 20.711431,0 v 0 0 h -8.71134 l -0.092,3.938468 h 6.39993 c 2.20012,0 4.00012,-1.8 4.00012,-4.00001 z"
       style="fill:#cdd8e5;fill-opacity:0.40392157;stroke-width:0.399993"
       sodipodi:nodetypes="ccccccccccssc" />
    <path
       id="Grid-s"
       class="st1"
       d="M 15.200071,28 H 6.399993 v -1.599993 h 8.800078 z m 12,-12 v 7.2 c 0,2.64 -2.16,4.8 -4.8,4.8 h -5.60007 v -1.599993 h 5.60007 c 1.75986,0 3.19986,-1.44 3.19986,-3.200007 V 16 Z m 0,-10.400001 v 8.800002 h -1.60014 V 5.599999 Z M 4.8,7.2000007 C 4.8,5.44 6.24,4 8.000007,4 h 3.199986 V 5.599999 H 8.000007 c -0.880014,0 -1.600014,0.72 -1.600014,1.6000017 V 14.400001 H 4.8 Z"
       style="clip-rule:evenodd;fill:#eff0f1;fill-opacity:1;fill-rule:evenodd;stroke-width:0.399993" />
  </g>
  <g
     id="touchpad_disabled"
     transform="translate(32)">
    <rect
       style="opacity:0.00100002"
       width="32"
       height="32"
       x="0"
       y="0"
       id="rect17" />
    <rect
       style="opacity:0.4;fill:#cdd8e5;fill-opacity:0.40392157;stroke-width:0.840001;stroke-opacity:0.550265"
       height="12"
       rx="6"
       y="7.4999995"
       x="10"
       width="12"
       id="rect16-2" />
    <path
       style="fill:#ffffff;fill-opacity:1;fill-rule:nonzero;stroke:none;stroke-width:12.7612;stroke-miterlimit:4;stroke-dasharray:none;stroke-opacity:1"
       d="m 15.934801,9.4154211 c -0.806995,-0.00373 -1.498911,0.1460898 -2.128119,0.4611329 -0.209476,0.104873 -0.242079,0.14166 -0.228519,0.254883 0.02774,0.231082 0.147013,0.253514 0.500386,0.09492 0.656957,-0.294822 0.976616,-0.357694 1.805273,-0.358594 0.951051,-7.71e-4 1.301285,0.08069 2.081252,0.484572 0.134016,0.0693 0.558256,0.396785 0.716611,0.220899 0.156824,-0.156814 0.07395,-0.28661 -0.329885,-0.516212 C 17.555359,9.604218 16.859479,9.4198011 15.934801,9.4154211 Z m -0.02462,0.9339849 c -1.064764,-8.1e-4 -2.128873,0.41987 -2.909175,1.262694 -0.30187,0.326047 -0.653911,0.86045 -0.653911,0.992579 0,0.15406 0.06349,0.239067 0.178712,0.239067 0.0903,0 0.18216,-0.09741 0.400782,-0.425977 0.488942,-0.734845 1.12282,-1.222334 1.939456,-1.491804 0.633331,-0.206706 1.374976,-0.182781 2.087688,0 0.920248,0.302487 1.70972,0.976337 2.142198,1.828714 0.09413,0.185468 0.15039,0.241991 0.242571,0.241991 0.158749,0 0.251961,-0.118133 0.208597,-0.264844 -0.06993,-0.236629 -0.442964,-0.809978 -0.725394,-1.115041 -0.781403,-0.844006 -1.846766,-1.266575 -2.911528,-1.267379 z m 0.05039,0.927535 c -0.226942,-0.0044 -0.457209,0.0175 -0.687307,0.06558 -1.09338,0.228545 -2.007268,1.114047 -2.299807,2.228316 -0.155244,0.591313 -0.08386,1.557158 0.172268,2.329688 0.07653,0.230868 0.113514,0.279018 0.223237,0.291802 0.252299,0.02932 0.276944,-0.09073 0.125978,-0.612895 -0.431988,-1.494041 -0.06012,-2.76513 1.011338,-3.458203 1.059269,-0.685223 2.516116,-0.482433 3.345118,0.465236 0.519487,0.593859 0.804419,1.598353 0.577726,2.03672 -0.149752,0.289596 -0.514359,0.463642 -0.813863,0.388477 -0.218874,-0.05489 -0.478318,-0.323905 -0.511529,-0.530275 -0.117197,-0.728246 -0.282628,-1.013242 -0.701363,-1.208203 -0.357197,-0.166317 -0.654929,-0.161725 -1.005466,0.01586 -0.326618,0.165434 -0.576865,0.499348 -0.627548,0.837301 -0.01832,0.121788 -0.0102,0.385334 0.01821,0.585353 0.176698,1.245932 1.068119,2.231563 2.292181,2.534767 0.153944,0.03807 0.405638,0.06508 0.559576,0.05973 l 0.280077,-0.0092 c 0.158207,-0.08029 0.16687,-0.265136 0,-0.356251 l -0.39609,-0.06039 c -0.498544,-0.076 -0.704984,-0.14165 -1.047664,-0.334567 -0.7452,-0.41951 -1.279093,-1.328917 -1.279093,-2.178513 0,-0.374406 0.141746,-0.593109 0.47226,-0.730079 0.238815,-0.09898 0.242234,-0.09898 0.48105,0 0.302242,0.125257 0.447716,0.334879 0.485156,0.697851 0.06876,0.666145 0.531024,1.104493 1.164844,1.104493 0.508674,0 0.93684,-0.330093 1.088681,-0.839064 0.148608,-0.498108 -0.05096,-1.334734 -0.469922,-1.971095 -0.555342,-0.843348 -1.47459,-1.335256 -2.45802,-1.35234 z m -0.03287,0.965041 c -0.316724,0.0045 -0.642437,0.06246 -0.909378,0.166412 -0.411584,0.201574 -0.803775,0.604133 -1.006637,1.032416 -0.15437,0.325885 -0.163573,0.376636 -0.163481,0.929884 1.14e-4,0.680672 0.08244,1.042261 0.375588,1.653522 0.252566,0.526701 0.602471,0.986074 0.991412,1.300779 0.337119,0.272786 0.372939,0.286025 0.513275,0.183402 0.143679,-0.105057 0.06351,-0.285457 -0.226756,-0.508013 -0.314756,-0.241306 -0.654718,-0.677799 -0.884181,-1.135545 -0.376903,-0.75186 -0.471861,-1.681107 -0.22617,-2.21309 0.178312,-0.386089 0.450206,-0.674091 0.796872,-0.84433 0.416509,-0.204545 1.024902,-0.204545 1.441415,0 0.497131,0.244121 0.814991,0.688652 0.927536,1.29843 0.06716,0.363995 0.16887,0.484984 0.324025,0.384962 0.07186,-0.04629 0.08754,-0.123565 0.08092,-0.400779 -0.01622,-0.673869 -0.488395,-1.350453 -1.178332,-1.689263 -0.2316,-0.112692 -0.539316,-0.162787 -0.856048,-0.158787 z"
       id="path20-7" />
    <path
       style="fill:#ffffff;fill-opacity:1;fill-rule:nonzero;stroke:none;stroke-width:12.7612;stroke-miterlimit:4;stroke-dasharray:none;stroke-opacity:1"
       d="m 17.33407,16.33654 c -0.869591,-0.189686 -1.539839,-0.95584 -1.615088,-1.846171 -0.02376,-0.28139 -0.01551,-0.318578 0.08192,-0.370738 0.185609,-0.09933 0.292881,0.0056 0.33,0.320802 0.09334,0.794227 0.677009,1.393228 1.462192,1.500604 0.38415,0.0525 0.5077,0.200026 0.322606,0.385125 -0.09269,0.09269 -0.195892,0.0945 -0.581586,0.01037 z"
       id="path22-0" />
    <path
       id="Grid-9"
       class="st0"
       d="m 4.8923,22.461539 h 10.153901 v 3.9037 L 4.8,26.400049 Z m 20.711431,0 v 0 0 h -8.71134 l -0.092,3.938468 h 6.39993 c 2.20012,0 4.00012,-1.8 4.00012,-4.00001 z"
       style="opacity:0.4;fill:#cdd8e5;fill-opacity:0.40392157;stroke-width:0.399993"
       sodipodi:nodetypes="ccccccccccssc" />
    <path
       id="Grid-s-3"
       class="st1"
       d="M 15.200071,28 H 6.399993 v -1.599993 h 8.800078 z m 12,-12 v 7.2 c 0,2.64 -2.16,4.8 -4.8,4.8 h -5.60007 v -1.599993 h 5.60007 c 1.75986,0 3.19986,-1.44 3.19986,-3.200007 V 16 Z m 0,-10.400001 v 8.800002 h -1.60014 V 5.599999 Z M 4.8,7.2000007 C 4.8,5.44 6.24,4 8.000007,4 h 3.199986 V 5.599999 H 8.000007 c -0.880014,0 -1.600014,0.72 -1.600014,1.6000017 V 14.400001 H 4.8 Z"
       style="clip-rule:evenodd;opacity:0.4;fill:#eff0f1;fill-opacity:1;fill-rule:evenodd;stroke-width:0.399993" />
  </g>
  <g
     id="22-22-touchpad_disabled"
     transform="translate(32,-22.000015)">
    <rect
       style="opacity:0.00100002"
       width="22"
       height="22"
       x="0"
       y="0"
       id="rect7" />
    <rect
       style="opacity:0.4;fill:#cdd8e5;fill-opacity:0.40392157;stroke-width:0.560001;stroke-opacity:0.550265"
       height="8"
       rx="4"
       y="5.3333316"
       x="6.9666672"
       width="8"
       id="rect16-26" />
    <path
       style="fill:#ffffff;fill-opacity:1;fill-rule:nonzero;stroke:none;stroke-width:8.50747;stroke-miterlimit:4;stroke-dasharray:none;stroke-opacity:1"
       d="m 10.923201,6.610281 c -0.537997,-0.0025 -0.999274,0.09739 -1.418746,0.307422 -0.1396513,0.06991 -0.1613863,0.09444 -0.1523463,0.169922 0.01849,0.154054 0.09801,0.169009 0.3335913,0.06328 0.437971,-0.196548 0.651077,-0.238463 1.203515,-0.239063 0.634034,-5.14e-4 0.867523,0.05379 1.387501,0.323048 0.08934,0.0462 0.372171,0.264523 0.477741,0.147266 0.104549,-0.104543 0.0493,-0.191073 -0.219923,-0.344141 -0.530961,-0.30187 -0.994881,-0.424814 -1.611333,-0.427734 z m -0.01641,0.622656 C 10.196948,7.232397 9.487542,7.512851 8.9673407,8.074733 8.7660941,8.292098 8.5314001,8.648367 8.5314001,8.736453 c 0,0.102706 0.042327,0.159378 0.1191413,0.159378 0.0602,0 0.12144,-0.06494 0.267188,-0.283985 C 9.2436907,8.121949 9.666276,7.796957 10.2107,7.61731 c 0.422221,-0.137804 0.916651,-0.121854 1.391792,0 0.613499,0.201658 1.139814,0.650891 1.428132,1.219143 0.06275,0.123645 0.10026,0.161327 0.161714,0.161327 0.105833,0 0.167974,-0.07875 0.139065,-0.176563 C 13.28478,8.663465 13.036091,8.281232 12.847804,8.077857 12.326869,7.515186 11.616627,7.233473 10.906785,7.232937 Z m 0.03359,0.618357 c -0.151295,-0.0029 -0.304806,0.01167 -0.458205,0.04372 -0.72892,0.152363 -1.3381787,0.742698 -1.5332047,1.485544 -0.103496,0.394209 -0.055907,1.038105 0.1148454,1.553125 0.05102,0.153912 0.075676,0.186012 0.1488246,0.194535 0.1681994,0.01955 0.1846294,-0.06049 0.083985,-0.408597 -0.287992,-0.996027 -0.04008,-1.84342 0.6742257,-2.305468 0.706179,-0.456816 1.677411,-0.321622 2.230079,0.310157 0.346324,0.395906 0.536279,1.065569 0.38515,1.357813 -0.09984,0.193064 -0.342906,0.309095 -0.542575,0.258985 -0.145916,-0.03659 -0.318879,-0.215937 -0.341019,-0.353517 -0.07813,-0.485497 -0.188419,-0.675494 -0.467576,-0.805468 -0.238131,-0.110878 -0.436619,-0.107817 -0.67031,0.01057 -0.217746,0.110289 -0.384577,0.332899 -0.418366,0.558201 -0.01221,0.08119 -0.0068,0.256889 0.01214,0.390235 0.117799,0.830621 0.71208,1.487709 1.528121,1.689845 0.102629,0.02538 0.270425,0.04339 0.373051,0.03982 l 0.186718,-0.0061 c 0.105471,-0.05353 0.111246,-0.176757 0,-0.2375 l -0.26406,-0.04026 c -0.332363,-0.05067 -0.46999,-0.09443 -0.698443,-0.223045 -0.4968,-0.279673 -0.852729,-0.885945 -0.852729,-1.452342 0,-0.249604 0.0945,-0.395406 0.31484,-0.486719 0.15921,-0.06599 0.16149,-0.06599 0.3207,0 0.201495,0.0835 0.298478,0.223252 0.323438,0.465234 0.04584,0.444096 0.354016,0.736328 0.776562,0.736328 0.339116,0 0.62456,-0.220062 0.725788,-0.559376 0.09907,-0.332072 -0.03397,-0.889822 -0.313282,-1.314063 -0.370228,-0.562232 -0.98306,-0.890171 -1.63868,-0.90156 z m -0.02191,0.643361 c -0.211152,0.003 -0.428294,0.04164 -0.606255,0.110941 C 10.037827,8.739979 9.776366,9.008351 9.641125,9.293873 9.538211,9.51113 9.532076,9.544964 9.532137,9.913796 c 7.6e-5,0.453781 0.05496,0.694841 0.250392,1.102348 0.168378,0.351134 0.401648,0.657383 0.660942,0.867186 0.224746,0.181857 0.248626,0.190683 0.342183,0.122268 0.09579,-0.07004 0.04234,-0.190305 -0.151171,-0.338675 -0.209837,-0.160871 -0.436478,-0.451866 -0.589454,-0.75703 -0.251268,-0.50124 -0.314574,-1.120738 -0.15078,-1.475394 0.118875,-0.257392 0.300138,-0.449394 0.531248,-0.562886 0.277673,-0.136364 0.683268,-0.136364 0.960944,0 0.33142,0.162747 0.543327,0.459101 0.618357,0.86562 0.04477,0.242663 0.11258,0.323322 0.216017,0.256641 0.04791,-0.03086 0.05836,-0.08238 0.05395,-0.267186 C 12.263955,9.277442 11.949168,8.826386 11.48921,8.600513 11.33481,8.525383 11.129666,8.491988 10.918511,8.494655 Z"
       id="path20-1" />
    <path
       style="fill:#ffffff;fill-opacity:1;fill-rule:nonzero;stroke:none;stroke-width:8.50747;stroke-miterlimit:4;stroke-dasharray:none;stroke-opacity:1"
       d="m 11.856047,11.22436 c -0.579727,-0.126457 -1.026559,-0.637227 -1.076725,-1.230781 -0.01584,-0.187593 -0.01034,-0.212385 0.05461,-0.247158 0.123739,-0.06622 0.195254,0.0037 0.22,0.213868 0.06223,0.529484 0.451339,0.928818 0.974794,1.000402 0.2561,0.035 0.338467,0.133351 0.215071,0.25675 -0.06179,0.06179 -0.130595,0.063 -0.387724,0.0069 z"
       id="path22-8" />
    <path
       id="Grid-7"
       class="st0"
       d="m 3.5615333,15.307693 h 6.7692677 v 2.602466 L 3.5,17.933369 Z m 13.8076207,0 v 0 0 h -5.80756 l -0.06133,2.625645 h 4.26662 c 1.466746,0 2.666746,-1.2 2.666746,-2.666673 z"
       style="opacity:0.4;fill:#cdd8e5;fill-opacity:0.40392157;stroke-width:0.266662"
       sodipodi:nodetypes="ccccccccccssc" />
    <path
       id="Grid-s-9"
       class="st1"
       d="M 10.433381,19 H 4.566662 v -1.066662 h 5.866719 z m 8,-8 v 4.8 c 0,1.76 -1.44,3.2 -3.2,3.2 h -3.73338 v -1.066662 h 3.73338 c 1.17324,0 2.13324,-0.96 2.13324,-2.133338 V 11 Z m 0,-6.933334 v 5.866668 h -1.06676 V 4.066666 Z M 3.5,5.133334 C 3.5,3.96 4.46,3 5.633338,3 H 7.766662 V 4.066666 H 5.633338 c -0.586676,0 -1.066676,0.48 -1.066676,1.066668 v 4.8 H 3.5 Z"
       style="clip-rule:evenodd;opacity:0.4;fill:#eff0f1;fill-opacity:1;fill-rule:evenodd;stroke-width:0.266662" />
  </g>
</svg>
