<?xml version="1.0" encoding="UTF-8" standalone="no"?>
<svg
   sodipodi:docname="update.svg"
   inkscape:version="1.2.2 (b0a8486541, 2022-12-01)"
   id="svg846"
   version="1.1"
   viewBox="0 0 8.4666665 8.4666699"
   height="32.000011"
   width="32"
   xmlns:inkscape="http://www.inkscape.org/namespaces/inkscape"
   xmlns:sodipodi="http://sodipodi.sourceforge.net/DTD/sodipodi-0.dtd"
   xmlns="http://www.w3.org/2000/svg"
   xmlns:svg="http://www.w3.org/2000/svg"
   xmlns:rdf="http://www.w3.org/1999/02/22-rdf-syntax-ns#"
   xmlns:cc="http://creativecommons.org/ns#"
   xmlns:dc="http://purl.org/dc/elements/1.1/">
  <defs
     id="defs840" />
  <sodipodi:namedview
     inkscape:document-rotation="0"
     inkscape:snap-midpoints="true"
     inkscape:object-paths="true"
     inkscape:snap-intersection-paths="true"
     inkscape:snap-smooth-nodes="true"
     inkscape:window-maximized="1"
     inkscape:window-y="0"
     inkscape:window-x="0"
     inkscape:window-height="1000"
     inkscape:window-width="1920"
     units="px"
     showgrid="false"
     inkscape:current-layer="layer1"
     inkscape:document-units="px"
     inkscape:cy="5.922019"
     inkscape:cx="50.469744"
     inkscape:zoom="5.6568545"
     inkscape:pageshadow="2"
     inkscape:pageopacity="0"
     borderopacity="1"
     bordercolor="#000000"
     pagecolor="#b2b2b2"
     id="base"
     inkscape:lockguides="false"
     inkscape:pagecheckerboard="0"
     showguides="false"
     inkscape:showpageshadow="false"
     inkscape:deskcolor="#b2b2b2">
    <inkscape:grid
       id="grid1394"
       type="xygrid"
       originx="1.2e-05"
       originy="-5.8207864" />
  </sodipodi:namedview>
  <metadata
     id="metadata843">
    <rdf:RDF>
      <cc:Work
         rdf:about="">
        <dc:format>image/svg+xml</dc:format>
        <dc:type
           rdf:resource="http://purl.org/dc/dcmitype/StillImage" />
      </cc:Work>
    </rdf:RDF>
  </metadata>
  <style
     type="text/css"
     id="current-color-scheme" />
  <g
     transform="translate(0,-296.99997)"
     id="layer1"
     inkscape:groupmode="layer"
     inkscape:label="Layer 1">
    <g
       id="22-22-update-low">
      <rect
         style="opacity:0.003;fill:#000000;fill-opacity:1;stroke:none;stroke-width:0.10795;stroke-miterlimit:4;stroke-dasharray:none;stroke-opacity:1"
         id="rect1396-3-2"
         width="5.8208332"
         height="5.8208332"
         x="17.4625"
         y="291.17914"
         ry="1.2988288e-06" />
      <polygon
         id="Arrow-Down-6-2-1"
         class="st0"
         points="44,0 44,28 60,28 32,56 4,28 20,28 20,4 40,4 40,0 "
         transform="matrix(-0.06604269,0,0,-0.06604269,22.483395,296.20623)"
         style="fill:#3daee9;fill-opacity:0.74902" />
      <path
         id="ArrowDown-s-75-26-0"
         class="st1"
         d="m 19.577517,294.35208 v 1.58503 h 0.264171 v -1.58503 z m 1.849195,-1.54539 -0.68024,-0.68024 c -0.204732,-0.20474 -0.54155,-0.20474 -0.746282,0 l -0.686844,0.68684 0.184919,0.18492 0.686844,-0.68024 c 0.105668,-0.10567 0.270775,-0.10567 0.376444,0 l 0.68024,0.68024 z"
         style="clip-rule:evenodd;fill:#eff0f1;fill-opacity:1;fill-rule:evenodd;stroke-width:0.0660427" />
    </g>
    <g
       id="update-none">
      <rect
         style="opacity:0.003;fill:#000000;fill-opacity:1;stroke:none;stroke-width:0.157018;stroke-miterlimit:4;stroke-dasharray:none;stroke-opacity:1"
         id="rect1396-6"
         width="8.4666672"
         height="8.46667"
         x="0"
         y="296.99997"
         ry="1.8892064e-06" />
      <polygon
         id="Arrow-Down"
         class="st0"
         points="44,0 44,28 60,28 32,56 4,28 20,28 20,4 40,4 40,0 "
         transform="matrix(-0.09906396,0,0,-0.09906396,7.3990459,304.40833)"
         style="fill:#cdd8e5;fill-opacity:0.403922" />
      <path
         id="ArrowDown-s"
         class="st1"
         d="m 3.0402317,301.62711 v 2.37754 h 0.3962558 v -2.37754 z m 2.773791,-2.31809 -1.020359,-1.02036 c -0.3070981,-0.3071 -0.8123245,-0.3071 -1.1194227,0 l -1.0302651,1.03026 0.2773791,0.27738 1.0302651,-1.02036 c 0.1585024,-0.1585 0.4061622,-0.1585 0.5646645,0 l 1.020359,1.02036 z"
         style="clip-rule:evenodd;fill:#eff0f1;fill-opacity:1;fill-rule:evenodd;stroke-width:0.099064" />
    </g>
    <g
       id="update-high">
      <rect
         style="opacity:0.003;fill:#000000;fill-opacity:1;stroke:none;stroke-width:0.157018;stroke-miterlimit:4;stroke-dasharray:none;stroke-opacity:1"
         id="rect1396-6-9"
         width="8.4666672"
         height="8.46667"
         x="8.4666672"
         y="296.99997"
         ry="1.8892064e-06" />
      <polygon
         id="Arrow-Down-36"
         class="st0"
         points="44,28 60,28 32,56 4,28 20,28 20,4 40,4 40,0 44,0 "
         transform="matrix(-0.09906396,0,0,-0.09906396,15.865713,304.40831)"
         style="fill:#bf616a;fill-opacity:1" />
      <path
         id="ArrowDown-s-7"
         class="st1"
         d="m 11.506899,301.62709 v 2.37754 h 0.396255 v -2.37754 z m 2.773791,-2.31809 -1.020359,-1.02036 c -0.307098,-0.30711 -0.812325,-0.30711 -1.119423,0 l -1.030265,1.03026 0.277379,0.27738 1.030265,-1.02036 c 0.158503,-0.1585 0.406162,-0.1585 0.564664,0 l 1.020359,1.02036 z"
         style="clip-rule:evenodd;fill:#eff0f1;fill-opacity:1;fill-rule:evenodd;stroke-width:0.099064" />
    </g>
    <g
       id="update-medium">
      <rect
         style="opacity:0.003;fill:#000000;fill-opacity:1;stroke:none;stroke-width:0.157018;stroke-miterlimit:4;stroke-dasharray:none;stroke-opacity:1"
         id="rect1396-6-9-5"
         width="8.4666672"
         height="8.46667"
         x="16.933332"
         y="296.99997"
         ry="1.8892064e-06" />
      <polygon
         id="Arrow-Down-6"
         class="st0"
         points="4,28 20,28 20,4 40,4 40,0 44,0 44,28 60,28 32,56 "
         transform="matrix(-0.09906396,0,0,-0.09906396,24.200086,304.4083)"
         style="fill:#d08770;fill-opacity:1" />
      <path
         id="ArrowDown-s-75"
         class="st1"
         d="m 19.841272,301.62708 v 2.37754 h 0.396256 v -2.37754 z m 2.773791,-2.31809 -1.020359,-1.02036 c -0.307098,-0.3071 -0.812325,-0.3071 -1.119423,0 l -1.030265,1.03026 0.277379,0.27738 1.030265,-1.02036 c 0.158502,-0.1585 0.406162,-0.1585 0.564665,0 l 1.020359,1.02036 z"
         style="clip-rule:evenodd;fill:#eff0f1;fill-opacity:1;fill-rule:evenodd;stroke-width:0.099064" />
    </g>
    <g
       id="22-22-update-none">
      <rect
         style="opacity:0.003;fill:#000000;fill-opacity:1;stroke:none;stroke-width:0.10795;stroke-miterlimit:4;stroke-dasharray:none;stroke-opacity:1"
         id="rect1396"
         width="5.8208332"
         height="5.8208332"
         x="0"
         y="291.17914"
         ry="1.2988289e-06" />
      <polygon
         id="Arrow-Down-367"
         class="st0"
         points="4,28 20,28 20,4 40,4 40,0 44,0 44,28 60,28 32,56 "
         transform="matrix(-0.06604269,0,0,-0.06604269,5.0208947,296.20623)"
         style="fill:#cdd8e5;fill-opacity:0.403922" />
      <path
         id="ArrowDown-s-5"
         class="st1"
         d="m 2.1150163,294.35208 v 1.58503 H 2.379187 v -1.58503 z m 1.8491955,-1.54539 -0.6802399,-0.68024 c -0.2047322,-0.20474 -0.5415501,-0.20474 -0.7462824,0 l -0.6868439,0.68684 0.1849195,0.18492 0.686844,-0.68024 c 0.1056683,-0.10567 0.270775,-0.10567 0.3764433,0 l 0.6802398,0.68024 z"
         style="clip-rule:evenodd;fill:#eff0f1;fill-opacity:1;fill-rule:evenodd;stroke-width:0.0660427" />
    </g>
    <g
       id="22-22-update-high">
      <rect
         style="opacity:0.003;fill:#000000;fill-opacity:1;stroke:none;stroke-width:0.10795;stroke-miterlimit:4;stroke-dasharray:none;stroke-opacity:1"
         id="rect1396-3"
         width="5.8208332"
         height="5.8208332"
         x="5.8208332"
         y="291.17914"
         ry="1.2988288e-06" />
      <polygon
         id="Arrow-Down-36-3"
         class="st0"
         points="40,0 44,0 44,28 60,28 32,56 4,28 20,28 20,4 40,4 "
         transform="matrix(-0.06604261,0,0,-0.06604261,10.841723,296.20623)"
         style="fill:#bf616a;fill-opacity:1" />
      <path
         id="ArrowDown-s-7-5"
         class="st1"
         d="m 7.9358501,294.35208 v 1.58503 h 0.2641698 v -1.58503 z m 1.8491937,-1.54539 -0.6802394,-0.68024 c -0.2047319,-0.20474 -0.5415499,-0.20474 -0.7462818,0 l -0.6868431,0.68684 0.1849193,0.18492 0.686843,-0.68024 c 0.1056686,-0.10566 0.2707747,-0.10566 0.3764427,0 l 0.680239,0.68024 z"
         style="clip-rule:evenodd;fill:#eff0f1;fill-opacity:1;fill-rule:evenodd;stroke-width:0.0660426" />
    </g>
    <g
       id="22-22-update-medium">
      <rect
         style="opacity:0.003;fill:#000000;fill-opacity:1;stroke:none;stroke-width:0.10795;stroke-miterlimit:4;stroke-dasharray:none;stroke-opacity:1"
         id="rect1396-3-1"
         width="5.8208332"
         height="5.8208332"
         x="11.641666"
         y="291.17914"
         ry="1.2988288e-06" />
      <polygon
         id="Arrow-Down-6-6"
         class="st0"
         points="40,4 40,0 44,0 44,28 60,28 32,56 4,28 20,28 20,4 "
         transform="matrix(-0.06604269,0,0,-0.06604269,16.662561,296.20623)"
         style="fill:#d08770;fill-opacity:1" />
      <path
         id="ArrowDown-s-75-2"
         class="st1"
         d="m 13.756683,294.35208 v 1.58503 h 0.264171 v -1.58503 z m 1.849195,-1.54539 -0.68024,-0.68024 c -0.204732,-0.20474 -0.54155,-0.20474 -0.746282,0 l -0.686844,0.68684 0.184919,0.18492 0.686844,-0.68024 c 0.105668,-0.10567 0.270775,-0.10567 0.376444,0 l 0.68024,0.68024 z"
         style="clip-rule:evenodd;fill:#eff0f1;fill-opacity:1;fill-rule:evenodd;stroke-width:0.0660427" />
    </g>
    <g
       id="update-low">
      <rect
         style="opacity:0.003;fill:#000000;fill-opacity:1;stroke:none;stroke-width:0.157018;stroke-miterlimit:4;stroke-dasharray:none;stroke-opacity:1"
         id="rect1396-6-9-1"
         width="8.4666672"
         height="8.46667"
         x="25.4"
         y="296.99997"
         ry="1.8892064e-06" />
      <polygon
         id="Arrow-Down-6-2"
         class="st0"
         points="20,4 40,4 40,0 44,0 44,28 60,28 32,56 4,28 20,28 "
         transform="matrix(-0.09906396,0,0,-0.09906396,32.799046,304.4083)"
         style="fill:#3daee9;fill-opacity:0.74902" />
      <path
         id="ArrowDown-s-75-26"
         class="st1"
         d="m 28.440232,301.62708 v 2.37754 h 0.396256 v -2.37754 z m 2.773791,-2.31809 -1.020359,-1.02036 c -0.307098,-0.3071 -0.812325,-0.3071 -1.119423,0 l -1.030265,1.03026 0.277379,0.27738 1.030265,-1.02036 c 0.158502,-0.1585 0.406162,-0.1585 0.564665,0 l 1.020359,1.02036 z"
         style="clip-rule:evenodd;fill:#eff0f1;fill-opacity:1;fill-rule:evenodd;stroke-width:0.099064" />
    </g>
  </g>
</svg>
