<?xml version="1.0" encoding="UTF-8" standalone="no"?>
<svg
   width="32"
   height="32"
   version="1.1"
   id="svg12"
   sodipodi:docname="utilities.svg"
   inkscape:version="1.2.2 (b0a8486541, 2022-12-01)"
   xmlns:inkscape="http://www.inkscape.org/namespaces/inkscape"
   xmlns:sodipodi="http://sodipodi.sourceforge.net/DTD/sodipodi-0.dtd"
   xmlns="http://www.w3.org/2000/svg"
   xmlns:svg="http://www.w3.org/2000/svg"
   xmlns:rdf="http://www.w3.org/1999/02/22-rdf-syntax-ns#"
   xmlns:cc="http://creativecommons.org/ns#"
   xmlns:dc="http://purl.org/dc/elements/1.1/">
  <style
     id="current-color-scheme"
     type="text/css">.ColorScheme-Text { color:#eff0f1; }
.ColorScheme-Highlights { color:#cdd8e5; }
</style>
  <metadata
     id="metadata18">
    <rdf:RDF>
      <cc:Work
         rdf:about="">
        <dc:format>image/svg+xml</dc:format>
        <dc:type
           rdf:resource="http://purl.org/dc/dcmitype/StillImage" />
      </cc:Work>
    </rdf:RDF>
  </metadata>
  <defs
     id="defs16">
    <linearGradient
       x1="895.72339"
       x2="895.72339"
       y1="-131.54958"
       y2="-118.90034"
       gradientTransform="matrix(1.2648997,0,0,0.79057653,-1125.0002,116.5)"
       gradientUnits="userSpaceOnUse"
       id="linearGradient5">
      <stop
         offset="0%"
         style="stop-color:#303b3d; stop-opacity:1"
         id="stop18" />
      <stop
         offset="100%"
         style="stop-color:#bc985d; stop-opacity:1"
         id="stop20" />
    </linearGradient>
  </defs>
  <sodipodi:namedview
     pagecolor="#b2b2b2"
     bordercolor="#000000"
     borderopacity="1"
     objecttolerance="10"
     gridtolerance="10"
     guidetolerance="10"
     inkscape:pageopacity="0"
     inkscape:pageshadow="2"
     inkscape:window-width="1920"
     inkscape:window-height="1000"
     id="namedview14"
     showgrid="false"
     inkscape:zoom="9.8125"
     inkscape:cx="10.547771"
     inkscape:cy="29.299363"
     inkscape:window-x="0"
     inkscape:window-y="0"
     inkscape:window-maximized="1"
     inkscape:current-layer="svg12"
     inkscape:document-rotation="0"
     inkscape:lockguides="true"
     inkscape:showpageshadow="false"
     inkscape:pagecheckerboard="0"
     inkscape:deskcolor="#b2b2b2">
    <inkscape:grid
       type="xygrid"
       id="grid868"
       originx="0"
       originy="0" />
  </sodipodi:namedview>
  <g
     id="utilities-terminal">
    <rect
       style="opacity:0.00100002"
       width="32"
       height="32"
       x="0"
       y="0"
       id="rect7" />
    <path
       id="Computer"
       class="st0  ColorScheme-Highlights"
       d="M 27.812504,6 H 29.5 v 15.00019 c 0,1.833361 -1.51875,3.33338 -3.374991,3.33338 H 2.5 V 21.00019 H 27.812504 Z M 16.000007,26.000254 Z"
       style="stroke-width:0.419262;fill-opacity:0.40392157;fill:#cdd8e5"
       sodipodi:nodetypes="ccssccccccccc" />
    <path
       id="Computer-s"
       class="st1  ColorScheme-Text"
       d="M 4.1874998,21.00019 H 2.5 V 9.33338 C 2.5,7.500019 4.0187502,6 5.8750011,6 H 29.5 V 7.6666873 H 5.8750011 c -0.9281262,0 -1.6875013,0.7500095 -1.6875013,1.6666927 z m 23.6250042,0 c 0,1.833361 -1.51875,3.33338 -3.375004,3.33338 h -8.437493 v 1.666684 h 1.687495 v 0 0 0 0 H 24.4375 c 2.784377,0 5.0625,-2.25003 5.0625,-5.000064 z"
       style="stroke-width:0.419262;fill-opacity:1;fill:currentColor;"
       sodipodi:nodetypes="ccssccssccscccccccscc" />
    <path
       d="m 9.6302359,19.235907 c -0.126109,0.130124 -0.3306197,0.130124 -0.4568381,0 L 8.7165567,18.764475 c -0.1260047,-0.130138 -0.1260047,-0.341294 0,-0.471445 L 12.55373,14.333295 8.7165567,10.373842 c -0.1260047,-0.130143 -0.1260047,-0.341283 0,-0.47143 l 0.4568411,-0.47143 c 0.1262091,-0.13014 0.330715,-0.13014 0.4568381,0 l 4.5221581,4.666888 c 0.126215,0.130125 0.126215,0.341173 0,0.471426 z"
       fill-rule="evenodd"
       id="path664"
       style="stroke-width:0.0281265;fill-opacity:0.40392157;fill:#cdd8e5"
       class="ColorScheme-Highlights" />
    <path
       d="m 16,18 h 9.000001 v 1.222375 H 16 Z"
       fill-rule="evenodd"
       id="path886"
       style="stroke-width:0.0110272;fill-opacity:0.40000001;fill:#cdd8e5"
       class="ColorScheme-Highlights" />
  </g>
  <g
     id="22-22-utilities-terminal"
     transform="translate(32,10)">
    <rect
       style="opacity:0.00100002"
       width="22"
       height="22"
       x="0"
       y="0"
       id="rect2" />
    <path
       id="Computer-3"
       class="st0  ColorScheme-Highlights"
       d="M 19.312505,4 H 20.5 v 10.5 c 0,1.283339 -1.06875,2.333339 -2.374989,2.333339 H 1.5 V 14.5 h 17.812505 z m -8.312496,14 z"
       style="stroke-width:0.294254;fill-opacity:0.40392157;fill:#cdd8e5"
       sodipodi:nodetypes="ccssccccccccc" />
    <path
       id="Computer-s-6"
       class="st1  ColorScheme-Text"
       d="M 2.6874998,14.5 H 1.5 V 6.3333339 C 1.5,5.05 2.5687503,4 3.8750013,4 H 20.5 V 5.1666661 H 3.8750013 c -0.6531264,0 -1.1875015,0.525 -1.1875015,1.1666678 z m 16.6250052,0 c 0,1.283339 -1.06875,2.333339 -2.375006,2.333339 h -5.93749 V 18 h 1.187494 v 0 0 0 0 h 4.749996 C 18.896873,18 20.5,16.425 20.5,14.5 Z"
       style="stroke-width:0.294254;fill-opacity:1;fill:currentColor;"
       sodipodi:nodetypes="ccssccssccscccccccscc" />
    <path
       d="m 6.6302582,12.931684 c -0.088736,0.09108 -0.2326571,0.09108 -0.3214791,0 L 5.987298,12.601668 c -0.088677,-0.09108 -0.088677,-0.238889 0,-0.329992 L 8.68753,9.4999006 5.987298,6.7283192 c -0.088677,-0.091099 -0.088677,-0.2389 0,-0.329999 l 0.3214811,-0.329996 c 0.088787,-0.091099 0.2327247,-0.091099 0.3214791,0 L 9.812497,9.3351044 c 0.08876,0.09108 0.08876,0.2388211 0,0.3299939 z"
       fill-rule="evenodd"
       id="path664-3"
       style="stroke-width:0.019741;fill-opacity:0.40392157;fill:#cdd8e5"
       class="ColorScheme-Highlights" />
    <path
       d="m 11,12 h 6.963 v 1 H 11 Z"
       fill-rule="evenodd"
       id="path886-6"
       style="stroke-width:0.00877288;fill-opacity:0.40000001;fill:#cdd8e5"
       class="ColorScheme-Highlights" />
  </g>
</svg>
