<?xml version="1.0" encoding="UTF-8" standalone="no"?>
<svg
   width="32"
   height="32"
   version="1.1"
   id="svg20"
   sodipodi:docname="veracrypt.svg"
   inkscape:version="1.2.2 (b0a8486541, 2022-12-01)"
   xmlns:inkscape="http://www.inkscape.org/namespaces/inkscape"
   xmlns:sodipodi="http://sodipodi.sourceforge.net/DTD/sodipodi-0.dtd"
   xmlns="http://www.w3.org/2000/svg"
   xmlns:svg="http://www.w3.org/2000/svg">
  <defs
     id="defs24" />
  <sodipodi:namedview
     id="namedview22"
     pagecolor="#3a3f47"
     bordercolor="#000000"
     borderopacity="1"
     inkscape:showpageshadow="2"
     inkscape:pageopacity="1"
     inkscape:pagecheckerboard="0"
     inkscape:deskcolor="#3a3f47"
     showgrid="false"
     inkscape:lockguides="false"
     inkscape:zoom="8"
     inkscape:cx="22.125"
     inkscape:cy="20.1875"
     inkscape:window-width="1920"
     inkscape:window-height="996"
     inkscape:window-x="0"
     inkscape:window-y="0"
     inkscape:window-maximized="1"
     inkscape:current-layer="svg20">
    <inkscape:grid
       type="xygrid"
       id="grid794"
       originx="0"
       originy="0" />
  </sodipodi:namedview>
  <g
     id="veracrypt">
    <rect
       style="opacity:0.00100002"
       width="32"
       height="32"
       x="0"
       y="0"
       id="rect11" />
    <path
       id="Page_1_"
       class="st0  ColorScheme-Highlight "
       d="m 21.249998,8.5 v 0 l -1.5,-1.5 V 7 H 9.25 v 19.5 h 12.749998 c 2.0625,0 3.75,-1.6875 3.75,-3.75 V 13 Z m -8.999999,2.25 z m 0,3.75 z m 0,7.5 z m 0,-3.75 z"
       sodipodi:nodetypes="ccccccsscccccccccccccccccccccc"
       style="color:#cdd8e5;fill:#cdd8e5;fill-opacity:0.403922;stroke-width:0.375" />
    <path
       id="Page-s"
       class="st1  ColorScheme-Text "
       d="m 24.249999,13 h 1.499999 v 10.5 c 0,2.475 -2.024999,4.5 -4.5,4.5 H 10.749999 v -1.5 h 10.499999 c 1.65,0 3,-1.350001 3,-3 v -9 h 10e-7 z M 6.25,7 c 0,-1.65 1.35,-3 3,-3 h 7.499998 V 5.5 H 9.25 C 8.425,5.5 7.75,6.175 7.75,7 v 12.75 h -1.5 z"
       style="color:#eff0f1;fill:currentColor;fill-opacity:1;stroke-width:0.375"
       sodipodi:nodetypes="ccssccsscccssccssccs" />
    <path
       class="st0"
       d="M 11.083523,14.004695 10,11.003756 h 2.167052 z"
       id="path362-36"
       style="fill:#d1d5e9;fill-opacity:0.5;stroke-width:0.0297121" />
    <path
       class="st1"
       d="m 11.083523,14.000939 1.083529,-2.997183 1.08353,3.000939 z"
       id="path364-7"
       style="fill:#d1d5e9;fill-opacity:0.5;stroke-width:0.0297121" />
    <path
       class="st2"
       d="m 12.167052,17.001878 -1.083529,-2.997183 h 2.167059 z"
       id="path366-5"
       style="fill:#d1d5e9;fill-opacity:0.5;stroke-width:0.0297121" />
    <path
       class="st3"
       d="m 12.167052,17.001878 1.08353,-2.997183 1.08354,2.997183 z"
       id="path368-3"
       style="fill:#d1d5e9;fill-opacity:0.5;stroke-width:0.0297121" />
    <path
       class="st4"
       d="m 13.250582,20.002818 -1.08353,-2.997184 h 2.167071 z"
       id="path370-5"
       style="fill:#d1d5e9;fill-opacity:0.5;stroke-width:0.0297121" />
    <path
       class="st5"
       d="m 13.250582,20.002818 1.083541,-2.997184 1.083527,2.997184 z"
       id="path372-6"
       style="fill:#d1d5e9;fill-opacity:0.5;stroke-width:0.0297121" />
    <path
       class="st6"
       d="M 14.334123,23 13.250582,20.002818 H 15.41765 Z"
       id="path374-2"
       style="fill:#d1d5e9;fill-opacity:0.5;stroke-width:0.0297121" />
    <path
       class="st7"
       d="M 14.334123,23 15.41765,20.002818 16.501176,23 Z"
       id="path376-9"
       style="fill:#d1d5e9;fill-opacity:0.5;stroke-width:0.0297121" />
    <path
       class="st8"
       d="M 16.501176,23 15.41765,20.002818 h 2.167047 z"
       id="path378-1"
       style="fill:#d1d5e9;fill-opacity:1;stroke-width:0.0297121" />
    <path
       class="st9"
       d="m 15.41765,20.002818 1.083526,-2.997184 1.083521,2.997184 z"
       id="path380-2"
       style="fill:#d1d5e9;fill-opacity:1;stroke-width:0.0297121" />
    <path
       class="st10"
       d="M 17.584698,20.002818 16.501176,17.005634 H 18.66823 Z"
       id="path382-7"
       style="fill:#d1d5e9;fill-opacity:1;stroke-width:0.0297121" />
    <path
       class="st11"
       d="m 16.501176,17.001878 1.083521,-3.000939 1.083533,3.000939 z"
       id="path384-0"
       style="fill:#d1d5e9;fill-opacity:1;stroke-width:0.0297121" />
    <path
       class="st12"
       d="m 18.66823,17.001878 -1.083532,-2.997183 h 2.167054 z"
       id="path386-9"
       style="fill:#d1d5e9;fill-opacity:1;stroke-width:0.0297121" />
    <path
       class="st13"
       d="m 17.584698,14.000939 1.083532,-2.997183 1.083522,3.000939 z"
       id="path388-3"
       style="fill:#d1d5e9;fill-opacity:1;stroke-width:0.0297121" />
    <path
       class="st14"
       d="M 17.589413,19.999061 16.505888,17.001878 H 18.67293 Z"
       id="path390-6"
       style="fill:#d1d5e9;fill-opacity:1;stroke-width:0.0297121" />
    <path
       class="st15"
       d="m 16.505888,16.998122 1.083525,-2.997183 1.083517,2.997183 z"
       id="path392-0"
       style="fill:#d1d5e9;fill-opacity:1;stroke-width:0.0297121" />
    <path
       class="st16"
       d="m 18.67293,16.998122 -1.083517,-2.997183 h 2.16705 z"
       id="path394-6"
       style="fill:#d1d5e9;fill-opacity:1;stroke-width:0.0297121" />
    <path
       class="st17"
       d="M 17.589413,13.997183 18.67293,11 l 1.083533,2.997183 z"
       id="path396-2"
       style="fill:#d1d5e9;fill-opacity:1;stroke-width:0.0297121" />
    <path
       class="st18"
       d="M 19.756463,14.000939 18.67293,11 h 2.16705 z"
       id="path398-6"
       style="fill:#d1d5e9;fill-opacity:1;stroke-width:0.0297121" />
    <path
       class="st19"
       d="m 19.749412,14.000939 1.083536,-2.997183 1.083529,3.000939 z"
       id="path400-1"
       style="fill:#d1d5e9;fill-opacity:1;stroke-width:0.0297121" />
    <path
       class="st20"
       d="M 21.916478,14.000939 20.832949,11 H 23 Z"
       id="path402-8"
       style="fill:#d1d5e9;fill-opacity:1;stroke-width:0.0297121" />
    <path
       class="st21"
       d="m 17.584698,19.987794 1.092943,-2.989672 1.074111,3.008451 z"
       id="path404-7"
       style="fill:#d1d5e9;fill-opacity:1;stroke-width:0.0297121" />
    <path
       class="st22"
       d="m 18.665877,22.996243 1.083535,-2.997182 1.083537,2.997182 z"
       id="path406-9"
       style="fill:#d1d5e9;fill-opacity:1;stroke-width:0.0297121" />
    <path
       class="st23"
       d="m 20.832948,22.996243 -1.083536,-2.997182 h 2.167066 z"
       id="path408-2"
       style="fill:#d1d5e9;fill-opacity:1;stroke-width:0.0297121" />
    <path
       class="st24"
       d="M 20.832948,22.996243 21.916477,19.999061 23,22.996243 Z"
       id="path410-0"
       style="fill:#d1d5e9;fill-opacity:1;stroke-width:0.0297121" />
    <path
       class="st25"
       d="m 18.665877,22.996243 -1.083526,-2.997182 h 2.167061 z"
       id="path412-2"
       style="fill:#d1d5e9;fill-opacity:1;stroke-width:0.0297121" />
  </g>
  <g
     id="22-22-veracrypt"
     transform="translate(32,10)">
    <rect
       style="opacity:0.00100002"
       width="22"
       height="22"
       x="0"
       y="0"
       id="rect2" />
    <path
       id="Page_1_-36"
       class="st0  ColorScheme-Highlight "
       d="m 14.499999,6 v 0 l -1,-1 V 5 H 6.5 v 13 h 8.499999 c 1.375,0 2.5,-1.125 2.5,-2.5 V 9 Z m -6,1.5 z m 0,2.5 z m 0,5 z m 0,-2.5 z"
       sodipodi:nodetypes="ccccccsscccccccccccccccccccccc"
       style="color:#cdd8e5;fill:#cdd8e5;fill-opacity:0.403922;stroke-width:0.25" />
    <path
       id="Page-s-7"
       class="st1  ColorScheme-Text "
       d="m 16.499999,9 h 1 v 7 c 0,1.65 -1.35,3 -3,3 h -7 v -1 h 7 c 1.1,0 2,-0.900001 2,-2 v -6 0 z M 4.5,5 c 0,-1.1 0.9,-2 2,-2 h 4.999999 V 4 H 6.5 c -0.55,0 -1,0.45 -1,1 v 8.5 h -1 z"
       style="color:#eff0f1;fill:currentColor;fill-opacity:1;stroke-width:0.25"
       sodipodi:nodetypes="ccssccsscccssccssccs" />
    <path
       class="st0"
       d="M 7.7501326,9.80313 7,7.802504 h 1.5002683 z"
       id="path362-3"
       style="fill:#d1d5e9;fill-opacity:0.5;stroke-width:0.0201854" />
    <path
       class="st1"
       d="M 7.7501326,9.800626 8.5002683,7.802504 9.2504031,9.80313 Z"
       id="path364-75"
       style="fill:#d1d5e9;fill-opacity:0.5;stroke-width:0.0201854" />
    <path
       class="st2"
       d="M 8.5002683,11.801252 7.7501326,9.80313 h 1.5002705 z"
       id="path366-9"
       style="fill:#d1d5e9;fill-opacity:0.5;stroke-width:0.0201854" />
    <path
       class="st3"
       d="M 8.5002683,11.801252 9.2504031,9.80313 10.000543,11.801252 Z"
       id="path368-2"
       style="fill:#d1d5e9;fill-opacity:0.5;stroke-width:0.0201854" />
    <path
       class="st4"
       d="M 9.2504031,13.801878 8.5002683,11.803756 h 1.5002757 z"
       id="path370-2"
       style="fill:#d1d5e9;fill-opacity:0.5;stroke-width:0.0201854" />
    <path
       class="st5"
       d="m 9.2504031,13.801878 0.7501409,-1.998122 0.750136,1.998122 z"
       id="path372-8"
       style="fill:#d1d5e9;fill-opacity:0.5;stroke-width:0.0201854" />
    <path
       class="st6"
       d="M 10.000544,15.8 9.2504031,13.801878 H 10.75068 Z"
       id="path374-9"
       style="fill:#d1d5e9;fill-opacity:0.5;stroke-width:0.0201854" />
    <path
       class="st7"
       d="M 10.000544,15.8 10.75068,13.801878 11.500814,15.8 Z"
       id="path376-7"
       style="fill:#d1d5e9;fill-opacity:0.5;stroke-width:0.0201854" />
    <path
       class="st8"
       d="M 11.500814,15.8 10.75068,13.801878 h 1.500265 z"
       id="path378-3"
       style="fill:#d1d5e9;fill-opacity:1;stroke-width:0.0201854" />
    <path
       class="st9"
       d="m 10.75068,13.801878 0.750134,-1.998122 0.750131,1.998122 z"
       id="path380-6"
       style="fill:#d1d5e9;fill-opacity:1;stroke-width:0.0201854" />
    <path
       class="st10"
       d="m 12.250946,13.801878 -0.750132,-1.998122 h 1.500269 z"
       id="path382-1"
       style="fill:#d1d5e9;fill-opacity:1;stroke-width:0.0201854" />
    <path
       class="st11"
       d="m 11.500814,11.801252 0.750131,-2.000626 0.750138,2.000626 z"
       id="path384-2"
       style="fill:#d1d5e9;fill-opacity:1;stroke-width:0.0201854" />
    <path
       class="st12"
       d="M 13.001083,11.801252 12.250946,9.80313 h 1.50027 z"
       id="path386-93"
       style="fill:#d1d5e9;fill-opacity:1;stroke-width:0.0201854" />
    <path
       class="st13"
       d="M 12.250946,9.800626 13.001083,7.802504 13.751216,9.80313 Z"
       id="path388-1"
       style="fill:#d1d5e9;fill-opacity:1;stroke-width:0.0201854" />
    <path
       class="st14"
       d="m 12.254209,13.799374 -0.750134,-1.998122 h 1.500262 z"
       id="path390-9"
       style="fill:#d1d5e9;fill-opacity:1;stroke-width:0.0201854" />
    <path
       class="st15"
       d="m 11.504075,11.798748 0.750134,-1.998122 0.750128,1.998122 z"
       id="path392-4"
       style="fill:#d1d5e9;fill-opacity:1;stroke-width:0.0201854" />
    <path
       class="st16"
       d="M 13.004337,11.798748 12.254209,9.800626 h 1.500266 z"
       id="path394-7"
       style="fill:#d1d5e9;fill-opacity:1;stroke-width:0.0201854" />
    <path
       class="st17"
       d="M 12.254209,9.798122 13.004337,7.8 13.754475,9.798122 Z"
       id="path396-8"
       style="fill:#d1d5e9;fill-opacity:1;stroke-width:0.0201854" />
    <path
       class="st18"
       d="M 13.754475,9.800626 13.004337,7.8 h 1.500267 z"
       id="path398-4"
       style="fill:#d1d5e9;fill-opacity:1;stroke-width:0.0201854" />
    <path
       class="st19"
       d="M 13.749594,9.800626 14.499731,7.802504 15.249866,9.80313 Z"
       id="path400-5"
       style="fill:#d1d5e9;fill-opacity:1;stroke-width:0.0201854" />
    <path
       class="st20"
       d="M 15.249867,9.800626 14.499732,7.8 H 16 Z"
       id="path402-0"
       style="fill:#d1d5e9;fill-opacity:1;stroke-width:0.0201854" />
    <path
       class="st21"
       d="m 12.250946,13.791862 0.756651,-1.993114 0.743619,2.005633 z"
       id="path404-3"
       style="fill:#d1d5e9;fill-opacity:1;stroke-width:0.0201854" />
    <path
       class="st22"
       d="m 12.999455,15.797495 0.750139,-1.998121 0.750138,1.998121 z"
       id="path406-6"
       style="fill:#d1d5e9;fill-opacity:1;stroke-width:0.0201854" />
    <path
       class="st23"
       d="m 14.499731,15.797495 -0.750137,-1.998121 h 1.500273 z"
       id="path408-1"
       style="fill:#d1d5e9;fill-opacity:1;stroke-width:0.0201854" />
    <path
       class="st24"
       d="M 14.499731,15.797495 15.249866,13.799374 16,15.797495 Z"
       id="path410-06"
       style="fill:#d1d5e9;fill-opacity:1;stroke-width:0.0201854" />
    <path
       class="st25"
       d="m 12.999455,15.797495 -0.750134,-1.998121 h 1.500273 z"
       id="path412-3"
       style="fill:#d1d5e9;fill-opacity:1;stroke-width:0.0201854" />
  </g>
</svg>
