<?xml version="1.0" encoding="UTF-8" standalone="no"?>
<svg
   width="32"
   height="32"
   version="1.1"
   id="svg12"
   sodipodi:docname="video.svg"
   inkscape:version="1.1.2 (0a00cf5339, 2022-02-04)"
   xmlns:inkscape="http://www.inkscape.org/namespaces/inkscape"
   xmlns:sodipodi="http://sodipodi.sourceforge.net/DTD/sodipodi-0.dtd"
   xmlns="http://www.w3.org/2000/svg"
   xmlns:svg="http://www.w3.org/2000/svg"
   xmlns:rdf="http://www.w3.org/1999/02/22-rdf-syntax-ns#"
   xmlns:cc="http://creativecommons.org/ns#"
   xmlns:dc="http://purl.org/dc/elements/1.1/">
  <g
     id="22-22-video-display-brightness"
     transform="translate(32,10.000003)">
    <rect
       style="opacity:0.00100002"
       width="22"
       height="22"
       x="0"
       y="-1.3897704e-07"
       id="rect2" />
    <path
       d="m 13.042832,8.9925565 c -0.129341,-0.176914 -0.129341,-0.417186 0,-0.594099 L 13.491188,7.78865 C 13.750417,7.4354897 13.465957,6.9426978 13.030493,6.9905385 l -0.751037,0.08189 c -0.219218,0.024235 -0.428678,-0.097079 -0.516742,-0.29929 L 11.457821,6.0815163 c -0.176325,-0.4008936 -0.745098,-0.4008936 -0.921422,0 L 10.231506,6.7731382 C 10.142962,6.973621 9.9348664,7.09376 9.7169734,7.0701902 l -0.7510288,-0.0819 C 8.5304738,6.9404396 8.246012,7.4332385 8.5052433,7.7864007 L 8.95363,8.3962024 c 0.129342,0.1769119 0.129342,0.417183 0,0.5940949 L 8.5052433,9.6000901 C 8.246011,9.9532524 8.5304728,10.44605 8.9659446,10.398201 l 0.7510288,-0.08179 c 0.217894,-0.02358 0.4259926,0.09657 0.5145326,0.297055 l 0.304893,0.691622 c 0.176324,0.400894 0.745097,0.400894 0.921422,0 l 0.304893,-0.691622 c 0.08854,-0.200473 0.296617,-0.320611 0.514499,-0.297055 l 0.751036,0.08179 c 0.435469,0.04785 0.719923,-0.4449506 0.460695,-0.7981109 z M 12.047415,6.458091 Z M 8.5455878,8.8714912 Z M 13.454767,8.5307134 Z M 9.6194583,6.6531478 Z M 9.9299531,10.91049 Z m 2.5165289,-0.227553 z"
       id="path4-3"
       style="fill:#eff0f1;fill-opacity:1;stroke-width:0.112096"
       sodipodi:nodetypes="ccccccccccccccccccccccccccccccccccccccccccccccccccccccc" />
    <path
       id="Computer-6"
       class="st0"
       d="M 18.875,3.1 H 20 v 10.125 c 0,1.2375 -1.0125,2.250001 -2.25,2.250001 H 2 V 13.225 h 16.875 z m -3.9375,15.75 -2.25,-1.125 H 7.6250004 v 1.125 z"
       style="fill:#cdd8e5;fill-opacity:0.403922;stroke-width:0.28125" />
    <path
       id="Computer-s-7"
       class="st1"
       d="M 3.1249999,13.225 H 2 V 5.3499998 C 2,4.1124996 3.0124996,3.1 4.2499998,3.1 H 20 V 4.2249999 H 4.2499998 c -0.6187497,0 -1.1249999,0.5062502 -1.1249999,1.1249999 z m 15.7500001,0 c 0,1.2375 -1.0125,2.250001 -2.25,2.250001 H 11 V 16.6 c 0,1.2375 1.0125,2.25 2.25,2.25 h 1.6875 V 17.725 H 13.25 c -0.618751,0 -1.125,-0.506249 -1.125,-1.125 h 4.5 C 18.481249,16.6 20,15.081249 20,13.225 Z"
       style="fill:#eff0f1;fill-opacity:1;stroke-width:0.28125" />
  </g>
  <metadata
     id="metadata18">
    <rdf:RDF>
      <cc:Work
         rdf:about="">
        <dc:format>image/svg+xml</dc:format>
        <dc:type
           rdf:resource="http://purl.org/dc/dcmitype/StillImage" />
      </cc:Work>
    </rdf:RDF>
  </metadata>
  <defs
     id="defs16" />
  <sodipodi:namedview
     pagecolor="#b2b2b2"
     bordercolor="#000000"
     borderopacity="1"
     objecttolerance="10"
     gridtolerance="10"
     guidetolerance="10"
     inkscape:pageopacity="0"
     inkscape:pageshadow="2"
     inkscape:window-width="1920"
     inkscape:window-height="1009"
     id="namedview14"
     showgrid="false"
     inkscape:zoom="9.8125003"
     inkscape:cx="24.10191"
     inkscape:cy="20.585987"
     inkscape:window-x="0"
     inkscape:window-y="0"
     inkscape:window-maximized="1"
     inkscape:current-layer="svg12"
     inkscape:document-rotation="0"
     inkscape:lockguides="true"
     inkscape:showpageshadow="false"
     inkscape:pagecheckerboard="0">
    <inkscape:grid
       type="xygrid"
       id="grid988"
       originx="0"
       originy="-1.3897704e-07" />
  </sodipodi:namedview>
  <g
     id="video-display-brightness">
    <rect
       style="opacity:0.00100002"
       width="32"
       height="32"
       x="0"
       y="1.3897704e-07"
       id="rect7" />
    <path
       d="m 19.127173,12.979133 c -0.197095,-0.269582 -0.197095,-0.635712 0,-0.905293 l 0.683208,-0.929231 C 20.205396,10.606461 19.771941,9.8555391 19.10837,9.9284391 L 17.963933,10.053219 C 17.629886,10.090147 17.31071,9.9052851 17.176515,9.5971573 L 16.711916,8.5432572 c -0.268684,-0.6108854 -1.135386,-0.6108854 -1.40407,0 L 14.843247,9.5971573 C 14.708326,9.9026548 14.391225,10.085724 14.059198,10.049807 L 12.914773,9.9250115 c -0.663575,-0.072911 -1.097041,0.6780175 -0.702022,1.2161695 l 0.683256,0.929221 c 0.197093,0.26958 0.197093,0.635707 0,0.905287 l -0.683256,0.929209 c -0.39502,0.538152 0.03845,1.289081 0.702022,1.21617 l 1.144425,-0.12463 c 0.332029,-0.03592 0.64913,0.147155 0.784049,0.452655 l 0.464599,1.0539 c 0.268684,0.610886 1.135386,0.610886 1.40407,0 l 0.464599,-1.0539 c 0.134913,-0.305481 0.451988,-0.488549 0.784,-0.452655 l 1.144436,0.12463 c 0.66357,0.0729 1.097026,-0.678022 0.702011,-1.21617 z M 17.610345,9.1170907 Z m -5.336116,3.6775623 z m 7.480655,-0.519281 z M 13.910603,9.4143211 Z M 14.383738,15.9017 Z m 3.834711,-0.346749 z"
       id="path4"
       style="fill:#eff0f1;fill-opacity:1;stroke-width:0.170814"
       sodipodi:nodetypes="ccccccccccccccccccccccccccccccccccccccccccccccccccccccc" />
    <path
       id="Computer"
       class="st0"
       d="m 28.014286,4 h 1.714285 v 15.428571 c 0,1.885715 -1.542857,3.428572 -3.428571,3.428572 h -24 v -3.428572 h 25.714286 z m -6,24 -3.428572,-1.714286 H 10.871429 V 28 Z"
       style="fill:#cdd8e5;fill-opacity:0.403922;stroke-width:0.428571" />
    <path
       id="Computer-s"
       class="st1"
       d="M 4.014286,19.428571 H 2.3 v -12 C 2.3,5.542857 3.842857,4 5.728571,4 h 24 v 1.714286 h -24 c -0.942857,0 -1.714285,0.771428 -1.714285,1.714285 z m 24,0 c 0,1.885715 -1.542857,3.428572 -3.428572,3.428572 h -8.571428 v 1.714286 C 16.014286,26.457143 17.557143,28 19.442857,28 h 2.571429 v -1.714286 h -2.571429 c -0.942857,0 -1.714286,-0.771428 -1.714286,-1.714285 h 6.857143 c 2.828572,0 5.142857,-2.314286 5.142857,-5.142858 z"
       style="fill:#eff0f1;fill-opacity:1;stroke-width:0.428571" />
  </g>
</svg>
