<?xml version="1.0" encoding="UTF-8" standalone="no"?>
<svg
   width="32"
   height="32"
   version="1.1"
   id="svg12"
   sodipodi:docname="vlc.svg"
   inkscape:version="1.2.2 (b0a8486541, 2022-12-01)"
   xmlns:inkscape="http://www.inkscape.org/namespaces/inkscape"
   xmlns:sodipodi="http://sodipodi.sourceforge.net/DTD/sodipodi-0.dtd"
   xmlns="http://www.w3.org/2000/svg"
   xmlns:svg="http://www.w3.org/2000/svg"
   xmlns:rdf="http://www.w3.org/1999/02/22-rdf-syntax-ns#"
   xmlns:cc="http://creativecommons.org/ns#"
   xmlns:dc="http://purl.org/dc/elements/1.1/">
  <g
     id="22-22-vlc"
     transform="translate(32,10)">
    <rect
       style="opacity:0.00100002"
       width="22"
       height="22"
       x="0"
       y="0"
       id="rect2" />
    <path
       id="Wifi-5-3"
       class="st0"
       d="m 5.882583,12.231363 c 1.559695,2.058381 3.646195,3.256002 5.935741,3.165653 2.289556,-0.09035 4.352911,-1.451728 5.798266,-3.628689 L 19.5,14.253916 c -0.973376,1.438364 -2.152759,2.604865 -3.453895,3.416183 -1.30113,0.811318 -2.72402,1.267454 -4.154984,1.323922 -1.430988,0.05646 -2.841424,-0.28786 -4.173297,-0.995277 C 6.385965,17.291326 5.161301,16.219691 4.13131,14.860384 Z M 6.661291,11.08068 c 0.676844,0.893253 1.493554,1.621 2.36185,2.066718 0.869105,0.485686 1.818384,0.688218 2.762847,0.650949 0.944432,-0.03726 1.855415,-0.313208 2.732096,-0.867786 0.848074,-0.55345 1.634876,-1.304472 2.274515,-2.24968 L 14.909193,8.1952806 c -0.806516,1.1918 -1.936741,1.9563654 -3.196006,2.0060644 -1.259262,0.04973 -2.4186,-0.6245344 -3.272001,-1.7508274 z M 9.21988,7.2998306 c 0.323707,0.427216 0.703046,0.772239 1.137178,0.99509 0.434158,0.222867 0.865874,0.325816 1.323793,0.307752 0.457909,-0.01809 0.884776,-0.154912 1.309218,-0.411659 0.424436,-0.256734 0.789201,-0.63111 1.095125,-1.083171 L 11.583798,3.8066616 Z M 3.323984,16.012204 9.998594,6.1491476 9.174603,5.0616906 2.5,14.924757 Z"
       style="fill:#cdd8e5;fill-opacity:0.403922;stroke-width:0.338341;enable-background:new" />
    <path
       id="Wifi-s-6-6"
       class="st1"
       d="m 19.359926,14.2083 v 0 0 0 0 0 0 0 0 0 M 14.780443,6.0804376 13.103052,3.8667066 c -0.912289,-1.203947 -2.371887,-1.146349 -3.234024,0.127616 l -1.473971,2.178093 0.824803,1.127415 1.473971,-2.178098 c 0.444977,-0.657529 1.160457,-0.685771 1.631315,-0.0644 l 1.677406,2.213737 z M 7.617177,7.3630796 5.837272,9.993225 6.661259,11.08068 8.44116,8.4505176 Z m -2.558609,3.7808414 -1.779883,2.630147 0.823993,1.087444 1.779881,-2.630149 z"
       sodipodi:nodetypes="cccccccscccssccsscccccccccccc"
       style="fill:#eff0f1;fill-opacity:1;stroke-width:0.338341" />
  </g>
  <metadata
     id="metadata18">
    <rdf:RDF>
      <cc:Work
         rdf:about="">
        <dc:format>image/svg+xml</dc:format>
        <dc:type
           rdf:resource="http://purl.org/dc/dcmitype/StillImage" />
      </cc:Work>
    </rdf:RDF>
  </metadata>
  <defs
     id="defs16">
    <linearGradient
       id="l4k1"
       x1="0"
       x2="0"
       y1="0"
       y2="1">
      <stop
         offset="0%"
         style="stop-color:#303b3d; stop-opacity:1"
         id="stop18" />
      <stop
         offset="100%"
         style="stop-color:#bc985d; stop-opacity:1"
         id="stop20" />
    </linearGradient>
  </defs>
  <sodipodi:namedview
     pagecolor="#b2b2b2"
     bordercolor="#000000"
     borderopacity="1"
     objecttolerance="10"
     gridtolerance="10"
     guidetolerance="10"
     inkscape:pageopacity="0"
     inkscape:pageshadow="2"
     inkscape:window-width="1920"
     inkscape:window-height="1000"
     id="namedview14"
     showgrid="false"
     inkscape:zoom="9.8125"
     inkscape:cx="39.898089"
     inkscape:cy="19.515924"
     inkscape:window-x="0"
     inkscape:window-y="0"
     inkscape:window-maximized="1"
     inkscape:current-layer="svg12"
     inkscape:lockguides="true"
     inkscape:document-rotation="0"
     inkscape:showpageshadow="false"
     inkscape:pagecheckerboard="0"
     inkscape:deskcolor="#b2b2b2">
    <inkscape:grid
       type="xygrid"
       id="grid868"
       originx="0"
       originy="0" />
  </sodipodi:namedview>
  <g
     id="vlc">
    <rect
       style="opacity:0.00100002"
       width="32"
       height="32"
       x="0"
       y="0"
       id="rect7" />
    <path
       id="Wifi-5"
       class="st0"
       d="m 8.1733661,17.847048 c 2.3854189,3.087569 5.5765259,4.884 9.0782039,4.748476 3.501678,-0.135522 6.657384,-2.177589 8.867924,-5.443033 L 29,20.880876 c -1.4887,2.157544 -3.29244,3.907296 -5.282418,5.124272 -1.989969,1.216978 -4.166154,1.90118 -6.354696,1.985883 -2.188567,0.0847 -4.345698,-0.431791 -6.382672,-1.492916 C 8.94324,25.43699 7.0702285,23.829537 5.4949516,21.790577 Z m 1.1909601,-1.726036 c 1.0351808,1.339889 2.2842718,2.431508 3.6122398,3.100086 1.329213,0.728531 2.781073,1.032327 4.225526,0.976424 1.444447,-0.0559 2.837695,-0.469813 4.178525,-1.301679 1.297045,-0.830172 2.500381,-1.956707 3.478655,-3.374521 l -2.880511,-3.728385 c -1.233485,1.787678 -2.962062,2.934541 -4.887993,3.009079 -1.925924,0.07454 -3.699033,-0.936802 -5.004259,-2.626226 z m 3.9131498,-5.671257 c 0.495079,0.640816 1.075238,1.158344 1.739213,1.492634 0.663991,0.33429 1.324266,0.488729 2.024606,0.461625 0.700347,-0.0271 1.353203,-0.232366 2.002336,-0.617477 0.649148,-0.385111 1.207037,-0.946683 1.674909,-1.624769 L 16.892873,5.2100059 Z M 4.2602214,23.518306 14.468428,8.7237207 13.208209,7.0925514 3,21.887136 Z"
       style="fill:#cdd8e5;fill-opacity:0.403922;stroke-width:0.512458;enable-background:new" />
    <path
       id="Wifi-s-6"
       class="st1"
       d="m 28.785779,20.812452 v 0 0 0 0 0 0 0 0 0 M 21.781871,8.6206652 19.21642,5.3000726 C 17.821179,3.4941354 15.588855,3.580531 14.270288,5.4914992 l -2.254309,3.2671374 1.261462,1.6911184 2.254308,-3.2671369 c 0.680549,-0.9863061 1.774816,-1.0286567 2.494948,-0.096564 l 2.565449,3.3205919 z M 10.826259,10.544622 8.1040695,14.489844 9.3642907,16.121012 12.086479,12.17579 Z M 6.9131122,16.21588 4.1909225,20.161102 5.4511446,21.79227 8.1733348,17.847048 Z"
       sodipodi:nodetypes="cccccccscccssccsscccccccccccc"
       style="fill:#eff0f1;fill-opacity:1;stroke-width:0.512458" />
  </g>
</svg>
