<?xml version="1.0" encoding="UTF-8" standalone="no"?>
<svg
   width="32"
   height="32"
   version="1.1"
   id="svg22"
   sodipodi:docname="wallet.svg"
   inkscape:version="1.1.2 (0a00cf5339, 2022-02-04)"
   xmlns:inkscape="http://www.inkscape.org/namespaces/inkscape"
   xmlns:sodipodi="http://sodipodi.sourceforge.net/DTD/sodipodi-0.dtd"
   xmlns="http://www.w3.org/2000/svg"
   xmlns:svg="http://www.w3.org/2000/svg"
   xmlns:rdf="http://www.w3.org/1999/02/22-rdf-syntax-ns#"
   xmlns:cc="http://creativecommons.org/ns#"
   xmlns:dc="http://purl.org/dc/elements/1.1/">
  <g
     id="22-22-wallet-closed"
     transform="translate(31.992263,-22.015259)">
    <rect
       style="opacity:0.00100002;stroke-width:0.688951"
       width="22.008957"
       height="22.083927"
       x="0"
       y="0"
       id="rect12-7-6" />
    <path
       id="Wallet-3-5"
       class="st0"
       d="M 3,6.1414716 4.3338759,7.2122075 H 19.006515 v 8.0305185 c 0,1.472266 -1.20049,2.676841 -2.667753,2.676841 H 3 Z m 4.8019546,0 z"
       style="fill:#cdd8e5;fill-opacity:0.40392157;stroke-width:0.267229"
       sodipodi:nodetypes="cccsscccccc" />
    <path
       id="Wallet-s-6-3"
       class="st1"
       d="M 17.939414,4 V 5.0707354 H 5.1342018 c -0.586905,0 -1.0671004,0.4818318 -1.0671004,1.0707361 0,0.5889049 0.4801954,1.0707353 1.0671004,1.0707353 H 4.6006515 C 3.7202931,7.2122068 3,7.0248281 3,6.1414715 3,4.9636619 3.9603909,4 5.1342018,4 Z M 4.0671014,17.919567 v 1.070734 H 15.805213 c 1.760715,0 3.201302,-1.445491 3.201302,-3.212202 V 8.2829479 h -1.067101 v 7.4951511 c 0,1.1778 -0.960392,2.141468 -2.134201,2.141468 z M 17.939414,4 v 0 1.0707354 0 z"
       style="fill:#eff0f1;fill-opacity:1;stroke-width:0.267229"
       sodipodi:nodetypes="ccsscssscccssccsscccccc" />
  </g>
  <g
     id="22-22-wallet-open"
     transform="translate(-0.022999,-21.960588)">
    <rect
       style="opacity:0.00100002;stroke-width:0.6875"
       width="22"
       height="22"
       x="4.038086e-07"
       y="-8.1054685e-10"
       id="rect12-7" />
    <path
       id="Wallet-36"
       class="st0"
       d="M 3,6.2 4.333333,7.266667 H 19 v 8 c 0,1.466666 -1.2,2.666666 -2.666667,2.666666 H 3 Z m 13.333333,0 -1.6,-3.2 L 7.8,6.2 Z"
       style="fill:#cdd8e5;fill-opacity:0.40392157;stroke-width:0.266667" />
    <path
       id="Wallet-s-7"
       class="st1"
       d="M 10.2,4.066667 7.8,5.133333 H 5.133333 c -0.586666,0 -1.066666,0.48 -1.066666,1.066667 0,0.586667 0.48,1.066667 1.066666,1.066667 H 4.6 C 3.72,7.266667 3,7.08 3,6.2 3,5.026667 3.96,4.066667 5.133333,4.066667 Z M 4.066667,17.933333 V 19 H 15.8 C 17.56,19 19,17.56 19,15.8 V 8.3333334 H 17.933333 V 15.8 c 0,1.173333 -0.96,2.133333 -2.133333,2.133333 z M 17.933333,4.066667 H 15.266667 L 15.8,5.133333 h 2.133333 z"
       style="fill:#eff0f1;fill-opacity:1;stroke-width:0.266667" />
  </g>
  <g
     id="wallet-closed"
     transform="translate(32)">
    <rect
       style="opacity:0.00100002"
       width="32"
       height="32"
       x="0"
       y="0"
       id="rect12-5" />
    <path
       id="Wallet-3"
       class="st0"
       d="m 4,8.8 1.9999998,1.6 H 28 v 12 c 0,2.200007 -1.800001,4.000002 -4.000001,4.000002 H 4 Z m 7.2,0 z"
       style="fill:#cdd8e5;fill-opacity:0.40392157;stroke-width:0.399999"
       sodipodi:nodetypes="cccsscccccc" />
    <path
       id="Wallet-s-6"
       class="st1"
       d="M 26.4,5.6 V 7.1999993 H 7.1999995 c -0.8799998,0 -1.5999993,0.7200011 -1.5999993,1.6000005 0,0.8800004 0.7199995,1.5999992 1.5999993,1.5999992 H 6.4000004 C 5.0800001,10.399999 4,10.119999 4,8.7999998 4,7.0399995 5.4399998,5.6 7.1999995,5.6 Z M 5.6000002,26.400002 V 28 H 23.2 c 2.64,0 4.8,-2.159998 4.8,-4.799993 v -11.2 h -1.6 v 11.2 c 0,1.759986 -1.44,3.199995 -3.2,3.199995 z M 26.4,5.6 v 0 1.5999993 0 z"
       style="fill:#eff0f1;fill-opacity:1;stroke-width:0.399999"
       sodipodi:nodetypes="ccsscssscccssccsscccccc" />
  </g>
  <metadata
     id="metadata28">
    <rdf:RDF>
      <cc:Work
         rdf:about="">
        <dc:format>image/svg+xml</dc:format>
        <dc:type
           rdf:resource="http://purl.org/dc/dcmitype/StillImage" />
      </cc:Work>
    </rdf:RDF>
  </metadata>
  <defs
     id="defs26" />
  <sodipodi:namedview
     pagecolor="#b2b2b2"
     bordercolor="#000000"
     borderopacity="1"
     objecttolerance="10"
     gridtolerance="10"
     guidetolerance="10"
     inkscape:pageopacity="0"
     inkscape:pageshadow="2"
     inkscape:window-width="1920"
     inkscape:window-height="1007"
     id="namedview24"
     showgrid="false"
     inkscape:zoom="5.6568545"
     inkscape:cx="33.675959"
     inkscape:cy="16.440232"
     inkscape:window-x="0"
     inkscape:window-y="0"
     inkscape:window-maximized="1"
     inkscape:current-layer="svg22"
     inkscape:document-rotation="0"
     inkscape:lockguides="false"
     inkscape:showpageshadow="false"
     inkscape:pagecheckerboard="0">
    <inkscape:grid
       type="xygrid"
       id="grid930"
       originx="-1.7244837e-09"
       originy="-1.2636292e-10" />
  </sodipodi:namedview>
  <g
     id="g871"
     transform="translate(10,-21.999999)" />
  <g
     id="wallet-open"
     transform="translate(0.032002,0.09832)">
    <rect
       style="opacity:0.00100002"
       width="32"
       height="32"
       x="-0.032001998"
       y="-0.09832"
       id="rect12-5-7" />
    <path
       id="Wallet"
       class="st0"
       d="m 3.967998,8.70168 2,1.6 h 22 v 12 c 0,2.2 -1.8,4 -4,4 h -20 z m 20,0 -2.4,-4.8 -10.4,4.8 z"
       style="fill:#cdd8e5;fill-opacity:0.40392157;stroke-width:0.4" />
    <path
       id="Wallet-s"
       class="st1"
       d="m 14.767998,5.50168 -3.6,1.6 h -4 c -0.88,0 -1.6,0.72 -1.6,1.6 0,0.88 0.72,1.6 1.6,1.6 h -0.8 c -1.32,0 -2.4,-0.28 -2.4,-1.6 0,-1.76 1.44,-3.2 3.2,-3.2 z m -9.2,20.8 v 1.6 h 17.6 c 2.64,0 4.8,-2.16 4.8,-4.8 v -11.2 h -1.6 v 11.2 c 0,1.76 -1.44,3.2 -3.2,3.2 z m 20.8,-20.8 h -4 l 0.8,1.6 h 3.2 z"
       style="fill:#eff0f1;fill-opacity:1;stroke-width:0.4" />
  </g>
</svg>
