<?xml version="1.0" encoding="UTF-8" standalone="no"?>
<svg
   width="22"
   height="22"
   version="1.1"
   id="svg3"
   sodipodi:docname="disk-quota-critical.svg"
   inkscape:version="1.3.2 (091e20ef0f, 2023-11-25)"
   xmlns:inkscape="http://www.inkscape.org/namespaces/inkscape"
   xmlns:sodipodi="http://sodipodi.sourceforge.net/DTD/sodipodi-0.dtd"
   xmlns="http://www.w3.org/2000/svg"
   xmlns:svg="http://www.w3.org/2000/svg">
  <defs
     id="defs3" />
  <sodipodi:namedview
     id="namedview3"
     pagecolor="#ffffff"
     bordercolor="#999999"
     borderopacity="1"
     inkscape:showpageshadow="2"
     inkscape:pageopacity="0"
     inkscape:pagecheckerboard="0"
     inkscape:deskcolor="#d1d1d1"
     inkscape:zoom="11.90625"
     inkscape:cx="10.666667"
     inkscape:cy="4.0314961"
     inkscape:window-width="1920"
     inkscape:window-height="994"
     inkscape:window-x="0"
     inkscape:window-y="0"
     inkscape:window-maximized="1"
     inkscape:current-layer="svg3" />
  <style
     type="text/css"
     id="current-color-scheme">.ColorScheme-Text{color:#232629;}.ColorScheme-NeutralText{color:#f67400;}.ColorScheme-NegativeText { color: #da4453; } </style>
  <g
     id="22-22-disk-quota-critical-6">
    <rect
       style="opacity:0.00100002"
       width="22"
       height="22"
       x="0"
       y="0"
       id="rect7" />
    <path
       id="Inbox-9"
       class="st0"
       d="m 21.666667,11 -0.6,-1.333333 H 19.6 L 20.2,11 H 15 v 1.333333 c 0,0.733334 -0.6,1.333334 -1.333333,1.333334 H 8.3333333 C 7.6,13.666667 7,13.066667 7,12.333333 V 11 H 0.3333333 v 6.666667 H 18.333333 c 1.833334,0 3.333334,-1.5 3.333334,-3.333334 z"
       style="clip-rule:evenodd;fill:#bf616a;fill-opacity:1;fill-rule:evenodd;stroke-width:0.333333" />
    <path
       id="Inbox-s-1"
       class="st1"
       d="M 1.8000003,11 H 0.3333333 L 3.1666663,4.6 C 3.6000003,3.633333 4.5333333,3 5.6333333,3 H 16.4 c 1.066667,0 2.033333,0.633333 2.466667,1.6 l 2.2,5.066667 H 19.6 l -2,-4.5 c -0.2,-0.5 -0.666667,-0.833334 -1.233333,-0.833334 H 5.6333333 c -0.5333333,0 -1,0.333334 -1.2333333,0.8 z m 18.5333327,0 v 4 c 0,1.466666 -1.2,2.666667 -2.666666,2.666667 H 1.6666663 V 19 H 17.666667 c 2.2,0 4,-1.8 4,-4 v -4 z"
       style="fill:#eff0f1;fill-opacity:1;stroke-width:0.333333" />
  </g>
</svg>
