<?xml version="1.0" encoding="UTF-8" standalone="no"?>
<svg
   width="22"
   height="22"
   version="1.1"
   id="svg2"
   sodipodi:docname="disk-quota-low.svg"
   inkscape:version="1.4.2 (unknown)"
   xmlns:inkscape="http://www.inkscape.org/namespaces/inkscape"
   xmlns:sodipodi="http://sodipodi.sourceforge.net/DTD/sodipodi-0.dtd"
   xmlns="http://www.w3.org/2000/svg"
   xmlns:svg="http://www.w3.org/2000/svg">
  <defs
     id="defs2" />
  <sodipodi:namedview
     id="namedview2"
     pagecolor="#ffffff"
     bordercolor="#999999"
     borderopacity="1"
     inkscape:showpageshadow="2"
     inkscape:pageopacity="0"
     inkscape:pagecheckerboard="0"
     inkscape:deskcolor="#d1d1d1"
     inkscape:zoom="11.90625"
     inkscape:cx="11.338583"
     inkscape:cy="18.015748"
     inkscape:window-width="1920"
     inkscape:window-height="994"
     inkscape:window-x="0"
     inkscape:window-y="0"
     inkscape:window-maximized="1"
     inkscape:current-layer="svg2" />
  <style
     type="text/css"
     id="current-color-scheme">.ColorScheme-Text{color:#232629;}.ColorScheme-NeutralText{color:#f67400;}.ColorScheme-NegativeText { color: #da4453; } </style>
  <g
     id="22-22-disk-quota-low">
    <path
       id="Inbox-5"
       class="st0"
       d="m 21.633333,11 -0.6,-1.3333333 H 19.566667 L 20.166667,11 h -5.2 v 1.333333 c 0,0.733334 -0.6,1.333334 -1.333333,1.333334 H 8.3 c -0.7333333,0 -1.3333333,-0.6 -1.3333333,-1.333334 V 11 H 0.3 v 6.666667 h 18 c 1.833333,0 3.333333,-1.5 3.333333,-3.333334 z"
       style="clip-rule:evenodd;fill:#00ccff;fill-opacity:1;fill-rule:evenodd;stroke-width:0.333333" />
    <path
       id="Inbox-s-3"
       class="st1"
       d="M 1.7666667,11 H 0.3 L 3.1333333,4.6 C 3.5666667,3.633333 4.5,3 5.6,3 H 16.366667 C 17.433334,3 18.4,3.633333 18.833333,4.6 l 2.2,5.0666667 h -1.466666 l -2,-4.4999997 c -0.2,-0.5 -0.666667,-0.833334 -1.233333,-0.833334 H 5.6 c -0.5333333,0 -1,0.333334 -1.2333333,0.8 z M 20.3,11 v 4 c 0,1.466666 -1.2,2.666667 -2.666666,2.666667 H 1.6333333 V 19 H 17.633334 c 2.199999,0 3.999999,-1.8 3.999999,-4 v -4 z"
       style="fill:#eff0f1;fill-opacity:1;stroke-width:0.333333" />
  </g>
</svg>
