<?xml version="1.0" encoding="UTF-8" standalone="no"?>
<svg
   id="svg5"
   height="96"
   style=""
   viewBox="0 0 96 96"
   width="96"
   version="1.1"
   sodipodi:docname="suspend.svg"
   inkscape:version="1.2.2 (b0a8486541, 2022-12-01)"
   xmlns:inkscape="http://www.inkscape.org/namespaces/inkscape"
   xmlns:sodipodi="http://sodipodi.sourceforge.net/DTD/sodipodi-0.dtd"
   xmlns="http://www.w3.org/2000/svg"
   xmlns:svg="http://www.w3.org/2000/svg">
  <defs
     id="defs6" />
  <sodipodi:namedview
     id="namedview4"
     pagecolor="#3a3f47"
     bordercolor="#000000"
     borderopacity="1"
     inkscape:showpageshadow="2"
     inkscape:pageopacity="1"
     inkscape:pagecheckerboard="true"
     inkscape:deskcolor="#3a3f47"
     showgrid="true"
     inkscape:zoom="3.0751779"
     inkscape:cx="50.891365"
     inkscape:cy="91.214235"
     inkscape:window-width="1920"
     inkscape:window-height="1002"
     inkscape:window-x="0"
     inkscape:window-y="0"
     inkscape:window-maximized="1"
     inkscape:current-layer="svg5">
    <inkscape:grid
       type="xygrid"
       id="grid236" />
  </sodipodi:namedview>
  <path
     id="Zoom"
     class="st0"
     d="m 59.744565,88.44304 v 0 c 6.84538,-1.6009 13.28547,-4.93923 18.93934,-9.91248 18.9338,-16.65463 20.48956,-45.010997 3.48702,-63.557389 -17.00248,-18.5463984 -45.95119,-20.0703284 -64.88499,-3.415713 -18.93381,16.65463 -20.48956,45.010985 -3.48705,63.557382 10.15428,11.07632 24.65015,16.0071 38.86415,14.67151 v 0 0 0 z M 24.317675,65.86229 c -11.68923,-12.750652 -10.60288,-32.551235 2.41408,-44.001277 13.01705,-11.450046 33.23118,-10.385927 44.92043,2.364712 11.6892,12.750654 10.60286,32.55123 -2.41416,44.001275 -13.01698,11.45003 -33.23111,10.38592 -44.92035,-2.36471 z"
     sodipodi:nodetypes="ccssssccccccsssss"
     style="fill:#cdd8e5;fill-opacity:0.403922;stroke-width:1.749" />
  <path
     id="Zoom-s"
     class="st1"
     d="m 49.628225,26.081051 c -6.51733,-0.341391 -13.05072,1.889431 -17.93721,6.167069 l 4.74384,5.149773 c 7.26373,-6.358649 18.54363,-5.767713 25.06646,1.313228 l 5.28272,-4.624482 c -4.38808,-4.763535 -10.63857,-7.664146 -17.15581,-8.005588 z m 44.35238,27.384827 0.0111,-0.01181 0.007,-0.0052 -0.0591,-0.01957 0.0419,0.01292 0.0185,-0.05575 z"
     sodipodi:nodetypes="ccccccccccccc"
     style="fill:#eff0f1;fill-opacity:1;stroke-width:1.75254" />
  <path
     d="m 55.236225,61.83035 -6.44634,-0.10457 9.05186,-12.146499 c 0.77458,-1.050927 0.9571,-2.50804 0.47363,-3.759648 -0.49886,-1.251836 -1.57302,-2.062313 -2.77096,-2.081764 l -13.0033,-0.210683 c -1.71805,-0.0288 -3.13208,1.53541 -3.16561,3.499677 -0.0373,1.964278 1.32654,3.572448 3.0445,3.60031 l 6.44651,0.104566 -9.05191,12.146561 c -0.77464,1.05095 -0.9571,2.50807 -0.47368,3.75954 0.49892,1.25191 1.57298,2.06234 2.77099,2.08177 l 13.00324,0.21068 c 1.71809,0.0284 3.13217,-1.53545 3.16565,-3.49954 0.0373,-1.96425 -1.34239,-3.57285 -3.04461,-3.60042 z"
     id="path4-3-3-4"
     style="fill:#eff0f1;fill-opacity:1;stroke-width:0.168564" />
  <path
     id="Power-s-5-2-4"
     class="st1"
     d="m 93.275565,53.382639 v 0.0014 l -6.29324,-0.0014 v 0 c 0,20.243261 -21.02998,36.529171 -41.95509,36.529171 V 96 c 24.38636,0 48.24833,-19.02562 48.24833,-42.617361 z"
     style="fill:#eff0f1;fill-opacity:1;stroke-width:1.54747"
     sodipodi:nodetypes="ccccccc" />
</svg>
