<?xml version="1.0" encoding="UTF-8" standalone="no"?>
<svg
   width="32"
   height="32"
   version="1.1"
   id="svg1"
   sodipodi:docname="input-num-on.svg"
   inkscape:version="1.4.2 (unknown)"
   xmlns:inkscape="http://www.inkscape.org/namespaces/inkscape"
   xmlns:sodipodi="http://sodipodi.sourceforge.net/DTD/sodipodi-0.dtd"
   xmlns="http://www.w3.org/2000/svg"
   xmlns:svg="http://www.w3.org/2000/svg">
  <defs
     id="defs1" />
  <sodipodi:namedview
     id="namedview1"
     pagecolor="#ffffff"
     bordercolor="#999999"
     borderopacity="1"
     inkscape:showpageshadow="2"
     inkscape:pageopacity="0"
     inkscape:pagecheckerboard="0"
     inkscape:deskcolor="#d1d1d1"
     inkscape:zoom="8.4189901"
     inkscape:cx="18.173201"
     inkscape:cy="38.543815"
     inkscape:window-width="1920"
     inkscape:window-height="994"
     inkscape:window-x="0"
     inkscape:window-y="0"
     inkscape:window-maximized="1"
     inkscape:current-layer="svg1" />
  <style
     type="text/css"
     id="current-color-scheme">.ColorScheme-Text {
        color:#fcfcfc;
      }
      .ColorScheme-Background {
        color:#eff0f1;
      }
      .ColorScheme-Highlight {
        color:#3daee9;
      }
      .ColorScheme-ViewText {
        color:#31363b;
      }
      .ColorScheme-ViewBackground {
        color:#fcfcfc;
      }
      .ColorScheme-ViewHover {
        color:#93cee9;
      }
      .ColorScheme-ViewFocus{
        color:#3daee9;
      }
      .ColorScheme-ButtonText {
        color:#31363b;
      }
      .ColorScheme-ButtonBackground {
        color:#eff0f1;
      }
      .ColorScheme-ButtonHover {
        color:#93cee9;
      }
      .ColorScheme-ButtonFocus{
        color:#3daee9;
      }</style>
  <g
     id="g1">
    <path
       id="Edit-39"
       class="st0"
       d="m 8.384615,22.85727 v 0 0 0 0 0 0 0 L 23.692243,23.00378 8.384615,22.85727 V 7.40013 H 23.999998 L 26.999998,4 5,4.00013 v 22.28572 h 17.76923 c 1.896038,0 2.682434,-3.27284 2.682434,-3.27284 z"
       sodipodi:nodetypes="cccccccccccccccscc"
       style="fill:#cdd8e5;fill-opacity:0.403922;stroke-width:0.425815" />
    <path
       id="Edit-s-4"
       class="st1"
       d="M 21.923076,26.28585 H 6.692307 v 1.71428 H 21.923076 C 24.715384,28.00013 27,25.68585 27,22.85727 V 7.30013 l -1.692308,2 v 13.55714 c 0,1.88572 -1.523077,3.42858 -3.384616,3.42858 z"
       sodipodi:nodetypes="ccccccccc"
       style="fill:#eff0f1;fill-opacity:1;stroke-width:0.425815" />
    <path
       d="m 19.474838,19.099606 h -1.499921 v -8.624602 c 0,-0.298576 -0.11853,-0.584603 -0.32947,-0.795539 C 17.434517,9.46853 17.148238,9.35 16.849908,9.35 h -2.62492 c -0.40204,0 -0.77343,0.214451 -0.97432,0.562502 -0.200891,0.348051 -0.200891,0.77696 0,1.125004 0.20089,0.348051 0.57229,0.562502 0.97432,0.562502 h 1.49992 v 7.500241 h -1.49992 v -2.57e-4 c -0.40204,0 -0.77343,0.214451 -0.97432,0.562502 -0.200891,0.348051 -0.200891,0.77696 0,1.125004 0.20089,0.348051 0.57229,0.562502 0.97432,0.562502 h 5.2501 -2.5e-4 c 0.402029,0 0.77342,-0.214451 0.974309,-0.562502 0.200901,-0.348051 0.200901,-0.77696 0,-1.125004 -0.20089,-0.348051 -0.572289,-0.562502 -0.974309,-0.562502 z"
       id="path6"
       style="fill:#eff0f1;fill-opacity:1;stroke-width:0.0642859" />
  </g>
</svg>
