<?xml version="1.0" encoding="UTF-8" standalone="no"?>
<svg
   width="32"
   height="32"
   version="1.1"
   id="svg1"
   sodipodi:docname="input-combo-on.svg"
   inkscape:version="1.4.2 (unknown)"
   xmlns:inkscape="http://www.inkscape.org/namespaces/inkscape"
   xmlns:sodipodi="http://sodipodi.sourceforge.net/DTD/sodipodi-0.dtd"
   xmlns="http://www.w3.org/2000/svg"
   xmlns:svg="http://www.w3.org/2000/svg">
  <defs
     id="defs1" />
  <sodipodi:namedview
     id="namedview1"
     pagecolor="#444444"
     bordercolor="#999999"
     borderopacity="1"
     inkscape:showpageshadow="2"
     inkscape:pageopacity="0"
     inkscape:pagecheckerboard="0"
     inkscape:deskcolor="#d1d1d1"
     inkscape:zoom="8.4189901"
     inkscape:cx="23.221312"
     inkscape:cy="16.569683"
     inkscape:window-width="1920"
     inkscape:window-height="994"
     inkscape:window-x="0"
     inkscape:window-y="0"
     inkscape:window-maximized="1"
     inkscape:current-layer="svg1" />
  <style
     type="text/css"
     id="current-color-scheme">.ColorScheme-Text {
        color:#fcfcfc;
      }
      .ColorScheme-Background {
        color:#eff0f1;
      }
      .ColorScheme-Highlight {
        color:#3daee9;
      }
      .ColorScheme-ViewText {
        color:#31363b;
      }
      .ColorScheme-ViewBackground {
        color:#fcfcfc;
      }
      .ColorScheme-ViewHover {
        color:#93cee9;
      }
      .ColorScheme-ViewFocus{
        color:#3daee9;
      }
      .ColorScheme-ButtonText {
        color:#31363b;
      }
      .ColorScheme-ButtonBackground {
        color:#eff0f1;
      }
      .ColorScheme-ButtonHover {
        color:#93cee9;
      }
      .ColorScheme-ButtonFocus{
        color:#3daee9;
      }</style>
  <g
     id="input-caps-on"
     transform="translate(-19,-112)">
    <path
       id="Edit"
       class="st0"
       d="m 27,134.99982 v 0.0572 -0.057 0 0 0 0 0 H 42.692245 27 v -16.0002 l 16,1.6e-4 3,-3.00011 L 24.000002,116 v 22.28572 L 41,138.28598 c 1.905464,3e-5 3.3,-1.28616 3.307,-3.28616 z"
       sodipodi:nodetypes="cccccccccccccccscc"
       style="fill:#cdd8e5;fill-opacity:0.403922;stroke-width:0.425815" />
    <path
       id="Edit-s"
       class="st1"
       d="M 40.923078,138.28572 H 25.692309 V 140 h 15.230769 c 2.792308,0 5.076924,-2.31428 5.076924,-5.14286 V 118.99998 L 44.307694,121.3 44.308,134.99998 c -0.008,2.14268 -1.523383,3.28574 -3.384922,3.28574 z"
       sodipodi:nodetypes="ccccccccc"
       style="fill:#eff0f1;fill-opacity:1;stroke-width:0.425815" />
    <path
       d="m 39.54989,131.49967 h -0.18604 c -0.31506,0 -0.58214,-0.19659 -0.69467,-0.46812 l -3.66993,-9.55441 c -0.003,-0.006 -0.007,-0.0105 -0.0106,-0.0165 -0.021,-0.0525 -0.057,-0.0945 -0.09,-0.141 -0.024,-0.0345 -0.042,-0.0735 -0.072,-0.10356 -0.0256,-0.0256 -0.06,-0.0405 -0.0885,-0.0631 -0.0511,-0.0359 -0.0991,-0.0749 -0.15606,-0.0975 -0.006,-0.003 -0.009,-0.007 -0.0135,-0.009 -0.0316,-0.012 -0.0631,-0.009 -0.0945,-0.0165 -0.0585,-0.0135 -0.11402,-0.03 -0.17406,-0.03 -0.0615,0 -0.11856,0.0165 -0.17708,0.0315 -0.03,0.007 -0.0616,0.003 -0.0915,0.015 -0.002,0 -0.005,0.006 -0.006,0.006 -0.18897,0.075 -0.34805,0.22053 -0.42608,0.42458 l -3.66996,9.55442 c -0.11103,0.27153 -0.37813,0.46812 -0.69318,0.46812 h -0.18604 c -0.41563,0 -0.75019,0.33608 -0.75019,0.75018 0,0.41111 0.33456,0.7502 0.75019,0.7502 h 1.23027 0.0165 1.75248 c 0.41411,0 0.7502,-0.33909 0.7502,-0.7502 0,-0.4141 -0.33609,-0.75018 -0.7502,-0.75018 h -0.14099 c -0.20856,0 -0.3751,-0.16955 -0.3751,-0.3751 0,-0.048 0.008,-0.093 0.024,-0.13655 0.002,-0.003 -0.006,0.005 -0.006,0.002 l 0.38112,-0.99326 h 4.00452 l 0.42609,1.13877 c 0.001,0.001 0,0.001 0,0.003 0.0616,0.17256 -0.0105,0.36161 -0.16051,0.45011 0,0 0.006,0.005 0.006,0.006 -0.24163,0.12451 -0.40817,0.36756 -0.40817,0.65567 0,0.4111 0.33456,0.75019 0.75019,0.75019 h 1.62045 0.0585 1.32038 c 0.4141,0 0.75019,-0.33909 0.75019,-0.75019 -8e-5,-0.41411 -0.33617,-0.75019 -0.75028,-0.75019 z m -7.03978,-3.00376 1.04273,-2.71719 c 0.002,-0.003 0.003,0.009 0.006,0 0.078,-0.21903 0.31958,-0.33609 0.54011,-0.25804 0.11856,0.042 0.21007,0.13656 0.2521,0.24758 v -0.002 l 1.02322,2.73069 h -2.86422 z"
       id="path2"
       style="fill:#eff0f1;fill-opacity:1;stroke-width:0.021434"
       sodipodi:nodetypes="cscccccccccscccccssssccsssssccccccccssccscccccccccccc" />
  </g>
  <path
     d="M 22.867878,13.760802 H 22.100866 V 9.4485023 c 0,-0.1492882 -0.06062,-0.2923011 -0.168481,-0.3977697 C 21.824529,8.9452655 21.678134,8.886 21.525574,8.886 h -1.342292 c -0.20559,0 -0.395506,0.1072258 -0.498233,0.2812517 -0.102732,0.1740248 -0.102732,0.3884794 0,0.5625013 0.102727,0.1740255 0.292643,0.281251 0.498233,0.281251 h 0.767009 v 3.750122 h -0.767009 v -1.3e-4 c -0.20559,0 -0.395506,0.107225 -0.498233,0.281252 -0.102732,0.174024 -0.102732,0.388477 0,0.562501 0.102727,0.174025 0.292643,0.281251 0.498233,0.281251 h 2.684725 -1.29e-4 c 0.205582,0 0.395499,-0.107226 0.498229,-0.281251 0.102733,-0.174026 0.102733,-0.388482 0,-0.562501 -0.10273,-0.174027 -0.292652,-0.281252 -0.498229,-0.281252 z"
     id="path6-9"
     style="fill:#eff0f1;fill-opacity:1;stroke-width:0.0433415" />
</svg>
