<?xml version="1.0" encoding="UTF-8" standalone="no"?>
<svg
   width="32"
   height="32"
   version="1.1"
   id="svg10"
   sodipodi:docname="input-keyboard-virtual-on.svg"
   inkscape:version="1.3.2 (091e20ef0f, 2023-11-25)"
   xmlns:inkscape="http://www.inkscape.org/namespaces/inkscape"
   xmlns:sodipodi="http://sodipodi.sourceforge.net/DTD/sodipodi-0.dtd"
   xmlns="http://www.w3.org/2000/svg"
   xmlns:svg="http://www.w3.org/2000/svg">
  <defs
     id="defs14" />
  <sodipodi:namedview
     id="namedview12"
     pagecolor="#ffffff"
     bordercolor="#000000"
     borderopacity="0.25"
     inkscape:showpageshadow="2"
     inkscape:pageopacity="0.0"
     inkscape:pagecheckerboard="0"
     inkscape:deskcolor="#d1d1d1"
     showgrid="false"
     inkscape:zoom="6.0390625"
     inkscape:cx="16.062096"
     inkscape:cy="16.062096"
     inkscape:window-width="1920"
     inkscape:window-height="994"
     inkscape:window-x="0"
     inkscape:window-y="0"
     inkscape:window-maximized="1"
     inkscape:current-layer="svg10" />
  <style
     type="text/css"
     id="current-color-scheme">.ColorScheme-Text {
        color:#fcfcfc;
      }
      .ColorScheme-Background {
        color:#eff0f1;
      }
      .ColorScheme-Highlight {
        color:#3daee9;
      }
      .ColorScheme-ViewText {
        color:#31363b;
      }
      .ColorScheme-ViewBackground {
        color:#fcfcfc;
      }
      .ColorScheme-ViewHover {
        color:#93cee9;
      }
      .ColorScheme-ViewFocus{
        color:#3daee9;
      }
      .ColorScheme-ButtonText {
        color:#31363b;
      }
      .ColorScheme-ButtonBackground {
        color:#eff0f1;
      }
      .ColorScheme-ButtonHover {
        color:#93cee9;
      }
      .ColorScheme-ButtonFocus{
        color:#3daee9;
      }</style>
  <g
     id="input-keyboard-virtual-on-2">
    <rect
       style="fill:none;fill-rule:evenodd;stroke:none;stroke-width:1.45455px;stroke-linecap:butt;stroke-linejoin:miter;stroke-opacity:1"
       id="rect4192"
       width="32"
       height="32"
       x="0"
       y="0" />
    <path
       id="path8-9"
       d="M 6.0833333,4 A 2.9166662,2.926812 0 0 0 3.1666667,6.9268278 2.9166662,2.926812 0 0 0 6.0833333,9.853658 2.9166662,2.926812 0 0 0 9,6.9268278 2.9166662,2.926812 0 0 0 6.0833333,4 Z"
       style="fill:#11d116;fill-opacity:1;stroke:none;stroke-width:1.69993"
       inkscape:connector-curvature="0" />
    <path
       id="Keyboard-3"
       class="st0"
       d="m 2,10.889307 v 15.399622 h 23.625 c 2.40625,0 4.375,-1.924951 4.375,-4.277672 v -11.12195 z m 14.875,3.422137 h 1.75 v 1.711071 h -1.75 z m -3.5,0 h 1.75 v 1.711071 h -1.75 z m 3.5,3.422142 v 1.711071 h -1.75 V 17.733586 Z M 5.5,14.311444 h 2.625 v 1.711071 H 5.5 Z M 9,22.866793 H 7.25 V 21.155722 H 9 Z M 9.875,19.444657 H 5.5 v -1.711071 h 4.375 z m 0,-5.133213 h 1.75 v 1.711071 h -1.75 z m 3.5,3.422142 v 1.711071 h -1.75 v -1.711071 z m 6.125,5.133207 h -8.75 v -1.711071 h 8.75 z m 0.875,-3.422136 h -1.75 v -1.711071 h 1.75 z m 0,-5.133213 h 1.75 v 1.711071 h -1.75 z M 23,22.866793 H 21.25 V 21.155722 H 23 Z m 2.625,-3.422136 h -3.5 v -1.711071 h 3.5 z m 0,-3.422142 h -1.75 v -1.711071 h 1.75 z"
       style="clip-rule:evenodd;fill:#cdd8e5;fill-opacity:0.403922;fill-rule:evenodd;stroke-width:0.432606" />
    <path
       id="Keyboard-s-6"
       class="st1"
       d="M 30,12.600379 V 22.866793 C 30,25.690058 27.637499,28 24.75,28 h -21 v -1.711071 h 21 c 1.925,0 3.5,-1.539963 3.5,-3.422136 V 12.600379 Z M 20.375,6.6116341 V 5.7560997 h 1.75 v 0.8555344 c 0,1.4116325 -1.18125,2.5666039 -2.625,2.5666039 h -1.75 c -0.48125,0 -0.875,0.384993 -0.875,0.855534 v 0.855535 h -1.75 v -0.855535 c 0,-1.4116311 1.18125,-2.5666029 2.625,-2.5666029 h 1.75 c 0.48125,0 0.875,-0.3849905 0.875,-0.855535 z"
       style="clip-rule:evenodd;fill:#eff0f1;fill-opacity:1;fill-rule:evenodd;stroke-width:0.432606" />
  </g>
</svg>
