<?xml version="1.0" encoding="UTF-8" standalone="no"?>
<svg
   width="32"
   height="32"
   version="1.1"
   id="svg8"
   sodipodi:docname="input-keyboard-virtual-off.svg"
   inkscape:version="1.3.2 (091e20ef0f, 2023-11-25)"
   xmlns:inkscape="http://www.inkscape.org/namespaces/inkscape"
   xmlns:sodipodi="http://sodipodi.sourceforge.net/DTD/sodipodi-0.dtd"
   xmlns="http://www.w3.org/2000/svg"
   xmlns:svg="http://www.w3.org/2000/svg">
  <sodipodi:namedview
     id="namedview1"
     pagecolor="#ffffff"
     bordercolor="#999999"
     borderopacity="1"
     inkscape:showpageshadow="2"
     inkscape:pageopacity="0"
     inkscape:pagecheckerboard="0"
     inkscape:deskcolor="#d1d1d1"
     inkscape:zoom="5.953125"
     inkscape:cx="2.687664"
     inkscape:cy="-1.67979"
     inkscape:window-width="1920"
     inkscape:window-height="994"
     inkscape:window-x="0"
     inkscape:window-y="0"
     inkscape:window-maximized="1"
     inkscape:current-layer="svg8" />
  <defs
     id="defs12" />
  <style
     type="text/css"
     id="current-color-scheme">.ColorScheme-Text {
        color:#fcfcfc;
      }
      .ColorScheme-Background {
        color:#eff0f1;
      }
      .ColorScheme-Highlight {
        color:#3daee9;
      }
      .ColorScheme-ViewText {
        color:#31363b;
      }
      .ColorScheme-ViewBackground {
        color:#fcfcfc;
      }
      .ColorScheme-ViewHover {
        color:#93cee9;
      }
      .ColorScheme-ViewFocus{
        color:#3daee9;
      }
      .ColorScheme-ButtonText {
        color:#31363b;
      }
      .ColorScheme-ButtonBackground {
        color:#eff0f1;
      }
      .ColorScheme-ButtonHover {
        color:#93cee9;
      }
      .ColorScheme-ButtonFocus{
        color:#3daee9;
      }</style>
  <g
     id="input-keyboard-virtual-off-6">
    <rect
       style="fill:none;fill-rule:evenodd;stroke:none;stroke-width:1.45455px;stroke-linecap:butt;stroke-linejoin:miter;stroke-opacity:1"
       id="rect4176"
       width="32"
       height="32"
       x="0"
       y="0" />
    <path
       id="Keyboard-35"
       class="st0"
       d="M 2,9.538462 V 26.15385 h 23.625 c 2.40625,0 4.375,-2.076926 4.375,-4.615389 V 9.538462 Z m 14.875,3.692315 h 1.75 v 1.846148 h -1.75 z m -3.5,0 h 1.75 v 1.846148 h -1.75 z m 3.5,3.692297 v 1.846149 h -1.75 V 16.923074 Z M 5.5,13.230745 h 2.625 v 1.84618 H 5.5 Z M 9,22.461537 H 7.25 v -1.84615 H 9 Z M 9.875,18.769223 H 5.5 v -1.846149 h 4.375 z m 0,-5.538446 h 1.75 v 1.846148 h -1.75 z m 3.5,3.692297 v 1.846149 h -1.75 v -1.846149 z m 6.125,5.538463 h -8.75 v -1.84615 h 8.75 z m 0.875,-3.692314 h -1.75 v -1.846149 h 1.75 z m 0,-5.538446 h 1.75 v 1.846148 h -1.75 z M 23,22.461537 h -1.75 v -1.84615 H 23 Z m 2.625,-3.692314 h -3.5 v -1.846149 h 3.5 z m 0,-3.692298 h -1.75 v -1.846148 h 1.75 z"
       style="clip-rule:evenodd;fill:#bf616a;fill-opacity:1;fill-rule:evenodd;stroke-width:0.449359" />
    <path
       id="Keyboard-s-62"
       class="st1"
       d="M 30,11.384613 V 22.461537 C 30,25.507688 27.6375,28 24.75,28 h -21 v -1.84615 h 21 c 1.925,0 3.5,-1.661538 3.5,-3.692313 V 11.384613 Z M 20.375,4.9230746 V 4 h 1.75 v 0.9230746 c 0,1.5230785 -1.18125,2.7692374 -2.625,2.7692374 h -1.75 c -0.48125,0 -0.875,0.41538 -0.875,0.923074 v 0.923076 h -1.75 V 8.615386 c 0,-1.5230786 1.18125,-2.7692317 2.625,-2.7692317 h 1.75 c 0.48125,0 0.875,-0.4153849 0.875,-0.9230797 z"
       style="clip-rule:evenodd;fill:#eff0f1;fill-opacity:1;fill-rule:evenodd;stroke-width:0.449359" />
  </g>
</svg>
