<?xml version="1.0" encoding="UTF-8" standalone="no"?>
<svg
   width="32"
   height="32"
   version="1.1"
   id="svg6"
   sodipodi:docname="keyboard-layout.svg"
   inkscape:version="1.3.2 (091e20ef0f, 2023-11-25)"
   xmlns:inkscape="http://www.inkscape.org/namespaces/inkscape"
   xmlns:sodipodi="http://sodipodi.sourceforge.net/DTD/sodipodi-0.dtd"
   xmlns="http://www.w3.org/2000/svg"
   xmlns:svg="http://www.w3.org/2000/svg">
  <defs
     id="defs10" />
  <sodipodi:namedview
     id="namedview8"
     pagecolor="#ffffff"
     bordercolor="#000000"
     borderopacity="0.25"
     inkscape:showpageshadow="2"
     inkscape:pageopacity="0.0"
     inkscape:pagecheckerboard="0"
     inkscape:deskcolor="#d1d1d1"
     showgrid="false"
     inkscape:zoom="8.5405241"
     inkscape:cx="24.237388"
     inkscape:cy="33.721584"
     inkscape:window-width="1920"
     inkscape:window-height="994"
     inkscape:window-x="0"
     inkscape:window-y="0"
     inkscape:window-maximized="1"
     inkscape:current-layer="svg6" />
  <style
     type="text/css"
     id="current-color-scheme">
      .ColorScheme-Text {
        color:#fcfcfc;
      }
      .ColorScheme-Background {
        color:#eff0f1;
      }
      .ColorScheme-Highlight {
        color:#3daee9;
      }
      .ColorScheme-ViewText {
        color:#31363b;
      }
      .ColorScheme-ViewBackground {
        color:#fcfcfc;
      }
      .ColorScheme-ViewHover {
        color:#93cee9;
      }
      .ColorScheme-ViewFocus{
        color:#3daee9;
      }
      .ColorScheme-ButtonText {
        color:#31363b;
      }
      .ColorScheme-ButtonBackground {
        color:#eff0f1;
      }
      .ColorScheme-ButtonHover {
        color:#93cee9;
      }
      .ColorScheme-ButtonFocus{
        color:#3daee9;
      }
      </style>
  <g
     id="input-keyboard">
    <rect
       style="fill:none;fill-rule:evenodd;stroke:none;stroke-width:1.45455px;stroke-linecap:butt;stroke-linejoin:miter;stroke-opacity:1"
       id="rect4196"
       width="32"
       height="32"
       x="0"
       y="3.7060545e-07" />
    <path
       id="Keyboard"
       class="st0"
       d="m 2,9.538462 v 16.615384 h 23.625 c 2.406254,0 4.375,-2.076923 4.375,-4.615384 v -12 z m 14.875,3.692307 h 1.75 v 1.846154 h -1.75 z m -3.5,0 h 1.75 v 1.846154 h -1.75 z m 3.5,3.692308 v 1.846154 h -1.75 V 16.923077 Z M 5.5,13.230769 h 2.6249995 v 1.846154 H 5.5 Z m 3.4999996,9.230769 H 7.2499999 V 20.615385 H 8.9999996 Z M 9.875,18.769231 H 5.5 v -1.846154 h 4.375 z m 0,-5.538462 h 1.75 v 1.846154 h -1.75 z m 3.5,3.692308 v 1.846154 h -1.75 v -1.846154 z m 6.124999,5.538461 H 10.75 v -1.846153 h 8.749999 z m 0.875,-3.692307 H 18.625 v -1.846154 h 1.749999 z m 0,-5.538462 H 22.125 v 1.846154 H 20.374999 Z M 23,22.461538 H 21.249999 V 20.615385 H 23 Z m 2.625,-3.692307 h -3.5 v -1.846154 h 3.5 z m 0,-3.692308 h -1.75 v -1.846154 h 1.75 z"
       style="clip-rule:evenodd;fill:#cdd8e5;fill-opacity:0.403922;fill-rule:evenodd;stroke-width:0.449357" />
    <path
       id="Keyboard-s"
       class="st1"
       d="M 30,11.384615 V 22.461538 C 30,25.507692 27.63749,28 24.75,28 H 3.7499999 V 26.153846 H 24.75 c 1.924999,0 3.5,-1.661538 3.5,-3.692308 V 11.384615 Z M 20.374999,4.9230769 V 4 H 22.125 v 0.9230769 c 0,1.5230769 -1.181256,2.7692308 -2.625001,2.7692308 H 17.75 c -0.481255,0 -0.875,0.4153843 -0.875,0.9230773 v 0.923077 h -1.75 V 8.615385 c 0,-1.5230773 1.181255,-2.7692312 2.625,-2.7692312 h 1.749999 c 0.481256,0 0.875,-0.4153846 0.875,-0.9230769 z"
       style="clip-rule:evenodd;fill:#eff0f1;fill-opacity:1;fill-rule:evenodd;stroke-width:0.449357" />
  </g>
</svg>
